G04 #@! TF.GenerationSoftware,KiCad,Pcbnew,7.0.6*
G04 #@! TF.CreationDate,2023-08-17T21:15:31+02:00*
G04 #@! TF.ProjectId,esp-switch,6573702d-7377-4697-9463-682e6b696361,rev?*
G04 #@! TF.SameCoordinates,Original*
G04 #@! TF.FileFunction,Legend,Bot*
G04 #@! TF.FilePolarity,Positive*
%FSLAX46Y46*%
G04 Gerber Fmt 4.6, Leading zero omitted, Abs format (unit mm)*
G04 Created by KiCad (PCBNEW 7.0.6) date 2023-08-17 21:15:31*
%MOMM*%
%LPD*%
G01*
G04 APERTURE LIST*
G04 Aperture macros list*
%AMRoundRect*
0 Rectangle with rounded corners*
0 $1 Rounding radius*
0 $2 $3 $4 $5 $6 $7 $8 $9 X,Y pos of 4 corners*
0 Add a 4 corners polygon primitive as box body*
4,1,4,$2,$3,$4,$5,$6,$7,$8,$9,$2,$3,0*
0 Add four circle primitives for the rounded corners*
1,1,$1+$1,$2,$3*
1,1,$1+$1,$4,$5*
1,1,$1+$1,$6,$7*
1,1,$1+$1,$8,$9*
0 Add four rect primitives between the rounded corners*
20,1,$1+$1,$2,$3,$4,$5,0*
20,1,$1+$1,$4,$5,$6,$7,0*
20,1,$1+$1,$6,$7,$8,$9,0*
20,1,$1+$1,$8,$9,$2,$3,0*%
G04 Aperture macros list end*
%ADD10C,0.150000*%
%ADD11C,0.120000*%
%ADD12R,1.600000X1.600000*%
%ADD13C,1.600000*%
%ADD14O,1.600000X1.600000*%
%ADD15C,1.800000*%
%ADD16R,2.400000X2.400000*%
%ADD17O,2.400000X2.400000*%
%ADD18C,1.905000*%
%ADD19O,1.905000X2.000000*%
%ADD20R,1.700000X1.700000*%
%ADD21O,1.700000X1.700000*%
%ADD22R,2.200000X2.200000*%
%ADD23O,2.200000X2.200000*%
%ADD24RoundRect,0.250000X0.450000X-0.350000X0.450000X0.350000X-0.450000X0.350000X-0.450000X-0.350000X0*%
%ADD25RoundRect,0.250000X-0.450000X0.350000X-0.450000X-0.350000X0.450000X-0.350000X0.450000X0.350000X0*%
%ADD26RoundRect,0.250000X0.475000X-0.337500X0.475000X0.337500X-0.475000X0.337500X-0.475000X-0.337500X0*%
%ADD27R,1.900000X0.800000*%
%ADD28R,0.800000X1.900000*%
G04 APERTURE END LIST*
D10*
X48812268Y-17262200D02*
X48907506Y-17309819D01*
X48907506Y-17309819D02*
X49097982Y-17309819D01*
X49097982Y-17309819D02*
X49193220Y-17262200D01*
X49193220Y-17262200D02*
X49240839Y-17166961D01*
X49240839Y-17166961D02*
X49240839Y-16786009D01*
X49240839Y-16786009D02*
X49193220Y-16690771D01*
X49193220Y-16690771D02*
X49097982Y-16643152D01*
X49097982Y-16643152D02*
X48907506Y-16643152D01*
X48907506Y-16643152D02*
X48812268Y-16690771D01*
X48812268Y-16690771D02*
X48764649Y-16786009D01*
X48764649Y-16786009D02*
X48764649Y-16881247D01*
X48764649Y-16881247D02*
X49240839Y-16976485D01*
X48383696Y-17262200D02*
X48288458Y-17309819D01*
X48288458Y-17309819D02*
X48097982Y-17309819D01*
X48097982Y-17309819D02*
X48002744Y-17262200D01*
X48002744Y-17262200D02*
X47955125Y-17166961D01*
X47955125Y-17166961D02*
X47955125Y-17119342D01*
X47955125Y-17119342D02*
X48002744Y-17024104D01*
X48002744Y-17024104D02*
X48097982Y-16976485D01*
X48097982Y-16976485D02*
X48240839Y-16976485D01*
X48240839Y-16976485D02*
X48336077Y-16928866D01*
X48336077Y-16928866D02*
X48383696Y-16833628D01*
X48383696Y-16833628D02*
X48383696Y-16786009D01*
X48383696Y-16786009D02*
X48336077Y-16690771D01*
X48336077Y-16690771D02*
X48240839Y-16643152D01*
X48240839Y-16643152D02*
X48097982Y-16643152D01*
X48097982Y-16643152D02*
X48002744Y-16690771D01*
X47526553Y-16643152D02*
X47526553Y-17643152D01*
X47526553Y-16690771D02*
X47431315Y-16643152D01*
X47431315Y-16643152D02*
X47240839Y-16643152D01*
X47240839Y-16643152D02*
X47145601Y-16690771D01*
X47145601Y-16690771D02*
X47097982Y-16738390D01*
X47097982Y-16738390D02*
X47050363Y-16833628D01*
X47050363Y-16833628D02*
X47050363Y-17119342D01*
X47050363Y-17119342D02*
X47097982Y-17214580D01*
X47097982Y-17214580D02*
X47145601Y-17262200D01*
X47145601Y-17262200D02*
X47240839Y-17309819D01*
X47240839Y-17309819D02*
X47431315Y-17309819D01*
X47431315Y-17309819D02*
X47526553Y-17262200D01*
X46621791Y-16928866D02*
X45859887Y-16928866D01*
X45431315Y-17262200D02*
X45336077Y-17309819D01*
X45336077Y-17309819D02*
X45145601Y-17309819D01*
X45145601Y-17309819D02*
X45050363Y-17262200D01*
X45050363Y-17262200D02*
X45002744Y-17166961D01*
X45002744Y-17166961D02*
X45002744Y-17119342D01*
X45002744Y-17119342D02*
X45050363Y-17024104D01*
X45050363Y-17024104D02*
X45145601Y-16976485D01*
X45145601Y-16976485D02*
X45288458Y-16976485D01*
X45288458Y-16976485D02*
X45383696Y-16928866D01*
X45383696Y-16928866D02*
X45431315Y-16833628D01*
X45431315Y-16833628D02*
X45431315Y-16786009D01*
X45431315Y-16786009D02*
X45383696Y-16690771D01*
X45383696Y-16690771D02*
X45288458Y-16643152D01*
X45288458Y-16643152D02*
X45145601Y-16643152D01*
X45145601Y-16643152D02*
X45050363Y-16690771D01*
X44669410Y-16643152D02*
X44478934Y-17309819D01*
X44478934Y-17309819D02*
X44288458Y-16833628D01*
X44288458Y-16833628D02*
X44097982Y-17309819D01*
X44097982Y-17309819D02*
X43907506Y-16643152D01*
X43526553Y-17309819D02*
X43526553Y-16643152D01*
X43526553Y-16309819D02*
X43574172Y-16357438D01*
X43574172Y-16357438D02*
X43526553Y-16405057D01*
X43526553Y-16405057D02*
X43478934Y-16357438D01*
X43478934Y-16357438D02*
X43526553Y-16309819D01*
X43526553Y-16309819D02*
X43526553Y-16405057D01*
X43193220Y-16643152D02*
X42812268Y-16643152D01*
X43050363Y-16309819D02*
X43050363Y-17166961D01*
X43050363Y-17166961D02*
X43002744Y-17262200D01*
X43002744Y-17262200D02*
X42907506Y-17309819D01*
X42907506Y-17309819D02*
X42812268Y-17309819D01*
X42050363Y-17262200D02*
X42145601Y-17309819D01*
X42145601Y-17309819D02*
X42336077Y-17309819D01*
X42336077Y-17309819D02*
X42431315Y-17262200D01*
X42431315Y-17262200D02*
X42478934Y-17214580D01*
X42478934Y-17214580D02*
X42526553Y-17119342D01*
X42526553Y-17119342D02*
X42526553Y-16833628D01*
X42526553Y-16833628D02*
X42478934Y-16738390D01*
X42478934Y-16738390D02*
X42431315Y-16690771D01*
X42431315Y-16690771D02*
X42336077Y-16643152D01*
X42336077Y-16643152D02*
X42145601Y-16643152D01*
X42145601Y-16643152D02*
X42050363Y-16690771D01*
X41621791Y-17309819D02*
X41621791Y-16309819D01*
X41193220Y-17309819D02*
X41193220Y-16786009D01*
X41193220Y-16786009D02*
X41240839Y-16690771D01*
X41240839Y-16690771D02*
X41336077Y-16643152D01*
X41336077Y-16643152D02*
X41478934Y-16643152D01*
X41478934Y-16643152D02*
X41574172Y-16690771D01*
X41574172Y-16690771D02*
X41621791Y-16738390D01*
X40717029Y-16928866D02*
X39955125Y-16928866D01*
X39050363Y-16643152D02*
X39050363Y-17309819D01*
X39288458Y-16262200D02*
X39526553Y-16976485D01*
X39526553Y-16976485D02*
X38907506Y-16976485D01*
X38669410Y-16643152D02*
X38288458Y-16643152D01*
X38526553Y-17309819D02*
X38526553Y-16452676D01*
X38526553Y-16452676D02*
X38478934Y-16357438D01*
X38478934Y-16357438D02*
X38383696Y-16309819D01*
X38383696Y-16309819D02*
X38288458Y-16309819D01*
X38002743Y-16405057D02*
X37955124Y-16357438D01*
X37955124Y-16357438D02*
X37859886Y-16309819D01*
X37859886Y-16309819D02*
X37621791Y-16309819D01*
X37621791Y-16309819D02*
X37526553Y-16357438D01*
X37526553Y-16357438D02*
X37478934Y-16405057D01*
X37478934Y-16405057D02*
X37431315Y-16500295D01*
X37431315Y-16500295D02*
X37431315Y-16595533D01*
X37431315Y-16595533D02*
X37478934Y-16738390D01*
X37478934Y-16738390D02*
X38050362Y-17309819D01*
X38050362Y-17309819D02*
X37431315Y-17309819D01*
X37145600Y-16643152D02*
X36764648Y-16643152D01*
X37002743Y-16309819D02*
X37002743Y-17166961D01*
X37002743Y-17166961D02*
X36955124Y-17262200D01*
X36955124Y-17262200D02*
X36859886Y-17309819D01*
X36859886Y-17309819D02*
X36764648Y-17309819D01*
X36478933Y-16405057D02*
X36431314Y-16357438D01*
X36431314Y-16357438D02*
X36336076Y-16309819D01*
X36336076Y-16309819D02*
X36097981Y-16309819D01*
X36097981Y-16309819D02*
X36002743Y-16357438D01*
X36002743Y-16357438D02*
X35955124Y-16405057D01*
X35955124Y-16405057D02*
X35907505Y-16500295D01*
X35907505Y-16500295D02*
X35907505Y-16595533D01*
X35907505Y-16595533D02*
X35955124Y-16738390D01*
X35955124Y-16738390D02*
X36526552Y-17309819D01*
X36526552Y-17309819D02*
X35907505Y-17309819D01*
X35336076Y-17309819D02*
X35431314Y-17262200D01*
X35431314Y-17262200D02*
X35478933Y-17214580D01*
X35478933Y-17214580D02*
X35526552Y-17119342D01*
X35526552Y-17119342D02*
X35526552Y-16833628D01*
X35526552Y-16833628D02*
X35478933Y-16738390D01*
X35478933Y-16738390D02*
X35431314Y-16690771D01*
X35431314Y-16690771D02*
X35336076Y-16643152D01*
X35336076Y-16643152D02*
X35193219Y-16643152D01*
X35193219Y-16643152D02*
X35097981Y-16690771D01*
X35097981Y-16690771D02*
X35050362Y-16738390D01*
X35050362Y-16738390D02*
X35002743Y-16833628D01*
X35002743Y-16833628D02*
X35002743Y-17119342D01*
X35002743Y-17119342D02*
X35050362Y-17214580D01*
X35050362Y-17214580D02*
X35097981Y-17262200D01*
X35097981Y-17262200D02*
X35193219Y-17309819D01*
X35193219Y-17309819D02*
X35336076Y-17309819D01*
X49288458Y-18253152D02*
X49050363Y-18919819D01*
X49050363Y-18919819D02*
X48812268Y-18253152D01*
X48240839Y-17919819D02*
X48145601Y-17919819D01*
X48145601Y-17919819D02*
X48050363Y-17967438D01*
X48050363Y-17967438D02*
X48002744Y-18015057D01*
X48002744Y-18015057D02*
X47955125Y-18110295D01*
X47955125Y-18110295D02*
X47907506Y-18300771D01*
X47907506Y-18300771D02*
X47907506Y-18538866D01*
X47907506Y-18538866D02*
X47955125Y-18729342D01*
X47955125Y-18729342D02*
X48002744Y-18824580D01*
X48002744Y-18824580D02*
X48050363Y-18872200D01*
X48050363Y-18872200D02*
X48145601Y-18919819D01*
X48145601Y-18919819D02*
X48240839Y-18919819D01*
X48240839Y-18919819D02*
X48336077Y-18872200D01*
X48336077Y-18872200D02*
X48383696Y-18824580D01*
X48383696Y-18824580D02*
X48431315Y-18729342D01*
X48431315Y-18729342D02*
X48478934Y-18538866D01*
X48478934Y-18538866D02*
X48478934Y-18300771D01*
X48478934Y-18300771D02*
X48431315Y-18110295D01*
X48431315Y-18110295D02*
X48383696Y-18015057D01*
X48383696Y-18015057D02*
X48336077Y-17967438D01*
X48336077Y-17967438D02*
X48240839Y-17919819D01*
X47478934Y-18824580D02*
X47431315Y-18872200D01*
X47431315Y-18872200D02*
X47478934Y-18919819D01*
X47478934Y-18919819D02*
X47526553Y-18872200D01*
X47526553Y-18872200D02*
X47478934Y-18824580D01*
X47478934Y-18824580D02*
X47478934Y-18919819D01*
X46478935Y-18919819D02*
X47050363Y-18919819D01*
X46764649Y-18919819D02*
X46764649Y-17919819D01*
X46764649Y-17919819D02*
X46859887Y-18062676D01*
X46859887Y-18062676D02*
X46955125Y-18157914D01*
X46955125Y-18157914D02*
X47050363Y-18205533D01*
X30934819Y-40727333D02*
X30458628Y-40394000D01*
X30934819Y-40155905D02*
X29934819Y-40155905D01*
X29934819Y-40155905D02*
X29934819Y-40536857D01*
X29934819Y-40536857D02*
X29982438Y-40632095D01*
X29982438Y-40632095D02*
X30030057Y-40679714D01*
X30030057Y-40679714D02*
X30125295Y-40727333D01*
X30125295Y-40727333D02*
X30268152Y-40727333D01*
X30268152Y-40727333D02*
X30363390Y-40679714D01*
X30363390Y-40679714D02*
X30411009Y-40632095D01*
X30411009Y-40632095D02*
X30458628Y-40536857D01*
X30458628Y-40536857D02*
X30458628Y-40155905D01*
X29934819Y-41060667D02*
X29934819Y-41679714D01*
X29934819Y-41679714D02*
X30315771Y-41346381D01*
X30315771Y-41346381D02*
X30315771Y-41489238D01*
X30315771Y-41489238D02*
X30363390Y-41584476D01*
X30363390Y-41584476D02*
X30411009Y-41632095D01*
X30411009Y-41632095D02*
X30506247Y-41679714D01*
X30506247Y-41679714D02*
X30744342Y-41679714D01*
X30744342Y-41679714D02*
X30839580Y-41632095D01*
X30839580Y-41632095D02*
X30887200Y-41584476D01*
X30887200Y-41584476D02*
X30934819Y-41489238D01*
X30934819Y-41489238D02*
X30934819Y-41203524D01*
X30934819Y-41203524D02*
X30887200Y-41108286D01*
X30887200Y-41108286D02*
X30839580Y-41060667D01*
X40056619Y-23005942D02*
X39580428Y-22672609D01*
X40056619Y-22434514D02*
X39056619Y-22434514D01*
X39056619Y-22434514D02*
X39056619Y-22815466D01*
X39056619Y-22815466D02*
X39104238Y-22910704D01*
X39104238Y-22910704D02*
X39151857Y-22958323D01*
X39151857Y-22958323D02*
X39247095Y-23005942D01*
X39247095Y-23005942D02*
X39389952Y-23005942D01*
X39389952Y-23005942D02*
X39485190Y-22958323D01*
X39485190Y-22958323D02*
X39532809Y-22910704D01*
X39532809Y-22910704D02*
X39580428Y-22815466D01*
X39580428Y-22815466D02*
X39580428Y-22434514D01*
X40056619Y-23958323D02*
X40056619Y-23386895D01*
X40056619Y-23672609D02*
X39056619Y-23672609D01*
X39056619Y-23672609D02*
X39199476Y-23577371D01*
X39199476Y-23577371D02*
X39294714Y-23482133D01*
X39294714Y-23482133D02*
X39342333Y-23386895D01*
X39056619Y-24863085D02*
X39056619Y-24386895D01*
X39056619Y-24386895D02*
X39532809Y-24339276D01*
X39532809Y-24339276D02*
X39485190Y-24386895D01*
X39485190Y-24386895D02*
X39437571Y-24482133D01*
X39437571Y-24482133D02*
X39437571Y-24720228D01*
X39437571Y-24720228D02*
X39485190Y-24815466D01*
X39485190Y-24815466D02*
X39532809Y-24863085D01*
X39532809Y-24863085D02*
X39628047Y-24910704D01*
X39628047Y-24910704D02*
X39866142Y-24910704D01*
X39866142Y-24910704D02*
X39961380Y-24863085D01*
X39961380Y-24863085D02*
X40009000Y-24815466D01*
X40009000Y-24815466D02*
X40056619Y-24720228D01*
X40056619Y-24720228D02*
X40056619Y-24482133D01*
X40056619Y-24482133D02*
X40009000Y-24386895D01*
X40009000Y-24386895D02*
X39961380Y-24339276D01*
X33347819Y-30291742D02*
X32871628Y-29958409D01*
X33347819Y-29720314D02*
X32347819Y-29720314D01*
X32347819Y-29720314D02*
X32347819Y-30101266D01*
X32347819Y-30101266D02*
X32395438Y-30196504D01*
X32395438Y-30196504D02*
X32443057Y-30244123D01*
X32443057Y-30244123D02*
X32538295Y-30291742D01*
X32538295Y-30291742D02*
X32681152Y-30291742D01*
X32681152Y-30291742D02*
X32776390Y-30244123D01*
X32776390Y-30244123D02*
X32824009Y-30196504D01*
X32824009Y-30196504D02*
X32871628Y-30101266D01*
X32871628Y-30101266D02*
X32871628Y-29720314D01*
X33347819Y-31244123D02*
X33347819Y-30672695D01*
X33347819Y-30958409D02*
X32347819Y-30958409D01*
X32347819Y-30958409D02*
X32490676Y-30863171D01*
X32490676Y-30863171D02*
X32585914Y-30767933D01*
X32585914Y-30767933D02*
X32633533Y-30672695D01*
X32681152Y-32101266D02*
X33347819Y-32101266D01*
X32300200Y-31863171D02*
X33014485Y-31625076D01*
X33014485Y-31625076D02*
X33014485Y-32244123D01*
X60557580Y-46061333D02*
X60605200Y-46013714D01*
X60605200Y-46013714D02*
X60652819Y-45870857D01*
X60652819Y-45870857D02*
X60652819Y-45775619D01*
X60652819Y-45775619D02*
X60605200Y-45632762D01*
X60605200Y-45632762D02*
X60509961Y-45537524D01*
X60509961Y-45537524D02*
X60414723Y-45489905D01*
X60414723Y-45489905D02*
X60224247Y-45442286D01*
X60224247Y-45442286D02*
X60081390Y-45442286D01*
X60081390Y-45442286D02*
X59890914Y-45489905D01*
X59890914Y-45489905D02*
X59795676Y-45537524D01*
X59795676Y-45537524D02*
X59700438Y-45632762D01*
X59700438Y-45632762D02*
X59652819Y-45775619D01*
X59652819Y-45775619D02*
X59652819Y-45870857D01*
X59652819Y-45870857D02*
X59700438Y-46013714D01*
X59700438Y-46013714D02*
X59748057Y-46061333D01*
X60652819Y-46537524D02*
X60652819Y-46728000D01*
X60652819Y-46728000D02*
X60605200Y-46823238D01*
X60605200Y-46823238D02*
X60557580Y-46870857D01*
X60557580Y-46870857D02*
X60414723Y-46966095D01*
X60414723Y-46966095D02*
X60224247Y-47013714D01*
X60224247Y-47013714D02*
X59843295Y-47013714D01*
X59843295Y-47013714D02*
X59748057Y-46966095D01*
X59748057Y-46966095D02*
X59700438Y-46918476D01*
X59700438Y-46918476D02*
X59652819Y-46823238D01*
X59652819Y-46823238D02*
X59652819Y-46632762D01*
X59652819Y-46632762D02*
X59700438Y-46537524D01*
X59700438Y-46537524D02*
X59748057Y-46489905D01*
X59748057Y-46489905D02*
X59843295Y-46442286D01*
X59843295Y-46442286D02*
X60081390Y-46442286D01*
X60081390Y-46442286D02*
X60176628Y-46489905D01*
X60176628Y-46489905D02*
X60224247Y-46537524D01*
X60224247Y-46537524D02*
X60271866Y-46632762D01*
X60271866Y-46632762D02*
X60271866Y-46823238D01*
X60271866Y-46823238D02*
X60224247Y-46918476D01*
X60224247Y-46918476D02*
X60176628Y-46966095D01*
X60176628Y-46966095D02*
X60081390Y-47013714D01*
X35887819Y-40727333D02*
X35411628Y-40394000D01*
X35887819Y-40155905D02*
X34887819Y-40155905D01*
X34887819Y-40155905D02*
X34887819Y-40536857D01*
X34887819Y-40536857D02*
X34935438Y-40632095D01*
X34935438Y-40632095D02*
X34983057Y-40679714D01*
X34983057Y-40679714D02*
X35078295Y-40727333D01*
X35078295Y-40727333D02*
X35221152Y-40727333D01*
X35221152Y-40727333D02*
X35316390Y-40679714D01*
X35316390Y-40679714D02*
X35364009Y-40632095D01*
X35364009Y-40632095D02*
X35411628Y-40536857D01*
X35411628Y-40536857D02*
X35411628Y-40155905D01*
X34887819Y-41632095D02*
X34887819Y-41155905D01*
X34887819Y-41155905D02*
X35364009Y-41108286D01*
X35364009Y-41108286D02*
X35316390Y-41155905D01*
X35316390Y-41155905D02*
X35268771Y-41251143D01*
X35268771Y-41251143D02*
X35268771Y-41489238D01*
X35268771Y-41489238D02*
X35316390Y-41584476D01*
X35316390Y-41584476D02*
X35364009Y-41632095D01*
X35364009Y-41632095D02*
X35459247Y-41679714D01*
X35459247Y-41679714D02*
X35697342Y-41679714D01*
X35697342Y-41679714D02*
X35792580Y-41632095D01*
X35792580Y-41632095D02*
X35840200Y-41584476D01*
X35840200Y-41584476D02*
X35887819Y-41489238D01*
X35887819Y-41489238D02*
X35887819Y-41251143D01*
X35887819Y-41251143D02*
X35840200Y-41155905D01*
X35840200Y-41155905D02*
X35792580Y-41108286D01*
X50492819Y-46982142D02*
X50016628Y-46648809D01*
X50492819Y-46410714D02*
X49492819Y-46410714D01*
X49492819Y-46410714D02*
X49492819Y-46791666D01*
X49492819Y-46791666D02*
X49540438Y-46886904D01*
X49540438Y-46886904D02*
X49588057Y-46934523D01*
X49588057Y-46934523D02*
X49683295Y-46982142D01*
X49683295Y-46982142D02*
X49826152Y-46982142D01*
X49826152Y-46982142D02*
X49921390Y-46934523D01*
X49921390Y-46934523D02*
X49969009Y-46886904D01*
X49969009Y-46886904D02*
X50016628Y-46791666D01*
X50016628Y-46791666D02*
X50016628Y-46410714D01*
X49492819Y-47315476D02*
X49492819Y-47934523D01*
X49492819Y-47934523D02*
X49873771Y-47601190D01*
X49873771Y-47601190D02*
X49873771Y-47744047D01*
X49873771Y-47744047D02*
X49921390Y-47839285D01*
X49921390Y-47839285D02*
X49969009Y-47886904D01*
X49969009Y-47886904D02*
X50064247Y-47934523D01*
X50064247Y-47934523D02*
X50302342Y-47934523D01*
X50302342Y-47934523D02*
X50397580Y-47886904D01*
X50397580Y-47886904D02*
X50445200Y-47839285D01*
X50445200Y-47839285D02*
X50492819Y-47744047D01*
X50492819Y-47744047D02*
X50492819Y-47458333D01*
X50492819Y-47458333D02*
X50445200Y-47363095D01*
X50445200Y-47363095D02*
X50397580Y-47315476D01*
X49588057Y-48315476D02*
X49540438Y-48363095D01*
X49540438Y-48363095D02*
X49492819Y-48458333D01*
X49492819Y-48458333D02*
X49492819Y-48696428D01*
X49492819Y-48696428D02*
X49540438Y-48791666D01*
X49540438Y-48791666D02*
X49588057Y-48839285D01*
X49588057Y-48839285D02*
X49683295Y-48886904D01*
X49683295Y-48886904D02*
X49778533Y-48886904D01*
X49778533Y-48886904D02*
X49921390Y-48839285D01*
X49921390Y-48839285D02*
X50492819Y-48267857D01*
X50492819Y-48267857D02*
X50492819Y-48886904D01*
X33474819Y-40727333D02*
X32998628Y-40394000D01*
X33474819Y-40155905D02*
X32474819Y-40155905D01*
X32474819Y-40155905D02*
X32474819Y-40536857D01*
X32474819Y-40536857D02*
X32522438Y-40632095D01*
X32522438Y-40632095D02*
X32570057Y-40679714D01*
X32570057Y-40679714D02*
X32665295Y-40727333D01*
X32665295Y-40727333D02*
X32808152Y-40727333D01*
X32808152Y-40727333D02*
X32903390Y-40679714D01*
X32903390Y-40679714D02*
X32951009Y-40632095D01*
X32951009Y-40632095D02*
X32998628Y-40536857D01*
X32998628Y-40536857D02*
X32998628Y-40155905D01*
X32808152Y-41584476D02*
X33474819Y-41584476D01*
X32427200Y-41346381D02*
X33141485Y-41108286D01*
X33141485Y-41108286D02*
X33141485Y-41727333D01*
X24939238Y-24320057D02*
X25034476Y-24272438D01*
X25034476Y-24272438D02*
X25129714Y-24177200D01*
X25129714Y-24177200D02*
X25272571Y-24034342D01*
X25272571Y-24034342D02*
X25367809Y-23986723D01*
X25367809Y-23986723D02*
X25463047Y-23986723D01*
X25415428Y-24224819D02*
X25510666Y-24177200D01*
X25510666Y-24177200D02*
X25605904Y-24081961D01*
X25605904Y-24081961D02*
X25653523Y-23891485D01*
X25653523Y-23891485D02*
X25653523Y-23558152D01*
X25653523Y-23558152D02*
X25605904Y-23367676D01*
X25605904Y-23367676D02*
X25510666Y-23272438D01*
X25510666Y-23272438D02*
X25415428Y-23224819D01*
X25415428Y-23224819D02*
X25224952Y-23224819D01*
X25224952Y-23224819D02*
X25129714Y-23272438D01*
X25129714Y-23272438D02*
X25034476Y-23367676D01*
X25034476Y-23367676D02*
X24986857Y-23558152D01*
X24986857Y-23558152D02*
X24986857Y-23891485D01*
X24986857Y-23891485D02*
X25034476Y-24081961D01*
X25034476Y-24081961D02*
X25129714Y-24177200D01*
X25129714Y-24177200D02*
X25224952Y-24224819D01*
X25224952Y-24224819D02*
X25415428Y-24224819D01*
X24653523Y-23224819D02*
X24034476Y-23224819D01*
X24034476Y-23224819D02*
X24367809Y-23605771D01*
X24367809Y-23605771D02*
X24224952Y-23605771D01*
X24224952Y-23605771D02*
X24129714Y-23653390D01*
X24129714Y-23653390D02*
X24082095Y-23701009D01*
X24082095Y-23701009D02*
X24034476Y-23796247D01*
X24034476Y-23796247D02*
X24034476Y-24034342D01*
X24034476Y-24034342D02*
X24082095Y-24129580D01*
X24082095Y-24129580D02*
X24129714Y-24177200D01*
X24129714Y-24177200D02*
X24224952Y-24224819D01*
X24224952Y-24224819D02*
X24510666Y-24224819D01*
X24510666Y-24224819D02*
X24605904Y-24177200D01*
X24605904Y-24177200D02*
X24653523Y-24129580D01*
X31061819Y-30291743D02*
X30585628Y-29958410D01*
X31061819Y-29720315D02*
X30061819Y-29720315D01*
X30061819Y-29720315D02*
X30061819Y-30101267D01*
X30061819Y-30101267D02*
X30109438Y-30196505D01*
X30109438Y-30196505D02*
X30157057Y-30244124D01*
X30157057Y-30244124D02*
X30252295Y-30291743D01*
X30252295Y-30291743D02*
X30395152Y-30291743D01*
X30395152Y-30291743D02*
X30490390Y-30244124D01*
X30490390Y-30244124D02*
X30538009Y-30196505D01*
X30538009Y-30196505D02*
X30585628Y-30101267D01*
X30585628Y-30101267D02*
X30585628Y-29720315D01*
X30061819Y-31148886D02*
X30061819Y-30958410D01*
X30061819Y-30958410D02*
X30109438Y-30863172D01*
X30109438Y-30863172D02*
X30157057Y-30815553D01*
X30157057Y-30815553D02*
X30299914Y-30720315D01*
X30299914Y-30720315D02*
X30490390Y-30672696D01*
X30490390Y-30672696D02*
X30871342Y-30672696D01*
X30871342Y-30672696D02*
X30966580Y-30720315D01*
X30966580Y-30720315D02*
X31014200Y-30767934D01*
X31014200Y-30767934D02*
X31061819Y-30863172D01*
X31061819Y-30863172D02*
X31061819Y-31053648D01*
X31061819Y-31053648D02*
X31014200Y-31148886D01*
X31014200Y-31148886D02*
X30966580Y-31196505D01*
X30966580Y-31196505D02*
X30871342Y-31244124D01*
X30871342Y-31244124D02*
X30633247Y-31244124D01*
X30633247Y-31244124D02*
X30538009Y-31196505D01*
X30538009Y-31196505D02*
X30490390Y-31148886D01*
X30490390Y-31148886D02*
X30442771Y-31053648D01*
X30442771Y-31053648D02*
X30442771Y-30863172D01*
X30442771Y-30863172D02*
X30490390Y-30767934D01*
X30490390Y-30767934D02*
X30538009Y-30720315D01*
X30538009Y-30720315D02*
X30633247Y-30672696D01*
X53540819Y-46982142D02*
X53064628Y-46648809D01*
X53540819Y-46410714D02*
X52540819Y-46410714D01*
X52540819Y-46410714D02*
X52540819Y-46791666D01*
X52540819Y-46791666D02*
X52588438Y-46886904D01*
X52588438Y-46886904D02*
X52636057Y-46934523D01*
X52636057Y-46934523D02*
X52731295Y-46982142D01*
X52731295Y-46982142D02*
X52874152Y-46982142D01*
X52874152Y-46982142D02*
X52969390Y-46934523D01*
X52969390Y-46934523D02*
X53017009Y-46886904D01*
X53017009Y-46886904D02*
X53064628Y-46791666D01*
X53064628Y-46791666D02*
X53064628Y-46410714D01*
X52636057Y-47363095D02*
X52588438Y-47410714D01*
X52588438Y-47410714D02*
X52540819Y-47505952D01*
X52540819Y-47505952D02*
X52540819Y-47744047D01*
X52540819Y-47744047D02*
X52588438Y-47839285D01*
X52588438Y-47839285D02*
X52636057Y-47886904D01*
X52636057Y-47886904D02*
X52731295Y-47934523D01*
X52731295Y-47934523D02*
X52826533Y-47934523D01*
X52826533Y-47934523D02*
X52969390Y-47886904D01*
X52969390Y-47886904D02*
X53540819Y-47315476D01*
X53540819Y-47315476D02*
X53540819Y-47934523D01*
X53540819Y-48410714D02*
X53540819Y-48601190D01*
X53540819Y-48601190D02*
X53493200Y-48696428D01*
X53493200Y-48696428D02*
X53445580Y-48744047D01*
X53445580Y-48744047D02*
X53302723Y-48839285D01*
X53302723Y-48839285D02*
X53112247Y-48886904D01*
X53112247Y-48886904D02*
X52731295Y-48886904D01*
X52731295Y-48886904D02*
X52636057Y-48839285D01*
X52636057Y-48839285D02*
X52588438Y-48791666D01*
X52588438Y-48791666D02*
X52540819Y-48696428D01*
X52540819Y-48696428D02*
X52540819Y-48505952D01*
X52540819Y-48505952D02*
X52588438Y-48410714D01*
X52588438Y-48410714D02*
X52636057Y-48363095D01*
X52636057Y-48363095D02*
X52731295Y-48315476D01*
X52731295Y-48315476D02*
X52969390Y-48315476D01*
X52969390Y-48315476D02*
X53064628Y-48363095D01*
X53064628Y-48363095D02*
X53112247Y-48410714D01*
X53112247Y-48410714D02*
X53159866Y-48505952D01*
X53159866Y-48505952D02*
X53159866Y-48696428D01*
X53159866Y-48696428D02*
X53112247Y-48791666D01*
X53112247Y-48791666D02*
X53064628Y-48839285D01*
X53064628Y-48839285D02*
X52969390Y-48886904D01*
X37808419Y-30826342D02*
X37332228Y-30493009D01*
X37808419Y-30254914D02*
X36808419Y-30254914D01*
X36808419Y-30254914D02*
X36808419Y-30635866D01*
X36808419Y-30635866D02*
X36856038Y-30731104D01*
X36856038Y-30731104D02*
X36903657Y-30778723D01*
X36903657Y-30778723D02*
X36998895Y-30826342D01*
X36998895Y-30826342D02*
X37141752Y-30826342D01*
X37141752Y-30826342D02*
X37236990Y-30778723D01*
X37236990Y-30778723D02*
X37284609Y-30731104D01*
X37284609Y-30731104D02*
X37332228Y-30635866D01*
X37332228Y-30635866D02*
X37332228Y-30254914D01*
X37808419Y-31778723D02*
X37808419Y-31207295D01*
X37808419Y-31493009D02*
X36808419Y-31493009D01*
X36808419Y-31493009D02*
X36951276Y-31397771D01*
X36951276Y-31397771D02*
X37046514Y-31302533D01*
X37046514Y-31302533D02*
X37094133Y-31207295D01*
X36808419Y-32635866D02*
X36808419Y-32445390D01*
X36808419Y-32445390D02*
X36856038Y-32350152D01*
X36856038Y-32350152D02*
X36903657Y-32302533D01*
X36903657Y-32302533D02*
X37046514Y-32207295D01*
X37046514Y-32207295D02*
X37236990Y-32159676D01*
X37236990Y-32159676D02*
X37617942Y-32159676D01*
X37617942Y-32159676D02*
X37713180Y-32207295D01*
X37713180Y-32207295D02*
X37760800Y-32254914D01*
X37760800Y-32254914D02*
X37808419Y-32350152D01*
X37808419Y-32350152D02*
X37808419Y-32540628D01*
X37808419Y-32540628D02*
X37760800Y-32635866D01*
X37760800Y-32635866D02*
X37713180Y-32683485D01*
X37713180Y-32683485D02*
X37617942Y-32731104D01*
X37617942Y-32731104D02*
X37379847Y-32731104D01*
X37379847Y-32731104D02*
X37284609Y-32683485D01*
X37284609Y-32683485D02*
X37236990Y-32635866D01*
X37236990Y-32635866D02*
X37189371Y-32540628D01*
X37189371Y-32540628D02*
X37189371Y-32350152D01*
X37189371Y-32350152D02*
X37236990Y-32254914D01*
X37236990Y-32254914D02*
X37284609Y-32207295D01*
X37284609Y-32207295D02*
X37379847Y-32159676D01*
X42672780Y-30159533D02*
X42720400Y-30111914D01*
X42720400Y-30111914D02*
X42768019Y-29969057D01*
X42768019Y-29969057D02*
X42768019Y-29873819D01*
X42768019Y-29873819D02*
X42720400Y-29730962D01*
X42720400Y-29730962D02*
X42625161Y-29635724D01*
X42625161Y-29635724D02*
X42529923Y-29588105D01*
X42529923Y-29588105D02*
X42339447Y-29540486D01*
X42339447Y-29540486D02*
X42196590Y-29540486D01*
X42196590Y-29540486D02*
X42006114Y-29588105D01*
X42006114Y-29588105D02*
X41910876Y-29635724D01*
X41910876Y-29635724D02*
X41815638Y-29730962D01*
X41815638Y-29730962D02*
X41768019Y-29873819D01*
X41768019Y-29873819D02*
X41768019Y-29969057D01*
X41768019Y-29969057D02*
X41815638Y-30111914D01*
X41815638Y-30111914D02*
X41863257Y-30159533D01*
X41768019Y-31064295D02*
X41768019Y-30588105D01*
X41768019Y-30588105D02*
X42244209Y-30540486D01*
X42244209Y-30540486D02*
X42196590Y-30588105D01*
X42196590Y-30588105D02*
X42148971Y-30683343D01*
X42148971Y-30683343D02*
X42148971Y-30921438D01*
X42148971Y-30921438D02*
X42196590Y-31016676D01*
X42196590Y-31016676D02*
X42244209Y-31064295D01*
X42244209Y-31064295D02*
X42339447Y-31111914D01*
X42339447Y-31111914D02*
X42577542Y-31111914D01*
X42577542Y-31111914D02*
X42672780Y-31064295D01*
X42672780Y-31064295D02*
X42720400Y-31016676D01*
X42720400Y-31016676D02*
X42768019Y-30921438D01*
X42768019Y-30921438D02*
X42768019Y-30683343D01*
X42768019Y-30683343D02*
X42720400Y-30588105D01*
X42720400Y-30588105D02*
X42672780Y-30540486D01*
X24939238Y-19283057D02*
X25034476Y-19235438D01*
X25034476Y-19235438D02*
X25129714Y-19140200D01*
X25129714Y-19140200D02*
X25272571Y-18997342D01*
X25272571Y-18997342D02*
X25367809Y-18949723D01*
X25367809Y-18949723D02*
X25463047Y-18949723D01*
X25415428Y-19187819D02*
X25510666Y-19140200D01*
X25510666Y-19140200D02*
X25605904Y-19044961D01*
X25605904Y-19044961D02*
X25653523Y-18854485D01*
X25653523Y-18854485D02*
X25653523Y-18521152D01*
X25653523Y-18521152D02*
X25605904Y-18330676D01*
X25605904Y-18330676D02*
X25510666Y-18235438D01*
X25510666Y-18235438D02*
X25415428Y-18187819D01*
X25415428Y-18187819D02*
X25224952Y-18187819D01*
X25224952Y-18187819D02*
X25129714Y-18235438D01*
X25129714Y-18235438D02*
X25034476Y-18330676D01*
X25034476Y-18330676D02*
X24986857Y-18521152D01*
X24986857Y-18521152D02*
X24986857Y-18854485D01*
X24986857Y-18854485D02*
X25034476Y-19044961D01*
X25034476Y-19044961D02*
X25129714Y-19140200D01*
X25129714Y-19140200D02*
X25224952Y-19187819D01*
X25224952Y-19187819D02*
X25415428Y-19187819D01*
X24605904Y-18283057D02*
X24558285Y-18235438D01*
X24558285Y-18235438D02*
X24463047Y-18187819D01*
X24463047Y-18187819D02*
X24224952Y-18187819D01*
X24224952Y-18187819D02*
X24129714Y-18235438D01*
X24129714Y-18235438D02*
X24082095Y-18283057D01*
X24082095Y-18283057D02*
X24034476Y-18378295D01*
X24034476Y-18378295D02*
X24034476Y-18473533D01*
X24034476Y-18473533D02*
X24082095Y-18616390D01*
X24082095Y-18616390D02*
X24653523Y-19187819D01*
X24653523Y-19187819D02*
X24034476Y-19187819D01*
X63192819Y-45966142D02*
X62716628Y-45632809D01*
X63192819Y-45394714D02*
X62192819Y-45394714D01*
X62192819Y-45394714D02*
X62192819Y-45775666D01*
X62192819Y-45775666D02*
X62240438Y-45870904D01*
X62240438Y-45870904D02*
X62288057Y-45918523D01*
X62288057Y-45918523D02*
X62383295Y-45966142D01*
X62383295Y-45966142D02*
X62526152Y-45966142D01*
X62526152Y-45966142D02*
X62621390Y-45918523D01*
X62621390Y-45918523D02*
X62669009Y-45870904D01*
X62669009Y-45870904D02*
X62716628Y-45775666D01*
X62716628Y-45775666D02*
X62716628Y-45394714D01*
X63192819Y-46918523D02*
X63192819Y-46347095D01*
X63192819Y-46632809D02*
X62192819Y-46632809D01*
X62192819Y-46632809D02*
X62335676Y-46537571D01*
X62335676Y-46537571D02*
X62430914Y-46442333D01*
X62430914Y-46442333D02*
X62478533Y-46347095D01*
X62192819Y-47537571D02*
X62192819Y-47632809D01*
X62192819Y-47632809D02*
X62240438Y-47728047D01*
X62240438Y-47728047D02*
X62288057Y-47775666D01*
X62288057Y-47775666D02*
X62383295Y-47823285D01*
X62383295Y-47823285D02*
X62573771Y-47870904D01*
X62573771Y-47870904D02*
X62811866Y-47870904D01*
X62811866Y-47870904D02*
X63002342Y-47823285D01*
X63002342Y-47823285D02*
X63097580Y-47775666D01*
X63097580Y-47775666D02*
X63145200Y-47728047D01*
X63145200Y-47728047D02*
X63192819Y-47632809D01*
X63192819Y-47632809D02*
X63192819Y-47537571D01*
X63192819Y-47537571D02*
X63145200Y-47442333D01*
X63145200Y-47442333D02*
X63097580Y-47394714D01*
X63097580Y-47394714D02*
X63002342Y-47347095D01*
X63002342Y-47347095D02*
X62811866Y-47299476D01*
X62811866Y-47299476D02*
X62573771Y-47299476D01*
X62573771Y-47299476D02*
X62383295Y-47347095D01*
X62383295Y-47347095D02*
X62288057Y-47394714D01*
X62288057Y-47394714D02*
X62240438Y-47442333D01*
X62240438Y-47442333D02*
X62192819Y-47537571D01*
X18150057Y-22004761D02*
X18102438Y-21909523D01*
X18102438Y-21909523D02*
X18007200Y-21814285D01*
X18007200Y-21814285D02*
X17864342Y-21671428D01*
X17864342Y-21671428D02*
X17816723Y-21576190D01*
X17816723Y-21576190D02*
X17816723Y-21480952D01*
X18054819Y-21528571D02*
X18007200Y-21433333D01*
X18007200Y-21433333D02*
X17911961Y-21338095D01*
X17911961Y-21338095D02*
X17721485Y-21290476D01*
X17721485Y-21290476D02*
X17388152Y-21290476D01*
X17388152Y-21290476D02*
X17197676Y-21338095D01*
X17197676Y-21338095D02*
X17102438Y-21433333D01*
X17102438Y-21433333D02*
X17054819Y-21528571D01*
X17054819Y-21528571D02*
X17054819Y-21719047D01*
X17054819Y-21719047D02*
X17102438Y-21814285D01*
X17102438Y-21814285D02*
X17197676Y-21909523D01*
X17197676Y-21909523D02*
X17388152Y-21957142D01*
X17388152Y-21957142D02*
X17721485Y-21957142D01*
X17721485Y-21957142D02*
X17911961Y-21909523D01*
X17911961Y-21909523D02*
X18007200Y-21814285D01*
X18007200Y-21814285D02*
X18054819Y-21719047D01*
X18054819Y-21719047D02*
X18054819Y-21528571D01*
X18054819Y-22909523D02*
X18054819Y-22338095D01*
X18054819Y-22623809D02*
X17054819Y-22623809D01*
X17054819Y-22623809D02*
X17197676Y-22528571D01*
X17197676Y-22528571D02*
X17292914Y-22433333D01*
X17292914Y-22433333D02*
X17340533Y-22338095D01*
X24990038Y-29303657D02*
X25085276Y-29256038D01*
X25085276Y-29256038D02*
X25180514Y-29160800D01*
X25180514Y-29160800D02*
X25323371Y-29017942D01*
X25323371Y-29017942D02*
X25418609Y-28970323D01*
X25418609Y-28970323D02*
X25513847Y-28970323D01*
X25466228Y-29208419D02*
X25561466Y-29160800D01*
X25561466Y-29160800D02*
X25656704Y-29065561D01*
X25656704Y-29065561D02*
X25704323Y-28875085D01*
X25704323Y-28875085D02*
X25704323Y-28541752D01*
X25704323Y-28541752D02*
X25656704Y-28351276D01*
X25656704Y-28351276D02*
X25561466Y-28256038D01*
X25561466Y-28256038D02*
X25466228Y-28208419D01*
X25466228Y-28208419D02*
X25275752Y-28208419D01*
X25275752Y-28208419D02*
X25180514Y-28256038D01*
X25180514Y-28256038D02*
X25085276Y-28351276D01*
X25085276Y-28351276D02*
X25037657Y-28541752D01*
X25037657Y-28541752D02*
X25037657Y-28875085D01*
X25037657Y-28875085D02*
X25085276Y-29065561D01*
X25085276Y-29065561D02*
X25180514Y-29160800D01*
X25180514Y-29160800D02*
X25275752Y-29208419D01*
X25275752Y-29208419D02*
X25466228Y-29208419D01*
X24180514Y-28541752D02*
X24180514Y-29208419D01*
X24418609Y-28160800D02*
X24656704Y-28875085D01*
X24656704Y-28875085D02*
X24037657Y-28875085D01*
X35506819Y-30291742D02*
X35030628Y-29958409D01*
X35506819Y-29720314D02*
X34506819Y-29720314D01*
X34506819Y-29720314D02*
X34506819Y-30101266D01*
X34506819Y-30101266D02*
X34554438Y-30196504D01*
X34554438Y-30196504D02*
X34602057Y-30244123D01*
X34602057Y-30244123D02*
X34697295Y-30291742D01*
X34697295Y-30291742D02*
X34840152Y-30291742D01*
X34840152Y-30291742D02*
X34935390Y-30244123D01*
X34935390Y-30244123D02*
X34983009Y-30196504D01*
X34983009Y-30196504D02*
X35030628Y-30101266D01*
X35030628Y-30101266D02*
X35030628Y-29720314D01*
X35506819Y-31244123D02*
X35506819Y-30672695D01*
X35506819Y-30958409D02*
X34506819Y-30958409D01*
X34506819Y-30958409D02*
X34649676Y-30863171D01*
X34649676Y-30863171D02*
X34744914Y-30767933D01*
X34744914Y-30767933D02*
X34792533Y-30672695D01*
X34506819Y-31577457D02*
X34506819Y-32196504D01*
X34506819Y-32196504D02*
X34887771Y-31863171D01*
X34887771Y-31863171D02*
X34887771Y-32006028D01*
X34887771Y-32006028D02*
X34935390Y-32101266D01*
X34935390Y-32101266D02*
X34983009Y-32148885D01*
X34983009Y-32148885D02*
X35078247Y-32196504D01*
X35078247Y-32196504D02*
X35316342Y-32196504D01*
X35316342Y-32196504D02*
X35411580Y-32148885D01*
X35411580Y-32148885D02*
X35459200Y-32101266D01*
X35459200Y-32101266D02*
X35506819Y-32006028D01*
X35506819Y-32006028D02*
X35506819Y-31720314D01*
X35506819Y-31720314D02*
X35459200Y-31625076D01*
X35459200Y-31625076D02*
X35411580Y-31577457D01*
X56938057Y-47656761D02*
X56890438Y-47561523D01*
X56890438Y-47561523D02*
X56795200Y-47466285D01*
X56795200Y-47466285D02*
X56652342Y-47323428D01*
X56652342Y-47323428D02*
X56604723Y-47228190D01*
X56604723Y-47228190D02*
X56604723Y-47132952D01*
X56842819Y-47180571D02*
X56795200Y-47085333D01*
X56795200Y-47085333D02*
X56699961Y-46990095D01*
X56699961Y-46990095D02*
X56509485Y-46942476D01*
X56509485Y-46942476D02*
X56176152Y-46942476D01*
X56176152Y-46942476D02*
X55985676Y-46990095D01*
X55985676Y-46990095D02*
X55890438Y-47085333D01*
X55890438Y-47085333D02*
X55842819Y-47180571D01*
X55842819Y-47180571D02*
X55842819Y-47371047D01*
X55842819Y-47371047D02*
X55890438Y-47466285D01*
X55890438Y-47466285D02*
X55985676Y-47561523D01*
X55985676Y-47561523D02*
X56176152Y-47609142D01*
X56176152Y-47609142D02*
X56509485Y-47609142D01*
X56509485Y-47609142D02*
X56699961Y-47561523D01*
X56699961Y-47561523D02*
X56795200Y-47466285D01*
X56795200Y-47466285D02*
X56842819Y-47371047D01*
X56842819Y-47371047D02*
X56842819Y-47180571D01*
X55842819Y-47942476D02*
X55842819Y-48609142D01*
X55842819Y-48609142D02*
X56842819Y-48180571D01*
D11*
X29745000Y-38073064D02*
X29745000Y-37618936D01*
X31215000Y-38073064D02*
X31215000Y-37618936D01*
X40359000Y-27331936D02*
X40359000Y-27786064D01*
X38889000Y-27331936D02*
X38889000Y-27786064D01*
X32031000Y-27786064D02*
X32031000Y-27331936D01*
X33501000Y-27786064D02*
X33501000Y-27331936D01*
X59463000Y-43441252D02*
X59463000Y-42918748D01*
X60933000Y-43441252D02*
X60933000Y-42918748D01*
X34698000Y-38073064D02*
X34698000Y-37618936D01*
X36168000Y-38073064D02*
X36168000Y-37618936D01*
X50773000Y-43968936D02*
X50773000Y-44423064D01*
X49303000Y-43968936D02*
X49303000Y-44423064D01*
X32285000Y-38073064D02*
X32285000Y-37618936D01*
X33755000Y-38073064D02*
X33755000Y-37618936D01*
X25910000Y-23980000D02*
X27370000Y-23980000D01*
X25910000Y-23980000D02*
X25910000Y-23050000D01*
X25910000Y-20820000D02*
X29070000Y-20820000D01*
X25910000Y-20820000D02*
X25910000Y-21750000D01*
X29872000Y-27786064D02*
X29872000Y-27331936D01*
X31342000Y-27786064D02*
X31342000Y-27331936D01*
X53821000Y-43968936D02*
X53821000Y-44423064D01*
X52351000Y-43968936D02*
X52351000Y-44423064D01*
X38073000Y-27331936D02*
X38073000Y-27786064D01*
X36603000Y-27331936D02*
X36603000Y-27786064D01*
X41556000Y-26677252D02*
X41556000Y-26154748D01*
X43026000Y-26677252D02*
X43026000Y-26154748D01*
X25910000Y-18979000D02*
X27370000Y-18979000D01*
X25910000Y-18979000D02*
X25910000Y-18049000D01*
X25910000Y-15819000D02*
X29070000Y-15819000D01*
X25910000Y-15819000D02*
X25910000Y-16749000D01*
X62003000Y-43407064D02*
X62003000Y-42952936D01*
X63473000Y-43407064D02*
X63473000Y-42952936D01*
X13520000Y-21340000D02*
X13520000Y-22800000D01*
X13520000Y-21340000D02*
X14450000Y-21340000D01*
X16680000Y-21340000D02*
X16680000Y-24500000D01*
X16680000Y-21340000D02*
X15750000Y-21340000D01*
X25934000Y-28980000D02*
X27394000Y-28980000D01*
X25934000Y-28980000D02*
X25934000Y-28050000D01*
X25934000Y-25820000D02*
X29094000Y-25820000D01*
X25934000Y-25820000D02*
X25934000Y-26750000D01*
X34317000Y-27786064D02*
X34317000Y-27331936D01*
X35787000Y-27786064D02*
X35787000Y-27331936D01*
X54808000Y-42928000D02*
X54808000Y-44388000D01*
X54808000Y-42928000D02*
X55738000Y-42928000D01*
X57968000Y-42928000D02*
X57968000Y-46088000D01*
X57968000Y-42928000D02*
X57038000Y-42928000D01*
%LPC*%
D12*
X74141380Y-21905000D03*
D13*
X71641380Y-21905000D03*
X70100000Y-12954000D03*
D14*
X67560000Y-12954000D03*
D15*
X83900000Y-1000000D03*
X78900000Y-1000000D03*
X78900000Y-6000000D03*
X78900000Y-11000000D03*
D13*
X29774000Y-1651000D03*
D14*
X32314000Y-1651000D03*
D12*
X57400000Y-12578000D03*
D14*
X57400000Y-10038000D03*
X49780000Y-10038000D03*
X49780000Y-12578000D03*
D16*
X61400000Y-12908000D03*
D17*
X61400000Y-9098000D03*
D13*
X70100000Y-5334000D03*
D14*
X67560000Y-5334000D03*
D13*
X70100000Y-9144000D03*
D14*
X67560000Y-9144000D03*
D18*
X19360000Y-4311300D03*
D19*
X21900000Y-5581300D03*
X24440000Y-4311300D03*
D13*
X31864000Y-5588000D03*
D14*
X29324000Y-5588000D03*
D20*
X47498000Y-39370000D03*
D21*
X50038000Y-39370000D03*
X52578000Y-39370000D03*
X55118000Y-39370000D03*
X57658000Y-39370000D03*
X60198000Y-39370000D03*
X62738000Y-39370000D03*
D18*
X19360000Y-11245000D03*
D19*
X21900000Y-12515000D03*
X24440000Y-11245000D03*
D16*
X61400000Y-5349000D03*
D17*
X61400000Y-1539000D03*
D22*
X73284234Y-27010400D03*
D23*
X70744234Y-27010400D03*
D12*
X57400000Y-5019000D03*
D14*
X57400000Y-2479000D03*
X49780000Y-2479000D03*
X49780000Y-5019000D03*
D13*
X31864000Y-13208000D03*
D14*
X29324000Y-13208000D03*
D15*
X3800000Y-1000000D03*
X8800000Y-1000000D03*
X8800000Y-6000000D03*
X8800000Y-11000000D03*
D12*
X53217621Y-19600000D03*
D13*
X55717621Y-19600000D03*
X29774000Y-9144000D03*
D14*
X32314000Y-9144000D03*
D13*
X70100000Y-1651000D03*
D14*
X67560000Y-1651000D03*
D15*
X15100000Y-17400000D03*
X20100000Y-17400000D03*
X20100000Y-22400000D03*
X20100000Y-27400000D03*
X72600000Y-17400000D03*
X67600000Y-17400000D03*
X67600000Y-22400000D03*
X67600000Y-27400000D03*
D24*
X30480000Y-38846000D03*
X30480000Y-36846000D03*
D25*
X39624000Y-26559000D03*
X39624000Y-28559000D03*
D24*
X32766000Y-28559000D03*
X32766000Y-26559000D03*
D26*
X60198000Y-44217500D03*
X60198000Y-42142500D03*
D24*
X35433000Y-38846000D03*
X35433000Y-36846000D03*
D25*
X50038000Y-43196000D03*
X50038000Y-45196000D03*
D24*
X33020000Y-38846000D03*
X33020000Y-36846000D03*
D27*
X28170000Y-21450000D03*
X28170000Y-23350000D03*
X25170000Y-22400000D03*
D24*
X30607000Y-28559000D03*
X30607000Y-26559000D03*
D25*
X53086000Y-43196000D03*
X53086000Y-45196000D03*
X37338000Y-26559000D03*
X37338000Y-28559000D03*
D26*
X42291000Y-27453500D03*
X42291000Y-25378500D03*
D27*
X28170000Y-16449000D03*
X28170000Y-18349000D03*
X25170000Y-17399000D03*
D24*
X62738000Y-44180000D03*
X62738000Y-42180000D03*
D28*
X16050000Y-23600000D03*
X14150000Y-23600000D03*
X15100000Y-20600000D03*
D27*
X28194000Y-26450000D03*
X28194000Y-28350000D03*
X25194000Y-27400000D03*
D24*
X35052000Y-28559000D03*
X35052000Y-26559000D03*
D28*
X57338000Y-45188000D03*
X55438000Y-45188000D03*
X56388000Y-42188000D03*
%LPD*%
M02*
