%TF.GenerationSoftware,KiCad,Pcbnew,7.0.6*%
%TF.CreationDate,2023-08-10T22:32:49+02:00*%
%TF.ProjectId,esp-switch,6573702d-7377-4697-9463-682e6b696361,rev?*%
%TF.SameCoordinates,Original*%
%TF.FileFunction,Drillmap*%
%TF.FilePolarity,Positive*%
%FSLAX45Y45*%
G04 Gerber Fmt 4.5, Leading zero omitted, Abs format (unit mm)*
G04 Created by KiCad (PCBNEW 7.0.6) date 2023-08-10 22:32:49*
%MOMM*%
%LPD*%
G01*
G04 APERTURE LIST*
%ADD10C,0.050000*%
%ADD11C,0.200000*%
G04 APERTURE END LIST*
D10*
X2260000Y-4870000D02*
X2360000Y-4970000D01*
X2260000Y-2880000D02*
X2260000Y-4870000D01*
X6410000Y-4970000D02*
X2360000Y-4970000D01*
X8770000Y-1140000D02*
X8670000Y-1240000D01*
X7540000Y-2880000D02*
X7640000Y-2780000D01*
X6510000Y-2880000D02*
X6510000Y-4870000D01*
X0Y-1140000D02*
X100000Y-1240000D01*
X7640000Y-1240000D02*
X7640000Y-2780000D01*
X8770000Y0D02*
X8770000Y-1140000D01*
X1130000Y-2780000D02*
X1230000Y-2880000D01*
X1130000Y-1240000D02*
X100000Y-1240000D01*
X0Y0D02*
X8770000Y0D01*
X1130000Y-1240000D02*
X1130000Y-2780000D01*
X7540000Y-2880000D02*
X6510000Y-2880000D01*
X8670000Y-1240000D02*
X7640000Y-1240000D01*
X2260000Y-2880000D02*
X1230000Y-2880000D01*
X0Y0D02*
X0Y-1140000D01*
X6510000Y-4870000D02*
X6410000Y-4970000D01*
D11*
X258277Y-5283984D02*
X258277Y-5083984D01*
X258277Y-5083984D02*
X305896Y-5083984D01*
X305896Y-5083984D02*
X334467Y-5093508D01*
X334467Y-5093508D02*
X353515Y-5112555D01*
X353515Y-5112555D02*
X363039Y-5131603D01*
X363039Y-5131603D02*
X372562Y-5169698D01*
X372562Y-5169698D02*
X372562Y-5198270D01*
X372562Y-5198270D02*
X363039Y-5236365D01*
X363039Y-5236365D02*
X353515Y-5255412D01*
X353515Y-5255412D02*
X334467Y-5274460D01*
X334467Y-5274460D02*
X305896Y-5283984D01*
X305896Y-5283984D02*
X258277Y-5283984D01*
X458277Y-5283984D02*
X458277Y-5150650D01*
X458277Y-5188746D02*
X467801Y-5169698D01*
X467801Y-5169698D02*
X477324Y-5160174D01*
X477324Y-5160174D02*
X496372Y-5150650D01*
X496372Y-5150650D02*
X515420Y-5150650D01*
X582086Y-5283984D02*
X582086Y-5150650D01*
X582086Y-5083984D02*
X572563Y-5093508D01*
X572563Y-5093508D02*
X582086Y-5103031D01*
X582086Y-5103031D02*
X591610Y-5093508D01*
X591610Y-5093508D02*
X582086Y-5083984D01*
X582086Y-5083984D02*
X582086Y-5103031D01*
X705896Y-5283984D02*
X686848Y-5274460D01*
X686848Y-5274460D02*
X677324Y-5255412D01*
X677324Y-5255412D02*
X677324Y-5083984D01*
X810658Y-5283984D02*
X791610Y-5274460D01*
X791610Y-5274460D02*
X782086Y-5255412D01*
X782086Y-5255412D02*
X782086Y-5083984D01*
X1039229Y-5283984D02*
X1039229Y-5083984D01*
X1039229Y-5083984D02*
X1105896Y-5226841D01*
X1105896Y-5226841D02*
X1172563Y-5083984D01*
X1172563Y-5083984D02*
X1172563Y-5283984D01*
X1353515Y-5283984D02*
X1353515Y-5179222D01*
X1353515Y-5179222D02*
X1343991Y-5160174D01*
X1343991Y-5160174D02*
X1324944Y-5150650D01*
X1324944Y-5150650D02*
X1286848Y-5150650D01*
X1286848Y-5150650D02*
X1267801Y-5160174D01*
X1353515Y-5274460D02*
X1334467Y-5283984D01*
X1334467Y-5283984D02*
X1286848Y-5283984D01*
X1286848Y-5283984D02*
X1267801Y-5274460D01*
X1267801Y-5274460D02*
X1258277Y-5255412D01*
X1258277Y-5255412D02*
X1258277Y-5236365D01*
X1258277Y-5236365D02*
X1267801Y-5217317D01*
X1267801Y-5217317D02*
X1286848Y-5207793D01*
X1286848Y-5207793D02*
X1334467Y-5207793D01*
X1334467Y-5207793D02*
X1353515Y-5198270D01*
X1448753Y-5150650D02*
X1448753Y-5350650D01*
X1448753Y-5160174D02*
X1467801Y-5150650D01*
X1467801Y-5150650D02*
X1505896Y-5150650D01*
X1505896Y-5150650D02*
X1524943Y-5160174D01*
X1524943Y-5160174D02*
X1534467Y-5169698D01*
X1534467Y-5169698D02*
X1543991Y-5188746D01*
X1543991Y-5188746D02*
X1543991Y-5245889D01*
X1543991Y-5245889D02*
X1534467Y-5264936D01*
X1534467Y-5264936D02*
X1524943Y-5274460D01*
X1524943Y-5274460D02*
X1505896Y-5283984D01*
X1505896Y-5283984D02*
X1467801Y-5283984D01*
X1467801Y-5283984D02*
X1448753Y-5274460D01*
X1629705Y-5264936D02*
X1639229Y-5274460D01*
X1639229Y-5274460D02*
X1629705Y-5283984D01*
X1629705Y-5283984D02*
X1620182Y-5274460D01*
X1620182Y-5274460D02*
X1629705Y-5264936D01*
X1629705Y-5264936D02*
X1629705Y-5283984D01*
X1629705Y-5160174D02*
X1639229Y-5169698D01*
X1639229Y-5169698D02*
X1629705Y-5179222D01*
X1629705Y-5179222D02*
X1620182Y-5169698D01*
X1620182Y-5169698D02*
X1629705Y-5160174D01*
X1629705Y-5160174D02*
X1629705Y-5179222D01*
M02*
