M48
; DRILL file {KiCad 7.0.6} date Thu Aug 17 21:15:39 2023
; FORMAT={-:-/ absolute / metric / decimal}
; #@! TF.CreationDate,2023-08-17T21:15:39+02:00
; #@! TF.GenerationSoftware,Kicad,Pcbnew,7.0.6
; #@! TF.FileFunction,Plated,1,2,PTH
FMAT,2
METRIC
; #@! TA.AperFunction,Plated,PTH,ViaDrill
T1C0.300
; #@! TA.AperFunction,Plated,PTH,ViaDrill
T2C0.500
; #@! TA.AperFunction,Plated,PTH,ComponentDrill
T3C0.800
; #@! TA.AperFunction,Plated,PTH,ComponentDrill
T4C1.000
; #@! TA.AperFunction,Plated,PTH,ComponentDrill
T5C1.100
; #@! TA.AperFunction,Plated,PTH,ComponentDrill
T6C1.200
%
G90
G05
T1
X12.5Y-17.5
X12.5Y-22.5
X12.5Y-27.5
X16.1Y-25.1
X17.5Y-17.5
X17.5Y-22.5
X17.5Y-27.5
X22.5Y-20.0
X23.901Y-16.459
X24.765Y-26.5
X25.0Y-25.0
X25.0Y-30.0
X25.0Y-47.5
X25.146Y-21.463
X27.5Y-25.0
X29.21Y-36.83
X30.0Y-17.5
X30.0Y-20.0
X30.0Y-22.5
X30.0Y-27.5
X30.0Y-30.0
X32.5Y-17.5
X32.5Y-20.0
X32.5Y-22.5
X32.5Y-27.5
X32.766Y-29.591
X33.02Y-35.814
X35.052Y-29.591
X35.433Y-35.814
X37.338Y-27.659
X37.406Y-17.493
X37.5Y-30.0
X37.5Y-35.0
X39.624Y-27.686
X40.0Y-20.0
X45.0Y-22.5
X45.0Y-47.5
X46.736Y-35.433
X47.5Y-7.5
X47.5Y-15.0
X47.5Y-20.0
X47.5Y-22.5
X47.5Y-25.0
X50.0Y-47.5
X51.308Y-36.83
X55.0Y-17.5
X55.0Y-22.5
X55.0Y-25.0
X55.0Y-27.5
X55.0Y-30.0
X55.0Y-35.0
X55.0Y-47.5
X57.404Y-42.672
X57.5Y-17.5
X57.5Y-30.0
X57.5Y-32.5
X57.5Y-35.0
X58.796Y-22.098
X59.345Y-18.679
X59.9Y-24.3
X60.0Y-47.5
X60.5Y-32.5
X61.198Y-35.255
X61.402Y-30.16
X61.5Y-27.5
X62.672Y-24.013
X65.0Y-17.5
T2
X45.0Y-28.321
T3
X29.324Y-5.588
X29.324Y-13.208
X29.774Y-1.651
X29.774Y-9.144
X31.864Y-5.588
X31.864Y-13.208
X32.314Y-1.651
X32.314Y-9.144
X49.78Y-2.479
X49.78Y-5.019
X49.78Y-10.038
X49.78Y-12.578
X53.218Y-19.6
X55.718Y-19.6
X57.4Y-2.479
X57.4Y-5.019
X57.4Y-10.038
X57.4Y-12.578
X67.56Y-1.651
X67.56Y-5.334
X67.56Y-9.144
X67.56Y-12.954
X70.1Y-1.651
X70.1Y-5.334
X70.1Y-9.144
X70.1Y-12.954
X71.641Y-21.905
X74.141Y-21.905
T4
X47.498Y-39.37
X50.038Y-39.37
X52.578Y-39.37
X55.118Y-39.37
X57.658Y-39.37
X60.198Y-39.37
X62.738Y-39.37
T5
X19.36Y-4.311
X19.36Y-11.245
X21.9Y-5.581
X21.9Y-12.515
X24.44Y-4.311
X24.44Y-11.245
X70.744Y-27.01
X73.284Y-27.01
T6
X3.8Y-1.0
X8.8Y-1.0
X8.8Y-6.0
X8.8Y-11.0
X15.1Y-17.4
X20.1Y-17.4
X20.1Y-22.4
X20.1Y-27.4
X61.4Y-1.539
X61.4Y-5.349
X61.4Y-9.098
X61.4Y-12.908
X67.6Y-17.4
X67.6Y-22.4
X67.6Y-27.4
X72.6Y-17.4
X78.9Y-1.0
X78.9Y-6.0
X78.9Y-11.0
X83.9Y-1.0
T0
M30
