G04 #@! TF.GenerationSoftware,KiCad,Pcbnew,7.0.6*
G04 #@! TF.CreationDate,2023-08-17T21:15:31+02:00*
G04 #@! TF.ProjectId,esp-switch,6573702d-7377-4697-9463-682e6b696361,rev?*
G04 #@! TF.SameCoordinates,Original*
G04 #@! TF.FileFunction,Soldermask,Bot*
G04 #@! TF.FilePolarity,Negative*
%FSLAX46Y46*%
G04 Gerber Fmt 4.6, Leading zero omitted, Abs format (unit mm)*
G04 Created by KiCad (PCBNEW 7.0.6) date 2023-08-17 21:15:31*
%MOMM*%
%LPD*%
G01*
G04 APERTURE LIST*
G04 APERTURE END LIST*
G36*
X55838000Y-46138000D02*
G01*
X55038000Y-46138000D01*
X55038000Y-44238000D01*
X55838000Y-44238000D01*
X55838000Y-46138000D01*
G37*
G36*
X57738000Y-46138000D02*
G01*
X56938000Y-46138000D01*
X56938000Y-44238000D01*
X57738000Y-44238000D01*
X57738000Y-46138000D01*
G37*
G36*
X50492850Y-44596964D02*
G01*
X50543040Y-44602787D01*
X50560189Y-44610359D01*
X50583671Y-44615030D01*
X50608810Y-44631827D01*
X50628696Y-44640608D01*
X50642277Y-44654189D01*
X50664777Y-44669223D01*
X50679810Y-44691722D01*
X50693391Y-44705303D01*
X50702170Y-44725186D01*
X50718970Y-44750329D01*
X50723641Y-44773812D01*
X50731212Y-44790959D01*
X50737033Y-44841139D01*
X50738000Y-44846000D01*
X50738000Y-45546000D01*
X50737032Y-45550863D01*
X50731212Y-45601040D01*
X50723641Y-45618185D01*
X50718970Y-45641671D01*
X50702169Y-45666815D01*
X50693391Y-45686696D01*
X50679812Y-45700274D01*
X50664777Y-45722777D01*
X50642274Y-45737812D01*
X50628696Y-45751391D01*
X50608815Y-45760169D01*
X50583671Y-45776970D01*
X50560185Y-45781641D01*
X50543040Y-45789212D01*
X50492861Y-45795032D01*
X50488000Y-45796000D01*
X49588000Y-45796000D01*
X49583138Y-45795032D01*
X49532959Y-45789212D01*
X49515812Y-45781641D01*
X49492329Y-45776970D01*
X49467186Y-45760170D01*
X49447303Y-45751391D01*
X49433722Y-45737810D01*
X49411223Y-45722777D01*
X49396189Y-45700277D01*
X49382608Y-45686696D01*
X49373827Y-45666810D01*
X49357030Y-45641671D01*
X49352359Y-45618189D01*
X49344787Y-45601040D01*
X49338964Y-45550849D01*
X49338000Y-45546000D01*
X49338000Y-44846000D01*
X49338964Y-44841150D01*
X49344787Y-44790959D01*
X49352359Y-44773808D01*
X49357030Y-44750329D01*
X49373826Y-44725191D01*
X49382608Y-44705303D01*
X49396191Y-44691719D01*
X49411223Y-44669223D01*
X49433719Y-44654191D01*
X49447303Y-44640608D01*
X49467191Y-44631826D01*
X49492329Y-44615030D01*
X49515808Y-44610359D01*
X49532959Y-44602787D01*
X49583151Y-44596964D01*
X49588000Y-44596000D01*
X50488000Y-44596000D01*
X50492850Y-44596964D01*
G37*
G36*
X53540850Y-44596964D02*
G01*
X53591040Y-44602787D01*
X53608189Y-44610359D01*
X53631671Y-44615030D01*
X53656810Y-44631827D01*
X53676696Y-44640608D01*
X53690277Y-44654189D01*
X53712777Y-44669223D01*
X53727810Y-44691722D01*
X53741391Y-44705303D01*
X53750170Y-44725186D01*
X53766970Y-44750329D01*
X53771641Y-44773812D01*
X53779212Y-44790959D01*
X53785033Y-44841139D01*
X53786000Y-44846000D01*
X53786000Y-45546000D01*
X53785032Y-45550863D01*
X53779212Y-45601040D01*
X53771641Y-45618185D01*
X53766970Y-45641671D01*
X53750169Y-45666815D01*
X53741391Y-45686696D01*
X53727812Y-45700274D01*
X53712777Y-45722777D01*
X53690274Y-45737812D01*
X53676696Y-45751391D01*
X53656815Y-45760169D01*
X53631671Y-45776970D01*
X53608185Y-45781641D01*
X53591040Y-45789212D01*
X53540861Y-45795032D01*
X53536000Y-45796000D01*
X52636000Y-45796000D01*
X52631138Y-45795032D01*
X52580959Y-45789212D01*
X52563812Y-45781641D01*
X52540329Y-45776970D01*
X52515186Y-45760170D01*
X52495303Y-45751391D01*
X52481722Y-45737810D01*
X52459223Y-45722777D01*
X52444189Y-45700277D01*
X52430608Y-45686696D01*
X52421827Y-45666810D01*
X52405030Y-45641671D01*
X52400359Y-45618189D01*
X52392787Y-45601040D01*
X52386964Y-45550849D01*
X52386000Y-45546000D01*
X52386000Y-44846000D01*
X52386964Y-44841150D01*
X52392787Y-44790959D01*
X52400359Y-44773808D01*
X52405030Y-44750329D01*
X52421826Y-44725191D01*
X52430608Y-44705303D01*
X52444191Y-44691719D01*
X52459223Y-44669223D01*
X52481719Y-44654191D01*
X52495303Y-44640608D01*
X52515191Y-44631826D01*
X52540329Y-44615030D01*
X52563808Y-44610359D01*
X52580959Y-44602787D01*
X52631151Y-44596964D01*
X52636000Y-44596000D01*
X53536000Y-44596000D01*
X53540850Y-44596964D01*
G37*
G36*
X60677850Y-43630964D02*
G01*
X60728040Y-43636787D01*
X60745189Y-43644359D01*
X60768671Y-43649030D01*
X60793810Y-43665827D01*
X60813696Y-43674608D01*
X60827277Y-43688189D01*
X60849777Y-43703223D01*
X60864810Y-43725722D01*
X60878391Y-43739303D01*
X60887170Y-43759186D01*
X60903970Y-43784329D01*
X60908641Y-43807812D01*
X60916212Y-43824959D01*
X60922033Y-43875139D01*
X60923000Y-43880000D01*
X60923000Y-44555000D01*
X60922032Y-44559863D01*
X60916212Y-44610040D01*
X60908641Y-44627185D01*
X60903970Y-44650671D01*
X60887169Y-44675815D01*
X60878391Y-44695696D01*
X60864812Y-44709274D01*
X60849777Y-44731777D01*
X60827274Y-44746812D01*
X60813696Y-44760391D01*
X60793815Y-44769169D01*
X60768671Y-44785970D01*
X60745185Y-44790641D01*
X60728040Y-44798212D01*
X60677861Y-44804032D01*
X60673000Y-44805000D01*
X59723000Y-44805000D01*
X59718138Y-44804032D01*
X59667959Y-44798212D01*
X59650812Y-44790641D01*
X59627329Y-44785970D01*
X59602186Y-44769170D01*
X59582303Y-44760391D01*
X59568722Y-44746810D01*
X59546223Y-44731777D01*
X59531189Y-44709277D01*
X59517608Y-44695696D01*
X59508827Y-44675810D01*
X59492030Y-44650671D01*
X59487359Y-44627189D01*
X59479787Y-44610040D01*
X59473964Y-44559849D01*
X59473000Y-44555000D01*
X59473000Y-43880000D01*
X59473964Y-43875150D01*
X59479787Y-43824959D01*
X59487359Y-43807808D01*
X59492030Y-43784329D01*
X59508826Y-43759191D01*
X59517608Y-43739303D01*
X59531191Y-43725719D01*
X59546223Y-43703223D01*
X59568719Y-43688191D01*
X59582303Y-43674608D01*
X59602191Y-43665826D01*
X59627329Y-43649030D01*
X59650808Y-43644359D01*
X59667959Y-43636787D01*
X59718151Y-43630964D01*
X59723000Y-43630000D01*
X60673000Y-43630000D01*
X60677850Y-43630964D01*
G37*
G36*
X63192850Y-43580964D02*
G01*
X63243040Y-43586787D01*
X63260189Y-43594359D01*
X63283671Y-43599030D01*
X63308810Y-43615827D01*
X63328696Y-43624608D01*
X63342277Y-43638189D01*
X63364777Y-43653223D01*
X63379810Y-43675722D01*
X63393391Y-43689303D01*
X63402170Y-43709186D01*
X63418970Y-43734329D01*
X63423641Y-43757812D01*
X63431212Y-43774959D01*
X63437033Y-43825139D01*
X63438000Y-43830000D01*
X63438000Y-44530000D01*
X63437032Y-44534863D01*
X63431212Y-44585040D01*
X63423641Y-44602185D01*
X63418970Y-44625671D01*
X63402169Y-44650815D01*
X63393391Y-44670696D01*
X63379812Y-44684274D01*
X63364777Y-44706777D01*
X63342274Y-44721812D01*
X63328696Y-44735391D01*
X63308815Y-44744169D01*
X63283671Y-44760970D01*
X63260185Y-44765641D01*
X63243040Y-44773212D01*
X63192861Y-44779032D01*
X63188000Y-44780000D01*
X62288000Y-44780000D01*
X62283138Y-44779032D01*
X62232959Y-44773212D01*
X62215812Y-44765641D01*
X62192329Y-44760970D01*
X62167186Y-44744170D01*
X62147303Y-44735391D01*
X62133722Y-44721810D01*
X62111223Y-44706777D01*
X62096189Y-44684277D01*
X62082608Y-44670696D01*
X62073827Y-44650810D01*
X62057030Y-44625671D01*
X62052359Y-44602189D01*
X62044787Y-44585040D01*
X62038964Y-44534849D01*
X62038000Y-44530000D01*
X62038000Y-43830000D01*
X62038964Y-43825150D01*
X62044787Y-43774959D01*
X62052359Y-43757808D01*
X62057030Y-43734329D01*
X62073826Y-43709191D01*
X62082608Y-43689303D01*
X62096191Y-43675719D01*
X62111223Y-43653223D01*
X62133719Y-43638191D01*
X62147303Y-43624608D01*
X62167191Y-43615826D01*
X62192329Y-43599030D01*
X62215808Y-43594359D01*
X62232959Y-43586787D01*
X62283151Y-43580964D01*
X62288000Y-43580000D01*
X63188000Y-43580000D01*
X63192850Y-43580964D01*
G37*
G36*
X50492850Y-42596964D02*
G01*
X50543040Y-42602787D01*
X50560189Y-42610359D01*
X50583671Y-42615030D01*
X50608810Y-42631827D01*
X50628696Y-42640608D01*
X50642277Y-42654189D01*
X50664777Y-42669223D01*
X50679810Y-42691722D01*
X50693391Y-42705303D01*
X50702170Y-42725186D01*
X50718970Y-42750329D01*
X50723641Y-42773812D01*
X50731212Y-42790959D01*
X50737033Y-42841139D01*
X50738000Y-42846000D01*
X50738000Y-43546000D01*
X50737032Y-43550863D01*
X50731212Y-43601040D01*
X50723641Y-43618185D01*
X50718970Y-43641671D01*
X50702169Y-43666815D01*
X50693391Y-43686696D01*
X50679812Y-43700274D01*
X50664777Y-43722777D01*
X50642274Y-43737812D01*
X50628696Y-43751391D01*
X50608815Y-43760169D01*
X50583671Y-43776970D01*
X50560185Y-43781641D01*
X50543040Y-43789212D01*
X50492861Y-43795032D01*
X50488000Y-43796000D01*
X49588000Y-43796000D01*
X49583138Y-43795032D01*
X49532959Y-43789212D01*
X49515812Y-43781641D01*
X49492329Y-43776970D01*
X49467186Y-43760170D01*
X49447303Y-43751391D01*
X49433722Y-43737810D01*
X49411223Y-43722777D01*
X49396189Y-43700277D01*
X49382608Y-43686696D01*
X49373827Y-43666810D01*
X49357030Y-43641671D01*
X49352359Y-43618189D01*
X49344787Y-43601040D01*
X49338964Y-43550849D01*
X49338000Y-43546000D01*
X49338000Y-42846000D01*
X49338964Y-42841150D01*
X49344787Y-42790959D01*
X49352359Y-42773808D01*
X49357030Y-42750329D01*
X49373826Y-42725191D01*
X49382608Y-42705303D01*
X49396191Y-42691719D01*
X49411223Y-42669223D01*
X49433719Y-42654191D01*
X49447303Y-42640608D01*
X49467191Y-42631826D01*
X49492329Y-42615030D01*
X49515808Y-42610359D01*
X49532959Y-42602787D01*
X49583151Y-42596964D01*
X49588000Y-42596000D01*
X50488000Y-42596000D01*
X50492850Y-42596964D01*
G37*
G36*
X53540850Y-42596964D02*
G01*
X53591040Y-42602787D01*
X53608189Y-42610359D01*
X53631671Y-42615030D01*
X53656810Y-42631827D01*
X53676696Y-42640608D01*
X53690277Y-42654189D01*
X53712777Y-42669223D01*
X53727810Y-42691722D01*
X53741391Y-42705303D01*
X53750170Y-42725186D01*
X53766970Y-42750329D01*
X53771641Y-42773812D01*
X53779212Y-42790959D01*
X53785033Y-42841139D01*
X53786000Y-42846000D01*
X53786000Y-43546000D01*
X53785032Y-43550863D01*
X53779212Y-43601040D01*
X53771641Y-43618185D01*
X53766970Y-43641671D01*
X53750169Y-43666815D01*
X53741391Y-43686696D01*
X53727812Y-43700274D01*
X53712777Y-43722777D01*
X53690274Y-43737812D01*
X53676696Y-43751391D01*
X53656815Y-43760169D01*
X53631671Y-43776970D01*
X53608185Y-43781641D01*
X53591040Y-43789212D01*
X53540861Y-43795032D01*
X53536000Y-43796000D01*
X52636000Y-43796000D01*
X52631138Y-43795032D01*
X52580959Y-43789212D01*
X52563812Y-43781641D01*
X52540329Y-43776970D01*
X52515186Y-43760170D01*
X52495303Y-43751391D01*
X52481722Y-43737810D01*
X52459223Y-43722777D01*
X52444189Y-43700277D01*
X52430608Y-43686696D01*
X52421827Y-43666810D01*
X52405030Y-43641671D01*
X52400359Y-43618189D01*
X52392787Y-43601040D01*
X52386964Y-43550849D01*
X52386000Y-43546000D01*
X52386000Y-42846000D01*
X52386964Y-42841150D01*
X52392787Y-42790959D01*
X52400359Y-42773808D01*
X52405030Y-42750329D01*
X52421826Y-42725191D01*
X52430608Y-42705303D01*
X52444191Y-42691719D01*
X52459223Y-42669223D01*
X52481719Y-42654191D01*
X52495303Y-42640608D01*
X52515191Y-42631826D01*
X52540329Y-42615030D01*
X52563808Y-42610359D01*
X52580959Y-42602787D01*
X52631151Y-42596964D01*
X52636000Y-42596000D01*
X53536000Y-42596000D01*
X53540850Y-42596964D01*
G37*
G36*
X56788000Y-43138000D02*
G01*
X55988000Y-43138000D01*
X55988000Y-41238000D01*
X56788000Y-41238000D01*
X56788000Y-43138000D01*
G37*
G36*
X63192850Y-41580964D02*
G01*
X63243040Y-41586787D01*
X63260189Y-41594359D01*
X63283671Y-41599030D01*
X63308810Y-41615827D01*
X63328696Y-41624608D01*
X63342277Y-41638189D01*
X63364777Y-41653223D01*
X63379810Y-41675722D01*
X63393391Y-41689303D01*
X63402170Y-41709186D01*
X63418970Y-41734329D01*
X63423641Y-41757812D01*
X63431212Y-41774959D01*
X63437033Y-41825139D01*
X63438000Y-41830000D01*
X63438000Y-42530000D01*
X63437032Y-42534863D01*
X63431212Y-42585040D01*
X63423641Y-42602185D01*
X63418970Y-42625671D01*
X63402169Y-42650815D01*
X63393391Y-42670696D01*
X63379812Y-42684274D01*
X63364777Y-42706777D01*
X63342274Y-42721812D01*
X63328696Y-42735391D01*
X63308815Y-42744169D01*
X63283671Y-42760970D01*
X63260185Y-42765641D01*
X63243040Y-42773212D01*
X63192861Y-42779032D01*
X63188000Y-42780000D01*
X62288000Y-42780000D01*
X62283138Y-42779032D01*
X62232959Y-42773212D01*
X62215812Y-42765641D01*
X62192329Y-42760970D01*
X62167186Y-42744170D01*
X62147303Y-42735391D01*
X62133722Y-42721810D01*
X62111223Y-42706777D01*
X62096189Y-42684277D01*
X62082608Y-42670696D01*
X62073827Y-42650810D01*
X62057030Y-42625671D01*
X62052359Y-42602189D01*
X62044787Y-42585040D01*
X62038964Y-42534849D01*
X62038000Y-42530000D01*
X62038000Y-41830000D01*
X62038964Y-41825150D01*
X62044787Y-41774959D01*
X62052359Y-41757808D01*
X62057030Y-41734329D01*
X62073826Y-41709191D01*
X62082608Y-41689303D01*
X62096191Y-41675719D01*
X62111223Y-41653223D01*
X62133719Y-41638191D01*
X62147303Y-41624608D01*
X62167191Y-41615826D01*
X62192329Y-41599030D01*
X62215808Y-41594359D01*
X62232959Y-41586787D01*
X62283151Y-41580964D01*
X62288000Y-41580000D01*
X63188000Y-41580000D01*
X63192850Y-41580964D01*
G37*
G36*
X60677850Y-41555964D02*
G01*
X60728040Y-41561787D01*
X60745189Y-41569359D01*
X60768671Y-41574030D01*
X60793810Y-41590827D01*
X60813696Y-41599608D01*
X60827277Y-41613189D01*
X60849777Y-41628223D01*
X60864810Y-41650722D01*
X60878391Y-41664303D01*
X60887170Y-41684186D01*
X60903970Y-41709329D01*
X60908641Y-41732812D01*
X60916212Y-41749959D01*
X60922033Y-41800139D01*
X60923000Y-41805000D01*
X60923000Y-42480000D01*
X60922032Y-42484863D01*
X60916212Y-42535040D01*
X60908641Y-42552185D01*
X60903970Y-42575671D01*
X60887169Y-42600815D01*
X60878391Y-42620696D01*
X60864812Y-42634274D01*
X60849777Y-42656777D01*
X60827274Y-42671812D01*
X60813696Y-42685391D01*
X60793815Y-42694169D01*
X60768671Y-42710970D01*
X60745185Y-42715641D01*
X60728040Y-42723212D01*
X60677861Y-42729032D01*
X60673000Y-42730000D01*
X59723000Y-42730000D01*
X59718138Y-42729032D01*
X59667959Y-42723212D01*
X59650812Y-42715641D01*
X59627329Y-42710970D01*
X59602186Y-42694170D01*
X59582303Y-42685391D01*
X59568722Y-42671810D01*
X59546223Y-42656777D01*
X59531189Y-42634277D01*
X59517608Y-42620696D01*
X59508827Y-42600810D01*
X59492030Y-42575671D01*
X59487359Y-42552189D01*
X59479787Y-42535040D01*
X59473964Y-42484849D01*
X59473000Y-42480000D01*
X59473000Y-41805000D01*
X59473964Y-41800150D01*
X59479787Y-41749959D01*
X59487359Y-41732808D01*
X59492030Y-41709329D01*
X59508826Y-41684191D01*
X59517608Y-41664303D01*
X59531191Y-41650719D01*
X59546223Y-41628223D01*
X59568719Y-41613191D01*
X59582303Y-41599608D01*
X59602191Y-41590826D01*
X59627329Y-41574030D01*
X59650808Y-41569359D01*
X59667959Y-41561787D01*
X59718151Y-41555964D01*
X59723000Y-41555000D01*
X60673000Y-41555000D01*
X60677850Y-41555964D01*
G37*
G36*
X48348000Y-40220000D02*
G01*
X46648000Y-40220000D01*
X46648000Y-38520000D01*
X48348000Y-38520000D01*
X48348000Y-40220000D01*
G37*
G36*
X50300664Y-38561602D02*
G01*
X50463000Y-38633878D01*
X50606761Y-38738327D01*
X50725664Y-38870383D01*
X50814514Y-39024274D01*
X50869425Y-39193275D01*
X50888000Y-39370000D01*
X50869425Y-39546725D01*
X50814514Y-39715726D01*
X50725664Y-39869617D01*
X50606761Y-40001673D01*
X50463000Y-40106122D01*
X50300664Y-40178398D01*
X50126849Y-40215344D01*
X49949151Y-40215344D01*
X49775336Y-40178398D01*
X49613000Y-40106122D01*
X49469239Y-40001673D01*
X49350336Y-39869617D01*
X49261486Y-39715726D01*
X49206575Y-39546725D01*
X49188000Y-39370000D01*
X49206575Y-39193275D01*
X49261486Y-39024274D01*
X49350336Y-38870383D01*
X49469239Y-38738327D01*
X49613000Y-38633878D01*
X49775336Y-38561602D01*
X49949151Y-38524656D01*
X50126849Y-38524656D01*
X50300664Y-38561602D01*
G37*
G36*
X52840664Y-38561602D02*
G01*
X53003000Y-38633878D01*
X53146761Y-38738327D01*
X53265664Y-38870383D01*
X53354514Y-39024274D01*
X53409425Y-39193275D01*
X53428000Y-39370000D01*
X53409425Y-39546725D01*
X53354514Y-39715726D01*
X53265664Y-39869617D01*
X53146761Y-40001673D01*
X53003000Y-40106122D01*
X52840664Y-40178398D01*
X52666849Y-40215344D01*
X52489151Y-40215344D01*
X52315336Y-40178398D01*
X52153000Y-40106122D01*
X52009239Y-40001673D01*
X51890336Y-39869617D01*
X51801486Y-39715726D01*
X51746575Y-39546725D01*
X51728000Y-39370000D01*
X51746575Y-39193275D01*
X51801486Y-39024274D01*
X51890336Y-38870383D01*
X52009239Y-38738327D01*
X52153000Y-38633878D01*
X52315336Y-38561602D01*
X52489151Y-38524656D01*
X52666849Y-38524656D01*
X52840664Y-38561602D01*
G37*
G36*
X55380664Y-38561602D02*
G01*
X55543000Y-38633878D01*
X55686761Y-38738327D01*
X55805664Y-38870383D01*
X55894514Y-39024274D01*
X55949425Y-39193275D01*
X55968000Y-39370000D01*
X55949425Y-39546725D01*
X55894514Y-39715726D01*
X55805664Y-39869617D01*
X55686761Y-40001673D01*
X55543000Y-40106122D01*
X55380664Y-40178398D01*
X55206849Y-40215344D01*
X55029151Y-40215344D01*
X54855336Y-40178398D01*
X54693000Y-40106122D01*
X54549239Y-40001673D01*
X54430336Y-39869617D01*
X54341486Y-39715726D01*
X54286575Y-39546725D01*
X54268000Y-39370000D01*
X54286575Y-39193275D01*
X54341486Y-39024274D01*
X54430336Y-38870383D01*
X54549239Y-38738327D01*
X54693000Y-38633878D01*
X54855336Y-38561602D01*
X55029151Y-38524656D01*
X55206849Y-38524656D01*
X55380664Y-38561602D01*
G37*
G36*
X57920664Y-38561602D02*
G01*
X58083000Y-38633878D01*
X58226761Y-38738327D01*
X58345664Y-38870383D01*
X58434514Y-39024274D01*
X58489425Y-39193275D01*
X58508000Y-39370000D01*
X58489425Y-39546725D01*
X58434514Y-39715726D01*
X58345664Y-39869617D01*
X58226761Y-40001673D01*
X58083000Y-40106122D01*
X57920664Y-40178398D01*
X57746849Y-40215344D01*
X57569151Y-40215344D01*
X57395336Y-40178398D01*
X57233000Y-40106122D01*
X57089239Y-40001673D01*
X56970336Y-39869617D01*
X56881486Y-39715726D01*
X56826575Y-39546725D01*
X56808000Y-39370000D01*
X56826575Y-39193275D01*
X56881486Y-39024274D01*
X56970336Y-38870383D01*
X57089239Y-38738327D01*
X57233000Y-38633878D01*
X57395336Y-38561602D01*
X57569151Y-38524656D01*
X57746849Y-38524656D01*
X57920664Y-38561602D01*
G37*
G36*
X60460664Y-38561602D02*
G01*
X60623000Y-38633878D01*
X60766761Y-38738327D01*
X60885664Y-38870383D01*
X60974514Y-39024274D01*
X61029425Y-39193275D01*
X61048000Y-39370000D01*
X61029425Y-39546725D01*
X60974514Y-39715726D01*
X60885664Y-39869617D01*
X60766761Y-40001673D01*
X60623000Y-40106122D01*
X60460664Y-40178398D01*
X60286849Y-40215344D01*
X60109151Y-40215344D01*
X59935336Y-40178398D01*
X59773000Y-40106122D01*
X59629239Y-40001673D01*
X59510336Y-39869617D01*
X59421486Y-39715726D01*
X59366575Y-39546725D01*
X59348000Y-39370000D01*
X59366575Y-39193275D01*
X59421486Y-39024274D01*
X59510336Y-38870383D01*
X59629239Y-38738327D01*
X59773000Y-38633878D01*
X59935336Y-38561602D01*
X60109151Y-38524656D01*
X60286849Y-38524656D01*
X60460664Y-38561602D01*
G37*
G36*
X63000664Y-38561602D02*
G01*
X63163000Y-38633878D01*
X63306761Y-38738327D01*
X63425664Y-38870383D01*
X63514514Y-39024274D01*
X63569425Y-39193275D01*
X63588000Y-39370000D01*
X63569425Y-39546725D01*
X63514514Y-39715726D01*
X63425664Y-39869617D01*
X63306761Y-40001673D01*
X63163000Y-40106122D01*
X63000664Y-40178398D01*
X62826849Y-40215344D01*
X62649151Y-40215344D01*
X62475336Y-40178398D01*
X62313000Y-40106122D01*
X62169239Y-40001673D01*
X62050336Y-39869617D01*
X61961486Y-39715726D01*
X61906575Y-39546725D01*
X61888000Y-39370000D01*
X61906575Y-39193275D01*
X61961486Y-39024274D01*
X62050336Y-38870383D01*
X62169239Y-38738327D01*
X62313000Y-38633878D01*
X62475336Y-38561602D01*
X62649151Y-38524656D01*
X62826849Y-38524656D01*
X63000664Y-38561602D01*
G37*
G36*
X30934850Y-38246964D02*
G01*
X30985040Y-38252787D01*
X31002189Y-38260359D01*
X31025671Y-38265030D01*
X31050810Y-38281827D01*
X31070696Y-38290608D01*
X31084277Y-38304189D01*
X31106777Y-38319223D01*
X31121810Y-38341722D01*
X31135391Y-38355303D01*
X31144170Y-38375186D01*
X31160970Y-38400329D01*
X31165641Y-38423812D01*
X31173212Y-38440959D01*
X31179033Y-38491139D01*
X31180000Y-38496000D01*
X31180000Y-39196000D01*
X31179032Y-39200863D01*
X31173212Y-39251040D01*
X31165641Y-39268185D01*
X31160970Y-39291671D01*
X31144169Y-39316815D01*
X31135391Y-39336696D01*
X31121812Y-39350274D01*
X31106777Y-39372777D01*
X31084274Y-39387812D01*
X31070696Y-39401391D01*
X31050815Y-39410169D01*
X31025671Y-39426970D01*
X31002185Y-39431641D01*
X30985040Y-39439212D01*
X30934861Y-39445032D01*
X30930000Y-39446000D01*
X30030000Y-39446000D01*
X30025138Y-39445032D01*
X29974959Y-39439212D01*
X29957812Y-39431641D01*
X29934329Y-39426970D01*
X29909186Y-39410170D01*
X29889303Y-39401391D01*
X29875722Y-39387810D01*
X29853223Y-39372777D01*
X29838189Y-39350277D01*
X29824608Y-39336696D01*
X29815827Y-39316810D01*
X29799030Y-39291671D01*
X29794359Y-39268189D01*
X29786787Y-39251040D01*
X29780964Y-39200849D01*
X29780000Y-39196000D01*
X29780000Y-38496000D01*
X29780964Y-38491150D01*
X29786787Y-38440959D01*
X29794359Y-38423808D01*
X29799030Y-38400329D01*
X29815826Y-38375191D01*
X29824608Y-38355303D01*
X29838191Y-38341719D01*
X29853223Y-38319223D01*
X29875719Y-38304191D01*
X29889303Y-38290608D01*
X29909191Y-38281826D01*
X29934329Y-38265030D01*
X29957808Y-38260359D01*
X29974959Y-38252787D01*
X30025151Y-38246964D01*
X30030000Y-38246000D01*
X30930000Y-38246000D01*
X30934850Y-38246964D01*
G37*
G36*
X33474850Y-38246964D02*
G01*
X33525040Y-38252787D01*
X33542189Y-38260359D01*
X33565671Y-38265030D01*
X33590810Y-38281827D01*
X33610696Y-38290608D01*
X33624277Y-38304189D01*
X33646777Y-38319223D01*
X33661810Y-38341722D01*
X33675391Y-38355303D01*
X33684170Y-38375186D01*
X33700970Y-38400329D01*
X33705641Y-38423812D01*
X33713212Y-38440959D01*
X33719033Y-38491139D01*
X33720000Y-38496000D01*
X33720000Y-39196000D01*
X33719032Y-39200863D01*
X33713212Y-39251040D01*
X33705641Y-39268185D01*
X33700970Y-39291671D01*
X33684169Y-39316815D01*
X33675391Y-39336696D01*
X33661812Y-39350274D01*
X33646777Y-39372777D01*
X33624274Y-39387812D01*
X33610696Y-39401391D01*
X33590815Y-39410169D01*
X33565671Y-39426970D01*
X33542185Y-39431641D01*
X33525040Y-39439212D01*
X33474861Y-39445032D01*
X33470000Y-39446000D01*
X32570000Y-39446000D01*
X32565138Y-39445032D01*
X32514959Y-39439212D01*
X32497812Y-39431641D01*
X32474329Y-39426970D01*
X32449186Y-39410170D01*
X32429303Y-39401391D01*
X32415722Y-39387810D01*
X32393223Y-39372777D01*
X32378189Y-39350277D01*
X32364608Y-39336696D01*
X32355827Y-39316810D01*
X32339030Y-39291671D01*
X32334359Y-39268189D01*
X32326787Y-39251040D01*
X32320964Y-39200849D01*
X32320000Y-39196000D01*
X32320000Y-38496000D01*
X32320964Y-38491150D01*
X32326787Y-38440959D01*
X32334359Y-38423808D01*
X32339030Y-38400329D01*
X32355826Y-38375191D01*
X32364608Y-38355303D01*
X32378191Y-38341719D01*
X32393223Y-38319223D01*
X32415719Y-38304191D01*
X32429303Y-38290608D01*
X32449191Y-38281826D01*
X32474329Y-38265030D01*
X32497808Y-38260359D01*
X32514959Y-38252787D01*
X32565151Y-38246964D01*
X32570000Y-38246000D01*
X33470000Y-38246000D01*
X33474850Y-38246964D01*
G37*
G36*
X35887850Y-38246964D02*
G01*
X35938040Y-38252787D01*
X35955189Y-38260359D01*
X35978671Y-38265030D01*
X36003810Y-38281827D01*
X36023696Y-38290608D01*
X36037277Y-38304189D01*
X36059777Y-38319223D01*
X36074810Y-38341722D01*
X36088391Y-38355303D01*
X36097170Y-38375186D01*
X36113970Y-38400329D01*
X36118641Y-38423812D01*
X36126212Y-38440959D01*
X36132033Y-38491139D01*
X36133000Y-38496000D01*
X36133000Y-39196000D01*
X36132032Y-39200863D01*
X36126212Y-39251040D01*
X36118641Y-39268185D01*
X36113970Y-39291671D01*
X36097169Y-39316815D01*
X36088391Y-39336696D01*
X36074812Y-39350274D01*
X36059777Y-39372777D01*
X36037274Y-39387812D01*
X36023696Y-39401391D01*
X36003815Y-39410169D01*
X35978671Y-39426970D01*
X35955185Y-39431641D01*
X35938040Y-39439212D01*
X35887861Y-39445032D01*
X35883000Y-39446000D01*
X34983000Y-39446000D01*
X34978138Y-39445032D01*
X34927959Y-39439212D01*
X34910812Y-39431641D01*
X34887329Y-39426970D01*
X34862186Y-39410170D01*
X34842303Y-39401391D01*
X34828722Y-39387810D01*
X34806223Y-39372777D01*
X34791189Y-39350277D01*
X34777608Y-39336696D01*
X34768827Y-39316810D01*
X34752030Y-39291671D01*
X34747359Y-39268189D01*
X34739787Y-39251040D01*
X34733964Y-39200849D01*
X34733000Y-39196000D01*
X34733000Y-38496000D01*
X34733964Y-38491150D01*
X34739787Y-38440959D01*
X34747359Y-38423808D01*
X34752030Y-38400329D01*
X34768826Y-38375191D01*
X34777608Y-38355303D01*
X34791191Y-38341719D01*
X34806223Y-38319223D01*
X34828719Y-38304191D01*
X34842303Y-38290608D01*
X34862191Y-38281826D01*
X34887329Y-38265030D01*
X34910808Y-38260359D01*
X34927959Y-38252787D01*
X34978151Y-38246964D01*
X34983000Y-38246000D01*
X35883000Y-38246000D01*
X35887850Y-38246964D01*
G37*
G36*
X30934850Y-36246964D02*
G01*
X30985040Y-36252787D01*
X31002189Y-36260359D01*
X31025671Y-36265030D01*
X31050810Y-36281827D01*
X31070696Y-36290608D01*
X31084277Y-36304189D01*
X31106777Y-36319223D01*
X31121810Y-36341722D01*
X31135391Y-36355303D01*
X31144170Y-36375186D01*
X31160970Y-36400329D01*
X31165641Y-36423812D01*
X31173212Y-36440959D01*
X31179033Y-36491139D01*
X31180000Y-36496000D01*
X31180000Y-37196000D01*
X31179032Y-37200863D01*
X31173212Y-37251040D01*
X31165641Y-37268185D01*
X31160970Y-37291671D01*
X31144169Y-37316815D01*
X31135391Y-37336696D01*
X31121812Y-37350274D01*
X31106777Y-37372777D01*
X31084274Y-37387812D01*
X31070696Y-37401391D01*
X31050815Y-37410169D01*
X31025671Y-37426970D01*
X31002185Y-37431641D01*
X30985040Y-37439212D01*
X30934861Y-37445032D01*
X30930000Y-37446000D01*
X30030000Y-37446000D01*
X30025138Y-37445032D01*
X29974959Y-37439212D01*
X29957812Y-37431641D01*
X29934329Y-37426970D01*
X29909186Y-37410170D01*
X29889303Y-37401391D01*
X29875722Y-37387810D01*
X29853223Y-37372777D01*
X29838189Y-37350277D01*
X29824608Y-37336696D01*
X29815827Y-37316810D01*
X29799030Y-37291671D01*
X29794359Y-37268189D01*
X29786787Y-37251040D01*
X29780964Y-37200849D01*
X29780000Y-37196000D01*
X29780000Y-36496000D01*
X29780964Y-36491150D01*
X29786787Y-36440959D01*
X29794359Y-36423808D01*
X29799030Y-36400329D01*
X29815826Y-36375191D01*
X29824608Y-36355303D01*
X29838191Y-36341719D01*
X29853223Y-36319223D01*
X29875719Y-36304191D01*
X29889303Y-36290608D01*
X29909191Y-36281826D01*
X29934329Y-36265030D01*
X29957808Y-36260359D01*
X29974959Y-36252787D01*
X30025151Y-36246964D01*
X30030000Y-36246000D01*
X30930000Y-36246000D01*
X30934850Y-36246964D01*
G37*
G36*
X33474850Y-36246964D02*
G01*
X33525040Y-36252787D01*
X33542189Y-36260359D01*
X33565671Y-36265030D01*
X33590810Y-36281827D01*
X33610696Y-36290608D01*
X33624277Y-36304189D01*
X33646777Y-36319223D01*
X33661810Y-36341722D01*
X33675391Y-36355303D01*
X33684170Y-36375186D01*
X33700970Y-36400329D01*
X33705641Y-36423812D01*
X33713212Y-36440959D01*
X33719033Y-36491139D01*
X33720000Y-36496000D01*
X33720000Y-37196000D01*
X33719032Y-37200863D01*
X33713212Y-37251040D01*
X33705641Y-37268185D01*
X33700970Y-37291671D01*
X33684169Y-37316815D01*
X33675391Y-37336696D01*
X33661812Y-37350274D01*
X33646777Y-37372777D01*
X33624274Y-37387812D01*
X33610696Y-37401391D01*
X33590815Y-37410169D01*
X33565671Y-37426970D01*
X33542185Y-37431641D01*
X33525040Y-37439212D01*
X33474861Y-37445032D01*
X33470000Y-37446000D01*
X32570000Y-37446000D01*
X32565138Y-37445032D01*
X32514959Y-37439212D01*
X32497812Y-37431641D01*
X32474329Y-37426970D01*
X32449186Y-37410170D01*
X32429303Y-37401391D01*
X32415722Y-37387810D01*
X32393223Y-37372777D01*
X32378189Y-37350277D01*
X32364608Y-37336696D01*
X32355827Y-37316810D01*
X32339030Y-37291671D01*
X32334359Y-37268189D01*
X32326787Y-37251040D01*
X32320964Y-37200849D01*
X32320000Y-37196000D01*
X32320000Y-36496000D01*
X32320964Y-36491150D01*
X32326787Y-36440959D01*
X32334359Y-36423808D01*
X32339030Y-36400329D01*
X32355826Y-36375191D01*
X32364608Y-36355303D01*
X32378191Y-36341719D01*
X32393223Y-36319223D01*
X32415719Y-36304191D01*
X32429303Y-36290608D01*
X32449191Y-36281826D01*
X32474329Y-36265030D01*
X32497808Y-36260359D01*
X32514959Y-36252787D01*
X32565151Y-36246964D01*
X32570000Y-36246000D01*
X33470000Y-36246000D01*
X33474850Y-36246964D01*
G37*
G36*
X35887850Y-36246964D02*
G01*
X35938040Y-36252787D01*
X35955189Y-36260359D01*
X35978671Y-36265030D01*
X36003810Y-36281827D01*
X36023696Y-36290608D01*
X36037277Y-36304189D01*
X36059777Y-36319223D01*
X36074810Y-36341722D01*
X36088391Y-36355303D01*
X36097170Y-36375186D01*
X36113970Y-36400329D01*
X36118641Y-36423812D01*
X36126212Y-36440959D01*
X36132033Y-36491139D01*
X36133000Y-36496000D01*
X36133000Y-37196000D01*
X36132032Y-37200863D01*
X36126212Y-37251040D01*
X36118641Y-37268185D01*
X36113970Y-37291671D01*
X36097169Y-37316815D01*
X36088391Y-37336696D01*
X36074812Y-37350274D01*
X36059777Y-37372777D01*
X36037274Y-37387812D01*
X36023696Y-37401391D01*
X36003815Y-37410169D01*
X35978671Y-37426970D01*
X35955185Y-37431641D01*
X35938040Y-37439212D01*
X35887861Y-37445032D01*
X35883000Y-37446000D01*
X34983000Y-37446000D01*
X34978138Y-37445032D01*
X34927959Y-37439212D01*
X34910812Y-37431641D01*
X34887329Y-37426970D01*
X34862186Y-37410170D01*
X34842303Y-37401391D01*
X34828722Y-37387810D01*
X34806223Y-37372777D01*
X34791189Y-37350277D01*
X34777608Y-37336696D01*
X34768827Y-37316810D01*
X34752030Y-37291671D01*
X34747359Y-37268189D01*
X34739787Y-37251040D01*
X34733964Y-37200849D01*
X34733000Y-37196000D01*
X34733000Y-36496000D01*
X34733964Y-36491150D01*
X34739787Y-36440959D01*
X34747359Y-36423808D01*
X34752030Y-36400329D01*
X34768826Y-36375191D01*
X34777608Y-36355303D01*
X34791191Y-36341719D01*
X34806223Y-36319223D01*
X34828719Y-36304191D01*
X34842303Y-36290608D01*
X34862191Y-36281826D01*
X34887329Y-36265030D01*
X34910808Y-36260359D01*
X34927959Y-36252787D01*
X34978151Y-36246964D01*
X34983000Y-36246000D01*
X35883000Y-36246000D01*
X35887850Y-36246964D01*
G37*
G36*
X31061850Y-27959964D02*
G01*
X31112040Y-27965787D01*
X31129189Y-27973359D01*
X31152671Y-27978030D01*
X31177810Y-27994827D01*
X31197696Y-28003608D01*
X31211277Y-28017189D01*
X31233777Y-28032223D01*
X31248810Y-28054722D01*
X31262391Y-28068303D01*
X31271170Y-28088186D01*
X31287970Y-28113329D01*
X31292641Y-28136812D01*
X31300212Y-28153959D01*
X31306033Y-28204139D01*
X31307000Y-28209000D01*
X31307000Y-28909000D01*
X31306032Y-28913863D01*
X31300212Y-28964040D01*
X31292641Y-28981185D01*
X31287970Y-29004671D01*
X31271169Y-29029815D01*
X31262391Y-29049696D01*
X31248812Y-29063274D01*
X31233777Y-29085777D01*
X31211274Y-29100812D01*
X31197696Y-29114391D01*
X31177815Y-29123169D01*
X31152671Y-29139970D01*
X31129185Y-29144641D01*
X31112040Y-29152212D01*
X31061861Y-29158032D01*
X31057000Y-29159000D01*
X30157000Y-29159000D01*
X30152138Y-29158032D01*
X30101959Y-29152212D01*
X30084812Y-29144641D01*
X30061329Y-29139970D01*
X30036186Y-29123170D01*
X30016303Y-29114391D01*
X30002722Y-29100810D01*
X29980223Y-29085777D01*
X29965189Y-29063277D01*
X29951608Y-29049696D01*
X29942827Y-29029810D01*
X29926030Y-29004671D01*
X29921359Y-28981189D01*
X29913787Y-28964040D01*
X29907964Y-28913849D01*
X29907000Y-28909000D01*
X29907000Y-28209000D01*
X29907964Y-28204150D01*
X29913787Y-28153959D01*
X29921359Y-28136808D01*
X29926030Y-28113329D01*
X29942826Y-28088191D01*
X29951608Y-28068303D01*
X29965191Y-28054719D01*
X29980223Y-28032223D01*
X30002719Y-28017191D01*
X30016303Y-28003608D01*
X30036191Y-27994826D01*
X30061329Y-27978030D01*
X30084808Y-27973359D01*
X30101959Y-27965787D01*
X30152151Y-27959964D01*
X30157000Y-27959000D01*
X31057000Y-27959000D01*
X31061850Y-27959964D01*
G37*
G36*
X33220850Y-27959964D02*
G01*
X33271040Y-27965787D01*
X33288189Y-27973359D01*
X33311671Y-27978030D01*
X33336810Y-27994827D01*
X33356696Y-28003608D01*
X33370277Y-28017189D01*
X33392777Y-28032223D01*
X33407810Y-28054722D01*
X33421391Y-28068303D01*
X33430170Y-28088186D01*
X33446970Y-28113329D01*
X33451641Y-28136812D01*
X33459212Y-28153959D01*
X33465033Y-28204139D01*
X33466000Y-28209000D01*
X33466000Y-28909000D01*
X33465032Y-28913863D01*
X33459212Y-28964040D01*
X33451641Y-28981185D01*
X33446970Y-29004671D01*
X33430169Y-29029815D01*
X33421391Y-29049696D01*
X33407812Y-29063274D01*
X33392777Y-29085777D01*
X33370274Y-29100812D01*
X33356696Y-29114391D01*
X33336815Y-29123169D01*
X33311671Y-29139970D01*
X33288185Y-29144641D01*
X33271040Y-29152212D01*
X33220861Y-29158032D01*
X33216000Y-29159000D01*
X32316000Y-29159000D01*
X32311138Y-29158032D01*
X32260959Y-29152212D01*
X32243812Y-29144641D01*
X32220329Y-29139970D01*
X32195186Y-29123170D01*
X32175303Y-29114391D01*
X32161722Y-29100810D01*
X32139223Y-29085777D01*
X32124189Y-29063277D01*
X32110608Y-29049696D01*
X32101827Y-29029810D01*
X32085030Y-29004671D01*
X32080359Y-28981189D01*
X32072787Y-28964040D01*
X32066964Y-28913849D01*
X32066000Y-28909000D01*
X32066000Y-28209000D01*
X32066964Y-28204150D01*
X32072787Y-28153959D01*
X32080359Y-28136808D01*
X32085030Y-28113329D01*
X32101826Y-28088191D01*
X32110608Y-28068303D01*
X32124191Y-28054719D01*
X32139223Y-28032223D01*
X32161719Y-28017191D01*
X32175303Y-28003608D01*
X32195191Y-27994826D01*
X32220329Y-27978030D01*
X32243808Y-27973359D01*
X32260959Y-27965787D01*
X32311151Y-27959964D01*
X32316000Y-27959000D01*
X33216000Y-27959000D01*
X33220850Y-27959964D01*
G37*
G36*
X35506850Y-27959964D02*
G01*
X35557040Y-27965787D01*
X35574189Y-27973359D01*
X35597671Y-27978030D01*
X35622810Y-27994827D01*
X35642696Y-28003608D01*
X35656277Y-28017189D01*
X35678777Y-28032223D01*
X35693810Y-28054722D01*
X35707391Y-28068303D01*
X35716170Y-28088186D01*
X35732970Y-28113329D01*
X35737641Y-28136812D01*
X35745212Y-28153959D01*
X35751033Y-28204139D01*
X35752000Y-28209000D01*
X35752000Y-28909000D01*
X35751032Y-28913863D01*
X35745212Y-28964040D01*
X35737641Y-28981185D01*
X35732970Y-29004671D01*
X35716169Y-29029815D01*
X35707391Y-29049696D01*
X35693812Y-29063274D01*
X35678777Y-29085777D01*
X35656274Y-29100812D01*
X35642696Y-29114391D01*
X35622815Y-29123169D01*
X35597671Y-29139970D01*
X35574185Y-29144641D01*
X35557040Y-29152212D01*
X35506861Y-29158032D01*
X35502000Y-29159000D01*
X34602000Y-29159000D01*
X34597138Y-29158032D01*
X34546959Y-29152212D01*
X34529812Y-29144641D01*
X34506329Y-29139970D01*
X34481186Y-29123170D01*
X34461303Y-29114391D01*
X34447722Y-29100810D01*
X34425223Y-29085777D01*
X34410189Y-29063277D01*
X34396608Y-29049696D01*
X34387827Y-29029810D01*
X34371030Y-29004671D01*
X34366359Y-28981189D01*
X34358787Y-28964040D01*
X34352964Y-28913849D01*
X34352000Y-28909000D01*
X34352000Y-28209000D01*
X34352964Y-28204150D01*
X34358787Y-28153959D01*
X34366359Y-28136808D01*
X34371030Y-28113329D01*
X34387826Y-28088191D01*
X34396608Y-28068303D01*
X34410191Y-28054719D01*
X34425223Y-28032223D01*
X34447719Y-28017191D01*
X34461303Y-28003608D01*
X34481191Y-27994826D01*
X34506329Y-27978030D01*
X34529808Y-27973359D01*
X34546959Y-27965787D01*
X34597151Y-27959964D01*
X34602000Y-27959000D01*
X35502000Y-27959000D01*
X35506850Y-27959964D01*
G37*
G36*
X37792850Y-27959964D02*
G01*
X37843040Y-27965787D01*
X37860189Y-27973359D01*
X37883671Y-27978030D01*
X37908810Y-27994827D01*
X37928696Y-28003608D01*
X37942277Y-28017189D01*
X37964777Y-28032223D01*
X37979810Y-28054722D01*
X37993391Y-28068303D01*
X38002170Y-28088186D01*
X38018970Y-28113329D01*
X38023641Y-28136812D01*
X38031212Y-28153959D01*
X38037033Y-28204139D01*
X38038000Y-28209000D01*
X38038000Y-28909000D01*
X38037032Y-28913863D01*
X38031212Y-28964040D01*
X38023641Y-28981185D01*
X38018970Y-29004671D01*
X38002169Y-29029815D01*
X37993391Y-29049696D01*
X37979812Y-29063274D01*
X37964777Y-29085777D01*
X37942274Y-29100812D01*
X37928696Y-29114391D01*
X37908815Y-29123169D01*
X37883671Y-29139970D01*
X37860185Y-29144641D01*
X37843040Y-29152212D01*
X37792861Y-29158032D01*
X37788000Y-29159000D01*
X36888000Y-29159000D01*
X36883138Y-29158032D01*
X36832959Y-29152212D01*
X36815812Y-29144641D01*
X36792329Y-29139970D01*
X36767186Y-29123170D01*
X36747303Y-29114391D01*
X36733722Y-29100810D01*
X36711223Y-29085777D01*
X36696189Y-29063277D01*
X36682608Y-29049696D01*
X36673827Y-29029810D01*
X36657030Y-29004671D01*
X36652359Y-28981189D01*
X36644787Y-28964040D01*
X36638964Y-28913849D01*
X36638000Y-28909000D01*
X36638000Y-28209000D01*
X36638964Y-28204150D01*
X36644787Y-28153959D01*
X36652359Y-28136808D01*
X36657030Y-28113329D01*
X36673826Y-28088191D01*
X36682608Y-28068303D01*
X36696191Y-28054719D01*
X36711223Y-28032223D01*
X36733719Y-28017191D01*
X36747303Y-28003608D01*
X36767191Y-27994826D01*
X36792329Y-27978030D01*
X36815808Y-27973359D01*
X36832959Y-27965787D01*
X36883151Y-27959964D01*
X36888000Y-27959000D01*
X37788000Y-27959000D01*
X37792850Y-27959964D01*
G37*
G36*
X40078850Y-27959964D02*
G01*
X40129040Y-27965787D01*
X40146189Y-27973359D01*
X40169671Y-27978030D01*
X40194810Y-27994827D01*
X40214696Y-28003608D01*
X40228277Y-28017189D01*
X40250777Y-28032223D01*
X40265810Y-28054722D01*
X40279391Y-28068303D01*
X40288170Y-28088186D01*
X40304970Y-28113329D01*
X40309641Y-28136812D01*
X40317212Y-28153959D01*
X40323033Y-28204139D01*
X40324000Y-28209000D01*
X40324000Y-28909000D01*
X40323032Y-28913863D01*
X40317212Y-28964040D01*
X40309641Y-28981185D01*
X40304970Y-29004671D01*
X40288169Y-29029815D01*
X40279391Y-29049696D01*
X40265812Y-29063274D01*
X40250777Y-29085777D01*
X40228274Y-29100812D01*
X40214696Y-29114391D01*
X40194815Y-29123169D01*
X40169671Y-29139970D01*
X40146185Y-29144641D01*
X40129040Y-29152212D01*
X40078861Y-29158032D01*
X40074000Y-29159000D01*
X39174000Y-29159000D01*
X39169138Y-29158032D01*
X39118959Y-29152212D01*
X39101812Y-29144641D01*
X39078329Y-29139970D01*
X39053186Y-29123170D01*
X39033303Y-29114391D01*
X39019722Y-29100810D01*
X38997223Y-29085777D01*
X38982189Y-29063277D01*
X38968608Y-29049696D01*
X38959827Y-29029810D01*
X38943030Y-29004671D01*
X38938359Y-28981189D01*
X38930787Y-28964040D01*
X38924964Y-28913849D01*
X38924000Y-28909000D01*
X38924000Y-28209000D01*
X38924964Y-28204150D01*
X38930787Y-28153959D01*
X38938359Y-28136808D01*
X38943030Y-28113329D01*
X38959826Y-28088191D01*
X38968608Y-28068303D01*
X38982191Y-28054719D01*
X38997223Y-28032223D01*
X39019719Y-28017191D01*
X39033303Y-28003608D01*
X39053191Y-27994826D01*
X39078329Y-27978030D01*
X39101808Y-27973359D01*
X39118959Y-27965787D01*
X39169151Y-27959964D01*
X39174000Y-27959000D01*
X40074000Y-27959000D01*
X40078850Y-27959964D01*
G37*
G36*
X29144000Y-28750000D02*
G01*
X27244000Y-28750000D01*
X27244000Y-27950000D01*
X29144000Y-27950000D01*
X29144000Y-28750000D01*
G37*
G36*
X20147113Y-26504930D02*
G01*
X20194076Y-26504930D01*
X20234622Y-26513548D01*
X20275526Y-26517577D01*
X20326916Y-26533166D01*
X20378115Y-26544049D01*
X20410879Y-26558636D01*
X20444304Y-26568776D01*
X20497420Y-26597166D01*
X20550000Y-26620577D01*
X20574445Y-26638337D01*
X20599849Y-26651916D01*
X20651669Y-26694444D01*
X20702218Y-26731170D01*
X20718631Y-26749398D01*
X20736190Y-26763809D01*
X20783379Y-26821308D01*
X20828115Y-26870993D01*
X20837512Y-26887269D01*
X20848083Y-26900150D01*
X20887183Y-26973302D01*
X20922191Y-27033937D01*
X20926218Y-27046331D01*
X20931223Y-27055695D01*
X20958821Y-27146672D01*
X20980333Y-27212879D01*
X20981090Y-27220082D01*
X20982422Y-27224473D01*
X20995377Y-27356021D01*
X21000000Y-27400000D01*
X20995377Y-27443982D01*
X20982422Y-27575526D01*
X20981090Y-27579916D01*
X20980333Y-27587121D01*
X20958816Y-27653341D01*
X20931223Y-27744304D01*
X20926219Y-27753665D01*
X20922191Y-27766063D01*
X20887176Y-27826709D01*
X20848083Y-27899849D01*
X20837514Y-27912726D01*
X20828115Y-27929007D01*
X20783369Y-27978701D01*
X20736190Y-28036190D01*
X20718634Y-28050597D01*
X20702218Y-28068830D01*
X20651659Y-28105563D01*
X20599849Y-28148083D01*
X20574450Y-28161658D01*
X20550000Y-28179423D01*
X20497408Y-28202838D01*
X20444304Y-28231223D01*
X20410886Y-28241360D01*
X20378115Y-28255951D01*
X20326905Y-28266836D01*
X20275526Y-28282422D01*
X20234631Y-28286449D01*
X20194076Y-28295070D01*
X20147103Y-28295070D01*
X20100000Y-28299709D01*
X20052897Y-28295070D01*
X20005924Y-28295070D01*
X19965368Y-28286449D01*
X19924473Y-28282422D01*
X19873091Y-28266835D01*
X19821885Y-28255951D01*
X19789115Y-28241361D01*
X19755695Y-28231223D01*
X19702585Y-28202835D01*
X19650000Y-28179423D01*
X19625552Y-28161660D01*
X19600150Y-28148083D01*
X19548332Y-28105556D01*
X19497782Y-28068830D01*
X19481368Y-28050600D01*
X19463809Y-28036190D01*
X19416618Y-27978688D01*
X19371885Y-27929007D01*
X19362487Y-27912730D01*
X19351916Y-27899849D01*
X19312810Y-27826686D01*
X19277809Y-27766063D01*
X19273782Y-27753670D01*
X19268776Y-27744304D01*
X19241168Y-27653294D01*
X19219667Y-27587121D01*
X19218910Y-27579921D01*
X19217577Y-27575526D01*
X19204606Y-27443831D01*
X19200000Y-27400000D01*
X19204606Y-27356172D01*
X19217577Y-27224473D01*
X19218910Y-27220077D01*
X19219667Y-27212879D01*
X19241163Y-27146719D01*
X19268776Y-27055695D01*
X19273783Y-27046327D01*
X19277809Y-27033937D01*
X19312802Y-26973326D01*
X19351916Y-26900150D01*
X19362489Y-26887265D01*
X19371885Y-26870993D01*
X19416609Y-26821321D01*
X19463809Y-26763809D01*
X19481371Y-26749395D01*
X19497782Y-26731170D01*
X19548321Y-26694450D01*
X19600150Y-26651916D01*
X19625557Y-26638335D01*
X19650000Y-26620577D01*
X19702573Y-26597169D01*
X19755695Y-26568776D01*
X19789122Y-26558635D01*
X19821885Y-26544049D01*
X19873080Y-26533166D01*
X19924473Y-26517577D01*
X19965377Y-26513548D01*
X20005924Y-26504930D01*
X20052887Y-26504930D01*
X20100000Y-26500290D01*
X20147113Y-26504930D01*
G37*
G36*
X67647113Y-26504930D02*
G01*
X67694076Y-26504930D01*
X67734622Y-26513548D01*
X67775526Y-26517577D01*
X67826916Y-26533166D01*
X67878115Y-26544049D01*
X67910879Y-26558636D01*
X67944304Y-26568776D01*
X67997420Y-26597166D01*
X68050000Y-26620577D01*
X68074445Y-26638337D01*
X68099849Y-26651916D01*
X68151669Y-26694444D01*
X68202218Y-26731170D01*
X68218631Y-26749398D01*
X68236190Y-26763809D01*
X68283379Y-26821308D01*
X68328115Y-26870993D01*
X68337512Y-26887269D01*
X68348083Y-26900150D01*
X68387183Y-26973302D01*
X68422191Y-27033937D01*
X68426218Y-27046331D01*
X68431223Y-27055695D01*
X68458821Y-27146672D01*
X68480333Y-27212879D01*
X68481090Y-27220082D01*
X68482422Y-27224473D01*
X68495378Y-27356032D01*
X68500000Y-27400000D01*
X68495376Y-27443993D01*
X68482422Y-27575526D01*
X68481090Y-27579916D01*
X68480333Y-27587121D01*
X68458816Y-27653341D01*
X68431223Y-27744304D01*
X68426219Y-27753665D01*
X68422191Y-27766063D01*
X68387176Y-27826709D01*
X68348083Y-27899849D01*
X68337514Y-27912726D01*
X68328115Y-27929007D01*
X68283369Y-27978701D01*
X68236190Y-28036190D01*
X68218634Y-28050597D01*
X68202218Y-28068830D01*
X68151659Y-28105563D01*
X68099849Y-28148083D01*
X68074450Y-28161658D01*
X68050000Y-28179423D01*
X67997408Y-28202838D01*
X67944304Y-28231223D01*
X67910886Y-28241360D01*
X67878115Y-28255951D01*
X67826905Y-28266836D01*
X67775526Y-28282422D01*
X67734631Y-28286449D01*
X67694076Y-28295070D01*
X67647103Y-28295070D01*
X67600000Y-28299709D01*
X67552897Y-28295070D01*
X67505924Y-28295070D01*
X67465368Y-28286449D01*
X67424473Y-28282422D01*
X67373091Y-28266835D01*
X67321885Y-28255951D01*
X67289115Y-28241361D01*
X67255695Y-28231223D01*
X67202585Y-28202835D01*
X67150000Y-28179423D01*
X67125552Y-28161660D01*
X67100150Y-28148083D01*
X67048332Y-28105556D01*
X66997782Y-28068830D01*
X66981368Y-28050600D01*
X66963809Y-28036190D01*
X66916618Y-27978688D01*
X66871885Y-27929007D01*
X66862487Y-27912730D01*
X66851916Y-27899849D01*
X66812810Y-27826686D01*
X66777809Y-27766063D01*
X66773782Y-27753670D01*
X66768776Y-27744304D01*
X66741168Y-27653294D01*
X66719667Y-27587121D01*
X66718910Y-27579921D01*
X66717577Y-27575526D01*
X66704606Y-27443831D01*
X66700000Y-27400000D01*
X66704606Y-27356172D01*
X66717577Y-27224473D01*
X66718910Y-27220077D01*
X66719667Y-27212879D01*
X66741163Y-27146719D01*
X66768776Y-27055695D01*
X66773783Y-27046327D01*
X66777809Y-27033937D01*
X66812802Y-26973326D01*
X66851916Y-26900150D01*
X66862489Y-26887265D01*
X66871885Y-26870993D01*
X66916609Y-26821321D01*
X66963809Y-26763809D01*
X66981371Y-26749395D01*
X66997782Y-26731170D01*
X67048321Y-26694450D01*
X67100150Y-26651916D01*
X67125557Y-26638335D01*
X67150000Y-26620577D01*
X67202573Y-26597169D01*
X67255695Y-26568776D01*
X67289122Y-26558635D01*
X67321885Y-26544049D01*
X67373080Y-26533166D01*
X67424473Y-26517577D01*
X67465377Y-26513548D01*
X67505924Y-26504930D01*
X67552887Y-26504930D01*
X67600000Y-26500290D01*
X67647113Y-26504930D01*
G37*
G36*
X74384234Y-28110400D02*
G01*
X72184234Y-28110400D01*
X72184234Y-25910400D01*
X74384234Y-25910400D01*
X74384234Y-28110400D01*
G37*
G36*
X71045263Y-25952392D02*
G01*
X71234546Y-26025720D01*
X71407132Y-26132581D01*
X71557144Y-26269335D01*
X71679473Y-26431325D01*
X71769953Y-26613034D01*
X71825504Y-26808276D01*
X71844234Y-27010400D01*
X71825504Y-27212524D01*
X71769953Y-27407766D01*
X71679473Y-27589475D01*
X71557144Y-27751465D01*
X71407132Y-27888219D01*
X71234546Y-27995080D01*
X71045263Y-28068408D01*
X70845729Y-28105708D01*
X70642739Y-28105708D01*
X70443205Y-28068408D01*
X70253922Y-27995080D01*
X70081336Y-27888219D01*
X69931324Y-27751465D01*
X69808995Y-27589475D01*
X69718515Y-27407766D01*
X69662964Y-27212524D01*
X69644234Y-27010400D01*
X69662964Y-26808276D01*
X69718515Y-26613034D01*
X69808995Y-26431325D01*
X69931324Y-26269335D01*
X70081336Y-26132581D01*
X70253922Y-26025720D01*
X70443205Y-25952392D01*
X70642739Y-25915092D01*
X70845729Y-25915092D01*
X71045263Y-25952392D01*
G37*
G36*
X42770850Y-26866964D02*
G01*
X42821040Y-26872787D01*
X42838189Y-26880359D01*
X42861671Y-26885030D01*
X42886810Y-26901827D01*
X42906696Y-26910608D01*
X42920277Y-26924189D01*
X42942777Y-26939223D01*
X42957810Y-26961722D01*
X42971391Y-26975303D01*
X42980170Y-26995186D01*
X42996970Y-27020329D01*
X43001641Y-27043812D01*
X43009212Y-27060959D01*
X43015033Y-27111139D01*
X43016000Y-27116000D01*
X43016000Y-27791000D01*
X43015032Y-27795863D01*
X43009212Y-27846040D01*
X43001641Y-27863185D01*
X42996970Y-27886671D01*
X42980169Y-27911815D01*
X42971391Y-27931696D01*
X42957812Y-27945274D01*
X42942777Y-27967777D01*
X42920274Y-27982812D01*
X42906696Y-27996391D01*
X42886815Y-28005169D01*
X42861671Y-28021970D01*
X42838185Y-28026641D01*
X42821040Y-28034212D01*
X42770861Y-28040032D01*
X42766000Y-28041000D01*
X41816000Y-28041000D01*
X41811138Y-28040032D01*
X41760959Y-28034212D01*
X41743812Y-28026641D01*
X41720329Y-28021970D01*
X41695186Y-28005170D01*
X41675303Y-27996391D01*
X41661722Y-27982810D01*
X41639223Y-27967777D01*
X41624189Y-27945277D01*
X41610608Y-27931696D01*
X41601827Y-27911810D01*
X41585030Y-27886671D01*
X41580359Y-27863189D01*
X41572787Y-27846040D01*
X41566964Y-27795849D01*
X41566000Y-27791000D01*
X41566000Y-27116000D01*
X41566964Y-27111150D01*
X41572787Y-27060959D01*
X41580359Y-27043808D01*
X41585030Y-27020329D01*
X41601826Y-26995191D01*
X41610608Y-26975303D01*
X41624191Y-26961719D01*
X41639223Y-26939223D01*
X41661719Y-26924191D01*
X41675303Y-26910608D01*
X41695191Y-26901826D01*
X41720329Y-26885030D01*
X41743808Y-26880359D01*
X41760959Y-26872787D01*
X41811151Y-26866964D01*
X41816000Y-26866000D01*
X42766000Y-26866000D01*
X42770850Y-26866964D01*
G37*
G36*
X26144000Y-27800000D02*
G01*
X24244000Y-27800000D01*
X24244000Y-27000000D01*
X26144000Y-27000000D01*
X26144000Y-27800000D01*
G37*
G36*
X31061850Y-25959964D02*
G01*
X31112040Y-25965787D01*
X31129189Y-25973359D01*
X31152671Y-25978030D01*
X31177810Y-25994827D01*
X31197696Y-26003608D01*
X31211277Y-26017189D01*
X31233777Y-26032223D01*
X31248810Y-26054722D01*
X31262391Y-26068303D01*
X31271170Y-26088186D01*
X31287970Y-26113329D01*
X31292641Y-26136812D01*
X31300212Y-26153959D01*
X31306033Y-26204139D01*
X31307000Y-26209000D01*
X31307000Y-26909000D01*
X31306032Y-26913863D01*
X31300212Y-26964040D01*
X31292641Y-26981185D01*
X31287970Y-27004671D01*
X31271169Y-27029815D01*
X31262391Y-27049696D01*
X31248812Y-27063274D01*
X31233777Y-27085777D01*
X31211274Y-27100812D01*
X31197696Y-27114391D01*
X31177815Y-27123169D01*
X31152671Y-27139970D01*
X31129185Y-27144641D01*
X31112040Y-27152212D01*
X31061861Y-27158032D01*
X31057000Y-27159000D01*
X30157000Y-27159000D01*
X30152138Y-27158032D01*
X30101959Y-27152212D01*
X30084812Y-27144641D01*
X30061329Y-27139970D01*
X30036186Y-27123170D01*
X30016303Y-27114391D01*
X30002722Y-27100810D01*
X29980223Y-27085777D01*
X29965189Y-27063277D01*
X29951608Y-27049696D01*
X29942827Y-27029810D01*
X29926030Y-27004671D01*
X29921359Y-26981189D01*
X29913787Y-26964040D01*
X29907964Y-26913849D01*
X29907000Y-26909000D01*
X29907000Y-26209000D01*
X29907964Y-26204150D01*
X29913787Y-26153959D01*
X29921359Y-26136808D01*
X29926030Y-26113329D01*
X29942826Y-26088191D01*
X29951608Y-26068303D01*
X29965191Y-26054719D01*
X29980223Y-26032223D01*
X30002719Y-26017191D01*
X30016303Y-26003608D01*
X30036191Y-25994826D01*
X30061329Y-25978030D01*
X30084808Y-25973359D01*
X30101959Y-25965787D01*
X30152151Y-25959964D01*
X30157000Y-25959000D01*
X31057000Y-25959000D01*
X31061850Y-25959964D01*
G37*
G36*
X33220850Y-25959964D02*
G01*
X33271040Y-25965787D01*
X33288189Y-25973359D01*
X33311671Y-25978030D01*
X33336810Y-25994827D01*
X33356696Y-26003608D01*
X33370277Y-26017189D01*
X33392777Y-26032223D01*
X33407810Y-26054722D01*
X33421391Y-26068303D01*
X33430170Y-26088186D01*
X33446970Y-26113329D01*
X33451641Y-26136812D01*
X33459212Y-26153959D01*
X33465033Y-26204139D01*
X33466000Y-26209000D01*
X33466000Y-26909000D01*
X33465032Y-26913863D01*
X33459212Y-26964040D01*
X33451641Y-26981185D01*
X33446970Y-27004671D01*
X33430169Y-27029815D01*
X33421391Y-27049696D01*
X33407812Y-27063274D01*
X33392777Y-27085777D01*
X33370274Y-27100812D01*
X33356696Y-27114391D01*
X33336815Y-27123169D01*
X33311671Y-27139970D01*
X33288185Y-27144641D01*
X33271040Y-27152212D01*
X33220861Y-27158032D01*
X33216000Y-27159000D01*
X32316000Y-27159000D01*
X32311138Y-27158032D01*
X32260959Y-27152212D01*
X32243812Y-27144641D01*
X32220329Y-27139970D01*
X32195186Y-27123170D01*
X32175303Y-27114391D01*
X32161722Y-27100810D01*
X32139223Y-27085777D01*
X32124189Y-27063277D01*
X32110608Y-27049696D01*
X32101827Y-27029810D01*
X32085030Y-27004671D01*
X32080359Y-26981189D01*
X32072787Y-26964040D01*
X32066964Y-26913849D01*
X32066000Y-26909000D01*
X32066000Y-26209000D01*
X32066964Y-26204150D01*
X32072787Y-26153959D01*
X32080359Y-26136808D01*
X32085030Y-26113329D01*
X32101826Y-26088191D01*
X32110608Y-26068303D01*
X32124191Y-26054719D01*
X32139223Y-26032223D01*
X32161719Y-26017191D01*
X32175303Y-26003608D01*
X32195191Y-25994826D01*
X32220329Y-25978030D01*
X32243808Y-25973359D01*
X32260959Y-25965787D01*
X32311151Y-25959964D01*
X32316000Y-25959000D01*
X33216000Y-25959000D01*
X33220850Y-25959964D01*
G37*
G36*
X35506850Y-25959964D02*
G01*
X35557040Y-25965787D01*
X35574189Y-25973359D01*
X35597671Y-25978030D01*
X35622810Y-25994827D01*
X35642696Y-26003608D01*
X35656277Y-26017189D01*
X35678777Y-26032223D01*
X35693810Y-26054722D01*
X35707391Y-26068303D01*
X35716170Y-26088186D01*
X35732970Y-26113329D01*
X35737641Y-26136812D01*
X35745212Y-26153959D01*
X35751033Y-26204139D01*
X35752000Y-26209000D01*
X35752000Y-26909000D01*
X35751032Y-26913863D01*
X35745212Y-26964040D01*
X35737641Y-26981185D01*
X35732970Y-27004671D01*
X35716169Y-27029815D01*
X35707391Y-27049696D01*
X35693812Y-27063274D01*
X35678777Y-27085777D01*
X35656274Y-27100812D01*
X35642696Y-27114391D01*
X35622815Y-27123169D01*
X35597671Y-27139970D01*
X35574185Y-27144641D01*
X35557040Y-27152212D01*
X35506861Y-27158032D01*
X35502000Y-27159000D01*
X34602000Y-27159000D01*
X34597138Y-27158032D01*
X34546959Y-27152212D01*
X34529812Y-27144641D01*
X34506329Y-27139970D01*
X34481186Y-27123170D01*
X34461303Y-27114391D01*
X34447722Y-27100810D01*
X34425223Y-27085777D01*
X34410189Y-27063277D01*
X34396608Y-27049696D01*
X34387827Y-27029810D01*
X34371030Y-27004671D01*
X34366359Y-26981189D01*
X34358787Y-26964040D01*
X34352964Y-26913849D01*
X34352000Y-26909000D01*
X34352000Y-26209000D01*
X34352964Y-26204150D01*
X34358787Y-26153959D01*
X34366359Y-26136808D01*
X34371030Y-26113329D01*
X34387826Y-26088191D01*
X34396608Y-26068303D01*
X34410191Y-26054719D01*
X34425223Y-26032223D01*
X34447719Y-26017191D01*
X34461303Y-26003608D01*
X34481191Y-25994826D01*
X34506329Y-25978030D01*
X34529808Y-25973359D01*
X34546959Y-25965787D01*
X34597151Y-25959964D01*
X34602000Y-25959000D01*
X35502000Y-25959000D01*
X35506850Y-25959964D01*
G37*
G36*
X37792850Y-25959964D02*
G01*
X37843040Y-25965787D01*
X37860189Y-25973359D01*
X37883671Y-25978030D01*
X37908810Y-25994827D01*
X37928696Y-26003608D01*
X37942277Y-26017189D01*
X37964777Y-26032223D01*
X37979810Y-26054722D01*
X37993391Y-26068303D01*
X38002170Y-26088186D01*
X38018970Y-26113329D01*
X38023641Y-26136812D01*
X38031212Y-26153959D01*
X38037033Y-26204139D01*
X38038000Y-26209000D01*
X38038000Y-26909000D01*
X38037032Y-26913863D01*
X38031212Y-26964040D01*
X38023641Y-26981185D01*
X38018970Y-27004671D01*
X38002169Y-27029815D01*
X37993391Y-27049696D01*
X37979812Y-27063274D01*
X37964777Y-27085777D01*
X37942274Y-27100812D01*
X37928696Y-27114391D01*
X37908815Y-27123169D01*
X37883671Y-27139970D01*
X37860185Y-27144641D01*
X37843040Y-27152212D01*
X37792861Y-27158032D01*
X37788000Y-27159000D01*
X36888000Y-27159000D01*
X36883138Y-27158032D01*
X36832959Y-27152212D01*
X36815812Y-27144641D01*
X36792329Y-27139970D01*
X36767186Y-27123170D01*
X36747303Y-27114391D01*
X36733722Y-27100810D01*
X36711223Y-27085777D01*
X36696189Y-27063277D01*
X36682608Y-27049696D01*
X36673827Y-27029810D01*
X36657030Y-27004671D01*
X36652359Y-26981189D01*
X36644787Y-26964040D01*
X36638964Y-26913849D01*
X36638000Y-26909000D01*
X36638000Y-26209000D01*
X36638964Y-26204150D01*
X36644787Y-26153959D01*
X36652359Y-26136808D01*
X36657030Y-26113329D01*
X36673826Y-26088191D01*
X36682608Y-26068303D01*
X36696191Y-26054719D01*
X36711223Y-26032223D01*
X36733719Y-26017191D01*
X36747303Y-26003608D01*
X36767191Y-25994826D01*
X36792329Y-25978030D01*
X36815808Y-25973359D01*
X36832959Y-25965787D01*
X36883151Y-25959964D01*
X36888000Y-25959000D01*
X37788000Y-25959000D01*
X37792850Y-25959964D01*
G37*
G36*
X40078850Y-25959964D02*
G01*
X40129040Y-25965787D01*
X40146189Y-25973359D01*
X40169671Y-25978030D01*
X40194810Y-25994827D01*
X40214696Y-26003608D01*
X40228277Y-26017189D01*
X40250777Y-26032223D01*
X40265810Y-26054722D01*
X40279391Y-26068303D01*
X40288170Y-26088186D01*
X40304970Y-26113329D01*
X40309641Y-26136812D01*
X40317212Y-26153959D01*
X40323033Y-26204139D01*
X40324000Y-26209000D01*
X40324000Y-26909000D01*
X40323032Y-26913863D01*
X40317212Y-26964040D01*
X40309641Y-26981185D01*
X40304970Y-27004671D01*
X40288169Y-27029815D01*
X40279391Y-27049696D01*
X40265812Y-27063274D01*
X40250777Y-27085777D01*
X40228274Y-27100812D01*
X40214696Y-27114391D01*
X40194815Y-27123169D01*
X40169671Y-27139970D01*
X40146185Y-27144641D01*
X40129040Y-27152212D01*
X40078861Y-27158032D01*
X40074000Y-27159000D01*
X39174000Y-27159000D01*
X39169138Y-27158032D01*
X39118959Y-27152212D01*
X39101812Y-27144641D01*
X39078329Y-27139970D01*
X39053186Y-27123170D01*
X39033303Y-27114391D01*
X39019722Y-27100810D01*
X38997223Y-27085777D01*
X38982189Y-27063277D01*
X38968608Y-27049696D01*
X38959827Y-27029810D01*
X38943030Y-27004671D01*
X38938359Y-26981189D01*
X38930787Y-26964040D01*
X38924964Y-26913849D01*
X38924000Y-26909000D01*
X38924000Y-26209000D01*
X38924964Y-26204150D01*
X38930787Y-26153959D01*
X38938359Y-26136808D01*
X38943030Y-26113329D01*
X38959826Y-26088191D01*
X38968608Y-26068303D01*
X38982191Y-26054719D01*
X38997223Y-26032223D01*
X39019719Y-26017191D01*
X39033303Y-26003608D01*
X39053191Y-25994826D01*
X39078329Y-25978030D01*
X39101808Y-25973359D01*
X39118959Y-25965787D01*
X39169151Y-25959964D01*
X39174000Y-25959000D01*
X40074000Y-25959000D01*
X40078850Y-25959964D01*
G37*
G36*
X29144000Y-26850000D02*
G01*
X27244000Y-26850000D01*
X27244000Y-26050000D01*
X29144000Y-26050000D01*
X29144000Y-26850000D01*
G37*
G36*
X42770850Y-24791964D02*
G01*
X42821040Y-24797787D01*
X42838189Y-24805359D01*
X42861671Y-24810030D01*
X42886810Y-24826827D01*
X42906696Y-24835608D01*
X42920277Y-24849189D01*
X42942777Y-24864223D01*
X42957810Y-24886722D01*
X42971391Y-24900303D01*
X42980170Y-24920186D01*
X42996970Y-24945329D01*
X43001641Y-24968812D01*
X43009212Y-24985959D01*
X43015033Y-25036139D01*
X43016000Y-25041000D01*
X43016000Y-25716000D01*
X43015032Y-25720863D01*
X43009212Y-25771040D01*
X43001641Y-25788185D01*
X42996970Y-25811671D01*
X42980169Y-25836815D01*
X42971391Y-25856696D01*
X42957812Y-25870274D01*
X42942777Y-25892777D01*
X42920274Y-25907812D01*
X42906696Y-25921391D01*
X42886815Y-25930169D01*
X42861671Y-25946970D01*
X42838185Y-25951641D01*
X42821040Y-25959212D01*
X42770861Y-25965032D01*
X42766000Y-25966000D01*
X41816000Y-25966000D01*
X41811138Y-25965032D01*
X41760959Y-25959212D01*
X41743812Y-25951641D01*
X41720329Y-25946970D01*
X41695186Y-25930170D01*
X41675303Y-25921391D01*
X41661722Y-25907810D01*
X41639223Y-25892777D01*
X41624189Y-25870277D01*
X41610608Y-25856696D01*
X41601827Y-25836810D01*
X41585030Y-25811671D01*
X41580359Y-25788189D01*
X41572787Y-25771040D01*
X41566964Y-25720849D01*
X41566000Y-25716000D01*
X41566000Y-25041000D01*
X41566964Y-25036150D01*
X41572787Y-24985959D01*
X41580359Y-24968808D01*
X41585030Y-24945329D01*
X41601826Y-24920191D01*
X41610608Y-24900303D01*
X41624191Y-24886719D01*
X41639223Y-24864223D01*
X41661719Y-24849191D01*
X41675303Y-24835608D01*
X41695191Y-24826826D01*
X41720329Y-24810030D01*
X41743808Y-24805359D01*
X41760959Y-24797787D01*
X41811151Y-24791964D01*
X41816000Y-24791000D01*
X42766000Y-24791000D01*
X42770850Y-24791964D01*
G37*
G36*
X14550000Y-24550000D02*
G01*
X13750000Y-24550000D01*
X13750000Y-22650000D01*
X14550000Y-22650000D01*
X14550000Y-24550000D01*
G37*
G36*
X16450000Y-24550000D02*
G01*
X15650000Y-24550000D01*
X15650000Y-22650000D01*
X16450000Y-22650000D01*
X16450000Y-24550000D01*
G37*
G36*
X29120000Y-23750000D02*
G01*
X27220000Y-23750000D01*
X27220000Y-22950000D01*
X29120000Y-22950000D01*
X29120000Y-23750000D01*
G37*
G36*
X20147113Y-21504930D02*
G01*
X20194076Y-21504930D01*
X20234622Y-21513548D01*
X20275526Y-21517577D01*
X20326916Y-21533166D01*
X20378115Y-21544049D01*
X20410879Y-21558636D01*
X20444304Y-21568776D01*
X20497420Y-21597166D01*
X20550000Y-21620577D01*
X20574445Y-21638337D01*
X20599849Y-21651916D01*
X20651669Y-21694444D01*
X20702218Y-21731170D01*
X20718631Y-21749398D01*
X20736190Y-21763809D01*
X20783379Y-21821308D01*
X20828115Y-21870993D01*
X20837512Y-21887269D01*
X20848083Y-21900150D01*
X20887183Y-21973302D01*
X20922191Y-22033937D01*
X20926218Y-22046331D01*
X20931223Y-22055695D01*
X20958821Y-22146672D01*
X20980333Y-22212879D01*
X20981090Y-22220082D01*
X20982422Y-22224473D01*
X20995377Y-22356021D01*
X21000000Y-22400000D01*
X20995377Y-22443982D01*
X20982422Y-22575526D01*
X20981090Y-22579916D01*
X20980333Y-22587121D01*
X20958816Y-22653341D01*
X20931223Y-22744304D01*
X20926219Y-22753665D01*
X20922191Y-22766063D01*
X20887176Y-22826709D01*
X20848083Y-22899849D01*
X20837514Y-22912726D01*
X20828115Y-22929007D01*
X20783369Y-22978701D01*
X20736190Y-23036190D01*
X20718634Y-23050597D01*
X20702218Y-23068830D01*
X20651659Y-23105563D01*
X20599849Y-23148083D01*
X20574450Y-23161658D01*
X20550000Y-23179423D01*
X20497408Y-23202838D01*
X20444304Y-23231223D01*
X20410886Y-23241360D01*
X20378115Y-23255951D01*
X20326905Y-23266836D01*
X20275526Y-23282422D01*
X20234631Y-23286449D01*
X20194076Y-23295070D01*
X20147103Y-23295070D01*
X20100000Y-23299709D01*
X20052897Y-23295070D01*
X20005924Y-23295070D01*
X19965368Y-23286449D01*
X19924473Y-23282422D01*
X19873091Y-23266835D01*
X19821885Y-23255951D01*
X19789115Y-23241361D01*
X19755695Y-23231223D01*
X19702585Y-23202835D01*
X19650000Y-23179423D01*
X19625552Y-23161660D01*
X19600150Y-23148083D01*
X19548332Y-23105556D01*
X19497782Y-23068830D01*
X19481368Y-23050600D01*
X19463809Y-23036190D01*
X19416618Y-22978688D01*
X19371885Y-22929007D01*
X19362487Y-22912730D01*
X19351916Y-22899849D01*
X19312810Y-22826686D01*
X19277809Y-22766063D01*
X19273782Y-22753670D01*
X19268776Y-22744304D01*
X19241168Y-22653294D01*
X19219667Y-22587121D01*
X19218910Y-22579921D01*
X19217577Y-22575526D01*
X19204606Y-22443831D01*
X19200000Y-22400000D01*
X19204606Y-22356172D01*
X19217577Y-22224473D01*
X19218910Y-22220077D01*
X19219667Y-22212879D01*
X19241163Y-22146719D01*
X19268776Y-22055695D01*
X19273783Y-22046327D01*
X19277809Y-22033937D01*
X19312802Y-21973326D01*
X19351916Y-21900150D01*
X19362489Y-21887265D01*
X19371885Y-21870993D01*
X19416609Y-21821321D01*
X19463809Y-21763809D01*
X19481371Y-21749395D01*
X19497782Y-21731170D01*
X19548321Y-21694450D01*
X19600150Y-21651916D01*
X19625557Y-21638335D01*
X19650000Y-21620577D01*
X19702573Y-21597169D01*
X19755695Y-21568776D01*
X19789122Y-21558635D01*
X19821885Y-21544049D01*
X19873080Y-21533166D01*
X19924473Y-21517577D01*
X19965377Y-21513548D01*
X20005924Y-21504930D01*
X20052887Y-21504930D01*
X20100000Y-21500290D01*
X20147113Y-21504930D01*
G37*
G36*
X67647113Y-21504930D02*
G01*
X67694076Y-21504930D01*
X67734622Y-21513548D01*
X67775526Y-21517577D01*
X67826916Y-21533166D01*
X67878115Y-21544049D01*
X67910879Y-21558636D01*
X67944304Y-21568776D01*
X67997420Y-21597166D01*
X68050000Y-21620577D01*
X68074445Y-21638337D01*
X68099849Y-21651916D01*
X68151669Y-21694444D01*
X68202218Y-21731170D01*
X68218631Y-21749398D01*
X68236190Y-21763809D01*
X68283379Y-21821308D01*
X68328115Y-21870993D01*
X68337512Y-21887269D01*
X68348083Y-21900150D01*
X68387183Y-21973302D01*
X68422191Y-22033937D01*
X68426218Y-22046331D01*
X68431223Y-22055695D01*
X68458821Y-22146672D01*
X68480333Y-22212879D01*
X68481090Y-22220082D01*
X68482422Y-22224473D01*
X68495377Y-22356021D01*
X68500000Y-22400000D01*
X68495377Y-22443982D01*
X68482422Y-22575526D01*
X68481090Y-22579916D01*
X68480333Y-22587121D01*
X68458816Y-22653341D01*
X68431223Y-22744304D01*
X68426219Y-22753665D01*
X68422191Y-22766063D01*
X68387176Y-22826709D01*
X68348083Y-22899849D01*
X68337514Y-22912726D01*
X68328115Y-22929007D01*
X68283369Y-22978701D01*
X68236190Y-23036190D01*
X68218634Y-23050597D01*
X68202218Y-23068830D01*
X68151659Y-23105563D01*
X68099849Y-23148083D01*
X68074450Y-23161658D01*
X68050000Y-23179423D01*
X67997408Y-23202838D01*
X67944304Y-23231223D01*
X67910886Y-23241360D01*
X67878115Y-23255951D01*
X67826905Y-23266836D01*
X67775526Y-23282422D01*
X67734631Y-23286449D01*
X67694076Y-23295070D01*
X67647103Y-23295070D01*
X67600000Y-23299709D01*
X67552897Y-23295070D01*
X67505924Y-23295070D01*
X67465368Y-23286449D01*
X67424473Y-23282422D01*
X67373091Y-23266835D01*
X67321885Y-23255951D01*
X67289115Y-23241361D01*
X67255695Y-23231223D01*
X67202585Y-23202835D01*
X67150000Y-23179423D01*
X67125552Y-23161660D01*
X67100150Y-23148083D01*
X67048332Y-23105556D01*
X66997782Y-23068830D01*
X66981368Y-23050600D01*
X66963809Y-23036190D01*
X66916618Y-22978688D01*
X66871885Y-22929007D01*
X66862487Y-22912730D01*
X66851916Y-22899849D01*
X66812810Y-22826686D01*
X66777809Y-22766063D01*
X66773782Y-22753670D01*
X66768776Y-22744304D01*
X66741168Y-22653294D01*
X66719667Y-22587121D01*
X66718910Y-22579921D01*
X66717577Y-22575526D01*
X66704607Y-22443842D01*
X66700000Y-22400000D01*
X66704605Y-22356183D01*
X66717577Y-22224473D01*
X66718910Y-22220077D01*
X66719667Y-22212879D01*
X66741163Y-22146719D01*
X66768776Y-22055695D01*
X66773783Y-22046327D01*
X66777809Y-22033937D01*
X66812802Y-21973326D01*
X66851916Y-21900150D01*
X66862489Y-21887265D01*
X66871885Y-21870993D01*
X66916609Y-21821321D01*
X66963809Y-21763809D01*
X66981371Y-21749395D01*
X66997782Y-21731170D01*
X67048321Y-21694450D01*
X67100150Y-21651916D01*
X67125557Y-21638335D01*
X67150000Y-21620577D01*
X67202573Y-21597169D01*
X67255695Y-21568776D01*
X67289122Y-21558635D01*
X67321885Y-21544049D01*
X67373080Y-21533166D01*
X67424473Y-21517577D01*
X67465377Y-21513548D01*
X67505924Y-21504930D01*
X67552887Y-21504930D01*
X67600000Y-21500290D01*
X67647113Y-21504930D01*
G37*
G36*
X26120000Y-22800000D02*
G01*
X24220000Y-22800000D01*
X24220000Y-22000000D01*
X26120000Y-22000000D01*
X26120000Y-22800000D01*
G37*
G36*
X71683191Y-21109711D02*
G01*
X71724968Y-21109711D01*
X71772098Y-21119728D01*
X71819397Y-21125058D01*
X71853788Y-21137092D01*
X71888490Y-21144468D01*
X71938497Y-21166733D01*
X71988487Y-21184225D01*
X72014508Y-21200575D01*
X72041215Y-21212466D01*
X72091013Y-21248646D01*
X72140172Y-21279535D01*
X72157824Y-21297187D01*
X72176464Y-21310730D01*
X72222545Y-21361908D01*
X72266845Y-21406208D01*
X72277034Y-21422424D01*
X72288326Y-21434965D01*
X72326953Y-21501870D01*
X72362155Y-21557893D01*
X72366550Y-21570453D01*
X72371915Y-21579746D01*
X72399390Y-21664305D01*
X72421322Y-21726983D01*
X72422153Y-21734363D01*
X72423575Y-21738738D01*
X72436456Y-21861306D01*
X72441380Y-21905000D01*
X72436456Y-21948697D01*
X72423575Y-22071261D01*
X72422153Y-22075635D01*
X72421322Y-22083017D01*
X72399385Y-22145707D01*
X72371915Y-22230253D01*
X72366551Y-22239543D01*
X72362155Y-22252107D01*
X72326946Y-22308140D01*
X72288326Y-22375034D01*
X72277036Y-22387572D01*
X72266845Y-22403792D01*
X72222535Y-22448101D01*
X72176464Y-22499269D01*
X72157828Y-22512808D01*
X72140172Y-22530465D01*
X72091003Y-22561359D01*
X72041215Y-22597533D01*
X72014514Y-22609421D01*
X71988487Y-22625775D01*
X71938487Y-22643270D01*
X71888490Y-22665531D01*
X71853794Y-22672905D01*
X71819397Y-22684942D01*
X71772095Y-22690271D01*
X71724968Y-22700289D01*
X71683191Y-22700289D01*
X71641380Y-22705000D01*
X71599569Y-22700289D01*
X71557792Y-22700289D01*
X71510664Y-22690271D01*
X71463363Y-22684942D01*
X71428966Y-22672906D01*
X71394269Y-22665531D01*
X71344267Y-22643268D01*
X71294273Y-22625775D01*
X71268248Y-22609422D01*
X71241544Y-22597533D01*
X71191749Y-22561355D01*
X71142588Y-22530465D01*
X71124934Y-22512811D01*
X71106295Y-22499269D01*
X71060213Y-22448090D01*
X71015915Y-22403792D01*
X71005725Y-22387575D01*
X70994433Y-22375034D01*
X70955800Y-22308120D01*
X70920605Y-22252107D01*
X70916210Y-22239547D01*
X70910844Y-22230253D01*
X70883360Y-22145667D01*
X70861438Y-22083017D01*
X70860606Y-22075639D01*
X70859184Y-22071261D01*
X70846288Y-21948565D01*
X70841380Y-21905000D01*
X70846288Y-21861438D01*
X70859184Y-21738738D01*
X70860606Y-21734358D01*
X70861438Y-21726983D01*
X70883355Y-21664345D01*
X70910844Y-21579746D01*
X70916211Y-21570449D01*
X70920605Y-21557893D01*
X70955793Y-21501890D01*
X70994433Y-21434965D01*
X71005727Y-21422421D01*
X71015915Y-21406208D01*
X71060206Y-21361916D01*
X71106297Y-21310728D01*
X71124939Y-21297183D01*
X71142588Y-21279535D01*
X71191734Y-21248654D01*
X71241542Y-21212467D01*
X71268253Y-21200574D01*
X71294273Y-21184225D01*
X71344257Y-21166734D01*
X71394269Y-21144468D01*
X71428972Y-21137091D01*
X71463363Y-21125058D01*
X71510661Y-21119728D01*
X71557792Y-21109711D01*
X71599569Y-21109711D01*
X71641380Y-21105000D01*
X71683191Y-21109711D01*
G37*
G36*
X74941380Y-22705000D02*
G01*
X73341380Y-22705000D01*
X73341380Y-21105000D01*
X74941380Y-21105000D01*
X74941380Y-22705000D01*
G37*
G36*
X29120000Y-21850000D02*
G01*
X27220000Y-21850000D01*
X27220000Y-21050000D01*
X29120000Y-21050000D01*
X29120000Y-21850000D01*
G37*
G36*
X15500000Y-21550000D02*
G01*
X14700000Y-21550000D01*
X14700000Y-19650000D01*
X15500000Y-19650000D01*
X15500000Y-21550000D01*
G37*
G36*
X54017621Y-20400000D02*
G01*
X52417621Y-20400000D01*
X52417621Y-18800000D01*
X54017621Y-18800000D01*
X54017621Y-20400000D01*
G37*
G36*
X55759432Y-18804711D02*
G01*
X55801209Y-18804711D01*
X55848339Y-18814728D01*
X55895638Y-18820058D01*
X55930029Y-18832092D01*
X55964731Y-18839468D01*
X56014738Y-18861733D01*
X56064728Y-18879225D01*
X56090749Y-18895575D01*
X56117456Y-18907466D01*
X56167254Y-18943646D01*
X56216413Y-18974535D01*
X56234065Y-18992187D01*
X56252705Y-19005730D01*
X56298786Y-19056908D01*
X56343086Y-19101208D01*
X56353275Y-19117424D01*
X56364567Y-19129965D01*
X56403194Y-19196870D01*
X56438396Y-19252893D01*
X56442791Y-19265453D01*
X56448156Y-19274746D01*
X56475631Y-19359305D01*
X56497563Y-19421983D01*
X56498394Y-19429363D01*
X56499816Y-19433738D01*
X56512697Y-19556306D01*
X56517621Y-19600000D01*
X56512697Y-19643697D01*
X56499816Y-19766261D01*
X56498394Y-19770635D01*
X56497563Y-19778017D01*
X56475626Y-19840707D01*
X56448156Y-19925253D01*
X56442792Y-19934543D01*
X56438396Y-19947107D01*
X56403187Y-20003140D01*
X56364567Y-20070034D01*
X56353277Y-20082572D01*
X56343086Y-20098792D01*
X56298776Y-20143101D01*
X56252705Y-20194269D01*
X56234069Y-20207808D01*
X56216413Y-20225465D01*
X56167244Y-20256359D01*
X56117456Y-20292533D01*
X56090755Y-20304421D01*
X56064728Y-20320775D01*
X56014728Y-20338270D01*
X55964731Y-20360531D01*
X55930035Y-20367905D01*
X55895638Y-20379942D01*
X55848336Y-20385271D01*
X55801209Y-20395289D01*
X55759432Y-20395289D01*
X55717621Y-20400000D01*
X55675810Y-20395289D01*
X55634033Y-20395289D01*
X55586905Y-20385271D01*
X55539604Y-20379942D01*
X55505207Y-20367906D01*
X55470510Y-20360531D01*
X55420508Y-20338268D01*
X55370514Y-20320775D01*
X55344489Y-20304422D01*
X55317785Y-20292533D01*
X55267990Y-20256355D01*
X55218829Y-20225465D01*
X55201175Y-20207811D01*
X55182536Y-20194269D01*
X55136454Y-20143090D01*
X55092156Y-20098792D01*
X55081966Y-20082575D01*
X55070674Y-20070034D01*
X55032041Y-20003120D01*
X54996846Y-19947107D01*
X54992451Y-19934547D01*
X54987085Y-19925253D01*
X54959601Y-19840667D01*
X54937679Y-19778017D01*
X54936847Y-19770639D01*
X54935425Y-19766261D01*
X54922529Y-19643565D01*
X54917621Y-19600000D01*
X54922529Y-19556438D01*
X54935425Y-19433738D01*
X54936847Y-19429358D01*
X54937679Y-19421983D01*
X54959596Y-19359345D01*
X54987085Y-19274746D01*
X54992452Y-19265449D01*
X54996846Y-19252893D01*
X55032034Y-19196890D01*
X55070674Y-19129965D01*
X55081968Y-19117421D01*
X55092156Y-19101208D01*
X55136447Y-19056916D01*
X55182538Y-19005728D01*
X55201180Y-18992183D01*
X55218829Y-18974535D01*
X55267975Y-18943654D01*
X55317783Y-18907467D01*
X55344494Y-18895574D01*
X55370514Y-18879225D01*
X55420498Y-18861734D01*
X55470510Y-18839468D01*
X55505213Y-18832091D01*
X55539604Y-18820058D01*
X55586902Y-18814728D01*
X55634033Y-18804711D01*
X55675810Y-18804711D01*
X55717621Y-18800000D01*
X55759432Y-18804711D01*
G37*
G36*
X29120000Y-18749000D02*
G01*
X27220000Y-18749000D01*
X27220000Y-17949000D01*
X29120000Y-17949000D01*
X29120000Y-18749000D01*
G37*
G36*
X15147113Y-16504930D02*
G01*
X15194076Y-16504930D01*
X15234622Y-16513548D01*
X15275526Y-16517577D01*
X15326916Y-16533166D01*
X15378115Y-16544049D01*
X15410879Y-16558636D01*
X15444304Y-16568776D01*
X15497420Y-16597166D01*
X15550000Y-16620577D01*
X15574445Y-16638337D01*
X15599849Y-16651916D01*
X15651669Y-16694444D01*
X15702218Y-16731170D01*
X15718631Y-16749398D01*
X15736190Y-16763809D01*
X15783379Y-16821308D01*
X15828115Y-16870993D01*
X15837512Y-16887269D01*
X15848083Y-16900150D01*
X15887183Y-16973302D01*
X15922191Y-17033937D01*
X15926218Y-17046331D01*
X15931223Y-17055695D01*
X15958821Y-17146672D01*
X15980333Y-17212879D01*
X15981090Y-17220082D01*
X15982422Y-17224473D01*
X15995377Y-17356021D01*
X16000000Y-17400000D01*
X15995377Y-17443982D01*
X15982422Y-17575526D01*
X15981090Y-17579916D01*
X15980333Y-17587121D01*
X15958816Y-17653341D01*
X15931223Y-17744304D01*
X15926219Y-17753665D01*
X15922191Y-17766063D01*
X15887176Y-17826709D01*
X15848083Y-17899849D01*
X15837514Y-17912726D01*
X15828115Y-17929007D01*
X15783369Y-17978701D01*
X15736190Y-18036190D01*
X15718634Y-18050597D01*
X15702218Y-18068830D01*
X15651659Y-18105563D01*
X15599849Y-18148083D01*
X15574450Y-18161658D01*
X15550000Y-18179423D01*
X15497408Y-18202838D01*
X15444304Y-18231223D01*
X15410886Y-18241360D01*
X15378115Y-18255951D01*
X15326905Y-18266836D01*
X15275526Y-18282422D01*
X15234631Y-18286449D01*
X15194076Y-18295070D01*
X15147103Y-18295070D01*
X15100000Y-18299709D01*
X15052897Y-18295070D01*
X15005924Y-18295070D01*
X14965368Y-18286449D01*
X14924473Y-18282422D01*
X14873091Y-18266835D01*
X14821885Y-18255951D01*
X14789115Y-18241361D01*
X14755695Y-18231223D01*
X14702585Y-18202835D01*
X14650000Y-18179423D01*
X14625552Y-18161660D01*
X14600150Y-18148083D01*
X14548332Y-18105556D01*
X14497782Y-18068830D01*
X14481368Y-18050600D01*
X14463809Y-18036190D01*
X14416618Y-17978688D01*
X14371885Y-17929007D01*
X14362487Y-17912730D01*
X14351916Y-17899849D01*
X14312810Y-17826686D01*
X14277809Y-17766063D01*
X14273782Y-17753670D01*
X14268776Y-17744304D01*
X14241168Y-17653294D01*
X14219667Y-17587121D01*
X14218910Y-17579921D01*
X14217577Y-17575526D01*
X14204606Y-17443831D01*
X14200000Y-17400000D01*
X14204606Y-17356172D01*
X14217577Y-17224473D01*
X14218910Y-17220077D01*
X14219667Y-17212879D01*
X14241163Y-17146719D01*
X14268776Y-17055695D01*
X14273783Y-17046327D01*
X14277809Y-17033937D01*
X14312802Y-16973326D01*
X14351916Y-16900150D01*
X14362489Y-16887265D01*
X14371885Y-16870993D01*
X14416609Y-16821321D01*
X14463809Y-16763809D01*
X14481371Y-16749395D01*
X14497782Y-16731170D01*
X14548321Y-16694450D01*
X14600150Y-16651916D01*
X14625557Y-16638335D01*
X14650000Y-16620577D01*
X14702573Y-16597169D01*
X14755695Y-16568776D01*
X14789122Y-16558635D01*
X14821885Y-16544049D01*
X14873080Y-16533166D01*
X14924473Y-16517577D01*
X14965377Y-16513548D01*
X15005924Y-16504930D01*
X15052887Y-16504930D01*
X15100000Y-16500290D01*
X15147113Y-16504930D01*
G37*
G36*
X20147113Y-16504930D02*
G01*
X20194076Y-16504930D01*
X20234622Y-16513548D01*
X20275526Y-16517577D01*
X20326916Y-16533166D01*
X20378115Y-16544049D01*
X20410879Y-16558636D01*
X20444304Y-16568776D01*
X20497420Y-16597166D01*
X20550000Y-16620577D01*
X20574445Y-16638337D01*
X20599849Y-16651916D01*
X20651669Y-16694444D01*
X20702218Y-16731170D01*
X20718631Y-16749398D01*
X20736190Y-16763809D01*
X20783379Y-16821308D01*
X20828115Y-16870993D01*
X20837512Y-16887269D01*
X20848083Y-16900150D01*
X20887183Y-16973302D01*
X20922191Y-17033937D01*
X20926218Y-17046331D01*
X20931223Y-17055695D01*
X20958821Y-17146672D01*
X20980333Y-17212879D01*
X20981090Y-17220082D01*
X20982422Y-17224473D01*
X20995377Y-17356021D01*
X21000000Y-17400000D01*
X20995377Y-17443982D01*
X20982422Y-17575526D01*
X20981090Y-17579916D01*
X20980333Y-17587121D01*
X20958816Y-17653341D01*
X20931223Y-17744304D01*
X20926219Y-17753665D01*
X20922191Y-17766063D01*
X20887176Y-17826709D01*
X20848083Y-17899849D01*
X20837514Y-17912726D01*
X20828115Y-17929007D01*
X20783369Y-17978701D01*
X20736190Y-18036190D01*
X20718634Y-18050597D01*
X20702218Y-18068830D01*
X20651659Y-18105563D01*
X20599849Y-18148083D01*
X20574450Y-18161658D01*
X20550000Y-18179423D01*
X20497408Y-18202838D01*
X20444304Y-18231223D01*
X20410886Y-18241360D01*
X20378115Y-18255951D01*
X20326905Y-18266836D01*
X20275526Y-18282422D01*
X20234631Y-18286449D01*
X20194076Y-18295070D01*
X20147103Y-18295070D01*
X20100000Y-18299709D01*
X20052897Y-18295070D01*
X20005924Y-18295070D01*
X19965368Y-18286449D01*
X19924473Y-18282422D01*
X19873091Y-18266835D01*
X19821885Y-18255951D01*
X19789115Y-18241361D01*
X19755695Y-18231223D01*
X19702585Y-18202835D01*
X19650000Y-18179423D01*
X19625552Y-18161660D01*
X19600150Y-18148083D01*
X19548332Y-18105556D01*
X19497782Y-18068830D01*
X19481368Y-18050600D01*
X19463809Y-18036190D01*
X19416618Y-17978688D01*
X19371885Y-17929007D01*
X19362487Y-17912730D01*
X19351916Y-17899849D01*
X19312810Y-17826686D01*
X19277809Y-17766063D01*
X19273782Y-17753670D01*
X19268776Y-17744304D01*
X19241168Y-17653294D01*
X19219667Y-17587121D01*
X19218910Y-17579921D01*
X19217577Y-17575526D01*
X19204606Y-17443831D01*
X19200000Y-17400000D01*
X19204606Y-17356172D01*
X19217577Y-17224473D01*
X19218910Y-17220077D01*
X19219667Y-17212879D01*
X19241163Y-17146719D01*
X19268776Y-17055695D01*
X19273783Y-17046327D01*
X19277809Y-17033937D01*
X19312802Y-16973326D01*
X19351916Y-16900150D01*
X19362489Y-16887265D01*
X19371885Y-16870993D01*
X19416609Y-16821321D01*
X19463809Y-16763809D01*
X19481371Y-16749395D01*
X19497782Y-16731170D01*
X19548321Y-16694450D01*
X19600150Y-16651916D01*
X19625557Y-16638335D01*
X19650000Y-16620577D01*
X19702573Y-16597169D01*
X19755695Y-16568776D01*
X19789122Y-16558635D01*
X19821885Y-16544049D01*
X19873080Y-16533166D01*
X19924473Y-16517577D01*
X19965377Y-16513548D01*
X20005924Y-16504930D01*
X20052887Y-16504930D01*
X20100000Y-16500290D01*
X20147113Y-16504930D01*
G37*
G36*
X67647112Y-16504930D02*
G01*
X67694076Y-16504930D01*
X67734623Y-16513548D01*
X67775526Y-16517577D01*
X67826916Y-16533166D01*
X67878115Y-16544049D01*
X67910879Y-16558636D01*
X67944304Y-16568776D01*
X67997420Y-16597166D01*
X68050000Y-16620577D01*
X68074445Y-16638337D01*
X68099849Y-16651916D01*
X68151669Y-16694444D01*
X68202218Y-16731170D01*
X68218631Y-16749398D01*
X68236190Y-16763809D01*
X68283379Y-16821308D01*
X68328115Y-16870993D01*
X68337512Y-16887269D01*
X68348083Y-16900150D01*
X68387183Y-16973302D01*
X68422191Y-17033937D01*
X68426218Y-17046331D01*
X68431223Y-17055695D01*
X68458821Y-17146672D01*
X68480333Y-17212879D01*
X68481090Y-17220082D01*
X68482422Y-17224473D01*
X68495377Y-17356021D01*
X68500000Y-17400000D01*
X68495377Y-17443982D01*
X68482422Y-17575526D01*
X68481090Y-17579916D01*
X68480333Y-17587121D01*
X68458816Y-17653341D01*
X68431223Y-17744304D01*
X68426219Y-17753665D01*
X68422191Y-17766063D01*
X68387176Y-17826709D01*
X68348083Y-17899849D01*
X68337514Y-17912726D01*
X68328115Y-17929007D01*
X68283369Y-17978701D01*
X68236190Y-18036190D01*
X68218634Y-18050597D01*
X68202218Y-18068830D01*
X68151659Y-18105563D01*
X68099849Y-18148083D01*
X68074450Y-18161658D01*
X68050000Y-18179423D01*
X67997408Y-18202838D01*
X67944304Y-18231223D01*
X67910886Y-18241360D01*
X67878115Y-18255951D01*
X67826905Y-18266836D01*
X67775526Y-18282422D01*
X67734631Y-18286449D01*
X67694076Y-18295070D01*
X67647103Y-18295070D01*
X67600000Y-18299709D01*
X67552897Y-18295070D01*
X67505924Y-18295070D01*
X67465368Y-18286449D01*
X67424473Y-18282422D01*
X67373091Y-18266835D01*
X67321885Y-18255951D01*
X67289115Y-18241361D01*
X67255695Y-18231223D01*
X67202585Y-18202835D01*
X67150000Y-18179423D01*
X67125552Y-18161660D01*
X67100150Y-18148083D01*
X67048332Y-18105556D01*
X66997782Y-18068830D01*
X66981368Y-18050600D01*
X66963809Y-18036190D01*
X66916618Y-17978688D01*
X66871885Y-17929007D01*
X66862487Y-17912730D01*
X66851916Y-17899849D01*
X66812810Y-17826686D01*
X66777809Y-17766063D01*
X66773782Y-17753670D01*
X66768776Y-17744304D01*
X66741168Y-17653294D01*
X66719667Y-17587121D01*
X66718910Y-17579921D01*
X66717577Y-17575526D01*
X66704606Y-17443831D01*
X66700000Y-17400000D01*
X66704606Y-17356172D01*
X66717577Y-17224473D01*
X66718910Y-17220077D01*
X66719667Y-17212879D01*
X66741163Y-17146719D01*
X66768776Y-17055695D01*
X66773783Y-17046327D01*
X66777809Y-17033937D01*
X66812802Y-16973326D01*
X66851916Y-16900150D01*
X66862489Y-16887265D01*
X66871885Y-16870993D01*
X66916609Y-16821321D01*
X66963809Y-16763809D01*
X66981371Y-16749395D01*
X66997782Y-16731170D01*
X67048321Y-16694450D01*
X67100150Y-16651916D01*
X67125557Y-16638335D01*
X67150000Y-16620577D01*
X67202573Y-16597169D01*
X67255695Y-16568776D01*
X67289122Y-16558635D01*
X67321885Y-16544049D01*
X67373080Y-16533166D01*
X67424473Y-16517577D01*
X67465377Y-16513548D01*
X67505924Y-16504930D01*
X67552886Y-16504930D01*
X67599999Y-16500290D01*
X67647112Y-16504930D01*
G37*
G36*
X72647112Y-16504930D02*
G01*
X72694076Y-16504930D01*
X72734623Y-16513548D01*
X72775526Y-16517577D01*
X72826916Y-16533166D01*
X72878115Y-16544049D01*
X72910879Y-16558636D01*
X72944304Y-16568776D01*
X72997420Y-16597166D01*
X73050000Y-16620577D01*
X73074445Y-16638337D01*
X73099849Y-16651916D01*
X73151669Y-16694444D01*
X73202218Y-16731170D01*
X73218631Y-16749398D01*
X73236190Y-16763809D01*
X73283379Y-16821308D01*
X73328115Y-16870993D01*
X73337512Y-16887269D01*
X73348083Y-16900150D01*
X73387183Y-16973302D01*
X73422191Y-17033937D01*
X73426218Y-17046331D01*
X73431223Y-17055695D01*
X73458821Y-17146672D01*
X73480333Y-17212879D01*
X73481090Y-17220082D01*
X73482422Y-17224473D01*
X73495378Y-17356032D01*
X73500000Y-17400000D01*
X73495376Y-17443993D01*
X73482422Y-17575526D01*
X73481090Y-17579916D01*
X73480333Y-17587121D01*
X73458816Y-17653341D01*
X73431223Y-17744304D01*
X73426219Y-17753665D01*
X73422191Y-17766063D01*
X73387176Y-17826709D01*
X73348083Y-17899849D01*
X73337514Y-17912726D01*
X73328115Y-17929007D01*
X73283369Y-17978701D01*
X73236190Y-18036190D01*
X73218634Y-18050597D01*
X73202218Y-18068830D01*
X73151659Y-18105563D01*
X73099849Y-18148083D01*
X73074450Y-18161658D01*
X73050000Y-18179423D01*
X72997408Y-18202838D01*
X72944304Y-18231223D01*
X72910886Y-18241360D01*
X72878115Y-18255951D01*
X72826905Y-18266836D01*
X72775526Y-18282422D01*
X72734631Y-18286449D01*
X72694076Y-18295070D01*
X72647103Y-18295070D01*
X72600000Y-18299709D01*
X72552897Y-18295070D01*
X72505924Y-18295070D01*
X72465368Y-18286449D01*
X72424473Y-18282422D01*
X72373091Y-18266835D01*
X72321885Y-18255951D01*
X72289115Y-18241361D01*
X72255695Y-18231223D01*
X72202585Y-18202835D01*
X72150000Y-18179423D01*
X72125552Y-18161660D01*
X72100150Y-18148083D01*
X72048332Y-18105556D01*
X71997782Y-18068830D01*
X71981368Y-18050600D01*
X71963809Y-18036190D01*
X71916618Y-17978688D01*
X71871885Y-17929007D01*
X71862487Y-17912730D01*
X71851916Y-17899849D01*
X71812810Y-17826686D01*
X71777809Y-17766063D01*
X71773782Y-17753670D01*
X71768776Y-17744304D01*
X71741168Y-17653294D01*
X71719667Y-17587121D01*
X71718910Y-17579921D01*
X71717577Y-17575526D01*
X71704606Y-17443831D01*
X71700000Y-17400000D01*
X71704606Y-17356172D01*
X71717577Y-17224473D01*
X71718910Y-17220077D01*
X71719667Y-17212879D01*
X71741163Y-17146719D01*
X71768776Y-17055695D01*
X71773783Y-17046327D01*
X71777809Y-17033937D01*
X71812802Y-16973326D01*
X71851916Y-16900150D01*
X71862489Y-16887265D01*
X71871885Y-16870993D01*
X71916609Y-16821321D01*
X71963809Y-16763809D01*
X71981371Y-16749395D01*
X71997782Y-16731170D01*
X72048321Y-16694450D01*
X72100150Y-16651916D01*
X72125557Y-16638335D01*
X72150000Y-16620577D01*
X72202573Y-16597169D01*
X72255695Y-16568776D01*
X72289122Y-16558635D01*
X72321885Y-16544049D01*
X72373080Y-16533166D01*
X72424473Y-16517577D01*
X72465377Y-16513548D01*
X72505924Y-16504930D01*
X72552886Y-16504930D01*
X72599999Y-16500290D01*
X72647112Y-16504930D01*
G37*
G36*
X26120000Y-17799000D02*
G01*
X24220000Y-17799000D01*
X24220000Y-16999000D01*
X26120000Y-16999000D01*
X26120000Y-17799000D01*
G37*
G36*
X29120000Y-16849000D02*
G01*
X27220000Y-16849000D01*
X27220000Y-16049000D01*
X29120000Y-16049000D01*
X29120000Y-16849000D01*
G37*
G36*
X62600000Y-14108000D02*
G01*
X60200000Y-14108000D01*
X60200000Y-11708000D01*
X62600000Y-11708000D01*
X62600000Y-14108000D01*
G37*
G36*
X29365811Y-12412711D02*
G01*
X29407588Y-12412711D01*
X29454718Y-12422728D01*
X29502017Y-12428058D01*
X29536408Y-12440092D01*
X29571110Y-12447468D01*
X29621117Y-12469733D01*
X29671107Y-12487225D01*
X29697128Y-12503575D01*
X29723835Y-12515466D01*
X29773633Y-12551646D01*
X29822792Y-12582535D01*
X29840444Y-12600187D01*
X29859084Y-12613730D01*
X29905165Y-12664908D01*
X29949465Y-12709208D01*
X29959654Y-12725424D01*
X29970946Y-12737965D01*
X30009573Y-12804870D01*
X30044775Y-12860893D01*
X30049170Y-12873453D01*
X30054535Y-12882746D01*
X30082010Y-12967305D01*
X30103942Y-13029983D01*
X30104773Y-13037363D01*
X30106195Y-13041738D01*
X30119076Y-13164306D01*
X30124000Y-13208000D01*
X30119076Y-13251697D01*
X30106195Y-13374261D01*
X30104773Y-13378635D01*
X30103942Y-13386017D01*
X30082005Y-13448707D01*
X30054535Y-13533253D01*
X30049171Y-13542543D01*
X30044775Y-13555107D01*
X30009566Y-13611140D01*
X29970946Y-13678034D01*
X29959656Y-13690572D01*
X29949465Y-13706792D01*
X29905155Y-13751101D01*
X29859084Y-13802269D01*
X29840448Y-13815808D01*
X29822792Y-13833465D01*
X29773623Y-13864359D01*
X29723835Y-13900533D01*
X29697134Y-13912421D01*
X29671107Y-13928775D01*
X29621107Y-13946270D01*
X29571110Y-13968531D01*
X29536414Y-13975905D01*
X29502017Y-13987942D01*
X29454715Y-13993271D01*
X29407588Y-14003289D01*
X29365811Y-14003289D01*
X29324000Y-14008000D01*
X29282189Y-14003289D01*
X29240412Y-14003289D01*
X29193284Y-13993271D01*
X29145983Y-13987942D01*
X29111586Y-13975906D01*
X29076889Y-13968531D01*
X29026887Y-13946268D01*
X28976893Y-13928775D01*
X28950868Y-13912422D01*
X28924164Y-13900533D01*
X28874369Y-13864355D01*
X28825208Y-13833465D01*
X28807554Y-13815811D01*
X28788915Y-13802269D01*
X28742833Y-13751090D01*
X28698535Y-13706792D01*
X28688345Y-13690575D01*
X28677053Y-13678034D01*
X28638420Y-13611120D01*
X28603225Y-13555107D01*
X28598830Y-13542547D01*
X28593464Y-13533253D01*
X28565980Y-13448667D01*
X28544058Y-13386017D01*
X28543226Y-13378639D01*
X28541804Y-13374261D01*
X28528908Y-13251565D01*
X28524000Y-13208000D01*
X28528908Y-13164438D01*
X28541804Y-13041738D01*
X28543226Y-13037358D01*
X28544058Y-13029983D01*
X28565975Y-12967345D01*
X28593464Y-12882746D01*
X28598831Y-12873449D01*
X28603225Y-12860893D01*
X28638413Y-12804890D01*
X28677053Y-12737965D01*
X28688347Y-12725421D01*
X28698535Y-12709208D01*
X28742826Y-12664916D01*
X28788917Y-12613728D01*
X28807559Y-12600183D01*
X28825208Y-12582535D01*
X28874354Y-12551654D01*
X28924162Y-12515467D01*
X28950873Y-12503574D01*
X28976893Y-12487225D01*
X29026877Y-12469734D01*
X29076889Y-12447468D01*
X29111592Y-12440091D01*
X29145983Y-12428058D01*
X29193281Y-12422728D01*
X29240412Y-12412711D01*
X29282189Y-12412711D01*
X29324000Y-12408000D01*
X29365811Y-12412711D01*
G37*
G36*
X31905811Y-12412711D02*
G01*
X31947588Y-12412711D01*
X31994718Y-12422728D01*
X32042017Y-12428058D01*
X32076408Y-12440092D01*
X32111110Y-12447468D01*
X32161117Y-12469733D01*
X32211107Y-12487225D01*
X32237128Y-12503575D01*
X32263835Y-12515466D01*
X32313633Y-12551646D01*
X32362792Y-12582535D01*
X32380444Y-12600187D01*
X32399084Y-12613730D01*
X32445165Y-12664908D01*
X32489465Y-12709208D01*
X32499654Y-12725424D01*
X32510946Y-12737965D01*
X32549573Y-12804870D01*
X32584775Y-12860893D01*
X32589170Y-12873453D01*
X32594535Y-12882746D01*
X32622010Y-12967305D01*
X32643942Y-13029983D01*
X32644773Y-13037363D01*
X32646195Y-13041738D01*
X32659076Y-13164306D01*
X32664000Y-13208000D01*
X32659076Y-13251697D01*
X32646195Y-13374261D01*
X32644773Y-13378635D01*
X32643942Y-13386017D01*
X32622005Y-13448707D01*
X32594535Y-13533253D01*
X32589171Y-13542543D01*
X32584775Y-13555107D01*
X32549566Y-13611140D01*
X32510946Y-13678034D01*
X32499656Y-13690572D01*
X32489465Y-13706792D01*
X32445155Y-13751101D01*
X32399084Y-13802269D01*
X32380448Y-13815808D01*
X32362792Y-13833465D01*
X32313623Y-13864359D01*
X32263835Y-13900533D01*
X32237134Y-13912421D01*
X32211107Y-13928775D01*
X32161107Y-13946270D01*
X32111110Y-13968531D01*
X32076414Y-13975905D01*
X32042017Y-13987942D01*
X31994715Y-13993271D01*
X31947588Y-14003289D01*
X31905811Y-14003289D01*
X31864000Y-14008000D01*
X31822189Y-14003289D01*
X31780412Y-14003289D01*
X31733284Y-13993271D01*
X31685983Y-13987942D01*
X31651586Y-13975906D01*
X31616889Y-13968531D01*
X31566887Y-13946268D01*
X31516893Y-13928775D01*
X31490868Y-13912422D01*
X31464164Y-13900533D01*
X31414369Y-13864355D01*
X31365208Y-13833465D01*
X31347554Y-13815811D01*
X31328915Y-13802269D01*
X31282833Y-13751090D01*
X31238535Y-13706792D01*
X31228345Y-13690575D01*
X31217053Y-13678034D01*
X31178420Y-13611120D01*
X31143225Y-13555107D01*
X31138830Y-13542547D01*
X31133464Y-13533253D01*
X31105980Y-13448667D01*
X31084058Y-13386017D01*
X31083226Y-13378639D01*
X31081804Y-13374261D01*
X31068908Y-13251565D01*
X31064000Y-13208000D01*
X31068908Y-13164438D01*
X31081804Y-13041738D01*
X31083226Y-13037358D01*
X31084058Y-13029983D01*
X31105975Y-12967345D01*
X31133464Y-12882746D01*
X31138831Y-12873449D01*
X31143225Y-12860893D01*
X31178413Y-12804890D01*
X31217053Y-12737965D01*
X31228347Y-12725421D01*
X31238535Y-12709208D01*
X31282826Y-12664916D01*
X31328917Y-12613728D01*
X31347559Y-12600183D01*
X31365208Y-12582535D01*
X31414354Y-12551654D01*
X31464162Y-12515467D01*
X31490873Y-12503574D01*
X31516893Y-12487225D01*
X31566877Y-12469734D01*
X31616889Y-12447468D01*
X31651592Y-12440091D01*
X31685983Y-12428058D01*
X31733281Y-12422728D01*
X31780412Y-12412711D01*
X31822189Y-12412711D01*
X31864000Y-12408000D01*
X31905811Y-12412711D01*
G37*
G36*
X67601811Y-12158711D02*
G01*
X67643588Y-12158711D01*
X67690718Y-12168728D01*
X67738017Y-12174058D01*
X67772408Y-12186092D01*
X67807110Y-12193468D01*
X67857117Y-12215733D01*
X67907107Y-12233225D01*
X67933128Y-12249575D01*
X67959835Y-12261466D01*
X68009633Y-12297646D01*
X68058792Y-12328535D01*
X68076444Y-12346187D01*
X68095084Y-12359730D01*
X68141165Y-12410908D01*
X68185465Y-12455208D01*
X68195654Y-12471424D01*
X68206946Y-12483965D01*
X68245573Y-12550870D01*
X68280775Y-12606893D01*
X68285170Y-12619453D01*
X68290535Y-12628746D01*
X68318010Y-12713305D01*
X68339942Y-12775983D01*
X68340773Y-12783363D01*
X68342195Y-12787738D01*
X68355077Y-12910316D01*
X68360000Y-12954000D01*
X68355075Y-12997707D01*
X68342195Y-13120261D01*
X68340773Y-13124635D01*
X68339942Y-13132017D01*
X68318005Y-13194707D01*
X68290535Y-13279253D01*
X68285171Y-13288543D01*
X68280775Y-13301107D01*
X68245566Y-13357140D01*
X68206946Y-13424034D01*
X68195656Y-13436572D01*
X68185465Y-13452792D01*
X68141155Y-13497101D01*
X68095084Y-13548269D01*
X68076448Y-13561808D01*
X68058792Y-13579465D01*
X68009623Y-13610359D01*
X67959835Y-13646533D01*
X67933134Y-13658421D01*
X67907107Y-13674775D01*
X67857107Y-13692270D01*
X67807110Y-13714531D01*
X67772414Y-13721905D01*
X67738017Y-13733942D01*
X67690715Y-13739271D01*
X67643588Y-13749289D01*
X67601811Y-13749289D01*
X67560000Y-13754000D01*
X67518189Y-13749289D01*
X67476412Y-13749289D01*
X67429284Y-13739271D01*
X67381983Y-13733942D01*
X67347586Y-13721906D01*
X67312889Y-13714531D01*
X67262887Y-13692268D01*
X67212893Y-13674775D01*
X67186868Y-13658422D01*
X67160164Y-13646533D01*
X67110369Y-13610355D01*
X67061208Y-13579465D01*
X67043554Y-13561811D01*
X67024915Y-13548269D01*
X66978833Y-13497090D01*
X66934535Y-13452792D01*
X66924345Y-13436575D01*
X66913053Y-13424034D01*
X66874420Y-13357120D01*
X66839225Y-13301107D01*
X66834830Y-13288547D01*
X66829464Y-13279253D01*
X66801980Y-13194667D01*
X66780058Y-13132017D01*
X66779226Y-13124639D01*
X66777804Y-13120261D01*
X66764909Y-12997575D01*
X66760000Y-12954000D01*
X66764907Y-12910448D01*
X66777804Y-12787738D01*
X66779226Y-12783358D01*
X66780058Y-12775983D01*
X66801975Y-12713345D01*
X66829464Y-12628746D01*
X66834831Y-12619449D01*
X66839225Y-12606893D01*
X66874413Y-12550890D01*
X66913053Y-12483965D01*
X66924347Y-12471421D01*
X66934535Y-12455208D01*
X66978826Y-12410916D01*
X67024917Y-12359728D01*
X67043559Y-12346183D01*
X67061208Y-12328535D01*
X67110354Y-12297654D01*
X67160162Y-12261467D01*
X67186873Y-12249574D01*
X67212893Y-12233225D01*
X67262877Y-12215734D01*
X67312889Y-12193468D01*
X67347592Y-12186091D01*
X67381983Y-12174058D01*
X67429281Y-12168728D01*
X67476412Y-12158711D01*
X67518189Y-12158711D01*
X67560000Y-12154000D01*
X67601811Y-12158711D01*
G37*
G36*
X70141811Y-12158711D02*
G01*
X70183588Y-12158711D01*
X70230718Y-12168728D01*
X70278017Y-12174058D01*
X70312408Y-12186092D01*
X70347110Y-12193468D01*
X70397117Y-12215733D01*
X70447107Y-12233225D01*
X70473128Y-12249575D01*
X70499835Y-12261466D01*
X70549633Y-12297646D01*
X70598792Y-12328535D01*
X70616444Y-12346187D01*
X70635084Y-12359730D01*
X70681165Y-12410908D01*
X70725465Y-12455208D01*
X70735654Y-12471424D01*
X70746946Y-12483965D01*
X70785573Y-12550870D01*
X70820775Y-12606893D01*
X70825170Y-12619453D01*
X70830535Y-12628746D01*
X70858010Y-12713305D01*
X70879942Y-12775983D01*
X70880773Y-12783363D01*
X70882195Y-12787738D01*
X70895077Y-12910316D01*
X70900000Y-12954000D01*
X70895075Y-12997707D01*
X70882195Y-13120261D01*
X70880773Y-13124635D01*
X70879942Y-13132017D01*
X70858005Y-13194707D01*
X70830535Y-13279253D01*
X70825171Y-13288543D01*
X70820775Y-13301107D01*
X70785566Y-13357140D01*
X70746946Y-13424034D01*
X70735656Y-13436572D01*
X70725465Y-13452792D01*
X70681155Y-13497101D01*
X70635084Y-13548269D01*
X70616448Y-13561808D01*
X70598792Y-13579465D01*
X70549623Y-13610359D01*
X70499835Y-13646533D01*
X70473134Y-13658421D01*
X70447107Y-13674775D01*
X70397107Y-13692270D01*
X70347110Y-13714531D01*
X70312414Y-13721905D01*
X70278017Y-13733942D01*
X70230715Y-13739271D01*
X70183588Y-13749289D01*
X70141811Y-13749289D01*
X70100000Y-13754000D01*
X70058189Y-13749289D01*
X70016412Y-13749289D01*
X69969284Y-13739271D01*
X69921983Y-13733942D01*
X69887586Y-13721906D01*
X69852889Y-13714531D01*
X69802887Y-13692268D01*
X69752893Y-13674775D01*
X69726868Y-13658422D01*
X69700164Y-13646533D01*
X69650369Y-13610355D01*
X69601208Y-13579465D01*
X69583554Y-13561811D01*
X69564915Y-13548269D01*
X69518833Y-13497090D01*
X69474535Y-13452792D01*
X69464345Y-13436575D01*
X69453053Y-13424034D01*
X69414420Y-13357120D01*
X69379225Y-13301107D01*
X69374830Y-13288547D01*
X69369464Y-13279253D01*
X69341980Y-13194667D01*
X69320058Y-13132017D01*
X69319226Y-13124639D01*
X69317804Y-13120261D01*
X69304909Y-12997575D01*
X69300000Y-12954000D01*
X69304907Y-12910448D01*
X69317804Y-12787738D01*
X69319226Y-12783358D01*
X69320058Y-12775983D01*
X69341975Y-12713345D01*
X69369464Y-12628746D01*
X69374831Y-12619449D01*
X69379225Y-12606893D01*
X69414413Y-12550890D01*
X69453053Y-12483965D01*
X69464347Y-12471421D01*
X69474535Y-12455208D01*
X69518826Y-12410916D01*
X69564917Y-12359728D01*
X69583559Y-12346183D01*
X69601208Y-12328535D01*
X69650354Y-12297654D01*
X69700162Y-12261467D01*
X69726873Y-12249574D01*
X69752893Y-12233225D01*
X69802877Y-12215734D01*
X69852889Y-12193468D01*
X69887592Y-12186091D01*
X69921983Y-12174058D01*
X69969281Y-12168728D01*
X70016412Y-12158711D01*
X70058189Y-12158711D01*
X70100000Y-12154000D01*
X70141811Y-12158711D01*
G37*
G36*
X21970736Y-11522256D02*
G01*
X22044235Y-11525984D01*
X22066123Y-11531651D01*
X22085768Y-11533586D01*
X22156702Y-11555103D01*
X22230808Y-11574291D01*
X22248398Y-11582919D01*
X22264395Y-11587772D01*
X22332458Y-11624152D01*
X22403838Y-11659166D01*
X22416946Y-11669312D01*
X22429016Y-11675764D01*
X22491030Y-11726657D01*
X22556241Y-11777135D01*
X22565074Y-11787424D01*
X22573313Y-11794186D01*
X22626177Y-11858601D01*
X22681777Y-11923367D01*
X22686890Y-11932580D01*
X22691735Y-11938483D01*
X22732553Y-12014849D01*
X22775307Y-12091876D01*
X22777554Y-12099039D01*
X22779727Y-12103104D01*
X22805882Y-12189328D01*
X22833002Y-12275763D01*
X22833455Y-12280222D01*
X22833913Y-12281731D01*
X22843276Y-12376795D01*
X22852500Y-12467500D01*
X22852500Y-12562500D01*
X22847613Y-12658863D01*
X22838214Y-12704599D01*
X22833913Y-12748268D01*
X22819424Y-12796028D01*
X22808818Y-12847643D01*
X22791589Y-12887790D01*
X22779727Y-12926895D01*
X22754776Y-12973574D01*
X22732815Y-13024750D01*
X22709575Y-13058139D01*
X22691735Y-13091516D01*
X22656247Y-13134757D01*
X22622717Y-13182932D01*
X22595404Y-13208894D01*
X22573313Y-13235813D01*
X22527746Y-13273208D01*
X22483031Y-13315714D01*
X22453604Y-13334055D01*
X22429016Y-13354235D01*
X22374356Y-13383451D01*
X22319475Y-13417659D01*
X22289789Y-13428653D01*
X22264395Y-13442227D01*
X22202185Y-13461098D01*
X22138747Y-13484593D01*
X22110435Y-13488930D01*
X22085768Y-13496413D01*
X22018060Y-13503081D01*
X21948243Y-13513777D01*
X21922644Y-13512478D01*
X21900000Y-13514709D01*
X21829283Y-13507744D01*
X21755765Y-13504016D01*
X21733871Y-13498347D01*
X21714231Y-13496413D01*
X21643312Y-13474900D01*
X21569192Y-13455709D01*
X21551597Y-13447078D01*
X21535604Y-13442227D01*
X21467552Y-13405852D01*
X21396162Y-13370834D01*
X21383051Y-13360685D01*
X21370983Y-13354235D01*
X21308973Y-13303345D01*
X21243759Y-13252865D01*
X21234924Y-13242574D01*
X21226686Y-13235813D01*
X21173818Y-13171393D01*
X21118223Y-13106633D01*
X21113109Y-13097420D01*
X21108264Y-13091516D01*
X21067433Y-13015128D01*
X21024693Y-12938124D01*
X21022445Y-12930962D01*
X21020272Y-12926895D01*
X20994096Y-12840604D01*
X20966998Y-12754237D01*
X20966544Y-12749780D01*
X20966086Y-12748268D01*
X20956711Y-12653080D01*
X20947500Y-12562500D01*
X20947500Y-12467500D01*
X20952387Y-12371137D01*
X20961784Y-12325408D01*
X20966086Y-12281731D01*
X20980577Y-12233958D01*
X20991182Y-12182357D01*
X21008406Y-12142219D01*
X21020272Y-12103104D01*
X21045229Y-12056411D01*
X21067185Y-12005250D01*
X21090418Y-11971869D01*
X21108264Y-11938483D01*
X21143762Y-11895227D01*
X21177283Y-11847068D01*
X21204587Y-11821113D01*
X21226686Y-11794186D01*
X21272267Y-11756777D01*
X21316969Y-11714286D01*
X21346386Y-11695950D01*
X21370983Y-11675764D01*
X21425660Y-11646537D01*
X21480525Y-11612341D01*
X21510200Y-11601350D01*
X21535604Y-11587772D01*
X21597834Y-11568894D01*
X21661253Y-11545407D01*
X21689555Y-11541071D01*
X21714231Y-11533586D01*
X21781958Y-11526915D01*
X21851757Y-11516223D01*
X21877349Y-11517520D01*
X21900000Y-11515290D01*
X21970736Y-11522256D01*
G37*
G36*
X49821811Y-11782711D02*
G01*
X49863588Y-11782711D01*
X49910718Y-11792728D01*
X49958017Y-11798058D01*
X49992408Y-11810092D01*
X50027110Y-11817468D01*
X50077117Y-11839733D01*
X50127107Y-11857225D01*
X50153128Y-11873575D01*
X50179835Y-11885466D01*
X50229633Y-11921646D01*
X50278792Y-11952535D01*
X50296444Y-11970187D01*
X50315084Y-11983730D01*
X50361165Y-12034908D01*
X50405465Y-12079208D01*
X50415654Y-12095424D01*
X50426946Y-12107965D01*
X50465573Y-12174870D01*
X50500775Y-12230893D01*
X50505170Y-12243453D01*
X50510535Y-12252746D01*
X50538010Y-12337305D01*
X50559942Y-12399983D01*
X50560773Y-12407363D01*
X50562195Y-12411738D01*
X50575077Y-12534316D01*
X50580000Y-12578000D01*
X50575075Y-12621707D01*
X50562195Y-12744261D01*
X50560773Y-12748635D01*
X50559942Y-12756017D01*
X50538005Y-12818707D01*
X50510535Y-12903253D01*
X50505171Y-12912543D01*
X50500775Y-12925107D01*
X50465566Y-12981140D01*
X50426946Y-13048034D01*
X50415656Y-13060572D01*
X50405465Y-13076792D01*
X50361155Y-13121101D01*
X50315084Y-13172269D01*
X50296448Y-13185808D01*
X50278792Y-13203465D01*
X50229623Y-13234359D01*
X50179835Y-13270533D01*
X50153134Y-13282421D01*
X50127107Y-13298775D01*
X50077107Y-13316270D01*
X50027110Y-13338531D01*
X49992414Y-13345905D01*
X49958017Y-13357942D01*
X49910715Y-13363271D01*
X49863588Y-13373289D01*
X49821811Y-13373289D01*
X49780000Y-13378000D01*
X49738189Y-13373289D01*
X49696412Y-13373289D01*
X49649284Y-13363271D01*
X49601983Y-13357942D01*
X49567586Y-13345906D01*
X49532889Y-13338531D01*
X49482887Y-13316268D01*
X49432893Y-13298775D01*
X49406868Y-13282422D01*
X49380164Y-13270533D01*
X49330369Y-13234355D01*
X49281208Y-13203465D01*
X49263554Y-13185811D01*
X49244915Y-13172269D01*
X49198833Y-13121090D01*
X49154535Y-13076792D01*
X49144345Y-13060575D01*
X49133053Y-13048034D01*
X49094420Y-12981120D01*
X49059225Y-12925107D01*
X49054830Y-12912547D01*
X49049464Y-12903253D01*
X49021980Y-12818667D01*
X49000058Y-12756017D01*
X48999226Y-12748639D01*
X48997804Y-12744261D01*
X48984909Y-12621575D01*
X48980000Y-12578000D01*
X48984907Y-12534448D01*
X48997804Y-12411738D01*
X48999226Y-12407358D01*
X49000058Y-12399983D01*
X49021975Y-12337345D01*
X49049464Y-12252746D01*
X49054831Y-12243449D01*
X49059225Y-12230893D01*
X49094413Y-12174890D01*
X49133053Y-12107965D01*
X49144347Y-12095421D01*
X49154535Y-12079208D01*
X49198826Y-12034916D01*
X49244917Y-11983728D01*
X49263559Y-11970183D01*
X49281208Y-11952535D01*
X49330354Y-11921654D01*
X49380162Y-11885467D01*
X49406873Y-11873574D01*
X49432893Y-11857225D01*
X49482877Y-11839734D01*
X49532889Y-11817468D01*
X49567592Y-11810091D01*
X49601983Y-11798058D01*
X49649281Y-11792728D01*
X49696412Y-11782711D01*
X49738189Y-11782711D01*
X49780000Y-11778000D01*
X49821811Y-11782711D01*
G37*
G36*
X58200000Y-13378000D02*
G01*
X56600000Y-13378000D01*
X56600000Y-11778000D01*
X58200000Y-11778000D01*
X58200000Y-13378000D01*
G37*
G36*
X24510736Y-10252256D02*
G01*
X24584235Y-10255984D01*
X24606123Y-10261651D01*
X24625768Y-10263586D01*
X24696702Y-10285103D01*
X24770808Y-10304291D01*
X24788398Y-10312919D01*
X24804395Y-10317772D01*
X24872458Y-10354152D01*
X24943838Y-10389166D01*
X24956946Y-10399312D01*
X24969016Y-10405764D01*
X25031030Y-10456657D01*
X25096241Y-10507135D01*
X25105074Y-10517424D01*
X25113313Y-10524186D01*
X25166177Y-10588601D01*
X25221777Y-10653367D01*
X25226890Y-10662580D01*
X25231735Y-10668483D01*
X25272553Y-10744849D01*
X25315307Y-10821876D01*
X25317554Y-10829039D01*
X25319727Y-10833104D01*
X25345882Y-10919328D01*
X25373002Y-11005763D01*
X25373455Y-11010222D01*
X25373913Y-11011731D01*
X25383276Y-11106795D01*
X25392500Y-11197500D01*
X25392500Y-11292500D01*
X25387613Y-11388863D01*
X25378214Y-11434599D01*
X25373913Y-11478268D01*
X25359424Y-11526028D01*
X25348818Y-11577643D01*
X25331589Y-11617790D01*
X25319727Y-11656895D01*
X25294776Y-11703574D01*
X25272815Y-11754750D01*
X25249575Y-11788139D01*
X25231735Y-11821516D01*
X25196247Y-11864757D01*
X25162717Y-11912932D01*
X25135404Y-11938894D01*
X25113313Y-11965813D01*
X25067746Y-12003208D01*
X25023031Y-12045714D01*
X24993604Y-12064055D01*
X24969016Y-12084235D01*
X24914356Y-12113451D01*
X24859475Y-12147659D01*
X24829789Y-12158653D01*
X24804395Y-12172227D01*
X24742185Y-12191098D01*
X24678747Y-12214593D01*
X24650435Y-12218930D01*
X24625768Y-12226413D01*
X24558060Y-12233081D01*
X24488243Y-12243777D01*
X24462644Y-12242478D01*
X24440000Y-12244709D01*
X24369283Y-12237744D01*
X24295765Y-12234016D01*
X24273871Y-12228347D01*
X24254231Y-12226413D01*
X24183312Y-12204900D01*
X24109192Y-12185709D01*
X24091597Y-12177078D01*
X24075604Y-12172227D01*
X24007552Y-12135852D01*
X23936162Y-12100834D01*
X23923051Y-12090685D01*
X23910983Y-12084235D01*
X23848973Y-12033345D01*
X23783759Y-11982865D01*
X23774924Y-11972574D01*
X23766686Y-11965813D01*
X23713818Y-11901393D01*
X23658223Y-11836633D01*
X23653109Y-11827420D01*
X23648264Y-11821516D01*
X23607433Y-11745128D01*
X23564693Y-11668124D01*
X23562445Y-11660962D01*
X23560272Y-11656895D01*
X23534096Y-11570604D01*
X23506998Y-11484237D01*
X23506544Y-11479780D01*
X23506086Y-11478268D01*
X23496711Y-11383080D01*
X23487500Y-11292500D01*
X23487500Y-11197500D01*
X23492387Y-11101137D01*
X23501784Y-11055408D01*
X23506086Y-11011731D01*
X23520577Y-10963958D01*
X23531182Y-10912357D01*
X23548406Y-10872219D01*
X23560272Y-10833104D01*
X23585229Y-10786411D01*
X23607185Y-10735250D01*
X23630418Y-10701869D01*
X23648264Y-10668483D01*
X23683762Y-10625227D01*
X23717283Y-10577068D01*
X23744587Y-10551113D01*
X23766686Y-10524186D01*
X23812267Y-10486777D01*
X23856969Y-10444286D01*
X23886386Y-10425950D01*
X23910983Y-10405764D01*
X23965660Y-10376537D01*
X24020525Y-10342341D01*
X24050200Y-10331350D01*
X24075604Y-10317772D01*
X24137834Y-10298894D01*
X24201253Y-10275407D01*
X24229555Y-10271071D01*
X24254231Y-10263586D01*
X24321958Y-10256915D01*
X24391757Y-10246223D01*
X24417349Y-10247520D01*
X24440000Y-10245290D01*
X24510736Y-10252256D01*
G37*
G36*
X19545824Y-10310802D02*
G01*
X19724506Y-10365005D01*
X19889181Y-10453025D01*
X20033519Y-10571481D01*
X20151975Y-10715819D01*
X20239995Y-10880494D01*
X20294198Y-11059176D01*
X20312500Y-11245000D01*
X20294198Y-11430824D01*
X20239995Y-11609506D01*
X20151975Y-11774181D01*
X20033519Y-11918519D01*
X19889181Y-12036975D01*
X19724506Y-12124995D01*
X19545824Y-12179198D01*
X19360000Y-12197500D01*
X19174176Y-12179198D01*
X18995494Y-12124995D01*
X18830819Y-12036975D01*
X18686481Y-11918519D01*
X18568025Y-11774181D01*
X18480005Y-11609506D01*
X18425802Y-11430824D01*
X18407500Y-11245000D01*
X18425802Y-11059176D01*
X18480005Y-10880494D01*
X18568025Y-10715819D01*
X18686481Y-10571481D01*
X18830819Y-10453025D01*
X18995494Y-10365005D01*
X19174176Y-10310802D01*
X19360000Y-10292500D01*
X19545824Y-10310802D01*
G37*
G36*
X8847113Y-10104930D02*
G01*
X8894076Y-10104930D01*
X8934622Y-10113548D01*
X8975526Y-10117577D01*
X9026916Y-10133166D01*
X9078115Y-10144049D01*
X9110879Y-10158636D01*
X9144304Y-10168776D01*
X9197420Y-10197166D01*
X9250000Y-10220577D01*
X9274445Y-10238337D01*
X9299849Y-10251916D01*
X9351669Y-10294444D01*
X9402218Y-10331170D01*
X9418631Y-10349398D01*
X9436190Y-10363809D01*
X9483379Y-10421308D01*
X9528115Y-10470993D01*
X9537512Y-10487269D01*
X9548083Y-10500150D01*
X9587183Y-10573302D01*
X9622191Y-10633937D01*
X9626218Y-10646331D01*
X9631223Y-10655695D01*
X9658821Y-10746672D01*
X9680333Y-10812879D01*
X9681090Y-10820082D01*
X9682422Y-10824473D01*
X9695377Y-10956021D01*
X9700000Y-11000000D01*
X9695377Y-11043982D01*
X9682422Y-11175526D01*
X9681090Y-11179916D01*
X9680333Y-11187121D01*
X9658816Y-11253341D01*
X9631223Y-11344304D01*
X9626219Y-11353665D01*
X9622191Y-11366063D01*
X9587176Y-11426709D01*
X9548083Y-11499849D01*
X9537514Y-11512726D01*
X9528115Y-11529007D01*
X9483369Y-11578701D01*
X9436190Y-11636190D01*
X9418634Y-11650597D01*
X9402218Y-11668830D01*
X9351659Y-11705563D01*
X9299849Y-11748083D01*
X9274450Y-11761658D01*
X9250000Y-11779423D01*
X9197408Y-11802838D01*
X9144304Y-11831223D01*
X9110886Y-11841360D01*
X9078115Y-11855951D01*
X9026905Y-11866836D01*
X8975526Y-11882422D01*
X8934631Y-11886449D01*
X8894076Y-11895070D01*
X8847103Y-11895070D01*
X8800000Y-11899709D01*
X8752897Y-11895070D01*
X8705924Y-11895070D01*
X8665368Y-11886449D01*
X8624473Y-11882422D01*
X8573091Y-11866835D01*
X8521885Y-11855951D01*
X8489115Y-11841361D01*
X8455695Y-11831223D01*
X8402585Y-11802835D01*
X8350000Y-11779423D01*
X8325552Y-11761660D01*
X8300150Y-11748083D01*
X8248332Y-11705556D01*
X8197782Y-11668830D01*
X8181368Y-11650600D01*
X8163809Y-11636190D01*
X8116618Y-11578688D01*
X8071885Y-11529007D01*
X8062487Y-11512730D01*
X8051916Y-11499849D01*
X8012810Y-11426686D01*
X7977809Y-11366063D01*
X7973782Y-11353670D01*
X7968776Y-11344304D01*
X7941168Y-11253294D01*
X7919667Y-11187121D01*
X7918910Y-11179921D01*
X7917577Y-11175526D01*
X7904606Y-11043831D01*
X7900000Y-11000000D01*
X7904606Y-10956172D01*
X7917577Y-10824473D01*
X7918910Y-10820077D01*
X7919667Y-10812879D01*
X7941163Y-10746719D01*
X7968776Y-10655695D01*
X7973783Y-10646327D01*
X7977809Y-10633937D01*
X8012802Y-10573326D01*
X8051916Y-10500150D01*
X8062489Y-10487265D01*
X8071885Y-10470993D01*
X8116609Y-10421321D01*
X8163809Y-10363809D01*
X8181371Y-10349395D01*
X8197782Y-10331170D01*
X8248321Y-10294450D01*
X8300150Y-10251916D01*
X8325557Y-10238335D01*
X8350000Y-10220577D01*
X8402573Y-10197169D01*
X8455695Y-10168776D01*
X8489122Y-10158635D01*
X8521885Y-10144049D01*
X8573080Y-10133166D01*
X8624473Y-10117577D01*
X8665377Y-10113548D01*
X8705924Y-10104930D01*
X8752887Y-10104930D01*
X8800000Y-10100290D01*
X8847113Y-10104930D01*
G37*
G36*
X78947113Y-10104930D02*
G01*
X78994076Y-10104930D01*
X79034622Y-10113548D01*
X79075526Y-10117577D01*
X79126916Y-10133166D01*
X79178115Y-10144049D01*
X79210879Y-10158636D01*
X79244304Y-10168776D01*
X79297420Y-10197166D01*
X79350000Y-10220577D01*
X79374445Y-10238337D01*
X79399849Y-10251916D01*
X79451669Y-10294444D01*
X79502218Y-10331170D01*
X79518631Y-10349398D01*
X79536190Y-10363809D01*
X79583379Y-10421308D01*
X79628115Y-10470993D01*
X79637512Y-10487269D01*
X79648083Y-10500150D01*
X79687183Y-10573302D01*
X79722191Y-10633937D01*
X79726218Y-10646331D01*
X79731223Y-10655695D01*
X79758821Y-10746672D01*
X79780333Y-10812879D01*
X79781090Y-10820082D01*
X79782422Y-10824473D01*
X79795378Y-10956032D01*
X79800000Y-11000000D01*
X79795376Y-11043993D01*
X79782422Y-11175526D01*
X79781090Y-11179916D01*
X79780333Y-11187121D01*
X79758816Y-11253341D01*
X79731223Y-11344304D01*
X79726219Y-11353665D01*
X79722191Y-11366063D01*
X79687176Y-11426709D01*
X79648083Y-11499849D01*
X79637514Y-11512726D01*
X79628115Y-11529007D01*
X79583369Y-11578701D01*
X79536190Y-11636190D01*
X79518634Y-11650597D01*
X79502218Y-11668830D01*
X79451659Y-11705563D01*
X79399849Y-11748083D01*
X79374450Y-11761658D01*
X79350000Y-11779423D01*
X79297408Y-11802838D01*
X79244304Y-11831223D01*
X79210886Y-11841360D01*
X79178115Y-11855951D01*
X79126905Y-11866836D01*
X79075526Y-11882422D01*
X79034631Y-11886449D01*
X78994076Y-11895070D01*
X78947103Y-11895070D01*
X78900000Y-11899709D01*
X78852897Y-11895070D01*
X78805924Y-11895070D01*
X78765368Y-11886449D01*
X78724473Y-11882422D01*
X78673091Y-11866835D01*
X78621885Y-11855951D01*
X78589115Y-11841361D01*
X78555695Y-11831223D01*
X78502585Y-11802835D01*
X78450000Y-11779423D01*
X78425552Y-11761660D01*
X78400150Y-11748083D01*
X78348332Y-11705556D01*
X78297782Y-11668830D01*
X78281368Y-11650600D01*
X78263809Y-11636190D01*
X78216618Y-11578688D01*
X78171885Y-11529007D01*
X78162487Y-11512730D01*
X78151916Y-11499849D01*
X78112810Y-11426686D01*
X78077809Y-11366063D01*
X78073782Y-11353670D01*
X78068776Y-11344304D01*
X78041168Y-11253294D01*
X78019667Y-11187121D01*
X78018910Y-11179921D01*
X78017577Y-11175526D01*
X78004606Y-11043831D01*
X78000000Y-11000000D01*
X78004606Y-10956172D01*
X78017577Y-10824473D01*
X78018910Y-10820077D01*
X78019667Y-10812879D01*
X78041163Y-10746719D01*
X78068776Y-10655695D01*
X78073783Y-10646327D01*
X78077809Y-10633937D01*
X78112802Y-10573326D01*
X78151916Y-10500150D01*
X78162489Y-10487265D01*
X78171885Y-10470993D01*
X78216609Y-10421321D01*
X78263809Y-10363809D01*
X78281371Y-10349395D01*
X78297782Y-10331170D01*
X78348321Y-10294450D01*
X78400150Y-10251916D01*
X78425557Y-10238335D01*
X78450000Y-10220577D01*
X78502573Y-10197169D01*
X78555695Y-10168776D01*
X78589122Y-10158635D01*
X78621885Y-10144049D01*
X78673080Y-10133166D01*
X78724473Y-10117577D01*
X78765377Y-10113548D01*
X78805924Y-10104930D01*
X78852887Y-10104930D01*
X78900000Y-10100290D01*
X78947113Y-10104930D01*
G37*
G36*
X49821811Y-9242711D02*
G01*
X49863588Y-9242711D01*
X49910718Y-9252728D01*
X49958017Y-9258058D01*
X49992408Y-9270092D01*
X50027110Y-9277468D01*
X50077117Y-9299733D01*
X50127107Y-9317225D01*
X50153128Y-9333575D01*
X50179835Y-9345466D01*
X50229633Y-9381646D01*
X50278792Y-9412535D01*
X50296444Y-9430187D01*
X50315084Y-9443730D01*
X50361165Y-9494908D01*
X50405465Y-9539208D01*
X50415654Y-9555424D01*
X50426946Y-9567965D01*
X50465573Y-9634870D01*
X50500775Y-9690893D01*
X50505170Y-9703453D01*
X50510535Y-9712746D01*
X50538010Y-9797305D01*
X50559942Y-9859983D01*
X50560773Y-9867363D01*
X50562195Y-9871738D01*
X50575076Y-9994306D01*
X50580000Y-10038000D01*
X50575076Y-10081697D01*
X50562195Y-10204261D01*
X50560773Y-10208635D01*
X50559942Y-10216017D01*
X50538005Y-10278707D01*
X50510535Y-10363253D01*
X50505171Y-10372543D01*
X50500775Y-10385107D01*
X50465566Y-10441140D01*
X50426946Y-10508034D01*
X50415656Y-10520572D01*
X50405465Y-10536792D01*
X50361155Y-10581101D01*
X50315084Y-10632269D01*
X50296448Y-10645808D01*
X50278792Y-10663465D01*
X50229623Y-10694359D01*
X50179835Y-10730533D01*
X50153134Y-10742421D01*
X50127107Y-10758775D01*
X50077107Y-10776270D01*
X50027110Y-10798531D01*
X49992414Y-10805905D01*
X49958017Y-10817942D01*
X49910715Y-10823271D01*
X49863588Y-10833289D01*
X49821811Y-10833289D01*
X49780000Y-10838000D01*
X49738189Y-10833289D01*
X49696412Y-10833289D01*
X49649284Y-10823271D01*
X49601983Y-10817942D01*
X49567586Y-10805906D01*
X49532889Y-10798531D01*
X49482887Y-10776268D01*
X49432893Y-10758775D01*
X49406868Y-10742422D01*
X49380164Y-10730533D01*
X49330369Y-10694355D01*
X49281208Y-10663465D01*
X49263554Y-10645811D01*
X49244915Y-10632269D01*
X49198833Y-10581090D01*
X49154535Y-10536792D01*
X49144345Y-10520575D01*
X49133053Y-10508034D01*
X49094420Y-10441120D01*
X49059225Y-10385107D01*
X49054830Y-10372547D01*
X49049464Y-10363253D01*
X49021980Y-10278667D01*
X49000058Y-10216017D01*
X48999226Y-10208639D01*
X48997804Y-10204261D01*
X48984908Y-10081565D01*
X48980000Y-10038000D01*
X48984908Y-9994438D01*
X48997804Y-9871738D01*
X48999226Y-9867358D01*
X49000058Y-9859983D01*
X49021975Y-9797345D01*
X49049464Y-9712746D01*
X49054831Y-9703449D01*
X49059225Y-9690893D01*
X49094413Y-9634890D01*
X49133053Y-9567965D01*
X49144347Y-9555421D01*
X49154535Y-9539208D01*
X49198826Y-9494916D01*
X49244917Y-9443728D01*
X49263559Y-9430183D01*
X49281208Y-9412535D01*
X49330354Y-9381654D01*
X49380162Y-9345467D01*
X49406873Y-9333574D01*
X49432893Y-9317225D01*
X49482877Y-9299734D01*
X49532889Y-9277468D01*
X49567592Y-9270091D01*
X49601983Y-9258058D01*
X49649281Y-9252728D01*
X49696412Y-9242711D01*
X49738189Y-9242711D01*
X49780000Y-9238000D01*
X49821811Y-9242711D01*
G37*
G36*
X57441811Y-9242711D02*
G01*
X57483588Y-9242711D01*
X57530718Y-9252728D01*
X57578017Y-9258058D01*
X57612408Y-9270092D01*
X57647110Y-9277468D01*
X57697117Y-9299733D01*
X57747107Y-9317225D01*
X57773128Y-9333575D01*
X57799835Y-9345466D01*
X57849633Y-9381646D01*
X57898792Y-9412535D01*
X57916444Y-9430187D01*
X57935084Y-9443730D01*
X57981165Y-9494908D01*
X58025465Y-9539208D01*
X58035654Y-9555424D01*
X58046946Y-9567965D01*
X58085573Y-9634870D01*
X58120775Y-9690893D01*
X58125170Y-9703453D01*
X58130535Y-9712746D01*
X58158010Y-9797305D01*
X58179942Y-9859983D01*
X58180773Y-9867363D01*
X58182195Y-9871738D01*
X58195076Y-9994306D01*
X58200000Y-10038000D01*
X58195076Y-10081697D01*
X58182195Y-10204261D01*
X58180773Y-10208635D01*
X58179942Y-10216017D01*
X58158005Y-10278707D01*
X58130535Y-10363253D01*
X58125171Y-10372543D01*
X58120775Y-10385107D01*
X58085566Y-10441140D01*
X58046946Y-10508034D01*
X58035656Y-10520572D01*
X58025465Y-10536792D01*
X57981155Y-10581101D01*
X57935084Y-10632269D01*
X57916448Y-10645808D01*
X57898792Y-10663465D01*
X57849623Y-10694359D01*
X57799835Y-10730533D01*
X57773134Y-10742421D01*
X57747107Y-10758775D01*
X57697107Y-10776270D01*
X57647110Y-10798531D01*
X57612414Y-10805905D01*
X57578017Y-10817942D01*
X57530715Y-10823271D01*
X57483588Y-10833289D01*
X57441811Y-10833289D01*
X57400000Y-10838000D01*
X57358189Y-10833289D01*
X57316412Y-10833289D01*
X57269284Y-10823271D01*
X57221983Y-10817942D01*
X57187586Y-10805906D01*
X57152889Y-10798531D01*
X57102887Y-10776268D01*
X57052893Y-10758775D01*
X57026868Y-10742422D01*
X57000164Y-10730533D01*
X56950369Y-10694355D01*
X56901208Y-10663465D01*
X56883554Y-10645811D01*
X56864915Y-10632269D01*
X56818833Y-10581090D01*
X56774535Y-10536792D01*
X56764345Y-10520575D01*
X56753053Y-10508034D01*
X56714420Y-10441120D01*
X56679225Y-10385107D01*
X56674830Y-10372547D01*
X56669464Y-10363253D01*
X56641980Y-10278667D01*
X56620058Y-10216017D01*
X56619226Y-10208639D01*
X56617804Y-10204261D01*
X56604908Y-10081565D01*
X56600000Y-10038000D01*
X56604908Y-9994438D01*
X56617804Y-9871738D01*
X56619226Y-9867358D01*
X56620058Y-9859983D01*
X56641975Y-9797345D01*
X56669464Y-9712746D01*
X56674831Y-9703449D01*
X56679225Y-9690893D01*
X56714413Y-9634890D01*
X56753053Y-9567965D01*
X56764347Y-9555421D01*
X56774535Y-9539208D01*
X56818826Y-9494916D01*
X56864917Y-9443728D01*
X56883559Y-9430183D01*
X56901208Y-9412535D01*
X56950354Y-9381654D01*
X57000162Y-9345467D01*
X57026873Y-9333574D01*
X57052893Y-9317225D01*
X57102877Y-9299734D01*
X57152889Y-9277468D01*
X57187592Y-9270091D01*
X57221983Y-9258058D01*
X57269281Y-9252728D01*
X57316412Y-9242711D01*
X57358189Y-9242711D01*
X57400000Y-9238000D01*
X57441811Y-9242711D01*
G37*
G36*
X61455893Y-7903119D02*
G01*
X61510722Y-7903119D01*
X61558959Y-7912136D01*
X61608337Y-7916456D01*
X61668942Y-7932695D01*
X61728396Y-7943809D01*
X61768721Y-7959431D01*
X61810344Y-7970584D01*
X61873358Y-7999967D01*
X61934886Y-8023804D01*
X61966644Y-8043467D01*
X61999889Y-8058970D01*
X62062599Y-8102880D01*
X62123162Y-8140379D01*
X62146376Y-8161541D01*
X62171195Y-8178920D01*
X62230564Y-8238289D01*
X62286811Y-8289565D01*
X62302143Y-8309868D01*
X62319079Y-8326804D01*
X62371904Y-8402246D01*
X62420261Y-8466281D01*
X62428924Y-8483680D01*
X62439032Y-8498115D01*
X62482075Y-8590421D01*
X62518967Y-8664510D01*
X62522634Y-8677401D01*
X62527414Y-8687650D01*
X62557534Y-8800059D01*
X62579568Y-8877501D01*
X62580246Y-8884823D01*
X62581543Y-8889662D01*
X62595882Y-9053568D01*
X62600000Y-9098000D01*
X62595880Y-9142462D01*
X62581543Y-9306337D01*
X62580246Y-9311174D01*
X62579568Y-9318499D01*
X62557527Y-9395965D01*
X62527415Y-9508344D01*
X62522637Y-9518589D01*
X62518967Y-9531490D01*
X62482052Y-9605625D01*
X62439029Y-9697889D01*
X62428925Y-9712318D01*
X62420261Y-9729719D01*
X62371897Y-9793762D01*
X62319079Y-9869195D01*
X62302146Y-9886127D01*
X62286811Y-9906435D01*
X62230552Y-9957721D01*
X62171195Y-10017079D01*
X62146381Y-10034453D01*
X62123162Y-10055621D01*
X62062587Y-10093127D01*
X61999889Y-10137029D01*
X61966650Y-10152528D01*
X61934886Y-10172196D01*
X61873345Y-10196037D01*
X61810344Y-10225415D01*
X61768729Y-10236565D01*
X61728396Y-10252191D01*
X61668930Y-10263307D01*
X61608337Y-10279543D01*
X61558969Y-10283862D01*
X61510722Y-10292881D01*
X61455882Y-10292881D01*
X61400000Y-10297770D01*
X61344118Y-10292881D01*
X61289278Y-10292881D01*
X61241031Y-10283862D01*
X61191662Y-10279543D01*
X61131066Y-10263306D01*
X61071604Y-10252191D01*
X61031272Y-10236566D01*
X60989655Y-10225415D01*
X60926648Y-10196034D01*
X60865114Y-10172196D01*
X60833352Y-10152530D01*
X60800110Y-10137029D01*
X60737404Y-10093121D01*
X60676838Y-10055621D01*
X60653621Y-10034456D01*
X60628804Y-10017079D01*
X60569435Y-9957710D01*
X60513189Y-9906435D01*
X60497856Y-9886131D01*
X60480920Y-9869195D01*
X60428088Y-9793743D01*
X60379739Y-9729719D01*
X60371076Y-9712323D01*
X60360970Y-9697889D01*
X60317932Y-9605593D01*
X60281033Y-9531490D01*
X60277364Y-9518594D01*
X60272584Y-9508344D01*
X60242455Y-9395904D01*
X60220432Y-9318499D01*
X60219753Y-9311180D01*
X60218456Y-9306337D01*
X60204100Y-9142255D01*
X60200000Y-9098000D01*
X60204100Y-9053748D01*
X60218456Y-8889662D01*
X60219754Y-8884817D01*
X60220432Y-8877501D01*
X60242448Y-8800120D01*
X60272585Y-8687650D01*
X60277366Y-8677395D01*
X60281033Y-8664510D01*
X60317909Y-8590452D01*
X60360967Y-8498115D01*
X60371077Y-8483675D01*
X60379739Y-8466281D01*
X60428081Y-8402264D01*
X60480920Y-8326804D01*
X60497859Y-8309864D01*
X60513189Y-8289565D01*
X60569424Y-8238299D01*
X60628804Y-8178920D01*
X60653626Y-8161539D01*
X60676838Y-8140379D01*
X60737395Y-8102883D01*
X60800115Y-8058967D01*
X60833364Y-8043462D01*
X60865114Y-8023804D01*
X60926621Y-7999975D01*
X60989650Y-7970585D01*
X61031283Y-7959429D01*
X61071604Y-7943809D01*
X61131053Y-7932696D01*
X61191662Y-7916456D01*
X61241041Y-7912135D01*
X61289278Y-7903119D01*
X61344106Y-7903119D01*
X61400000Y-7898229D01*
X61455893Y-7903119D01*
G37*
G36*
X29815811Y-8348711D02*
G01*
X29857588Y-8348711D01*
X29904718Y-8358728D01*
X29952017Y-8364058D01*
X29986408Y-8376092D01*
X30021110Y-8383468D01*
X30071117Y-8405733D01*
X30121107Y-8423225D01*
X30147128Y-8439575D01*
X30173835Y-8451466D01*
X30223633Y-8487646D01*
X30272792Y-8518535D01*
X30290444Y-8536187D01*
X30309084Y-8549730D01*
X30355165Y-8600908D01*
X30399465Y-8645208D01*
X30409654Y-8661424D01*
X30420946Y-8673965D01*
X30459573Y-8740870D01*
X30494775Y-8796893D01*
X30499170Y-8809453D01*
X30504535Y-8818746D01*
X30532010Y-8903305D01*
X30553942Y-8965983D01*
X30554773Y-8973363D01*
X30556195Y-8977738D01*
X30569076Y-9100306D01*
X30574000Y-9144000D01*
X30569076Y-9187697D01*
X30556195Y-9310261D01*
X30554773Y-9314635D01*
X30553942Y-9322017D01*
X30532005Y-9384707D01*
X30504535Y-9469253D01*
X30499171Y-9478543D01*
X30494775Y-9491107D01*
X30459566Y-9547140D01*
X30420946Y-9614034D01*
X30409656Y-9626572D01*
X30399465Y-9642792D01*
X30355155Y-9687101D01*
X30309084Y-9738269D01*
X30290448Y-9751808D01*
X30272792Y-9769465D01*
X30223623Y-9800359D01*
X30173835Y-9836533D01*
X30147134Y-9848421D01*
X30121107Y-9864775D01*
X30071107Y-9882270D01*
X30021110Y-9904531D01*
X29986414Y-9911905D01*
X29952017Y-9923942D01*
X29904715Y-9929271D01*
X29857588Y-9939289D01*
X29815811Y-9939289D01*
X29774000Y-9944000D01*
X29732189Y-9939289D01*
X29690412Y-9939289D01*
X29643284Y-9929271D01*
X29595983Y-9923942D01*
X29561586Y-9911906D01*
X29526889Y-9904531D01*
X29476887Y-9882268D01*
X29426893Y-9864775D01*
X29400868Y-9848422D01*
X29374164Y-9836533D01*
X29324369Y-9800355D01*
X29275208Y-9769465D01*
X29257554Y-9751811D01*
X29238915Y-9738269D01*
X29192833Y-9687090D01*
X29148535Y-9642792D01*
X29138345Y-9626575D01*
X29127053Y-9614034D01*
X29088420Y-9547120D01*
X29053225Y-9491107D01*
X29048830Y-9478547D01*
X29043464Y-9469253D01*
X29015980Y-9384667D01*
X28994058Y-9322017D01*
X28993226Y-9314639D01*
X28991804Y-9310261D01*
X28978908Y-9187565D01*
X28974000Y-9144000D01*
X28978908Y-9100438D01*
X28991804Y-8977738D01*
X28993226Y-8973358D01*
X28994058Y-8965983D01*
X29015975Y-8903345D01*
X29043464Y-8818746D01*
X29048831Y-8809449D01*
X29053225Y-8796893D01*
X29088413Y-8740890D01*
X29127053Y-8673965D01*
X29138347Y-8661421D01*
X29148535Y-8645208D01*
X29192826Y-8600916D01*
X29238917Y-8549728D01*
X29257559Y-8536183D01*
X29275208Y-8518535D01*
X29324354Y-8487654D01*
X29374162Y-8451467D01*
X29400873Y-8439574D01*
X29426893Y-8423225D01*
X29476877Y-8405734D01*
X29526889Y-8383468D01*
X29561592Y-8376091D01*
X29595983Y-8364058D01*
X29643281Y-8358728D01*
X29690412Y-8348711D01*
X29732189Y-8348711D01*
X29774000Y-8344000D01*
X29815811Y-8348711D01*
G37*
G36*
X32355811Y-8348711D02*
G01*
X32397588Y-8348711D01*
X32444718Y-8358728D01*
X32492017Y-8364058D01*
X32526408Y-8376092D01*
X32561110Y-8383468D01*
X32611117Y-8405733D01*
X32661107Y-8423225D01*
X32687128Y-8439575D01*
X32713835Y-8451466D01*
X32763633Y-8487646D01*
X32812792Y-8518535D01*
X32830444Y-8536187D01*
X32849084Y-8549730D01*
X32895165Y-8600908D01*
X32939465Y-8645208D01*
X32949654Y-8661424D01*
X32960946Y-8673965D01*
X32999573Y-8740870D01*
X33034775Y-8796893D01*
X33039170Y-8809453D01*
X33044535Y-8818746D01*
X33072010Y-8903305D01*
X33093942Y-8965983D01*
X33094773Y-8973363D01*
X33096195Y-8977738D01*
X33109076Y-9100306D01*
X33114000Y-9144000D01*
X33109076Y-9187697D01*
X33096195Y-9310261D01*
X33094773Y-9314635D01*
X33093942Y-9322017D01*
X33072005Y-9384707D01*
X33044535Y-9469253D01*
X33039171Y-9478543D01*
X33034775Y-9491107D01*
X32999566Y-9547140D01*
X32960946Y-9614034D01*
X32949656Y-9626572D01*
X32939465Y-9642792D01*
X32895155Y-9687101D01*
X32849084Y-9738269D01*
X32830448Y-9751808D01*
X32812792Y-9769465D01*
X32763623Y-9800359D01*
X32713835Y-9836533D01*
X32687134Y-9848421D01*
X32661107Y-9864775D01*
X32611107Y-9882270D01*
X32561110Y-9904531D01*
X32526414Y-9911905D01*
X32492017Y-9923942D01*
X32444715Y-9929271D01*
X32397588Y-9939289D01*
X32355811Y-9939289D01*
X32314000Y-9944000D01*
X32272189Y-9939289D01*
X32230412Y-9939289D01*
X32183284Y-9929271D01*
X32135983Y-9923942D01*
X32101586Y-9911906D01*
X32066889Y-9904531D01*
X32016887Y-9882268D01*
X31966893Y-9864775D01*
X31940868Y-9848422D01*
X31914164Y-9836533D01*
X31864369Y-9800355D01*
X31815208Y-9769465D01*
X31797554Y-9751811D01*
X31778915Y-9738269D01*
X31732833Y-9687090D01*
X31688535Y-9642792D01*
X31678345Y-9626575D01*
X31667053Y-9614034D01*
X31628420Y-9547120D01*
X31593225Y-9491107D01*
X31588830Y-9478547D01*
X31583464Y-9469253D01*
X31555980Y-9384667D01*
X31534058Y-9322017D01*
X31533226Y-9314639D01*
X31531804Y-9310261D01*
X31518908Y-9187565D01*
X31514000Y-9144000D01*
X31518908Y-9100438D01*
X31531804Y-8977738D01*
X31533226Y-8973358D01*
X31534058Y-8965983D01*
X31555975Y-8903345D01*
X31583464Y-8818746D01*
X31588831Y-8809449D01*
X31593225Y-8796893D01*
X31628413Y-8740890D01*
X31667053Y-8673965D01*
X31678347Y-8661421D01*
X31688535Y-8645208D01*
X31732826Y-8600916D01*
X31778917Y-8549728D01*
X31797559Y-8536183D01*
X31815208Y-8518535D01*
X31864354Y-8487654D01*
X31914162Y-8451467D01*
X31940873Y-8439574D01*
X31966893Y-8423225D01*
X32016877Y-8405734D01*
X32066889Y-8383468D01*
X32101592Y-8376091D01*
X32135983Y-8364058D01*
X32183281Y-8358728D01*
X32230412Y-8348711D01*
X32272189Y-8348711D01*
X32314000Y-8344000D01*
X32355811Y-8348711D01*
G37*
G36*
X67601811Y-8348711D02*
G01*
X67643588Y-8348711D01*
X67690718Y-8358728D01*
X67738017Y-8364058D01*
X67772408Y-8376092D01*
X67807110Y-8383468D01*
X67857117Y-8405733D01*
X67907107Y-8423225D01*
X67933128Y-8439575D01*
X67959835Y-8451466D01*
X68009633Y-8487646D01*
X68058792Y-8518535D01*
X68076444Y-8536187D01*
X68095084Y-8549730D01*
X68141165Y-8600908D01*
X68185465Y-8645208D01*
X68195654Y-8661424D01*
X68206946Y-8673965D01*
X68245573Y-8740870D01*
X68280775Y-8796893D01*
X68285170Y-8809453D01*
X68290535Y-8818746D01*
X68318010Y-8903305D01*
X68339942Y-8965983D01*
X68340773Y-8973363D01*
X68342195Y-8977738D01*
X68355076Y-9100306D01*
X68360000Y-9144000D01*
X68355076Y-9187697D01*
X68342195Y-9310261D01*
X68340773Y-9314635D01*
X68339942Y-9322017D01*
X68318005Y-9384707D01*
X68290535Y-9469253D01*
X68285171Y-9478543D01*
X68280775Y-9491107D01*
X68245566Y-9547140D01*
X68206946Y-9614034D01*
X68195656Y-9626572D01*
X68185465Y-9642792D01*
X68141155Y-9687101D01*
X68095084Y-9738269D01*
X68076448Y-9751808D01*
X68058792Y-9769465D01*
X68009623Y-9800359D01*
X67959835Y-9836533D01*
X67933134Y-9848421D01*
X67907107Y-9864775D01*
X67857107Y-9882270D01*
X67807110Y-9904531D01*
X67772414Y-9911905D01*
X67738017Y-9923942D01*
X67690715Y-9929271D01*
X67643588Y-9939289D01*
X67601811Y-9939289D01*
X67560000Y-9944000D01*
X67518189Y-9939289D01*
X67476412Y-9939289D01*
X67429284Y-9929271D01*
X67381983Y-9923942D01*
X67347586Y-9911906D01*
X67312889Y-9904531D01*
X67262887Y-9882268D01*
X67212893Y-9864775D01*
X67186868Y-9848422D01*
X67160164Y-9836533D01*
X67110369Y-9800355D01*
X67061208Y-9769465D01*
X67043554Y-9751811D01*
X67024915Y-9738269D01*
X66978833Y-9687090D01*
X66934535Y-9642792D01*
X66924345Y-9626575D01*
X66913053Y-9614034D01*
X66874420Y-9547120D01*
X66839225Y-9491107D01*
X66834830Y-9478547D01*
X66829464Y-9469253D01*
X66801980Y-9384667D01*
X66780058Y-9322017D01*
X66779226Y-9314639D01*
X66777804Y-9310261D01*
X66764908Y-9187565D01*
X66760000Y-9144000D01*
X66764908Y-9100438D01*
X66777804Y-8977738D01*
X66779226Y-8973358D01*
X66780058Y-8965983D01*
X66801975Y-8903345D01*
X66829464Y-8818746D01*
X66834831Y-8809449D01*
X66839225Y-8796893D01*
X66874413Y-8740890D01*
X66913053Y-8673965D01*
X66924347Y-8661421D01*
X66934535Y-8645208D01*
X66978826Y-8600916D01*
X67024917Y-8549728D01*
X67043559Y-8536183D01*
X67061208Y-8518535D01*
X67110354Y-8487654D01*
X67160162Y-8451467D01*
X67186873Y-8439574D01*
X67212893Y-8423225D01*
X67262877Y-8405734D01*
X67312889Y-8383468D01*
X67347592Y-8376091D01*
X67381983Y-8364058D01*
X67429281Y-8358728D01*
X67476412Y-8348711D01*
X67518189Y-8348711D01*
X67560000Y-8344000D01*
X67601811Y-8348711D01*
G37*
G36*
X70141811Y-8348711D02*
G01*
X70183588Y-8348711D01*
X70230718Y-8358728D01*
X70278017Y-8364058D01*
X70312408Y-8376092D01*
X70347110Y-8383468D01*
X70397117Y-8405733D01*
X70447107Y-8423225D01*
X70473128Y-8439575D01*
X70499835Y-8451466D01*
X70549633Y-8487646D01*
X70598792Y-8518535D01*
X70616444Y-8536187D01*
X70635084Y-8549730D01*
X70681165Y-8600908D01*
X70725465Y-8645208D01*
X70735654Y-8661424D01*
X70746946Y-8673965D01*
X70785573Y-8740870D01*
X70820775Y-8796893D01*
X70825170Y-8809453D01*
X70830535Y-8818746D01*
X70858010Y-8903305D01*
X70879942Y-8965983D01*
X70880773Y-8973363D01*
X70882195Y-8977738D01*
X70895076Y-9100306D01*
X70900000Y-9144000D01*
X70895076Y-9187697D01*
X70882195Y-9310261D01*
X70880773Y-9314635D01*
X70879942Y-9322017D01*
X70858005Y-9384707D01*
X70830535Y-9469253D01*
X70825171Y-9478543D01*
X70820775Y-9491107D01*
X70785566Y-9547140D01*
X70746946Y-9614034D01*
X70735656Y-9626572D01*
X70725465Y-9642792D01*
X70681155Y-9687101D01*
X70635084Y-9738269D01*
X70616448Y-9751808D01*
X70598792Y-9769465D01*
X70549623Y-9800359D01*
X70499835Y-9836533D01*
X70473134Y-9848421D01*
X70447107Y-9864775D01*
X70397107Y-9882270D01*
X70347110Y-9904531D01*
X70312414Y-9911905D01*
X70278017Y-9923942D01*
X70230715Y-9929271D01*
X70183588Y-9939289D01*
X70141811Y-9939289D01*
X70100000Y-9944000D01*
X70058189Y-9939289D01*
X70016412Y-9939289D01*
X69969284Y-9929271D01*
X69921983Y-9923942D01*
X69887586Y-9911906D01*
X69852889Y-9904531D01*
X69802887Y-9882268D01*
X69752893Y-9864775D01*
X69726868Y-9848422D01*
X69700164Y-9836533D01*
X69650369Y-9800355D01*
X69601208Y-9769465D01*
X69583554Y-9751811D01*
X69564915Y-9738269D01*
X69518833Y-9687090D01*
X69474535Y-9642792D01*
X69464345Y-9626575D01*
X69453053Y-9614034D01*
X69414420Y-9547120D01*
X69379225Y-9491107D01*
X69374830Y-9478547D01*
X69369464Y-9469253D01*
X69341980Y-9384667D01*
X69320058Y-9322017D01*
X69319226Y-9314639D01*
X69317804Y-9310261D01*
X69304908Y-9187565D01*
X69300000Y-9144000D01*
X69304908Y-9100438D01*
X69317804Y-8977738D01*
X69319226Y-8973358D01*
X69320058Y-8965983D01*
X69341975Y-8903345D01*
X69369464Y-8818746D01*
X69374831Y-8809449D01*
X69379225Y-8796893D01*
X69414413Y-8740890D01*
X69453053Y-8673965D01*
X69464347Y-8661421D01*
X69474535Y-8645208D01*
X69518826Y-8600916D01*
X69564917Y-8549728D01*
X69583559Y-8536183D01*
X69601208Y-8518535D01*
X69650354Y-8487654D01*
X69700162Y-8451467D01*
X69726873Y-8439574D01*
X69752893Y-8423225D01*
X69802877Y-8405734D01*
X69852889Y-8383468D01*
X69887592Y-8376091D01*
X69921983Y-8364058D01*
X69969281Y-8358728D01*
X70016412Y-8348711D01*
X70058189Y-8348711D01*
X70100000Y-8344000D01*
X70141811Y-8348711D01*
G37*
G36*
X8847113Y-5104930D02*
G01*
X8894076Y-5104930D01*
X8934622Y-5113548D01*
X8975526Y-5117577D01*
X9026916Y-5133166D01*
X9078115Y-5144049D01*
X9110879Y-5158636D01*
X9144304Y-5168776D01*
X9197420Y-5197166D01*
X9250000Y-5220577D01*
X9274445Y-5238337D01*
X9299849Y-5251916D01*
X9351669Y-5294444D01*
X9402218Y-5331170D01*
X9418631Y-5349398D01*
X9436190Y-5363809D01*
X9483379Y-5421308D01*
X9528115Y-5470993D01*
X9537512Y-5487269D01*
X9548083Y-5500150D01*
X9587183Y-5573302D01*
X9622191Y-5633937D01*
X9626218Y-5646331D01*
X9631223Y-5655695D01*
X9658821Y-5746672D01*
X9680333Y-5812879D01*
X9681090Y-5820082D01*
X9682422Y-5824473D01*
X9695377Y-5956021D01*
X9700000Y-6000000D01*
X9695377Y-6043982D01*
X9682422Y-6175526D01*
X9681090Y-6179916D01*
X9680333Y-6187121D01*
X9658816Y-6253341D01*
X9631223Y-6344304D01*
X9626219Y-6353665D01*
X9622191Y-6366063D01*
X9587176Y-6426709D01*
X9548083Y-6499849D01*
X9537514Y-6512726D01*
X9528115Y-6529007D01*
X9483369Y-6578701D01*
X9436190Y-6636190D01*
X9418634Y-6650597D01*
X9402218Y-6668830D01*
X9351659Y-6705563D01*
X9299849Y-6748083D01*
X9274450Y-6761658D01*
X9250000Y-6779423D01*
X9197408Y-6802838D01*
X9144304Y-6831223D01*
X9110886Y-6841360D01*
X9078115Y-6855951D01*
X9026905Y-6866836D01*
X8975526Y-6882422D01*
X8934631Y-6886449D01*
X8894076Y-6895070D01*
X8847103Y-6895070D01*
X8800000Y-6899709D01*
X8752897Y-6895070D01*
X8705924Y-6895070D01*
X8665368Y-6886449D01*
X8624473Y-6882422D01*
X8573091Y-6866835D01*
X8521885Y-6855951D01*
X8489115Y-6841361D01*
X8455695Y-6831223D01*
X8402585Y-6802835D01*
X8350000Y-6779423D01*
X8325552Y-6761660D01*
X8300150Y-6748083D01*
X8248332Y-6705556D01*
X8197782Y-6668830D01*
X8181368Y-6650600D01*
X8163809Y-6636190D01*
X8116618Y-6578688D01*
X8071885Y-6529007D01*
X8062487Y-6512730D01*
X8051916Y-6499849D01*
X8012810Y-6426686D01*
X7977809Y-6366063D01*
X7973782Y-6353670D01*
X7968776Y-6344304D01*
X7941168Y-6253294D01*
X7919667Y-6187121D01*
X7918910Y-6179921D01*
X7917577Y-6175526D01*
X7904606Y-6043831D01*
X7900000Y-6000000D01*
X7904606Y-5956172D01*
X7917577Y-5824473D01*
X7918910Y-5820077D01*
X7919667Y-5812879D01*
X7941163Y-5746719D01*
X7968776Y-5655695D01*
X7973783Y-5646327D01*
X7977809Y-5633937D01*
X8012802Y-5573326D01*
X8051916Y-5500150D01*
X8062489Y-5487265D01*
X8071885Y-5470993D01*
X8116609Y-5421321D01*
X8163809Y-5363809D01*
X8181371Y-5349395D01*
X8197782Y-5331170D01*
X8248321Y-5294450D01*
X8300150Y-5251916D01*
X8325557Y-5238335D01*
X8350000Y-5220577D01*
X8402573Y-5197169D01*
X8455695Y-5168776D01*
X8489122Y-5158635D01*
X8521885Y-5144049D01*
X8573080Y-5133166D01*
X8624473Y-5117577D01*
X8665377Y-5113548D01*
X8705924Y-5104930D01*
X8752887Y-5104930D01*
X8800000Y-5100290D01*
X8847113Y-5104930D01*
G37*
G36*
X78947113Y-5104930D02*
G01*
X78994076Y-5104930D01*
X79034622Y-5113548D01*
X79075526Y-5117577D01*
X79126916Y-5133166D01*
X79178115Y-5144049D01*
X79210879Y-5158636D01*
X79244304Y-5168776D01*
X79297420Y-5197166D01*
X79350000Y-5220577D01*
X79374445Y-5238337D01*
X79399849Y-5251916D01*
X79451669Y-5294444D01*
X79502218Y-5331170D01*
X79518631Y-5349398D01*
X79536190Y-5363809D01*
X79583379Y-5421308D01*
X79628115Y-5470993D01*
X79637512Y-5487269D01*
X79648083Y-5500150D01*
X79687183Y-5573302D01*
X79722191Y-5633937D01*
X79726218Y-5646331D01*
X79731223Y-5655695D01*
X79758821Y-5746672D01*
X79780333Y-5812879D01*
X79781090Y-5820082D01*
X79782422Y-5824473D01*
X79795377Y-5956021D01*
X79800000Y-6000000D01*
X79795377Y-6043982D01*
X79782422Y-6175526D01*
X79781090Y-6179916D01*
X79780333Y-6187121D01*
X79758816Y-6253341D01*
X79731223Y-6344304D01*
X79726219Y-6353665D01*
X79722191Y-6366063D01*
X79687176Y-6426709D01*
X79648083Y-6499849D01*
X79637514Y-6512726D01*
X79628115Y-6529007D01*
X79583369Y-6578701D01*
X79536190Y-6636190D01*
X79518634Y-6650597D01*
X79502218Y-6668830D01*
X79451659Y-6705563D01*
X79399849Y-6748083D01*
X79374450Y-6761658D01*
X79350000Y-6779423D01*
X79297408Y-6802838D01*
X79244304Y-6831223D01*
X79210886Y-6841360D01*
X79178115Y-6855951D01*
X79126905Y-6866836D01*
X79075526Y-6882422D01*
X79034631Y-6886449D01*
X78994076Y-6895070D01*
X78947103Y-6895070D01*
X78900000Y-6899709D01*
X78852897Y-6895070D01*
X78805924Y-6895070D01*
X78765368Y-6886449D01*
X78724473Y-6882422D01*
X78673091Y-6866835D01*
X78621885Y-6855951D01*
X78589115Y-6841361D01*
X78555695Y-6831223D01*
X78502585Y-6802835D01*
X78450000Y-6779423D01*
X78425552Y-6761660D01*
X78400150Y-6748083D01*
X78348332Y-6705556D01*
X78297782Y-6668830D01*
X78281368Y-6650600D01*
X78263809Y-6636190D01*
X78216618Y-6578688D01*
X78171885Y-6529007D01*
X78162487Y-6512730D01*
X78151916Y-6499849D01*
X78112810Y-6426686D01*
X78077809Y-6366063D01*
X78073782Y-6353670D01*
X78068776Y-6344304D01*
X78041168Y-6253294D01*
X78019667Y-6187121D01*
X78018910Y-6179921D01*
X78017577Y-6175526D01*
X78004606Y-6043831D01*
X78000000Y-6000000D01*
X78004606Y-5956172D01*
X78017577Y-5824473D01*
X78018910Y-5820077D01*
X78019667Y-5812879D01*
X78041163Y-5746719D01*
X78068776Y-5655695D01*
X78073783Y-5646327D01*
X78077809Y-5633937D01*
X78112802Y-5573326D01*
X78151916Y-5500150D01*
X78162489Y-5487265D01*
X78171885Y-5470993D01*
X78216609Y-5421321D01*
X78263809Y-5363809D01*
X78281371Y-5349395D01*
X78297782Y-5331170D01*
X78348321Y-5294450D01*
X78400150Y-5251916D01*
X78425557Y-5238335D01*
X78450000Y-5220577D01*
X78502573Y-5197169D01*
X78555695Y-5168776D01*
X78589122Y-5158635D01*
X78621885Y-5144049D01*
X78673080Y-5133166D01*
X78724473Y-5117577D01*
X78765377Y-5113548D01*
X78805924Y-5104930D01*
X78852887Y-5104930D01*
X78900000Y-5100290D01*
X78947113Y-5104930D01*
G37*
G36*
X21970736Y-4588556D02*
G01*
X22044235Y-4592284D01*
X22066123Y-4597951D01*
X22085768Y-4599886D01*
X22156702Y-4621403D01*
X22230808Y-4640591D01*
X22248398Y-4649219D01*
X22264395Y-4654072D01*
X22332458Y-4690452D01*
X22403838Y-4725466D01*
X22416946Y-4735612D01*
X22429016Y-4742064D01*
X22491030Y-4792957D01*
X22556241Y-4843435D01*
X22565074Y-4853724D01*
X22573313Y-4860486D01*
X22626177Y-4924901D01*
X22681777Y-4989667D01*
X22686890Y-4998880D01*
X22691735Y-5004783D01*
X22732553Y-5081149D01*
X22775307Y-5158176D01*
X22777554Y-5165339D01*
X22779727Y-5169404D01*
X22805882Y-5255628D01*
X22833002Y-5342063D01*
X22833455Y-5346522D01*
X22833913Y-5348031D01*
X22843276Y-5443095D01*
X22852500Y-5533800D01*
X22852500Y-5628800D01*
X22847613Y-5725163D01*
X22838214Y-5770899D01*
X22833913Y-5814568D01*
X22819424Y-5862328D01*
X22808818Y-5913943D01*
X22791589Y-5954090D01*
X22779727Y-5993195D01*
X22754776Y-6039874D01*
X22732815Y-6091050D01*
X22709575Y-6124439D01*
X22691735Y-6157816D01*
X22656247Y-6201057D01*
X22622717Y-6249232D01*
X22595404Y-6275194D01*
X22573313Y-6302113D01*
X22527746Y-6339508D01*
X22483031Y-6382014D01*
X22453604Y-6400355D01*
X22429016Y-6420535D01*
X22374356Y-6449751D01*
X22319475Y-6483959D01*
X22289789Y-6494953D01*
X22264395Y-6508527D01*
X22202185Y-6527398D01*
X22138747Y-6550893D01*
X22110435Y-6555230D01*
X22085768Y-6562713D01*
X22018060Y-6569381D01*
X21948243Y-6580077D01*
X21922644Y-6578778D01*
X21900000Y-6581009D01*
X21829283Y-6574044D01*
X21755765Y-6570316D01*
X21733871Y-6564647D01*
X21714231Y-6562713D01*
X21643312Y-6541200D01*
X21569192Y-6522009D01*
X21551597Y-6513378D01*
X21535604Y-6508527D01*
X21467552Y-6472152D01*
X21396162Y-6437134D01*
X21383051Y-6426985D01*
X21370983Y-6420535D01*
X21308973Y-6369645D01*
X21243759Y-6319165D01*
X21234924Y-6308874D01*
X21226686Y-6302113D01*
X21173818Y-6237693D01*
X21118223Y-6172933D01*
X21113109Y-6163720D01*
X21108264Y-6157816D01*
X21067433Y-6081428D01*
X21024693Y-6004424D01*
X21022445Y-5997262D01*
X21020272Y-5993195D01*
X20994096Y-5906904D01*
X20966998Y-5820537D01*
X20966544Y-5816080D01*
X20966086Y-5814568D01*
X20956711Y-5719380D01*
X20947500Y-5628800D01*
X20947500Y-5533800D01*
X20952387Y-5437437D01*
X20961784Y-5391708D01*
X20966086Y-5348031D01*
X20980577Y-5300258D01*
X20991182Y-5248657D01*
X21008406Y-5208519D01*
X21020272Y-5169404D01*
X21045229Y-5122711D01*
X21067185Y-5071550D01*
X21090418Y-5038169D01*
X21108264Y-5004783D01*
X21143762Y-4961527D01*
X21177283Y-4913368D01*
X21204587Y-4887413D01*
X21226686Y-4860486D01*
X21272267Y-4823077D01*
X21316969Y-4780586D01*
X21346386Y-4762250D01*
X21370983Y-4742064D01*
X21425660Y-4712837D01*
X21480525Y-4678641D01*
X21510200Y-4667650D01*
X21535604Y-4654072D01*
X21597834Y-4635194D01*
X21661253Y-4611707D01*
X21689555Y-4607371D01*
X21714231Y-4599886D01*
X21781958Y-4593215D01*
X21851757Y-4582523D01*
X21877349Y-4583820D01*
X21900000Y-4581590D01*
X21970736Y-4588556D01*
G37*
G36*
X62600000Y-6549000D02*
G01*
X60200000Y-6549000D01*
X60200000Y-4149000D01*
X62600000Y-4149000D01*
X62600000Y-6549000D01*
G37*
G36*
X29365811Y-4792711D02*
G01*
X29407588Y-4792711D01*
X29454718Y-4802728D01*
X29502017Y-4808058D01*
X29536408Y-4820092D01*
X29571110Y-4827468D01*
X29621117Y-4849733D01*
X29671107Y-4867225D01*
X29697128Y-4883575D01*
X29723835Y-4895466D01*
X29773633Y-4931646D01*
X29822792Y-4962535D01*
X29840444Y-4980187D01*
X29859084Y-4993730D01*
X29905165Y-5044908D01*
X29949465Y-5089208D01*
X29959654Y-5105424D01*
X29970946Y-5117965D01*
X30009573Y-5184870D01*
X30044775Y-5240893D01*
X30049170Y-5253453D01*
X30054535Y-5262746D01*
X30082010Y-5347305D01*
X30103942Y-5409983D01*
X30104773Y-5417363D01*
X30106195Y-5421738D01*
X30119076Y-5544306D01*
X30124000Y-5588000D01*
X30119076Y-5631697D01*
X30106195Y-5754261D01*
X30104773Y-5758635D01*
X30103942Y-5766017D01*
X30082005Y-5828707D01*
X30054535Y-5913253D01*
X30049171Y-5922543D01*
X30044775Y-5935107D01*
X30009566Y-5991140D01*
X29970946Y-6058034D01*
X29959656Y-6070572D01*
X29949465Y-6086792D01*
X29905155Y-6131101D01*
X29859084Y-6182269D01*
X29840448Y-6195808D01*
X29822792Y-6213465D01*
X29773623Y-6244359D01*
X29723835Y-6280533D01*
X29697134Y-6292421D01*
X29671107Y-6308775D01*
X29621107Y-6326270D01*
X29571110Y-6348531D01*
X29536414Y-6355905D01*
X29502017Y-6367942D01*
X29454715Y-6373271D01*
X29407588Y-6383289D01*
X29365811Y-6383289D01*
X29324000Y-6388000D01*
X29282189Y-6383289D01*
X29240412Y-6383289D01*
X29193284Y-6373271D01*
X29145983Y-6367942D01*
X29111586Y-6355906D01*
X29076889Y-6348531D01*
X29026887Y-6326268D01*
X28976893Y-6308775D01*
X28950868Y-6292422D01*
X28924164Y-6280533D01*
X28874369Y-6244355D01*
X28825208Y-6213465D01*
X28807554Y-6195811D01*
X28788915Y-6182269D01*
X28742833Y-6131090D01*
X28698535Y-6086792D01*
X28688345Y-6070575D01*
X28677053Y-6058034D01*
X28638420Y-5991120D01*
X28603225Y-5935107D01*
X28598830Y-5922547D01*
X28593464Y-5913253D01*
X28565980Y-5828667D01*
X28544058Y-5766017D01*
X28543226Y-5758639D01*
X28541804Y-5754261D01*
X28528908Y-5631565D01*
X28524000Y-5588000D01*
X28528908Y-5544438D01*
X28541804Y-5421738D01*
X28543226Y-5417358D01*
X28544058Y-5409983D01*
X28565975Y-5347345D01*
X28593464Y-5262746D01*
X28598831Y-5253449D01*
X28603225Y-5240893D01*
X28638413Y-5184890D01*
X28677053Y-5117965D01*
X28688347Y-5105421D01*
X28698535Y-5089208D01*
X28742826Y-5044916D01*
X28788917Y-4993728D01*
X28807559Y-4980183D01*
X28825208Y-4962535D01*
X28874354Y-4931654D01*
X28924162Y-4895467D01*
X28950873Y-4883574D01*
X28976893Y-4867225D01*
X29026877Y-4849734D01*
X29076889Y-4827468D01*
X29111592Y-4820091D01*
X29145983Y-4808058D01*
X29193281Y-4802728D01*
X29240412Y-4792711D01*
X29282189Y-4792711D01*
X29324000Y-4788000D01*
X29365811Y-4792711D01*
G37*
G36*
X31905811Y-4792711D02*
G01*
X31947588Y-4792711D01*
X31994718Y-4802728D01*
X32042017Y-4808058D01*
X32076408Y-4820092D01*
X32111110Y-4827468D01*
X32161117Y-4849733D01*
X32211107Y-4867225D01*
X32237128Y-4883575D01*
X32263835Y-4895466D01*
X32313633Y-4931646D01*
X32362792Y-4962535D01*
X32380444Y-4980187D01*
X32399084Y-4993730D01*
X32445165Y-5044908D01*
X32489465Y-5089208D01*
X32499654Y-5105424D01*
X32510946Y-5117965D01*
X32549573Y-5184870D01*
X32584775Y-5240893D01*
X32589170Y-5253453D01*
X32594535Y-5262746D01*
X32622010Y-5347305D01*
X32643942Y-5409983D01*
X32644773Y-5417363D01*
X32646195Y-5421738D01*
X32659076Y-5544306D01*
X32664000Y-5588000D01*
X32659076Y-5631697D01*
X32646195Y-5754261D01*
X32644773Y-5758635D01*
X32643942Y-5766017D01*
X32622005Y-5828707D01*
X32594535Y-5913253D01*
X32589171Y-5922543D01*
X32584775Y-5935107D01*
X32549566Y-5991140D01*
X32510946Y-6058034D01*
X32499656Y-6070572D01*
X32489465Y-6086792D01*
X32445155Y-6131101D01*
X32399084Y-6182269D01*
X32380448Y-6195808D01*
X32362792Y-6213465D01*
X32313623Y-6244359D01*
X32263835Y-6280533D01*
X32237134Y-6292421D01*
X32211107Y-6308775D01*
X32161107Y-6326270D01*
X32111110Y-6348531D01*
X32076414Y-6355905D01*
X32042017Y-6367942D01*
X31994715Y-6373271D01*
X31947588Y-6383289D01*
X31905811Y-6383289D01*
X31864000Y-6388000D01*
X31822189Y-6383289D01*
X31780412Y-6383289D01*
X31733284Y-6373271D01*
X31685983Y-6367942D01*
X31651586Y-6355906D01*
X31616889Y-6348531D01*
X31566887Y-6326268D01*
X31516893Y-6308775D01*
X31490868Y-6292422D01*
X31464164Y-6280533D01*
X31414369Y-6244355D01*
X31365208Y-6213465D01*
X31347554Y-6195811D01*
X31328915Y-6182269D01*
X31282833Y-6131090D01*
X31238535Y-6086792D01*
X31228345Y-6070575D01*
X31217053Y-6058034D01*
X31178420Y-5991120D01*
X31143225Y-5935107D01*
X31138830Y-5922547D01*
X31133464Y-5913253D01*
X31105980Y-5828667D01*
X31084058Y-5766017D01*
X31083226Y-5758639D01*
X31081804Y-5754261D01*
X31068908Y-5631565D01*
X31064000Y-5588000D01*
X31068908Y-5544438D01*
X31081804Y-5421738D01*
X31083226Y-5417358D01*
X31084058Y-5409983D01*
X31105975Y-5347345D01*
X31133464Y-5262746D01*
X31138831Y-5253449D01*
X31143225Y-5240893D01*
X31178413Y-5184890D01*
X31217053Y-5117965D01*
X31228347Y-5105421D01*
X31238535Y-5089208D01*
X31282826Y-5044916D01*
X31328917Y-4993728D01*
X31347559Y-4980183D01*
X31365208Y-4962535D01*
X31414354Y-4931654D01*
X31464162Y-4895467D01*
X31490873Y-4883574D01*
X31516893Y-4867225D01*
X31566877Y-4849734D01*
X31616889Y-4827468D01*
X31651592Y-4820091D01*
X31685983Y-4808058D01*
X31733281Y-4802728D01*
X31780412Y-4792711D01*
X31822189Y-4792711D01*
X31864000Y-4788000D01*
X31905811Y-4792711D01*
G37*
G36*
X67601811Y-4538711D02*
G01*
X67643588Y-4538711D01*
X67690718Y-4548728D01*
X67738017Y-4554058D01*
X67772408Y-4566092D01*
X67807110Y-4573468D01*
X67857117Y-4595733D01*
X67907107Y-4613225D01*
X67933128Y-4629575D01*
X67959835Y-4641466D01*
X68009633Y-4677646D01*
X68058792Y-4708535D01*
X68076444Y-4726187D01*
X68095084Y-4739730D01*
X68141165Y-4790908D01*
X68185465Y-4835208D01*
X68195654Y-4851424D01*
X68206946Y-4863965D01*
X68245573Y-4930870D01*
X68280775Y-4986893D01*
X68285170Y-4999453D01*
X68290535Y-5008746D01*
X68318010Y-5093305D01*
X68339942Y-5155983D01*
X68340773Y-5163363D01*
X68342195Y-5167738D01*
X68355076Y-5290306D01*
X68360000Y-5334000D01*
X68355076Y-5377697D01*
X68342195Y-5500261D01*
X68340773Y-5504635D01*
X68339942Y-5512017D01*
X68318005Y-5574707D01*
X68290535Y-5659253D01*
X68285171Y-5668543D01*
X68280775Y-5681107D01*
X68245566Y-5737140D01*
X68206946Y-5804034D01*
X68195656Y-5816572D01*
X68185465Y-5832792D01*
X68141155Y-5877101D01*
X68095084Y-5928269D01*
X68076448Y-5941808D01*
X68058792Y-5959465D01*
X68009623Y-5990359D01*
X67959835Y-6026533D01*
X67933134Y-6038421D01*
X67907107Y-6054775D01*
X67857107Y-6072270D01*
X67807110Y-6094531D01*
X67772414Y-6101905D01*
X67738017Y-6113942D01*
X67690715Y-6119271D01*
X67643588Y-6129289D01*
X67601811Y-6129289D01*
X67560000Y-6134000D01*
X67518189Y-6129289D01*
X67476412Y-6129289D01*
X67429284Y-6119271D01*
X67381983Y-6113942D01*
X67347586Y-6101906D01*
X67312889Y-6094531D01*
X67262887Y-6072268D01*
X67212893Y-6054775D01*
X67186868Y-6038422D01*
X67160164Y-6026533D01*
X67110369Y-5990355D01*
X67061208Y-5959465D01*
X67043554Y-5941811D01*
X67024915Y-5928269D01*
X66978833Y-5877090D01*
X66934535Y-5832792D01*
X66924345Y-5816575D01*
X66913053Y-5804034D01*
X66874420Y-5737120D01*
X66839225Y-5681107D01*
X66834830Y-5668547D01*
X66829464Y-5659253D01*
X66801980Y-5574667D01*
X66780058Y-5512017D01*
X66779226Y-5504639D01*
X66777804Y-5500261D01*
X66764908Y-5377565D01*
X66760000Y-5334000D01*
X66764908Y-5290438D01*
X66777804Y-5167738D01*
X66779226Y-5163358D01*
X66780058Y-5155983D01*
X66801975Y-5093345D01*
X66829464Y-5008746D01*
X66834831Y-4999449D01*
X66839225Y-4986893D01*
X66874413Y-4930890D01*
X66913053Y-4863965D01*
X66924347Y-4851421D01*
X66934535Y-4835208D01*
X66978826Y-4790916D01*
X67024917Y-4739728D01*
X67043559Y-4726183D01*
X67061208Y-4708535D01*
X67110354Y-4677654D01*
X67160162Y-4641467D01*
X67186873Y-4629574D01*
X67212893Y-4613225D01*
X67262877Y-4595734D01*
X67312889Y-4573468D01*
X67347592Y-4566091D01*
X67381983Y-4554058D01*
X67429281Y-4548728D01*
X67476412Y-4538711D01*
X67518189Y-4538711D01*
X67560000Y-4534000D01*
X67601811Y-4538711D01*
G37*
G36*
X70141811Y-4538711D02*
G01*
X70183588Y-4538711D01*
X70230718Y-4548728D01*
X70278017Y-4554058D01*
X70312408Y-4566092D01*
X70347110Y-4573468D01*
X70397117Y-4595733D01*
X70447107Y-4613225D01*
X70473128Y-4629575D01*
X70499835Y-4641466D01*
X70549633Y-4677646D01*
X70598792Y-4708535D01*
X70616444Y-4726187D01*
X70635084Y-4739730D01*
X70681165Y-4790908D01*
X70725465Y-4835208D01*
X70735654Y-4851424D01*
X70746946Y-4863965D01*
X70785573Y-4930870D01*
X70820775Y-4986893D01*
X70825170Y-4999453D01*
X70830535Y-5008746D01*
X70858010Y-5093305D01*
X70879942Y-5155983D01*
X70880773Y-5163363D01*
X70882195Y-5167738D01*
X70895076Y-5290306D01*
X70900000Y-5334000D01*
X70895076Y-5377697D01*
X70882195Y-5500261D01*
X70880773Y-5504635D01*
X70879942Y-5512017D01*
X70858005Y-5574707D01*
X70830535Y-5659253D01*
X70825171Y-5668543D01*
X70820775Y-5681107D01*
X70785566Y-5737140D01*
X70746946Y-5804034D01*
X70735656Y-5816572D01*
X70725465Y-5832792D01*
X70681155Y-5877101D01*
X70635084Y-5928269D01*
X70616448Y-5941808D01*
X70598792Y-5959465D01*
X70549623Y-5990359D01*
X70499835Y-6026533D01*
X70473134Y-6038421D01*
X70447107Y-6054775D01*
X70397107Y-6072270D01*
X70347110Y-6094531D01*
X70312414Y-6101905D01*
X70278017Y-6113942D01*
X70230715Y-6119271D01*
X70183588Y-6129289D01*
X70141811Y-6129289D01*
X70100000Y-6134000D01*
X70058189Y-6129289D01*
X70016412Y-6129289D01*
X69969284Y-6119271D01*
X69921983Y-6113942D01*
X69887586Y-6101906D01*
X69852889Y-6094531D01*
X69802887Y-6072268D01*
X69752893Y-6054775D01*
X69726868Y-6038422D01*
X69700164Y-6026533D01*
X69650369Y-5990355D01*
X69601208Y-5959465D01*
X69583554Y-5941811D01*
X69564915Y-5928269D01*
X69518833Y-5877090D01*
X69474535Y-5832792D01*
X69464345Y-5816575D01*
X69453053Y-5804034D01*
X69414420Y-5737120D01*
X69379225Y-5681107D01*
X69374830Y-5668547D01*
X69369464Y-5659253D01*
X69341980Y-5574667D01*
X69320058Y-5512017D01*
X69319226Y-5504639D01*
X69317804Y-5500261D01*
X69304908Y-5377565D01*
X69300000Y-5334000D01*
X69304908Y-5290438D01*
X69317804Y-5167738D01*
X69319226Y-5163358D01*
X69320058Y-5155983D01*
X69341975Y-5093345D01*
X69369464Y-5008746D01*
X69374831Y-4999449D01*
X69379225Y-4986893D01*
X69414413Y-4930890D01*
X69453053Y-4863965D01*
X69464347Y-4851421D01*
X69474535Y-4835208D01*
X69518826Y-4790916D01*
X69564917Y-4739728D01*
X69583559Y-4726183D01*
X69601208Y-4708535D01*
X69650354Y-4677654D01*
X69700162Y-4641467D01*
X69726873Y-4629574D01*
X69752893Y-4613225D01*
X69802877Y-4595734D01*
X69852889Y-4573468D01*
X69887592Y-4566091D01*
X69921983Y-4554058D01*
X69969281Y-4548728D01*
X70016412Y-4538711D01*
X70058189Y-4538711D01*
X70100000Y-4534000D01*
X70141811Y-4538711D01*
G37*
G36*
X49821811Y-4223711D02*
G01*
X49863588Y-4223711D01*
X49910718Y-4233728D01*
X49958017Y-4239058D01*
X49992408Y-4251092D01*
X50027110Y-4258468D01*
X50077117Y-4280733D01*
X50127107Y-4298225D01*
X50153128Y-4314575D01*
X50179835Y-4326466D01*
X50229633Y-4362646D01*
X50278792Y-4393535D01*
X50296444Y-4411187D01*
X50315084Y-4424730D01*
X50361165Y-4475908D01*
X50405465Y-4520208D01*
X50415654Y-4536424D01*
X50426946Y-4548965D01*
X50465573Y-4615870D01*
X50500775Y-4671893D01*
X50505170Y-4684453D01*
X50510535Y-4693746D01*
X50538010Y-4778305D01*
X50559942Y-4840983D01*
X50560773Y-4848363D01*
X50562195Y-4852738D01*
X50575077Y-4975316D01*
X50580000Y-5019000D01*
X50575075Y-5062707D01*
X50562195Y-5185261D01*
X50560773Y-5189635D01*
X50559942Y-5197017D01*
X50538005Y-5259707D01*
X50510535Y-5344253D01*
X50505171Y-5353543D01*
X50500775Y-5366107D01*
X50465566Y-5422140D01*
X50426946Y-5489034D01*
X50415656Y-5501572D01*
X50405465Y-5517792D01*
X50361155Y-5562101D01*
X50315084Y-5613269D01*
X50296448Y-5626808D01*
X50278792Y-5644465D01*
X50229623Y-5675359D01*
X50179835Y-5711533D01*
X50153134Y-5723421D01*
X50127107Y-5739775D01*
X50077107Y-5757270D01*
X50027110Y-5779531D01*
X49992414Y-5786905D01*
X49958017Y-5798942D01*
X49910715Y-5804271D01*
X49863588Y-5814289D01*
X49821811Y-5814289D01*
X49780000Y-5819000D01*
X49738189Y-5814289D01*
X49696412Y-5814289D01*
X49649284Y-5804271D01*
X49601983Y-5798942D01*
X49567586Y-5786906D01*
X49532889Y-5779531D01*
X49482887Y-5757268D01*
X49432893Y-5739775D01*
X49406868Y-5723422D01*
X49380164Y-5711533D01*
X49330369Y-5675355D01*
X49281208Y-5644465D01*
X49263554Y-5626811D01*
X49244915Y-5613269D01*
X49198833Y-5562090D01*
X49154535Y-5517792D01*
X49144345Y-5501575D01*
X49133053Y-5489034D01*
X49094420Y-5422120D01*
X49059225Y-5366107D01*
X49054830Y-5353547D01*
X49049464Y-5344253D01*
X49021980Y-5259667D01*
X49000058Y-5197017D01*
X48999226Y-5189639D01*
X48997804Y-5185261D01*
X48984909Y-5062575D01*
X48980000Y-5019000D01*
X48984907Y-4975448D01*
X48997804Y-4852738D01*
X48999226Y-4848358D01*
X49000058Y-4840983D01*
X49021975Y-4778345D01*
X49049464Y-4693746D01*
X49054831Y-4684449D01*
X49059225Y-4671893D01*
X49094413Y-4615890D01*
X49133053Y-4548965D01*
X49144347Y-4536421D01*
X49154535Y-4520208D01*
X49198826Y-4475916D01*
X49244917Y-4424728D01*
X49263559Y-4411183D01*
X49281208Y-4393535D01*
X49330354Y-4362654D01*
X49380162Y-4326467D01*
X49406873Y-4314574D01*
X49432893Y-4298225D01*
X49482877Y-4280734D01*
X49532889Y-4258468D01*
X49567592Y-4251091D01*
X49601983Y-4239058D01*
X49649281Y-4233728D01*
X49696412Y-4223711D01*
X49738189Y-4223711D01*
X49780000Y-4219000D01*
X49821811Y-4223711D01*
G37*
G36*
X58200000Y-5819000D02*
G01*
X56600000Y-5819000D01*
X56600000Y-4219000D01*
X58200000Y-4219000D01*
X58200000Y-5819000D01*
G37*
G36*
X24510736Y-3318556D02*
G01*
X24584235Y-3322284D01*
X24606123Y-3327951D01*
X24625768Y-3329886D01*
X24696702Y-3351403D01*
X24770808Y-3370591D01*
X24788398Y-3379219D01*
X24804395Y-3384072D01*
X24872458Y-3420452D01*
X24943838Y-3455466D01*
X24956946Y-3465612D01*
X24969016Y-3472064D01*
X25031030Y-3522957D01*
X25096241Y-3573435D01*
X25105074Y-3583724D01*
X25113313Y-3590486D01*
X25166177Y-3654901D01*
X25221777Y-3719667D01*
X25226890Y-3728880D01*
X25231735Y-3734783D01*
X25272553Y-3811149D01*
X25315307Y-3888176D01*
X25317554Y-3895339D01*
X25319727Y-3899404D01*
X25345882Y-3985628D01*
X25373002Y-4072063D01*
X25373455Y-4076522D01*
X25373913Y-4078031D01*
X25383276Y-4173095D01*
X25392500Y-4263800D01*
X25392500Y-4358800D01*
X25387613Y-4455163D01*
X25378214Y-4500899D01*
X25373913Y-4544568D01*
X25359424Y-4592328D01*
X25348818Y-4643943D01*
X25331589Y-4684090D01*
X25319727Y-4723195D01*
X25294776Y-4769874D01*
X25272815Y-4821050D01*
X25249575Y-4854439D01*
X25231735Y-4887816D01*
X25196247Y-4931057D01*
X25162717Y-4979232D01*
X25135404Y-5005194D01*
X25113313Y-5032113D01*
X25067746Y-5069508D01*
X25023031Y-5112014D01*
X24993604Y-5130355D01*
X24969016Y-5150535D01*
X24914356Y-5179751D01*
X24859475Y-5213959D01*
X24829789Y-5224953D01*
X24804395Y-5238527D01*
X24742185Y-5257398D01*
X24678747Y-5280893D01*
X24650435Y-5285230D01*
X24625768Y-5292713D01*
X24558060Y-5299381D01*
X24488243Y-5310077D01*
X24462644Y-5308778D01*
X24440000Y-5311009D01*
X24369283Y-5304044D01*
X24295765Y-5300316D01*
X24273871Y-5294647D01*
X24254231Y-5292713D01*
X24183312Y-5271200D01*
X24109192Y-5252009D01*
X24091597Y-5243378D01*
X24075604Y-5238527D01*
X24007552Y-5202152D01*
X23936162Y-5167134D01*
X23923051Y-5156985D01*
X23910983Y-5150535D01*
X23848973Y-5099645D01*
X23783759Y-5049165D01*
X23774924Y-5038874D01*
X23766686Y-5032113D01*
X23713818Y-4967693D01*
X23658223Y-4902933D01*
X23653109Y-4893720D01*
X23648264Y-4887816D01*
X23607433Y-4811428D01*
X23564693Y-4734424D01*
X23562445Y-4727262D01*
X23560272Y-4723195D01*
X23534096Y-4636904D01*
X23506998Y-4550537D01*
X23506544Y-4546080D01*
X23506086Y-4544568D01*
X23496711Y-4449380D01*
X23487500Y-4358800D01*
X23487500Y-4263800D01*
X23492387Y-4167437D01*
X23501784Y-4121708D01*
X23506086Y-4078031D01*
X23520577Y-4030258D01*
X23531182Y-3978657D01*
X23548406Y-3938519D01*
X23560272Y-3899404D01*
X23585229Y-3852711D01*
X23607185Y-3801550D01*
X23630418Y-3768169D01*
X23648264Y-3734783D01*
X23683762Y-3691527D01*
X23717283Y-3643368D01*
X23744587Y-3617413D01*
X23766686Y-3590486D01*
X23812267Y-3553077D01*
X23856969Y-3510586D01*
X23886386Y-3492250D01*
X23910983Y-3472064D01*
X23965660Y-3442837D01*
X24020525Y-3408641D01*
X24050200Y-3397650D01*
X24075604Y-3384072D01*
X24137834Y-3365194D01*
X24201253Y-3341707D01*
X24229555Y-3337371D01*
X24254231Y-3329886D01*
X24321958Y-3323215D01*
X24391757Y-3312523D01*
X24417349Y-3313820D01*
X24440000Y-3311590D01*
X24510736Y-3318556D01*
G37*
G36*
X19545824Y-3377102D02*
G01*
X19724506Y-3431305D01*
X19889181Y-3519325D01*
X20033519Y-3637781D01*
X20151975Y-3782119D01*
X20239995Y-3946794D01*
X20294198Y-4125476D01*
X20312500Y-4311300D01*
X20294198Y-4497124D01*
X20239995Y-4675806D01*
X20151975Y-4840481D01*
X20033519Y-4984819D01*
X19889181Y-5103275D01*
X19724506Y-5191295D01*
X19545824Y-5245498D01*
X19360000Y-5263800D01*
X19174176Y-5245498D01*
X18995494Y-5191295D01*
X18830819Y-5103275D01*
X18686481Y-4984819D01*
X18568025Y-4840481D01*
X18480005Y-4675806D01*
X18425802Y-4497124D01*
X18407500Y-4311300D01*
X18425802Y-4125476D01*
X18480005Y-3946794D01*
X18568025Y-3782119D01*
X18686481Y-3637781D01*
X18830819Y-3519325D01*
X18995494Y-3431305D01*
X19174176Y-3377102D01*
X19360000Y-3358800D01*
X19545824Y-3377102D01*
G37*
G36*
X49821811Y-1683711D02*
G01*
X49863588Y-1683711D01*
X49910718Y-1693728D01*
X49958017Y-1699058D01*
X49992408Y-1711092D01*
X50027110Y-1718468D01*
X50077117Y-1740733D01*
X50127107Y-1758225D01*
X50153128Y-1774575D01*
X50179835Y-1786466D01*
X50229633Y-1822646D01*
X50278792Y-1853535D01*
X50296444Y-1871187D01*
X50315084Y-1884730D01*
X50361165Y-1935908D01*
X50405465Y-1980208D01*
X50415654Y-1996424D01*
X50426946Y-2008965D01*
X50465573Y-2075870D01*
X50500775Y-2131893D01*
X50505170Y-2144453D01*
X50510535Y-2153746D01*
X50538010Y-2238305D01*
X50559942Y-2300983D01*
X50560773Y-2308363D01*
X50562195Y-2312738D01*
X50575076Y-2435306D01*
X50580000Y-2479000D01*
X50575076Y-2522697D01*
X50562195Y-2645261D01*
X50560773Y-2649635D01*
X50559942Y-2657017D01*
X50538005Y-2719707D01*
X50510535Y-2804253D01*
X50505171Y-2813543D01*
X50500775Y-2826107D01*
X50465566Y-2882140D01*
X50426946Y-2949034D01*
X50415656Y-2961572D01*
X50405465Y-2977792D01*
X50361155Y-3022101D01*
X50315084Y-3073269D01*
X50296448Y-3086808D01*
X50278792Y-3104465D01*
X50229623Y-3135359D01*
X50179835Y-3171533D01*
X50153134Y-3183421D01*
X50127107Y-3199775D01*
X50077107Y-3217270D01*
X50027110Y-3239531D01*
X49992414Y-3246905D01*
X49958017Y-3258942D01*
X49910715Y-3264271D01*
X49863588Y-3274289D01*
X49821811Y-3274289D01*
X49780000Y-3279000D01*
X49738189Y-3274289D01*
X49696412Y-3274289D01*
X49649284Y-3264271D01*
X49601983Y-3258942D01*
X49567586Y-3246906D01*
X49532889Y-3239531D01*
X49482887Y-3217268D01*
X49432893Y-3199775D01*
X49406868Y-3183422D01*
X49380164Y-3171533D01*
X49330369Y-3135355D01*
X49281208Y-3104465D01*
X49263554Y-3086811D01*
X49244915Y-3073269D01*
X49198833Y-3022090D01*
X49154535Y-2977792D01*
X49144345Y-2961575D01*
X49133053Y-2949034D01*
X49094420Y-2882120D01*
X49059225Y-2826107D01*
X49054830Y-2813547D01*
X49049464Y-2804253D01*
X49021980Y-2719667D01*
X49000058Y-2657017D01*
X48999226Y-2649639D01*
X48997804Y-2645261D01*
X48984908Y-2522565D01*
X48980000Y-2479000D01*
X48984908Y-2435438D01*
X48997804Y-2312738D01*
X48999226Y-2308358D01*
X49000058Y-2300983D01*
X49021975Y-2238345D01*
X49049464Y-2153746D01*
X49054831Y-2144449D01*
X49059225Y-2131893D01*
X49094413Y-2075890D01*
X49133053Y-2008965D01*
X49144347Y-1996421D01*
X49154535Y-1980208D01*
X49198826Y-1935916D01*
X49244917Y-1884728D01*
X49263559Y-1871183D01*
X49281208Y-1853535D01*
X49330354Y-1822654D01*
X49380162Y-1786467D01*
X49406873Y-1774574D01*
X49432893Y-1758225D01*
X49482877Y-1740734D01*
X49532889Y-1718468D01*
X49567592Y-1711091D01*
X49601983Y-1699058D01*
X49649281Y-1693728D01*
X49696412Y-1683711D01*
X49738189Y-1683711D01*
X49780000Y-1679000D01*
X49821811Y-1683711D01*
G37*
G36*
X57441811Y-1683711D02*
G01*
X57483588Y-1683711D01*
X57530718Y-1693728D01*
X57578017Y-1699058D01*
X57612408Y-1711092D01*
X57647110Y-1718468D01*
X57697117Y-1740733D01*
X57747107Y-1758225D01*
X57773128Y-1774575D01*
X57799835Y-1786466D01*
X57849633Y-1822646D01*
X57898792Y-1853535D01*
X57916444Y-1871187D01*
X57935084Y-1884730D01*
X57981165Y-1935908D01*
X58025465Y-1980208D01*
X58035654Y-1996424D01*
X58046946Y-2008965D01*
X58085573Y-2075870D01*
X58120775Y-2131893D01*
X58125170Y-2144453D01*
X58130535Y-2153746D01*
X58158010Y-2238305D01*
X58179942Y-2300983D01*
X58180773Y-2308363D01*
X58182195Y-2312738D01*
X58195076Y-2435306D01*
X58200000Y-2479000D01*
X58195076Y-2522697D01*
X58182195Y-2645261D01*
X58180773Y-2649635D01*
X58179942Y-2657017D01*
X58158005Y-2719707D01*
X58130535Y-2804253D01*
X58125171Y-2813543D01*
X58120775Y-2826107D01*
X58085566Y-2882140D01*
X58046946Y-2949034D01*
X58035656Y-2961572D01*
X58025465Y-2977792D01*
X57981155Y-3022101D01*
X57935084Y-3073269D01*
X57916448Y-3086808D01*
X57898792Y-3104465D01*
X57849623Y-3135359D01*
X57799835Y-3171533D01*
X57773134Y-3183421D01*
X57747107Y-3199775D01*
X57697107Y-3217270D01*
X57647110Y-3239531D01*
X57612414Y-3246905D01*
X57578017Y-3258942D01*
X57530715Y-3264271D01*
X57483588Y-3274289D01*
X57441811Y-3274289D01*
X57400000Y-3279000D01*
X57358189Y-3274289D01*
X57316412Y-3274289D01*
X57269284Y-3264271D01*
X57221983Y-3258942D01*
X57187586Y-3246906D01*
X57152889Y-3239531D01*
X57102887Y-3217268D01*
X57052893Y-3199775D01*
X57026868Y-3183422D01*
X57000164Y-3171533D01*
X56950369Y-3135355D01*
X56901208Y-3104465D01*
X56883554Y-3086811D01*
X56864915Y-3073269D01*
X56818833Y-3022090D01*
X56774535Y-2977792D01*
X56764345Y-2961575D01*
X56753053Y-2949034D01*
X56714420Y-2882120D01*
X56679225Y-2826107D01*
X56674830Y-2813547D01*
X56669464Y-2804253D01*
X56641980Y-2719667D01*
X56620058Y-2657017D01*
X56619226Y-2649639D01*
X56617804Y-2645261D01*
X56604908Y-2522565D01*
X56600000Y-2479000D01*
X56604908Y-2435438D01*
X56617804Y-2312738D01*
X56619226Y-2308358D01*
X56620058Y-2300983D01*
X56641975Y-2238345D01*
X56669464Y-2153746D01*
X56674831Y-2144449D01*
X56679225Y-2131893D01*
X56714413Y-2075890D01*
X56753053Y-2008965D01*
X56764347Y-1996421D01*
X56774535Y-1980208D01*
X56818826Y-1935916D01*
X56864917Y-1884728D01*
X56883559Y-1871183D01*
X56901208Y-1853535D01*
X56950354Y-1822654D01*
X57000162Y-1786467D01*
X57026873Y-1774574D01*
X57052893Y-1758225D01*
X57102877Y-1740734D01*
X57152889Y-1718468D01*
X57187592Y-1711091D01*
X57221983Y-1699058D01*
X57269281Y-1693728D01*
X57316412Y-1683711D01*
X57358189Y-1683711D01*
X57400000Y-1679000D01*
X57441811Y-1683711D01*
G37*
G36*
X61455893Y-344119D02*
G01*
X61510722Y-344119D01*
X61558959Y-353136D01*
X61608337Y-357456D01*
X61668942Y-373695D01*
X61728396Y-384809D01*
X61768721Y-400431D01*
X61810344Y-411584D01*
X61873358Y-440967D01*
X61934886Y-464804D01*
X61966644Y-484467D01*
X61999889Y-499970D01*
X62062599Y-543880D01*
X62123162Y-581379D01*
X62146376Y-602541D01*
X62171195Y-619920D01*
X62230564Y-679289D01*
X62286811Y-730565D01*
X62302143Y-750868D01*
X62319079Y-767804D01*
X62371904Y-843246D01*
X62420261Y-907281D01*
X62428924Y-924680D01*
X62439032Y-939115D01*
X62482075Y-1031421D01*
X62518967Y-1105510D01*
X62522634Y-1118401D01*
X62527414Y-1128650D01*
X62557534Y-1241059D01*
X62579568Y-1318501D01*
X62580246Y-1325823D01*
X62581543Y-1330662D01*
X62595882Y-1494568D01*
X62600000Y-1539000D01*
X62595880Y-1583462D01*
X62581543Y-1747337D01*
X62580246Y-1752174D01*
X62579568Y-1759499D01*
X62557527Y-1836965D01*
X62527415Y-1949344D01*
X62522637Y-1959589D01*
X62518967Y-1972490D01*
X62482052Y-2046625D01*
X62439029Y-2138889D01*
X62428925Y-2153318D01*
X62420261Y-2170719D01*
X62371897Y-2234762D01*
X62319079Y-2310195D01*
X62302146Y-2327127D01*
X62286811Y-2347435D01*
X62230552Y-2398721D01*
X62171195Y-2458079D01*
X62146381Y-2475453D01*
X62123162Y-2496621D01*
X62062587Y-2534127D01*
X61999889Y-2578029D01*
X61966650Y-2593528D01*
X61934886Y-2613196D01*
X61873345Y-2637037D01*
X61810344Y-2666415D01*
X61768729Y-2677565D01*
X61728396Y-2693191D01*
X61668930Y-2704307D01*
X61608337Y-2720543D01*
X61558969Y-2724862D01*
X61510722Y-2733881D01*
X61455882Y-2733881D01*
X61400000Y-2738770D01*
X61344118Y-2733881D01*
X61289278Y-2733881D01*
X61241031Y-2724862D01*
X61191662Y-2720543D01*
X61131066Y-2704306D01*
X61071604Y-2693191D01*
X61031272Y-2677566D01*
X60989655Y-2666415D01*
X60926648Y-2637034D01*
X60865114Y-2613196D01*
X60833352Y-2593530D01*
X60800110Y-2578029D01*
X60737404Y-2534121D01*
X60676838Y-2496621D01*
X60653621Y-2475456D01*
X60628804Y-2458079D01*
X60569435Y-2398710D01*
X60513189Y-2347435D01*
X60497856Y-2327131D01*
X60480920Y-2310195D01*
X60428088Y-2234743D01*
X60379739Y-2170719D01*
X60371076Y-2153323D01*
X60360970Y-2138889D01*
X60317932Y-2046593D01*
X60281033Y-1972490D01*
X60277364Y-1959594D01*
X60272584Y-1949344D01*
X60242455Y-1836904D01*
X60220432Y-1759499D01*
X60219753Y-1752180D01*
X60218456Y-1747337D01*
X60204102Y-1583268D01*
X60200000Y-1539000D01*
X60204099Y-1494761D01*
X60218456Y-1330662D01*
X60219754Y-1325817D01*
X60220432Y-1318501D01*
X60242448Y-1241120D01*
X60272585Y-1128650D01*
X60277366Y-1118395D01*
X60281033Y-1105510D01*
X60317909Y-1031452D01*
X60360967Y-939115D01*
X60371077Y-924675D01*
X60379739Y-907281D01*
X60428081Y-843264D01*
X60480920Y-767804D01*
X60497859Y-750864D01*
X60513189Y-730565D01*
X60569424Y-679299D01*
X60628804Y-619920D01*
X60653626Y-602539D01*
X60676838Y-581379D01*
X60737395Y-543883D01*
X60800115Y-499967D01*
X60833364Y-484462D01*
X60865114Y-464804D01*
X60926621Y-440975D01*
X60989650Y-411585D01*
X61031283Y-400429D01*
X61071604Y-384809D01*
X61131053Y-373696D01*
X61191662Y-357456D01*
X61241041Y-353135D01*
X61289278Y-344119D01*
X61344106Y-344119D01*
X61400000Y-339229D01*
X61455893Y-344119D01*
G37*
G36*
X29815811Y-855711D02*
G01*
X29857588Y-855711D01*
X29904718Y-865728D01*
X29952017Y-871058D01*
X29986408Y-883092D01*
X30021110Y-890468D01*
X30071117Y-912733D01*
X30121107Y-930225D01*
X30147128Y-946575D01*
X30173835Y-958466D01*
X30223633Y-994646D01*
X30272792Y-1025535D01*
X30290444Y-1043187D01*
X30309084Y-1056730D01*
X30355165Y-1107908D01*
X30399465Y-1152208D01*
X30409654Y-1168424D01*
X30420946Y-1180965D01*
X30459573Y-1247870D01*
X30494775Y-1303893D01*
X30499170Y-1316453D01*
X30504535Y-1325746D01*
X30532010Y-1410305D01*
X30553942Y-1472983D01*
X30554773Y-1480363D01*
X30556195Y-1484738D01*
X30569076Y-1607306D01*
X30574000Y-1651000D01*
X30569076Y-1694697D01*
X30556195Y-1817261D01*
X30554773Y-1821635D01*
X30553942Y-1829017D01*
X30532005Y-1891707D01*
X30504535Y-1976253D01*
X30499171Y-1985543D01*
X30494775Y-1998107D01*
X30459566Y-2054140D01*
X30420946Y-2121034D01*
X30409656Y-2133572D01*
X30399465Y-2149792D01*
X30355155Y-2194101D01*
X30309084Y-2245269D01*
X30290448Y-2258808D01*
X30272792Y-2276465D01*
X30223623Y-2307359D01*
X30173835Y-2343533D01*
X30147134Y-2355421D01*
X30121107Y-2371775D01*
X30071107Y-2389270D01*
X30021110Y-2411531D01*
X29986414Y-2418905D01*
X29952017Y-2430942D01*
X29904715Y-2436271D01*
X29857588Y-2446289D01*
X29815811Y-2446289D01*
X29774000Y-2451000D01*
X29732189Y-2446289D01*
X29690412Y-2446289D01*
X29643284Y-2436271D01*
X29595983Y-2430942D01*
X29561586Y-2418906D01*
X29526889Y-2411531D01*
X29476887Y-2389268D01*
X29426893Y-2371775D01*
X29400868Y-2355422D01*
X29374164Y-2343533D01*
X29324369Y-2307355D01*
X29275208Y-2276465D01*
X29257554Y-2258811D01*
X29238915Y-2245269D01*
X29192833Y-2194090D01*
X29148535Y-2149792D01*
X29138345Y-2133575D01*
X29127053Y-2121034D01*
X29088420Y-2054120D01*
X29053225Y-1998107D01*
X29048830Y-1985547D01*
X29043464Y-1976253D01*
X29015980Y-1891667D01*
X28994058Y-1829017D01*
X28993226Y-1821639D01*
X28991804Y-1817261D01*
X28978908Y-1694565D01*
X28974000Y-1651000D01*
X28978908Y-1607438D01*
X28991804Y-1484738D01*
X28993226Y-1480358D01*
X28994058Y-1472983D01*
X29015975Y-1410345D01*
X29043464Y-1325746D01*
X29048831Y-1316449D01*
X29053225Y-1303893D01*
X29088413Y-1247890D01*
X29127053Y-1180965D01*
X29138347Y-1168421D01*
X29148535Y-1152208D01*
X29192826Y-1107916D01*
X29238917Y-1056728D01*
X29257559Y-1043183D01*
X29275208Y-1025535D01*
X29324354Y-994654D01*
X29374162Y-958467D01*
X29400873Y-946574D01*
X29426893Y-930225D01*
X29476877Y-912734D01*
X29526889Y-890468D01*
X29561592Y-883091D01*
X29595983Y-871058D01*
X29643281Y-865728D01*
X29690412Y-855711D01*
X29732189Y-855711D01*
X29774000Y-851000D01*
X29815811Y-855711D01*
G37*
G36*
X32355811Y-855711D02*
G01*
X32397588Y-855711D01*
X32444718Y-865728D01*
X32492017Y-871058D01*
X32526408Y-883092D01*
X32561110Y-890468D01*
X32611117Y-912733D01*
X32661107Y-930225D01*
X32687128Y-946575D01*
X32713835Y-958466D01*
X32763633Y-994646D01*
X32812792Y-1025535D01*
X32830444Y-1043187D01*
X32849084Y-1056730D01*
X32895165Y-1107908D01*
X32939465Y-1152208D01*
X32949654Y-1168424D01*
X32960946Y-1180965D01*
X32999573Y-1247870D01*
X33034775Y-1303893D01*
X33039170Y-1316453D01*
X33044535Y-1325746D01*
X33072010Y-1410305D01*
X33093942Y-1472983D01*
X33094773Y-1480363D01*
X33096195Y-1484738D01*
X33109076Y-1607306D01*
X33114000Y-1651000D01*
X33109076Y-1694697D01*
X33096195Y-1817261D01*
X33094773Y-1821635D01*
X33093942Y-1829017D01*
X33072005Y-1891707D01*
X33044535Y-1976253D01*
X33039171Y-1985543D01*
X33034775Y-1998107D01*
X32999566Y-2054140D01*
X32960946Y-2121034D01*
X32949656Y-2133572D01*
X32939465Y-2149792D01*
X32895155Y-2194101D01*
X32849084Y-2245269D01*
X32830448Y-2258808D01*
X32812792Y-2276465D01*
X32763623Y-2307359D01*
X32713835Y-2343533D01*
X32687134Y-2355421D01*
X32661107Y-2371775D01*
X32611107Y-2389270D01*
X32561110Y-2411531D01*
X32526414Y-2418905D01*
X32492017Y-2430942D01*
X32444715Y-2436271D01*
X32397588Y-2446289D01*
X32355811Y-2446289D01*
X32314000Y-2451000D01*
X32272189Y-2446289D01*
X32230412Y-2446289D01*
X32183284Y-2436271D01*
X32135983Y-2430942D01*
X32101586Y-2418906D01*
X32066889Y-2411531D01*
X32016887Y-2389268D01*
X31966893Y-2371775D01*
X31940868Y-2355422D01*
X31914164Y-2343533D01*
X31864369Y-2307355D01*
X31815208Y-2276465D01*
X31797554Y-2258811D01*
X31778915Y-2245269D01*
X31732833Y-2194090D01*
X31688535Y-2149792D01*
X31678345Y-2133575D01*
X31667053Y-2121034D01*
X31628420Y-2054120D01*
X31593225Y-1998107D01*
X31588830Y-1985547D01*
X31583464Y-1976253D01*
X31555980Y-1891667D01*
X31534058Y-1829017D01*
X31533226Y-1821639D01*
X31531804Y-1817261D01*
X31518908Y-1694565D01*
X31514000Y-1651000D01*
X31518908Y-1607438D01*
X31531804Y-1484738D01*
X31533226Y-1480358D01*
X31534058Y-1472983D01*
X31555975Y-1410345D01*
X31583464Y-1325746D01*
X31588831Y-1316449D01*
X31593225Y-1303893D01*
X31628413Y-1247890D01*
X31667053Y-1180965D01*
X31678347Y-1168421D01*
X31688535Y-1152208D01*
X31732826Y-1107916D01*
X31778917Y-1056728D01*
X31797559Y-1043183D01*
X31815208Y-1025535D01*
X31864354Y-994654D01*
X31914162Y-958467D01*
X31940873Y-946574D01*
X31966893Y-930225D01*
X32016877Y-912734D01*
X32066889Y-890468D01*
X32101592Y-883091D01*
X32135983Y-871058D01*
X32183281Y-865728D01*
X32230412Y-855711D01*
X32272189Y-855711D01*
X32314000Y-851000D01*
X32355811Y-855711D01*
G37*
G36*
X67601811Y-855711D02*
G01*
X67643588Y-855711D01*
X67690718Y-865728D01*
X67738017Y-871058D01*
X67772408Y-883092D01*
X67807110Y-890468D01*
X67857117Y-912733D01*
X67907107Y-930225D01*
X67933128Y-946575D01*
X67959835Y-958466D01*
X68009633Y-994646D01*
X68058792Y-1025535D01*
X68076444Y-1043187D01*
X68095084Y-1056730D01*
X68141165Y-1107908D01*
X68185465Y-1152208D01*
X68195654Y-1168424D01*
X68206946Y-1180965D01*
X68245573Y-1247870D01*
X68280775Y-1303893D01*
X68285170Y-1316453D01*
X68290535Y-1325746D01*
X68318010Y-1410305D01*
X68339942Y-1472983D01*
X68340773Y-1480363D01*
X68342195Y-1484738D01*
X68355077Y-1607316D01*
X68360000Y-1651000D01*
X68355075Y-1694707D01*
X68342195Y-1817261D01*
X68340773Y-1821635D01*
X68339942Y-1829017D01*
X68318005Y-1891707D01*
X68290535Y-1976253D01*
X68285171Y-1985543D01*
X68280775Y-1998107D01*
X68245566Y-2054140D01*
X68206946Y-2121034D01*
X68195656Y-2133572D01*
X68185465Y-2149792D01*
X68141155Y-2194101D01*
X68095084Y-2245269D01*
X68076448Y-2258808D01*
X68058792Y-2276465D01*
X68009623Y-2307359D01*
X67959835Y-2343533D01*
X67933134Y-2355421D01*
X67907107Y-2371775D01*
X67857107Y-2389270D01*
X67807110Y-2411531D01*
X67772414Y-2418905D01*
X67738017Y-2430942D01*
X67690715Y-2436271D01*
X67643588Y-2446289D01*
X67601811Y-2446289D01*
X67560000Y-2451000D01*
X67518189Y-2446289D01*
X67476412Y-2446289D01*
X67429284Y-2436271D01*
X67381983Y-2430942D01*
X67347586Y-2418906D01*
X67312889Y-2411531D01*
X67262887Y-2389268D01*
X67212893Y-2371775D01*
X67186868Y-2355422D01*
X67160164Y-2343533D01*
X67110369Y-2307355D01*
X67061208Y-2276465D01*
X67043554Y-2258811D01*
X67024915Y-2245269D01*
X66978833Y-2194090D01*
X66934535Y-2149792D01*
X66924345Y-2133575D01*
X66913053Y-2121034D01*
X66874420Y-2054120D01*
X66839225Y-1998107D01*
X66834830Y-1985547D01*
X66829464Y-1976253D01*
X66801980Y-1891667D01*
X66780058Y-1829017D01*
X66779226Y-1821639D01*
X66777804Y-1817261D01*
X66764909Y-1694575D01*
X66760000Y-1651000D01*
X66764907Y-1607448D01*
X66777804Y-1484738D01*
X66779226Y-1480358D01*
X66780058Y-1472983D01*
X66801975Y-1410345D01*
X66829464Y-1325746D01*
X66834831Y-1316449D01*
X66839225Y-1303893D01*
X66874413Y-1247890D01*
X66913053Y-1180965D01*
X66924347Y-1168421D01*
X66934535Y-1152208D01*
X66978826Y-1107916D01*
X67024917Y-1056728D01*
X67043559Y-1043183D01*
X67061208Y-1025535D01*
X67110354Y-994654D01*
X67160162Y-958467D01*
X67186873Y-946574D01*
X67212893Y-930225D01*
X67262877Y-912734D01*
X67312889Y-890468D01*
X67347592Y-883091D01*
X67381983Y-871058D01*
X67429281Y-865728D01*
X67476412Y-855711D01*
X67518189Y-855711D01*
X67560000Y-851000D01*
X67601811Y-855711D01*
G37*
G36*
X70141811Y-855711D02*
G01*
X70183588Y-855711D01*
X70230718Y-865728D01*
X70278017Y-871058D01*
X70312408Y-883092D01*
X70347110Y-890468D01*
X70397117Y-912733D01*
X70447107Y-930225D01*
X70473128Y-946575D01*
X70499835Y-958466D01*
X70549633Y-994646D01*
X70598792Y-1025535D01*
X70616444Y-1043187D01*
X70635084Y-1056730D01*
X70681165Y-1107908D01*
X70725465Y-1152208D01*
X70735654Y-1168424D01*
X70746946Y-1180965D01*
X70785573Y-1247870D01*
X70820775Y-1303893D01*
X70825170Y-1316453D01*
X70830535Y-1325746D01*
X70858010Y-1410305D01*
X70879942Y-1472983D01*
X70880773Y-1480363D01*
X70882195Y-1484738D01*
X70895077Y-1607316D01*
X70900000Y-1651000D01*
X70895075Y-1694707D01*
X70882195Y-1817261D01*
X70880773Y-1821635D01*
X70879942Y-1829017D01*
X70858005Y-1891707D01*
X70830535Y-1976253D01*
X70825171Y-1985543D01*
X70820775Y-1998107D01*
X70785566Y-2054140D01*
X70746946Y-2121034D01*
X70735656Y-2133572D01*
X70725465Y-2149792D01*
X70681155Y-2194101D01*
X70635084Y-2245269D01*
X70616448Y-2258808D01*
X70598792Y-2276465D01*
X70549623Y-2307359D01*
X70499835Y-2343533D01*
X70473134Y-2355421D01*
X70447107Y-2371775D01*
X70397107Y-2389270D01*
X70347110Y-2411531D01*
X70312414Y-2418905D01*
X70278017Y-2430942D01*
X70230715Y-2436271D01*
X70183588Y-2446289D01*
X70141811Y-2446289D01*
X70100000Y-2451000D01*
X70058189Y-2446289D01*
X70016412Y-2446289D01*
X69969284Y-2436271D01*
X69921983Y-2430942D01*
X69887586Y-2418906D01*
X69852889Y-2411531D01*
X69802887Y-2389268D01*
X69752893Y-2371775D01*
X69726868Y-2355422D01*
X69700164Y-2343533D01*
X69650369Y-2307355D01*
X69601208Y-2276465D01*
X69583554Y-2258811D01*
X69564915Y-2245269D01*
X69518833Y-2194090D01*
X69474535Y-2149792D01*
X69464345Y-2133575D01*
X69453053Y-2121034D01*
X69414420Y-2054120D01*
X69379225Y-1998107D01*
X69374830Y-1985547D01*
X69369464Y-1976253D01*
X69341980Y-1891667D01*
X69320058Y-1829017D01*
X69319226Y-1821639D01*
X69317804Y-1817261D01*
X69304909Y-1694575D01*
X69300000Y-1651000D01*
X69304907Y-1607448D01*
X69317804Y-1484738D01*
X69319226Y-1480358D01*
X69320058Y-1472983D01*
X69341975Y-1410345D01*
X69369464Y-1325746D01*
X69374831Y-1316449D01*
X69379225Y-1303893D01*
X69414413Y-1247890D01*
X69453053Y-1180965D01*
X69464347Y-1168421D01*
X69474535Y-1152208D01*
X69518826Y-1107916D01*
X69564917Y-1056728D01*
X69583559Y-1043183D01*
X69601208Y-1025535D01*
X69650354Y-994654D01*
X69700162Y-958467D01*
X69726873Y-946574D01*
X69752893Y-930225D01*
X69802877Y-912734D01*
X69852889Y-890468D01*
X69887592Y-883091D01*
X69921983Y-871058D01*
X69969281Y-865728D01*
X70016412Y-855711D01*
X70058189Y-855711D01*
X70100000Y-851000D01*
X70141811Y-855711D01*
G37*
G36*
X3847113Y-104930D02*
G01*
X3894076Y-104930D01*
X3934622Y-113548D01*
X3975526Y-117577D01*
X4026916Y-133166D01*
X4078115Y-144049D01*
X4110879Y-158636D01*
X4144304Y-168776D01*
X4197420Y-197166D01*
X4250000Y-220577D01*
X4274445Y-238337D01*
X4299849Y-251916D01*
X4351669Y-294444D01*
X4402218Y-331170D01*
X4418631Y-349398D01*
X4436190Y-363809D01*
X4483379Y-421308D01*
X4528115Y-470993D01*
X4537512Y-487269D01*
X4548083Y-500150D01*
X4587183Y-573302D01*
X4622191Y-633937D01*
X4626218Y-646331D01*
X4631223Y-655695D01*
X4658821Y-746672D01*
X4680333Y-812879D01*
X4681090Y-820082D01*
X4682422Y-824473D01*
X4695377Y-956021D01*
X4700000Y-1000000D01*
X4695377Y-1043982D01*
X4682422Y-1175526D01*
X4681090Y-1179916D01*
X4680333Y-1187121D01*
X4658816Y-1253341D01*
X4631223Y-1344304D01*
X4626219Y-1353665D01*
X4622191Y-1366063D01*
X4587176Y-1426709D01*
X4548083Y-1499849D01*
X4537514Y-1512726D01*
X4528115Y-1529007D01*
X4483369Y-1578701D01*
X4436190Y-1636190D01*
X4418634Y-1650597D01*
X4402218Y-1668830D01*
X4351659Y-1705563D01*
X4299849Y-1748083D01*
X4274450Y-1761658D01*
X4250000Y-1779423D01*
X4197408Y-1802838D01*
X4144304Y-1831223D01*
X4110886Y-1841360D01*
X4078115Y-1855951D01*
X4026905Y-1866836D01*
X3975526Y-1882422D01*
X3934631Y-1886449D01*
X3894076Y-1895070D01*
X3847103Y-1895070D01*
X3800000Y-1899709D01*
X3752897Y-1895070D01*
X3705924Y-1895070D01*
X3665368Y-1886449D01*
X3624473Y-1882422D01*
X3573091Y-1866835D01*
X3521885Y-1855951D01*
X3489115Y-1841361D01*
X3455695Y-1831223D01*
X3402585Y-1802835D01*
X3350000Y-1779423D01*
X3325552Y-1761660D01*
X3300150Y-1748083D01*
X3248332Y-1705556D01*
X3197782Y-1668830D01*
X3181368Y-1650600D01*
X3163809Y-1636190D01*
X3116618Y-1578688D01*
X3071885Y-1529007D01*
X3062487Y-1512730D01*
X3051916Y-1499849D01*
X3012810Y-1426686D01*
X2977809Y-1366063D01*
X2973782Y-1353670D01*
X2968776Y-1344304D01*
X2941168Y-1253294D01*
X2919667Y-1187121D01*
X2918910Y-1179921D01*
X2917577Y-1175526D01*
X2904606Y-1043831D01*
X2900000Y-1000000D01*
X2904606Y-956172D01*
X2917577Y-824473D01*
X2918910Y-820077D01*
X2919667Y-812879D01*
X2941163Y-746719D01*
X2968776Y-655695D01*
X2973783Y-646327D01*
X2977809Y-633937D01*
X3012802Y-573326D01*
X3051916Y-500150D01*
X3062489Y-487265D01*
X3071885Y-470993D01*
X3116609Y-421321D01*
X3163809Y-363809D01*
X3181371Y-349395D01*
X3197782Y-331170D01*
X3248321Y-294450D01*
X3300150Y-251916D01*
X3325557Y-238335D01*
X3350000Y-220577D01*
X3402573Y-197169D01*
X3455695Y-168776D01*
X3489122Y-158635D01*
X3521885Y-144049D01*
X3573080Y-133166D01*
X3624473Y-117577D01*
X3665377Y-113548D01*
X3705924Y-104930D01*
X3752887Y-104930D01*
X3800000Y-100290D01*
X3847113Y-104930D01*
G37*
G36*
X8847113Y-104930D02*
G01*
X8894076Y-104930D01*
X8934622Y-113548D01*
X8975526Y-117577D01*
X9026916Y-133166D01*
X9078115Y-144049D01*
X9110879Y-158636D01*
X9144304Y-168776D01*
X9197420Y-197166D01*
X9250000Y-220577D01*
X9274445Y-238337D01*
X9299849Y-251916D01*
X9351669Y-294444D01*
X9402218Y-331170D01*
X9418631Y-349398D01*
X9436190Y-363809D01*
X9483379Y-421308D01*
X9528115Y-470993D01*
X9537512Y-487269D01*
X9548083Y-500150D01*
X9587183Y-573302D01*
X9622191Y-633937D01*
X9626218Y-646331D01*
X9631223Y-655695D01*
X9658821Y-746672D01*
X9680333Y-812879D01*
X9681090Y-820082D01*
X9682422Y-824473D01*
X9695377Y-956021D01*
X9700000Y-1000000D01*
X9695377Y-1043982D01*
X9682422Y-1175526D01*
X9681090Y-1179916D01*
X9680333Y-1187121D01*
X9658816Y-1253341D01*
X9631223Y-1344304D01*
X9626219Y-1353665D01*
X9622191Y-1366063D01*
X9587176Y-1426709D01*
X9548083Y-1499849D01*
X9537514Y-1512726D01*
X9528115Y-1529007D01*
X9483369Y-1578701D01*
X9436190Y-1636190D01*
X9418634Y-1650597D01*
X9402218Y-1668830D01*
X9351659Y-1705563D01*
X9299849Y-1748083D01*
X9274450Y-1761658D01*
X9250000Y-1779423D01*
X9197408Y-1802838D01*
X9144304Y-1831223D01*
X9110886Y-1841360D01*
X9078115Y-1855951D01*
X9026905Y-1866836D01*
X8975526Y-1882422D01*
X8934631Y-1886449D01*
X8894076Y-1895070D01*
X8847103Y-1895070D01*
X8800000Y-1899709D01*
X8752897Y-1895070D01*
X8705924Y-1895070D01*
X8665368Y-1886449D01*
X8624473Y-1882422D01*
X8573091Y-1866835D01*
X8521885Y-1855951D01*
X8489115Y-1841361D01*
X8455695Y-1831223D01*
X8402585Y-1802835D01*
X8350000Y-1779423D01*
X8325552Y-1761660D01*
X8300150Y-1748083D01*
X8248332Y-1705556D01*
X8197782Y-1668830D01*
X8181368Y-1650600D01*
X8163809Y-1636190D01*
X8116618Y-1578688D01*
X8071885Y-1529007D01*
X8062487Y-1512730D01*
X8051916Y-1499849D01*
X8012810Y-1426686D01*
X7977809Y-1366063D01*
X7973782Y-1353670D01*
X7968776Y-1344304D01*
X7941168Y-1253294D01*
X7919667Y-1187121D01*
X7918910Y-1179921D01*
X7917577Y-1175526D01*
X7904606Y-1043831D01*
X7900000Y-1000000D01*
X7904606Y-956172D01*
X7917577Y-824473D01*
X7918910Y-820077D01*
X7919667Y-812879D01*
X7941163Y-746719D01*
X7968776Y-655695D01*
X7973783Y-646327D01*
X7977809Y-633937D01*
X8012802Y-573326D01*
X8051916Y-500150D01*
X8062489Y-487265D01*
X8071885Y-470993D01*
X8116609Y-421321D01*
X8163809Y-363809D01*
X8181371Y-349395D01*
X8197782Y-331170D01*
X8248321Y-294450D01*
X8300150Y-251916D01*
X8325557Y-238335D01*
X8350000Y-220577D01*
X8402573Y-197169D01*
X8455695Y-168776D01*
X8489122Y-158635D01*
X8521885Y-144049D01*
X8573080Y-133166D01*
X8624473Y-117577D01*
X8665377Y-113548D01*
X8705924Y-104930D01*
X8752887Y-104930D01*
X8800000Y-100290D01*
X8847113Y-104930D01*
G37*
G36*
X78947113Y-104930D02*
G01*
X78994076Y-104930D01*
X79034622Y-113548D01*
X79075526Y-117577D01*
X79126916Y-133166D01*
X79178115Y-144049D01*
X79210879Y-158636D01*
X79244304Y-168776D01*
X79297420Y-197166D01*
X79350000Y-220577D01*
X79374445Y-238337D01*
X79399849Y-251916D01*
X79451669Y-294444D01*
X79502218Y-331170D01*
X79518631Y-349398D01*
X79536190Y-363809D01*
X79583379Y-421308D01*
X79628115Y-470993D01*
X79637512Y-487269D01*
X79648083Y-500150D01*
X79687183Y-573302D01*
X79722191Y-633937D01*
X79726218Y-646331D01*
X79731223Y-655695D01*
X79758821Y-746672D01*
X79780333Y-812879D01*
X79781090Y-820082D01*
X79782422Y-824473D01*
X79795377Y-956021D01*
X79800000Y-1000000D01*
X79795377Y-1043982D01*
X79782422Y-1175526D01*
X79781090Y-1179916D01*
X79780333Y-1187121D01*
X79758816Y-1253341D01*
X79731223Y-1344304D01*
X79726219Y-1353665D01*
X79722191Y-1366063D01*
X79687176Y-1426709D01*
X79648083Y-1499849D01*
X79637514Y-1512726D01*
X79628115Y-1529007D01*
X79583369Y-1578701D01*
X79536190Y-1636190D01*
X79518634Y-1650597D01*
X79502218Y-1668830D01*
X79451659Y-1705563D01*
X79399849Y-1748083D01*
X79374450Y-1761658D01*
X79350000Y-1779423D01*
X79297408Y-1802838D01*
X79244304Y-1831223D01*
X79210886Y-1841360D01*
X79178115Y-1855951D01*
X79126905Y-1866836D01*
X79075526Y-1882422D01*
X79034631Y-1886449D01*
X78994076Y-1895070D01*
X78947103Y-1895070D01*
X78900000Y-1899709D01*
X78852897Y-1895070D01*
X78805924Y-1895070D01*
X78765368Y-1886449D01*
X78724473Y-1882422D01*
X78673091Y-1866835D01*
X78621885Y-1855951D01*
X78589115Y-1841361D01*
X78555695Y-1831223D01*
X78502585Y-1802835D01*
X78450000Y-1779423D01*
X78425552Y-1761660D01*
X78400150Y-1748083D01*
X78348332Y-1705556D01*
X78297782Y-1668830D01*
X78281368Y-1650600D01*
X78263809Y-1636190D01*
X78216618Y-1578688D01*
X78171885Y-1529007D01*
X78162487Y-1512730D01*
X78151916Y-1499849D01*
X78112810Y-1426686D01*
X78077809Y-1366063D01*
X78073782Y-1353670D01*
X78068776Y-1344304D01*
X78041168Y-1253294D01*
X78019667Y-1187121D01*
X78018910Y-1179921D01*
X78017577Y-1175526D01*
X78004607Y-1043842D01*
X78000000Y-1000000D01*
X78004605Y-956183D01*
X78017577Y-824473D01*
X78018910Y-820077D01*
X78019667Y-812879D01*
X78041163Y-746719D01*
X78068776Y-655695D01*
X78073783Y-646327D01*
X78077809Y-633937D01*
X78112802Y-573326D01*
X78151916Y-500150D01*
X78162489Y-487265D01*
X78171885Y-470993D01*
X78216609Y-421321D01*
X78263809Y-363809D01*
X78281371Y-349395D01*
X78297782Y-331170D01*
X78348321Y-294450D01*
X78400150Y-251916D01*
X78425557Y-238335D01*
X78450000Y-220577D01*
X78502573Y-197169D01*
X78555695Y-168776D01*
X78589122Y-158635D01*
X78621885Y-144049D01*
X78673080Y-133166D01*
X78724473Y-117577D01*
X78765377Y-113548D01*
X78805924Y-104930D01*
X78852887Y-104930D01*
X78900000Y-100290D01*
X78947113Y-104930D01*
G37*
G36*
X83947113Y-104930D02*
G01*
X83994076Y-104930D01*
X84034622Y-113548D01*
X84075526Y-117577D01*
X84126916Y-133166D01*
X84178115Y-144049D01*
X84210879Y-158636D01*
X84244304Y-168776D01*
X84297420Y-197166D01*
X84350000Y-220577D01*
X84374445Y-238337D01*
X84399849Y-251916D01*
X84451669Y-294444D01*
X84502218Y-331170D01*
X84518631Y-349398D01*
X84536190Y-363809D01*
X84583379Y-421308D01*
X84628115Y-470993D01*
X84637512Y-487269D01*
X84648083Y-500150D01*
X84687183Y-573302D01*
X84722191Y-633937D01*
X84726218Y-646331D01*
X84731223Y-655695D01*
X84758821Y-746672D01*
X84780333Y-812879D01*
X84781090Y-820082D01*
X84782422Y-824473D01*
X84795378Y-956032D01*
X84800000Y-1000000D01*
X84795376Y-1043993D01*
X84782422Y-1175526D01*
X84781090Y-1179916D01*
X84780333Y-1187121D01*
X84758816Y-1253341D01*
X84731223Y-1344304D01*
X84726219Y-1353665D01*
X84722191Y-1366063D01*
X84687176Y-1426709D01*
X84648083Y-1499849D01*
X84637514Y-1512726D01*
X84628115Y-1529007D01*
X84583369Y-1578701D01*
X84536190Y-1636190D01*
X84518634Y-1650597D01*
X84502218Y-1668830D01*
X84451659Y-1705563D01*
X84399849Y-1748083D01*
X84374450Y-1761658D01*
X84350000Y-1779423D01*
X84297408Y-1802838D01*
X84244304Y-1831223D01*
X84210886Y-1841360D01*
X84178115Y-1855951D01*
X84126905Y-1866836D01*
X84075526Y-1882422D01*
X84034631Y-1886449D01*
X83994076Y-1895070D01*
X83947103Y-1895070D01*
X83900000Y-1899709D01*
X83852897Y-1895070D01*
X83805924Y-1895070D01*
X83765368Y-1886449D01*
X83724473Y-1882422D01*
X83673091Y-1866835D01*
X83621885Y-1855951D01*
X83589115Y-1841361D01*
X83555695Y-1831223D01*
X83502585Y-1802835D01*
X83450000Y-1779423D01*
X83425552Y-1761660D01*
X83400150Y-1748083D01*
X83348332Y-1705556D01*
X83297782Y-1668830D01*
X83281368Y-1650600D01*
X83263809Y-1636190D01*
X83216618Y-1578688D01*
X83171885Y-1529007D01*
X83162487Y-1512730D01*
X83151916Y-1499849D01*
X83112810Y-1426686D01*
X83077809Y-1366063D01*
X83073782Y-1353670D01*
X83068776Y-1344304D01*
X83041168Y-1253294D01*
X83019667Y-1187121D01*
X83018910Y-1179921D01*
X83017577Y-1175526D01*
X83004606Y-1043831D01*
X83000000Y-1000000D01*
X83004606Y-956172D01*
X83017577Y-824473D01*
X83018910Y-820077D01*
X83019667Y-812879D01*
X83041163Y-746719D01*
X83068776Y-655695D01*
X83073783Y-646327D01*
X83077809Y-633937D01*
X83112802Y-573326D01*
X83151916Y-500150D01*
X83162489Y-487265D01*
X83171885Y-470993D01*
X83216609Y-421321D01*
X83263809Y-363809D01*
X83281371Y-349395D01*
X83297782Y-331170D01*
X83348321Y-294450D01*
X83400150Y-251916D01*
X83425557Y-238335D01*
X83450000Y-220577D01*
X83502573Y-197169D01*
X83555695Y-168776D01*
X83589122Y-158635D01*
X83621885Y-144049D01*
X83673080Y-133166D01*
X83724473Y-117577D01*
X83765377Y-113548D01*
X83805924Y-104930D01*
X83852887Y-104930D01*
X83900000Y-100290D01*
X83947113Y-104930D01*
G37*
M02*
