%TF.GenerationSoftware,KiCad,Pcbnew,7.0.6*%
%TF.CreationDate,2023-07-22T14:17:16+02:00*%
%TF.ProjectId,esp-switch,6573702d-7377-4697-9463-682e6b696361,rev?*%
%TF.SameCoordinates,Original*%
%TF.FileFunction,Drillmap*%
%TF.FilePolarity,Positive*%
%FSLAX45Y45*%
G04 Gerber Fmt 4.5, Leading zero omitted, Abs format (unit mm)*
G04 Created by KiCad (PCBNEW 7.0.6) date 2023-07-22 14:17:16*
%MOMM*%
%LPD*%
G01*
G04 APERTURE LIST*
%ADD10C,0.050000*%
%ADD11C,0.200000*%
%ADD12C,0.030000*%
%ADD13C,0.060000*%
%ADD14C,0.080000*%
%ADD15C,0.100000*%
%ADD16C,0.110000*%
%ADD17C,0.120000*%
G04 APERTURE END LIST*
D10*
X2260000Y-4870000D02*
X2360000Y-4970000D01*
X2260000Y-2880000D02*
X2260000Y-4870000D01*
X6410000Y-4970000D02*
X2360000Y-4970000D01*
X8770000Y-1140000D02*
X8670000Y-1240000D01*
X7540000Y-2880000D02*
X7640000Y-2780000D01*
X6510000Y-2880000D02*
X6510000Y-4870000D01*
X0Y-1140000D02*
X100000Y-1240000D01*
X7640000Y-1240000D02*
X7640000Y-2780000D01*
X8770000Y0D02*
X8770000Y-1140000D01*
X1130000Y-2780000D02*
X1230000Y-2880000D01*
X1130000Y-1240000D02*
X100000Y-1240000D01*
X0Y0D02*
X8770000Y0D01*
X1130000Y-1240000D02*
X1130000Y-2780000D01*
X7540000Y-2880000D02*
X6510000Y-2880000D01*
X8670000Y-1240000D02*
X7640000Y-1240000D01*
X2260000Y-2880000D02*
X1230000Y-2880000D01*
X0Y0D02*
X0Y-1140000D01*
X6510000Y-4870000D02*
X6410000Y-4970000D01*
D11*
D12*
X135000Y-285000D02*
X165000Y-315000D01*
X165000Y-285000D02*
X135000Y-315000D01*
X135000Y-485000D02*
X165000Y-515000D01*
X165000Y-485000D02*
X135000Y-515000D01*
X135000Y-685000D02*
X165000Y-715000D01*
X165000Y-685000D02*
X135000Y-715000D01*
X135000Y-885000D02*
X165000Y-915000D01*
X165000Y-885000D02*
X135000Y-915000D01*
X459480Y-824220D02*
X489480Y-854220D01*
X489480Y-824220D02*
X459480Y-854220D01*
X485000Y-235000D02*
X515000Y-265000D01*
X515000Y-235000D02*
X485000Y-265000D01*
X735000Y-485000D02*
X765000Y-515000D01*
X765000Y-485000D02*
X735000Y-515000D01*
X735000Y-985000D02*
X765000Y-1015000D01*
X765000Y-985000D02*
X735000Y-1015000D01*
X985000Y-735000D02*
X1015000Y-765000D01*
X1015000Y-735000D02*
X985000Y-765000D01*
X1235000Y-485000D02*
X1265000Y-515000D01*
X1265000Y-485000D02*
X1235000Y-515000D01*
X1235000Y-1235000D02*
X1265000Y-1265000D01*
X1265000Y-1235000D02*
X1235000Y-1265000D01*
X1235000Y-1735000D02*
X1265000Y-1765000D01*
X1265000Y-1735000D02*
X1235000Y-1765000D01*
X1235000Y-2235000D02*
X1265000Y-2265000D01*
X1265000Y-2235000D02*
X1235000Y-2265000D01*
X1235000Y-2735000D02*
X1265000Y-2765000D01*
X1265000Y-2735000D02*
X1235000Y-2765000D01*
X1335000Y-285000D02*
X1365000Y-315000D01*
X1365000Y-285000D02*
X1335000Y-315000D01*
X1335000Y-685000D02*
X1365000Y-715000D01*
X1365000Y-685000D02*
X1335000Y-715000D01*
X1335000Y-1135000D02*
X1365000Y-1165000D01*
X1365000Y-1135000D02*
X1335000Y-1165000D01*
X1555740Y-2487920D02*
X1585740Y-2517920D01*
X1585740Y-2487920D02*
X1555740Y-2517920D01*
X1735000Y-1635000D02*
X1765000Y-1665000D01*
X1765000Y-1635000D02*
X1735000Y-1665000D01*
X1735000Y-1885000D02*
X1765000Y-1915000D01*
X1765000Y-1885000D02*
X1735000Y-1915000D01*
X1868160Y-1315960D02*
X1898160Y-1345960D01*
X1898160Y-1315960D02*
X1868160Y-1345960D01*
X1888480Y-910580D02*
X1918480Y-940580D01*
X1918480Y-910580D02*
X1888480Y-940580D01*
X1898640Y-82540D02*
X1928640Y-112540D01*
X1928640Y-82540D02*
X1898640Y-112540D01*
X1901180Y-488940D02*
X1931180Y-518940D01*
X1931180Y-488940D02*
X1901180Y-518940D01*
X1985000Y-235000D02*
X2015000Y-265000D01*
X2015000Y-235000D02*
X1985000Y-265000D01*
X1985000Y-735000D02*
X2015000Y-765000D01*
X2015000Y-735000D02*
X1985000Y-765000D01*
X1985000Y-1985000D02*
X2015000Y-2015000D01*
X2015000Y-1985000D02*
X1985000Y-2015000D01*
X2231380Y-1604000D02*
X2261380Y-1634000D01*
X2261380Y-1604000D02*
X2231380Y-1634000D01*
X2235000Y-735000D02*
X2265000Y-765000D01*
X2265000Y-735000D02*
X2235000Y-765000D01*
X2235000Y-1235000D02*
X2265000Y-1265000D01*
X2265000Y-1235000D02*
X2235000Y-1265000D01*
X2235000Y-1985000D02*
X2265000Y-2015000D01*
X2265000Y-1985000D02*
X2235000Y-2015000D01*
X2485000Y-235000D02*
X2515000Y-265000D01*
X2515000Y-235000D02*
X2485000Y-265000D01*
X2485000Y-1235000D02*
X2515000Y-1265000D01*
X2515000Y-1235000D02*
X2485000Y-1265000D01*
X2485000Y-1985000D02*
X2515000Y-2015000D01*
X2515000Y-1985000D02*
X2485000Y-2015000D01*
X2485000Y-2485000D02*
X2515000Y-2515000D01*
X2515000Y-2485000D02*
X2485000Y-2515000D01*
X2485000Y-2985000D02*
X2515000Y-3015000D01*
X2515000Y-2985000D02*
X2485000Y-3015000D01*
X2485000Y-3735000D02*
X2515000Y-3765000D01*
X2515000Y-3735000D02*
X2485000Y-3765000D01*
X2485000Y-4235000D02*
X2515000Y-4265000D01*
X2515000Y-4235000D02*
X2485000Y-4265000D01*
X2485000Y-4735000D02*
X2515000Y-4765000D01*
X2515000Y-4735000D02*
X2485000Y-4765000D01*
X2635240Y-1664960D02*
X2665240Y-1694960D01*
X2665240Y-1664960D02*
X2635240Y-1694960D01*
X2915000Y-2465000D02*
X2945000Y-2495000D01*
X2945000Y-2465000D02*
X2915000Y-2495000D01*
X2985000Y-235000D02*
X3015000Y-265000D01*
X3015000Y-235000D02*
X2985000Y-265000D01*
X2985000Y-735000D02*
X3015000Y-765000D01*
X3015000Y-735000D02*
X2985000Y-765000D01*
X2985000Y-1485000D02*
X3015000Y-1515000D01*
X3015000Y-1485000D02*
X2985000Y-1515000D01*
X2985000Y-1735000D02*
X3015000Y-1765000D01*
X3015000Y-1735000D02*
X2985000Y-1765000D01*
X2985000Y-1985000D02*
X3015000Y-2015000D01*
X3015000Y-1985000D02*
X2985000Y-2015000D01*
X2985000Y-2235000D02*
X3015000Y-2265000D01*
X3015000Y-2235000D02*
X2985000Y-2265000D01*
X3803640Y-1761480D02*
X3833640Y-1791480D01*
X3833640Y-1761480D02*
X3803640Y-1791480D01*
X3803640Y-1967220D02*
X3833640Y-1997220D01*
X3833640Y-1967220D02*
X3803640Y-1997220D01*
X3905000Y-1445000D02*
X3935000Y-1475000D01*
X3935000Y-1445000D02*
X3905000Y-1475000D01*
X3985000Y-1985000D02*
X4015000Y-2015000D01*
X4015000Y-1985000D02*
X3985000Y-2015000D01*
X3985000Y-2235000D02*
X4015000Y-2265000D01*
X4015000Y-2235000D02*
X3985000Y-2265000D01*
X4233902Y-2232049D02*
X4263902Y-2262049D01*
X4263902Y-2232049D02*
X4233902Y-2262049D01*
X4235000Y-735000D02*
X4265000Y-765000D01*
X4265000Y-735000D02*
X4235000Y-765000D01*
X4235000Y-1485000D02*
X4265000Y-1515000D01*
X4265000Y-1485000D02*
X4235000Y-1515000D01*
X4235000Y-1985000D02*
X4265000Y-2015000D01*
X4265000Y-1985000D02*
X4235000Y-2015000D01*
X4626600Y-3648700D02*
X4656600Y-3678700D01*
X4656600Y-3648700D02*
X4626600Y-3678700D01*
X4735000Y-1735000D02*
X4765000Y-1765000D01*
X4765000Y-1735000D02*
X4735000Y-1765000D01*
X4735000Y-4485000D02*
X4765000Y-4515000D01*
X4765000Y-4485000D02*
X4735000Y-4515000D01*
X5485000Y-1735000D02*
X5515000Y-1765000D01*
X5515000Y-1735000D02*
X5485000Y-1765000D01*
X5485000Y-2235000D02*
X5515000Y-2265000D01*
X5515000Y-2235000D02*
X5485000Y-2265000D01*
X5485000Y-2485000D02*
X5515000Y-2515000D01*
X5515000Y-2485000D02*
X5485000Y-2515000D01*
X5485000Y-2735000D02*
X5515000Y-2765000D01*
X5515000Y-2735000D02*
X5485000Y-2765000D01*
X5485000Y-2985000D02*
X5515000Y-3015000D01*
X5515000Y-2985000D02*
X5485000Y-3015000D01*
X5485000Y-3485000D02*
X5515000Y-3515000D01*
X5515000Y-3485000D02*
X5485000Y-3515000D01*
X5617200Y-3966200D02*
X5647200Y-3996200D01*
X5647200Y-3966200D02*
X5617200Y-3996200D01*
X5735000Y-1735000D02*
X5765000Y-1765000D01*
X5765000Y-1735000D02*
X5735000Y-1765000D01*
X5735000Y-3235000D02*
X5765000Y-3265000D01*
X5765000Y-3235000D02*
X5735000Y-3265000D01*
X5744200Y-4156700D02*
X5774200Y-4186700D01*
X5774200Y-4156700D02*
X5744200Y-4186700D01*
X5864600Y-2194800D02*
X5894600Y-2224800D01*
X5894600Y-2194800D02*
X5864600Y-2224800D01*
X5871200Y-3966200D02*
X5901200Y-3996200D01*
X5901200Y-3966200D02*
X5871200Y-3996200D01*
X5919460Y-1852920D02*
X5949460Y-1882920D01*
X5949460Y-1852920D02*
X5919460Y-1882920D01*
X5975000Y-2415000D02*
X6005000Y-2445000D01*
X6005000Y-2415000D02*
X5975000Y-2445000D01*
X5985500Y-4220200D02*
X6015500Y-4250200D01*
X6015500Y-4220200D02*
X5985500Y-4250200D01*
X6115000Y-2735000D02*
X6145000Y-2765000D01*
X6145000Y-2735000D02*
X6115000Y-2765000D01*
X6137900Y-3089900D02*
X6167900Y-3119900D01*
X6167900Y-3089900D02*
X6137900Y-3119900D01*
X6235000Y-3235000D02*
X6265000Y-3265000D01*
X6265000Y-3235000D02*
X6235000Y-3265000D01*
X6235000Y-3985000D02*
X6265000Y-4015000D01*
X6265000Y-3985000D02*
X6235000Y-4015000D01*
X6252200Y-2386320D02*
X6282200Y-2416320D01*
X6282200Y-2386320D02*
X6252200Y-2416320D01*
X6485000Y-1735000D02*
X6515000Y-1765000D01*
X6515000Y-1735000D02*
X6485000Y-1765000D01*
D13*
X7004780Y-211700D02*
G75*
G03*
X7004780Y-211700I-30000J0D01*
G01*
X7004780Y-922900D02*
G75*
G03*
X7004780Y-922900I-30000J0D01*
G01*
X7504780Y-511700D02*
G75*
G03*
X7504780Y-511700I-30000J0D01*
G01*
X7504780Y-1222900D02*
G75*
G03*
X7504780Y-1222900I-30000J0D01*
G01*
D14*
X4191020Y-198220D02*
X4191020Y-278220D01*
X4151020Y-238220D02*
X4231020Y-238220D01*
X4191020Y-452220D02*
X4191020Y-532220D01*
X4151020Y-492220D02*
X4231020Y-492220D01*
X4191020Y-909920D02*
X4191020Y-989920D01*
X4151020Y-949920D02*
X4231020Y-949920D01*
X4191020Y-1163920D02*
X4191020Y-1243920D01*
X4151020Y-1203920D02*
X4231020Y-1203920D01*
X4953020Y-198220D02*
X4953020Y-278220D01*
X4913020Y-238220D02*
X4993020Y-238220D01*
X4953020Y-452220D02*
X4953020Y-532220D01*
X4913020Y-492220D02*
X4993020Y-492220D01*
X4953020Y-909920D02*
X4953020Y-989920D01*
X4913020Y-949920D02*
X4993020Y-949920D01*
X4953020Y-1163920D02*
X4953020Y-1243920D01*
X4913020Y-1203920D02*
X4993020Y-1203920D01*
X5321762Y-1920000D02*
X5321762Y-2000000D01*
X5281762Y-1960000D02*
X5361762Y-1960000D01*
X5571762Y-1920000D02*
X5571762Y-2000000D01*
X5531762Y-1960000D02*
X5611762Y-1960000D01*
X5614420Y-147420D02*
X5614420Y-227420D01*
X5574420Y-187420D02*
X5654420Y-187420D01*
X5614420Y-503020D02*
X5614420Y-583020D01*
X5574420Y-543020D02*
X5654420Y-543020D01*
X5614420Y-875420D02*
X5614420Y-955420D01*
X5574420Y-915420D02*
X5654420Y-915420D01*
X5614420Y-1200540D02*
X5614420Y-1280540D01*
X5574420Y-1240540D02*
X5654420Y-1240540D01*
X6630420Y-147420D02*
X6630420Y-227420D01*
X6590420Y-187420D02*
X6670420Y-187420D01*
X6630420Y-503020D02*
X6630420Y-583020D01*
X6590420Y-543020D02*
X6670420Y-543020D01*
X6630420Y-875420D02*
X6630420Y-955420D01*
X6590420Y-915420D02*
X6670420Y-915420D01*
X6630420Y-1200540D02*
X6630420Y-1280540D01*
X6590420Y-1240540D02*
X6670420Y-1240540D01*
X7164138Y-2150500D02*
X7164138Y-2230500D01*
X7124138Y-2190500D02*
X7204138Y-2190500D01*
X7414138Y-2150500D02*
X7414138Y-2230500D01*
X7374138Y-2190500D02*
X7454138Y-2190500D01*
D15*
X5412556Y-4549456D02*
X5412556Y-4478744D01*
X5341844Y-4478744D01*
X5341844Y-4549456D01*
X5412556Y-4549456D01*
X5412556Y-4803456D02*
X5412556Y-4732744D01*
X5341844Y-4732744D01*
X5341844Y-4803456D01*
X5412556Y-4803456D01*
X5666556Y-4549456D02*
X5666556Y-4478744D01*
X5595844Y-4478744D01*
X5595844Y-4549456D01*
X5666556Y-4549456D01*
X5666556Y-4803456D02*
X5666556Y-4732744D01*
X5595844Y-4732744D01*
X5595844Y-4803456D01*
X5666556Y-4803456D01*
X5920556Y-4549456D02*
X5920556Y-4478744D01*
X5849844Y-4478744D01*
X5849844Y-4549456D01*
X5920556Y-4549456D01*
X5920556Y-4803456D02*
X5920556Y-4732744D01*
X5849844Y-4732744D01*
X5849844Y-4803456D01*
X5920556Y-4803456D01*
X6174556Y-4549456D02*
X6174556Y-4478744D01*
X6103844Y-4478744D01*
X6103844Y-4549456D01*
X6174556Y-4549456D01*
X6174556Y-4803456D02*
X6174556Y-4732744D01*
X6103844Y-4732744D01*
X6103844Y-4803456D01*
X6174556Y-4803456D01*
D16*
X7074423Y-2756040D02*
X7129423Y-2701040D01*
X7074423Y-2646040D01*
X7019423Y-2701040D01*
X7074423Y-2756040D01*
X7328423Y-2756040D02*
X7383423Y-2701040D01*
X7328423Y-2646040D01*
X7273423Y-2701040D01*
X7328423Y-2756040D01*
D17*
X320000Y-40000D02*
X440000Y-160000D01*
X440000Y-40000D02*
X320000Y-160000D01*
X440000Y-100000D02*
G75*
G03*
X440000Y-100000I-60000J0D01*
G01*
X820000Y-40000D02*
X940000Y-160000D01*
X940000Y-40000D02*
X820000Y-160000D01*
X940000Y-100000D02*
G75*
G03*
X940000Y-100000I-60000J0D01*
G01*
X820000Y-540000D02*
X940000Y-660000D01*
X940000Y-540000D02*
X820000Y-660000D01*
X940000Y-600000D02*
G75*
G03*
X940000Y-600000I-60000J0D01*
G01*
X820000Y-1040000D02*
X940000Y-1160000D01*
X940000Y-1040000D02*
X820000Y-1160000D01*
X940000Y-1100000D02*
G75*
G03*
X940000Y-1100000I-60000J0D01*
G01*
X1450000Y-1680000D02*
X1570000Y-1800000D01*
X1570000Y-1680000D02*
X1450000Y-1800000D01*
X1570000Y-1740000D02*
G75*
G03*
X1570000Y-1740000I-60000J0D01*
G01*
X1950000Y-1680000D02*
X2070000Y-1800000D01*
X2070000Y-1680000D02*
X1950000Y-1800000D01*
X2070000Y-1740000D02*
G75*
G03*
X2070000Y-1740000I-60000J0D01*
G01*
X1950000Y-2180000D02*
X2070000Y-2300000D01*
X2070000Y-2180000D02*
X1950000Y-2300000D01*
X2070000Y-2240000D02*
G75*
G03*
X2070000Y-2240000I-60000J0D01*
G01*
X1950000Y-2680000D02*
X2070000Y-2800000D01*
X2070000Y-2680000D02*
X1950000Y-2800000D01*
X2070000Y-2740000D02*
G75*
G03*
X2070000Y-2740000I-60000J0D01*
G01*
X5224220Y-93900D02*
X5344220Y-213900D01*
X5344220Y-93900D02*
X5224220Y-213900D01*
X5344220Y-153900D02*
G75*
G03*
X5344220Y-153900I-60000J0D01*
G01*
X5224220Y-474900D02*
X5344220Y-594900D01*
X5344220Y-474900D02*
X5224220Y-594900D01*
X5344220Y-534900D02*
G75*
G03*
X5344220Y-534900I-60000J0D01*
G01*
X5224220Y-843200D02*
X5344220Y-963200D01*
X5344220Y-843200D02*
X5224220Y-963200D01*
X5344220Y-903200D02*
G75*
G03*
X5344220Y-903200I-60000J0D01*
G01*
X5224220Y-1224200D02*
X5344220Y-1344200D01*
X5344220Y-1224200D02*
X5224220Y-1344200D01*
X5344220Y-1284200D02*
G75*
G03*
X5344220Y-1284200I-60000J0D01*
G01*
X6700000Y-1680000D02*
X6820000Y-1800000D01*
X6820000Y-1680000D02*
X6700000Y-1800000D01*
X6820000Y-1740000D02*
G75*
G03*
X6820000Y-1740000I-60000J0D01*
G01*
X6700000Y-2180000D02*
X6820000Y-2300000D01*
X6820000Y-2180000D02*
X6700000Y-2300000D01*
X6820000Y-2240000D02*
G75*
G03*
X6820000Y-2240000I-60000J0D01*
G01*
X6700000Y-2680000D02*
X6820000Y-2800000D01*
X6820000Y-2680000D02*
X6700000Y-2800000D01*
X6820000Y-2740000D02*
G75*
G03*
X6820000Y-2740000I-60000J0D01*
G01*
X7200000Y-1680000D02*
X7320000Y-1800000D01*
X7320000Y-1680000D02*
X7200000Y-1800000D01*
X7320000Y-1740000D02*
G75*
G03*
X7320000Y-1740000I-60000J0D01*
G01*
X7830000Y-40000D02*
X7950000Y-160000D01*
X7950000Y-40000D02*
X7830000Y-160000D01*
X7950000Y-100000D02*
G75*
G03*
X7950000Y-100000I-60000J0D01*
G01*
X7830000Y-540000D02*
X7950000Y-660000D01*
X7950000Y-540000D02*
X7830000Y-660000D01*
X7950000Y-600000D02*
G75*
G03*
X7950000Y-600000I-60000J0D01*
G01*
X7830000Y-1040000D02*
X7950000Y-1160000D01*
X7950000Y-1040000D02*
X7830000Y-1160000D01*
X7950000Y-1100000D02*
G75*
G03*
X7950000Y-1100000I-60000J0D01*
G01*
X8330000Y-40000D02*
X8450000Y-160000D01*
X8450000Y-40000D02*
X8330000Y-160000D01*
X8450000Y-100000D02*
G75*
G03*
X8450000Y-100000I-60000J0D01*
G01*
D11*
X258277Y-5283984D02*
X258277Y-5083984D01*
X258277Y-5083984D02*
X305896Y-5083984D01*
X305896Y-5083984D02*
X334467Y-5093508D01*
X334467Y-5093508D02*
X353515Y-5112555D01*
X353515Y-5112555D02*
X363039Y-5131603D01*
X363039Y-5131603D02*
X372562Y-5169698D01*
X372562Y-5169698D02*
X372562Y-5198270D01*
X372562Y-5198270D02*
X363039Y-5236365D01*
X363039Y-5236365D02*
X353515Y-5255412D01*
X353515Y-5255412D02*
X334467Y-5274460D01*
X334467Y-5274460D02*
X305896Y-5283984D01*
X305896Y-5283984D02*
X258277Y-5283984D01*
X458277Y-5283984D02*
X458277Y-5150650D01*
X458277Y-5188746D02*
X467801Y-5169698D01*
X467801Y-5169698D02*
X477324Y-5160174D01*
X477324Y-5160174D02*
X496372Y-5150650D01*
X496372Y-5150650D02*
X515420Y-5150650D01*
X582086Y-5283984D02*
X582086Y-5150650D01*
X582086Y-5083984D02*
X572563Y-5093508D01*
X572563Y-5093508D02*
X582086Y-5103031D01*
X582086Y-5103031D02*
X591610Y-5093508D01*
X591610Y-5093508D02*
X582086Y-5083984D01*
X582086Y-5083984D02*
X582086Y-5103031D01*
X705896Y-5283984D02*
X686848Y-5274460D01*
X686848Y-5274460D02*
X677324Y-5255412D01*
X677324Y-5255412D02*
X677324Y-5083984D01*
X810658Y-5283984D02*
X791610Y-5274460D01*
X791610Y-5274460D02*
X782086Y-5255412D01*
X782086Y-5255412D02*
X782086Y-5083984D01*
X1039229Y-5283984D02*
X1039229Y-5083984D01*
X1039229Y-5083984D02*
X1105896Y-5226841D01*
X1105896Y-5226841D02*
X1172563Y-5083984D01*
X1172563Y-5083984D02*
X1172563Y-5283984D01*
X1353515Y-5283984D02*
X1353515Y-5179222D01*
X1353515Y-5179222D02*
X1343991Y-5160174D01*
X1343991Y-5160174D02*
X1324944Y-5150650D01*
X1324944Y-5150650D02*
X1286848Y-5150650D01*
X1286848Y-5150650D02*
X1267801Y-5160174D01*
X1353515Y-5274460D02*
X1334467Y-5283984D01*
X1334467Y-5283984D02*
X1286848Y-5283984D01*
X1286848Y-5283984D02*
X1267801Y-5274460D01*
X1267801Y-5274460D02*
X1258277Y-5255412D01*
X1258277Y-5255412D02*
X1258277Y-5236365D01*
X1258277Y-5236365D02*
X1267801Y-5217317D01*
X1267801Y-5217317D02*
X1286848Y-5207793D01*
X1286848Y-5207793D02*
X1334467Y-5207793D01*
X1334467Y-5207793D02*
X1353515Y-5198270D01*
X1448753Y-5150650D02*
X1448753Y-5350650D01*
X1448753Y-5160174D02*
X1467801Y-5150650D01*
X1467801Y-5150650D02*
X1505896Y-5150650D01*
X1505896Y-5150650D02*
X1524943Y-5160174D01*
X1524943Y-5160174D02*
X1534467Y-5169698D01*
X1534467Y-5169698D02*
X1543991Y-5188746D01*
X1543991Y-5188746D02*
X1543991Y-5245889D01*
X1543991Y-5245889D02*
X1534467Y-5264936D01*
X1534467Y-5264936D02*
X1524943Y-5274460D01*
X1524943Y-5274460D02*
X1505896Y-5283984D01*
X1505896Y-5283984D02*
X1467801Y-5283984D01*
X1467801Y-5283984D02*
X1448753Y-5274460D01*
X1629705Y-5264936D02*
X1639229Y-5274460D01*
X1639229Y-5274460D02*
X1629705Y-5283984D01*
X1629705Y-5283984D02*
X1620182Y-5274460D01*
X1620182Y-5274460D02*
X1629705Y-5264936D01*
X1629705Y-5264936D02*
X1629705Y-5283984D01*
X1629705Y-5160174D02*
X1639229Y-5169698D01*
X1639229Y-5169698D02*
X1629705Y-5179222D01*
X1629705Y-5179222D02*
X1620182Y-5169698D01*
X1620182Y-5169698D02*
X1629705Y-5160174D01*
X1629705Y-5160174D02*
X1629705Y-5179222D01*
D12*
X-32500Y-5597500D02*
X-2500Y-5627500D01*
X-2500Y-5597500D02*
X-32500Y-5627500D01*
D11*
X296372Y-5503984D02*
X315420Y-5503984D01*
X315420Y-5503984D02*
X334467Y-5513508D01*
X334467Y-5513508D02*
X343991Y-5523031D01*
X343991Y-5523031D02*
X353515Y-5542079D01*
X353515Y-5542079D02*
X363039Y-5580174D01*
X363039Y-5580174D02*
X363039Y-5627793D01*
X363039Y-5627793D02*
X353515Y-5665888D01*
X353515Y-5665888D02*
X343991Y-5684936D01*
X343991Y-5684936D02*
X334467Y-5694460D01*
X334467Y-5694460D02*
X315420Y-5703984D01*
X315420Y-5703984D02*
X296372Y-5703984D01*
X296372Y-5703984D02*
X277324Y-5694460D01*
X277324Y-5694460D02*
X267801Y-5684936D01*
X267801Y-5684936D02*
X258277Y-5665888D01*
X258277Y-5665888D02*
X248753Y-5627793D01*
X248753Y-5627793D02*
X248753Y-5580174D01*
X248753Y-5580174D02*
X258277Y-5542079D01*
X258277Y-5542079D02*
X267801Y-5523031D01*
X267801Y-5523031D02*
X277324Y-5513508D01*
X277324Y-5513508D02*
X296372Y-5503984D01*
X448753Y-5684936D02*
X458277Y-5694460D01*
X458277Y-5694460D02*
X448753Y-5703984D01*
X448753Y-5703984D02*
X439229Y-5694460D01*
X439229Y-5694460D02*
X448753Y-5684936D01*
X448753Y-5684936D02*
X448753Y-5703984D01*
X524944Y-5503984D02*
X648753Y-5503984D01*
X648753Y-5503984D02*
X582086Y-5580174D01*
X582086Y-5580174D02*
X610658Y-5580174D01*
X610658Y-5580174D02*
X629705Y-5589698D01*
X629705Y-5589698D02*
X639229Y-5599222D01*
X639229Y-5599222D02*
X648753Y-5618269D01*
X648753Y-5618269D02*
X648753Y-5665888D01*
X648753Y-5665888D02*
X639229Y-5684936D01*
X639229Y-5684936D02*
X629705Y-5694460D01*
X629705Y-5694460D02*
X610658Y-5703984D01*
X610658Y-5703984D02*
X553515Y-5703984D01*
X553515Y-5703984D02*
X534467Y-5694460D01*
X534467Y-5694460D02*
X524944Y-5684936D01*
X772562Y-5503984D02*
X791610Y-5503984D01*
X791610Y-5503984D02*
X810658Y-5513508D01*
X810658Y-5513508D02*
X820182Y-5523031D01*
X820182Y-5523031D02*
X829705Y-5542079D01*
X829705Y-5542079D02*
X839229Y-5580174D01*
X839229Y-5580174D02*
X839229Y-5627793D01*
X839229Y-5627793D02*
X829705Y-5665888D01*
X829705Y-5665888D02*
X820182Y-5684936D01*
X820182Y-5684936D02*
X810658Y-5694460D01*
X810658Y-5694460D02*
X791610Y-5703984D01*
X791610Y-5703984D02*
X772562Y-5703984D01*
X772562Y-5703984D02*
X753515Y-5694460D01*
X753515Y-5694460D02*
X743991Y-5684936D01*
X743991Y-5684936D02*
X734467Y-5665888D01*
X734467Y-5665888D02*
X724943Y-5627793D01*
X724943Y-5627793D02*
X724943Y-5580174D01*
X724943Y-5580174D02*
X734467Y-5542079D01*
X734467Y-5542079D02*
X743991Y-5523031D01*
X743991Y-5523031D02*
X753515Y-5513508D01*
X753515Y-5513508D02*
X772562Y-5503984D01*
X963039Y-5503984D02*
X982086Y-5503984D01*
X982086Y-5503984D02*
X1001134Y-5513508D01*
X1001134Y-5513508D02*
X1010658Y-5523031D01*
X1010658Y-5523031D02*
X1020182Y-5542079D01*
X1020182Y-5542079D02*
X1029705Y-5580174D01*
X1029705Y-5580174D02*
X1029705Y-5627793D01*
X1029705Y-5627793D02*
X1020182Y-5665888D01*
X1020182Y-5665888D02*
X1010658Y-5684936D01*
X1010658Y-5684936D02*
X1001134Y-5694460D01*
X1001134Y-5694460D02*
X982086Y-5703984D01*
X982086Y-5703984D02*
X963039Y-5703984D01*
X963039Y-5703984D02*
X943991Y-5694460D01*
X943991Y-5694460D02*
X934467Y-5684936D01*
X934467Y-5684936D02*
X924943Y-5665888D01*
X924943Y-5665888D02*
X915420Y-5627793D01*
X915420Y-5627793D02*
X915420Y-5580174D01*
X915420Y-5580174D02*
X924943Y-5542079D01*
X924943Y-5542079D02*
X934467Y-5523031D01*
X934467Y-5523031D02*
X943991Y-5513508D01*
X943991Y-5513508D02*
X963039Y-5503984D01*
X1115420Y-5703984D02*
X1115420Y-5570650D01*
X1115420Y-5589698D02*
X1124944Y-5580174D01*
X1124944Y-5580174D02*
X1143991Y-5570650D01*
X1143991Y-5570650D02*
X1172563Y-5570650D01*
X1172563Y-5570650D02*
X1191610Y-5580174D01*
X1191610Y-5580174D02*
X1201134Y-5599222D01*
X1201134Y-5599222D02*
X1201134Y-5703984D01*
X1201134Y-5599222D02*
X1210658Y-5580174D01*
X1210658Y-5580174D02*
X1229705Y-5570650D01*
X1229705Y-5570650D02*
X1258277Y-5570650D01*
X1258277Y-5570650D02*
X1277325Y-5580174D01*
X1277325Y-5580174D02*
X1286848Y-5599222D01*
X1286848Y-5599222D02*
X1286848Y-5703984D01*
X1382086Y-5703984D02*
X1382086Y-5570650D01*
X1382086Y-5589698D02*
X1391610Y-5580174D01*
X1391610Y-5580174D02*
X1410658Y-5570650D01*
X1410658Y-5570650D02*
X1439229Y-5570650D01*
X1439229Y-5570650D02*
X1458277Y-5580174D01*
X1458277Y-5580174D02*
X1467801Y-5599222D01*
X1467801Y-5599222D02*
X1467801Y-5703984D01*
X1467801Y-5599222D02*
X1477324Y-5580174D01*
X1477324Y-5580174D02*
X1496372Y-5570650D01*
X1496372Y-5570650D02*
X1524943Y-5570650D01*
X1524943Y-5570650D02*
X1543991Y-5580174D01*
X1543991Y-5580174D02*
X1553515Y-5599222D01*
X1553515Y-5599222D02*
X1553515Y-5703984D01*
X1943991Y-5494460D02*
X1772563Y-5751603D01*
X2201134Y-5503984D02*
X2220182Y-5503984D01*
X2220182Y-5503984D02*
X2239229Y-5513508D01*
X2239229Y-5513508D02*
X2248753Y-5523031D01*
X2248753Y-5523031D02*
X2258277Y-5542079D01*
X2258277Y-5542079D02*
X2267801Y-5580174D01*
X2267801Y-5580174D02*
X2267801Y-5627793D01*
X2267801Y-5627793D02*
X2258277Y-5665888D01*
X2258277Y-5665888D02*
X2248753Y-5684936D01*
X2248753Y-5684936D02*
X2239229Y-5694460D01*
X2239229Y-5694460D02*
X2220182Y-5703984D01*
X2220182Y-5703984D02*
X2201134Y-5703984D01*
X2201134Y-5703984D02*
X2182087Y-5694460D01*
X2182087Y-5694460D02*
X2172563Y-5684936D01*
X2172563Y-5684936D02*
X2163039Y-5665888D01*
X2163039Y-5665888D02*
X2153515Y-5627793D01*
X2153515Y-5627793D02*
X2153515Y-5580174D01*
X2153515Y-5580174D02*
X2163039Y-5542079D01*
X2163039Y-5542079D02*
X2172563Y-5523031D01*
X2172563Y-5523031D02*
X2182087Y-5513508D01*
X2182087Y-5513508D02*
X2201134Y-5503984D01*
X2353515Y-5684936D02*
X2363039Y-5694460D01*
X2363039Y-5694460D02*
X2353515Y-5703984D01*
X2353515Y-5703984D02*
X2343991Y-5694460D01*
X2343991Y-5694460D02*
X2353515Y-5684936D01*
X2353515Y-5684936D02*
X2353515Y-5703984D01*
X2486848Y-5503984D02*
X2505896Y-5503984D01*
X2505896Y-5503984D02*
X2524944Y-5513508D01*
X2524944Y-5513508D02*
X2534468Y-5523031D01*
X2534468Y-5523031D02*
X2543991Y-5542079D01*
X2543991Y-5542079D02*
X2553515Y-5580174D01*
X2553515Y-5580174D02*
X2553515Y-5627793D01*
X2553515Y-5627793D02*
X2543991Y-5665888D01*
X2543991Y-5665888D02*
X2534468Y-5684936D01*
X2534468Y-5684936D02*
X2524944Y-5694460D01*
X2524944Y-5694460D02*
X2505896Y-5703984D01*
X2505896Y-5703984D02*
X2486848Y-5703984D01*
X2486848Y-5703984D02*
X2467801Y-5694460D01*
X2467801Y-5694460D02*
X2458277Y-5684936D01*
X2458277Y-5684936D02*
X2448753Y-5665888D01*
X2448753Y-5665888D02*
X2439229Y-5627793D01*
X2439229Y-5627793D02*
X2439229Y-5580174D01*
X2439229Y-5580174D02*
X2448753Y-5542079D01*
X2448753Y-5542079D02*
X2458277Y-5523031D01*
X2458277Y-5523031D02*
X2467801Y-5513508D01*
X2467801Y-5513508D02*
X2486848Y-5503984D01*
X2743991Y-5703984D02*
X2629706Y-5703984D01*
X2686848Y-5703984D02*
X2686848Y-5503984D01*
X2686848Y-5503984D02*
X2667801Y-5532555D01*
X2667801Y-5532555D02*
X2648753Y-5551603D01*
X2648753Y-5551603D02*
X2629706Y-5561127D01*
X2934467Y-5703984D02*
X2820182Y-5703984D01*
X2877325Y-5703984D02*
X2877325Y-5503984D01*
X2877325Y-5503984D02*
X2858277Y-5532555D01*
X2858277Y-5532555D02*
X2839229Y-5551603D01*
X2839229Y-5551603D02*
X2820182Y-5561127D01*
X3048753Y-5589698D02*
X3029706Y-5580174D01*
X3029706Y-5580174D02*
X3020182Y-5570650D01*
X3020182Y-5570650D02*
X3010658Y-5551603D01*
X3010658Y-5551603D02*
X3010658Y-5542079D01*
X3010658Y-5542079D02*
X3020182Y-5523031D01*
X3020182Y-5523031D02*
X3029706Y-5513508D01*
X3029706Y-5513508D02*
X3048753Y-5503984D01*
X3048753Y-5503984D02*
X3086848Y-5503984D01*
X3086848Y-5503984D02*
X3105896Y-5513508D01*
X3105896Y-5513508D02*
X3115420Y-5523031D01*
X3115420Y-5523031D02*
X3124944Y-5542079D01*
X3124944Y-5542079D02*
X3124944Y-5551603D01*
X3124944Y-5551603D02*
X3115420Y-5570650D01*
X3115420Y-5570650D02*
X3105896Y-5580174D01*
X3105896Y-5580174D02*
X3086848Y-5589698D01*
X3086848Y-5589698D02*
X3048753Y-5589698D01*
X3048753Y-5589698D02*
X3029706Y-5599222D01*
X3029706Y-5599222D02*
X3020182Y-5608746D01*
X3020182Y-5608746D02*
X3010658Y-5627793D01*
X3010658Y-5627793D02*
X3010658Y-5665888D01*
X3010658Y-5665888D02*
X3020182Y-5684936D01*
X3020182Y-5684936D02*
X3029706Y-5694460D01*
X3029706Y-5694460D02*
X3048753Y-5703984D01*
X3048753Y-5703984D02*
X3086848Y-5703984D01*
X3086848Y-5703984D02*
X3105896Y-5694460D01*
X3105896Y-5694460D02*
X3115420Y-5684936D01*
X3115420Y-5684936D02*
X3124944Y-5665888D01*
X3124944Y-5665888D02*
X3124944Y-5627793D01*
X3124944Y-5627793D02*
X3115420Y-5608746D01*
X3115420Y-5608746D02*
X3105896Y-5599222D01*
X3105896Y-5599222D02*
X3086848Y-5589698D01*
X3201134Y-5503984D02*
X3201134Y-5542079D01*
X3277325Y-5503984D02*
X3277325Y-5542079D01*
X3572563Y-5780174D02*
X3563039Y-5770650D01*
X3563039Y-5770650D02*
X3543991Y-5742079D01*
X3543991Y-5742079D02*
X3534468Y-5723031D01*
X3534468Y-5723031D02*
X3524944Y-5694460D01*
X3524944Y-5694460D02*
X3515420Y-5646841D01*
X3515420Y-5646841D02*
X3515420Y-5608746D01*
X3515420Y-5608746D02*
X3524944Y-5561127D01*
X3524944Y-5561127D02*
X3534468Y-5532555D01*
X3534468Y-5532555D02*
X3543991Y-5513508D01*
X3543991Y-5513508D02*
X3563039Y-5484936D01*
X3563039Y-5484936D02*
X3572563Y-5475412D01*
X3677325Y-5589698D02*
X3658277Y-5580174D01*
X3658277Y-5580174D02*
X3648753Y-5570650D01*
X3648753Y-5570650D02*
X3639229Y-5551603D01*
X3639229Y-5551603D02*
X3639229Y-5542079D01*
X3639229Y-5542079D02*
X3648753Y-5523031D01*
X3648753Y-5523031D02*
X3658277Y-5513508D01*
X3658277Y-5513508D02*
X3677325Y-5503984D01*
X3677325Y-5503984D02*
X3715420Y-5503984D01*
X3715420Y-5503984D02*
X3734468Y-5513508D01*
X3734468Y-5513508D02*
X3743991Y-5523031D01*
X3743991Y-5523031D02*
X3753515Y-5542079D01*
X3753515Y-5542079D02*
X3753515Y-5551603D01*
X3753515Y-5551603D02*
X3743991Y-5570650D01*
X3743991Y-5570650D02*
X3734468Y-5580174D01*
X3734468Y-5580174D02*
X3715420Y-5589698D01*
X3715420Y-5589698D02*
X3677325Y-5589698D01*
X3677325Y-5589698D02*
X3658277Y-5599222D01*
X3658277Y-5599222D02*
X3648753Y-5608746D01*
X3648753Y-5608746D02*
X3639229Y-5627793D01*
X3639229Y-5627793D02*
X3639229Y-5665888D01*
X3639229Y-5665888D02*
X3648753Y-5684936D01*
X3648753Y-5684936D02*
X3658277Y-5694460D01*
X3658277Y-5694460D02*
X3677325Y-5703984D01*
X3677325Y-5703984D02*
X3715420Y-5703984D01*
X3715420Y-5703984D02*
X3734468Y-5694460D01*
X3734468Y-5694460D02*
X3743991Y-5684936D01*
X3743991Y-5684936D02*
X3753515Y-5665888D01*
X3753515Y-5665888D02*
X3753515Y-5627793D01*
X3753515Y-5627793D02*
X3743991Y-5608746D01*
X3743991Y-5608746D02*
X3734468Y-5599222D01*
X3734468Y-5599222D02*
X3715420Y-5589698D01*
X3877325Y-5503984D02*
X3896372Y-5503984D01*
X3896372Y-5503984D02*
X3915420Y-5513508D01*
X3915420Y-5513508D02*
X3924944Y-5523031D01*
X3924944Y-5523031D02*
X3934468Y-5542079D01*
X3934468Y-5542079D02*
X3943991Y-5580174D01*
X3943991Y-5580174D02*
X3943991Y-5627793D01*
X3943991Y-5627793D02*
X3934468Y-5665888D01*
X3934468Y-5665888D02*
X3924944Y-5684936D01*
X3924944Y-5684936D02*
X3915420Y-5694460D01*
X3915420Y-5694460D02*
X3896372Y-5703984D01*
X3896372Y-5703984D02*
X3877325Y-5703984D01*
X3877325Y-5703984D02*
X3858277Y-5694460D01*
X3858277Y-5694460D02*
X3848753Y-5684936D01*
X3848753Y-5684936D02*
X3839229Y-5665888D01*
X3839229Y-5665888D02*
X3829706Y-5627793D01*
X3829706Y-5627793D02*
X3829706Y-5580174D01*
X3829706Y-5580174D02*
X3839229Y-5542079D01*
X3839229Y-5542079D02*
X3848753Y-5523031D01*
X3848753Y-5523031D02*
X3858277Y-5513508D01*
X3858277Y-5513508D02*
X3877325Y-5503984D01*
X4182087Y-5703984D02*
X4182087Y-5503984D01*
X4267801Y-5703984D02*
X4267801Y-5599222D01*
X4267801Y-5599222D02*
X4258277Y-5580174D01*
X4258277Y-5580174D02*
X4239230Y-5570650D01*
X4239230Y-5570650D02*
X4210658Y-5570650D01*
X4210658Y-5570650D02*
X4191610Y-5580174D01*
X4191610Y-5580174D02*
X4182087Y-5589698D01*
X4391611Y-5703984D02*
X4372563Y-5694460D01*
X4372563Y-5694460D02*
X4363039Y-5684936D01*
X4363039Y-5684936D02*
X4353515Y-5665888D01*
X4353515Y-5665888D02*
X4353515Y-5608746D01*
X4353515Y-5608746D02*
X4363039Y-5589698D01*
X4363039Y-5589698D02*
X4372563Y-5580174D01*
X4372563Y-5580174D02*
X4391611Y-5570650D01*
X4391611Y-5570650D02*
X4420182Y-5570650D01*
X4420182Y-5570650D02*
X4439230Y-5580174D01*
X4439230Y-5580174D02*
X4448753Y-5589698D01*
X4448753Y-5589698D02*
X4458277Y-5608746D01*
X4458277Y-5608746D02*
X4458277Y-5665888D01*
X4458277Y-5665888D02*
X4448753Y-5684936D01*
X4448753Y-5684936D02*
X4439230Y-5694460D01*
X4439230Y-5694460D02*
X4420182Y-5703984D01*
X4420182Y-5703984D02*
X4391611Y-5703984D01*
X4572563Y-5703984D02*
X4553515Y-5694460D01*
X4553515Y-5694460D02*
X4543992Y-5675412D01*
X4543992Y-5675412D02*
X4543992Y-5503984D01*
X4724944Y-5694460D02*
X4705896Y-5703984D01*
X4705896Y-5703984D02*
X4667801Y-5703984D01*
X4667801Y-5703984D02*
X4648753Y-5694460D01*
X4648753Y-5694460D02*
X4639230Y-5675412D01*
X4639230Y-5675412D02*
X4639230Y-5599222D01*
X4639230Y-5599222D02*
X4648753Y-5580174D01*
X4648753Y-5580174D02*
X4667801Y-5570650D01*
X4667801Y-5570650D02*
X4705896Y-5570650D01*
X4705896Y-5570650D02*
X4724944Y-5580174D01*
X4724944Y-5580174D02*
X4734468Y-5599222D01*
X4734468Y-5599222D02*
X4734468Y-5618269D01*
X4734468Y-5618269D02*
X4639230Y-5637317D01*
X4810658Y-5694460D02*
X4829706Y-5703984D01*
X4829706Y-5703984D02*
X4867801Y-5703984D01*
X4867801Y-5703984D02*
X4886849Y-5694460D01*
X4886849Y-5694460D02*
X4896373Y-5675412D01*
X4896373Y-5675412D02*
X4896373Y-5665888D01*
X4896373Y-5665888D02*
X4886849Y-5646841D01*
X4886849Y-5646841D02*
X4867801Y-5637317D01*
X4867801Y-5637317D02*
X4839230Y-5637317D01*
X4839230Y-5637317D02*
X4820182Y-5627793D01*
X4820182Y-5627793D02*
X4810658Y-5608746D01*
X4810658Y-5608746D02*
X4810658Y-5599222D01*
X4810658Y-5599222D02*
X4820182Y-5580174D01*
X4820182Y-5580174D02*
X4839230Y-5570650D01*
X4839230Y-5570650D02*
X4867801Y-5570650D01*
X4867801Y-5570650D02*
X4886849Y-5580174D01*
X4963039Y-5780174D02*
X4972563Y-5770650D01*
X4972563Y-5770650D02*
X4991611Y-5742079D01*
X4991611Y-5742079D02*
X5001134Y-5723031D01*
X5001134Y-5723031D02*
X5010658Y-5694460D01*
X5010658Y-5694460D02*
X5020182Y-5646841D01*
X5020182Y-5646841D02*
X5020182Y-5608746D01*
X5020182Y-5608746D02*
X5010658Y-5561127D01*
X5010658Y-5561127D02*
X5001134Y-5532555D01*
X5001134Y-5532555D02*
X4991611Y-5513508D01*
X4991611Y-5513508D02*
X4972563Y-5484936D01*
X4972563Y-5484936D02*
X4963039Y-5475412D01*
D13*
X-2500Y-5876500D02*
G75*
G03*
X-2500Y-5876500I-30000J0D01*
G01*
D11*
X296372Y-5767984D02*
X315420Y-5767984D01*
X315420Y-5767984D02*
X334467Y-5777508D01*
X334467Y-5777508D02*
X343991Y-5787031D01*
X343991Y-5787031D02*
X353515Y-5806079D01*
X353515Y-5806079D02*
X363039Y-5844174D01*
X363039Y-5844174D02*
X363039Y-5891793D01*
X363039Y-5891793D02*
X353515Y-5929888D01*
X353515Y-5929888D02*
X343991Y-5948936D01*
X343991Y-5948936D02*
X334467Y-5958460D01*
X334467Y-5958460D02*
X315420Y-5967984D01*
X315420Y-5967984D02*
X296372Y-5967984D01*
X296372Y-5967984D02*
X277324Y-5958460D01*
X277324Y-5958460D02*
X267801Y-5948936D01*
X267801Y-5948936D02*
X258277Y-5929888D01*
X258277Y-5929888D02*
X248753Y-5891793D01*
X248753Y-5891793D02*
X248753Y-5844174D01*
X248753Y-5844174D02*
X258277Y-5806079D01*
X258277Y-5806079D02*
X267801Y-5787031D01*
X267801Y-5787031D02*
X277324Y-5777508D01*
X277324Y-5777508D02*
X296372Y-5767984D01*
X448753Y-5948936D02*
X458277Y-5958460D01*
X458277Y-5958460D02*
X448753Y-5967984D01*
X448753Y-5967984D02*
X439229Y-5958460D01*
X439229Y-5958460D02*
X448753Y-5948936D01*
X448753Y-5948936D02*
X448753Y-5967984D01*
X629705Y-5767984D02*
X591610Y-5767984D01*
X591610Y-5767984D02*
X572563Y-5777508D01*
X572563Y-5777508D02*
X563039Y-5787031D01*
X563039Y-5787031D02*
X543991Y-5815603D01*
X543991Y-5815603D02*
X534467Y-5853698D01*
X534467Y-5853698D02*
X534467Y-5929888D01*
X534467Y-5929888D02*
X543991Y-5948936D01*
X543991Y-5948936D02*
X553515Y-5958460D01*
X553515Y-5958460D02*
X572563Y-5967984D01*
X572563Y-5967984D02*
X610658Y-5967984D01*
X610658Y-5967984D02*
X629705Y-5958460D01*
X629705Y-5958460D02*
X639229Y-5948936D01*
X639229Y-5948936D02*
X648753Y-5929888D01*
X648753Y-5929888D02*
X648753Y-5882269D01*
X648753Y-5882269D02*
X639229Y-5863222D01*
X639229Y-5863222D02*
X629705Y-5853698D01*
X629705Y-5853698D02*
X610658Y-5844174D01*
X610658Y-5844174D02*
X572563Y-5844174D01*
X572563Y-5844174D02*
X553515Y-5853698D01*
X553515Y-5853698D02*
X543991Y-5863222D01*
X543991Y-5863222D02*
X534467Y-5882269D01*
X772562Y-5767984D02*
X791610Y-5767984D01*
X791610Y-5767984D02*
X810658Y-5777508D01*
X810658Y-5777508D02*
X820182Y-5787031D01*
X820182Y-5787031D02*
X829705Y-5806079D01*
X829705Y-5806079D02*
X839229Y-5844174D01*
X839229Y-5844174D02*
X839229Y-5891793D01*
X839229Y-5891793D02*
X829705Y-5929888D01*
X829705Y-5929888D02*
X820182Y-5948936D01*
X820182Y-5948936D02*
X810658Y-5958460D01*
X810658Y-5958460D02*
X791610Y-5967984D01*
X791610Y-5967984D02*
X772562Y-5967984D01*
X772562Y-5967984D02*
X753515Y-5958460D01*
X753515Y-5958460D02*
X743991Y-5948936D01*
X743991Y-5948936D02*
X734467Y-5929888D01*
X734467Y-5929888D02*
X724943Y-5891793D01*
X724943Y-5891793D02*
X724943Y-5844174D01*
X724943Y-5844174D02*
X734467Y-5806079D01*
X734467Y-5806079D02*
X743991Y-5787031D01*
X743991Y-5787031D02*
X753515Y-5777508D01*
X753515Y-5777508D02*
X772562Y-5767984D01*
X963039Y-5767984D02*
X982086Y-5767984D01*
X982086Y-5767984D02*
X1001134Y-5777508D01*
X1001134Y-5777508D02*
X1010658Y-5787031D01*
X1010658Y-5787031D02*
X1020182Y-5806079D01*
X1020182Y-5806079D02*
X1029705Y-5844174D01*
X1029705Y-5844174D02*
X1029705Y-5891793D01*
X1029705Y-5891793D02*
X1020182Y-5929888D01*
X1020182Y-5929888D02*
X1010658Y-5948936D01*
X1010658Y-5948936D02*
X1001134Y-5958460D01*
X1001134Y-5958460D02*
X982086Y-5967984D01*
X982086Y-5967984D02*
X963039Y-5967984D01*
X963039Y-5967984D02*
X943991Y-5958460D01*
X943991Y-5958460D02*
X934467Y-5948936D01*
X934467Y-5948936D02*
X924943Y-5929888D01*
X924943Y-5929888D02*
X915420Y-5891793D01*
X915420Y-5891793D02*
X915420Y-5844174D01*
X915420Y-5844174D02*
X924943Y-5806079D01*
X924943Y-5806079D02*
X934467Y-5787031D01*
X934467Y-5787031D02*
X943991Y-5777508D01*
X943991Y-5777508D02*
X963039Y-5767984D01*
X1115420Y-5967984D02*
X1115420Y-5834650D01*
X1115420Y-5853698D02*
X1124944Y-5844174D01*
X1124944Y-5844174D02*
X1143991Y-5834650D01*
X1143991Y-5834650D02*
X1172563Y-5834650D01*
X1172563Y-5834650D02*
X1191610Y-5844174D01*
X1191610Y-5844174D02*
X1201134Y-5863222D01*
X1201134Y-5863222D02*
X1201134Y-5967984D01*
X1201134Y-5863222D02*
X1210658Y-5844174D01*
X1210658Y-5844174D02*
X1229705Y-5834650D01*
X1229705Y-5834650D02*
X1258277Y-5834650D01*
X1258277Y-5834650D02*
X1277325Y-5844174D01*
X1277325Y-5844174D02*
X1286848Y-5863222D01*
X1286848Y-5863222D02*
X1286848Y-5967984D01*
X1382086Y-5967984D02*
X1382086Y-5834650D01*
X1382086Y-5853698D02*
X1391610Y-5844174D01*
X1391610Y-5844174D02*
X1410658Y-5834650D01*
X1410658Y-5834650D02*
X1439229Y-5834650D01*
X1439229Y-5834650D02*
X1458277Y-5844174D01*
X1458277Y-5844174D02*
X1467801Y-5863222D01*
X1467801Y-5863222D02*
X1467801Y-5967984D01*
X1467801Y-5863222D02*
X1477324Y-5844174D01*
X1477324Y-5844174D02*
X1496372Y-5834650D01*
X1496372Y-5834650D02*
X1524943Y-5834650D01*
X1524943Y-5834650D02*
X1543991Y-5844174D01*
X1543991Y-5844174D02*
X1553515Y-5863222D01*
X1553515Y-5863222D02*
X1553515Y-5967984D01*
X1943991Y-5758460D02*
X1772563Y-6015603D01*
X2201134Y-5767984D02*
X2220182Y-5767984D01*
X2220182Y-5767984D02*
X2239229Y-5777508D01*
X2239229Y-5777508D02*
X2248753Y-5787031D01*
X2248753Y-5787031D02*
X2258277Y-5806079D01*
X2258277Y-5806079D02*
X2267801Y-5844174D01*
X2267801Y-5844174D02*
X2267801Y-5891793D01*
X2267801Y-5891793D02*
X2258277Y-5929888D01*
X2258277Y-5929888D02*
X2248753Y-5948936D01*
X2248753Y-5948936D02*
X2239229Y-5958460D01*
X2239229Y-5958460D02*
X2220182Y-5967984D01*
X2220182Y-5967984D02*
X2201134Y-5967984D01*
X2201134Y-5967984D02*
X2182087Y-5958460D01*
X2182087Y-5958460D02*
X2172563Y-5948936D01*
X2172563Y-5948936D02*
X2163039Y-5929888D01*
X2163039Y-5929888D02*
X2153515Y-5891793D01*
X2153515Y-5891793D02*
X2153515Y-5844174D01*
X2153515Y-5844174D02*
X2163039Y-5806079D01*
X2163039Y-5806079D02*
X2172563Y-5787031D01*
X2172563Y-5787031D02*
X2182087Y-5777508D01*
X2182087Y-5777508D02*
X2201134Y-5767984D01*
X2353515Y-5948936D02*
X2363039Y-5958460D01*
X2363039Y-5958460D02*
X2353515Y-5967984D01*
X2353515Y-5967984D02*
X2343991Y-5958460D01*
X2343991Y-5958460D02*
X2353515Y-5948936D01*
X2353515Y-5948936D02*
X2353515Y-5967984D01*
X2486848Y-5767984D02*
X2505896Y-5767984D01*
X2505896Y-5767984D02*
X2524944Y-5777508D01*
X2524944Y-5777508D02*
X2534468Y-5787031D01*
X2534468Y-5787031D02*
X2543991Y-5806079D01*
X2543991Y-5806079D02*
X2553515Y-5844174D01*
X2553515Y-5844174D02*
X2553515Y-5891793D01*
X2553515Y-5891793D02*
X2543991Y-5929888D01*
X2543991Y-5929888D02*
X2534468Y-5948936D01*
X2534468Y-5948936D02*
X2524944Y-5958460D01*
X2524944Y-5958460D02*
X2505896Y-5967984D01*
X2505896Y-5967984D02*
X2486848Y-5967984D01*
X2486848Y-5967984D02*
X2467801Y-5958460D01*
X2467801Y-5958460D02*
X2458277Y-5948936D01*
X2458277Y-5948936D02*
X2448753Y-5929888D01*
X2448753Y-5929888D02*
X2439229Y-5891793D01*
X2439229Y-5891793D02*
X2439229Y-5844174D01*
X2439229Y-5844174D02*
X2448753Y-5806079D01*
X2448753Y-5806079D02*
X2458277Y-5787031D01*
X2458277Y-5787031D02*
X2467801Y-5777508D01*
X2467801Y-5777508D02*
X2486848Y-5767984D01*
X2629706Y-5787031D02*
X2639229Y-5777508D01*
X2639229Y-5777508D02*
X2658277Y-5767984D01*
X2658277Y-5767984D02*
X2705896Y-5767984D01*
X2705896Y-5767984D02*
X2724944Y-5777508D01*
X2724944Y-5777508D02*
X2734468Y-5787031D01*
X2734468Y-5787031D02*
X2743991Y-5806079D01*
X2743991Y-5806079D02*
X2743991Y-5825127D01*
X2743991Y-5825127D02*
X2734468Y-5853698D01*
X2734468Y-5853698D02*
X2620182Y-5967984D01*
X2620182Y-5967984D02*
X2743991Y-5967984D01*
X2810658Y-5767984D02*
X2934467Y-5767984D01*
X2934467Y-5767984D02*
X2867801Y-5844174D01*
X2867801Y-5844174D02*
X2896372Y-5844174D01*
X2896372Y-5844174D02*
X2915420Y-5853698D01*
X2915420Y-5853698D02*
X2924944Y-5863222D01*
X2924944Y-5863222D02*
X2934467Y-5882269D01*
X2934467Y-5882269D02*
X2934467Y-5929888D01*
X2934467Y-5929888D02*
X2924944Y-5948936D01*
X2924944Y-5948936D02*
X2915420Y-5958460D01*
X2915420Y-5958460D02*
X2896372Y-5967984D01*
X2896372Y-5967984D02*
X2839229Y-5967984D01*
X2839229Y-5967984D02*
X2820182Y-5958460D01*
X2820182Y-5958460D02*
X2810658Y-5948936D01*
X3105896Y-5767984D02*
X3067801Y-5767984D01*
X3067801Y-5767984D02*
X3048753Y-5777508D01*
X3048753Y-5777508D02*
X3039229Y-5787031D01*
X3039229Y-5787031D02*
X3020182Y-5815603D01*
X3020182Y-5815603D02*
X3010658Y-5853698D01*
X3010658Y-5853698D02*
X3010658Y-5929888D01*
X3010658Y-5929888D02*
X3020182Y-5948936D01*
X3020182Y-5948936D02*
X3029706Y-5958460D01*
X3029706Y-5958460D02*
X3048753Y-5967984D01*
X3048753Y-5967984D02*
X3086848Y-5967984D01*
X3086848Y-5967984D02*
X3105896Y-5958460D01*
X3105896Y-5958460D02*
X3115420Y-5948936D01*
X3115420Y-5948936D02*
X3124944Y-5929888D01*
X3124944Y-5929888D02*
X3124944Y-5882269D01*
X3124944Y-5882269D02*
X3115420Y-5863222D01*
X3115420Y-5863222D02*
X3105896Y-5853698D01*
X3105896Y-5853698D02*
X3086848Y-5844174D01*
X3086848Y-5844174D02*
X3048753Y-5844174D01*
X3048753Y-5844174D02*
X3029706Y-5853698D01*
X3029706Y-5853698D02*
X3020182Y-5863222D01*
X3020182Y-5863222D02*
X3010658Y-5882269D01*
X3201134Y-5767984D02*
X3201134Y-5806079D01*
X3277325Y-5767984D02*
X3277325Y-5806079D01*
X3572563Y-6044174D02*
X3563039Y-6034650D01*
X3563039Y-6034650D02*
X3543991Y-6006079D01*
X3543991Y-6006079D02*
X3534468Y-5987031D01*
X3534468Y-5987031D02*
X3524944Y-5958460D01*
X3524944Y-5958460D02*
X3515420Y-5910841D01*
X3515420Y-5910841D02*
X3515420Y-5872746D01*
X3515420Y-5872746D02*
X3524944Y-5825127D01*
X3524944Y-5825127D02*
X3534468Y-5796555D01*
X3534468Y-5796555D02*
X3543991Y-5777508D01*
X3543991Y-5777508D02*
X3563039Y-5748936D01*
X3563039Y-5748936D02*
X3572563Y-5739412D01*
X3734468Y-5834650D02*
X3734468Y-5967984D01*
X3686848Y-5758460D02*
X3639229Y-5901317D01*
X3639229Y-5901317D02*
X3763039Y-5901317D01*
X3991610Y-5967984D02*
X3991610Y-5767984D01*
X4077325Y-5967984D02*
X4077325Y-5863222D01*
X4077325Y-5863222D02*
X4067801Y-5844174D01*
X4067801Y-5844174D02*
X4048753Y-5834650D01*
X4048753Y-5834650D02*
X4020182Y-5834650D01*
X4020182Y-5834650D02*
X4001134Y-5844174D01*
X4001134Y-5844174D02*
X3991610Y-5853698D01*
X4201134Y-5967984D02*
X4182087Y-5958460D01*
X4182087Y-5958460D02*
X4172563Y-5948936D01*
X4172563Y-5948936D02*
X4163039Y-5929888D01*
X4163039Y-5929888D02*
X4163039Y-5872746D01*
X4163039Y-5872746D02*
X4172563Y-5853698D01*
X4172563Y-5853698D02*
X4182087Y-5844174D01*
X4182087Y-5844174D02*
X4201134Y-5834650D01*
X4201134Y-5834650D02*
X4229706Y-5834650D01*
X4229706Y-5834650D02*
X4248753Y-5844174D01*
X4248753Y-5844174D02*
X4258277Y-5853698D01*
X4258277Y-5853698D02*
X4267801Y-5872746D01*
X4267801Y-5872746D02*
X4267801Y-5929888D01*
X4267801Y-5929888D02*
X4258277Y-5948936D01*
X4258277Y-5948936D02*
X4248753Y-5958460D01*
X4248753Y-5958460D02*
X4229706Y-5967984D01*
X4229706Y-5967984D02*
X4201134Y-5967984D01*
X4382087Y-5967984D02*
X4363039Y-5958460D01*
X4363039Y-5958460D02*
X4353515Y-5939412D01*
X4353515Y-5939412D02*
X4353515Y-5767984D01*
X4534468Y-5958460D02*
X4515420Y-5967984D01*
X4515420Y-5967984D02*
X4477325Y-5967984D01*
X4477325Y-5967984D02*
X4458277Y-5958460D01*
X4458277Y-5958460D02*
X4448753Y-5939412D01*
X4448753Y-5939412D02*
X4448753Y-5863222D01*
X4448753Y-5863222D02*
X4458277Y-5844174D01*
X4458277Y-5844174D02*
X4477325Y-5834650D01*
X4477325Y-5834650D02*
X4515420Y-5834650D01*
X4515420Y-5834650D02*
X4534468Y-5844174D01*
X4534468Y-5844174D02*
X4543992Y-5863222D01*
X4543992Y-5863222D02*
X4543992Y-5882269D01*
X4543992Y-5882269D02*
X4448753Y-5901317D01*
X4620182Y-5958460D02*
X4639230Y-5967984D01*
X4639230Y-5967984D02*
X4677325Y-5967984D01*
X4677325Y-5967984D02*
X4696373Y-5958460D01*
X4696373Y-5958460D02*
X4705896Y-5939412D01*
X4705896Y-5939412D02*
X4705896Y-5929888D01*
X4705896Y-5929888D02*
X4696373Y-5910841D01*
X4696373Y-5910841D02*
X4677325Y-5901317D01*
X4677325Y-5901317D02*
X4648753Y-5901317D01*
X4648753Y-5901317D02*
X4629706Y-5891793D01*
X4629706Y-5891793D02*
X4620182Y-5872746D01*
X4620182Y-5872746D02*
X4620182Y-5863222D01*
X4620182Y-5863222D02*
X4629706Y-5844174D01*
X4629706Y-5844174D02*
X4648753Y-5834650D01*
X4648753Y-5834650D02*
X4677325Y-5834650D01*
X4677325Y-5834650D02*
X4696373Y-5844174D01*
X4772563Y-6044174D02*
X4782087Y-6034650D01*
X4782087Y-6034650D02*
X4801134Y-6006079D01*
X4801134Y-6006079D02*
X4810658Y-5987031D01*
X4810658Y-5987031D02*
X4820182Y-5958460D01*
X4820182Y-5958460D02*
X4829706Y-5910841D01*
X4829706Y-5910841D02*
X4829706Y-5872746D01*
X4829706Y-5872746D02*
X4820182Y-5825127D01*
X4820182Y-5825127D02*
X4810658Y-5796555D01*
X4810658Y-5796555D02*
X4801134Y-5777508D01*
X4801134Y-5777508D02*
X4782087Y-5748936D01*
X4782087Y-5748936D02*
X4772563Y-5739412D01*
D14*
X-42500Y-6100500D02*
X-42500Y-6180500D01*
X-82500Y-6140500D02*
X-2500Y-6140500D01*
D11*
X296372Y-6031984D02*
X315420Y-6031984D01*
X315420Y-6031984D02*
X334467Y-6041508D01*
X334467Y-6041508D02*
X343991Y-6051031D01*
X343991Y-6051031D02*
X353515Y-6070079D01*
X353515Y-6070079D02*
X363039Y-6108174D01*
X363039Y-6108174D02*
X363039Y-6155793D01*
X363039Y-6155793D02*
X353515Y-6193888D01*
X353515Y-6193888D02*
X343991Y-6212936D01*
X343991Y-6212936D02*
X334467Y-6222460D01*
X334467Y-6222460D02*
X315420Y-6231984D01*
X315420Y-6231984D02*
X296372Y-6231984D01*
X296372Y-6231984D02*
X277324Y-6222460D01*
X277324Y-6222460D02*
X267801Y-6212936D01*
X267801Y-6212936D02*
X258277Y-6193888D01*
X258277Y-6193888D02*
X248753Y-6155793D01*
X248753Y-6155793D02*
X248753Y-6108174D01*
X248753Y-6108174D02*
X258277Y-6070079D01*
X258277Y-6070079D02*
X267801Y-6051031D01*
X267801Y-6051031D02*
X277324Y-6041508D01*
X277324Y-6041508D02*
X296372Y-6031984D01*
X448753Y-6212936D02*
X458277Y-6222460D01*
X458277Y-6222460D02*
X448753Y-6231984D01*
X448753Y-6231984D02*
X439229Y-6222460D01*
X439229Y-6222460D02*
X448753Y-6212936D01*
X448753Y-6212936D02*
X448753Y-6231984D01*
X572563Y-6117698D02*
X553515Y-6108174D01*
X553515Y-6108174D02*
X543991Y-6098650D01*
X543991Y-6098650D02*
X534467Y-6079603D01*
X534467Y-6079603D02*
X534467Y-6070079D01*
X534467Y-6070079D02*
X543991Y-6051031D01*
X543991Y-6051031D02*
X553515Y-6041508D01*
X553515Y-6041508D02*
X572563Y-6031984D01*
X572563Y-6031984D02*
X610658Y-6031984D01*
X610658Y-6031984D02*
X629705Y-6041508D01*
X629705Y-6041508D02*
X639229Y-6051031D01*
X639229Y-6051031D02*
X648753Y-6070079D01*
X648753Y-6070079D02*
X648753Y-6079603D01*
X648753Y-6079603D02*
X639229Y-6098650D01*
X639229Y-6098650D02*
X629705Y-6108174D01*
X629705Y-6108174D02*
X610658Y-6117698D01*
X610658Y-6117698D02*
X572563Y-6117698D01*
X572563Y-6117698D02*
X553515Y-6127222D01*
X553515Y-6127222D02*
X543991Y-6136746D01*
X543991Y-6136746D02*
X534467Y-6155793D01*
X534467Y-6155793D02*
X534467Y-6193888D01*
X534467Y-6193888D02*
X543991Y-6212936D01*
X543991Y-6212936D02*
X553515Y-6222460D01*
X553515Y-6222460D02*
X572563Y-6231984D01*
X572563Y-6231984D02*
X610658Y-6231984D01*
X610658Y-6231984D02*
X629705Y-6222460D01*
X629705Y-6222460D02*
X639229Y-6212936D01*
X639229Y-6212936D02*
X648753Y-6193888D01*
X648753Y-6193888D02*
X648753Y-6155793D01*
X648753Y-6155793D02*
X639229Y-6136746D01*
X639229Y-6136746D02*
X629705Y-6127222D01*
X629705Y-6127222D02*
X610658Y-6117698D01*
X772562Y-6031984D02*
X791610Y-6031984D01*
X791610Y-6031984D02*
X810658Y-6041508D01*
X810658Y-6041508D02*
X820182Y-6051031D01*
X820182Y-6051031D02*
X829705Y-6070079D01*
X829705Y-6070079D02*
X839229Y-6108174D01*
X839229Y-6108174D02*
X839229Y-6155793D01*
X839229Y-6155793D02*
X829705Y-6193888D01*
X829705Y-6193888D02*
X820182Y-6212936D01*
X820182Y-6212936D02*
X810658Y-6222460D01*
X810658Y-6222460D02*
X791610Y-6231984D01*
X791610Y-6231984D02*
X772562Y-6231984D01*
X772562Y-6231984D02*
X753515Y-6222460D01*
X753515Y-6222460D02*
X743991Y-6212936D01*
X743991Y-6212936D02*
X734467Y-6193888D01*
X734467Y-6193888D02*
X724943Y-6155793D01*
X724943Y-6155793D02*
X724943Y-6108174D01*
X724943Y-6108174D02*
X734467Y-6070079D01*
X734467Y-6070079D02*
X743991Y-6051031D01*
X743991Y-6051031D02*
X753515Y-6041508D01*
X753515Y-6041508D02*
X772562Y-6031984D01*
X963039Y-6031984D02*
X982086Y-6031984D01*
X982086Y-6031984D02*
X1001134Y-6041508D01*
X1001134Y-6041508D02*
X1010658Y-6051031D01*
X1010658Y-6051031D02*
X1020182Y-6070079D01*
X1020182Y-6070079D02*
X1029705Y-6108174D01*
X1029705Y-6108174D02*
X1029705Y-6155793D01*
X1029705Y-6155793D02*
X1020182Y-6193888D01*
X1020182Y-6193888D02*
X1010658Y-6212936D01*
X1010658Y-6212936D02*
X1001134Y-6222460D01*
X1001134Y-6222460D02*
X982086Y-6231984D01*
X982086Y-6231984D02*
X963039Y-6231984D01*
X963039Y-6231984D02*
X943991Y-6222460D01*
X943991Y-6222460D02*
X934467Y-6212936D01*
X934467Y-6212936D02*
X924943Y-6193888D01*
X924943Y-6193888D02*
X915420Y-6155793D01*
X915420Y-6155793D02*
X915420Y-6108174D01*
X915420Y-6108174D02*
X924943Y-6070079D01*
X924943Y-6070079D02*
X934467Y-6051031D01*
X934467Y-6051031D02*
X943991Y-6041508D01*
X943991Y-6041508D02*
X963039Y-6031984D01*
X1115420Y-6231984D02*
X1115420Y-6098650D01*
X1115420Y-6117698D02*
X1124944Y-6108174D01*
X1124944Y-6108174D02*
X1143991Y-6098650D01*
X1143991Y-6098650D02*
X1172563Y-6098650D01*
X1172563Y-6098650D02*
X1191610Y-6108174D01*
X1191610Y-6108174D02*
X1201134Y-6127222D01*
X1201134Y-6127222D02*
X1201134Y-6231984D01*
X1201134Y-6127222D02*
X1210658Y-6108174D01*
X1210658Y-6108174D02*
X1229705Y-6098650D01*
X1229705Y-6098650D02*
X1258277Y-6098650D01*
X1258277Y-6098650D02*
X1277325Y-6108174D01*
X1277325Y-6108174D02*
X1286848Y-6127222D01*
X1286848Y-6127222D02*
X1286848Y-6231984D01*
X1382086Y-6231984D02*
X1382086Y-6098650D01*
X1382086Y-6117698D02*
X1391610Y-6108174D01*
X1391610Y-6108174D02*
X1410658Y-6098650D01*
X1410658Y-6098650D02*
X1439229Y-6098650D01*
X1439229Y-6098650D02*
X1458277Y-6108174D01*
X1458277Y-6108174D02*
X1467801Y-6127222D01*
X1467801Y-6127222D02*
X1467801Y-6231984D01*
X1467801Y-6127222D02*
X1477324Y-6108174D01*
X1477324Y-6108174D02*
X1496372Y-6098650D01*
X1496372Y-6098650D02*
X1524943Y-6098650D01*
X1524943Y-6098650D02*
X1543991Y-6108174D01*
X1543991Y-6108174D02*
X1553515Y-6127222D01*
X1553515Y-6127222D02*
X1553515Y-6231984D01*
X1943991Y-6022460D02*
X1772563Y-6279603D01*
X2201134Y-6031984D02*
X2220182Y-6031984D01*
X2220182Y-6031984D02*
X2239229Y-6041508D01*
X2239229Y-6041508D02*
X2248753Y-6051031D01*
X2248753Y-6051031D02*
X2258277Y-6070079D01*
X2258277Y-6070079D02*
X2267801Y-6108174D01*
X2267801Y-6108174D02*
X2267801Y-6155793D01*
X2267801Y-6155793D02*
X2258277Y-6193888D01*
X2258277Y-6193888D02*
X2248753Y-6212936D01*
X2248753Y-6212936D02*
X2239229Y-6222460D01*
X2239229Y-6222460D02*
X2220182Y-6231984D01*
X2220182Y-6231984D02*
X2201134Y-6231984D01*
X2201134Y-6231984D02*
X2182087Y-6222460D01*
X2182087Y-6222460D02*
X2172563Y-6212936D01*
X2172563Y-6212936D02*
X2163039Y-6193888D01*
X2163039Y-6193888D02*
X2153515Y-6155793D01*
X2153515Y-6155793D02*
X2153515Y-6108174D01*
X2153515Y-6108174D02*
X2163039Y-6070079D01*
X2163039Y-6070079D02*
X2172563Y-6051031D01*
X2172563Y-6051031D02*
X2182087Y-6041508D01*
X2182087Y-6041508D02*
X2201134Y-6031984D01*
X2353515Y-6212936D02*
X2363039Y-6222460D01*
X2363039Y-6222460D02*
X2353515Y-6231984D01*
X2353515Y-6231984D02*
X2343991Y-6222460D01*
X2343991Y-6222460D02*
X2353515Y-6212936D01*
X2353515Y-6212936D02*
X2353515Y-6231984D01*
X2486848Y-6031984D02*
X2505896Y-6031984D01*
X2505896Y-6031984D02*
X2524944Y-6041508D01*
X2524944Y-6041508D02*
X2534468Y-6051031D01*
X2534468Y-6051031D02*
X2543991Y-6070079D01*
X2543991Y-6070079D02*
X2553515Y-6108174D01*
X2553515Y-6108174D02*
X2553515Y-6155793D01*
X2553515Y-6155793D02*
X2543991Y-6193888D01*
X2543991Y-6193888D02*
X2534468Y-6212936D01*
X2534468Y-6212936D02*
X2524944Y-6222460D01*
X2524944Y-6222460D02*
X2505896Y-6231984D01*
X2505896Y-6231984D02*
X2486848Y-6231984D01*
X2486848Y-6231984D02*
X2467801Y-6222460D01*
X2467801Y-6222460D02*
X2458277Y-6212936D01*
X2458277Y-6212936D02*
X2448753Y-6193888D01*
X2448753Y-6193888D02*
X2439229Y-6155793D01*
X2439229Y-6155793D02*
X2439229Y-6108174D01*
X2439229Y-6108174D02*
X2448753Y-6070079D01*
X2448753Y-6070079D02*
X2458277Y-6051031D01*
X2458277Y-6051031D02*
X2467801Y-6041508D01*
X2467801Y-6041508D02*
X2486848Y-6031984D01*
X2620182Y-6031984D02*
X2743991Y-6031984D01*
X2743991Y-6031984D02*
X2677325Y-6108174D01*
X2677325Y-6108174D02*
X2705896Y-6108174D01*
X2705896Y-6108174D02*
X2724944Y-6117698D01*
X2724944Y-6117698D02*
X2734468Y-6127222D01*
X2734468Y-6127222D02*
X2743991Y-6146269D01*
X2743991Y-6146269D02*
X2743991Y-6193888D01*
X2743991Y-6193888D02*
X2734468Y-6212936D01*
X2734468Y-6212936D02*
X2724944Y-6222460D01*
X2724944Y-6222460D02*
X2705896Y-6231984D01*
X2705896Y-6231984D02*
X2648753Y-6231984D01*
X2648753Y-6231984D02*
X2629706Y-6222460D01*
X2629706Y-6222460D02*
X2620182Y-6212936D01*
X2934467Y-6231984D02*
X2820182Y-6231984D01*
X2877325Y-6231984D02*
X2877325Y-6031984D01*
X2877325Y-6031984D02*
X2858277Y-6060555D01*
X2858277Y-6060555D02*
X2839229Y-6079603D01*
X2839229Y-6079603D02*
X2820182Y-6089127D01*
X3115420Y-6031984D02*
X3020182Y-6031984D01*
X3020182Y-6031984D02*
X3010658Y-6127222D01*
X3010658Y-6127222D02*
X3020182Y-6117698D01*
X3020182Y-6117698D02*
X3039229Y-6108174D01*
X3039229Y-6108174D02*
X3086848Y-6108174D01*
X3086848Y-6108174D02*
X3105896Y-6117698D01*
X3105896Y-6117698D02*
X3115420Y-6127222D01*
X3115420Y-6127222D02*
X3124944Y-6146269D01*
X3124944Y-6146269D02*
X3124944Y-6193888D01*
X3124944Y-6193888D02*
X3115420Y-6212936D01*
X3115420Y-6212936D02*
X3105896Y-6222460D01*
X3105896Y-6222460D02*
X3086848Y-6231984D01*
X3086848Y-6231984D02*
X3039229Y-6231984D01*
X3039229Y-6231984D02*
X3020182Y-6222460D01*
X3020182Y-6222460D02*
X3010658Y-6212936D01*
X3201134Y-6031984D02*
X3201134Y-6070079D01*
X3277325Y-6031984D02*
X3277325Y-6070079D01*
X3572563Y-6308174D02*
X3563039Y-6298650D01*
X3563039Y-6298650D02*
X3543991Y-6270079D01*
X3543991Y-6270079D02*
X3534468Y-6251031D01*
X3534468Y-6251031D02*
X3524944Y-6222460D01*
X3524944Y-6222460D02*
X3515420Y-6174841D01*
X3515420Y-6174841D02*
X3515420Y-6136746D01*
X3515420Y-6136746D02*
X3524944Y-6089127D01*
X3524944Y-6089127D02*
X3534468Y-6060555D01*
X3534468Y-6060555D02*
X3543991Y-6041508D01*
X3543991Y-6041508D02*
X3563039Y-6012936D01*
X3563039Y-6012936D02*
X3572563Y-6003412D01*
X3639229Y-6051031D02*
X3648753Y-6041508D01*
X3648753Y-6041508D02*
X3667801Y-6031984D01*
X3667801Y-6031984D02*
X3715420Y-6031984D01*
X3715420Y-6031984D02*
X3734468Y-6041508D01*
X3734468Y-6041508D02*
X3743991Y-6051031D01*
X3743991Y-6051031D02*
X3753515Y-6070079D01*
X3753515Y-6070079D02*
X3753515Y-6089127D01*
X3753515Y-6089127D02*
X3743991Y-6117698D01*
X3743991Y-6117698D02*
X3629706Y-6231984D01*
X3629706Y-6231984D02*
X3753515Y-6231984D01*
X3877325Y-6031984D02*
X3896372Y-6031984D01*
X3896372Y-6031984D02*
X3915420Y-6041508D01*
X3915420Y-6041508D02*
X3924944Y-6051031D01*
X3924944Y-6051031D02*
X3934468Y-6070079D01*
X3934468Y-6070079D02*
X3943991Y-6108174D01*
X3943991Y-6108174D02*
X3943991Y-6155793D01*
X3943991Y-6155793D02*
X3934468Y-6193888D01*
X3934468Y-6193888D02*
X3924944Y-6212936D01*
X3924944Y-6212936D02*
X3915420Y-6222460D01*
X3915420Y-6222460D02*
X3896372Y-6231984D01*
X3896372Y-6231984D02*
X3877325Y-6231984D01*
X3877325Y-6231984D02*
X3858277Y-6222460D01*
X3858277Y-6222460D02*
X3848753Y-6212936D01*
X3848753Y-6212936D02*
X3839229Y-6193888D01*
X3839229Y-6193888D02*
X3829706Y-6155793D01*
X3829706Y-6155793D02*
X3829706Y-6108174D01*
X3829706Y-6108174D02*
X3839229Y-6070079D01*
X3839229Y-6070079D02*
X3848753Y-6051031D01*
X3848753Y-6051031D02*
X3858277Y-6041508D01*
X3858277Y-6041508D02*
X3877325Y-6031984D01*
X4182087Y-6231984D02*
X4182087Y-6031984D01*
X4267801Y-6231984D02*
X4267801Y-6127222D01*
X4267801Y-6127222D02*
X4258277Y-6108174D01*
X4258277Y-6108174D02*
X4239230Y-6098650D01*
X4239230Y-6098650D02*
X4210658Y-6098650D01*
X4210658Y-6098650D02*
X4191610Y-6108174D01*
X4191610Y-6108174D02*
X4182087Y-6117698D01*
X4391611Y-6231984D02*
X4372563Y-6222460D01*
X4372563Y-6222460D02*
X4363039Y-6212936D01*
X4363039Y-6212936D02*
X4353515Y-6193888D01*
X4353515Y-6193888D02*
X4353515Y-6136746D01*
X4353515Y-6136746D02*
X4363039Y-6117698D01*
X4363039Y-6117698D02*
X4372563Y-6108174D01*
X4372563Y-6108174D02*
X4391611Y-6098650D01*
X4391611Y-6098650D02*
X4420182Y-6098650D01*
X4420182Y-6098650D02*
X4439230Y-6108174D01*
X4439230Y-6108174D02*
X4448753Y-6117698D01*
X4448753Y-6117698D02*
X4458277Y-6136746D01*
X4458277Y-6136746D02*
X4458277Y-6193888D01*
X4458277Y-6193888D02*
X4448753Y-6212936D01*
X4448753Y-6212936D02*
X4439230Y-6222460D01*
X4439230Y-6222460D02*
X4420182Y-6231984D01*
X4420182Y-6231984D02*
X4391611Y-6231984D01*
X4572563Y-6231984D02*
X4553515Y-6222460D01*
X4553515Y-6222460D02*
X4543992Y-6203412D01*
X4543992Y-6203412D02*
X4543992Y-6031984D01*
X4724944Y-6222460D02*
X4705896Y-6231984D01*
X4705896Y-6231984D02*
X4667801Y-6231984D01*
X4667801Y-6231984D02*
X4648753Y-6222460D01*
X4648753Y-6222460D02*
X4639230Y-6203412D01*
X4639230Y-6203412D02*
X4639230Y-6127222D01*
X4639230Y-6127222D02*
X4648753Y-6108174D01*
X4648753Y-6108174D02*
X4667801Y-6098650D01*
X4667801Y-6098650D02*
X4705896Y-6098650D01*
X4705896Y-6098650D02*
X4724944Y-6108174D01*
X4724944Y-6108174D02*
X4734468Y-6127222D01*
X4734468Y-6127222D02*
X4734468Y-6146269D01*
X4734468Y-6146269D02*
X4639230Y-6165317D01*
X4810658Y-6222460D02*
X4829706Y-6231984D01*
X4829706Y-6231984D02*
X4867801Y-6231984D01*
X4867801Y-6231984D02*
X4886849Y-6222460D01*
X4886849Y-6222460D02*
X4896373Y-6203412D01*
X4896373Y-6203412D02*
X4896373Y-6193888D01*
X4896373Y-6193888D02*
X4886849Y-6174841D01*
X4886849Y-6174841D02*
X4867801Y-6165317D01*
X4867801Y-6165317D02*
X4839230Y-6165317D01*
X4839230Y-6165317D02*
X4820182Y-6155793D01*
X4820182Y-6155793D02*
X4810658Y-6136746D01*
X4810658Y-6136746D02*
X4810658Y-6127222D01*
X4810658Y-6127222D02*
X4820182Y-6108174D01*
X4820182Y-6108174D02*
X4839230Y-6098650D01*
X4839230Y-6098650D02*
X4867801Y-6098650D01*
X4867801Y-6098650D02*
X4886849Y-6108174D01*
X4963039Y-6308174D02*
X4972563Y-6298650D01*
X4972563Y-6298650D02*
X4991611Y-6270079D01*
X4991611Y-6270079D02*
X5001134Y-6251031D01*
X5001134Y-6251031D02*
X5010658Y-6222460D01*
X5010658Y-6222460D02*
X5020182Y-6174841D01*
X5020182Y-6174841D02*
X5020182Y-6136746D01*
X5020182Y-6136746D02*
X5010658Y-6089127D01*
X5010658Y-6089127D02*
X5001134Y-6060555D01*
X5001134Y-6060555D02*
X4991611Y-6041508D01*
X4991611Y-6041508D02*
X4972563Y-6012936D01*
X4972563Y-6012936D02*
X4963039Y-6003412D01*
D15*
X-17144Y-6439856D02*
X-17144Y-6369144D01*
X-87856Y-6369144D01*
X-87856Y-6439856D01*
X-17144Y-6439856D01*
D11*
X363039Y-6495984D02*
X248753Y-6495984D01*
X305896Y-6495984D02*
X305896Y-6295984D01*
X305896Y-6295984D02*
X286848Y-6324555D01*
X286848Y-6324555D02*
X267801Y-6343603D01*
X267801Y-6343603D02*
X248753Y-6353127D01*
X448753Y-6476936D02*
X458277Y-6486460D01*
X458277Y-6486460D02*
X448753Y-6495984D01*
X448753Y-6495984D02*
X439229Y-6486460D01*
X439229Y-6486460D02*
X448753Y-6476936D01*
X448753Y-6476936D02*
X448753Y-6495984D01*
X582086Y-6295984D02*
X601134Y-6295984D01*
X601134Y-6295984D02*
X620182Y-6305508D01*
X620182Y-6305508D02*
X629705Y-6315031D01*
X629705Y-6315031D02*
X639229Y-6334079D01*
X639229Y-6334079D02*
X648753Y-6372174D01*
X648753Y-6372174D02*
X648753Y-6419793D01*
X648753Y-6419793D02*
X639229Y-6457888D01*
X639229Y-6457888D02*
X629705Y-6476936D01*
X629705Y-6476936D02*
X620182Y-6486460D01*
X620182Y-6486460D02*
X601134Y-6495984D01*
X601134Y-6495984D02*
X582086Y-6495984D01*
X582086Y-6495984D02*
X563039Y-6486460D01*
X563039Y-6486460D02*
X553515Y-6476936D01*
X553515Y-6476936D02*
X543991Y-6457888D01*
X543991Y-6457888D02*
X534467Y-6419793D01*
X534467Y-6419793D02*
X534467Y-6372174D01*
X534467Y-6372174D02*
X543991Y-6334079D01*
X543991Y-6334079D02*
X553515Y-6315031D01*
X553515Y-6315031D02*
X563039Y-6305508D01*
X563039Y-6305508D02*
X582086Y-6295984D01*
X772562Y-6295984D02*
X791610Y-6295984D01*
X791610Y-6295984D02*
X810658Y-6305508D01*
X810658Y-6305508D02*
X820182Y-6315031D01*
X820182Y-6315031D02*
X829705Y-6334079D01*
X829705Y-6334079D02*
X839229Y-6372174D01*
X839229Y-6372174D02*
X839229Y-6419793D01*
X839229Y-6419793D02*
X829705Y-6457888D01*
X829705Y-6457888D02*
X820182Y-6476936D01*
X820182Y-6476936D02*
X810658Y-6486460D01*
X810658Y-6486460D02*
X791610Y-6495984D01*
X791610Y-6495984D02*
X772562Y-6495984D01*
X772562Y-6495984D02*
X753515Y-6486460D01*
X753515Y-6486460D02*
X743991Y-6476936D01*
X743991Y-6476936D02*
X734467Y-6457888D01*
X734467Y-6457888D02*
X724943Y-6419793D01*
X724943Y-6419793D02*
X724943Y-6372174D01*
X724943Y-6372174D02*
X734467Y-6334079D01*
X734467Y-6334079D02*
X743991Y-6315031D01*
X743991Y-6315031D02*
X753515Y-6305508D01*
X753515Y-6305508D02*
X772562Y-6295984D01*
X963039Y-6295984D02*
X982086Y-6295984D01*
X982086Y-6295984D02*
X1001134Y-6305508D01*
X1001134Y-6305508D02*
X1010658Y-6315031D01*
X1010658Y-6315031D02*
X1020182Y-6334079D01*
X1020182Y-6334079D02*
X1029705Y-6372174D01*
X1029705Y-6372174D02*
X1029705Y-6419793D01*
X1029705Y-6419793D02*
X1020182Y-6457888D01*
X1020182Y-6457888D02*
X1010658Y-6476936D01*
X1010658Y-6476936D02*
X1001134Y-6486460D01*
X1001134Y-6486460D02*
X982086Y-6495984D01*
X982086Y-6495984D02*
X963039Y-6495984D01*
X963039Y-6495984D02*
X943991Y-6486460D01*
X943991Y-6486460D02*
X934467Y-6476936D01*
X934467Y-6476936D02*
X924943Y-6457888D01*
X924943Y-6457888D02*
X915420Y-6419793D01*
X915420Y-6419793D02*
X915420Y-6372174D01*
X915420Y-6372174D02*
X924943Y-6334079D01*
X924943Y-6334079D02*
X934467Y-6315031D01*
X934467Y-6315031D02*
X943991Y-6305508D01*
X943991Y-6305508D02*
X963039Y-6295984D01*
X1115420Y-6495984D02*
X1115420Y-6362650D01*
X1115420Y-6381698D02*
X1124944Y-6372174D01*
X1124944Y-6372174D02*
X1143991Y-6362650D01*
X1143991Y-6362650D02*
X1172563Y-6362650D01*
X1172563Y-6362650D02*
X1191610Y-6372174D01*
X1191610Y-6372174D02*
X1201134Y-6391222D01*
X1201134Y-6391222D02*
X1201134Y-6495984D01*
X1201134Y-6391222D02*
X1210658Y-6372174D01*
X1210658Y-6372174D02*
X1229705Y-6362650D01*
X1229705Y-6362650D02*
X1258277Y-6362650D01*
X1258277Y-6362650D02*
X1277325Y-6372174D01*
X1277325Y-6372174D02*
X1286848Y-6391222D01*
X1286848Y-6391222D02*
X1286848Y-6495984D01*
X1382086Y-6495984D02*
X1382086Y-6362650D01*
X1382086Y-6381698D02*
X1391610Y-6372174D01*
X1391610Y-6372174D02*
X1410658Y-6362650D01*
X1410658Y-6362650D02*
X1439229Y-6362650D01*
X1439229Y-6362650D02*
X1458277Y-6372174D01*
X1458277Y-6372174D02*
X1467801Y-6391222D01*
X1467801Y-6391222D02*
X1467801Y-6495984D01*
X1467801Y-6391222D02*
X1477324Y-6372174D01*
X1477324Y-6372174D02*
X1496372Y-6362650D01*
X1496372Y-6362650D02*
X1524943Y-6362650D01*
X1524943Y-6362650D02*
X1543991Y-6372174D01*
X1543991Y-6372174D02*
X1553515Y-6391222D01*
X1553515Y-6391222D02*
X1553515Y-6495984D01*
X1943991Y-6286460D02*
X1772563Y-6543603D01*
X2201134Y-6295984D02*
X2220182Y-6295984D01*
X2220182Y-6295984D02*
X2239229Y-6305508D01*
X2239229Y-6305508D02*
X2248753Y-6315031D01*
X2248753Y-6315031D02*
X2258277Y-6334079D01*
X2258277Y-6334079D02*
X2267801Y-6372174D01*
X2267801Y-6372174D02*
X2267801Y-6419793D01*
X2267801Y-6419793D02*
X2258277Y-6457888D01*
X2258277Y-6457888D02*
X2248753Y-6476936D01*
X2248753Y-6476936D02*
X2239229Y-6486460D01*
X2239229Y-6486460D02*
X2220182Y-6495984D01*
X2220182Y-6495984D02*
X2201134Y-6495984D01*
X2201134Y-6495984D02*
X2182087Y-6486460D01*
X2182087Y-6486460D02*
X2172563Y-6476936D01*
X2172563Y-6476936D02*
X2163039Y-6457888D01*
X2163039Y-6457888D02*
X2153515Y-6419793D01*
X2153515Y-6419793D02*
X2153515Y-6372174D01*
X2153515Y-6372174D02*
X2163039Y-6334079D01*
X2163039Y-6334079D02*
X2172563Y-6315031D01*
X2172563Y-6315031D02*
X2182087Y-6305508D01*
X2182087Y-6305508D02*
X2201134Y-6295984D01*
X2353515Y-6476936D02*
X2363039Y-6486460D01*
X2363039Y-6486460D02*
X2353515Y-6495984D01*
X2353515Y-6495984D02*
X2343991Y-6486460D01*
X2343991Y-6486460D02*
X2353515Y-6476936D01*
X2353515Y-6476936D02*
X2353515Y-6495984D01*
X2486848Y-6295984D02*
X2505896Y-6295984D01*
X2505896Y-6295984D02*
X2524944Y-6305508D01*
X2524944Y-6305508D02*
X2534468Y-6315031D01*
X2534468Y-6315031D02*
X2543991Y-6334079D01*
X2543991Y-6334079D02*
X2553515Y-6372174D01*
X2553515Y-6372174D02*
X2553515Y-6419793D01*
X2553515Y-6419793D02*
X2543991Y-6457888D01*
X2543991Y-6457888D02*
X2534468Y-6476936D01*
X2534468Y-6476936D02*
X2524944Y-6486460D01*
X2524944Y-6486460D02*
X2505896Y-6495984D01*
X2505896Y-6495984D02*
X2486848Y-6495984D01*
X2486848Y-6495984D02*
X2467801Y-6486460D01*
X2467801Y-6486460D02*
X2458277Y-6476936D01*
X2458277Y-6476936D02*
X2448753Y-6457888D01*
X2448753Y-6457888D02*
X2439229Y-6419793D01*
X2439229Y-6419793D02*
X2439229Y-6372174D01*
X2439229Y-6372174D02*
X2448753Y-6334079D01*
X2448753Y-6334079D02*
X2458277Y-6315031D01*
X2458277Y-6315031D02*
X2467801Y-6305508D01*
X2467801Y-6305508D02*
X2486848Y-6295984D01*
X2620182Y-6295984D02*
X2743991Y-6295984D01*
X2743991Y-6295984D02*
X2677325Y-6372174D01*
X2677325Y-6372174D02*
X2705896Y-6372174D01*
X2705896Y-6372174D02*
X2724944Y-6381698D01*
X2724944Y-6381698D02*
X2734468Y-6391222D01*
X2734468Y-6391222D02*
X2743991Y-6410269D01*
X2743991Y-6410269D02*
X2743991Y-6457888D01*
X2743991Y-6457888D02*
X2734468Y-6476936D01*
X2734468Y-6476936D02*
X2724944Y-6486460D01*
X2724944Y-6486460D02*
X2705896Y-6495984D01*
X2705896Y-6495984D02*
X2648753Y-6495984D01*
X2648753Y-6495984D02*
X2629706Y-6486460D01*
X2629706Y-6486460D02*
X2620182Y-6476936D01*
X2839229Y-6495984D02*
X2877325Y-6495984D01*
X2877325Y-6495984D02*
X2896372Y-6486460D01*
X2896372Y-6486460D02*
X2905896Y-6476936D01*
X2905896Y-6476936D02*
X2924944Y-6448365D01*
X2924944Y-6448365D02*
X2934467Y-6410269D01*
X2934467Y-6410269D02*
X2934467Y-6334079D01*
X2934467Y-6334079D02*
X2924944Y-6315031D01*
X2924944Y-6315031D02*
X2915420Y-6305508D01*
X2915420Y-6305508D02*
X2896372Y-6295984D01*
X2896372Y-6295984D02*
X2858277Y-6295984D01*
X2858277Y-6295984D02*
X2839229Y-6305508D01*
X2839229Y-6305508D02*
X2829706Y-6315031D01*
X2829706Y-6315031D02*
X2820182Y-6334079D01*
X2820182Y-6334079D02*
X2820182Y-6381698D01*
X2820182Y-6381698D02*
X2829706Y-6400746D01*
X2829706Y-6400746D02*
X2839229Y-6410269D01*
X2839229Y-6410269D02*
X2858277Y-6419793D01*
X2858277Y-6419793D02*
X2896372Y-6419793D01*
X2896372Y-6419793D02*
X2915420Y-6410269D01*
X2915420Y-6410269D02*
X2924944Y-6400746D01*
X2924944Y-6400746D02*
X2934467Y-6381698D01*
X3105896Y-6362650D02*
X3105896Y-6495984D01*
X3058277Y-6286460D02*
X3010658Y-6429317D01*
X3010658Y-6429317D02*
X3134467Y-6429317D01*
X3201134Y-6295984D02*
X3201134Y-6334079D01*
X3277325Y-6295984D02*
X3277325Y-6334079D01*
X3572563Y-6572174D02*
X3563039Y-6562650D01*
X3563039Y-6562650D02*
X3543991Y-6534079D01*
X3543991Y-6534079D02*
X3534468Y-6515031D01*
X3534468Y-6515031D02*
X3524944Y-6486460D01*
X3524944Y-6486460D02*
X3515420Y-6438841D01*
X3515420Y-6438841D02*
X3515420Y-6400746D01*
X3515420Y-6400746D02*
X3524944Y-6353127D01*
X3524944Y-6353127D02*
X3534468Y-6324555D01*
X3534468Y-6324555D02*
X3543991Y-6305508D01*
X3543991Y-6305508D02*
X3563039Y-6276936D01*
X3563039Y-6276936D02*
X3572563Y-6267412D01*
X3677325Y-6381698D02*
X3658277Y-6372174D01*
X3658277Y-6372174D02*
X3648753Y-6362650D01*
X3648753Y-6362650D02*
X3639229Y-6343603D01*
X3639229Y-6343603D02*
X3639229Y-6334079D01*
X3639229Y-6334079D02*
X3648753Y-6315031D01*
X3648753Y-6315031D02*
X3658277Y-6305508D01*
X3658277Y-6305508D02*
X3677325Y-6295984D01*
X3677325Y-6295984D02*
X3715420Y-6295984D01*
X3715420Y-6295984D02*
X3734468Y-6305508D01*
X3734468Y-6305508D02*
X3743991Y-6315031D01*
X3743991Y-6315031D02*
X3753515Y-6334079D01*
X3753515Y-6334079D02*
X3753515Y-6343603D01*
X3753515Y-6343603D02*
X3743991Y-6362650D01*
X3743991Y-6362650D02*
X3734468Y-6372174D01*
X3734468Y-6372174D02*
X3715420Y-6381698D01*
X3715420Y-6381698D02*
X3677325Y-6381698D01*
X3677325Y-6381698D02*
X3658277Y-6391222D01*
X3658277Y-6391222D02*
X3648753Y-6400746D01*
X3648753Y-6400746D02*
X3639229Y-6419793D01*
X3639229Y-6419793D02*
X3639229Y-6457888D01*
X3639229Y-6457888D02*
X3648753Y-6476936D01*
X3648753Y-6476936D02*
X3658277Y-6486460D01*
X3658277Y-6486460D02*
X3677325Y-6495984D01*
X3677325Y-6495984D02*
X3715420Y-6495984D01*
X3715420Y-6495984D02*
X3734468Y-6486460D01*
X3734468Y-6486460D02*
X3743991Y-6476936D01*
X3743991Y-6476936D02*
X3753515Y-6457888D01*
X3753515Y-6457888D02*
X3753515Y-6419793D01*
X3753515Y-6419793D02*
X3743991Y-6400746D01*
X3743991Y-6400746D02*
X3734468Y-6391222D01*
X3734468Y-6391222D02*
X3715420Y-6381698D01*
X3991610Y-6495984D02*
X3991610Y-6295984D01*
X4077325Y-6495984D02*
X4077325Y-6391222D01*
X4077325Y-6391222D02*
X4067801Y-6372174D01*
X4067801Y-6372174D02*
X4048753Y-6362650D01*
X4048753Y-6362650D02*
X4020182Y-6362650D01*
X4020182Y-6362650D02*
X4001134Y-6372174D01*
X4001134Y-6372174D02*
X3991610Y-6381698D01*
X4201134Y-6495984D02*
X4182087Y-6486460D01*
X4182087Y-6486460D02*
X4172563Y-6476936D01*
X4172563Y-6476936D02*
X4163039Y-6457888D01*
X4163039Y-6457888D02*
X4163039Y-6400746D01*
X4163039Y-6400746D02*
X4172563Y-6381698D01*
X4172563Y-6381698D02*
X4182087Y-6372174D01*
X4182087Y-6372174D02*
X4201134Y-6362650D01*
X4201134Y-6362650D02*
X4229706Y-6362650D01*
X4229706Y-6362650D02*
X4248753Y-6372174D01*
X4248753Y-6372174D02*
X4258277Y-6381698D01*
X4258277Y-6381698D02*
X4267801Y-6400746D01*
X4267801Y-6400746D02*
X4267801Y-6457888D01*
X4267801Y-6457888D02*
X4258277Y-6476936D01*
X4258277Y-6476936D02*
X4248753Y-6486460D01*
X4248753Y-6486460D02*
X4229706Y-6495984D01*
X4229706Y-6495984D02*
X4201134Y-6495984D01*
X4382087Y-6495984D02*
X4363039Y-6486460D01*
X4363039Y-6486460D02*
X4353515Y-6467412D01*
X4353515Y-6467412D02*
X4353515Y-6295984D01*
X4534468Y-6486460D02*
X4515420Y-6495984D01*
X4515420Y-6495984D02*
X4477325Y-6495984D01*
X4477325Y-6495984D02*
X4458277Y-6486460D01*
X4458277Y-6486460D02*
X4448753Y-6467412D01*
X4448753Y-6467412D02*
X4448753Y-6391222D01*
X4448753Y-6391222D02*
X4458277Y-6372174D01*
X4458277Y-6372174D02*
X4477325Y-6362650D01*
X4477325Y-6362650D02*
X4515420Y-6362650D01*
X4515420Y-6362650D02*
X4534468Y-6372174D01*
X4534468Y-6372174D02*
X4543992Y-6391222D01*
X4543992Y-6391222D02*
X4543992Y-6410269D01*
X4543992Y-6410269D02*
X4448753Y-6429317D01*
X4620182Y-6486460D02*
X4639230Y-6495984D01*
X4639230Y-6495984D02*
X4677325Y-6495984D01*
X4677325Y-6495984D02*
X4696373Y-6486460D01*
X4696373Y-6486460D02*
X4705896Y-6467412D01*
X4705896Y-6467412D02*
X4705896Y-6457888D01*
X4705896Y-6457888D02*
X4696373Y-6438841D01*
X4696373Y-6438841D02*
X4677325Y-6429317D01*
X4677325Y-6429317D02*
X4648753Y-6429317D01*
X4648753Y-6429317D02*
X4629706Y-6419793D01*
X4629706Y-6419793D02*
X4620182Y-6400746D01*
X4620182Y-6400746D02*
X4620182Y-6391222D01*
X4620182Y-6391222D02*
X4629706Y-6372174D01*
X4629706Y-6372174D02*
X4648753Y-6362650D01*
X4648753Y-6362650D02*
X4677325Y-6362650D01*
X4677325Y-6362650D02*
X4696373Y-6372174D01*
X4772563Y-6572174D02*
X4782087Y-6562650D01*
X4782087Y-6562650D02*
X4801134Y-6534079D01*
X4801134Y-6534079D02*
X4810658Y-6515031D01*
X4810658Y-6515031D02*
X4820182Y-6486460D01*
X4820182Y-6486460D02*
X4829706Y-6438841D01*
X4829706Y-6438841D02*
X4829706Y-6400746D01*
X4829706Y-6400746D02*
X4820182Y-6353127D01*
X4820182Y-6353127D02*
X4810658Y-6324555D01*
X4810658Y-6324555D02*
X4801134Y-6305508D01*
X4801134Y-6305508D02*
X4782087Y-6276936D01*
X4782087Y-6276936D02*
X4772563Y-6267412D01*
D16*
X-57500Y-6723500D02*
X-2500Y-6668500D01*
X-57500Y-6613500D01*
X-112500Y-6668500D01*
X-57500Y-6723500D01*
D11*
X363039Y-6759984D02*
X248753Y-6759984D01*
X305896Y-6759984D02*
X305896Y-6559984D01*
X305896Y-6559984D02*
X286848Y-6588555D01*
X286848Y-6588555D02*
X267801Y-6607603D01*
X267801Y-6607603D02*
X248753Y-6617127D01*
X448753Y-6740936D02*
X458277Y-6750460D01*
X458277Y-6750460D02*
X448753Y-6759984D01*
X448753Y-6759984D02*
X439229Y-6750460D01*
X439229Y-6750460D02*
X448753Y-6740936D01*
X448753Y-6740936D02*
X448753Y-6759984D01*
X648753Y-6759984D02*
X534467Y-6759984D01*
X591610Y-6759984D02*
X591610Y-6559984D01*
X591610Y-6559984D02*
X572563Y-6588555D01*
X572563Y-6588555D02*
X553515Y-6607603D01*
X553515Y-6607603D02*
X534467Y-6617127D01*
X772562Y-6559984D02*
X791610Y-6559984D01*
X791610Y-6559984D02*
X810658Y-6569508D01*
X810658Y-6569508D02*
X820182Y-6579031D01*
X820182Y-6579031D02*
X829705Y-6598079D01*
X829705Y-6598079D02*
X839229Y-6636174D01*
X839229Y-6636174D02*
X839229Y-6683793D01*
X839229Y-6683793D02*
X829705Y-6721888D01*
X829705Y-6721888D02*
X820182Y-6740936D01*
X820182Y-6740936D02*
X810658Y-6750460D01*
X810658Y-6750460D02*
X791610Y-6759984D01*
X791610Y-6759984D02*
X772562Y-6759984D01*
X772562Y-6759984D02*
X753515Y-6750460D01*
X753515Y-6750460D02*
X743991Y-6740936D01*
X743991Y-6740936D02*
X734467Y-6721888D01*
X734467Y-6721888D02*
X724943Y-6683793D01*
X724943Y-6683793D02*
X724943Y-6636174D01*
X724943Y-6636174D02*
X734467Y-6598079D01*
X734467Y-6598079D02*
X743991Y-6579031D01*
X743991Y-6579031D02*
X753515Y-6569508D01*
X753515Y-6569508D02*
X772562Y-6559984D01*
X963039Y-6559984D02*
X982086Y-6559984D01*
X982086Y-6559984D02*
X1001134Y-6569508D01*
X1001134Y-6569508D02*
X1010658Y-6579031D01*
X1010658Y-6579031D02*
X1020182Y-6598079D01*
X1020182Y-6598079D02*
X1029705Y-6636174D01*
X1029705Y-6636174D02*
X1029705Y-6683793D01*
X1029705Y-6683793D02*
X1020182Y-6721888D01*
X1020182Y-6721888D02*
X1010658Y-6740936D01*
X1010658Y-6740936D02*
X1001134Y-6750460D01*
X1001134Y-6750460D02*
X982086Y-6759984D01*
X982086Y-6759984D02*
X963039Y-6759984D01*
X963039Y-6759984D02*
X943991Y-6750460D01*
X943991Y-6750460D02*
X934467Y-6740936D01*
X934467Y-6740936D02*
X924943Y-6721888D01*
X924943Y-6721888D02*
X915420Y-6683793D01*
X915420Y-6683793D02*
X915420Y-6636174D01*
X915420Y-6636174D02*
X924943Y-6598079D01*
X924943Y-6598079D02*
X934467Y-6579031D01*
X934467Y-6579031D02*
X943991Y-6569508D01*
X943991Y-6569508D02*
X963039Y-6559984D01*
X1115420Y-6759984D02*
X1115420Y-6626650D01*
X1115420Y-6645698D02*
X1124944Y-6636174D01*
X1124944Y-6636174D02*
X1143991Y-6626650D01*
X1143991Y-6626650D02*
X1172563Y-6626650D01*
X1172563Y-6626650D02*
X1191610Y-6636174D01*
X1191610Y-6636174D02*
X1201134Y-6655222D01*
X1201134Y-6655222D02*
X1201134Y-6759984D01*
X1201134Y-6655222D02*
X1210658Y-6636174D01*
X1210658Y-6636174D02*
X1229705Y-6626650D01*
X1229705Y-6626650D02*
X1258277Y-6626650D01*
X1258277Y-6626650D02*
X1277325Y-6636174D01*
X1277325Y-6636174D02*
X1286848Y-6655222D01*
X1286848Y-6655222D02*
X1286848Y-6759984D01*
X1382086Y-6759984D02*
X1382086Y-6626650D01*
X1382086Y-6645698D02*
X1391610Y-6636174D01*
X1391610Y-6636174D02*
X1410658Y-6626650D01*
X1410658Y-6626650D02*
X1439229Y-6626650D01*
X1439229Y-6626650D02*
X1458277Y-6636174D01*
X1458277Y-6636174D02*
X1467801Y-6655222D01*
X1467801Y-6655222D02*
X1467801Y-6759984D01*
X1467801Y-6655222D02*
X1477324Y-6636174D01*
X1477324Y-6636174D02*
X1496372Y-6626650D01*
X1496372Y-6626650D02*
X1524943Y-6626650D01*
X1524943Y-6626650D02*
X1543991Y-6636174D01*
X1543991Y-6636174D02*
X1553515Y-6655222D01*
X1553515Y-6655222D02*
X1553515Y-6759984D01*
X1943991Y-6550460D02*
X1772563Y-6807603D01*
X2201134Y-6559984D02*
X2220182Y-6559984D01*
X2220182Y-6559984D02*
X2239229Y-6569508D01*
X2239229Y-6569508D02*
X2248753Y-6579031D01*
X2248753Y-6579031D02*
X2258277Y-6598079D01*
X2258277Y-6598079D02*
X2267801Y-6636174D01*
X2267801Y-6636174D02*
X2267801Y-6683793D01*
X2267801Y-6683793D02*
X2258277Y-6721888D01*
X2258277Y-6721888D02*
X2248753Y-6740936D01*
X2248753Y-6740936D02*
X2239229Y-6750460D01*
X2239229Y-6750460D02*
X2220182Y-6759984D01*
X2220182Y-6759984D02*
X2201134Y-6759984D01*
X2201134Y-6759984D02*
X2182087Y-6750460D01*
X2182087Y-6750460D02*
X2172563Y-6740936D01*
X2172563Y-6740936D02*
X2163039Y-6721888D01*
X2163039Y-6721888D02*
X2153515Y-6683793D01*
X2153515Y-6683793D02*
X2153515Y-6636174D01*
X2153515Y-6636174D02*
X2163039Y-6598079D01*
X2163039Y-6598079D02*
X2172563Y-6579031D01*
X2172563Y-6579031D02*
X2182087Y-6569508D01*
X2182087Y-6569508D02*
X2201134Y-6559984D01*
X2353515Y-6740936D02*
X2363039Y-6750460D01*
X2363039Y-6750460D02*
X2353515Y-6759984D01*
X2353515Y-6759984D02*
X2343991Y-6750460D01*
X2343991Y-6750460D02*
X2353515Y-6740936D01*
X2353515Y-6740936D02*
X2353515Y-6759984D01*
X2486848Y-6559984D02*
X2505896Y-6559984D01*
X2505896Y-6559984D02*
X2524944Y-6569508D01*
X2524944Y-6569508D02*
X2534468Y-6579031D01*
X2534468Y-6579031D02*
X2543991Y-6598079D01*
X2543991Y-6598079D02*
X2553515Y-6636174D01*
X2553515Y-6636174D02*
X2553515Y-6683793D01*
X2553515Y-6683793D02*
X2543991Y-6721888D01*
X2543991Y-6721888D02*
X2534468Y-6740936D01*
X2534468Y-6740936D02*
X2524944Y-6750460D01*
X2524944Y-6750460D02*
X2505896Y-6759984D01*
X2505896Y-6759984D02*
X2486848Y-6759984D01*
X2486848Y-6759984D02*
X2467801Y-6750460D01*
X2467801Y-6750460D02*
X2458277Y-6740936D01*
X2458277Y-6740936D02*
X2448753Y-6721888D01*
X2448753Y-6721888D02*
X2439229Y-6683793D01*
X2439229Y-6683793D02*
X2439229Y-6636174D01*
X2439229Y-6636174D02*
X2448753Y-6598079D01*
X2448753Y-6598079D02*
X2458277Y-6579031D01*
X2458277Y-6579031D02*
X2467801Y-6569508D01*
X2467801Y-6569508D02*
X2486848Y-6559984D01*
X2724944Y-6626650D02*
X2724944Y-6759984D01*
X2677325Y-6550460D02*
X2629706Y-6693317D01*
X2629706Y-6693317D02*
X2753515Y-6693317D01*
X2810658Y-6559984D02*
X2934467Y-6559984D01*
X2934467Y-6559984D02*
X2867801Y-6636174D01*
X2867801Y-6636174D02*
X2896372Y-6636174D01*
X2896372Y-6636174D02*
X2915420Y-6645698D01*
X2915420Y-6645698D02*
X2924944Y-6655222D01*
X2924944Y-6655222D02*
X2934467Y-6674269D01*
X2934467Y-6674269D02*
X2934467Y-6721888D01*
X2934467Y-6721888D02*
X2924944Y-6740936D01*
X2924944Y-6740936D02*
X2915420Y-6750460D01*
X2915420Y-6750460D02*
X2896372Y-6759984D01*
X2896372Y-6759984D02*
X2839229Y-6759984D01*
X2839229Y-6759984D02*
X2820182Y-6750460D01*
X2820182Y-6750460D02*
X2810658Y-6740936D01*
X3001134Y-6559984D02*
X3124944Y-6559984D01*
X3124944Y-6559984D02*
X3058277Y-6636174D01*
X3058277Y-6636174D02*
X3086848Y-6636174D01*
X3086848Y-6636174D02*
X3105896Y-6645698D01*
X3105896Y-6645698D02*
X3115420Y-6655222D01*
X3115420Y-6655222D02*
X3124944Y-6674269D01*
X3124944Y-6674269D02*
X3124944Y-6721888D01*
X3124944Y-6721888D02*
X3115420Y-6740936D01*
X3115420Y-6740936D02*
X3105896Y-6750460D01*
X3105896Y-6750460D02*
X3086848Y-6759984D01*
X3086848Y-6759984D02*
X3029706Y-6759984D01*
X3029706Y-6759984D02*
X3010658Y-6750460D01*
X3010658Y-6750460D02*
X3001134Y-6740936D01*
X3201134Y-6559984D02*
X3201134Y-6598079D01*
X3277325Y-6559984D02*
X3277325Y-6598079D01*
X3572563Y-6836174D02*
X3563039Y-6826650D01*
X3563039Y-6826650D02*
X3543991Y-6798079D01*
X3543991Y-6798079D02*
X3534468Y-6779031D01*
X3534468Y-6779031D02*
X3524944Y-6750460D01*
X3524944Y-6750460D02*
X3515420Y-6702841D01*
X3515420Y-6702841D02*
X3515420Y-6664746D01*
X3515420Y-6664746D02*
X3524944Y-6617127D01*
X3524944Y-6617127D02*
X3534468Y-6588555D01*
X3534468Y-6588555D02*
X3543991Y-6569508D01*
X3543991Y-6569508D02*
X3563039Y-6540936D01*
X3563039Y-6540936D02*
X3572563Y-6531412D01*
X3639229Y-6579031D02*
X3648753Y-6569508D01*
X3648753Y-6569508D02*
X3667801Y-6559984D01*
X3667801Y-6559984D02*
X3715420Y-6559984D01*
X3715420Y-6559984D02*
X3734468Y-6569508D01*
X3734468Y-6569508D02*
X3743991Y-6579031D01*
X3743991Y-6579031D02*
X3753515Y-6598079D01*
X3753515Y-6598079D02*
X3753515Y-6617127D01*
X3753515Y-6617127D02*
X3743991Y-6645698D01*
X3743991Y-6645698D02*
X3629706Y-6759984D01*
X3629706Y-6759984D02*
X3753515Y-6759984D01*
X3991610Y-6759984D02*
X3991610Y-6559984D01*
X4077325Y-6759984D02*
X4077325Y-6655222D01*
X4077325Y-6655222D02*
X4067801Y-6636174D01*
X4067801Y-6636174D02*
X4048753Y-6626650D01*
X4048753Y-6626650D02*
X4020182Y-6626650D01*
X4020182Y-6626650D02*
X4001134Y-6636174D01*
X4001134Y-6636174D02*
X3991610Y-6645698D01*
X4201134Y-6759984D02*
X4182087Y-6750460D01*
X4182087Y-6750460D02*
X4172563Y-6740936D01*
X4172563Y-6740936D02*
X4163039Y-6721888D01*
X4163039Y-6721888D02*
X4163039Y-6664746D01*
X4163039Y-6664746D02*
X4172563Y-6645698D01*
X4172563Y-6645698D02*
X4182087Y-6636174D01*
X4182087Y-6636174D02*
X4201134Y-6626650D01*
X4201134Y-6626650D02*
X4229706Y-6626650D01*
X4229706Y-6626650D02*
X4248753Y-6636174D01*
X4248753Y-6636174D02*
X4258277Y-6645698D01*
X4258277Y-6645698D02*
X4267801Y-6664746D01*
X4267801Y-6664746D02*
X4267801Y-6721888D01*
X4267801Y-6721888D02*
X4258277Y-6740936D01*
X4258277Y-6740936D02*
X4248753Y-6750460D01*
X4248753Y-6750460D02*
X4229706Y-6759984D01*
X4229706Y-6759984D02*
X4201134Y-6759984D01*
X4382087Y-6759984D02*
X4363039Y-6750460D01*
X4363039Y-6750460D02*
X4353515Y-6731412D01*
X4353515Y-6731412D02*
X4353515Y-6559984D01*
X4534468Y-6750460D02*
X4515420Y-6759984D01*
X4515420Y-6759984D02*
X4477325Y-6759984D01*
X4477325Y-6759984D02*
X4458277Y-6750460D01*
X4458277Y-6750460D02*
X4448753Y-6731412D01*
X4448753Y-6731412D02*
X4448753Y-6655222D01*
X4448753Y-6655222D02*
X4458277Y-6636174D01*
X4458277Y-6636174D02*
X4477325Y-6626650D01*
X4477325Y-6626650D02*
X4515420Y-6626650D01*
X4515420Y-6626650D02*
X4534468Y-6636174D01*
X4534468Y-6636174D02*
X4543992Y-6655222D01*
X4543992Y-6655222D02*
X4543992Y-6674269D01*
X4543992Y-6674269D02*
X4448753Y-6693317D01*
X4620182Y-6750460D02*
X4639230Y-6759984D01*
X4639230Y-6759984D02*
X4677325Y-6759984D01*
X4677325Y-6759984D02*
X4696373Y-6750460D01*
X4696373Y-6750460D02*
X4705896Y-6731412D01*
X4705896Y-6731412D02*
X4705896Y-6721888D01*
X4705896Y-6721888D02*
X4696373Y-6702841D01*
X4696373Y-6702841D02*
X4677325Y-6693317D01*
X4677325Y-6693317D02*
X4648753Y-6693317D01*
X4648753Y-6693317D02*
X4629706Y-6683793D01*
X4629706Y-6683793D02*
X4620182Y-6664746D01*
X4620182Y-6664746D02*
X4620182Y-6655222D01*
X4620182Y-6655222D02*
X4629706Y-6636174D01*
X4629706Y-6636174D02*
X4648753Y-6626650D01*
X4648753Y-6626650D02*
X4677325Y-6626650D01*
X4677325Y-6626650D02*
X4696373Y-6636174D01*
X4772563Y-6836174D02*
X4782087Y-6826650D01*
X4782087Y-6826650D02*
X4801134Y-6798079D01*
X4801134Y-6798079D02*
X4810658Y-6779031D01*
X4810658Y-6779031D02*
X4820182Y-6750460D01*
X4820182Y-6750460D02*
X4829706Y-6702841D01*
X4829706Y-6702841D02*
X4829706Y-6664746D01*
X4829706Y-6664746D02*
X4820182Y-6617127D01*
X4820182Y-6617127D02*
X4810658Y-6588555D01*
X4810658Y-6588555D02*
X4801134Y-6569508D01*
X4801134Y-6569508D02*
X4782087Y-6540936D01*
X4782087Y-6540936D02*
X4772563Y-6531412D01*
D17*
X-122500Y-6872500D02*
X-2500Y-6992500D01*
X-2500Y-6872500D02*
X-122500Y-6992500D01*
X-2500Y-6932500D02*
G75*
G03*
X-2500Y-6932500I-60000J0D01*
G01*
D11*
X363039Y-7023984D02*
X248753Y-7023984D01*
X305896Y-7023984D02*
X305896Y-6823984D01*
X305896Y-6823984D02*
X286848Y-6852555D01*
X286848Y-6852555D02*
X267801Y-6871603D01*
X267801Y-6871603D02*
X248753Y-6881127D01*
X448753Y-7004936D02*
X458277Y-7014460D01*
X458277Y-7014460D02*
X448753Y-7023984D01*
X448753Y-7023984D02*
X439229Y-7014460D01*
X439229Y-7014460D02*
X448753Y-7004936D01*
X448753Y-7004936D02*
X448753Y-7023984D01*
X534467Y-6843031D02*
X543991Y-6833508D01*
X543991Y-6833508D02*
X563039Y-6823984D01*
X563039Y-6823984D02*
X610658Y-6823984D01*
X610658Y-6823984D02*
X629705Y-6833508D01*
X629705Y-6833508D02*
X639229Y-6843031D01*
X639229Y-6843031D02*
X648753Y-6862079D01*
X648753Y-6862079D02*
X648753Y-6881127D01*
X648753Y-6881127D02*
X639229Y-6909698D01*
X639229Y-6909698D02*
X524944Y-7023984D01*
X524944Y-7023984D02*
X648753Y-7023984D01*
X772562Y-6823984D02*
X791610Y-6823984D01*
X791610Y-6823984D02*
X810658Y-6833508D01*
X810658Y-6833508D02*
X820182Y-6843031D01*
X820182Y-6843031D02*
X829705Y-6862079D01*
X829705Y-6862079D02*
X839229Y-6900174D01*
X839229Y-6900174D02*
X839229Y-6947793D01*
X839229Y-6947793D02*
X829705Y-6985888D01*
X829705Y-6985888D02*
X820182Y-7004936D01*
X820182Y-7004936D02*
X810658Y-7014460D01*
X810658Y-7014460D02*
X791610Y-7023984D01*
X791610Y-7023984D02*
X772562Y-7023984D01*
X772562Y-7023984D02*
X753515Y-7014460D01*
X753515Y-7014460D02*
X743991Y-7004936D01*
X743991Y-7004936D02*
X734467Y-6985888D01*
X734467Y-6985888D02*
X724943Y-6947793D01*
X724943Y-6947793D02*
X724943Y-6900174D01*
X724943Y-6900174D02*
X734467Y-6862079D01*
X734467Y-6862079D02*
X743991Y-6843031D01*
X743991Y-6843031D02*
X753515Y-6833508D01*
X753515Y-6833508D02*
X772562Y-6823984D01*
X963039Y-6823984D02*
X982086Y-6823984D01*
X982086Y-6823984D02*
X1001134Y-6833508D01*
X1001134Y-6833508D02*
X1010658Y-6843031D01*
X1010658Y-6843031D02*
X1020182Y-6862079D01*
X1020182Y-6862079D02*
X1029705Y-6900174D01*
X1029705Y-6900174D02*
X1029705Y-6947793D01*
X1029705Y-6947793D02*
X1020182Y-6985888D01*
X1020182Y-6985888D02*
X1010658Y-7004936D01*
X1010658Y-7004936D02*
X1001134Y-7014460D01*
X1001134Y-7014460D02*
X982086Y-7023984D01*
X982086Y-7023984D02*
X963039Y-7023984D01*
X963039Y-7023984D02*
X943991Y-7014460D01*
X943991Y-7014460D02*
X934467Y-7004936D01*
X934467Y-7004936D02*
X924943Y-6985888D01*
X924943Y-6985888D02*
X915420Y-6947793D01*
X915420Y-6947793D02*
X915420Y-6900174D01*
X915420Y-6900174D02*
X924943Y-6862079D01*
X924943Y-6862079D02*
X934467Y-6843031D01*
X934467Y-6843031D02*
X943991Y-6833508D01*
X943991Y-6833508D02*
X963039Y-6823984D01*
X1115420Y-7023984D02*
X1115420Y-6890650D01*
X1115420Y-6909698D02*
X1124944Y-6900174D01*
X1124944Y-6900174D02*
X1143991Y-6890650D01*
X1143991Y-6890650D02*
X1172563Y-6890650D01*
X1172563Y-6890650D02*
X1191610Y-6900174D01*
X1191610Y-6900174D02*
X1201134Y-6919222D01*
X1201134Y-6919222D02*
X1201134Y-7023984D01*
X1201134Y-6919222D02*
X1210658Y-6900174D01*
X1210658Y-6900174D02*
X1229705Y-6890650D01*
X1229705Y-6890650D02*
X1258277Y-6890650D01*
X1258277Y-6890650D02*
X1277325Y-6900174D01*
X1277325Y-6900174D02*
X1286848Y-6919222D01*
X1286848Y-6919222D02*
X1286848Y-7023984D01*
X1382086Y-7023984D02*
X1382086Y-6890650D01*
X1382086Y-6909698D02*
X1391610Y-6900174D01*
X1391610Y-6900174D02*
X1410658Y-6890650D01*
X1410658Y-6890650D02*
X1439229Y-6890650D01*
X1439229Y-6890650D02*
X1458277Y-6900174D01*
X1458277Y-6900174D02*
X1467801Y-6919222D01*
X1467801Y-6919222D02*
X1467801Y-7023984D01*
X1467801Y-6919222D02*
X1477324Y-6900174D01*
X1477324Y-6900174D02*
X1496372Y-6890650D01*
X1496372Y-6890650D02*
X1524943Y-6890650D01*
X1524943Y-6890650D02*
X1543991Y-6900174D01*
X1543991Y-6900174D02*
X1553515Y-6919222D01*
X1553515Y-6919222D02*
X1553515Y-7023984D01*
X1943991Y-6814460D02*
X1772563Y-7071603D01*
X2201134Y-6823984D02*
X2220182Y-6823984D01*
X2220182Y-6823984D02*
X2239229Y-6833508D01*
X2239229Y-6833508D02*
X2248753Y-6843031D01*
X2248753Y-6843031D02*
X2258277Y-6862079D01*
X2258277Y-6862079D02*
X2267801Y-6900174D01*
X2267801Y-6900174D02*
X2267801Y-6947793D01*
X2267801Y-6947793D02*
X2258277Y-6985888D01*
X2258277Y-6985888D02*
X2248753Y-7004936D01*
X2248753Y-7004936D02*
X2239229Y-7014460D01*
X2239229Y-7014460D02*
X2220182Y-7023984D01*
X2220182Y-7023984D02*
X2201134Y-7023984D01*
X2201134Y-7023984D02*
X2182087Y-7014460D01*
X2182087Y-7014460D02*
X2172563Y-7004936D01*
X2172563Y-7004936D02*
X2163039Y-6985888D01*
X2163039Y-6985888D02*
X2153515Y-6947793D01*
X2153515Y-6947793D02*
X2153515Y-6900174D01*
X2153515Y-6900174D02*
X2163039Y-6862079D01*
X2163039Y-6862079D02*
X2172563Y-6843031D01*
X2172563Y-6843031D02*
X2182087Y-6833508D01*
X2182087Y-6833508D02*
X2201134Y-6823984D01*
X2353515Y-7004936D02*
X2363039Y-7014460D01*
X2363039Y-7014460D02*
X2353515Y-7023984D01*
X2353515Y-7023984D02*
X2343991Y-7014460D01*
X2343991Y-7014460D02*
X2353515Y-7004936D01*
X2353515Y-7004936D02*
X2353515Y-7023984D01*
X2486848Y-6823984D02*
X2505896Y-6823984D01*
X2505896Y-6823984D02*
X2524944Y-6833508D01*
X2524944Y-6833508D02*
X2534468Y-6843031D01*
X2534468Y-6843031D02*
X2543991Y-6862079D01*
X2543991Y-6862079D02*
X2553515Y-6900174D01*
X2553515Y-6900174D02*
X2553515Y-6947793D01*
X2553515Y-6947793D02*
X2543991Y-6985888D01*
X2543991Y-6985888D02*
X2534468Y-7004936D01*
X2534468Y-7004936D02*
X2524944Y-7014460D01*
X2524944Y-7014460D02*
X2505896Y-7023984D01*
X2505896Y-7023984D02*
X2486848Y-7023984D01*
X2486848Y-7023984D02*
X2467801Y-7014460D01*
X2467801Y-7014460D02*
X2458277Y-7004936D01*
X2458277Y-7004936D02*
X2448753Y-6985888D01*
X2448753Y-6985888D02*
X2439229Y-6947793D01*
X2439229Y-6947793D02*
X2439229Y-6900174D01*
X2439229Y-6900174D02*
X2448753Y-6862079D01*
X2448753Y-6862079D02*
X2458277Y-6843031D01*
X2458277Y-6843031D02*
X2467801Y-6833508D01*
X2467801Y-6833508D02*
X2486848Y-6823984D01*
X2724944Y-6890650D02*
X2724944Y-7023984D01*
X2677325Y-6814460D02*
X2629706Y-6957317D01*
X2629706Y-6957317D02*
X2753515Y-6957317D01*
X2810658Y-6823984D02*
X2943991Y-6823984D01*
X2943991Y-6823984D02*
X2858277Y-7023984D01*
X3010658Y-6843031D02*
X3020182Y-6833508D01*
X3020182Y-6833508D02*
X3039229Y-6823984D01*
X3039229Y-6823984D02*
X3086848Y-6823984D01*
X3086848Y-6823984D02*
X3105896Y-6833508D01*
X3105896Y-6833508D02*
X3115420Y-6843031D01*
X3115420Y-6843031D02*
X3124944Y-6862079D01*
X3124944Y-6862079D02*
X3124944Y-6881127D01*
X3124944Y-6881127D02*
X3115420Y-6909698D01*
X3115420Y-6909698D02*
X3001134Y-7023984D01*
X3001134Y-7023984D02*
X3124944Y-7023984D01*
X3201134Y-6823984D02*
X3201134Y-6862079D01*
X3277325Y-6823984D02*
X3277325Y-6862079D01*
X3572563Y-7100174D02*
X3563039Y-7090650D01*
X3563039Y-7090650D02*
X3543991Y-7062079D01*
X3543991Y-7062079D02*
X3534468Y-7043031D01*
X3534468Y-7043031D02*
X3524944Y-7014460D01*
X3524944Y-7014460D02*
X3515420Y-6966841D01*
X3515420Y-6966841D02*
X3515420Y-6928746D01*
X3515420Y-6928746D02*
X3524944Y-6881127D01*
X3524944Y-6881127D02*
X3534468Y-6852555D01*
X3534468Y-6852555D02*
X3543991Y-6833508D01*
X3543991Y-6833508D02*
X3563039Y-6804936D01*
X3563039Y-6804936D02*
X3572563Y-6795412D01*
X3639229Y-6843031D02*
X3648753Y-6833508D01*
X3648753Y-6833508D02*
X3667801Y-6823984D01*
X3667801Y-6823984D02*
X3715420Y-6823984D01*
X3715420Y-6823984D02*
X3734468Y-6833508D01*
X3734468Y-6833508D02*
X3743991Y-6843031D01*
X3743991Y-6843031D02*
X3753515Y-6862079D01*
X3753515Y-6862079D02*
X3753515Y-6881127D01*
X3753515Y-6881127D02*
X3743991Y-6909698D01*
X3743991Y-6909698D02*
X3629706Y-7023984D01*
X3629706Y-7023984D02*
X3753515Y-7023984D01*
X3877325Y-6823984D02*
X3896372Y-6823984D01*
X3896372Y-6823984D02*
X3915420Y-6833508D01*
X3915420Y-6833508D02*
X3924944Y-6843031D01*
X3924944Y-6843031D02*
X3934468Y-6862079D01*
X3934468Y-6862079D02*
X3943991Y-6900174D01*
X3943991Y-6900174D02*
X3943991Y-6947793D01*
X3943991Y-6947793D02*
X3934468Y-6985888D01*
X3934468Y-6985888D02*
X3924944Y-7004936D01*
X3924944Y-7004936D02*
X3915420Y-7014460D01*
X3915420Y-7014460D02*
X3896372Y-7023984D01*
X3896372Y-7023984D02*
X3877325Y-7023984D01*
X3877325Y-7023984D02*
X3858277Y-7014460D01*
X3858277Y-7014460D02*
X3848753Y-7004936D01*
X3848753Y-7004936D02*
X3839229Y-6985888D01*
X3839229Y-6985888D02*
X3829706Y-6947793D01*
X3829706Y-6947793D02*
X3829706Y-6900174D01*
X3829706Y-6900174D02*
X3839229Y-6862079D01*
X3839229Y-6862079D02*
X3848753Y-6843031D01*
X3848753Y-6843031D02*
X3858277Y-6833508D01*
X3858277Y-6833508D02*
X3877325Y-6823984D01*
X4182087Y-7023984D02*
X4182087Y-6823984D01*
X4267801Y-7023984D02*
X4267801Y-6919222D01*
X4267801Y-6919222D02*
X4258277Y-6900174D01*
X4258277Y-6900174D02*
X4239230Y-6890650D01*
X4239230Y-6890650D02*
X4210658Y-6890650D01*
X4210658Y-6890650D02*
X4191610Y-6900174D01*
X4191610Y-6900174D02*
X4182087Y-6909698D01*
X4391611Y-7023984D02*
X4372563Y-7014460D01*
X4372563Y-7014460D02*
X4363039Y-7004936D01*
X4363039Y-7004936D02*
X4353515Y-6985888D01*
X4353515Y-6985888D02*
X4353515Y-6928746D01*
X4353515Y-6928746D02*
X4363039Y-6909698D01*
X4363039Y-6909698D02*
X4372563Y-6900174D01*
X4372563Y-6900174D02*
X4391611Y-6890650D01*
X4391611Y-6890650D02*
X4420182Y-6890650D01*
X4420182Y-6890650D02*
X4439230Y-6900174D01*
X4439230Y-6900174D02*
X4448753Y-6909698D01*
X4448753Y-6909698D02*
X4458277Y-6928746D01*
X4458277Y-6928746D02*
X4458277Y-6985888D01*
X4458277Y-6985888D02*
X4448753Y-7004936D01*
X4448753Y-7004936D02*
X4439230Y-7014460D01*
X4439230Y-7014460D02*
X4420182Y-7023984D01*
X4420182Y-7023984D02*
X4391611Y-7023984D01*
X4572563Y-7023984D02*
X4553515Y-7014460D01*
X4553515Y-7014460D02*
X4543992Y-6995412D01*
X4543992Y-6995412D02*
X4543992Y-6823984D01*
X4724944Y-7014460D02*
X4705896Y-7023984D01*
X4705896Y-7023984D02*
X4667801Y-7023984D01*
X4667801Y-7023984D02*
X4648753Y-7014460D01*
X4648753Y-7014460D02*
X4639230Y-6995412D01*
X4639230Y-6995412D02*
X4639230Y-6919222D01*
X4639230Y-6919222D02*
X4648753Y-6900174D01*
X4648753Y-6900174D02*
X4667801Y-6890650D01*
X4667801Y-6890650D02*
X4705896Y-6890650D01*
X4705896Y-6890650D02*
X4724944Y-6900174D01*
X4724944Y-6900174D02*
X4734468Y-6919222D01*
X4734468Y-6919222D02*
X4734468Y-6938269D01*
X4734468Y-6938269D02*
X4639230Y-6957317D01*
X4810658Y-7014460D02*
X4829706Y-7023984D01*
X4829706Y-7023984D02*
X4867801Y-7023984D01*
X4867801Y-7023984D02*
X4886849Y-7014460D01*
X4886849Y-7014460D02*
X4896373Y-6995412D01*
X4896373Y-6995412D02*
X4896373Y-6985888D01*
X4896373Y-6985888D02*
X4886849Y-6966841D01*
X4886849Y-6966841D02*
X4867801Y-6957317D01*
X4867801Y-6957317D02*
X4839230Y-6957317D01*
X4839230Y-6957317D02*
X4820182Y-6947793D01*
X4820182Y-6947793D02*
X4810658Y-6928746D01*
X4810658Y-6928746D02*
X4810658Y-6919222D01*
X4810658Y-6919222D02*
X4820182Y-6900174D01*
X4820182Y-6900174D02*
X4839230Y-6890650D01*
X4839230Y-6890650D02*
X4867801Y-6890650D01*
X4867801Y-6890650D02*
X4886849Y-6900174D01*
X4963039Y-7100174D02*
X4972563Y-7090650D01*
X4972563Y-7090650D02*
X4991611Y-7062079D01*
X4991611Y-7062079D02*
X5001134Y-7043031D01*
X5001134Y-7043031D02*
X5010658Y-7014460D01*
X5010658Y-7014460D02*
X5020182Y-6966841D01*
X5020182Y-6966841D02*
X5020182Y-6928746D01*
X5020182Y-6928746D02*
X5010658Y-6881127D01*
X5010658Y-6881127D02*
X5001134Y-6852555D01*
X5001134Y-6852555D02*
X4991611Y-6833508D01*
X4991611Y-6833508D02*
X4972563Y-6804936D01*
X4972563Y-6804936D02*
X4963039Y-6795412D01*
M02*
