G04 #@! TF.GenerationSoftware,KiCad,Pcbnew,7.0.6*
G04 #@! TF.CreationDate,2023-07-22T14:16:58+02:00*
G04 #@! TF.ProjectId,esp-switch,6573702d-7377-4697-9463-682e6b696361,rev?*
G04 #@! TF.SameCoordinates,Original*
G04 #@! TF.FileFunction,Legend,Bot*
G04 #@! TF.FilePolarity,Positive*
%FSLAX46Y46*%
G04 Gerber Fmt 4.6, Leading zero omitted, Abs format (unit mm)*
G04 Created by KiCad (PCBNEW 7.0.6) date 2023-07-22 14:16:58*
%MOMM*%
%LPD*%
G01*
G04 APERTURE LIST*
G04 Aperture macros list*
%AMRoundRect*
0 Rectangle with rounded corners*
0 $1 Rounding radius*
0 $2 $3 $4 $5 $6 $7 $8 $9 X,Y pos of 4 corners*
0 Add a 4 corners polygon primitive as box body*
4,1,4,$2,$3,$4,$5,$6,$7,$8,$9,$2,$3,0*
0 Add four circle primitives for the rounded corners*
1,1,$1+$1,$2,$3*
1,1,$1+$1,$4,$5*
1,1,$1+$1,$6,$7*
1,1,$1+$1,$8,$9*
0 Add four rect primitives between the rounded corners*
20,1,$1+$1,$2,$3,$4,$5,0*
20,1,$1+$1,$4,$5,$6,$7,0*
20,1,$1+$1,$6,$7,$8,$9,0*
20,1,$1+$1,$8,$9,$2,$3,0*%
G04 Aperture macros list end*
%ADD10C,0.150000*%
%ADD11C,0.120000*%
%ADD12R,1.600000X1.600000*%
%ADD13C,1.600000*%
%ADD14O,1.600000X1.600000*%
%ADD15C,1.800000*%
%ADD16R,2.400000X2.400000*%
%ADD17O,2.400000X2.400000*%
%ADD18R,1.700000X1.700000*%
%ADD19O,1.700000X1.700000*%
%ADD20R,2.200000X2.200000*%
%ADD21O,2.200000X2.200000*%
%ADD22RoundRect,0.250000X-0.350000X-0.450000X0.350000X-0.450000X0.350000X0.450000X-0.350000X0.450000X0*%
%ADD23R,1.900000X0.800000*%
%ADD24RoundRect,0.250000X0.450000X-0.350000X0.450000X0.350000X-0.450000X0.350000X-0.450000X-0.350000X0*%
%ADD25RoundRect,0.250000X0.350000X0.450000X-0.350000X0.450000X-0.350000X-0.450000X0.350000X-0.450000X0*%
%ADD26R,0.800000X1.900000*%
G04 APERTURE END LIST*
D10*
X50955411Y-47177438D02*
X51050649Y-47129819D01*
X51050649Y-47129819D02*
X51193506Y-47129819D01*
X51193506Y-47129819D02*
X51336363Y-47177438D01*
X51336363Y-47177438D02*
X51431601Y-47272676D01*
X51431601Y-47272676D02*
X51479220Y-47367914D01*
X51479220Y-47367914D02*
X51526839Y-47558390D01*
X51526839Y-47558390D02*
X51526839Y-47701247D01*
X51526839Y-47701247D02*
X51479220Y-47891723D01*
X51479220Y-47891723D02*
X51431601Y-47986961D01*
X51431601Y-47986961D02*
X51336363Y-48082200D01*
X51336363Y-48082200D02*
X51193506Y-48129819D01*
X51193506Y-48129819D02*
X51098268Y-48129819D01*
X51098268Y-48129819D02*
X50955411Y-48082200D01*
X50955411Y-48082200D02*
X50907792Y-48034580D01*
X50907792Y-48034580D02*
X50907792Y-47701247D01*
X50907792Y-47701247D02*
X51098268Y-47701247D01*
X50479220Y-48129819D02*
X50479220Y-47129819D01*
X50479220Y-47129819D02*
X49907792Y-48129819D01*
X49907792Y-48129819D02*
X49907792Y-47129819D01*
X49431601Y-48129819D02*
X49431601Y-47129819D01*
X49431601Y-47129819D02*
X49193506Y-47129819D01*
X49193506Y-47129819D02*
X49050649Y-47177438D01*
X49050649Y-47177438D02*
X48955411Y-47272676D01*
X48955411Y-47272676D02*
X48907792Y-47367914D01*
X48907792Y-47367914D02*
X48860173Y-47558390D01*
X48860173Y-47558390D02*
X48860173Y-47701247D01*
X48860173Y-47701247D02*
X48907792Y-47891723D01*
X48907792Y-47891723D02*
X48955411Y-47986961D01*
X48955411Y-47986961D02*
X49050649Y-48082200D01*
X49050649Y-48082200D02*
X49193506Y-48129819D01*
X49193506Y-48129819D02*
X49431601Y-48129819D01*
X3961466Y-11538419D02*
X4294799Y-11062228D01*
X4532894Y-11538419D02*
X4532894Y-10538419D01*
X4532894Y-10538419D02*
X4151942Y-10538419D01*
X4151942Y-10538419D02*
X4056704Y-10586038D01*
X4056704Y-10586038D02*
X4009085Y-10633657D01*
X4009085Y-10633657D02*
X3961466Y-10728895D01*
X3961466Y-10728895D02*
X3961466Y-10871752D01*
X3961466Y-10871752D02*
X4009085Y-10966990D01*
X4009085Y-10966990D02*
X4056704Y-11014609D01*
X4056704Y-11014609D02*
X4151942Y-11062228D01*
X4151942Y-11062228D02*
X4532894Y-11062228D01*
X3628132Y-10538419D02*
X3009085Y-10538419D01*
X3009085Y-10538419D02*
X3342418Y-10919371D01*
X3342418Y-10919371D02*
X3199561Y-10919371D01*
X3199561Y-10919371D02*
X3104323Y-10966990D01*
X3104323Y-10966990D02*
X3056704Y-11014609D01*
X3056704Y-11014609D02*
X3009085Y-11109847D01*
X3009085Y-11109847D02*
X3009085Y-11347942D01*
X3009085Y-11347942D02*
X3056704Y-11443180D01*
X3056704Y-11443180D02*
X3104323Y-11490800D01*
X3104323Y-11490800D02*
X3199561Y-11538419D01*
X3199561Y-11538419D02*
X3485275Y-11538419D01*
X3485275Y-11538419D02*
X3580513Y-11490800D01*
X3580513Y-11490800D02*
X3628132Y-11443180D01*
X14195238Y-16250057D02*
X14290476Y-16202438D01*
X14290476Y-16202438D02*
X14385714Y-16107200D01*
X14385714Y-16107200D02*
X14528571Y-15964342D01*
X14528571Y-15964342D02*
X14623809Y-15916723D01*
X14623809Y-15916723D02*
X14719047Y-15916723D01*
X14671428Y-16154819D02*
X14766666Y-16107200D01*
X14766666Y-16107200D02*
X14861904Y-16011961D01*
X14861904Y-16011961D02*
X14909523Y-15821485D01*
X14909523Y-15821485D02*
X14909523Y-15488152D01*
X14909523Y-15488152D02*
X14861904Y-15297676D01*
X14861904Y-15297676D02*
X14766666Y-15202438D01*
X14766666Y-15202438D02*
X14671428Y-15154819D01*
X14671428Y-15154819D02*
X14480952Y-15154819D01*
X14480952Y-15154819D02*
X14385714Y-15202438D01*
X14385714Y-15202438D02*
X14290476Y-15297676D01*
X14290476Y-15297676D02*
X14242857Y-15488152D01*
X14242857Y-15488152D02*
X14242857Y-15821485D01*
X14242857Y-15821485D02*
X14290476Y-16011961D01*
X14290476Y-16011961D02*
X14385714Y-16107200D01*
X14385714Y-16107200D02*
X14480952Y-16154819D01*
X14480952Y-16154819D02*
X14671428Y-16154819D01*
X13338095Y-15154819D02*
X13814285Y-15154819D01*
X13814285Y-15154819D02*
X13861904Y-15631009D01*
X13861904Y-15631009D02*
X13814285Y-15583390D01*
X13814285Y-15583390D02*
X13719047Y-15535771D01*
X13719047Y-15535771D02*
X13480952Y-15535771D01*
X13480952Y-15535771D02*
X13385714Y-15583390D01*
X13385714Y-15583390D02*
X13338095Y-15631009D01*
X13338095Y-15631009D02*
X13290476Y-15726247D01*
X13290476Y-15726247D02*
X13290476Y-15964342D01*
X13290476Y-15964342D02*
X13338095Y-16059580D01*
X13338095Y-16059580D02*
X13385714Y-16107200D01*
X13385714Y-16107200D02*
X13480952Y-16154819D01*
X13480952Y-16154819D02*
X13719047Y-16154819D01*
X13719047Y-16154819D02*
X13814285Y-16107200D01*
X13814285Y-16107200D02*
X13861904Y-16059580D01*
X19818819Y-5863333D02*
X19342628Y-5530000D01*
X19818819Y-5291905D02*
X18818819Y-5291905D01*
X18818819Y-5291905D02*
X18818819Y-5672857D01*
X18818819Y-5672857D02*
X18866438Y-5768095D01*
X18866438Y-5768095D02*
X18914057Y-5815714D01*
X18914057Y-5815714D02*
X19009295Y-5863333D01*
X19009295Y-5863333D02*
X19152152Y-5863333D01*
X19152152Y-5863333D02*
X19247390Y-5815714D01*
X19247390Y-5815714D02*
X19295009Y-5768095D01*
X19295009Y-5768095D02*
X19342628Y-5672857D01*
X19342628Y-5672857D02*
X19342628Y-5291905D01*
X18818819Y-6768095D02*
X18818819Y-6291905D01*
X18818819Y-6291905D02*
X19295009Y-6244286D01*
X19295009Y-6244286D02*
X19247390Y-6291905D01*
X19247390Y-6291905D02*
X19199771Y-6387143D01*
X19199771Y-6387143D02*
X19199771Y-6625238D01*
X19199771Y-6625238D02*
X19247390Y-6720476D01*
X19247390Y-6720476D02*
X19295009Y-6768095D01*
X19295009Y-6768095D02*
X19390247Y-6815714D01*
X19390247Y-6815714D02*
X19628342Y-6815714D01*
X19628342Y-6815714D02*
X19723580Y-6768095D01*
X19723580Y-6768095D02*
X19771200Y-6720476D01*
X19771200Y-6720476D02*
X19818819Y-6625238D01*
X19818819Y-6625238D02*
X19818819Y-6387143D01*
X19818819Y-6387143D02*
X19771200Y-6291905D01*
X19771200Y-6291905D02*
X19723580Y-6244286D01*
X17305257Y-19669819D02*
X17638590Y-19193628D01*
X17876685Y-19669819D02*
X17876685Y-18669819D01*
X17876685Y-18669819D02*
X17495733Y-18669819D01*
X17495733Y-18669819D02*
X17400495Y-18717438D01*
X17400495Y-18717438D02*
X17352876Y-18765057D01*
X17352876Y-18765057D02*
X17305257Y-18860295D01*
X17305257Y-18860295D02*
X17305257Y-19003152D01*
X17305257Y-19003152D02*
X17352876Y-19098390D01*
X17352876Y-19098390D02*
X17400495Y-19146009D01*
X17400495Y-19146009D02*
X17495733Y-19193628D01*
X17495733Y-19193628D02*
X17876685Y-19193628D01*
X16352876Y-19669819D02*
X16924304Y-19669819D01*
X16638590Y-19669819D02*
X16638590Y-18669819D01*
X16638590Y-18669819D02*
X16733828Y-18812676D01*
X16733828Y-18812676D02*
X16829066Y-18907914D01*
X16829066Y-18907914D02*
X16924304Y-18955533D01*
X15971923Y-18765057D02*
X15924304Y-18717438D01*
X15924304Y-18717438D02*
X15829066Y-18669819D01*
X15829066Y-18669819D02*
X15590971Y-18669819D01*
X15590971Y-18669819D02*
X15495733Y-18717438D01*
X15495733Y-18717438D02*
X15448114Y-18765057D01*
X15448114Y-18765057D02*
X15400495Y-18860295D01*
X15400495Y-18860295D02*
X15400495Y-18955533D01*
X15400495Y-18955533D02*
X15448114Y-19098390D01*
X15448114Y-19098390D02*
X16019542Y-19669819D01*
X16019542Y-19669819D02*
X15400495Y-19669819D01*
X21842857Y-12154819D02*
X22176190Y-11678628D01*
X22414285Y-12154819D02*
X22414285Y-11154819D01*
X22414285Y-11154819D02*
X22033333Y-11154819D01*
X22033333Y-11154819D02*
X21938095Y-11202438D01*
X21938095Y-11202438D02*
X21890476Y-11250057D01*
X21890476Y-11250057D02*
X21842857Y-11345295D01*
X21842857Y-11345295D02*
X21842857Y-11488152D01*
X21842857Y-11488152D02*
X21890476Y-11583390D01*
X21890476Y-11583390D02*
X21938095Y-11631009D01*
X21938095Y-11631009D02*
X22033333Y-11678628D01*
X22033333Y-11678628D02*
X22414285Y-11678628D01*
X20890476Y-12154819D02*
X21461904Y-12154819D01*
X21176190Y-12154819D02*
X21176190Y-11154819D01*
X21176190Y-11154819D02*
X21271428Y-11297676D01*
X21271428Y-11297676D02*
X21366666Y-11392914D01*
X21366666Y-11392914D02*
X21461904Y-11440533D01*
X19938095Y-12154819D02*
X20509523Y-12154819D01*
X20223809Y-12154819D02*
X20223809Y-11154819D01*
X20223809Y-11154819D02*
X20319047Y-11297676D01*
X20319047Y-11297676D02*
X20414285Y-11392914D01*
X20414285Y-11392914D02*
X20509523Y-11440533D01*
X19818819Y-1799333D02*
X19342628Y-1466000D01*
X19818819Y-1227905D02*
X18818819Y-1227905D01*
X18818819Y-1227905D02*
X18818819Y-1608857D01*
X18818819Y-1608857D02*
X18866438Y-1704095D01*
X18866438Y-1704095D02*
X18914057Y-1751714D01*
X18914057Y-1751714D02*
X19009295Y-1799333D01*
X19009295Y-1799333D02*
X19152152Y-1799333D01*
X19152152Y-1799333D02*
X19247390Y-1751714D01*
X19247390Y-1751714D02*
X19295009Y-1704095D01*
X19295009Y-1704095D02*
X19342628Y-1608857D01*
X19342628Y-1608857D02*
X19342628Y-1227905D01*
X19152152Y-2656476D02*
X19818819Y-2656476D01*
X18771200Y-2418381D02*
X19485485Y-2180286D01*
X19485485Y-2180286D02*
X19485485Y-2799333D01*
X11895238Y-7950057D02*
X11990476Y-7902438D01*
X11990476Y-7902438D02*
X12085714Y-7807200D01*
X12085714Y-7807200D02*
X12228571Y-7664342D01*
X12228571Y-7664342D02*
X12323809Y-7616723D01*
X12323809Y-7616723D02*
X12419047Y-7616723D01*
X12371428Y-7854819D02*
X12466666Y-7807200D01*
X12466666Y-7807200D02*
X12561904Y-7711961D01*
X12561904Y-7711961D02*
X12609523Y-7521485D01*
X12609523Y-7521485D02*
X12609523Y-7188152D01*
X12609523Y-7188152D02*
X12561904Y-6997676D01*
X12561904Y-6997676D02*
X12466666Y-6902438D01*
X12466666Y-6902438D02*
X12371428Y-6854819D01*
X12371428Y-6854819D02*
X12180952Y-6854819D01*
X12180952Y-6854819D02*
X12085714Y-6902438D01*
X12085714Y-6902438D02*
X11990476Y-6997676D01*
X11990476Y-6997676D02*
X11942857Y-7188152D01*
X11942857Y-7188152D02*
X11942857Y-7521485D01*
X11942857Y-7521485D02*
X11990476Y-7711961D01*
X11990476Y-7711961D02*
X12085714Y-7807200D01*
X12085714Y-7807200D02*
X12180952Y-7854819D01*
X12180952Y-7854819D02*
X12371428Y-7854819D01*
X11609523Y-6854819D02*
X10990476Y-6854819D01*
X10990476Y-6854819D02*
X11323809Y-7235771D01*
X11323809Y-7235771D02*
X11180952Y-7235771D01*
X11180952Y-7235771D02*
X11085714Y-7283390D01*
X11085714Y-7283390D02*
X11038095Y-7331009D01*
X11038095Y-7331009D02*
X10990476Y-7426247D01*
X10990476Y-7426247D02*
X10990476Y-7664342D01*
X10990476Y-7664342D02*
X11038095Y-7759580D01*
X11038095Y-7759580D02*
X11085714Y-7807200D01*
X11085714Y-7807200D02*
X11180952Y-7854819D01*
X11180952Y-7854819D02*
X11466666Y-7854819D01*
X11466666Y-7854819D02*
X11561904Y-7807200D01*
X11561904Y-7807200D02*
X11609523Y-7759580D01*
X29250057Y-17604761D02*
X29202438Y-17509523D01*
X29202438Y-17509523D02*
X29107200Y-17414285D01*
X29107200Y-17414285D02*
X28964342Y-17271428D01*
X28964342Y-17271428D02*
X28916723Y-17176190D01*
X28916723Y-17176190D02*
X28916723Y-17080952D01*
X29154819Y-17128571D02*
X29107200Y-17033333D01*
X29107200Y-17033333D02*
X29011961Y-16938095D01*
X29011961Y-16938095D02*
X28821485Y-16890476D01*
X28821485Y-16890476D02*
X28488152Y-16890476D01*
X28488152Y-16890476D02*
X28297676Y-16938095D01*
X28297676Y-16938095D02*
X28202438Y-17033333D01*
X28202438Y-17033333D02*
X28154819Y-17128571D01*
X28154819Y-17128571D02*
X28154819Y-17319047D01*
X28154819Y-17319047D02*
X28202438Y-17414285D01*
X28202438Y-17414285D02*
X28297676Y-17509523D01*
X28297676Y-17509523D02*
X28488152Y-17557142D01*
X28488152Y-17557142D02*
X28821485Y-17557142D01*
X28821485Y-17557142D02*
X29011961Y-17509523D01*
X29011961Y-17509523D02*
X29107200Y-17414285D01*
X29107200Y-17414285D02*
X29154819Y-17319047D01*
X29154819Y-17319047D02*
X29154819Y-17128571D01*
X28154819Y-17890476D02*
X28154819Y-18557142D01*
X28154819Y-18557142D02*
X29154819Y-18128571D01*
X19818819Y-10079733D02*
X19342628Y-9746400D01*
X19818819Y-9508305D02*
X18818819Y-9508305D01*
X18818819Y-9508305D02*
X18818819Y-9889257D01*
X18818819Y-9889257D02*
X18866438Y-9984495D01*
X18866438Y-9984495D02*
X18914057Y-10032114D01*
X18914057Y-10032114D02*
X19009295Y-10079733D01*
X19009295Y-10079733D02*
X19152152Y-10079733D01*
X19152152Y-10079733D02*
X19247390Y-10032114D01*
X19247390Y-10032114D02*
X19295009Y-9984495D01*
X19295009Y-9984495D02*
X19342628Y-9889257D01*
X19342628Y-9889257D02*
X19342628Y-9508305D01*
X18818819Y-10936876D02*
X18818819Y-10746400D01*
X18818819Y-10746400D02*
X18866438Y-10651162D01*
X18866438Y-10651162D02*
X18914057Y-10603543D01*
X18914057Y-10603543D02*
X19056914Y-10508305D01*
X19056914Y-10508305D02*
X19247390Y-10460686D01*
X19247390Y-10460686D02*
X19628342Y-10460686D01*
X19628342Y-10460686D02*
X19723580Y-10508305D01*
X19723580Y-10508305D02*
X19771200Y-10555924D01*
X19771200Y-10555924D02*
X19818819Y-10651162D01*
X19818819Y-10651162D02*
X19818819Y-10841638D01*
X19818819Y-10841638D02*
X19771200Y-10936876D01*
X19771200Y-10936876D02*
X19723580Y-10984495D01*
X19723580Y-10984495D02*
X19628342Y-11032114D01*
X19628342Y-11032114D02*
X19390247Y-11032114D01*
X19390247Y-11032114D02*
X19295009Y-10984495D01*
X19295009Y-10984495D02*
X19247390Y-10936876D01*
X19247390Y-10936876D02*
X19199771Y-10841638D01*
X19199771Y-10841638D02*
X19199771Y-10651162D01*
X19199771Y-10651162D02*
X19247390Y-10555924D01*
X19247390Y-10555924D02*
X19295009Y-10508305D01*
X19295009Y-10508305D02*
X19390247Y-10460686D01*
X11895238Y-3850057D02*
X11990476Y-3802438D01*
X11990476Y-3802438D02*
X12085714Y-3707200D01*
X12085714Y-3707200D02*
X12228571Y-3564342D01*
X12228571Y-3564342D02*
X12323809Y-3516723D01*
X12323809Y-3516723D02*
X12419047Y-3516723D01*
X12371428Y-3754819D02*
X12466666Y-3707200D01*
X12466666Y-3707200D02*
X12561904Y-3611961D01*
X12561904Y-3611961D02*
X12609523Y-3421485D01*
X12609523Y-3421485D02*
X12609523Y-3088152D01*
X12609523Y-3088152D02*
X12561904Y-2897676D01*
X12561904Y-2897676D02*
X12466666Y-2802438D01*
X12466666Y-2802438D02*
X12371428Y-2754819D01*
X12371428Y-2754819D02*
X12180952Y-2754819D01*
X12180952Y-2754819D02*
X12085714Y-2802438D01*
X12085714Y-2802438D02*
X11990476Y-2897676D01*
X11990476Y-2897676D02*
X11942857Y-3088152D01*
X11942857Y-3088152D02*
X11942857Y-3421485D01*
X11942857Y-3421485D02*
X11990476Y-3611961D01*
X11990476Y-3611961D02*
X12085714Y-3707200D01*
X12085714Y-3707200D02*
X12180952Y-3754819D01*
X12180952Y-3754819D02*
X12371428Y-3754819D01*
X11561904Y-2850057D02*
X11514285Y-2802438D01*
X11514285Y-2802438D02*
X11419047Y-2754819D01*
X11419047Y-2754819D02*
X11180952Y-2754819D01*
X11180952Y-2754819D02*
X11085714Y-2802438D01*
X11085714Y-2802438D02*
X11038095Y-2850057D01*
X11038095Y-2850057D02*
X10990476Y-2945295D01*
X10990476Y-2945295D02*
X10990476Y-3040533D01*
X10990476Y-3040533D02*
X11038095Y-3183390D01*
X11038095Y-3183390D02*
X11609523Y-3754819D01*
X11609523Y-3754819D02*
X10990476Y-3754819D01*
X25250057Y-17604761D02*
X25202438Y-17509523D01*
X25202438Y-17509523D02*
X25107200Y-17414285D01*
X25107200Y-17414285D02*
X24964342Y-17271428D01*
X24964342Y-17271428D02*
X24916723Y-17176190D01*
X24916723Y-17176190D02*
X24916723Y-17080952D01*
X25154819Y-17128571D02*
X25107200Y-17033333D01*
X25107200Y-17033333D02*
X25011961Y-16938095D01*
X25011961Y-16938095D02*
X24821485Y-16890476D01*
X24821485Y-16890476D02*
X24488152Y-16890476D01*
X24488152Y-16890476D02*
X24297676Y-16938095D01*
X24297676Y-16938095D02*
X24202438Y-17033333D01*
X24202438Y-17033333D02*
X24154819Y-17128571D01*
X24154819Y-17128571D02*
X24154819Y-17319047D01*
X24154819Y-17319047D02*
X24202438Y-17414285D01*
X24202438Y-17414285D02*
X24297676Y-17509523D01*
X24297676Y-17509523D02*
X24488152Y-17557142D01*
X24488152Y-17557142D02*
X24821485Y-17557142D01*
X24821485Y-17557142D02*
X25011961Y-17509523D01*
X25011961Y-17509523D02*
X25107200Y-17414285D01*
X25107200Y-17414285D02*
X25154819Y-17319047D01*
X25154819Y-17319047D02*
X25154819Y-17128571D01*
X24154819Y-18414285D02*
X24154819Y-18223809D01*
X24154819Y-18223809D02*
X24202438Y-18128571D01*
X24202438Y-18128571D02*
X24250057Y-18080952D01*
X24250057Y-18080952D02*
X24392914Y-17985714D01*
X24392914Y-17985714D02*
X24583390Y-17938095D01*
X24583390Y-17938095D02*
X24964342Y-17938095D01*
X24964342Y-17938095D02*
X25059580Y-17985714D01*
X25059580Y-17985714D02*
X25107200Y-18033333D01*
X25107200Y-18033333D02*
X25154819Y-18128571D01*
X25154819Y-18128571D02*
X25154819Y-18319047D01*
X25154819Y-18319047D02*
X25107200Y-18414285D01*
X25107200Y-18414285D02*
X25059580Y-18461904D01*
X25059580Y-18461904D02*
X24964342Y-18509523D01*
X24964342Y-18509523D02*
X24726247Y-18509523D01*
X24726247Y-18509523D02*
X24631009Y-18461904D01*
X24631009Y-18461904D02*
X24583390Y-18414285D01*
X24583390Y-18414285D02*
X24535771Y-18319047D01*
X24535771Y-18319047D02*
X24535771Y-18128571D01*
X24535771Y-18128571D02*
X24583390Y-18033333D01*
X24583390Y-18033333D02*
X24631009Y-17985714D01*
X24631009Y-17985714D02*
X24726247Y-17938095D01*
X6844857Y-5528361D02*
X6797238Y-5433123D01*
X6797238Y-5433123D02*
X6702000Y-5337885D01*
X6702000Y-5337885D02*
X6559142Y-5195028D01*
X6559142Y-5195028D02*
X6511523Y-5099790D01*
X6511523Y-5099790D02*
X6511523Y-5004552D01*
X6749619Y-5052171D02*
X6702000Y-4956933D01*
X6702000Y-4956933D02*
X6606761Y-4861695D01*
X6606761Y-4861695D02*
X6416285Y-4814076D01*
X6416285Y-4814076D02*
X6082952Y-4814076D01*
X6082952Y-4814076D02*
X5892476Y-4861695D01*
X5892476Y-4861695D02*
X5797238Y-4956933D01*
X5797238Y-4956933D02*
X5749619Y-5052171D01*
X5749619Y-5052171D02*
X5749619Y-5242647D01*
X5749619Y-5242647D02*
X5797238Y-5337885D01*
X5797238Y-5337885D02*
X5892476Y-5433123D01*
X5892476Y-5433123D02*
X6082952Y-5480742D01*
X6082952Y-5480742D02*
X6416285Y-5480742D01*
X6416285Y-5480742D02*
X6606761Y-5433123D01*
X6606761Y-5433123D02*
X6702000Y-5337885D01*
X6702000Y-5337885D02*
X6749619Y-5242647D01*
X6749619Y-5242647D02*
X6749619Y-5052171D01*
X6749619Y-6433123D02*
X6749619Y-5861695D01*
X6749619Y-6147409D02*
X5749619Y-6147409D01*
X5749619Y-6147409D02*
X5892476Y-6052171D01*
X5892476Y-6052171D02*
X5987714Y-5956933D01*
X5987714Y-5956933D02*
X6035333Y-5861695D01*
X11895238Y-12150057D02*
X11990476Y-12102438D01*
X11990476Y-12102438D02*
X12085714Y-12007200D01*
X12085714Y-12007200D02*
X12228571Y-11864342D01*
X12228571Y-11864342D02*
X12323809Y-11816723D01*
X12323809Y-11816723D02*
X12419047Y-11816723D01*
X12371428Y-12054819D02*
X12466666Y-12007200D01*
X12466666Y-12007200D02*
X12561904Y-11911961D01*
X12561904Y-11911961D02*
X12609523Y-11721485D01*
X12609523Y-11721485D02*
X12609523Y-11388152D01*
X12609523Y-11388152D02*
X12561904Y-11197676D01*
X12561904Y-11197676D02*
X12466666Y-11102438D01*
X12466666Y-11102438D02*
X12371428Y-11054819D01*
X12371428Y-11054819D02*
X12180952Y-11054819D01*
X12180952Y-11054819D02*
X12085714Y-11102438D01*
X12085714Y-11102438D02*
X11990476Y-11197676D01*
X11990476Y-11197676D02*
X11942857Y-11388152D01*
X11942857Y-11388152D02*
X11942857Y-11721485D01*
X11942857Y-11721485D02*
X11990476Y-11911961D01*
X11990476Y-11911961D02*
X12085714Y-12007200D01*
X12085714Y-12007200D02*
X12180952Y-12054819D01*
X12180952Y-12054819D02*
X12371428Y-12054819D01*
X11085714Y-11388152D02*
X11085714Y-12054819D01*
X11323809Y-11007200D02*
X11561904Y-11721485D01*
X11561904Y-11721485D02*
X10942857Y-11721485D01*
X14712457Y-24884561D02*
X14664838Y-24789323D01*
X14664838Y-24789323D02*
X14569600Y-24694085D01*
X14569600Y-24694085D02*
X14426742Y-24551228D01*
X14426742Y-24551228D02*
X14379123Y-24455990D01*
X14379123Y-24455990D02*
X14379123Y-24360752D01*
X14617219Y-24408371D02*
X14569600Y-24313133D01*
X14569600Y-24313133D02*
X14474361Y-24217895D01*
X14474361Y-24217895D02*
X14283885Y-24170276D01*
X14283885Y-24170276D02*
X13950552Y-24170276D01*
X13950552Y-24170276D02*
X13760076Y-24217895D01*
X13760076Y-24217895D02*
X13664838Y-24313133D01*
X13664838Y-24313133D02*
X13617219Y-24408371D01*
X13617219Y-24408371D02*
X13617219Y-24598847D01*
X13617219Y-24598847D02*
X13664838Y-24694085D01*
X13664838Y-24694085D02*
X13760076Y-24789323D01*
X13760076Y-24789323D02*
X13950552Y-24836942D01*
X13950552Y-24836942D02*
X14283885Y-24836942D01*
X14283885Y-24836942D02*
X14474361Y-24789323D01*
X14474361Y-24789323D02*
X14569600Y-24694085D01*
X14569600Y-24694085D02*
X14617219Y-24598847D01*
X14617219Y-24598847D02*
X14617219Y-24408371D01*
X14045790Y-25408371D02*
X13998171Y-25313133D01*
X13998171Y-25313133D02*
X13950552Y-25265514D01*
X13950552Y-25265514D02*
X13855314Y-25217895D01*
X13855314Y-25217895D02*
X13807695Y-25217895D01*
X13807695Y-25217895D02*
X13712457Y-25265514D01*
X13712457Y-25265514D02*
X13664838Y-25313133D01*
X13664838Y-25313133D02*
X13617219Y-25408371D01*
X13617219Y-25408371D02*
X13617219Y-25598847D01*
X13617219Y-25598847D02*
X13664838Y-25694085D01*
X13664838Y-25694085D02*
X13712457Y-25741704D01*
X13712457Y-25741704D02*
X13807695Y-25789323D01*
X13807695Y-25789323D02*
X13855314Y-25789323D01*
X13855314Y-25789323D02*
X13950552Y-25741704D01*
X13950552Y-25741704D02*
X13998171Y-25694085D01*
X13998171Y-25694085D02*
X14045790Y-25598847D01*
X14045790Y-25598847D02*
X14045790Y-25408371D01*
X14045790Y-25408371D02*
X14093409Y-25313133D01*
X14093409Y-25313133D02*
X14141028Y-25265514D01*
X14141028Y-25265514D02*
X14236266Y-25217895D01*
X14236266Y-25217895D02*
X14426742Y-25217895D01*
X14426742Y-25217895D02*
X14521980Y-25265514D01*
X14521980Y-25265514D02*
X14569600Y-25313133D01*
X14569600Y-25313133D02*
X14617219Y-25408371D01*
X14617219Y-25408371D02*
X14617219Y-25598847D01*
X14617219Y-25598847D02*
X14569600Y-25694085D01*
X14569600Y-25694085D02*
X14521980Y-25741704D01*
X14521980Y-25741704D02*
X14426742Y-25789323D01*
X14426742Y-25789323D02*
X14236266Y-25789323D01*
X14236266Y-25789323D02*
X14141028Y-25741704D01*
X14141028Y-25741704D02*
X14093409Y-25694085D01*
X14093409Y-25694085D02*
X14045790Y-25598847D01*
D11*
X3567736Y-8698600D02*
X4021864Y-8698600D01*
X3567736Y-10168600D02*
X4021864Y-10168600D01*
X15176000Y-15839600D02*
X16636000Y-15839600D01*
X15176000Y-15839600D02*
X15176000Y-14909600D01*
X15176000Y-12679600D02*
X18336000Y-12679600D01*
X15176000Y-12679600D02*
X15176000Y-13609600D01*
X16979000Y-6257064D02*
X16979000Y-5802936D01*
X18449000Y-6257064D02*
X18449000Y-5802936D01*
X16889464Y-21600000D02*
X16435336Y-21600000D01*
X16889464Y-20130000D02*
X16435336Y-20130000D01*
X19290400Y-14486664D02*
X19290400Y-14032536D01*
X20760400Y-14486664D02*
X20760400Y-14032536D01*
X16979000Y-2193064D02*
X16979000Y-1738936D01*
X18449000Y-2193064D02*
X18449000Y-1738936D01*
X12866000Y-7610000D02*
X14326000Y-7610000D01*
X12866000Y-7610000D02*
X12866000Y-6680000D01*
X12866000Y-4450000D02*
X16026000Y-4450000D01*
X12866000Y-4450000D02*
X12866000Y-5380000D01*
X29022200Y-16645200D02*
X29022200Y-15185200D01*
X29022200Y-16645200D02*
X28092200Y-16645200D01*
X25862200Y-16645200D02*
X25862200Y-13485200D01*
X25862200Y-16645200D02*
X26792200Y-16645200D01*
X16979000Y-10473464D02*
X16979000Y-10019336D01*
X18449000Y-10473464D02*
X18449000Y-10019336D01*
X12866000Y-3546000D02*
X14326000Y-3546000D01*
X12866000Y-3546000D02*
X12866000Y-2616000D01*
X12866000Y-386000D02*
X16026000Y-386000D01*
X12866000Y-386000D02*
X12866000Y-1316000D01*
X25009000Y-16645200D02*
X25009000Y-15185200D01*
X25009000Y-16645200D02*
X24079000Y-16645200D01*
X21849000Y-16645200D02*
X21849000Y-13485200D01*
X21849000Y-16645200D02*
X22779000Y-16645200D01*
X2214800Y-4863600D02*
X2214800Y-6323600D01*
X2214800Y-4863600D02*
X3144800Y-4863600D01*
X5374800Y-4863600D02*
X5374800Y-8023600D01*
X5374800Y-4863600D02*
X4444800Y-4863600D01*
X12839200Y-11826400D02*
X14299200Y-11826400D01*
X12839200Y-11826400D02*
X12839200Y-10896400D01*
X12839200Y-8666400D02*
X15999200Y-8666400D01*
X12839200Y-8666400D02*
X12839200Y-9596400D01*
X18242400Y-25739800D02*
X18242400Y-24279800D01*
X18242400Y-25739800D02*
X17312400Y-25739800D01*
X15082400Y-25739800D02*
X15082400Y-22579800D01*
X15082400Y-25739800D02*
X16012400Y-25739800D01*
%LPC*%
D12*
X74141380Y-21905000D03*
D13*
X71641380Y-21905000D03*
X66304200Y-12405400D03*
D14*
X56144200Y-12405400D03*
D15*
X83900000Y-1000000D03*
X78900000Y-1000000D03*
X78900000Y-6000000D03*
X78900000Y-11000000D03*
D12*
X49530200Y-12039200D03*
D14*
X49530200Y-9499200D03*
X41910200Y-9499200D03*
X41910200Y-12039200D03*
D13*
X74747800Y-5117000D03*
X69747800Y-2117000D03*
D16*
X52842200Y-12842000D03*
D17*
X52842200Y-9032000D03*
D13*
X66304200Y-5430200D03*
D14*
X56144200Y-5430200D03*
D13*
X66304200Y-9154200D03*
D14*
X56144200Y-9154200D03*
D16*
X52842200Y-5349000D03*
D17*
X52842200Y-1539000D03*
D18*
X61392000Y-45141000D03*
D19*
X61392000Y-47681000D03*
X58852000Y-45141000D03*
X58852000Y-47681000D03*
X56312000Y-45141000D03*
X56312000Y-47681000D03*
X53772000Y-45141000D03*
X53772000Y-47681000D03*
D20*
X73284234Y-27010400D03*
D21*
X70744234Y-27010400D03*
D12*
X49530200Y-4922200D03*
D14*
X49530200Y-2382200D03*
X41910200Y-2382200D03*
X41910200Y-4922200D03*
D15*
X3800000Y-1000000D03*
X8800000Y-1000000D03*
X8800000Y-6000000D03*
X8800000Y-11000000D03*
D13*
X74747800Y-12229000D03*
X69747800Y-9229000D03*
D12*
X53217621Y-19600000D03*
D13*
X55717621Y-19600000D03*
X66304200Y-1874200D03*
D14*
X56144200Y-1874200D03*
D15*
X15100000Y-17400000D03*
X20100000Y-17400000D03*
X20100000Y-22400000D03*
X20100000Y-27400000D03*
X72600000Y-17400000D03*
X67600000Y-17400000D03*
X67600000Y-22400000D03*
X67600000Y-27400000D03*
D22*
X2794800Y-9433600D03*
X4794800Y-9433600D03*
D23*
X17436000Y-13309600D03*
X17436000Y-15209600D03*
X14436000Y-14259600D03*
D24*
X17714000Y-7030000D03*
X17714000Y-5030000D03*
D25*
X17662400Y-20865000D03*
X15662400Y-20865000D03*
D24*
X20025400Y-15259600D03*
X20025400Y-13259600D03*
X17714000Y-2966000D03*
X17714000Y-966000D03*
D23*
X15126000Y-5080000D03*
X15126000Y-6980000D03*
X12126000Y-6030000D03*
D26*
X26492200Y-14385200D03*
X28392200Y-14385200D03*
X27442200Y-17385200D03*
D24*
X17714000Y-11246400D03*
X17714000Y-9246400D03*
D23*
X15126000Y-1016000D03*
X15126000Y-2916000D03*
X12126000Y-1966000D03*
D26*
X22479000Y-14385200D03*
X24379000Y-14385200D03*
X23429000Y-17385200D03*
X4744800Y-7123600D03*
X2844800Y-7123600D03*
X3794800Y-4123600D03*
D23*
X15099200Y-9296400D03*
X15099200Y-11196400D03*
X12099200Y-10246400D03*
D26*
X15712400Y-23479800D03*
X17612400Y-23479800D03*
X16662400Y-26479800D03*
%LPD*%
M02*
