M48
; DRILL file {KiCad 7.0.6} date Thu Aug 17 21:01:12 2023
; FORMAT={-:-/ absolute / metric / decimal}
; #@! TF.CreationDate,2023-08-17T21:01:12+02:00
; #@! TF.GenerationSoftware,Kicad,Pcbnew,7.0.6
; #@! TF.FileFunction,Plated,1,2,PTH
FMAT,2
METRIC
; #@! TA.AperFunction,Plated,PTH,ViaDrill
T1C0.300
; #@! TA.AperFunction,Plated,PTH,ViaDrill
T2C0.500
; #@! TA.AperFunction,Plated,PTH,ComponentDrill
T3C0.600
; #@! TA.AperFunction,Plated,PTH,ComponentDrill
T4C0.800
; #@! TA.AperFunction,Plated,PTH,ComponentDrill
T5C1.000
; #@! TA.AperFunction,Plated,PTH,ComponentDrill
T6C1.100
; #@! TA.AperFunction,Plated,PTH,ComponentDrill
T7C1.200
%
G90
G05
T1
X2.5Y-2.5
X2.5Y-5.0
X4.745Y-8.392
X5.0Y-2.5
X5.0Y-5.0
X7.5Y-2.5
X7.5Y-5.0
X7.5Y-7.5
X12.5Y-7.5
X12.5Y-12.5
X12.5Y-17.5
X12.5Y-22.5
X12.5Y-27.5
X15.707Y-25.029
X17.5Y-16.5
X17.5Y-19.0
X18.832Y-13.31
X19.035Y-9.256
X19.136Y-0.975
X19.162Y-5.039
X20.0Y-2.5
X20.0Y-7.5
X20.0Y-20.0
X22.5Y-7.5
X22.5Y-12.5
X22.5Y-20.0
X22.5Y-25.0
X24.892Y-16.45
X24.892Y-21.45
X25.0Y-2.5
X25.0Y-12.5
X25.0Y-47.5
X27.5Y-20.0
X27.5Y-25.0
X30.0Y-2.5
X30.0Y-7.5
X30.0Y-27.5
X30.0Y-35.0
X32.5Y-27.5
X34.798Y-30.099
X35.0Y-2.5
X35.0Y-7.5
X35.0Y-12.5
X35.0Y-32.5
X35.0Y-35.0
X37.338Y-30.099
X39.878Y-36.576
X42.5Y-22.5
X44.95Y-48.4
X45.0Y-17.5
X45.0Y-22.5
X47.5Y-17.5
X47.5Y-20.0
X47.5Y-22.5
X47.5Y-42.5
X50.0Y-47.5
X51.3Y-34.671
X55.0Y-17.5
X55.0Y-22.5
X55.0Y-25.0
X55.0Y-27.5
X55.0Y-30.0
X55.0Y-42.5
X55.0Y-47.5
X56.388Y-37.465
X57.5Y-17.5
X57.5Y-30.0
X57.5Y-32.5
X58.796Y-22.098
X59.345Y-18.679
X59.9Y-24.3
X61.3Y-27.5
X61.529Y-31.049
X62.5Y-32.5
X62.5Y-35.0
X62.5Y-47.5
X62.672Y-24.013
X65.0Y-17.5
T2
X42.164Y-25.146
T3
X69.748Y-2.117
X69.748Y-9.229
X74.748Y-5.117
X74.748Y-12.229
T4
X41.91Y-2.382
X41.91Y-4.922
X41.91Y-9.499
X41.91Y-12.039
X49.53Y-2.382
X49.53Y-4.922
X49.53Y-9.499
X49.53Y-12.039
X53.218Y-19.6
X55.718Y-19.6
X56.144Y-1.874
X56.144Y-5.43
X56.144Y-9.154
X56.144Y-12.405
X66.304Y-1.874
X66.304Y-5.43
X66.304Y-9.154
X66.304Y-12.405
X71.641Y-21.905
X74.141Y-21.905
T5
X47.498Y-39.37
X50.038Y-39.37
X52.578Y-39.37
X55.118Y-39.37
X57.658Y-39.37
X60.198Y-39.37
X62.738Y-39.37
T6
X70.744Y-27.01
X73.284Y-27.01
T7
X3.8Y-1.0
X8.8Y-1.0
X8.8Y-6.0
X8.8Y-11.0
X15.1Y-17.4
X20.1Y-17.4
X20.1Y-22.4
X20.1Y-27.4
X52.842Y-1.539
X52.842Y-5.349
X52.842Y-9.032
X52.842Y-12.842
X67.6Y-17.4
X67.6Y-22.4
X67.6Y-27.4
X72.6Y-17.4
X78.9Y-1.0
X78.9Y-6.0
X78.9Y-11.0
X83.9Y-1.0
T0
M30
