G04 #@! TF.GenerationSoftware,KiCad,Pcbnew,7.0.6*
G04 #@! TF.CreationDate,2023-08-17T21:06:19+02:00*
G04 #@! TF.ProjectId,esp-switch,6573702d-7377-4697-9463-682e6b696361,rev?*
G04 #@! TF.SameCoordinates,Original*
G04 #@! TF.FileFunction,Legend,Bot*
G04 #@! TF.FilePolarity,Positive*
%FSLAX46Y46*%
G04 Gerber Fmt 4.6, Leading zero omitted, Abs format (unit mm)*
G04 Created by KiCad (PCBNEW 7.0.6) date 2023-08-17 21:06:19*
%MOMM*%
%LPD*%
G01*
G04 APERTURE LIST*
G04 Aperture macros list*
%AMRoundRect*
0 Rectangle with rounded corners*
0 $1 Rounding radius*
0 $2 $3 $4 $5 $6 $7 $8 $9 X,Y pos of 4 corners*
0 Add a 4 corners polygon primitive as box body*
4,1,4,$2,$3,$4,$5,$6,$7,$8,$9,$2,$3,0*
0 Add four circle primitives for the rounded corners*
1,1,$1+$1,$2,$3*
1,1,$1+$1,$4,$5*
1,1,$1+$1,$6,$7*
1,1,$1+$1,$8,$9*
0 Add four rect primitives between the rounded corners*
20,1,$1+$1,$2,$3,$4,$5,0*
20,1,$1+$1,$4,$5,$6,$7,0*
20,1,$1+$1,$6,$7,$8,$9,0*
20,1,$1+$1,$8,$9,$2,$3,0*%
G04 Aperture macros list end*
%ADD10C,0.150000*%
%ADD11C,0.120000*%
%ADD12R,1.600000X1.600000*%
%ADD13C,1.600000*%
%ADD14O,1.600000X1.600000*%
%ADD15C,1.800000*%
%ADD16R,2.400000X2.400000*%
%ADD17O,2.400000X2.400000*%
%ADD18R,1.700000X1.700000*%
%ADD19O,1.700000X1.700000*%
%ADD20R,2.200000X2.200000*%
%ADD21O,2.200000X2.200000*%
%ADD22RoundRect,0.250000X-0.350000X-0.450000X0.350000X-0.450000X0.350000X0.450000X-0.350000X0.450000X0*%
%ADD23RoundRect,0.250000X0.450000X-0.350000X0.450000X0.350000X-0.450000X0.350000X-0.450000X-0.350000X0*%
%ADD24RoundRect,0.250000X0.475000X-0.337500X0.475000X0.337500X-0.475000X0.337500X-0.475000X-0.337500X0*%
%ADD25R,1.900000X0.800000*%
%ADD26RoundRect,0.250000X-0.450000X0.350000X-0.450000X-0.350000X0.450000X-0.350000X0.450000X0.350000X0*%
%ADD27RoundRect,0.250000X0.350000X0.450000X-0.350000X0.450000X-0.350000X-0.450000X0.350000X-0.450000X0*%
%ADD28R,0.800000X1.900000*%
G04 APERTURE END LIST*
D10*
X34842268Y-3292200D02*
X34937506Y-3339819D01*
X34937506Y-3339819D02*
X35127982Y-3339819D01*
X35127982Y-3339819D02*
X35223220Y-3292200D01*
X35223220Y-3292200D02*
X35270839Y-3196961D01*
X35270839Y-3196961D02*
X35270839Y-2816009D01*
X35270839Y-2816009D02*
X35223220Y-2720771D01*
X35223220Y-2720771D02*
X35127982Y-2673152D01*
X35127982Y-2673152D02*
X34937506Y-2673152D01*
X34937506Y-2673152D02*
X34842268Y-2720771D01*
X34842268Y-2720771D02*
X34794649Y-2816009D01*
X34794649Y-2816009D02*
X34794649Y-2911247D01*
X34794649Y-2911247D02*
X35270839Y-3006485D01*
X34413696Y-3292200D02*
X34318458Y-3339819D01*
X34318458Y-3339819D02*
X34127982Y-3339819D01*
X34127982Y-3339819D02*
X34032744Y-3292200D01*
X34032744Y-3292200D02*
X33985125Y-3196961D01*
X33985125Y-3196961D02*
X33985125Y-3149342D01*
X33985125Y-3149342D02*
X34032744Y-3054104D01*
X34032744Y-3054104D02*
X34127982Y-3006485D01*
X34127982Y-3006485D02*
X34270839Y-3006485D01*
X34270839Y-3006485D02*
X34366077Y-2958866D01*
X34366077Y-2958866D02*
X34413696Y-2863628D01*
X34413696Y-2863628D02*
X34413696Y-2816009D01*
X34413696Y-2816009D02*
X34366077Y-2720771D01*
X34366077Y-2720771D02*
X34270839Y-2673152D01*
X34270839Y-2673152D02*
X34127982Y-2673152D01*
X34127982Y-2673152D02*
X34032744Y-2720771D01*
X33556553Y-2673152D02*
X33556553Y-3673152D01*
X33556553Y-2720771D02*
X33461315Y-2673152D01*
X33461315Y-2673152D02*
X33270839Y-2673152D01*
X33270839Y-2673152D02*
X33175601Y-2720771D01*
X33175601Y-2720771D02*
X33127982Y-2768390D01*
X33127982Y-2768390D02*
X33080363Y-2863628D01*
X33080363Y-2863628D02*
X33080363Y-3149342D01*
X33080363Y-3149342D02*
X33127982Y-3244580D01*
X33127982Y-3244580D02*
X33175601Y-3292200D01*
X33175601Y-3292200D02*
X33270839Y-3339819D01*
X33270839Y-3339819D02*
X33461315Y-3339819D01*
X33461315Y-3339819D02*
X33556553Y-3292200D01*
X32651791Y-2958866D02*
X31889887Y-2958866D01*
X31461315Y-3292200D02*
X31366077Y-3339819D01*
X31366077Y-3339819D02*
X31175601Y-3339819D01*
X31175601Y-3339819D02*
X31080363Y-3292200D01*
X31080363Y-3292200D02*
X31032744Y-3196961D01*
X31032744Y-3196961D02*
X31032744Y-3149342D01*
X31032744Y-3149342D02*
X31080363Y-3054104D01*
X31080363Y-3054104D02*
X31175601Y-3006485D01*
X31175601Y-3006485D02*
X31318458Y-3006485D01*
X31318458Y-3006485D02*
X31413696Y-2958866D01*
X31413696Y-2958866D02*
X31461315Y-2863628D01*
X31461315Y-2863628D02*
X31461315Y-2816009D01*
X31461315Y-2816009D02*
X31413696Y-2720771D01*
X31413696Y-2720771D02*
X31318458Y-2673152D01*
X31318458Y-2673152D02*
X31175601Y-2673152D01*
X31175601Y-2673152D02*
X31080363Y-2720771D01*
X30699410Y-2673152D02*
X30508934Y-3339819D01*
X30508934Y-3339819D02*
X30318458Y-2863628D01*
X30318458Y-2863628D02*
X30127982Y-3339819D01*
X30127982Y-3339819D02*
X29937506Y-2673152D01*
X29556553Y-3339819D02*
X29556553Y-2673152D01*
X29556553Y-2339819D02*
X29604172Y-2387438D01*
X29604172Y-2387438D02*
X29556553Y-2435057D01*
X29556553Y-2435057D02*
X29508934Y-2387438D01*
X29508934Y-2387438D02*
X29556553Y-2339819D01*
X29556553Y-2339819D02*
X29556553Y-2435057D01*
X29223220Y-2673152D02*
X28842268Y-2673152D01*
X29080363Y-2339819D02*
X29080363Y-3196961D01*
X29080363Y-3196961D02*
X29032744Y-3292200D01*
X29032744Y-3292200D02*
X28937506Y-3339819D01*
X28937506Y-3339819D02*
X28842268Y-3339819D01*
X28080363Y-3292200D02*
X28175601Y-3339819D01*
X28175601Y-3339819D02*
X28366077Y-3339819D01*
X28366077Y-3339819D02*
X28461315Y-3292200D01*
X28461315Y-3292200D02*
X28508934Y-3244580D01*
X28508934Y-3244580D02*
X28556553Y-3149342D01*
X28556553Y-3149342D02*
X28556553Y-2863628D01*
X28556553Y-2863628D02*
X28508934Y-2768390D01*
X28508934Y-2768390D02*
X28461315Y-2720771D01*
X28461315Y-2720771D02*
X28366077Y-2673152D01*
X28366077Y-2673152D02*
X28175601Y-2673152D01*
X28175601Y-2673152D02*
X28080363Y-2720771D01*
X27651791Y-3339819D02*
X27651791Y-2339819D01*
X27223220Y-3339819D02*
X27223220Y-2816009D01*
X27223220Y-2816009D02*
X27270839Y-2720771D01*
X27270839Y-2720771D02*
X27366077Y-2673152D01*
X27366077Y-2673152D02*
X27508934Y-2673152D01*
X27508934Y-2673152D02*
X27604172Y-2720771D01*
X27604172Y-2720771D02*
X27651791Y-2768390D01*
X26747029Y-2958866D02*
X25985125Y-2958866D01*
X25366077Y-2768390D02*
X25461315Y-2720771D01*
X25461315Y-2720771D02*
X25508934Y-2673152D01*
X25508934Y-2673152D02*
X25556553Y-2577914D01*
X25556553Y-2577914D02*
X25556553Y-2530295D01*
X25556553Y-2530295D02*
X25508934Y-2435057D01*
X25508934Y-2435057D02*
X25461315Y-2387438D01*
X25461315Y-2387438D02*
X25366077Y-2339819D01*
X25366077Y-2339819D02*
X25175601Y-2339819D01*
X25175601Y-2339819D02*
X25080363Y-2387438D01*
X25080363Y-2387438D02*
X25032744Y-2435057D01*
X25032744Y-2435057D02*
X24985125Y-2530295D01*
X24985125Y-2530295D02*
X24985125Y-2577914D01*
X24985125Y-2577914D02*
X25032744Y-2673152D01*
X25032744Y-2673152D02*
X25080363Y-2720771D01*
X25080363Y-2720771D02*
X25175601Y-2768390D01*
X25175601Y-2768390D02*
X25366077Y-2768390D01*
X25366077Y-2768390D02*
X25461315Y-2816009D01*
X25461315Y-2816009D02*
X25508934Y-2863628D01*
X25508934Y-2863628D02*
X25556553Y-2958866D01*
X25556553Y-2958866D02*
X25556553Y-3149342D01*
X25556553Y-3149342D02*
X25508934Y-3244580D01*
X25508934Y-3244580D02*
X25461315Y-3292200D01*
X25461315Y-3292200D02*
X25366077Y-3339819D01*
X25366077Y-3339819D02*
X25175601Y-3339819D01*
X25175601Y-3339819D02*
X25080363Y-3292200D01*
X25080363Y-3292200D02*
X25032744Y-3244580D01*
X25032744Y-3244580D02*
X24985125Y-3149342D01*
X24985125Y-3149342D02*
X24985125Y-2958866D01*
X24985125Y-2958866D02*
X25032744Y-2863628D01*
X25032744Y-2863628D02*
X25080363Y-2816009D01*
X25080363Y-2816009D02*
X25175601Y-2768390D01*
X24699410Y-2673152D02*
X24318458Y-2673152D01*
X24556553Y-3339819D02*
X24556553Y-2482676D01*
X24556553Y-2482676D02*
X24508934Y-2387438D01*
X24508934Y-2387438D02*
X24413696Y-2339819D01*
X24413696Y-2339819D02*
X24318458Y-2339819D01*
X24032743Y-2435057D02*
X23985124Y-2387438D01*
X23985124Y-2387438D02*
X23889886Y-2339819D01*
X23889886Y-2339819D02*
X23651791Y-2339819D01*
X23651791Y-2339819D02*
X23556553Y-2387438D01*
X23556553Y-2387438D02*
X23508934Y-2435057D01*
X23508934Y-2435057D02*
X23461315Y-2530295D01*
X23461315Y-2530295D02*
X23461315Y-2625533D01*
X23461315Y-2625533D02*
X23508934Y-2768390D01*
X23508934Y-2768390D02*
X24080362Y-3339819D01*
X24080362Y-3339819D02*
X23461315Y-3339819D01*
X22889886Y-3339819D02*
X22985124Y-3292200D01*
X22985124Y-3292200D02*
X23032743Y-3244580D01*
X23032743Y-3244580D02*
X23080362Y-3149342D01*
X23080362Y-3149342D02*
X23080362Y-2863628D01*
X23080362Y-2863628D02*
X23032743Y-2768390D01*
X23032743Y-2768390D02*
X22985124Y-2720771D01*
X22985124Y-2720771D02*
X22889886Y-2673152D01*
X22889886Y-2673152D02*
X22747029Y-2673152D01*
X22747029Y-2673152D02*
X22651791Y-2720771D01*
X22651791Y-2720771D02*
X22604172Y-2768390D01*
X22604172Y-2768390D02*
X22556553Y-2863628D01*
X22556553Y-2863628D02*
X22556553Y-3149342D01*
X22556553Y-3149342D02*
X22604172Y-3244580D01*
X22604172Y-3244580D02*
X22651791Y-3292200D01*
X22651791Y-3292200D02*
X22747029Y-3339819D01*
X22747029Y-3339819D02*
X22889886Y-3339819D01*
X35318458Y-4283152D02*
X35080363Y-4949819D01*
X35080363Y-4949819D02*
X34842268Y-4283152D01*
X34270839Y-3949819D02*
X34175601Y-3949819D01*
X34175601Y-3949819D02*
X34080363Y-3997438D01*
X34080363Y-3997438D02*
X34032744Y-4045057D01*
X34032744Y-4045057D02*
X33985125Y-4140295D01*
X33985125Y-4140295D02*
X33937506Y-4330771D01*
X33937506Y-4330771D02*
X33937506Y-4568866D01*
X33937506Y-4568866D02*
X33985125Y-4759342D01*
X33985125Y-4759342D02*
X34032744Y-4854580D01*
X34032744Y-4854580D02*
X34080363Y-4902200D01*
X34080363Y-4902200D02*
X34175601Y-4949819D01*
X34175601Y-4949819D02*
X34270839Y-4949819D01*
X34270839Y-4949819D02*
X34366077Y-4902200D01*
X34366077Y-4902200D02*
X34413696Y-4854580D01*
X34413696Y-4854580D02*
X34461315Y-4759342D01*
X34461315Y-4759342D02*
X34508934Y-4568866D01*
X34508934Y-4568866D02*
X34508934Y-4330771D01*
X34508934Y-4330771D02*
X34461315Y-4140295D01*
X34461315Y-4140295D02*
X34413696Y-4045057D01*
X34413696Y-4045057D02*
X34366077Y-3997438D01*
X34366077Y-3997438D02*
X34270839Y-3949819D01*
X33508934Y-4854580D02*
X33461315Y-4902200D01*
X33461315Y-4902200D02*
X33508934Y-4949819D01*
X33508934Y-4949819D02*
X33556553Y-4902200D01*
X33556553Y-4902200D02*
X33508934Y-4854580D01*
X33508934Y-4854580D02*
X33508934Y-4949819D01*
X33080363Y-4045057D02*
X33032744Y-3997438D01*
X33032744Y-3997438D02*
X32937506Y-3949819D01*
X32937506Y-3949819D02*
X32699411Y-3949819D01*
X32699411Y-3949819D02*
X32604173Y-3997438D01*
X32604173Y-3997438D02*
X32556554Y-4045057D01*
X32556554Y-4045057D02*
X32508935Y-4140295D01*
X32508935Y-4140295D02*
X32508935Y-4235533D01*
X32508935Y-4235533D02*
X32556554Y-4378390D01*
X32556554Y-4378390D02*
X33127982Y-4949819D01*
X33127982Y-4949819D02*
X32508935Y-4949819D01*
X3961466Y-11538419D02*
X4294799Y-11062228D01*
X4532894Y-11538419D02*
X4532894Y-10538419D01*
X4532894Y-10538419D02*
X4151942Y-10538419D01*
X4151942Y-10538419D02*
X4056704Y-10586038D01*
X4056704Y-10586038D02*
X4009085Y-10633657D01*
X4009085Y-10633657D02*
X3961466Y-10728895D01*
X3961466Y-10728895D02*
X3961466Y-10871752D01*
X3961466Y-10871752D02*
X4009085Y-10966990D01*
X4009085Y-10966990D02*
X4056704Y-11014609D01*
X4056704Y-11014609D02*
X4151942Y-11062228D01*
X4151942Y-11062228D02*
X4532894Y-11062228D01*
X3628132Y-10538419D02*
X3009085Y-10538419D01*
X3009085Y-10538419D02*
X3342418Y-10919371D01*
X3342418Y-10919371D02*
X3199561Y-10919371D01*
X3199561Y-10919371D02*
X3104323Y-10966990D01*
X3104323Y-10966990D02*
X3056704Y-11014609D01*
X3056704Y-11014609D02*
X3009085Y-11109847D01*
X3009085Y-11109847D02*
X3009085Y-11347942D01*
X3009085Y-11347942D02*
X3056704Y-11443180D01*
X3056704Y-11443180D02*
X3104323Y-11490800D01*
X3104323Y-11490800D02*
X3199561Y-11538419D01*
X3199561Y-11538419D02*
X3485275Y-11538419D01*
X3485275Y-11538419D02*
X3580513Y-11490800D01*
X3580513Y-11490800D02*
X3628132Y-11443180D01*
X35252819Y-30599142D02*
X34776628Y-30265809D01*
X35252819Y-30027714D02*
X34252819Y-30027714D01*
X34252819Y-30027714D02*
X34252819Y-30408666D01*
X34252819Y-30408666D02*
X34300438Y-30503904D01*
X34300438Y-30503904D02*
X34348057Y-30551523D01*
X34348057Y-30551523D02*
X34443295Y-30599142D01*
X34443295Y-30599142D02*
X34586152Y-30599142D01*
X34586152Y-30599142D02*
X34681390Y-30551523D01*
X34681390Y-30551523D02*
X34729009Y-30503904D01*
X34729009Y-30503904D02*
X34776628Y-30408666D01*
X34776628Y-30408666D02*
X34776628Y-30027714D01*
X35252819Y-31551523D02*
X35252819Y-30980095D01*
X35252819Y-31265809D02*
X34252819Y-31265809D01*
X34252819Y-31265809D02*
X34395676Y-31170571D01*
X34395676Y-31170571D02*
X34490914Y-31075333D01*
X34490914Y-31075333D02*
X34538533Y-30980095D01*
X34586152Y-32408666D02*
X35252819Y-32408666D01*
X34205200Y-32170571D02*
X34919485Y-31932476D01*
X34919485Y-31932476D02*
X34919485Y-32551523D01*
X60506780Y-46010533D02*
X60554400Y-45962914D01*
X60554400Y-45962914D02*
X60602019Y-45820057D01*
X60602019Y-45820057D02*
X60602019Y-45724819D01*
X60602019Y-45724819D02*
X60554400Y-45581962D01*
X60554400Y-45581962D02*
X60459161Y-45486724D01*
X60459161Y-45486724D02*
X60363923Y-45439105D01*
X60363923Y-45439105D02*
X60173447Y-45391486D01*
X60173447Y-45391486D02*
X60030590Y-45391486D01*
X60030590Y-45391486D02*
X59840114Y-45439105D01*
X59840114Y-45439105D02*
X59744876Y-45486724D01*
X59744876Y-45486724D02*
X59649638Y-45581962D01*
X59649638Y-45581962D02*
X59602019Y-45724819D01*
X59602019Y-45724819D02*
X59602019Y-45820057D01*
X59602019Y-45820057D02*
X59649638Y-45962914D01*
X59649638Y-45962914D02*
X59697257Y-46010533D01*
X60602019Y-46486724D02*
X60602019Y-46677200D01*
X60602019Y-46677200D02*
X60554400Y-46772438D01*
X60554400Y-46772438D02*
X60506780Y-46820057D01*
X60506780Y-46820057D02*
X60363923Y-46915295D01*
X60363923Y-46915295D02*
X60173447Y-46962914D01*
X60173447Y-46962914D02*
X59792495Y-46962914D01*
X59792495Y-46962914D02*
X59697257Y-46915295D01*
X59697257Y-46915295D02*
X59649638Y-46867676D01*
X59649638Y-46867676D02*
X59602019Y-46772438D01*
X59602019Y-46772438D02*
X59602019Y-46581962D01*
X59602019Y-46581962D02*
X59649638Y-46486724D01*
X59649638Y-46486724D02*
X59697257Y-46439105D01*
X59697257Y-46439105D02*
X59792495Y-46391486D01*
X59792495Y-46391486D02*
X60030590Y-46391486D01*
X60030590Y-46391486D02*
X60125828Y-46439105D01*
X60125828Y-46439105D02*
X60173447Y-46486724D01*
X60173447Y-46486724D02*
X60221066Y-46581962D01*
X60221066Y-46581962D02*
X60221066Y-46772438D01*
X60221066Y-46772438D02*
X60173447Y-46867676D01*
X60173447Y-46867676D02*
X60125828Y-46915295D01*
X60125828Y-46915295D02*
X60030590Y-46962914D01*
X14195238Y-16250057D02*
X14290476Y-16202438D01*
X14290476Y-16202438D02*
X14385714Y-16107200D01*
X14385714Y-16107200D02*
X14528571Y-15964342D01*
X14528571Y-15964342D02*
X14623809Y-15916723D01*
X14623809Y-15916723D02*
X14719047Y-15916723D01*
X14671428Y-16154819D02*
X14766666Y-16107200D01*
X14766666Y-16107200D02*
X14861904Y-16011961D01*
X14861904Y-16011961D02*
X14909523Y-15821485D01*
X14909523Y-15821485D02*
X14909523Y-15488152D01*
X14909523Y-15488152D02*
X14861904Y-15297676D01*
X14861904Y-15297676D02*
X14766666Y-15202438D01*
X14766666Y-15202438D02*
X14671428Y-15154819D01*
X14671428Y-15154819D02*
X14480952Y-15154819D01*
X14480952Y-15154819D02*
X14385714Y-15202438D01*
X14385714Y-15202438D02*
X14290476Y-15297676D01*
X14290476Y-15297676D02*
X14242857Y-15488152D01*
X14242857Y-15488152D02*
X14242857Y-15821485D01*
X14242857Y-15821485D02*
X14290476Y-16011961D01*
X14290476Y-16011961D02*
X14385714Y-16107200D01*
X14385714Y-16107200D02*
X14480952Y-16154819D01*
X14480952Y-16154819D02*
X14671428Y-16154819D01*
X13338095Y-15154819D02*
X13814285Y-15154819D01*
X13814285Y-15154819D02*
X13861904Y-15631009D01*
X13861904Y-15631009D02*
X13814285Y-15583390D01*
X13814285Y-15583390D02*
X13719047Y-15535771D01*
X13719047Y-15535771D02*
X13480952Y-15535771D01*
X13480952Y-15535771D02*
X13385714Y-15583390D01*
X13385714Y-15583390D02*
X13338095Y-15631009D01*
X13338095Y-15631009D02*
X13290476Y-15726247D01*
X13290476Y-15726247D02*
X13290476Y-15964342D01*
X13290476Y-15964342D02*
X13338095Y-16059580D01*
X13338095Y-16059580D02*
X13385714Y-16107200D01*
X13385714Y-16107200D02*
X13480952Y-16154819D01*
X13480952Y-16154819D02*
X13719047Y-16154819D01*
X13719047Y-16154819D02*
X13814285Y-16107200D01*
X13814285Y-16107200D02*
X13861904Y-16059580D01*
X50492819Y-46728142D02*
X50016628Y-46394809D01*
X50492819Y-46156714D02*
X49492819Y-46156714D01*
X49492819Y-46156714D02*
X49492819Y-46537666D01*
X49492819Y-46537666D02*
X49540438Y-46632904D01*
X49540438Y-46632904D02*
X49588057Y-46680523D01*
X49588057Y-46680523D02*
X49683295Y-46728142D01*
X49683295Y-46728142D02*
X49826152Y-46728142D01*
X49826152Y-46728142D02*
X49921390Y-46680523D01*
X49921390Y-46680523D02*
X49969009Y-46632904D01*
X49969009Y-46632904D02*
X50016628Y-46537666D01*
X50016628Y-46537666D02*
X50016628Y-46156714D01*
X49588057Y-47109095D02*
X49540438Y-47156714D01*
X49540438Y-47156714D02*
X49492819Y-47251952D01*
X49492819Y-47251952D02*
X49492819Y-47490047D01*
X49492819Y-47490047D02*
X49540438Y-47585285D01*
X49540438Y-47585285D02*
X49588057Y-47632904D01*
X49588057Y-47632904D02*
X49683295Y-47680523D01*
X49683295Y-47680523D02*
X49778533Y-47680523D01*
X49778533Y-47680523D02*
X49921390Y-47632904D01*
X49921390Y-47632904D02*
X50492819Y-47061476D01*
X50492819Y-47061476D02*
X50492819Y-47680523D01*
X49492819Y-48013857D02*
X49492819Y-48632904D01*
X49492819Y-48632904D02*
X49873771Y-48299571D01*
X49873771Y-48299571D02*
X49873771Y-48442428D01*
X49873771Y-48442428D02*
X49921390Y-48537666D01*
X49921390Y-48537666D02*
X49969009Y-48585285D01*
X49969009Y-48585285D02*
X50064247Y-48632904D01*
X50064247Y-48632904D02*
X50302342Y-48632904D01*
X50302342Y-48632904D02*
X50397580Y-48585285D01*
X50397580Y-48585285D02*
X50445200Y-48537666D01*
X50445200Y-48537666D02*
X50492819Y-48442428D01*
X50492819Y-48442428D02*
X50492819Y-48156714D01*
X50492819Y-48156714D02*
X50445200Y-48061476D01*
X50445200Y-48061476D02*
X50397580Y-48013857D01*
X19818819Y-5863333D02*
X19342628Y-5530000D01*
X19818819Y-5291905D02*
X18818819Y-5291905D01*
X18818819Y-5291905D02*
X18818819Y-5672857D01*
X18818819Y-5672857D02*
X18866438Y-5768095D01*
X18866438Y-5768095D02*
X18914057Y-5815714D01*
X18914057Y-5815714D02*
X19009295Y-5863333D01*
X19009295Y-5863333D02*
X19152152Y-5863333D01*
X19152152Y-5863333D02*
X19247390Y-5815714D01*
X19247390Y-5815714D02*
X19295009Y-5768095D01*
X19295009Y-5768095D02*
X19342628Y-5672857D01*
X19342628Y-5672857D02*
X19342628Y-5291905D01*
X18818819Y-6768095D02*
X18818819Y-6291905D01*
X18818819Y-6291905D02*
X19295009Y-6244286D01*
X19295009Y-6244286D02*
X19247390Y-6291905D01*
X19247390Y-6291905D02*
X19199771Y-6387143D01*
X19199771Y-6387143D02*
X19199771Y-6625238D01*
X19199771Y-6625238D02*
X19247390Y-6720476D01*
X19247390Y-6720476D02*
X19295009Y-6768095D01*
X19295009Y-6768095D02*
X19390247Y-6815714D01*
X19390247Y-6815714D02*
X19628342Y-6815714D01*
X19628342Y-6815714D02*
X19723580Y-6768095D01*
X19723580Y-6768095D02*
X19771200Y-6720476D01*
X19771200Y-6720476D02*
X19818819Y-6625238D01*
X19818819Y-6625238D02*
X19818819Y-6387143D01*
X19818819Y-6387143D02*
X19771200Y-6291905D01*
X19771200Y-6291905D02*
X19723580Y-6244286D01*
X17305257Y-19669819D02*
X17638590Y-19193628D01*
X17876685Y-19669819D02*
X17876685Y-18669819D01*
X17876685Y-18669819D02*
X17495733Y-18669819D01*
X17495733Y-18669819D02*
X17400495Y-18717438D01*
X17400495Y-18717438D02*
X17352876Y-18765057D01*
X17352876Y-18765057D02*
X17305257Y-18860295D01*
X17305257Y-18860295D02*
X17305257Y-19003152D01*
X17305257Y-19003152D02*
X17352876Y-19098390D01*
X17352876Y-19098390D02*
X17400495Y-19146009D01*
X17400495Y-19146009D02*
X17495733Y-19193628D01*
X17495733Y-19193628D02*
X17876685Y-19193628D01*
X16352876Y-19669819D02*
X16924304Y-19669819D01*
X16638590Y-19669819D02*
X16638590Y-18669819D01*
X16638590Y-18669819D02*
X16733828Y-18812676D01*
X16733828Y-18812676D02*
X16829066Y-18907914D01*
X16829066Y-18907914D02*
X16924304Y-18955533D01*
X15971923Y-18765057D02*
X15924304Y-18717438D01*
X15924304Y-18717438D02*
X15829066Y-18669819D01*
X15829066Y-18669819D02*
X15590971Y-18669819D01*
X15590971Y-18669819D02*
X15495733Y-18717438D01*
X15495733Y-18717438D02*
X15448114Y-18765057D01*
X15448114Y-18765057D02*
X15400495Y-18860295D01*
X15400495Y-18860295D02*
X15400495Y-18955533D01*
X15400495Y-18955533D02*
X15448114Y-19098390D01*
X15448114Y-19098390D02*
X16019542Y-19669819D01*
X16019542Y-19669819D02*
X15400495Y-19669819D01*
X21842857Y-12154819D02*
X22176190Y-11678628D01*
X22414285Y-12154819D02*
X22414285Y-11154819D01*
X22414285Y-11154819D02*
X22033333Y-11154819D01*
X22033333Y-11154819D02*
X21938095Y-11202438D01*
X21938095Y-11202438D02*
X21890476Y-11250057D01*
X21890476Y-11250057D02*
X21842857Y-11345295D01*
X21842857Y-11345295D02*
X21842857Y-11488152D01*
X21842857Y-11488152D02*
X21890476Y-11583390D01*
X21890476Y-11583390D02*
X21938095Y-11631009D01*
X21938095Y-11631009D02*
X22033333Y-11678628D01*
X22033333Y-11678628D02*
X22414285Y-11678628D01*
X20890476Y-12154819D02*
X21461904Y-12154819D01*
X21176190Y-12154819D02*
X21176190Y-11154819D01*
X21176190Y-11154819D02*
X21271428Y-11297676D01*
X21271428Y-11297676D02*
X21366666Y-11392914D01*
X21366666Y-11392914D02*
X21461904Y-11440533D01*
X19938095Y-12154819D02*
X20509523Y-12154819D01*
X20223809Y-12154819D02*
X20223809Y-11154819D01*
X20223809Y-11154819D02*
X20319047Y-11297676D01*
X20319047Y-11297676D02*
X20414285Y-11392914D01*
X20414285Y-11392914D02*
X20509523Y-11440533D01*
X40332819Y-30599143D02*
X39856628Y-30265810D01*
X40332819Y-30027715D02*
X39332819Y-30027715D01*
X39332819Y-30027715D02*
X39332819Y-30408667D01*
X39332819Y-30408667D02*
X39380438Y-30503905D01*
X39380438Y-30503905D02*
X39428057Y-30551524D01*
X39428057Y-30551524D02*
X39523295Y-30599143D01*
X39523295Y-30599143D02*
X39666152Y-30599143D01*
X39666152Y-30599143D02*
X39761390Y-30551524D01*
X39761390Y-30551524D02*
X39809009Y-30503905D01*
X39809009Y-30503905D02*
X39856628Y-30408667D01*
X39856628Y-30408667D02*
X39856628Y-30027715D01*
X40332819Y-31075334D02*
X40332819Y-31265810D01*
X40332819Y-31265810D02*
X40285200Y-31361048D01*
X40285200Y-31361048D02*
X40237580Y-31408667D01*
X40237580Y-31408667D02*
X40094723Y-31503905D01*
X40094723Y-31503905D02*
X39904247Y-31551524D01*
X39904247Y-31551524D02*
X39523295Y-31551524D01*
X39523295Y-31551524D02*
X39428057Y-31503905D01*
X39428057Y-31503905D02*
X39380438Y-31456286D01*
X39380438Y-31456286D02*
X39332819Y-31361048D01*
X39332819Y-31361048D02*
X39332819Y-31170572D01*
X39332819Y-31170572D02*
X39380438Y-31075334D01*
X39380438Y-31075334D02*
X39428057Y-31027715D01*
X39428057Y-31027715D02*
X39523295Y-30980096D01*
X39523295Y-30980096D02*
X39761390Y-30980096D01*
X39761390Y-30980096D02*
X39856628Y-31027715D01*
X39856628Y-31027715D02*
X39904247Y-31075334D01*
X39904247Y-31075334D02*
X39951866Y-31170572D01*
X39951866Y-31170572D02*
X39951866Y-31361048D01*
X39951866Y-31361048D02*
X39904247Y-31456286D01*
X39904247Y-31456286D02*
X39856628Y-31503905D01*
X39856628Y-31503905D02*
X39761390Y-31551524D01*
X19818819Y-1799333D02*
X19342628Y-1466000D01*
X19818819Y-1227905D02*
X18818819Y-1227905D01*
X18818819Y-1227905D02*
X18818819Y-1608857D01*
X18818819Y-1608857D02*
X18866438Y-1704095D01*
X18866438Y-1704095D02*
X18914057Y-1751714D01*
X18914057Y-1751714D02*
X19009295Y-1799333D01*
X19009295Y-1799333D02*
X19152152Y-1799333D01*
X19152152Y-1799333D02*
X19247390Y-1751714D01*
X19247390Y-1751714D02*
X19295009Y-1704095D01*
X19295009Y-1704095D02*
X19342628Y-1608857D01*
X19342628Y-1608857D02*
X19342628Y-1227905D01*
X19152152Y-2656476D02*
X19818819Y-2656476D01*
X18771200Y-2418381D02*
X19485485Y-2180286D01*
X19485485Y-2180286D02*
X19485485Y-2799333D01*
X11895238Y-7950057D02*
X11990476Y-7902438D01*
X11990476Y-7902438D02*
X12085714Y-7807200D01*
X12085714Y-7807200D02*
X12228571Y-7664342D01*
X12228571Y-7664342D02*
X12323809Y-7616723D01*
X12323809Y-7616723D02*
X12419047Y-7616723D01*
X12371428Y-7854819D02*
X12466666Y-7807200D01*
X12466666Y-7807200D02*
X12561904Y-7711961D01*
X12561904Y-7711961D02*
X12609523Y-7521485D01*
X12609523Y-7521485D02*
X12609523Y-7188152D01*
X12609523Y-7188152D02*
X12561904Y-6997676D01*
X12561904Y-6997676D02*
X12466666Y-6902438D01*
X12466666Y-6902438D02*
X12371428Y-6854819D01*
X12371428Y-6854819D02*
X12180952Y-6854819D01*
X12180952Y-6854819D02*
X12085714Y-6902438D01*
X12085714Y-6902438D02*
X11990476Y-6997676D01*
X11990476Y-6997676D02*
X11942857Y-7188152D01*
X11942857Y-7188152D02*
X11942857Y-7521485D01*
X11942857Y-7521485D02*
X11990476Y-7711961D01*
X11990476Y-7711961D02*
X12085714Y-7807200D01*
X12085714Y-7807200D02*
X12180952Y-7854819D01*
X12180952Y-7854819D02*
X12371428Y-7854819D01*
X11609523Y-6854819D02*
X10990476Y-6854819D01*
X10990476Y-6854819D02*
X11323809Y-7235771D01*
X11323809Y-7235771D02*
X11180952Y-7235771D01*
X11180952Y-7235771D02*
X11085714Y-7283390D01*
X11085714Y-7283390D02*
X11038095Y-7331009D01*
X11038095Y-7331009D02*
X10990476Y-7426247D01*
X10990476Y-7426247D02*
X10990476Y-7664342D01*
X10990476Y-7664342D02*
X11038095Y-7759580D01*
X11038095Y-7759580D02*
X11085714Y-7807200D01*
X11085714Y-7807200D02*
X11180952Y-7854819D01*
X11180952Y-7854819D02*
X11466666Y-7854819D01*
X11466666Y-7854819D02*
X11561904Y-7807200D01*
X11561904Y-7807200D02*
X11609523Y-7759580D01*
X25280438Y-24207857D02*
X25375676Y-24160238D01*
X25375676Y-24160238D02*
X25470914Y-24065000D01*
X25470914Y-24065000D02*
X25613771Y-23922142D01*
X25613771Y-23922142D02*
X25709009Y-23874523D01*
X25709009Y-23874523D02*
X25804247Y-23874523D01*
X25756628Y-24112619D02*
X25851866Y-24065000D01*
X25851866Y-24065000D02*
X25947104Y-23969761D01*
X25947104Y-23969761D02*
X25994723Y-23779285D01*
X25994723Y-23779285D02*
X25994723Y-23445952D01*
X25994723Y-23445952D02*
X25947104Y-23255476D01*
X25947104Y-23255476D02*
X25851866Y-23160238D01*
X25851866Y-23160238D02*
X25756628Y-23112619D01*
X25756628Y-23112619D02*
X25566152Y-23112619D01*
X25566152Y-23112619D02*
X25470914Y-23160238D01*
X25470914Y-23160238D02*
X25375676Y-23255476D01*
X25375676Y-23255476D02*
X25328057Y-23445952D01*
X25328057Y-23445952D02*
X25328057Y-23779285D01*
X25328057Y-23779285D02*
X25375676Y-23969761D01*
X25375676Y-23969761D02*
X25470914Y-24065000D01*
X25470914Y-24065000D02*
X25566152Y-24112619D01*
X25566152Y-24112619D02*
X25756628Y-24112619D01*
X24994723Y-23112619D02*
X24328057Y-23112619D01*
X24328057Y-23112619D02*
X24756628Y-24112619D01*
X19818819Y-10079733D02*
X19342628Y-9746400D01*
X19818819Y-9508305D02*
X18818819Y-9508305D01*
X18818819Y-9508305D02*
X18818819Y-9889257D01*
X18818819Y-9889257D02*
X18866438Y-9984495D01*
X18866438Y-9984495D02*
X18914057Y-10032114D01*
X18914057Y-10032114D02*
X19009295Y-10079733D01*
X19009295Y-10079733D02*
X19152152Y-10079733D01*
X19152152Y-10079733D02*
X19247390Y-10032114D01*
X19247390Y-10032114D02*
X19295009Y-9984495D01*
X19295009Y-9984495D02*
X19342628Y-9889257D01*
X19342628Y-9889257D02*
X19342628Y-9508305D01*
X18818819Y-10936876D02*
X18818819Y-10746400D01*
X18818819Y-10746400D02*
X18866438Y-10651162D01*
X18866438Y-10651162D02*
X18914057Y-10603543D01*
X18914057Y-10603543D02*
X19056914Y-10508305D01*
X19056914Y-10508305D02*
X19247390Y-10460686D01*
X19247390Y-10460686D02*
X19628342Y-10460686D01*
X19628342Y-10460686D02*
X19723580Y-10508305D01*
X19723580Y-10508305D02*
X19771200Y-10555924D01*
X19771200Y-10555924D02*
X19818819Y-10651162D01*
X19818819Y-10651162D02*
X19818819Y-10841638D01*
X19818819Y-10841638D02*
X19771200Y-10936876D01*
X19771200Y-10936876D02*
X19723580Y-10984495D01*
X19723580Y-10984495D02*
X19628342Y-11032114D01*
X19628342Y-11032114D02*
X19390247Y-11032114D01*
X19390247Y-11032114D02*
X19295009Y-10984495D01*
X19295009Y-10984495D02*
X19247390Y-10936876D01*
X19247390Y-10936876D02*
X19199771Y-10841638D01*
X19199771Y-10841638D02*
X19199771Y-10651162D01*
X19199771Y-10651162D02*
X19247390Y-10555924D01*
X19247390Y-10555924D02*
X19295009Y-10508305D01*
X19295009Y-10508305D02*
X19390247Y-10460686D01*
X58157257Y-41611561D02*
X58109638Y-41516323D01*
X58109638Y-41516323D02*
X58014400Y-41421085D01*
X58014400Y-41421085D02*
X57871542Y-41278228D01*
X57871542Y-41278228D02*
X57823923Y-41182990D01*
X57823923Y-41182990D02*
X57823923Y-41087752D01*
X58062019Y-41135371D02*
X58014400Y-41040133D01*
X58014400Y-41040133D02*
X57919161Y-40944895D01*
X57919161Y-40944895D02*
X57728685Y-40897276D01*
X57728685Y-40897276D02*
X57395352Y-40897276D01*
X57395352Y-40897276D02*
X57204876Y-40944895D01*
X57204876Y-40944895D02*
X57109638Y-41040133D01*
X57109638Y-41040133D02*
X57062019Y-41135371D01*
X57062019Y-41135371D02*
X57062019Y-41325847D01*
X57062019Y-41325847D02*
X57109638Y-41421085D01*
X57109638Y-41421085D02*
X57204876Y-41516323D01*
X57204876Y-41516323D02*
X57395352Y-41563942D01*
X57395352Y-41563942D02*
X57728685Y-41563942D01*
X57728685Y-41563942D02*
X57919161Y-41516323D01*
X57919161Y-41516323D02*
X58014400Y-41421085D01*
X58014400Y-41421085D02*
X58062019Y-41325847D01*
X58062019Y-41325847D02*
X58062019Y-41135371D01*
X58062019Y-42040133D02*
X58062019Y-42230609D01*
X58062019Y-42230609D02*
X58014400Y-42325847D01*
X58014400Y-42325847D02*
X57966780Y-42373466D01*
X57966780Y-42373466D02*
X57823923Y-42468704D01*
X57823923Y-42468704D02*
X57633447Y-42516323D01*
X57633447Y-42516323D02*
X57252495Y-42516323D01*
X57252495Y-42516323D02*
X57157257Y-42468704D01*
X57157257Y-42468704D02*
X57109638Y-42421085D01*
X57109638Y-42421085D02*
X57062019Y-42325847D01*
X57062019Y-42325847D02*
X57062019Y-42135371D01*
X57062019Y-42135371D02*
X57109638Y-42040133D01*
X57109638Y-42040133D02*
X57157257Y-41992514D01*
X57157257Y-41992514D02*
X57252495Y-41944895D01*
X57252495Y-41944895D02*
X57490590Y-41944895D01*
X57490590Y-41944895D02*
X57585828Y-41992514D01*
X57585828Y-41992514D02*
X57633447Y-42040133D01*
X57633447Y-42040133D02*
X57681066Y-42135371D01*
X57681066Y-42135371D02*
X57681066Y-42325847D01*
X57681066Y-42325847D02*
X57633447Y-42421085D01*
X57633447Y-42421085D02*
X57585828Y-42468704D01*
X57585828Y-42468704D02*
X57490590Y-42516323D01*
X11895238Y-3850057D02*
X11990476Y-3802438D01*
X11990476Y-3802438D02*
X12085714Y-3707200D01*
X12085714Y-3707200D02*
X12228571Y-3564342D01*
X12228571Y-3564342D02*
X12323809Y-3516723D01*
X12323809Y-3516723D02*
X12419047Y-3516723D01*
X12371428Y-3754819D02*
X12466666Y-3707200D01*
X12466666Y-3707200D02*
X12561904Y-3611961D01*
X12561904Y-3611961D02*
X12609523Y-3421485D01*
X12609523Y-3421485D02*
X12609523Y-3088152D01*
X12609523Y-3088152D02*
X12561904Y-2897676D01*
X12561904Y-2897676D02*
X12466666Y-2802438D01*
X12466666Y-2802438D02*
X12371428Y-2754819D01*
X12371428Y-2754819D02*
X12180952Y-2754819D01*
X12180952Y-2754819D02*
X12085714Y-2802438D01*
X12085714Y-2802438D02*
X11990476Y-2897676D01*
X11990476Y-2897676D02*
X11942857Y-3088152D01*
X11942857Y-3088152D02*
X11942857Y-3421485D01*
X11942857Y-3421485D02*
X11990476Y-3611961D01*
X11990476Y-3611961D02*
X12085714Y-3707200D01*
X12085714Y-3707200D02*
X12180952Y-3754819D01*
X12180952Y-3754819D02*
X12371428Y-3754819D01*
X11561904Y-2850057D02*
X11514285Y-2802438D01*
X11514285Y-2802438D02*
X11419047Y-2754819D01*
X11419047Y-2754819D02*
X11180952Y-2754819D01*
X11180952Y-2754819D02*
X11085714Y-2802438D01*
X11085714Y-2802438D02*
X11038095Y-2850057D01*
X11038095Y-2850057D02*
X10990476Y-2945295D01*
X10990476Y-2945295D02*
X10990476Y-3040533D01*
X10990476Y-3040533D02*
X11038095Y-3183390D01*
X11038095Y-3183390D02*
X11609523Y-3754819D01*
X11609523Y-3754819D02*
X10990476Y-3754819D01*
X63192819Y-45966142D02*
X62716628Y-45632809D01*
X63192819Y-45394714D02*
X62192819Y-45394714D01*
X62192819Y-45394714D02*
X62192819Y-45775666D01*
X62192819Y-45775666D02*
X62240438Y-45870904D01*
X62240438Y-45870904D02*
X62288057Y-45918523D01*
X62288057Y-45918523D02*
X62383295Y-45966142D01*
X62383295Y-45966142D02*
X62526152Y-45966142D01*
X62526152Y-45966142D02*
X62621390Y-45918523D01*
X62621390Y-45918523D02*
X62669009Y-45870904D01*
X62669009Y-45870904D02*
X62716628Y-45775666D01*
X62716628Y-45775666D02*
X62716628Y-45394714D01*
X63192819Y-46918523D02*
X63192819Y-46347095D01*
X63192819Y-46632809D02*
X62192819Y-46632809D01*
X62192819Y-46632809D02*
X62335676Y-46537571D01*
X62335676Y-46537571D02*
X62430914Y-46442333D01*
X62430914Y-46442333D02*
X62478533Y-46347095D01*
X62192819Y-47537571D02*
X62192819Y-47632809D01*
X62192819Y-47632809D02*
X62240438Y-47728047D01*
X62240438Y-47728047D02*
X62288057Y-47775666D01*
X62288057Y-47775666D02*
X62383295Y-47823285D01*
X62383295Y-47823285D02*
X62573771Y-47870904D01*
X62573771Y-47870904D02*
X62811866Y-47870904D01*
X62811866Y-47870904D02*
X63002342Y-47823285D01*
X63002342Y-47823285D02*
X63097580Y-47775666D01*
X63097580Y-47775666D02*
X63145200Y-47728047D01*
X63145200Y-47728047D02*
X63192819Y-47632809D01*
X63192819Y-47632809D02*
X63192819Y-47537571D01*
X63192819Y-47537571D02*
X63145200Y-47442333D01*
X63145200Y-47442333D02*
X63097580Y-47394714D01*
X63097580Y-47394714D02*
X63002342Y-47347095D01*
X63002342Y-47347095D02*
X62811866Y-47299476D01*
X62811866Y-47299476D02*
X62573771Y-47299476D01*
X62573771Y-47299476D02*
X62383295Y-47347095D01*
X62383295Y-47347095D02*
X62288057Y-47394714D01*
X62288057Y-47394714D02*
X62240438Y-47442333D01*
X62240438Y-47442333D02*
X62192819Y-47537571D01*
X25280438Y-19221057D02*
X25375676Y-19173438D01*
X25375676Y-19173438D02*
X25470914Y-19078200D01*
X25470914Y-19078200D02*
X25613771Y-18935342D01*
X25613771Y-18935342D02*
X25709009Y-18887723D01*
X25709009Y-18887723D02*
X25804247Y-18887723D01*
X25756628Y-19125819D02*
X25851866Y-19078200D01*
X25851866Y-19078200D02*
X25947104Y-18982961D01*
X25947104Y-18982961D02*
X25994723Y-18792485D01*
X25994723Y-18792485D02*
X25994723Y-18459152D01*
X25994723Y-18459152D02*
X25947104Y-18268676D01*
X25947104Y-18268676D02*
X25851866Y-18173438D01*
X25851866Y-18173438D02*
X25756628Y-18125819D01*
X25756628Y-18125819D02*
X25566152Y-18125819D01*
X25566152Y-18125819D02*
X25470914Y-18173438D01*
X25470914Y-18173438D02*
X25375676Y-18268676D01*
X25375676Y-18268676D02*
X25328057Y-18459152D01*
X25328057Y-18459152D02*
X25328057Y-18792485D01*
X25328057Y-18792485D02*
X25375676Y-18982961D01*
X25375676Y-18982961D02*
X25470914Y-19078200D01*
X25470914Y-19078200D02*
X25566152Y-19125819D01*
X25566152Y-19125819D02*
X25756628Y-19125819D01*
X24470914Y-18125819D02*
X24661390Y-18125819D01*
X24661390Y-18125819D02*
X24756628Y-18173438D01*
X24756628Y-18173438D02*
X24804247Y-18221057D01*
X24804247Y-18221057D02*
X24899485Y-18363914D01*
X24899485Y-18363914D02*
X24947104Y-18554390D01*
X24947104Y-18554390D02*
X24947104Y-18935342D01*
X24947104Y-18935342D02*
X24899485Y-19030580D01*
X24899485Y-19030580D02*
X24851866Y-19078200D01*
X24851866Y-19078200D02*
X24756628Y-19125819D01*
X24756628Y-19125819D02*
X24566152Y-19125819D01*
X24566152Y-19125819D02*
X24470914Y-19078200D01*
X24470914Y-19078200D02*
X24423295Y-19030580D01*
X24423295Y-19030580D02*
X24375676Y-18935342D01*
X24375676Y-18935342D02*
X24375676Y-18697247D01*
X24375676Y-18697247D02*
X24423295Y-18602009D01*
X24423295Y-18602009D02*
X24470914Y-18554390D01*
X24470914Y-18554390D02*
X24566152Y-18506771D01*
X24566152Y-18506771D02*
X24756628Y-18506771D01*
X24756628Y-18506771D02*
X24851866Y-18554390D01*
X24851866Y-18554390D02*
X24899485Y-18602009D01*
X24899485Y-18602009D02*
X24947104Y-18697247D01*
X6844857Y-5528361D02*
X6797238Y-5433123D01*
X6797238Y-5433123D02*
X6702000Y-5337885D01*
X6702000Y-5337885D02*
X6559142Y-5195028D01*
X6559142Y-5195028D02*
X6511523Y-5099790D01*
X6511523Y-5099790D02*
X6511523Y-5004552D01*
X6749619Y-5052171D02*
X6702000Y-4956933D01*
X6702000Y-4956933D02*
X6606761Y-4861695D01*
X6606761Y-4861695D02*
X6416285Y-4814076D01*
X6416285Y-4814076D02*
X6082952Y-4814076D01*
X6082952Y-4814076D02*
X5892476Y-4861695D01*
X5892476Y-4861695D02*
X5797238Y-4956933D01*
X5797238Y-4956933D02*
X5749619Y-5052171D01*
X5749619Y-5052171D02*
X5749619Y-5242647D01*
X5749619Y-5242647D02*
X5797238Y-5337885D01*
X5797238Y-5337885D02*
X5892476Y-5433123D01*
X5892476Y-5433123D02*
X6082952Y-5480742D01*
X6082952Y-5480742D02*
X6416285Y-5480742D01*
X6416285Y-5480742D02*
X6606761Y-5433123D01*
X6606761Y-5433123D02*
X6702000Y-5337885D01*
X6702000Y-5337885D02*
X6749619Y-5242647D01*
X6749619Y-5242647D02*
X6749619Y-5052171D01*
X6749619Y-6433123D02*
X6749619Y-5861695D01*
X6749619Y-6147409D02*
X5749619Y-6147409D01*
X5749619Y-6147409D02*
X5892476Y-6052171D01*
X5892476Y-6052171D02*
X5987714Y-5956933D01*
X5987714Y-5956933D02*
X6035333Y-5861695D01*
X11895238Y-12150057D02*
X11990476Y-12102438D01*
X11990476Y-12102438D02*
X12085714Y-12007200D01*
X12085714Y-12007200D02*
X12228571Y-11864342D01*
X12228571Y-11864342D02*
X12323809Y-11816723D01*
X12323809Y-11816723D02*
X12419047Y-11816723D01*
X12371428Y-12054819D02*
X12466666Y-12007200D01*
X12466666Y-12007200D02*
X12561904Y-11911961D01*
X12561904Y-11911961D02*
X12609523Y-11721485D01*
X12609523Y-11721485D02*
X12609523Y-11388152D01*
X12609523Y-11388152D02*
X12561904Y-11197676D01*
X12561904Y-11197676D02*
X12466666Y-11102438D01*
X12466666Y-11102438D02*
X12371428Y-11054819D01*
X12371428Y-11054819D02*
X12180952Y-11054819D01*
X12180952Y-11054819D02*
X12085714Y-11102438D01*
X12085714Y-11102438D02*
X11990476Y-11197676D01*
X11990476Y-11197676D02*
X11942857Y-11388152D01*
X11942857Y-11388152D02*
X11942857Y-11721485D01*
X11942857Y-11721485D02*
X11990476Y-11911961D01*
X11990476Y-11911961D02*
X12085714Y-12007200D01*
X12085714Y-12007200D02*
X12180952Y-12054819D01*
X12180952Y-12054819D02*
X12371428Y-12054819D01*
X11085714Y-11388152D02*
X11085714Y-12054819D01*
X11323809Y-11007200D02*
X11561904Y-11721485D01*
X11561904Y-11721485D02*
X10942857Y-11721485D01*
X14712457Y-24884561D02*
X14664838Y-24789323D01*
X14664838Y-24789323D02*
X14569600Y-24694085D01*
X14569600Y-24694085D02*
X14426742Y-24551228D01*
X14426742Y-24551228D02*
X14379123Y-24455990D01*
X14379123Y-24455990D02*
X14379123Y-24360752D01*
X14617219Y-24408371D02*
X14569600Y-24313133D01*
X14569600Y-24313133D02*
X14474361Y-24217895D01*
X14474361Y-24217895D02*
X14283885Y-24170276D01*
X14283885Y-24170276D02*
X13950552Y-24170276D01*
X13950552Y-24170276D02*
X13760076Y-24217895D01*
X13760076Y-24217895D02*
X13664838Y-24313133D01*
X13664838Y-24313133D02*
X13617219Y-24408371D01*
X13617219Y-24408371D02*
X13617219Y-24598847D01*
X13617219Y-24598847D02*
X13664838Y-24694085D01*
X13664838Y-24694085D02*
X13760076Y-24789323D01*
X13760076Y-24789323D02*
X13950552Y-24836942D01*
X13950552Y-24836942D02*
X14283885Y-24836942D01*
X14283885Y-24836942D02*
X14474361Y-24789323D01*
X14474361Y-24789323D02*
X14569600Y-24694085D01*
X14569600Y-24694085D02*
X14617219Y-24598847D01*
X14617219Y-24598847D02*
X14617219Y-24408371D01*
X14045790Y-25408371D02*
X13998171Y-25313133D01*
X13998171Y-25313133D02*
X13950552Y-25265514D01*
X13950552Y-25265514D02*
X13855314Y-25217895D01*
X13855314Y-25217895D02*
X13807695Y-25217895D01*
X13807695Y-25217895D02*
X13712457Y-25265514D01*
X13712457Y-25265514D02*
X13664838Y-25313133D01*
X13664838Y-25313133D02*
X13617219Y-25408371D01*
X13617219Y-25408371D02*
X13617219Y-25598847D01*
X13617219Y-25598847D02*
X13664838Y-25694085D01*
X13664838Y-25694085D02*
X13712457Y-25741704D01*
X13712457Y-25741704D02*
X13807695Y-25789323D01*
X13807695Y-25789323D02*
X13855314Y-25789323D01*
X13855314Y-25789323D02*
X13950552Y-25741704D01*
X13950552Y-25741704D02*
X13998171Y-25694085D01*
X13998171Y-25694085D02*
X14045790Y-25598847D01*
X14045790Y-25598847D02*
X14045790Y-25408371D01*
X14045790Y-25408371D02*
X14093409Y-25313133D01*
X14093409Y-25313133D02*
X14141028Y-25265514D01*
X14141028Y-25265514D02*
X14236266Y-25217895D01*
X14236266Y-25217895D02*
X14426742Y-25217895D01*
X14426742Y-25217895D02*
X14521980Y-25265514D01*
X14521980Y-25265514D02*
X14569600Y-25313133D01*
X14569600Y-25313133D02*
X14617219Y-25408371D01*
X14617219Y-25408371D02*
X14617219Y-25598847D01*
X14617219Y-25598847D02*
X14569600Y-25694085D01*
X14569600Y-25694085D02*
X14521980Y-25741704D01*
X14521980Y-25741704D02*
X14426742Y-25789323D01*
X14426742Y-25789323D02*
X14236266Y-25789323D01*
X14236266Y-25789323D02*
X14141028Y-25741704D01*
X14141028Y-25741704D02*
X14093409Y-25694085D01*
X14093409Y-25694085D02*
X14045790Y-25598847D01*
X53540819Y-47058342D02*
X53064628Y-46725009D01*
X53540819Y-46486914D02*
X52540819Y-46486914D01*
X52540819Y-46486914D02*
X52540819Y-46867866D01*
X52540819Y-46867866D02*
X52588438Y-46963104D01*
X52588438Y-46963104D02*
X52636057Y-47010723D01*
X52636057Y-47010723D02*
X52731295Y-47058342D01*
X52731295Y-47058342D02*
X52874152Y-47058342D01*
X52874152Y-47058342D02*
X52969390Y-47010723D01*
X52969390Y-47010723D02*
X53017009Y-46963104D01*
X53017009Y-46963104D02*
X53064628Y-46867866D01*
X53064628Y-46867866D02*
X53064628Y-46486914D01*
X52636057Y-47439295D02*
X52588438Y-47486914D01*
X52588438Y-47486914D02*
X52540819Y-47582152D01*
X52540819Y-47582152D02*
X52540819Y-47820247D01*
X52540819Y-47820247D02*
X52588438Y-47915485D01*
X52588438Y-47915485D02*
X52636057Y-47963104D01*
X52636057Y-47963104D02*
X52731295Y-48010723D01*
X52731295Y-48010723D02*
X52826533Y-48010723D01*
X52826533Y-48010723D02*
X52969390Y-47963104D01*
X52969390Y-47963104D02*
X53540819Y-47391676D01*
X53540819Y-47391676D02*
X53540819Y-48010723D01*
X52540819Y-48915485D02*
X52540819Y-48439295D01*
X52540819Y-48439295D02*
X53017009Y-48391676D01*
X53017009Y-48391676D02*
X52969390Y-48439295D01*
X52969390Y-48439295D02*
X52921771Y-48534533D01*
X52921771Y-48534533D02*
X52921771Y-48772628D01*
X52921771Y-48772628D02*
X52969390Y-48867866D01*
X52969390Y-48867866D02*
X53017009Y-48915485D01*
X53017009Y-48915485D02*
X53112247Y-48963104D01*
X53112247Y-48963104D02*
X53350342Y-48963104D01*
X53350342Y-48963104D02*
X53445580Y-48915485D01*
X53445580Y-48915485D02*
X53493200Y-48867866D01*
X53493200Y-48867866D02*
X53540819Y-48772628D01*
X53540819Y-48772628D02*
X53540819Y-48534533D01*
X53540819Y-48534533D02*
X53493200Y-48439295D01*
X53493200Y-48439295D02*
X53445580Y-48391676D01*
X37792819Y-30599142D02*
X37316628Y-30265809D01*
X37792819Y-30027714D02*
X36792819Y-30027714D01*
X36792819Y-30027714D02*
X36792819Y-30408666D01*
X36792819Y-30408666D02*
X36840438Y-30503904D01*
X36840438Y-30503904D02*
X36888057Y-30551523D01*
X36888057Y-30551523D02*
X36983295Y-30599142D01*
X36983295Y-30599142D02*
X37126152Y-30599142D01*
X37126152Y-30599142D02*
X37221390Y-30551523D01*
X37221390Y-30551523D02*
X37269009Y-30503904D01*
X37269009Y-30503904D02*
X37316628Y-30408666D01*
X37316628Y-30408666D02*
X37316628Y-30027714D01*
X37792819Y-31551523D02*
X37792819Y-30980095D01*
X37792819Y-31265809D02*
X36792819Y-31265809D01*
X36792819Y-31265809D02*
X36935676Y-31170571D01*
X36935676Y-31170571D02*
X37030914Y-31075333D01*
X37030914Y-31075333D02*
X37078533Y-30980095D01*
X36792819Y-31884857D02*
X36792819Y-32503904D01*
X36792819Y-32503904D02*
X37173771Y-32170571D01*
X37173771Y-32170571D02*
X37173771Y-32313428D01*
X37173771Y-32313428D02*
X37221390Y-32408666D01*
X37221390Y-32408666D02*
X37269009Y-32456285D01*
X37269009Y-32456285D02*
X37364247Y-32503904D01*
X37364247Y-32503904D02*
X37602342Y-32503904D01*
X37602342Y-32503904D02*
X37697580Y-32456285D01*
X37697580Y-32456285D02*
X37745200Y-32408666D01*
X37745200Y-32408666D02*
X37792819Y-32313428D01*
X37792819Y-32313428D02*
X37792819Y-32027714D01*
X37792819Y-32027714D02*
X37745200Y-31932476D01*
X37745200Y-31932476D02*
X37697580Y-31884857D01*
D11*
X3567736Y-8698600D02*
X4021864Y-8698600D01*
X3567736Y-10168600D02*
X4021864Y-10168600D01*
X34063000Y-27727064D02*
X34063000Y-27272936D01*
X35533000Y-27727064D02*
X35533000Y-27272936D01*
X59463000Y-43441252D02*
X59463000Y-42918748D01*
X60933000Y-43441252D02*
X60933000Y-42918748D01*
X15176000Y-15839600D02*
X16636000Y-15839600D01*
X15176000Y-15839600D02*
X15176000Y-14909600D01*
X15176000Y-12679600D02*
X18336000Y-12679600D01*
X15176000Y-12679600D02*
X15176000Y-13609600D01*
X50773000Y-43968936D02*
X50773000Y-44423064D01*
X49303000Y-43968936D02*
X49303000Y-44423064D01*
X16979000Y-6257064D02*
X16979000Y-5802936D01*
X18449000Y-6257064D02*
X18449000Y-5802936D01*
X16889464Y-21600000D02*
X16435336Y-21600000D01*
X16889464Y-20130000D02*
X16435336Y-20130000D01*
X19290400Y-14486664D02*
X19290400Y-14032536D01*
X20760400Y-14486664D02*
X20760400Y-14032536D01*
X39143000Y-27727064D02*
X39143000Y-27272936D01*
X40613000Y-27727064D02*
X40613000Y-27272936D01*
X16979000Y-2193064D02*
X16979000Y-1738936D01*
X18449000Y-2193064D02*
X18449000Y-1738936D01*
X12866000Y-7610000D02*
X14326000Y-7610000D01*
X12866000Y-7610000D02*
X12866000Y-6680000D01*
X12866000Y-4450000D02*
X16026000Y-4450000D01*
X12866000Y-4450000D02*
X12866000Y-5380000D01*
X26240000Y-23980000D02*
X27700000Y-23980000D01*
X26240000Y-23980000D02*
X26240000Y-23050000D01*
X26240000Y-20820000D02*
X29400000Y-20820000D01*
X26240000Y-20820000D02*
X26240000Y-21750000D01*
X16979000Y-10473464D02*
X16979000Y-10019336D01*
X18449000Y-10473464D02*
X18449000Y-10019336D01*
X54808000Y-42928000D02*
X54808000Y-44388000D01*
X54808000Y-42928000D02*
X55738000Y-42928000D01*
X57968000Y-42928000D02*
X57968000Y-46088000D01*
X57968000Y-42928000D02*
X57038000Y-42928000D01*
X12866000Y-3546000D02*
X14326000Y-3546000D01*
X12866000Y-3546000D02*
X12866000Y-2616000D01*
X12866000Y-386000D02*
X16026000Y-386000D01*
X12866000Y-386000D02*
X12866000Y-1316000D01*
X62003000Y-43407064D02*
X62003000Y-42952936D01*
X63473000Y-43407064D02*
X63473000Y-42952936D01*
X26240000Y-18980000D02*
X27700000Y-18980000D01*
X26240000Y-18980000D02*
X26240000Y-18050000D01*
X26240000Y-15820000D02*
X29400000Y-15820000D01*
X26240000Y-15820000D02*
X26240000Y-16750000D01*
X2214800Y-4863600D02*
X2214800Y-6323600D01*
X2214800Y-4863600D02*
X3144800Y-4863600D01*
X5374800Y-4863600D02*
X5374800Y-8023600D01*
X5374800Y-4863600D02*
X4444800Y-4863600D01*
X12839200Y-11826400D02*
X14299200Y-11826400D01*
X12839200Y-11826400D02*
X12839200Y-10896400D01*
X12839200Y-8666400D02*
X15999200Y-8666400D01*
X12839200Y-8666400D02*
X12839200Y-9596400D01*
X18242400Y-25739800D02*
X18242400Y-24279800D01*
X18242400Y-25739800D02*
X17312400Y-25739800D01*
X15082400Y-25739800D02*
X15082400Y-22579800D01*
X15082400Y-25739800D02*
X16012400Y-25739800D01*
X53821000Y-43968936D02*
X53821000Y-44423064D01*
X52351000Y-43968936D02*
X52351000Y-44423064D01*
X36603000Y-27727064D02*
X36603000Y-27272936D01*
X38073000Y-27727064D02*
X38073000Y-27272936D01*
%LPC*%
D12*
X74141380Y-21905000D03*
D13*
X71641380Y-21905000D03*
X66304200Y-12405400D03*
D14*
X56144200Y-12405400D03*
D15*
X83900000Y-1000000D03*
X78900000Y-1000000D03*
X78900000Y-6000000D03*
X78900000Y-11000000D03*
D12*
X49530200Y-12039200D03*
D14*
X49530200Y-9499200D03*
X41910200Y-9499200D03*
X41910200Y-12039200D03*
D13*
X74747800Y-5117000D03*
X69747800Y-2117000D03*
D16*
X52842200Y-12842000D03*
D17*
X52842200Y-9032000D03*
D13*
X66304200Y-5430200D03*
D14*
X56144200Y-5430200D03*
D13*
X66304200Y-9154200D03*
D14*
X56144200Y-9154200D03*
D18*
X47498000Y-39370000D03*
D19*
X50038000Y-39370000D03*
X52578000Y-39370000D03*
X55118000Y-39370000D03*
X57658000Y-39370000D03*
X60198000Y-39370000D03*
X62738000Y-39370000D03*
D16*
X52842200Y-5349000D03*
D17*
X52842200Y-1539000D03*
D20*
X73284234Y-27010400D03*
D21*
X70744234Y-27010400D03*
D12*
X49530200Y-4922200D03*
D14*
X49530200Y-2382200D03*
X41910200Y-2382200D03*
X41910200Y-4922200D03*
D15*
X3800000Y-1000000D03*
X8800000Y-1000000D03*
X8800000Y-6000000D03*
X8800000Y-11000000D03*
D13*
X74747800Y-12229000D03*
X69747800Y-9229000D03*
D12*
X53217621Y-19600000D03*
D13*
X55717621Y-19600000D03*
X66304200Y-1874200D03*
D14*
X56144200Y-1874200D03*
D15*
X15100000Y-17400000D03*
X20100000Y-17400000D03*
X20100000Y-22400000D03*
X20100000Y-27400000D03*
X72600000Y-17400000D03*
X67600000Y-17400000D03*
X67600000Y-22400000D03*
X67600000Y-27400000D03*
D22*
X2794800Y-9433600D03*
X4794800Y-9433600D03*
D23*
X34798000Y-28500000D03*
X34798000Y-26500000D03*
D24*
X60198000Y-44217500D03*
X60198000Y-42142500D03*
D25*
X17436000Y-13309600D03*
X17436000Y-15209600D03*
X14436000Y-14259600D03*
D26*
X50038000Y-43196000D03*
X50038000Y-45196000D03*
D23*
X17714000Y-7030000D03*
X17714000Y-5030000D03*
D27*
X17662400Y-20865000D03*
X15662400Y-20865000D03*
D23*
X20025400Y-15259600D03*
X20025400Y-13259600D03*
X39878000Y-28500000D03*
X39878000Y-26500000D03*
X17714000Y-2966000D03*
X17714000Y-966000D03*
D25*
X15126000Y-5080000D03*
X15126000Y-6980000D03*
X12126000Y-6030000D03*
X28500000Y-21450000D03*
X28500000Y-23350000D03*
X25500000Y-22400000D03*
D23*
X17714000Y-11246400D03*
X17714000Y-9246400D03*
D28*
X57338000Y-45188000D03*
X55438000Y-45188000D03*
X56388000Y-42188000D03*
D25*
X15126000Y-1016000D03*
X15126000Y-2916000D03*
X12126000Y-1966000D03*
D23*
X62738000Y-44180000D03*
X62738000Y-42180000D03*
D25*
X28500000Y-16450000D03*
X28500000Y-18350000D03*
X25500000Y-17400000D03*
D28*
X4744800Y-7123600D03*
X2844800Y-7123600D03*
X3794800Y-4123600D03*
D25*
X15099200Y-9296400D03*
X15099200Y-11196400D03*
X12099200Y-10246400D03*
D28*
X15712400Y-23479800D03*
X17612400Y-23479800D03*
X16662400Y-26479800D03*
D26*
X53086000Y-43196000D03*
X53086000Y-45196000D03*
D23*
X37338000Y-28500000D03*
X37338000Y-26500000D03*
%LPD*%
M02*
