M48
; DRILL file {KiCad 7.0.6} date Sat Jul 22 14:17:15 2023
; FORMAT={-:-/ absolute / metric / decimal}
; #@! TF.CreationDate,2023-07-22T14:17:15+02:00
; #@! TF.GenerationSoftware,Kicad,Pcbnew,7.0.6
; #@! TF.FileFunction,Plated,1,2,PTH
FMAT,2
METRIC
; #@! TA.AperFunction,Plated,PTH,ViaDrill
T1C0.300
; #@! TA.AperFunction,Plated,PTH,ComponentDrill
T2C0.600
; #@! TA.AperFunction,Plated,PTH,ComponentDrill
T3C0.800
; #@! TA.AperFunction,Plated,PTH,ComponentDrill
T4C1.000
; #@! TA.AperFunction,Plated,PTH,ComponentDrill
T5C1.100
; #@! TA.AperFunction,Plated,PTH,ComponentDrill
T6C1.200
%
G90
G05
T1
X1.5Y-3.0
X1.5Y-5.0
X1.5Y-7.0
X1.5Y-9.0
X4.745Y-8.392
X5.0Y-2.5
X7.5Y-5.0
X7.5Y-10.0
X10.0Y-7.5
X12.5Y-5.0
X12.5Y-12.5
X12.5Y-17.5
X12.5Y-22.5
X12.5Y-27.5
X13.5Y-3.0
X13.5Y-7.0
X13.5Y-11.5
X15.707Y-25.029
X17.5Y-16.5
X17.5Y-19.0
X18.832Y-13.31
X19.035Y-9.256
X19.136Y-0.975
X19.162Y-5.039
X20.0Y-2.5
X20.0Y-7.5
X20.0Y-20.0
X22.464Y-16.19
X22.5Y-7.5
X22.5Y-12.5
X22.5Y-20.0
X25.0Y-2.5
X25.0Y-12.5
X25.0Y-20.0
X25.0Y-25.0
X25.0Y-30.0
X25.0Y-37.5
X25.0Y-42.5
X25.0Y-47.5
X26.502Y-16.8
X29.3Y-24.8
X30.0Y-2.5
X30.0Y-7.5
X30.0Y-15.0
X30.0Y-17.5
X30.0Y-20.0
X30.0Y-22.5
X38.186Y-17.765
X38.186Y-19.822
X39.2Y-14.6
X40.0Y-20.0
X40.0Y-22.5
X42.489Y-22.47
X42.5Y-7.5
X42.5Y-15.0
X42.5Y-20.0
X46.416Y-36.637
X47.5Y-17.5
X47.5Y-45.0
X55.0Y-17.5
X55.0Y-22.5
X55.0Y-25.0
X55.0Y-27.5
X55.0Y-30.0
X55.0Y-35.0
X56.322Y-39.812
X57.5Y-17.5
X57.5Y-32.5
X57.592Y-41.717
X58.796Y-22.098
X58.862Y-39.812
X59.345Y-18.679
X59.9Y-24.3
X60.005Y-42.352
X61.3Y-27.5
X61.529Y-31.049
X62.5Y-32.5
X62.5Y-40.0
X62.672Y-24.013
X65.0Y-17.5
T2
X69.748Y-2.117
X69.748Y-9.229
X74.748Y-5.117
X74.748Y-12.229
T3
X41.91Y-2.382
X41.91Y-4.922
X41.91Y-9.499
X41.91Y-12.039
X49.53Y-2.382
X49.53Y-4.922
X49.53Y-9.499
X49.53Y-12.039
X53.218Y-19.6
X55.718Y-19.6
X56.144Y-1.874
X56.144Y-5.43
X56.144Y-9.154
X56.144Y-12.405
X66.304Y-1.874
X66.304Y-5.43
X66.304Y-9.154
X66.304Y-12.405
X71.641Y-21.905
X74.141Y-21.905
T4
X53.772Y-45.141
X53.772Y-47.681
X56.312Y-45.141
X56.312Y-47.681
X58.852Y-45.141
X58.852Y-47.681
X61.392Y-45.141
X61.392Y-47.681
T5
X70.744Y-27.01
X73.284Y-27.01
T6
X3.8Y-1.0
X8.8Y-1.0
X8.8Y-6.0
X8.8Y-11.0
X15.1Y-17.4
X20.1Y-17.4
X20.1Y-22.4
X20.1Y-27.4
X52.842Y-1.539
X52.842Y-5.349
X52.842Y-9.032
X52.842Y-12.842
X67.6Y-17.4
X67.6Y-22.4
X67.6Y-27.4
X72.6Y-17.4
X78.9Y-1.0
X78.9Y-6.0
X78.9Y-11.0
X83.9Y-1.0
T0
M30
