G04 #@! TF.GenerationSoftware,KiCad,Pcbnew,7.0.6*
G04 #@! TF.CreationDate,2023-07-22T14:16:58+02:00*
G04 #@! TF.ProjectId,esp-switch,6573702d-7377-4697-9463-682e6b696361,rev?*
G04 #@! TF.SameCoordinates,Original*
G04 #@! TF.FileFunction,Soldermask,Bot*
G04 #@! TF.FilePolarity,Negative*
%FSLAX46Y46*%
G04 Gerber Fmt 4.6, Leading zero omitted, Abs format (unit mm)*
G04 Created by KiCad (PCBNEW 7.0.6) date 2023-07-22 14:16:58*
%MOMM*%
%LPD*%
G01*
G04 APERTURE LIST*
G04 APERTURE END LIST*
G36*
X54034664Y-46872602D02*
G01*
X54197000Y-46944878D01*
X54340761Y-47049327D01*
X54459664Y-47181383D01*
X54548514Y-47335274D01*
X54603425Y-47504275D01*
X54622000Y-47681000D01*
X54603425Y-47857725D01*
X54548514Y-48026726D01*
X54459664Y-48180617D01*
X54340761Y-48312673D01*
X54197000Y-48417122D01*
X54034664Y-48489398D01*
X53860849Y-48526344D01*
X53683151Y-48526344D01*
X53509336Y-48489398D01*
X53347000Y-48417122D01*
X53203239Y-48312673D01*
X53084336Y-48180617D01*
X52995486Y-48026726D01*
X52940575Y-47857725D01*
X52922000Y-47681000D01*
X52940575Y-47504275D01*
X52995486Y-47335274D01*
X53084336Y-47181383D01*
X53203239Y-47049327D01*
X53347000Y-46944878D01*
X53509336Y-46872602D01*
X53683151Y-46835656D01*
X53860849Y-46835656D01*
X54034664Y-46872602D01*
G37*
G36*
X56574664Y-46872602D02*
G01*
X56737000Y-46944878D01*
X56880761Y-47049327D01*
X56999664Y-47181383D01*
X57088514Y-47335274D01*
X57143425Y-47504275D01*
X57162000Y-47681000D01*
X57143425Y-47857725D01*
X57088514Y-48026726D01*
X56999664Y-48180617D01*
X56880761Y-48312673D01*
X56737000Y-48417122D01*
X56574664Y-48489398D01*
X56400849Y-48526344D01*
X56223151Y-48526344D01*
X56049336Y-48489398D01*
X55887000Y-48417122D01*
X55743239Y-48312673D01*
X55624336Y-48180617D01*
X55535486Y-48026726D01*
X55480575Y-47857725D01*
X55462000Y-47681000D01*
X55480575Y-47504275D01*
X55535486Y-47335274D01*
X55624336Y-47181383D01*
X55743239Y-47049327D01*
X55887000Y-46944878D01*
X56049336Y-46872602D01*
X56223151Y-46835656D01*
X56400849Y-46835656D01*
X56574664Y-46872602D01*
G37*
G36*
X59114664Y-46872602D02*
G01*
X59277000Y-46944878D01*
X59420761Y-47049327D01*
X59539664Y-47181383D01*
X59628514Y-47335274D01*
X59683425Y-47504275D01*
X59702000Y-47681000D01*
X59683425Y-47857725D01*
X59628514Y-48026726D01*
X59539664Y-48180617D01*
X59420761Y-48312673D01*
X59277000Y-48417122D01*
X59114664Y-48489398D01*
X58940849Y-48526344D01*
X58763151Y-48526344D01*
X58589336Y-48489398D01*
X58427000Y-48417122D01*
X58283239Y-48312673D01*
X58164336Y-48180617D01*
X58075486Y-48026726D01*
X58020575Y-47857725D01*
X58002000Y-47681000D01*
X58020575Y-47504275D01*
X58075486Y-47335274D01*
X58164336Y-47181383D01*
X58283239Y-47049327D01*
X58427000Y-46944878D01*
X58589336Y-46872602D01*
X58763151Y-46835656D01*
X58940849Y-46835656D01*
X59114664Y-46872602D01*
G37*
G36*
X61654664Y-46872602D02*
G01*
X61817000Y-46944878D01*
X61960761Y-47049327D01*
X62079664Y-47181383D01*
X62168514Y-47335274D01*
X62223425Y-47504275D01*
X62242000Y-47681000D01*
X62223425Y-47857725D01*
X62168514Y-48026726D01*
X62079664Y-48180617D01*
X61960761Y-48312673D01*
X61817000Y-48417122D01*
X61654664Y-48489398D01*
X61480849Y-48526344D01*
X61303151Y-48526344D01*
X61129336Y-48489398D01*
X60967000Y-48417122D01*
X60823239Y-48312673D01*
X60704336Y-48180617D01*
X60615486Y-48026726D01*
X60560575Y-47857725D01*
X60542000Y-47681000D01*
X60560575Y-47504275D01*
X60615486Y-47335274D01*
X60704336Y-47181383D01*
X60823239Y-47049327D01*
X60967000Y-46944878D01*
X61129336Y-46872602D01*
X61303151Y-46835656D01*
X61480849Y-46835656D01*
X61654664Y-46872602D01*
G37*
G36*
X62242000Y-45991000D02*
G01*
X60542000Y-45991000D01*
X60542000Y-44291000D01*
X62242000Y-44291000D01*
X62242000Y-45991000D01*
G37*
G36*
X54034664Y-44332602D02*
G01*
X54197000Y-44404878D01*
X54340761Y-44509327D01*
X54459664Y-44641383D01*
X54548514Y-44795274D01*
X54603425Y-44964275D01*
X54622000Y-45141000D01*
X54603425Y-45317725D01*
X54548514Y-45486726D01*
X54459664Y-45640617D01*
X54340761Y-45772673D01*
X54197000Y-45877122D01*
X54034664Y-45949398D01*
X53860849Y-45986344D01*
X53683151Y-45986344D01*
X53509336Y-45949398D01*
X53347000Y-45877122D01*
X53203239Y-45772673D01*
X53084336Y-45640617D01*
X52995486Y-45486726D01*
X52940575Y-45317725D01*
X52922000Y-45141000D01*
X52940575Y-44964275D01*
X52995486Y-44795274D01*
X53084336Y-44641383D01*
X53203239Y-44509327D01*
X53347000Y-44404878D01*
X53509336Y-44332602D01*
X53683151Y-44295656D01*
X53860849Y-44295656D01*
X54034664Y-44332602D01*
G37*
G36*
X56574664Y-44332602D02*
G01*
X56737000Y-44404878D01*
X56880761Y-44509327D01*
X56999664Y-44641383D01*
X57088514Y-44795274D01*
X57143425Y-44964275D01*
X57162000Y-45141000D01*
X57143425Y-45317725D01*
X57088514Y-45486726D01*
X56999664Y-45640617D01*
X56880761Y-45772673D01*
X56737000Y-45877122D01*
X56574664Y-45949398D01*
X56400849Y-45986344D01*
X56223151Y-45986344D01*
X56049336Y-45949398D01*
X55887000Y-45877122D01*
X55743239Y-45772673D01*
X55624336Y-45640617D01*
X55535486Y-45486726D01*
X55480575Y-45317725D01*
X55462000Y-45141000D01*
X55480575Y-44964275D01*
X55535486Y-44795274D01*
X55624336Y-44641383D01*
X55743239Y-44509327D01*
X55887000Y-44404878D01*
X56049336Y-44332602D01*
X56223151Y-44295656D01*
X56400849Y-44295656D01*
X56574664Y-44332602D01*
G37*
G36*
X59114664Y-44332602D02*
G01*
X59277000Y-44404878D01*
X59420761Y-44509327D01*
X59539664Y-44641383D01*
X59628514Y-44795274D01*
X59683425Y-44964275D01*
X59702000Y-45141000D01*
X59683425Y-45317725D01*
X59628514Y-45486726D01*
X59539664Y-45640617D01*
X59420761Y-45772673D01*
X59277000Y-45877122D01*
X59114664Y-45949398D01*
X58940849Y-45986344D01*
X58763151Y-45986344D01*
X58589336Y-45949398D01*
X58427000Y-45877122D01*
X58283239Y-45772673D01*
X58164336Y-45640617D01*
X58075486Y-45486726D01*
X58020575Y-45317725D01*
X58002000Y-45141000D01*
X58020575Y-44964275D01*
X58075486Y-44795274D01*
X58164336Y-44641383D01*
X58283239Y-44509327D01*
X58427000Y-44404878D01*
X58589336Y-44332602D01*
X58763151Y-44295656D01*
X58940849Y-44295656D01*
X59114664Y-44332602D01*
G37*
G36*
X20147113Y-26504930D02*
G01*
X20194076Y-26504930D01*
X20234622Y-26513548D01*
X20275526Y-26517577D01*
X20326916Y-26533166D01*
X20378115Y-26544049D01*
X20410879Y-26558636D01*
X20444304Y-26568776D01*
X20497420Y-26597166D01*
X20550000Y-26620577D01*
X20574445Y-26638337D01*
X20599849Y-26651916D01*
X20651669Y-26694444D01*
X20702218Y-26731170D01*
X20718631Y-26749398D01*
X20736190Y-26763809D01*
X20783379Y-26821308D01*
X20828115Y-26870993D01*
X20837512Y-26887269D01*
X20848083Y-26900150D01*
X20887183Y-26973302D01*
X20922191Y-27033937D01*
X20926218Y-27046331D01*
X20931223Y-27055695D01*
X20958821Y-27146672D01*
X20980333Y-27212879D01*
X20981090Y-27220082D01*
X20982422Y-27224473D01*
X20995377Y-27356021D01*
X21000000Y-27400000D01*
X20995377Y-27443982D01*
X20982422Y-27575526D01*
X20981090Y-27579916D01*
X20980333Y-27587121D01*
X20958816Y-27653341D01*
X20931223Y-27744304D01*
X20926219Y-27753665D01*
X20922191Y-27766063D01*
X20887176Y-27826709D01*
X20848083Y-27899849D01*
X20837514Y-27912726D01*
X20828115Y-27929007D01*
X20783369Y-27978701D01*
X20736190Y-28036190D01*
X20718634Y-28050597D01*
X20702218Y-28068830D01*
X20651659Y-28105563D01*
X20599849Y-28148083D01*
X20574450Y-28161658D01*
X20550000Y-28179423D01*
X20497408Y-28202838D01*
X20444304Y-28231223D01*
X20410886Y-28241360D01*
X20378115Y-28255951D01*
X20326905Y-28266836D01*
X20275526Y-28282422D01*
X20234631Y-28286449D01*
X20194076Y-28295070D01*
X20147103Y-28295070D01*
X20100000Y-28299709D01*
X20052897Y-28295070D01*
X20005924Y-28295070D01*
X19965368Y-28286449D01*
X19924473Y-28282422D01*
X19873091Y-28266835D01*
X19821885Y-28255951D01*
X19789115Y-28241361D01*
X19755695Y-28231223D01*
X19702585Y-28202835D01*
X19650000Y-28179423D01*
X19625552Y-28161660D01*
X19600150Y-28148083D01*
X19548332Y-28105556D01*
X19497782Y-28068830D01*
X19481368Y-28050600D01*
X19463809Y-28036190D01*
X19416618Y-27978688D01*
X19371885Y-27929007D01*
X19362487Y-27912730D01*
X19351916Y-27899849D01*
X19312810Y-27826686D01*
X19277809Y-27766063D01*
X19273782Y-27753670D01*
X19268776Y-27744304D01*
X19241168Y-27653294D01*
X19219667Y-27587121D01*
X19218910Y-27579921D01*
X19217577Y-27575526D01*
X19204606Y-27443831D01*
X19200000Y-27400000D01*
X19204606Y-27356172D01*
X19217577Y-27224473D01*
X19218910Y-27220077D01*
X19219667Y-27212879D01*
X19241163Y-27146719D01*
X19268776Y-27055695D01*
X19273783Y-27046327D01*
X19277809Y-27033937D01*
X19312802Y-26973326D01*
X19351916Y-26900150D01*
X19362489Y-26887265D01*
X19371885Y-26870993D01*
X19416609Y-26821321D01*
X19463809Y-26763809D01*
X19481371Y-26749395D01*
X19497782Y-26731170D01*
X19548321Y-26694450D01*
X19600150Y-26651916D01*
X19625557Y-26638335D01*
X19650000Y-26620577D01*
X19702573Y-26597169D01*
X19755695Y-26568776D01*
X19789122Y-26558635D01*
X19821885Y-26544049D01*
X19873080Y-26533166D01*
X19924473Y-26517577D01*
X19965377Y-26513548D01*
X20005924Y-26504930D01*
X20052887Y-26504930D01*
X20100000Y-26500290D01*
X20147113Y-26504930D01*
G37*
G36*
X67647113Y-26504930D02*
G01*
X67694076Y-26504930D01*
X67734622Y-26513548D01*
X67775526Y-26517577D01*
X67826916Y-26533166D01*
X67878115Y-26544049D01*
X67910879Y-26558636D01*
X67944304Y-26568776D01*
X67997420Y-26597166D01*
X68050000Y-26620577D01*
X68074445Y-26638337D01*
X68099849Y-26651916D01*
X68151669Y-26694444D01*
X68202218Y-26731170D01*
X68218631Y-26749398D01*
X68236190Y-26763809D01*
X68283379Y-26821308D01*
X68328115Y-26870993D01*
X68337512Y-26887269D01*
X68348083Y-26900150D01*
X68387183Y-26973302D01*
X68422191Y-27033937D01*
X68426218Y-27046331D01*
X68431223Y-27055695D01*
X68458821Y-27146672D01*
X68480333Y-27212879D01*
X68481090Y-27220082D01*
X68482422Y-27224473D01*
X68495378Y-27356032D01*
X68500000Y-27400000D01*
X68495376Y-27443993D01*
X68482422Y-27575526D01*
X68481090Y-27579916D01*
X68480333Y-27587121D01*
X68458816Y-27653341D01*
X68431223Y-27744304D01*
X68426219Y-27753665D01*
X68422191Y-27766063D01*
X68387176Y-27826709D01*
X68348083Y-27899849D01*
X68337514Y-27912726D01*
X68328115Y-27929007D01*
X68283369Y-27978701D01*
X68236190Y-28036190D01*
X68218634Y-28050597D01*
X68202218Y-28068830D01*
X68151659Y-28105563D01*
X68099849Y-28148083D01*
X68074450Y-28161658D01*
X68050000Y-28179423D01*
X67997408Y-28202838D01*
X67944304Y-28231223D01*
X67910886Y-28241360D01*
X67878115Y-28255951D01*
X67826905Y-28266836D01*
X67775526Y-28282422D01*
X67734631Y-28286449D01*
X67694076Y-28295070D01*
X67647103Y-28295070D01*
X67600000Y-28299709D01*
X67552897Y-28295070D01*
X67505924Y-28295070D01*
X67465368Y-28286449D01*
X67424473Y-28282422D01*
X67373091Y-28266835D01*
X67321885Y-28255951D01*
X67289115Y-28241361D01*
X67255695Y-28231223D01*
X67202585Y-28202835D01*
X67150000Y-28179423D01*
X67125552Y-28161660D01*
X67100150Y-28148083D01*
X67048332Y-28105556D01*
X66997782Y-28068830D01*
X66981368Y-28050600D01*
X66963809Y-28036190D01*
X66916618Y-27978688D01*
X66871885Y-27929007D01*
X66862487Y-27912730D01*
X66851916Y-27899849D01*
X66812810Y-27826686D01*
X66777809Y-27766063D01*
X66773782Y-27753670D01*
X66768776Y-27744304D01*
X66741168Y-27653294D01*
X66719667Y-27587121D01*
X66718910Y-27579921D01*
X66717577Y-27575526D01*
X66704606Y-27443831D01*
X66700000Y-27400000D01*
X66704606Y-27356172D01*
X66717577Y-27224473D01*
X66718910Y-27220077D01*
X66719667Y-27212879D01*
X66741163Y-27146719D01*
X66768776Y-27055695D01*
X66773783Y-27046327D01*
X66777809Y-27033937D01*
X66812802Y-26973326D01*
X66851916Y-26900150D01*
X66862489Y-26887265D01*
X66871885Y-26870993D01*
X66916609Y-26821321D01*
X66963809Y-26763809D01*
X66981371Y-26749395D01*
X66997782Y-26731170D01*
X67048321Y-26694450D01*
X67100150Y-26651916D01*
X67125557Y-26638335D01*
X67150000Y-26620577D01*
X67202573Y-26597169D01*
X67255695Y-26568776D01*
X67289122Y-26558635D01*
X67321885Y-26544049D01*
X67373080Y-26533166D01*
X67424473Y-26517577D01*
X67465377Y-26513548D01*
X67505924Y-26504930D01*
X67552887Y-26504930D01*
X67600000Y-26500290D01*
X67647113Y-26504930D01*
G37*
G36*
X74384234Y-28110400D02*
G01*
X72184234Y-28110400D01*
X72184234Y-25910400D01*
X74384234Y-25910400D01*
X74384234Y-28110400D01*
G37*
G36*
X71045263Y-25952392D02*
G01*
X71234546Y-26025720D01*
X71407132Y-26132581D01*
X71557144Y-26269335D01*
X71679473Y-26431325D01*
X71769953Y-26613034D01*
X71825504Y-26808276D01*
X71844234Y-27010400D01*
X71825504Y-27212524D01*
X71769953Y-27407766D01*
X71679473Y-27589475D01*
X71557144Y-27751465D01*
X71407132Y-27888219D01*
X71234546Y-27995080D01*
X71045263Y-28068408D01*
X70845729Y-28105708D01*
X70642739Y-28105708D01*
X70443205Y-28068408D01*
X70253922Y-27995080D01*
X70081336Y-27888219D01*
X69931324Y-27751465D01*
X69808995Y-27589475D01*
X69718515Y-27407766D01*
X69662964Y-27212524D01*
X69644234Y-27010400D01*
X69662964Y-26808276D01*
X69718515Y-26613034D01*
X69808995Y-26431325D01*
X69931324Y-26269335D01*
X70081336Y-26132581D01*
X70253922Y-26025720D01*
X70443205Y-25952392D01*
X70642739Y-25915092D01*
X70845729Y-25915092D01*
X71045263Y-25952392D01*
G37*
G36*
X17062400Y-27429800D02*
G01*
X16262400Y-27429800D01*
X16262400Y-25529800D01*
X17062400Y-25529800D01*
X17062400Y-27429800D01*
G37*
G36*
X16112400Y-24429800D02*
G01*
X15312400Y-24429800D01*
X15312400Y-22529800D01*
X16112400Y-22529800D01*
X16112400Y-24429800D01*
G37*
G36*
X18012400Y-24429800D02*
G01*
X17212400Y-24429800D01*
X17212400Y-22529800D01*
X18012400Y-22529800D01*
X18012400Y-24429800D01*
G37*
G36*
X20147113Y-21504930D02*
G01*
X20194076Y-21504930D01*
X20234622Y-21513548D01*
X20275526Y-21517577D01*
X20326916Y-21533166D01*
X20378115Y-21544049D01*
X20410879Y-21558636D01*
X20444304Y-21568776D01*
X20497420Y-21597166D01*
X20550000Y-21620577D01*
X20574445Y-21638337D01*
X20599849Y-21651916D01*
X20651669Y-21694444D01*
X20702218Y-21731170D01*
X20718631Y-21749398D01*
X20736190Y-21763809D01*
X20783379Y-21821308D01*
X20828115Y-21870993D01*
X20837512Y-21887269D01*
X20848083Y-21900150D01*
X20887183Y-21973302D01*
X20922191Y-22033937D01*
X20926218Y-22046331D01*
X20931223Y-22055695D01*
X20958821Y-22146672D01*
X20980333Y-22212879D01*
X20981090Y-22220082D01*
X20982422Y-22224473D01*
X20995377Y-22356021D01*
X21000000Y-22400000D01*
X20995377Y-22443982D01*
X20982422Y-22575526D01*
X20981090Y-22579916D01*
X20980333Y-22587121D01*
X20958816Y-22653341D01*
X20931223Y-22744304D01*
X20926219Y-22753665D01*
X20922191Y-22766063D01*
X20887176Y-22826709D01*
X20848083Y-22899849D01*
X20837514Y-22912726D01*
X20828115Y-22929007D01*
X20783369Y-22978701D01*
X20736190Y-23036190D01*
X20718634Y-23050597D01*
X20702218Y-23068830D01*
X20651659Y-23105563D01*
X20599849Y-23148083D01*
X20574450Y-23161658D01*
X20550000Y-23179423D01*
X20497408Y-23202838D01*
X20444304Y-23231223D01*
X20410886Y-23241360D01*
X20378115Y-23255951D01*
X20326905Y-23266836D01*
X20275526Y-23282422D01*
X20234631Y-23286449D01*
X20194076Y-23295070D01*
X20147103Y-23295070D01*
X20100000Y-23299709D01*
X20052897Y-23295070D01*
X20005924Y-23295070D01*
X19965368Y-23286449D01*
X19924473Y-23282422D01*
X19873091Y-23266835D01*
X19821885Y-23255951D01*
X19789115Y-23241361D01*
X19755695Y-23231223D01*
X19702585Y-23202835D01*
X19650000Y-23179423D01*
X19625552Y-23161660D01*
X19600150Y-23148083D01*
X19548332Y-23105556D01*
X19497782Y-23068830D01*
X19481368Y-23050600D01*
X19463809Y-23036190D01*
X19416618Y-22978688D01*
X19371885Y-22929007D01*
X19362487Y-22912730D01*
X19351916Y-22899849D01*
X19312810Y-22826686D01*
X19277809Y-22766063D01*
X19273782Y-22753670D01*
X19268776Y-22744304D01*
X19241168Y-22653294D01*
X19219667Y-22587121D01*
X19218910Y-22579921D01*
X19217577Y-22575526D01*
X19204606Y-22443831D01*
X19200000Y-22400000D01*
X19204606Y-22356172D01*
X19217577Y-22224473D01*
X19218910Y-22220077D01*
X19219667Y-22212879D01*
X19241163Y-22146719D01*
X19268776Y-22055695D01*
X19273783Y-22046327D01*
X19277809Y-22033937D01*
X19312802Y-21973326D01*
X19351916Y-21900150D01*
X19362489Y-21887265D01*
X19371885Y-21870993D01*
X19416609Y-21821321D01*
X19463809Y-21763809D01*
X19481371Y-21749395D01*
X19497782Y-21731170D01*
X19548321Y-21694450D01*
X19600150Y-21651916D01*
X19625557Y-21638335D01*
X19650000Y-21620577D01*
X19702573Y-21597169D01*
X19755695Y-21568776D01*
X19789122Y-21558635D01*
X19821885Y-21544049D01*
X19873080Y-21533166D01*
X19924473Y-21517577D01*
X19965377Y-21513548D01*
X20005924Y-21504930D01*
X20052887Y-21504930D01*
X20100000Y-21500290D01*
X20147113Y-21504930D01*
G37*
G36*
X67647113Y-21504930D02*
G01*
X67694076Y-21504930D01*
X67734622Y-21513548D01*
X67775526Y-21517577D01*
X67826916Y-21533166D01*
X67878115Y-21544049D01*
X67910879Y-21558636D01*
X67944304Y-21568776D01*
X67997420Y-21597166D01*
X68050000Y-21620577D01*
X68074445Y-21638337D01*
X68099849Y-21651916D01*
X68151669Y-21694444D01*
X68202218Y-21731170D01*
X68218631Y-21749398D01*
X68236190Y-21763809D01*
X68283379Y-21821308D01*
X68328115Y-21870993D01*
X68337512Y-21887269D01*
X68348083Y-21900150D01*
X68387183Y-21973302D01*
X68422191Y-22033937D01*
X68426218Y-22046331D01*
X68431223Y-22055695D01*
X68458821Y-22146672D01*
X68480333Y-22212879D01*
X68481090Y-22220082D01*
X68482422Y-22224473D01*
X68495377Y-22356021D01*
X68500000Y-22400000D01*
X68495377Y-22443982D01*
X68482422Y-22575526D01*
X68481090Y-22579916D01*
X68480333Y-22587121D01*
X68458816Y-22653341D01*
X68431223Y-22744304D01*
X68426219Y-22753665D01*
X68422191Y-22766063D01*
X68387176Y-22826709D01*
X68348083Y-22899849D01*
X68337514Y-22912726D01*
X68328115Y-22929007D01*
X68283369Y-22978701D01*
X68236190Y-23036190D01*
X68218634Y-23050597D01*
X68202218Y-23068830D01*
X68151659Y-23105563D01*
X68099849Y-23148083D01*
X68074450Y-23161658D01*
X68050000Y-23179423D01*
X67997408Y-23202838D01*
X67944304Y-23231223D01*
X67910886Y-23241360D01*
X67878115Y-23255951D01*
X67826905Y-23266836D01*
X67775526Y-23282422D01*
X67734631Y-23286449D01*
X67694076Y-23295070D01*
X67647103Y-23295070D01*
X67600000Y-23299709D01*
X67552897Y-23295070D01*
X67505924Y-23295070D01*
X67465368Y-23286449D01*
X67424473Y-23282422D01*
X67373091Y-23266835D01*
X67321885Y-23255951D01*
X67289115Y-23241361D01*
X67255695Y-23231223D01*
X67202585Y-23202835D01*
X67150000Y-23179423D01*
X67125552Y-23161660D01*
X67100150Y-23148083D01*
X67048332Y-23105556D01*
X66997782Y-23068830D01*
X66981368Y-23050600D01*
X66963809Y-23036190D01*
X66916618Y-22978688D01*
X66871885Y-22929007D01*
X66862487Y-22912730D01*
X66851916Y-22899849D01*
X66812810Y-22826686D01*
X66777809Y-22766063D01*
X66773782Y-22753670D01*
X66768776Y-22744304D01*
X66741168Y-22653294D01*
X66719667Y-22587121D01*
X66718910Y-22579921D01*
X66717577Y-22575526D01*
X66704607Y-22443842D01*
X66700000Y-22400000D01*
X66704605Y-22356183D01*
X66717577Y-22224473D01*
X66718910Y-22220077D01*
X66719667Y-22212879D01*
X66741163Y-22146719D01*
X66768776Y-22055695D01*
X66773783Y-22046327D01*
X66777809Y-22033937D01*
X66812802Y-21973326D01*
X66851916Y-21900150D01*
X66862489Y-21887265D01*
X66871885Y-21870993D01*
X66916609Y-21821321D01*
X66963809Y-21763809D01*
X66981371Y-21749395D01*
X66997782Y-21731170D01*
X67048321Y-21694450D01*
X67100150Y-21651916D01*
X67125557Y-21638335D01*
X67150000Y-21620577D01*
X67202573Y-21597169D01*
X67255695Y-21568776D01*
X67289122Y-21558635D01*
X67321885Y-21544049D01*
X67373080Y-21533166D01*
X67424473Y-21517577D01*
X67465377Y-21513548D01*
X67505924Y-21504930D01*
X67552887Y-21504930D01*
X67600000Y-21500290D01*
X67647113Y-21504930D01*
G37*
G36*
X71683191Y-21109711D02*
G01*
X71724968Y-21109711D01*
X71772098Y-21119728D01*
X71819397Y-21125058D01*
X71853788Y-21137092D01*
X71888490Y-21144468D01*
X71938497Y-21166733D01*
X71988487Y-21184225D01*
X72014508Y-21200575D01*
X72041215Y-21212466D01*
X72091013Y-21248646D01*
X72140172Y-21279535D01*
X72157824Y-21297187D01*
X72176464Y-21310730D01*
X72222545Y-21361908D01*
X72266845Y-21406208D01*
X72277034Y-21422424D01*
X72288326Y-21434965D01*
X72326953Y-21501870D01*
X72362155Y-21557893D01*
X72366550Y-21570453D01*
X72371915Y-21579746D01*
X72399390Y-21664305D01*
X72421322Y-21726983D01*
X72422153Y-21734363D01*
X72423575Y-21738738D01*
X72436456Y-21861306D01*
X72441380Y-21905000D01*
X72436456Y-21948697D01*
X72423575Y-22071261D01*
X72422153Y-22075635D01*
X72421322Y-22083017D01*
X72399385Y-22145707D01*
X72371915Y-22230253D01*
X72366551Y-22239543D01*
X72362155Y-22252107D01*
X72326946Y-22308140D01*
X72288326Y-22375034D01*
X72277036Y-22387572D01*
X72266845Y-22403792D01*
X72222535Y-22448101D01*
X72176464Y-22499269D01*
X72157828Y-22512808D01*
X72140172Y-22530465D01*
X72091003Y-22561359D01*
X72041215Y-22597533D01*
X72014514Y-22609421D01*
X71988487Y-22625775D01*
X71938487Y-22643270D01*
X71888490Y-22665531D01*
X71853794Y-22672905D01*
X71819397Y-22684942D01*
X71772095Y-22690271D01*
X71724968Y-22700289D01*
X71683191Y-22700289D01*
X71641380Y-22705000D01*
X71599569Y-22700289D01*
X71557792Y-22700289D01*
X71510664Y-22690271D01*
X71463363Y-22684942D01*
X71428966Y-22672906D01*
X71394269Y-22665531D01*
X71344267Y-22643268D01*
X71294273Y-22625775D01*
X71268248Y-22609422D01*
X71241544Y-22597533D01*
X71191749Y-22561355D01*
X71142588Y-22530465D01*
X71124934Y-22512811D01*
X71106295Y-22499269D01*
X71060213Y-22448090D01*
X71015915Y-22403792D01*
X71005725Y-22387575D01*
X70994433Y-22375034D01*
X70955800Y-22308120D01*
X70920605Y-22252107D01*
X70916210Y-22239547D01*
X70910844Y-22230253D01*
X70883360Y-22145667D01*
X70861438Y-22083017D01*
X70860606Y-22075639D01*
X70859184Y-22071261D01*
X70846288Y-21948565D01*
X70841380Y-21905000D01*
X70846288Y-21861438D01*
X70859184Y-21738738D01*
X70860606Y-21734358D01*
X70861438Y-21726983D01*
X70883355Y-21664345D01*
X70910844Y-21579746D01*
X70916211Y-21570449D01*
X70920605Y-21557893D01*
X70955793Y-21501890D01*
X70994433Y-21434965D01*
X71005727Y-21422421D01*
X71015915Y-21406208D01*
X71060206Y-21361916D01*
X71106297Y-21310728D01*
X71124939Y-21297183D01*
X71142588Y-21279535D01*
X71191734Y-21248654D01*
X71241542Y-21212467D01*
X71268253Y-21200574D01*
X71294273Y-21184225D01*
X71344257Y-21166734D01*
X71394269Y-21144468D01*
X71428972Y-21137091D01*
X71463363Y-21125058D01*
X71510661Y-21119728D01*
X71557792Y-21109711D01*
X71599569Y-21109711D01*
X71641380Y-21105000D01*
X71683191Y-21109711D01*
G37*
G36*
X74941380Y-22705000D02*
G01*
X73341380Y-22705000D01*
X73341380Y-21105000D01*
X74941380Y-21105000D01*
X74941380Y-22705000D01*
G37*
G36*
X16017250Y-20165964D02*
G01*
X16067440Y-20171787D01*
X16084589Y-20179359D01*
X16108071Y-20184030D01*
X16133210Y-20200827D01*
X16153096Y-20209608D01*
X16166677Y-20223189D01*
X16189177Y-20238223D01*
X16204210Y-20260722D01*
X16217791Y-20274303D01*
X16226570Y-20294186D01*
X16243370Y-20319329D01*
X16248041Y-20342812D01*
X16255612Y-20359959D01*
X16261433Y-20410139D01*
X16262400Y-20415000D01*
X16262400Y-21315000D01*
X16261432Y-21319863D01*
X16255612Y-21370040D01*
X16248041Y-21387185D01*
X16243370Y-21410671D01*
X16226569Y-21435815D01*
X16217791Y-21455696D01*
X16204212Y-21469274D01*
X16189177Y-21491777D01*
X16166674Y-21506812D01*
X16153096Y-21520391D01*
X16133215Y-21529169D01*
X16108071Y-21545970D01*
X16084585Y-21550641D01*
X16067440Y-21558212D01*
X16017261Y-21564032D01*
X16012400Y-21565000D01*
X15312400Y-21565000D01*
X15307538Y-21564032D01*
X15257359Y-21558212D01*
X15240212Y-21550641D01*
X15216729Y-21545970D01*
X15191586Y-21529170D01*
X15171703Y-21520391D01*
X15158122Y-21506810D01*
X15135623Y-21491777D01*
X15120589Y-21469277D01*
X15107008Y-21455696D01*
X15098227Y-21435810D01*
X15081430Y-21410671D01*
X15076759Y-21387189D01*
X15069187Y-21370040D01*
X15063364Y-21319849D01*
X15062400Y-21315000D01*
X15062400Y-20415000D01*
X15063364Y-20410150D01*
X15069187Y-20359959D01*
X15076759Y-20342808D01*
X15081430Y-20319329D01*
X15098226Y-20294191D01*
X15107008Y-20274303D01*
X15120591Y-20260719D01*
X15135623Y-20238223D01*
X15158119Y-20223191D01*
X15171703Y-20209608D01*
X15191591Y-20200826D01*
X15216729Y-20184030D01*
X15240208Y-20179359D01*
X15257359Y-20171787D01*
X15307551Y-20165964D01*
X15312400Y-20165000D01*
X16012400Y-20165000D01*
X16017250Y-20165964D01*
G37*
G36*
X18017250Y-20165964D02*
G01*
X18067440Y-20171787D01*
X18084589Y-20179359D01*
X18108071Y-20184030D01*
X18133210Y-20200827D01*
X18153096Y-20209608D01*
X18166677Y-20223189D01*
X18189177Y-20238223D01*
X18204210Y-20260722D01*
X18217791Y-20274303D01*
X18226570Y-20294186D01*
X18243370Y-20319329D01*
X18248041Y-20342812D01*
X18255612Y-20359959D01*
X18261433Y-20410139D01*
X18262400Y-20415000D01*
X18262400Y-21315000D01*
X18261432Y-21319863D01*
X18255612Y-21370040D01*
X18248041Y-21387185D01*
X18243370Y-21410671D01*
X18226569Y-21435815D01*
X18217791Y-21455696D01*
X18204212Y-21469274D01*
X18189177Y-21491777D01*
X18166674Y-21506812D01*
X18153096Y-21520391D01*
X18133215Y-21529169D01*
X18108071Y-21545970D01*
X18084585Y-21550641D01*
X18067440Y-21558212D01*
X18017261Y-21564032D01*
X18012400Y-21565000D01*
X17312400Y-21565000D01*
X17307538Y-21564032D01*
X17257359Y-21558212D01*
X17240212Y-21550641D01*
X17216729Y-21545970D01*
X17191586Y-21529170D01*
X17171703Y-21520391D01*
X17158122Y-21506810D01*
X17135623Y-21491777D01*
X17120589Y-21469277D01*
X17107008Y-21455696D01*
X17098227Y-21435810D01*
X17081430Y-21410671D01*
X17076759Y-21387189D01*
X17069187Y-21370040D01*
X17063364Y-21319849D01*
X17062400Y-21315000D01*
X17062400Y-20415000D01*
X17063364Y-20410150D01*
X17069187Y-20359959D01*
X17076759Y-20342808D01*
X17081430Y-20319329D01*
X17098226Y-20294191D01*
X17107008Y-20274303D01*
X17120591Y-20260719D01*
X17135623Y-20238223D01*
X17158119Y-20223191D01*
X17171703Y-20209608D01*
X17191591Y-20200826D01*
X17216729Y-20184030D01*
X17240208Y-20179359D01*
X17257359Y-20171787D01*
X17307551Y-20165964D01*
X17312400Y-20165000D01*
X18012400Y-20165000D01*
X18017250Y-20165964D01*
G37*
G36*
X54017621Y-20400000D02*
G01*
X52417621Y-20400000D01*
X52417621Y-18800000D01*
X54017621Y-18800000D01*
X54017621Y-20400000D01*
G37*
G36*
X55759432Y-18804711D02*
G01*
X55801209Y-18804711D01*
X55848339Y-18814728D01*
X55895638Y-18820058D01*
X55930029Y-18832092D01*
X55964731Y-18839468D01*
X56014738Y-18861733D01*
X56064728Y-18879225D01*
X56090749Y-18895575D01*
X56117456Y-18907466D01*
X56167254Y-18943646D01*
X56216413Y-18974535D01*
X56234065Y-18992187D01*
X56252705Y-19005730D01*
X56298786Y-19056908D01*
X56343086Y-19101208D01*
X56353275Y-19117424D01*
X56364567Y-19129965D01*
X56403194Y-19196870D01*
X56438396Y-19252893D01*
X56442791Y-19265453D01*
X56448156Y-19274746D01*
X56475631Y-19359305D01*
X56497563Y-19421983D01*
X56498394Y-19429363D01*
X56499816Y-19433738D01*
X56512697Y-19556306D01*
X56517621Y-19600000D01*
X56512697Y-19643697D01*
X56499816Y-19766261D01*
X56498394Y-19770635D01*
X56497563Y-19778017D01*
X56475626Y-19840707D01*
X56448156Y-19925253D01*
X56442792Y-19934543D01*
X56438396Y-19947107D01*
X56403187Y-20003140D01*
X56364567Y-20070034D01*
X56353277Y-20082572D01*
X56343086Y-20098792D01*
X56298776Y-20143101D01*
X56252705Y-20194269D01*
X56234069Y-20207808D01*
X56216413Y-20225465D01*
X56167244Y-20256359D01*
X56117456Y-20292533D01*
X56090755Y-20304421D01*
X56064728Y-20320775D01*
X56014728Y-20338270D01*
X55964731Y-20360531D01*
X55930035Y-20367905D01*
X55895638Y-20379942D01*
X55848336Y-20385271D01*
X55801209Y-20395289D01*
X55759432Y-20395289D01*
X55717621Y-20400000D01*
X55675810Y-20395289D01*
X55634033Y-20395289D01*
X55586905Y-20385271D01*
X55539604Y-20379942D01*
X55505207Y-20367906D01*
X55470510Y-20360531D01*
X55420508Y-20338268D01*
X55370514Y-20320775D01*
X55344489Y-20304422D01*
X55317785Y-20292533D01*
X55267990Y-20256355D01*
X55218829Y-20225465D01*
X55201175Y-20207811D01*
X55182536Y-20194269D01*
X55136454Y-20143090D01*
X55092156Y-20098792D01*
X55081966Y-20082575D01*
X55070674Y-20070034D01*
X55032041Y-20003120D01*
X54996846Y-19947107D01*
X54992451Y-19934547D01*
X54987085Y-19925253D01*
X54959601Y-19840667D01*
X54937679Y-19778017D01*
X54936847Y-19770639D01*
X54935425Y-19766261D01*
X54922529Y-19643565D01*
X54917621Y-19600000D01*
X54922529Y-19556438D01*
X54935425Y-19433738D01*
X54936847Y-19429358D01*
X54937679Y-19421983D01*
X54959596Y-19359345D01*
X54987085Y-19274746D01*
X54992452Y-19265449D01*
X54996846Y-19252893D01*
X55032034Y-19196890D01*
X55070674Y-19129965D01*
X55081968Y-19117421D01*
X55092156Y-19101208D01*
X55136447Y-19056916D01*
X55182538Y-19005728D01*
X55201180Y-18992183D01*
X55218829Y-18974535D01*
X55267975Y-18943654D01*
X55317783Y-18907467D01*
X55344494Y-18895574D01*
X55370514Y-18879225D01*
X55420498Y-18861734D01*
X55470510Y-18839468D01*
X55505213Y-18832091D01*
X55539604Y-18820058D01*
X55586902Y-18814728D01*
X55634033Y-18804711D01*
X55675810Y-18804711D01*
X55717621Y-18800000D01*
X55759432Y-18804711D01*
G37*
G36*
X23829000Y-18335200D02*
G01*
X23029000Y-18335200D01*
X23029000Y-16435200D01*
X23829000Y-16435200D01*
X23829000Y-18335200D01*
G37*
G36*
X27842200Y-18335200D02*
G01*
X27042200Y-18335200D01*
X27042200Y-16435200D01*
X27842200Y-16435200D01*
X27842200Y-18335200D01*
G37*
G36*
X15147113Y-16504930D02*
G01*
X15194076Y-16504930D01*
X15234622Y-16513548D01*
X15275526Y-16517577D01*
X15326916Y-16533166D01*
X15378115Y-16544049D01*
X15410879Y-16558636D01*
X15444304Y-16568776D01*
X15497420Y-16597166D01*
X15550000Y-16620577D01*
X15574445Y-16638337D01*
X15599849Y-16651916D01*
X15651669Y-16694444D01*
X15702218Y-16731170D01*
X15718631Y-16749398D01*
X15736190Y-16763809D01*
X15783379Y-16821308D01*
X15828115Y-16870993D01*
X15837512Y-16887269D01*
X15848083Y-16900150D01*
X15887183Y-16973302D01*
X15922191Y-17033937D01*
X15926218Y-17046331D01*
X15931223Y-17055695D01*
X15958821Y-17146672D01*
X15980333Y-17212879D01*
X15981090Y-17220082D01*
X15982422Y-17224473D01*
X15995377Y-17356021D01*
X16000000Y-17400000D01*
X15995377Y-17443982D01*
X15982422Y-17575526D01*
X15981090Y-17579916D01*
X15980333Y-17587121D01*
X15958816Y-17653341D01*
X15931223Y-17744304D01*
X15926219Y-17753665D01*
X15922191Y-17766063D01*
X15887176Y-17826709D01*
X15848083Y-17899849D01*
X15837514Y-17912726D01*
X15828115Y-17929007D01*
X15783369Y-17978701D01*
X15736190Y-18036190D01*
X15718634Y-18050597D01*
X15702218Y-18068830D01*
X15651659Y-18105563D01*
X15599849Y-18148083D01*
X15574450Y-18161658D01*
X15550000Y-18179423D01*
X15497408Y-18202838D01*
X15444304Y-18231223D01*
X15410886Y-18241360D01*
X15378115Y-18255951D01*
X15326905Y-18266836D01*
X15275526Y-18282422D01*
X15234631Y-18286449D01*
X15194076Y-18295070D01*
X15147103Y-18295070D01*
X15100000Y-18299709D01*
X15052897Y-18295070D01*
X15005924Y-18295070D01*
X14965368Y-18286449D01*
X14924473Y-18282422D01*
X14873091Y-18266835D01*
X14821885Y-18255951D01*
X14789115Y-18241361D01*
X14755695Y-18231223D01*
X14702585Y-18202835D01*
X14650000Y-18179423D01*
X14625552Y-18161660D01*
X14600150Y-18148083D01*
X14548332Y-18105556D01*
X14497782Y-18068830D01*
X14481368Y-18050600D01*
X14463809Y-18036190D01*
X14416618Y-17978688D01*
X14371885Y-17929007D01*
X14362487Y-17912730D01*
X14351916Y-17899849D01*
X14312810Y-17826686D01*
X14277809Y-17766063D01*
X14273782Y-17753670D01*
X14268776Y-17744304D01*
X14241168Y-17653294D01*
X14219667Y-17587121D01*
X14218910Y-17579921D01*
X14217577Y-17575526D01*
X14204606Y-17443831D01*
X14200000Y-17400000D01*
X14204606Y-17356172D01*
X14217577Y-17224473D01*
X14218910Y-17220077D01*
X14219667Y-17212879D01*
X14241163Y-17146719D01*
X14268776Y-17055695D01*
X14273783Y-17046327D01*
X14277809Y-17033937D01*
X14312802Y-16973326D01*
X14351916Y-16900150D01*
X14362489Y-16887265D01*
X14371885Y-16870993D01*
X14416609Y-16821321D01*
X14463809Y-16763809D01*
X14481371Y-16749395D01*
X14497782Y-16731170D01*
X14548321Y-16694450D01*
X14600150Y-16651916D01*
X14625557Y-16638335D01*
X14650000Y-16620577D01*
X14702573Y-16597169D01*
X14755695Y-16568776D01*
X14789122Y-16558635D01*
X14821885Y-16544049D01*
X14873080Y-16533166D01*
X14924473Y-16517577D01*
X14965377Y-16513548D01*
X15005924Y-16504930D01*
X15052887Y-16504930D01*
X15100000Y-16500290D01*
X15147113Y-16504930D01*
G37*
G36*
X20147113Y-16504930D02*
G01*
X20194076Y-16504930D01*
X20234622Y-16513548D01*
X20275526Y-16517577D01*
X20326916Y-16533166D01*
X20378115Y-16544049D01*
X20410879Y-16558636D01*
X20444304Y-16568776D01*
X20497420Y-16597166D01*
X20550000Y-16620577D01*
X20574445Y-16638337D01*
X20599849Y-16651916D01*
X20651669Y-16694444D01*
X20702218Y-16731170D01*
X20718631Y-16749398D01*
X20736190Y-16763809D01*
X20783379Y-16821308D01*
X20828115Y-16870993D01*
X20837512Y-16887269D01*
X20848083Y-16900150D01*
X20887183Y-16973302D01*
X20922191Y-17033937D01*
X20926218Y-17046331D01*
X20931223Y-17055695D01*
X20958821Y-17146672D01*
X20980333Y-17212879D01*
X20981090Y-17220082D01*
X20982422Y-17224473D01*
X20995377Y-17356021D01*
X21000000Y-17400000D01*
X20995377Y-17443982D01*
X20982422Y-17575526D01*
X20981090Y-17579916D01*
X20980333Y-17587121D01*
X20958816Y-17653341D01*
X20931223Y-17744304D01*
X20926219Y-17753665D01*
X20922191Y-17766063D01*
X20887176Y-17826709D01*
X20848083Y-17899849D01*
X20837514Y-17912726D01*
X20828115Y-17929007D01*
X20783369Y-17978701D01*
X20736190Y-18036190D01*
X20718634Y-18050597D01*
X20702218Y-18068830D01*
X20651659Y-18105563D01*
X20599849Y-18148083D01*
X20574450Y-18161658D01*
X20550000Y-18179423D01*
X20497408Y-18202838D01*
X20444304Y-18231223D01*
X20410886Y-18241360D01*
X20378115Y-18255951D01*
X20326905Y-18266836D01*
X20275526Y-18282422D01*
X20234631Y-18286449D01*
X20194076Y-18295070D01*
X20147103Y-18295070D01*
X20100000Y-18299709D01*
X20052897Y-18295070D01*
X20005924Y-18295070D01*
X19965368Y-18286449D01*
X19924473Y-18282422D01*
X19873091Y-18266835D01*
X19821885Y-18255951D01*
X19789115Y-18241361D01*
X19755695Y-18231223D01*
X19702585Y-18202835D01*
X19650000Y-18179423D01*
X19625552Y-18161660D01*
X19600150Y-18148083D01*
X19548332Y-18105556D01*
X19497782Y-18068830D01*
X19481368Y-18050600D01*
X19463809Y-18036190D01*
X19416618Y-17978688D01*
X19371885Y-17929007D01*
X19362487Y-17912730D01*
X19351916Y-17899849D01*
X19312810Y-17826686D01*
X19277809Y-17766063D01*
X19273782Y-17753670D01*
X19268776Y-17744304D01*
X19241168Y-17653294D01*
X19219667Y-17587121D01*
X19218910Y-17579921D01*
X19217577Y-17575526D01*
X19204606Y-17443831D01*
X19200000Y-17400000D01*
X19204606Y-17356172D01*
X19217577Y-17224473D01*
X19218910Y-17220077D01*
X19219667Y-17212879D01*
X19241163Y-17146719D01*
X19268776Y-17055695D01*
X19273783Y-17046327D01*
X19277809Y-17033937D01*
X19312802Y-16973326D01*
X19351916Y-16900150D01*
X19362489Y-16887265D01*
X19371885Y-16870993D01*
X19416609Y-16821321D01*
X19463809Y-16763809D01*
X19481371Y-16749395D01*
X19497782Y-16731170D01*
X19548321Y-16694450D01*
X19600150Y-16651916D01*
X19625557Y-16638335D01*
X19650000Y-16620577D01*
X19702573Y-16597169D01*
X19755695Y-16568776D01*
X19789122Y-16558635D01*
X19821885Y-16544049D01*
X19873080Y-16533166D01*
X19924473Y-16517577D01*
X19965377Y-16513548D01*
X20005924Y-16504930D01*
X20052887Y-16504930D01*
X20100000Y-16500290D01*
X20147113Y-16504930D01*
G37*
G36*
X67647112Y-16504930D02*
G01*
X67694076Y-16504930D01*
X67734623Y-16513548D01*
X67775526Y-16517577D01*
X67826916Y-16533166D01*
X67878115Y-16544049D01*
X67910879Y-16558636D01*
X67944304Y-16568776D01*
X67997420Y-16597166D01*
X68050000Y-16620577D01*
X68074445Y-16638337D01*
X68099849Y-16651916D01*
X68151669Y-16694444D01*
X68202218Y-16731170D01*
X68218631Y-16749398D01*
X68236190Y-16763809D01*
X68283379Y-16821308D01*
X68328115Y-16870993D01*
X68337512Y-16887269D01*
X68348083Y-16900150D01*
X68387183Y-16973302D01*
X68422191Y-17033937D01*
X68426218Y-17046331D01*
X68431223Y-17055695D01*
X68458821Y-17146672D01*
X68480333Y-17212879D01*
X68481090Y-17220082D01*
X68482422Y-17224473D01*
X68495377Y-17356021D01*
X68500000Y-17400000D01*
X68495377Y-17443982D01*
X68482422Y-17575526D01*
X68481090Y-17579916D01*
X68480333Y-17587121D01*
X68458816Y-17653341D01*
X68431223Y-17744304D01*
X68426219Y-17753665D01*
X68422191Y-17766063D01*
X68387176Y-17826709D01*
X68348083Y-17899849D01*
X68337514Y-17912726D01*
X68328115Y-17929007D01*
X68283369Y-17978701D01*
X68236190Y-18036190D01*
X68218634Y-18050597D01*
X68202218Y-18068830D01*
X68151659Y-18105563D01*
X68099849Y-18148083D01*
X68074450Y-18161658D01*
X68050000Y-18179423D01*
X67997408Y-18202838D01*
X67944304Y-18231223D01*
X67910886Y-18241360D01*
X67878115Y-18255951D01*
X67826905Y-18266836D01*
X67775526Y-18282422D01*
X67734631Y-18286449D01*
X67694076Y-18295070D01*
X67647103Y-18295070D01*
X67600000Y-18299709D01*
X67552897Y-18295070D01*
X67505924Y-18295070D01*
X67465368Y-18286449D01*
X67424473Y-18282422D01*
X67373091Y-18266835D01*
X67321885Y-18255951D01*
X67289115Y-18241361D01*
X67255695Y-18231223D01*
X67202585Y-18202835D01*
X67150000Y-18179423D01*
X67125552Y-18161660D01*
X67100150Y-18148083D01*
X67048332Y-18105556D01*
X66997782Y-18068830D01*
X66981368Y-18050600D01*
X66963809Y-18036190D01*
X66916618Y-17978688D01*
X66871885Y-17929007D01*
X66862487Y-17912730D01*
X66851916Y-17899849D01*
X66812810Y-17826686D01*
X66777809Y-17766063D01*
X66773782Y-17753670D01*
X66768776Y-17744304D01*
X66741168Y-17653294D01*
X66719667Y-17587121D01*
X66718910Y-17579921D01*
X66717577Y-17575526D01*
X66704606Y-17443831D01*
X66700000Y-17400000D01*
X66704606Y-17356172D01*
X66717577Y-17224473D01*
X66718910Y-17220077D01*
X66719667Y-17212879D01*
X66741163Y-17146719D01*
X66768776Y-17055695D01*
X66773783Y-17046327D01*
X66777809Y-17033937D01*
X66812802Y-16973326D01*
X66851916Y-16900150D01*
X66862489Y-16887265D01*
X66871885Y-16870993D01*
X66916609Y-16821321D01*
X66963809Y-16763809D01*
X66981371Y-16749395D01*
X66997782Y-16731170D01*
X67048321Y-16694450D01*
X67100150Y-16651916D01*
X67125557Y-16638335D01*
X67150000Y-16620577D01*
X67202573Y-16597169D01*
X67255695Y-16568776D01*
X67289122Y-16558635D01*
X67321885Y-16544049D01*
X67373080Y-16533166D01*
X67424473Y-16517577D01*
X67465377Y-16513548D01*
X67505924Y-16504930D01*
X67552886Y-16504930D01*
X67599999Y-16500290D01*
X67647112Y-16504930D01*
G37*
G36*
X72647112Y-16504930D02*
G01*
X72694076Y-16504930D01*
X72734623Y-16513548D01*
X72775526Y-16517577D01*
X72826916Y-16533166D01*
X72878115Y-16544049D01*
X72910879Y-16558636D01*
X72944304Y-16568776D01*
X72997420Y-16597166D01*
X73050000Y-16620577D01*
X73074445Y-16638337D01*
X73099849Y-16651916D01*
X73151669Y-16694444D01*
X73202218Y-16731170D01*
X73218631Y-16749398D01*
X73236190Y-16763809D01*
X73283379Y-16821308D01*
X73328115Y-16870993D01*
X73337512Y-16887269D01*
X73348083Y-16900150D01*
X73387183Y-16973302D01*
X73422191Y-17033937D01*
X73426218Y-17046331D01*
X73431223Y-17055695D01*
X73458821Y-17146672D01*
X73480333Y-17212879D01*
X73481090Y-17220082D01*
X73482422Y-17224473D01*
X73495378Y-17356032D01*
X73500000Y-17400000D01*
X73495376Y-17443993D01*
X73482422Y-17575526D01*
X73481090Y-17579916D01*
X73480333Y-17587121D01*
X73458816Y-17653341D01*
X73431223Y-17744304D01*
X73426219Y-17753665D01*
X73422191Y-17766063D01*
X73387176Y-17826709D01*
X73348083Y-17899849D01*
X73337514Y-17912726D01*
X73328115Y-17929007D01*
X73283369Y-17978701D01*
X73236190Y-18036190D01*
X73218634Y-18050597D01*
X73202218Y-18068830D01*
X73151659Y-18105563D01*
X73099849Y-18148083D01*
X73074450Y-18161658D01*
X73050000Y-18179423D01*
X72997408Y-18202838D01*
X72944304Y-18231223D01*
X72910886Y-18241360D01*
X72878115Y-18255951D01*
X72826905Y-18266836D01*
X72775526Y-18282422D01*
X72734631Y-18286449D01*
X72694076Y-18295070D01*
X72647103Y-18295070D01*
X72600000Y-18299709D01*
X72552897Y-18295070D01*
X72505924Y-18295070D01*
X72465368Y-18286449D01*
X72424473Y-18282422D01*
X72373091Y-18266835D01*
X72321885Y-18255951D01*
X72289115Y-18241361D01*
X72255695Y-18231223D01*
X72202585Y-18202835D01*
X72150000Y-18179423D01*
X72125552Y-18161660D01*
X72100150Y-18148083D01*
X72048332Y-18105556D01*
X71997782Y-18068830D01*
X71981368Y-18050600D01*
X71963809Y-18036190D01*
X71916618Y-17978688D01*
X71871885Y-17929007D01*
X71862487Y-17912730D01*
X71851916Y-17899849D01*
X71812810Y-17826686D01*
X71777809Y-17766063D01*
X71773782Y-17753670D01*
X71768776Y-17744304D01*
X71741168Y-17653294D01*
X71719667Y-17587121D01*
X71718910Y-17579921D01*
X71717577Y-17575526D01*
X71704606Y-17443831D01*
X71700000Y-17400000D01*
X71704606Y-17356172D01*
X71717577Y-17224473D01*
X71718910Y-17220077D01*
X71719667Y-17212879D01*
X71741163Y-17146719D01*
X71768776Y-17055695D01*
X71773783Y-17046327D01*
X71777809Y-17033937D01*
X71812802Y-16973326D01*
X71851916Y-16900150D01*
X71862489Y-16887265D01*
X71871885Y-16870993D01*
X71916609Y-16821321D01*
X71963809Y-16763809D01*
X71981371Y-16749395D01*
X71997782Y-16731170D01*
X72048321Y-16694450D01*
X72100150Y-16651916D01*
X72125557Y-16638335D01*
X72150000Y-16620577D01*
X72202573Y-16597169D01*
X72255695Y-16568776D01*
X72289122Y-16558635D01*
X72321885Y-16544049D01*
X72373080Y-16533166D01*
X72424473Y-16517577D01*
X72465377Y-16513548D01*
X72505924Y-16504930D01*
X72552886Y-16504930D01*
X72599999Y-16500290D01*
X72647112Y-16504930D01*
G37*
G36*
X20480250Y-14660564D02*
G01*
X20530440Y-14666387D01*
X20547589Y-14673959D01*
X20571071Y-14678630D01*
X20596210Y-14695427D01*
X20616096Y-14704208D01*
X20629677Y-14717789D01*
X20652177Y-14732823D01*
X20667210Y-14755322D01*
X20680791Y-14768903D01*
X20689570Y-14788786D01*
X20706370Y-14813929D01*
X20711041Y-14837412D01*
X20718612Y-14854559D01*
X20724433Y-14904739D01*
X20725400Y-14909600D01*
X20725400Y-15609600D01*
X20724432Y-15614463D01*
X20718612Y-15664640D01*
X20711041Y-15681785D01*
X20706370Y-15705271D01*
X20689569Y-15730415D01*
X20680791Y-15750296D01*
X20667212Y-15763874D01*
X20652177Y-15786377D01*
X20629674Y-15801412D01*
X20616096Y-15814991D01*
X20596215Y-15823769D01*
X20571071Y-15840570D01*
X20547585Y-15845241D01*
X20530440Y-15852812D01*
X20480261Y-15858632D01*
X20475400Y-15859600D01*
X19575400Y-15859600D01*
X19570538Y-15858632D01*
X19520359Y-15852812D01*
X19503212Y-15845241D01*
X19479729Y-15840570D01*
X19454586Y-15823770D01*
X19434703Y-15814991D01*
X19421122Y-15801410D01*
X19398623Y-15786377D01*
X19383589Y-15763877D01*
X19370008Y-15750296D01*
X19361227Y-15730410D01*
X19344430Y-15705271D01*
X19339759Y-15681789D01*
X19332187Y-15664640D01*
X19326364Y-15614449D01*
X19325400Y-15609600D01*
X19325400Y-14909600D01*
X19326364Y-14904750D01*
X19332187Y-14854559D01*
X19339759Y-14837408D01*
X19344430Y-14813929D01*
X19361226Y-14788791D01*
X19370008Y-14768903D01*
X19383591Y-14755319D01*
X19398623Y-14732823D01*
X19421119Y-14717791D01*
X19434703Y-14704208D01*
X19454591Y-14695426D01*
X19479729Y-14678630D01*
X19503208Y-14673959D01*
X19520359Y-14666387D01*
X19570551Y-14660564D01*
X19575400Y-14659600D01*
X20475400Y-14659600D01*
X20480250Y-14660564D01*
G37*
G36*
X18386000Y-15609600D02*
G01*
X16486000Y-15609600D01*
X16486000Y-14809600D01*
X18386000Y-14809600D01*
X18386000Y-15609600D01*
G37*
G36*
X22879000Y-15335200D02*
G01*
X22079000Y-15335200D01*
X22079000Y-13435200D01*
X22879000Y-13435200D01*
X22879000Y-15335200D01*
G37*
G36*
X24779000Y-15335200D02*
G01*
X23979000Y-15335200D01*
X23979000Y-13435200D01*
X24779000Y-13435200D01*
X24779000Y-15335200D01*
G37*
G36*
X26892200Y-15335200D02*
G01*
X26092200Y-15335200D01*
X26092200Y-13435200D01*
X26892200Y-13435200D01*
X26892200Y-15335200D01*
G37*
G36*
X28792200Y-15335200D02*
G01*
X27992200Y-15335200D01*
X27992200Y-13435200D01*
X28792200Y-13435200D01*
X28792200Y-15335200D01*
G37*
G36*
X15386000Y-14659600D02*
G01*
X13486000Y-14659600D01*
X13486000Y-13859600D01*
X15386000Y-13859600D01*
X15386000Y-14659600D01*
G37*
G36*
X54042200Y-14042000D02*
G01*
X51642200Y-14042000D01*
X51642200Y-11642000D01*
X54042200Y-11642000D01*
X54042200Y-14042000D01*
G37*
G36*
X20480250Y-12660564D02*
G01*
X20530440Y-12666387D01*
X20547589Y-12673959D01*
X20571071Y-12678630D01*
X20596210Y-12695427D01*
X20616096Y-12704208D01*
X20629677Y-12717789D01*
X20652177Y-12732823D01*
X20667210Y-12755322D01*
X20680791Y-12768903D01*
X20689570Y-12788786D01*
X20706370Y-12813929D01*
X20711041Y-12837412D01*
X20718612Y-12854559D01*
X20724433Y-12904739D01*
X20725400Y-12909600D01*
X20725400Y-13609600D01*
X20724432Y-13614463D01*
X20718612Y-13664640D01*
X20711041Y-13681785D01*
X20706370Y-13705271D01*
X20689569Y-13730415D01*
X20680791Y-13750296D01*
X20667212Y-13763874D01*
X20652177Y-13786377D01*
X20629674Y-13801412D01*
X20616096Y-13814991D01*
X20596215Y-13823769D01*
X20571071Y-13840570D01*
X20547585Y-13845241D01*
X20530440Y-13852812D01*
X20480261Y-13858632D01*
X20475400Y-13859600D01*
X19575400Y-13859600D01*
X19570538Y-13858632D01*
X19520359Y-13852812D01*
X19503212Y-13845241D01*
X19479729Y-13840570D01*
X19454586Y-13823770D01*
X19434703Y-13814991D01*
X19421122Y-13801410D01*
X19398623Y-13786377D01*
X19383589Y-13763877D01*
X19370008Y-13750296D01*
X19361227Y-13730410D01*
X19344430Y-13705271D01*
X19339759Y-13681789D01*
X19332187Y-13664640D01*
X19326364Y-13614449D01*
X19325400Y-13609600D01*
X19325400Y-12909600D01*
X19326364Y-12904750D01*
X19332187Y-12854559D01*
X19339759Y-12837408D01*
X19344430Y-12813929D01*
X19361226Y-12788791D01*
X19370008Y-12768903D01*
X19383591Y-12755319D01*
X19398623Y-12732823D01*
X19421119Y-12717791D01*
X19434703Y-12704208D01*
X19454591Y-12695426D01*
X19479729Y-12678630D01*
X19503208Y-12673959D01*
X19520359Y-12666387D01*
X19570551Y-12660564D01*
X19575400Y-12659600D01*
X20475400Y-12659600D01*
X20480250Y-12660564D01*
G37*
G36*
X18386000Y-13709600D02*
G01*
X16486000Y-13709600D01*
X16486000Y-12909600D01*
X18386000Y-12909600D01*
X18386000Y-13709600D01*
G37*
G36*
X56186011Y-11610111D02*
G01*
X56227788Y-11610111D01*
X56274918Y-11620128D01*
X56322217Y-11625458D01*
X56356608Y-11637492D01*
X56391310Y-11644868D01*
X56441317Y-11667133D01*
X56491307Y-11684625D01*
X56517328Y-11700975D01*
X56544035Y-11712866D01*
X56593833Y-11749046D01*
X56642992Y-11779935D01*
X56660644Y-11797587D01*
X56679284Y-11811130D01*
X56725365Y-11862308D01*
X56769665Y-11906608D01*
X56779854Y-11922824D01*
X56791146Y-11935365D01*
X56829773Y-12002270D01*
X56864975Y-12058293D01*
X56869370Y-12070853D01*
X56874735Y-12080146D01*
X56902210Y-12164705D01*
X56924142Y-12227383D01*
X56924973Y-12234763D01*
X56926395Y-12239138D01*
X56939277Y-12361716D01*
X56944200Y-12405400D01*
X56939275Y-12449107D01*
X56926395Y-12571661D01*
X56924973Y-12576035D01*
X56924142Y-12583417D01*
X56902205Y-12646107D01*
X56874735Y-12730653D01*
X56869371Y-12739943D01*
X56864975Y-12752507D01*
X56829766Y-12808540D01*
X56791146Y-12875434D01*
X56779856Y-12887972D01*
X56769665Y-12904192D01*
X56725355Y-12948501D01*
X56679284Y-12999669D01*
X56660648Y-13013208D01*
X56642992Y-13030865D01*
X56593823Y-13061759D01*
X56544035Y-13097933D01*
X56517334Y-13109821D01*
X56491307Y-13126175D01*
X56441307Y-13143670D01*
X56391310Y-13165931D01*
X56356614Y-13173305D01*
X56322217Y-13185342D01*
X56274915Y-13190671D01*
X56227788Y-13200689D01*
X56186011Y-13200689D01*
X56144200Y-13205400D01*
X56102389Y-13200689D01*
X56060612Y-13200689D01*
X56013484Y-13190671D01*
X55966183Y-13185342D01*
X55931786Y-13173306D01*
X55897089Y-13165931D01*
X55847087Y-13143668D01*
X55797093Y-13126175D01*
X55771068Y-13109822D01*
X55744364Y-13097933D01*
X55694569Y-13061755D01*
X55645408Y-13030865D01*
X55627754Y-13013211D01*
X55609115Y-12999669D01*
X55563033Y-12948490D01*
X55518735Y-12904192D01*
X55508545Y-12887975D01*
X55497253Y-12875434D01*
X55458620Y-12808520D01*
X55423425Y-12752507D01*
X55419030Y-12739947D01*
X55413664Y-12730653D01*
X55386180Y-12646067D01*
X55364258Y-12583417D01*
X55363426Y-12576039D01*
X55362004Y-12571661D01*
X55349109Y-12448975D01*
X55344200Y-12405400D01*
X55349107Y-12361848D01*
X55362004Y-12239138D01*
X55363426Y-12234758D01*
X55364258Y-12227383D01*
X55386175Y-12164745D01*
X55413664Y-12080146D01*
X55419031Y-12070849D01*
X55423425Y-12058293D01*
X55458613Y-12002290D01*
X55497253Y-11935365D01*
X55508547Y-11922821D01*
X55518735Y-11906608D01*
X55563026Y-11862316D01*
X55609117Y-11811128D01*
X55627759Y-11797583D01*
X55645408Y-11779935D01*
X55694554Y-11749054D01*
X55744362Y-11712867D01*
X55771073Y-11700974D01*
X55797093Y-11684625D01*
X55847077Y-11667134D01*
X55897089Y-11644868D01*
X55931792Y-11637491D01*
X55966183Y-11625458D01*
X56013481Y-11620128D01*
X56060612Y-11610111D01*
X56102389Y-11610111D01*
X56144200Y-11605400D01*
X56186011Y-11610111D01*
G37*
G36*
X66346011Y-11610111D02*
G01*
X66387788Y-11610111D01*
X66434918Y-11620128D01*
X66482217Y-11625458D01*
X66516608Y-11637492D01*
X66551310Y-11644868D01*
X66601317Y-11667133D01*
X66651307Y-11684625D01*
X66677328Y-11700975D01*
X66704035Y-11712866D01*
X66753833Y-11749046D01*
X66802992Y-11779935D01*
X66820644Y-11797587D01*
X66839284Y-11811130D01*
X66885365Y-11862308D01*
X66929665Y-11906608D01*
X66939854Y-11922824D01*
X66951146Y-11935365D01*
X66989773Y-12002270D01*
X67024975Y-12058293D01*
X67029370Y-12070853D01*
X67034735Y-12080146D01*
X67062210Y-12164705D01*
X67084142Y-12227383D01*
X67084973Y-12234763D01*
X67086395Y-12239138D01*
X67099277Y-12361716D01*
X67104200Y-12405400D01*
X67099275Y-12449107D01*
X67086395Y-12571661D01*
X67084973Y-12576035D01*
X67084142Y-12583417D01*
X67062205Y-12646107D01*
X67034735Y-12730653D01*
X67029371Y-12739943D01*
X67024975Y-12752507D01*
X66989766Y-12808540D01*
X66951146Y-12875434D01*
X66939856Y-12887972D01*
X66929665Y-12904192D01*
X66885355Y-12948501D01*
X66839284Y-12999669D01*
X66820648Y-13013208D01*
X66802992Y-13030865D01*
X66753823Y-13061759D01*
X66704035Y-13097933D01*
X66677334Y-13109821D01*
X66651307Y-13126175D01*
X66601307Y-13143670D01*
X66551310Y-13165931D01*
X66516614Y-13173305D01*
X66482217Y-13185342D01*
X66434915Y-13190671D01*
X66387788Y-13200689D01*
X66346011Y-13200689D01*
X66304200Y-13205400D01*
X66262389Y-13200689D01*
X66220612Y-13200689D01*
X66173484Y-13190671D01*
X66126183Y-13185342D01*
X66091786Y-13173306D01*
X66057089Y-13165931D01*
X66007087Y-13143668D01*
X65957093Y-13126175D01*
X65931068Y-13109822D01*
X65904364Y-13097933D01*
X65854569Y-13061755D01*
X65805408Y-13030865D01*
X65787754Y-13013211D01*
X65769115Y-12999669D01*
X65723033Y-12948490D01*
X65678735Y-12904192D01*
X65668545Y-12887975D01*
X65657253Y-12875434D01*
X65618620Y-12808520D01*
X65583425Y-12752507D01*
X65579030Y-12739947D01*
X65573664Y-12730653D01*
X65546180Y-12646067D01*
X65524258Y-12583417D01*
X65523426Y-12576039D01*
X65522004Y-12571661D01*
X65509109Y-12448975D01*
X65504200Y-12405400D01*
X65509107Y-12361848D01*
X65522004Y-12239138D01*
X65523426Y-12234758D01*
X65524258Y-12227383D01*
X65546175Y-12164745D01*
X65573664Y-12080146D01*
X65579031Y-12070849D01*
X65583425Y-12058293D01*
X65618613Y-12002290D01*
X65657253Y-11935365D01*
X65668547Y-11922821D01*
X65678735Y-11906608D01*
X65723026Y-11862316D01*
X65769117Y-11811128D01*
X65787759Y-11797583D01*
X65805408Y-11779935D01*
X65854554Y-11749054D01*
X65904362Y-11712867D01*
X65931073Y-11700974D01*
X65957093Y-11684625D01*
X66007077Y-11667134D01*
X66057089Y-11644868D01*
X66091792Y-11637491D01*
X66126183Y-11625458D01*
X66173481Y-11620128D01*
X66220612Y-11610111D01*
X66262389Y-11610111D01*
X66304200Y-11605400D01*
X66346011Y-11610111D01*
G37*
G36*
X74789611Y-11433711D02*
G01*
X74831388Y-11433711D01*
X74878518Y-11443728D01*
X74925817Y-11449058D01*
X74960208Y-11461092D01*
X74994910Y-11468468D01*
X75044917Y-11490733D01*
X75094907Y-11508225D01*
X75120928Y-11524575D01*
X75147635Y-11536466D01*
X75197433Y-11572646D01*
X75246592Y-11603535D01*
X75264244Y-11621187D01*
X75282884Y-11634730D01*
X75328965Y-11685908D01*
X75373265Y-11730208D01*
X75383454Y-11746424D01*
X75394746Y-11758965D01*
X75433373Y-11825870D01*
X75468575Y-11881893D01*
X75472970Y-11894453D01*
X75478335Y-11903746D01*
X75505810Y-11988305D01*
X75527742Y-12050983D01*
X75528573Y-12058363D01*
X75529995Y-12062738D01*
X75542876Y-12185306D01*
X75547800Y-12229000D01*
X75542876Y-12272697D01*
X75529995Y-12395261D01*
X75528573Y-12399635D01*
X75527742Y-12407017D01*
X75505805Y-12469707D01*
X75478335Y-12554253D01*
X75472971Y-12563543D01*
X75468575Y-12576107D01*
X75433366Y-12632140D01*
X75394746Y-12699034D01*
X75383456Y-12711572D01*
X75373265Y-12727792D01*
X75328955Y-12772101D01*
X75282884Y-12823269D01*
X75264248Y-12836808D01*
X75246592Y-12854465D01*
X75197423Y-12885359D01*
X75147635Y-12921533D01*
X75120934Y-12933421D01*
X75094907Y-12949775D01*
X75044907Y-12967270D01*
X74994910Y-12989531D01*
X74960214Y-12996905D01*
X74925817Y-13008942D01*
X74878515Y-13014271D01*
X74831388Y-13024289D01*
X74789611Y-13024289D01*
X74747800Y-13029000D01*
X74705989Y-13024289D01*
X74664212Y-13024289D01*
X74617084Y-13014271D01*
X74569783Y-13008942D01*
X74535386Y-12996906D01*
X74500689Y-12989531D01*
X74450687Y-12967268D01*
X74400693Y-12949775D01*
X74374668Y-12933422D01*
X74347964Y-12921533D01*
X74298169Y-12885355D01*
X74249008Y-12854465D01*
X74231354Y-12836811D01*
X74212715Y-12823269D01*
X74166633Y-12772090D01*
X74122335Y-12727792D01*
X74112145Y-12711575D01*
X74100853Y-12699034D01*
X74062220Y-12632120D01*
X74027025Y-12576107D01*
X74022630Y-12563547D01*
X74017264Y-12554253D01*
X73989780Y-12469667D01*
X73967858Y-12407017D01*
X73967026Y-12399639D01*
X73965604Y-12395261D01*
X73952708Y-12272565D01*
X73947800Y-12229000D01*
X73952708Y-12185438D01*
X73965604Y-12062738D01*
X73967026Y-12058358D01*
X73967858Y-12050983D01*
X73989775Y-11988345D01*
X74017264Y-11903746D01*
X74022631Y-11894449D01*
X74027025Y-11881893D01*
X74062213Y-11825890D01*
X74100853Y-11758965D01*
X74112147Y-11746421D01*
X74122335Y-11730208D01*
X74166626Y-11685916D01*
X74212717Y-11634728D01*
X74231359Y-11621183D01*
X74249008Y-11603535D01*
X74298154Y-11572654D01*
X74347962Y-11536467D01*
X74374673Y-11524574D01*
X74400693Y-11508225D01*
X74450677Y-11490734D01*
X74500689Y-11468468D01*
X74535392Y-11461091D01*
X74569783Y-11449058D01*
X74617081Y-11443728D01*
X74664212Y-11433711D01*
X74705989Y-11433711D01*
X74747800Y-11429000D01*
X74789611Y-11433711D01*
G37*
G36*
X41952011Y-11243911D02*
G01*
X41993788Y-11243911D01*
X42040918Y-11253928D01*
X42088217Y-11259258D01*
X42122608Y-11271292D01*
X42157310Y-11278668D01*
X42207317Y-11300933D01*
X42257307Y-11318425D01*
X42283328Y-11334775D01*
X42310035Y-11346666D01*
X42359833Y-11382846D01*
X42408992Y-11413735D01*
X42426644Y-11431387D01*
X42445284Y-11444930D01*
X42491365Y-11496108D01*
X42535665Y-11540408D01*
X42545854Y-11556624D01*
X42557146Y-11569165D01*
X42595773Y-11636070D01*
X42630975Y-11692093D01*
X42635370Y-11704653D01*
X42640735Y-11713946D01*
X42668210Y-11798505D01*
X42690142Y-11861183D01*
X42690973Y-11868563D01*
X42692395Y-11872938D01*
X42705276Y-11995506D01*
X42710200Y-12039200D01*
X42705276Y-12082897D01*
X42692395Y-12205461D01*
X42690973Y-12209835D01*
X42690142Y-12217217D01*
X42668205Y-12279907D01*
X42640735Y-12364453D01*
X42635371Y-12373743D01*
X42630975Y-12386307D01*
X42595766Y-12442340D01*
X42557146Y-12509234D01*
X42545856Y-12521772D01*
X42535665Y-12537992D01*
X42491355Y-12582301D01*
X42445284Y-12633469D01*
X42426648Y-12647008D01*
X42408992Y-12664665D01*
X42359823Y-12695559D01*
X42310035Y-12731733D01*
X42283334Y-12743621D01*
X42257307Y-12759975D01*
X42207307Y-12777470D01*
X42157310Y-12799731D01*
X42122614Y-12807105D01*
X42088217Y-12819142D01*
X42040915Y-12824471D01*
X41993788Y-12834489D01*
X41952011Y-12834489D01*
X41910200Y-12839200D01*
X41868389Y-12834489D01*
X41826612Y-12834489D01*
X41779484Y-12824471D01*
X41732183Y-12819142D01*
X41697786Y-12807106D01*
X41663089Y-12799731D01*
X41613087Y-12777468D01*
X41563093Y-12759975D01*
X41537068Y-12743622D01*
X41510364Y-12731733D01*
X41460569Y-12695555D01*
X41411408Y-12664665D01*
X41393754Y-12647011D01*
X41375115Y-12633469D01*
X41329033Y-12582290D01*
X41284735Y-12537992D01*
X41274545Y-12521775D01*
X41263253Y-12509234D01*
X41224620Y-12442320D01*
X41189425Y-12386307D01*
X41185030Y-12373747D01*
X41179664Y-12364453D01*
X41152180Y-12279867D01*
X41130258Y-12217217D01*
X41129426Y-12209839D01*
X41128004Y-12205461D01*
X41115108Y-12082765D01*
X41110200Y-12039200D01*
X41115108Y-11995638D01*
X41128004Y-11872938D01*
X41129426Y-11868558D01*
X41130258Y-11861183D01*
X41152175Y-11798545D01*
X41179664Y-11713946D01*
X41185031Y-11704649D01*
X41189425Y-11692093D01*
X41224613Y-11636090D01*
X41263253Y-11569165D01*
X41274547Y-11556621D01*
X41284735Y-11540408D01*
X41329026Y-11496116D01*
X41375117Y-11444928D01*
X41393759Y-11431383D01*
X41411408Y-11413735D01*
X41460554Y-11382854D01*
X41510362Y-11346667D01*
X41537073Y-11334774D01*
X41563093Y-11318425D01*
X41613077Y-11300934D01*
X41663089Y-11278668D01*
X41697792Y-11271291D01*
X41732183Y-11259258D01*
X41779481Y-11253928D01*
X41826612Y-11243911D01*
X41868389Y-11243911D01*
X41910200Y-11239200D01*
X41952011Y-11243911D01*
G37*
G36*
X50330200Y-12839200D02*
G01*
X48730200Y-12839200D01*
X48730200Y-11239200D01*
X50330200Y-11239200D01*
X50330200Y-12839200D01*
G37*
G36*
X8847113Y-10104930D02*
G01*
X8894076Y-10104930D01*
X8934622Y-10113548D01*
X8975526Y-10117577D01*
X9026916Y-10133166D01*
X9078115Y-10144049D01*
X9110879Y-10158636D01*
X9144304Y-10168776D01*
X9197420Y-10197166D01*
X9250000Y-10220577D01*
X9274445Y-10238337D01*
X9299849Y-10251916D01*
X9351669Y-10294444D01*
X9402218Y-10331170D01*
X9418631Y-10349398D01*
X9436190Y-10363809D01*
X9483379Y-10421308D01*
X9528115Y-10470993D01*
X9537512Y-10487269D01*
X9548083Y-10500150D01*
X9587183Y-10573302D01*
X9622191Y-10633937D01*
X9626218Y-10646331D01*
X9631223Y-10655695D01*
X9658821Y-10746672D01*
X9680333Y-10812879D01*
X9681090Y-10820082D01*
X9682422Y-10824473D01*
X9695377Y-10956021D01*
X9700000Y-11000000D01*
X9695377Y-11043982D01*
X9682422Y-11175526D01*
X9681090Y-11179916D01*
X9680333Y-11187121D01*
X9658816Y-11253341D01*
X9631223Y-11344304D01*
X9626219Y-11353665D01*
X9622191Y-11366063D01*
X9587176Y-11426709D01*
X9548083Y-11499849D01*
X9537514Y-11512726D01*
X9528115Y-11529007D01*
X9483369Y-11578701D01*
X9436190Y-11636190D01*
X9418634Y-11650597D01*
X9402218Y-11668830D01*
X9351659Y-11705563D01*
X9299849Y-11748083D01*
X9274450Y-11761658D01*
X9250000Y-11779423D01*
X9197408Y-11802838D01*
X9144304Y-11831223D01*
X9110886Y-11841360D01*
X9078115Y-11855951D01*
X9026905Y-11866836D01*
X8975526Y-11882422D01*
X8934631Y-11886449D01*
X8894076Y-11895070D01*
X8847103Y-11895070D01*
X8800000Y-11899709D01*
X8752897Y-11895070D01*
X8705924Y-11895070D01*
X8665368Y-11886449D01*
X8624473Y-11882422D01*
X8573091Y-11866835D01*
X8521885Y-11855951D01*
X8489115Y-11841361D01*
X8455695Y-11831223D01*
X8402585Y-11802835D01*
X8350000Y-11779423D01*
X8325552Y-11761660D01*
X8300150Y-11748083D01*
X8248332Y-11705556D01*
X8197782Y-11668830D01*
X8181368Y-11650600D01*
X8163809Y-11636190D01*
X8116618Y-11578688D01*
X8071885Y-11529007D01*
X8062487Y-11512730D01*
X8051916Y-11499849D01*
X8012810Y-11426686D01*
X7977809Y-11366063D01*
X7973782Y-11353670D01*
X7968776Y-11344304D01*
X7941168Y-11253294D01*
X7919667Y-11187121D01*
X7918910Y-11179921D01*
X7917577Y-11175526D01*
X7904606Y-11043831D01*
X7900000Y-11000000D01*
X7904606Y-10956172D01*
X7917577Y-10824473D01*
X7918910Y-10820077D01*
X7919667Y-10812879D01*
X7941163Y-10746719D01*
X7968776Y-10655695D01*
X7973783Y-10646327D01*
X7977809Y-10633937D01*
X8012802Y-10573326D01*
X8051916Y-10500150D01*
X8062489Y-10487265D01*
X8071885Y-10470993D01*
X8116609Y-10421321D01*
X8163809Y-10363809D01*
X8181371Y-10349395D01*
X8197782Y-10331170D01*
X8248321Y-10294450D01*
X8300150Y-10251916D01*
X8325557Y-10238335D01*
X8350000Y-10220577D01*
X8402573Y-10197169D01*
X8455695Y-10168776D01*
X8489122Y-10158635D01*
X8521885Y-10144049D01*
X8573080Y-10133166D01*
X8624473Y-10117577D01*
X8665377Y-10113548D01*
X8705924Y-10104930D01*
X8752887Y-10104930D01*
X8800000Y-10100290D01*
X8847113Y-10104930D01*
G37*
G36*
X78947113Y-10104930D02*
G01*
X78994076Y-10104930D01*
X79034622Y-10113548D01*
X79075526Y-10117577D01*
X79126916Y-10133166D01*
X79178115Y-10144049D01*
X79210879Y-10158636D01*
X79244304Y-10168776D01*
X79297420Y-10197166D01*
X79350000Y-10220577D01*
X79374445Y-10238337D01*
X79399849Y-10251916D01*
X79451669Y-10294444D01*
X79502218Y-10331170D01*
X79518631Y-10349398D01*
X79536190Y-10363809D01*
X79583379Y-10421308D01*
X79628115Y-10470993D01*
X79637512Y-10487269D01*
X79648083Y-10500150D01*
X79687183Y-10573302D01*
X79722191Y-10633937D01*
X79726218Y-10646331D01*
X79731223Y-10655695D01*
X79758821Y-10746672D01*
X79780333Y-10812879D01*
X79781090Y-10820082D01*
X79782422Y-10824473D01*
X79795378Y-10956032D01*
X79800000Y-11000000D01*
X79795376Y-11043993D01*
X79782422Y-11175526D01*
X79781090Y-11179916D01*
X79780333Y-11187121D01*
X79758816Y-11253341D01*
X79731223Y-11344304D01*
X79726219Y-11353665D01*
X79722191Y-11366063D01*
X79687176Y-11426709D01*
X79648083Y-11499849D01*
X79637514Y-11512726D01*
X79628115Y-11529007D01*
X79583369Y-11578701D01*
X79536190Y-11636190D01*
X79518634Y-11650597D01*
X79502218Y-11668830D01*
X79451659Y-11705563D01*
X79399849Y-11748083D01*
X79374450Y-11761658D01*
X79350000Y-11779423D01*
X79297408Y-11802838D01*
X79244304Y-11831223D01*
X79210886Y-11841360D01*
X79178115Y-11855951D01*
X79126905Y-11866836D01*
X79075526Y-11882422D01*
X79034631Y-11886449D01*
X78994076Y-11895070D01*
X78947103Y-11895070D01*
X78900000Y-11899709D01*
X78852897Y-11895070D01*
X78805924Y-11895070D01*
X78765368Y-11886449D01*
X78724473Y-11882422D01*
X78673091Y-11866835D01*
X78621885Y-11855951D01*
X78589115Y-11841361D01*
X78555695Y-11831223D01*
X78502585Y-11802835D01*
X78450000Y-11779423D01*
X78425552Y-11761660D01*
X78400150Y-11748083D01*
X78348332Y-11705556D01*
X78297782Y-11668830D01*
X78281368Y-11650600D01*
X78263809Y-11636190D01*
X78216618Y-11578688D01*
X78171885Y-11529007D01*
X78162487Y-11512730D01*
X78151916Y-11499849D01*
X78112810Y-11426686D01*
X78077809Y-11366063D01*
X78073782Y-11353670D01*
X78068776Y-11344304D01*
X78041168Y-11253294D01*
X78019667Y-11187121D01*
X78018910Y-11179921D01*
X78017577Y-11175526D01*
X78004606Y-11043831D01*
X78000000Y-11000000D01*
X78004606Y-10956172D01*
X78017577Y-10824473D01*
X78018910Y-10820077D01*
X78019667Y-10812879D01*
X78041163Y-10746719D01*
X78068776Y-10655695D01*
X78073783Y-10646327D01*
X78077809Y-10633937D01*
X78112802Y-10573326D01*
X78151916Y-10500150D01*
X78162489Y-10487265D01*
X78171885Y-10470993D01*
X78216609Y-10421321D01*
X78263809Y-10363809D01*
X78281371Y-10349395D01*
X78297782Y-10331170D01*
X78348321Y-10294450D01*
X78400150Y-10251916D01*
X78425557Y-10238335D01*
X78450000Y-10220577D01*
X78502573Y-10197169D01*
X78555695Y-10168776D01*
X78589122Y-10158635D01*
X78621885Y-10144049D01*
X78673080Y-10133166D01*
X78724473Y-10117577D01*
X78765377Y-10113548D01*
X78805924Y-10104930D01*
X78852887Y-10104930D01*
X78900000Y-10100290D01*
X78947113Y-10104930D01*
G37*
G36*
X18168850Y-10647364D02*
G01*
X18219040Y-10653187D01*
X18236189Y-10660759D01*
X18259671Y-10665430D01*
X18284810Y-10682227D01*
X18304696Y-10691008D01*
X18318277Y-10704589D01*
X18340777Y-10719623D01*
X18355810Y-10742122D01*
X18369391Y-10755703D01*
X18378170Y-10775586D01*
X18394970Y-10800729D01*
X18399641Y-10824212D01*
X18407212Y-10841359D01*
X18413033Y-10891539D01*
X18414000Y-10896400D01*
X18414000Y-11596400D01*
X18413032Y-11601263D01*
X18407212Y-11651440D01*
X18399641Y-11668585D01*
X18394970Y-11692071D01*
X18378169Y-11717215D01*
X18369391Y-11737096D01*
X18355812Y-11750674D01*
X18340777Y-11773177D01*
X18318274Y-11788212D01*
X18304696Y-11801791D01*
X18284815Y-11810569D01*
X18259671Y-11827370D01*
X18236185Y-11832041D01*
X18219040Y-11839612D01*
X18168861Y-11845432D01*
X18164000Y-11846400D01*
X17264000Y-11846400D01*
X17259138Y-11845432D01*
X17208959Y-11839612D01*
X17191812Y-11832041D01*
X17168329Y-11827370D01*
X17143186Y-11810570D01*
X17123303Y-11801791D01*
X17109722Y-11788210D01*
X17087223Y-11773177D01*
X17072189Y-11750677D01*
X17058608Y-11737096D01*
X17049827Y-11717210D01*
X17033030Y-11692071D01*
X17028359Y-11668589D01*
X17020787Y-11651440D01*
X17014964Y-11601249D01*
X17014000Y-11596400D01*
X17014000Y-10896400D01*
X17014964Y-10891550D01*
X17020787Y-10841359D01*
X17028359Y-10824208D01*
X17033030Y-10800729D01*
X17049826Y-10775591D01*
X17058608Y-10755703D01*
X17072191Y-10742119D01*
X17087223Y-10719623D01*
X17109719Y-10704591D01*
X17123303Y-10691008D01*
X17143191Y-10682226D01*
X17168329Y-10665430D01*
X17191808Y-10660759D01*
X17208959Y-10653187D01*
X17259151Y-10647364D01*
X17264000Y-10646400D01*
X18164000Y-10646400D01*
X18168850Y-10647364D01*
G37*
G36*
X16049200Y-11596400D02*
G01*
X14149200Y-11596400D01*
X14149200Y-10796400D01*
X16049200Y-10796400D01*
X16049200Y-11596400D01*
G37*
G36*
X13049200Y-10646400D02*
G01*
X11149200Y-10646400D01*
X11149200Y-9846400D01*
X13049200Y-9846400D01*
X13049200Y-10646400D01*
G37*
G36*
X41952011Y-8703911D02*
G01*
X41993788Y-8703911D01*
X42040918Y-8713928D01*
X42088217Y-8719258D01*
X42122608Y-8731292D01*
X42157310Y-8738668D01*
X42207317Y-8760933D01*
X42257307Y-8778425D01*
X42283328Y-8794775D01*
X42310035Y-8806666D01*
X42359833Y-8842846D01*
X42408992Y-8873735D01*
X42426644Y-8891387D01*
X42445284Y-8904930D01*
X42491365Y-8956108D01*
X42535665Y-9000408D01*
X42545854Y-9016624D01*
X42557146Y-9029165D01*
X42595773Y-9096070D01*
X42630975Y-9152093D01*
X42635370Y-9164653D01*
X42640735Y-9173946D01*
X42668210Y-9258505D01*
X42690142Y-9321183D01*
X42690973Y-9328563D01*
X42692395Y-9332938D01*
X42705276Y-9455506D01*
X42710200Y-9499200D01*
X42705276Y-9542897D01*
X42692395Y-9665461D01*
X42690973Y-9669835D01*
X42690142Y-9677217D01*
X42668205Y-9739907D01*
X42640735Y-9824453D01*
X42635371Y-9833743D01*
X42630975Y-9846307D01*
X42595766Y-9902340D01*
X42557146Y-9969234D01*
X42545856Y-9981772D01*
X42535665Y-9997992D01*
X42491355Y-10042301D01*
X42445284Y-10093469D01*
X42426648Y-10107008D01*
X42408992Y-10124665D01*
X42359823Y-10155559D01*
X42310035Y-10191733D01*
X42283334Y-10203621D01*
X42257307Y-10219975D01*
X42207307Y-10237470D01*
X42157310Y-10259731D01*
X42122614Y-10267105D01*
X42088217Y-10279142D01*
X42040915Y-10284471D01*
X41993788Y-10294489D01*
X41952011Y-10294489D01*
X41910200Y-10299200D01*
X41868389Y-10294489D01*
X41826612Y-10294489D01*
X41779484Y-10284471D01*
X41732183Y-10279142D01*
X41697786Y-10267106D01*
X41663089Y-10259731D01*
X41613087Y-10237468D01*
X41563093Y-10219975D01*
X41537068Y-10203622D01*
X41510364Y-10191733D01*
X41460569Y-10155555D01*
X41411408Y-10124665D01*
X41393754Y-10107011D01*
X41375115Y-10093469D01*
X41329033Y-10042290D01*
X41284735Y-9997992D01*
X41274545Y-9981775D01*
X41263253Y-9969234D01*
X41224620Y-9902320D01*
X41189425Y-9846307D01*
X41185030Y-9833747D01*
X41179664Y-9824453D01*
X41152180Y-9739867D01*
X41130258Y-9677217D01*
X41129426Y-9669839D01*
X41128004Y-9665461D01*
X41115108Y-9542765D01*
X41110200Y-9499200D01*
X41115108Y-9455638D01*
X41128004Y-9332938D01*
X41129426Y-9328558D01*
X41130258Y-9321183D01*
X41152175Y-9258545D01*
X41179664Y-9173946D01*
X41185031Y-9164649D01*
X41189425Y-9152093D01*
X41224613Y-9096090D01*
X41263253Y-9029165D01*
X41274547Y-9016621D01*
X41284735Y-9000408D01*
X41329026Y-8956116D01*
X41375117Y-8904928D01*
X41393759Y-8891383D01*
X41411408Y-8873735D01*
X41460554Y-8842854D01*
X41510362Y-8806667D01*
X41537073Y-8794774D01*
X41563093Y-8778425D01*
X41613077Y-8760934D01*
X41663089Y-8738668D01*
X41697792Y-8731291D01*
X41732183Y-8719258D01*
X41779481Y-8713928D01*
X41826612Y-8703911D01*
X41868389Y-8703911D01*
X41910200Y-8699200D01*
X41952011Y-8703911D01*
G37*
G36*
X49572011Y-8703911D02*
G01*
X49613788Y-8703911D01*
X49660918Y-8713928D01*
X49708217Y-8719258D01*
X49742608Y-8731292D01*
X49777310Y-8738668D01*
X49827317Y-8760933D01*
X49877307Y-8778425D01*
X49903328Y-8794775D01*
X49930035Y-8806666D01*
X49979833Y-8842846D01*
X50028992Y-8873735D01*
X50046644Y-8891387D01*
X50065284Y-8904930D01*
X50111365Y-8956108D01*
X50155665Y-9000408D01*
X50165854Y-9016624D01*
X50177146Y-9029165D01*
X50215773Y-9096070D01*
X50250975Y-9152093D01*
X50255370Y-9164653D01*
X50260735Y-9173946D01*
X50288210Y-9258505D01*
X50310142Y-9321183D01*
X50310973Y-9328563D01*
X50312395Y-9332938D01*
X50325276Y-9455506D01*
X50330200Y-9499200D01*
X50325276Y-9542897D01*
X50312395Y-9665461D01*
X50310973Y-9669835D01*
X50310142Y-9677217D01*
X50288205Y-9739907D01*
X50260735Y-9824453D01*
X50255371Y-9833743D01*
X50250975Y-9846307D01*
X50215766Y-9902340D01*
X50177146Y-9969234D01*
X50165856Y-9981772D01*
X50155665Y-9997992D01*
X50111355Y-10042301D01*
X50065284Y-10093469D01*
X50046648Y-10107008D01*
X50028992Y-10124665D01*
X49979823Y-10155559D01*
X49930035Y-10191733D01*
X49903334Y-10203621D01*
X49877307Y-10219975D01*
X49827307Y-10237470D01*
X49777310Y-10259731D01*
X49742614Y-10267105D01*
X49708217Y-10279142D01*
X49660915Y-10284471D01*
X49613788Y-10294489D01*
X49572011Y-10294489D01*
X49530200Y-10299200D01*
X49488389Y-10294489D01*
X49446612Y-10294489D01*
X49399484Y-10284471D01*
X49352183Y-10279142D01*
X49317786Y-10267106D01*
X49283089Y-10259731D01*
X49233087Y-10237468D01*
X49183093Y-10219975D01*
X49157068Y-10203622D01*
X49130364Y-10191733D01*
X49080569Y-10155555D01*
X49031408Y-10124665D01*
X49013754Y-10107011D01*
X48995115Y-10093469D01*
X48949033Y-10042290D01*
X48904735Y-9997992D01*
X48894545Y-9981775D01*
X48883253Y-9969234D01*
X48844620Y-9902320D01*
X48809425Y-9846307D01*
X48805030Y-9833747D01*
X48799664Y-9824453D01*
X48772180Y-9739867D01*
X48750258Y-9677217D01*
X48749426Y-9669839D01*
X48748004Y-9665461D01*
X48735108Y-9542765D01*
X48730200Y-9499200D01*
X48735108Y-9455638D01*
X48748004Y-9332938D01*
X48749426Y-9328558D01*
X48750258Y-9321183D01*
X48772175Y-9258545D01*
X48799664Y-9173946D01*
X48805031Y-9164649D01*
X48809425Y-9152093D01*
X48844613Y-9096090D01*
X48883253Y-9029165D01*
X48894547Y-9016621D01*
X48904735Y-9000408D01*
X48949026Y-8956116D01*
X48995117Y-8904928D01*
X49013759Y-8891383D01*
X49031408Y-8873735D01*
X49080554Y-8842854D01*
X49130362Y-8806667D01*
X49157073Y-8794774D01*
X49183093Y-8778425D01*
X49233077Y-8760934D01*
X49283089Y-8738668D01*
X49317792Y-8731291D01*
X49352183Y-8719258D01*
X49399481Y-8713928D01*
X49446612Y-8703911D01*
X49488389Y-8703911D01*
X49530200Y-8699200D01*
X49572011Y-8703911D01*
G37*
G36*
X52898093Y-7837119D02*
G01*
X52952922Y-7837119D01*
X53001159Y-7846136D01*
X53050537Y-7850456D01*
X53111142Y-7866695D01*
X53170596Y-7877809D01*
X53210921Y-7893431D01*
X53252544Y-7904584D01*
X53315558Y-7933967D01*
X53377086Y-7957804D01*
X53408844Y-7977467D01*
X53442089Y-7992970D01*
X53504799Y-8036880D01*
X53565362Y-8074379D01*
X53588576Y-8095541D01*
X53613395Y-8112920D01*
X53672764Y-8172289D01*
X53729011Y-8223565D01*
X53744343Y-8243868D01*
X53761279Y-8260804D01*
X53814104Y-8336246D01*
X53862461Y-8400281D01*
X53871124Y-8417680D01*
X53881232Y-8432115D01*
X53924275Y-8524421D01*
X53961167Y-8598510D01*
X53964834Y-8611401D01*
X53969614Y-8621650D01*
X53999734Y-8734059D01*
X54021768Y-8811501D01*
X54022446Y-8818823D01*
X54023743Y-8823662D01*
X54038082Y-8987568D01*
X54042200Y-9032000D01*
X54038080Y-9076462D01*
X54023743Y-9240337D01*
X54022446Y-9245174D01*
X54021768Y-9252499D01*
X53999727Y-9329965D01*
X53969615Y-9442344D01*
X53964837Y-9452589D01*
X53961167Y-9465490D01*
X53924252Y-9539625D01*
X53881229Y-9631889D01*
X53871125Y-9646318D01*
X53862461Y-9663719D01*
X53814097Y-9727762D01*
X53761279Y-9803195D01*
X53744346Y-9820127D01*
X53729011Y-9840435D01*
X53672752Y-9891721D01*
X53613395Y-9951079D01*
X53588581Y-9968453D01*
X53565362Y-9989621D01*
X53504787Y-10027127D01*
X53442089Y-10071029D01*
X53408850Y-10086528D01*
X53377086Y-10106196D01*
X53315545Y-10130037D01*
X53252544Y-10159415D01*
X53210929Y-10170565D01*
X53170596Y-10186191D01*
X53111130Y-10197307D01*
X53050537Y-10213543D01*
X53001169Y-10217862D01*
X52952922Y-10226881D01*
X52898082Y-10226881D01*
X52842200Y-10231770D01*
X52786318Y-10226881D01*
X52731478Y-10226881D01*
X52683231Y-10217862D01*
X52633862Y-10213543D01*
X52573266Y-10197306D01*
X52513804Y-10186191D01*
X52473472Y-10170566D01*
X52431855Y-10159415D01*
X52368848Y-10130034D01*
X52307314Y-10106196D01*
X52275552Y-10086530D01*
X52242310Y-10071029D01*
X52179604Y-10027121D01*
X52119038Y-9989621D01*
X52095821Y-9968456D01*
X52071004Y-9951079D01*
X52011635Y-9891710D01*
X51955389Y-9840435D01*
X51940056Y-9820131D01*
X51923120Y-9803195D01*
X51870288Y-9727743D01*
X51821939Y-9663719D01*
X51813276Y-9646323D01*
X51803170Y-9631889D01*
X51760132Y-9539593D01*
X51723233Y-9465490D01*
X51719564Y-9452594D01*
X51714784Y-9442344D01*
X51684655Y-9329904D01*
X51662632Y-9252499D01*
X51661953Y-9245180D01*
X51660656Y-9240337D01*
X51646300Y-9076255D01*
X51642200Y-9032000D01*
X51646300Y-8987748D01*
X51660656Y-8823662D01*
X51661954Y-8818817D01*
X51662632Y-8811501D01*
X51684648Y-8734120D01*
X51714785Y-8621650D01*
X51719566Y-8611395D01*
X51723233Y-8598510D01*
X51760109Y-8524452D01*
X51803167Y-8432115D01*
X51813277Y-8417675D01*
X51821939Y-8400281D01*
X51870281Y-8336264D01*
X51923120Y-8260804D01*
X51940059Y-8243864D01*
X51955389Y-8223565D01*
X52011624Y-8172299D01*
X52071004Y-8112920D01*
X52095826Y-8095539D01*
X52119038Y-8074379D01*
X52179595Y-8036883D01*
X52242315Y-7992967D01*
X52275564Y-7977462D01*
X52307314Y-7957804D01*
X52368821Y-7933975D01*
X52431850Y-7904585D01*
X52473483Y-7893429D01*
X52513804Y-7877809D01*
X52573253Y-7866696D01*
X52633862Y-7850456D01*
X52683241Y-7846135D01*
X52731478Y-7837119D01*
X52786306Y-7837119D01*
X52842200Y-7832229D01*
X52898093Y-7837119D01*
G37*
G36*
X3149650Y-8734564D02*
G01*
X3199840Y-8740387D01*
X3216989Y-8747959D01*
X3240471Y-8752630D01*
X3265610Y-8769427D01*
X3285496Y-8778208D01*
X3299077Y-8791789D01*
X3321577Y-8806823D01*
X3336610Y-8829322D01*
X3350191Y-8842903D01*
X3358970Y-8862786D01*
X3375770Y-8887929D01*
X3380441Y-8911412D01*
X3388012Y-8928559D01*
X3393833Y-8978739D01*
X3394800Y-8983600D01*
X3394800Y-9883600D01*
X3393832Y-9888463D01*
X3388012Y-9938640D01*
X3380441Y-9955785D01*
X3375770Y-9979271D01*
X3358969Y-10004415D01*
X3350191Y-10024296D01*
X3336612Y-10037874D01*
X3321577Y-10060377D01*
X3299074Y-10075412D01*
X3285496Y-10088991D01*
X3265615Y-10097769D01*
X3240471Y-10114570D01*
X3216985Y-10119241D01*
X3199840Y-10126812D01*
X3149661Y-10132632D01*
X3144800Y-10133600D01*
X2444800Y-10133600D01*
X2439938Y-10132632D01*
X2389759Y-10126812D01*
X2372612Y-10119241D01*
X2349129Y-10114570D01*
X2323986Y-10097770D01*
X2304103Y-10088991D01*
X2290522Y-10075410D01*
X2268023Y-10060377D01*
X2252989Y-10037877D01*
X2239408Y-10024296D01*
X2230627Y-10004410D01*
X2213830Y-9979271D01*
X2209159Y-9955789D01*
X2201587Y-9938640D01*
X2195764Y-9888449D01*
X2194800Y-9883600D01*
X2194800Y-8983600D01*
X2195764Y-8978750D01*
X2201587Y-8928559D01*
X2209159Y-8911408D01*
X2213830Y-8887929D01*
X2230626Y-8862791D01*
X2239408Y-8842903D01*
X2252991Y-8829319D01*
X2268023Y-8806823D01*
X2290519Y-8791791D01*
X2304103Y-8778208D01*
X2323991Y-8769426D01*
X2349129Y-8752630D01*
X2372608Y-8747959D01*
X2389759Y-8740387D01*
X2439951Y-8734564D01*
X2444800Y-8733600D01*
X3144800Y-8733600D01*
X3149650Y-8734564D01*
G37*
G36*
X5149650Y-8734564D02*
G01*
X5199840Y-8740387D01*
X5216989Y-8747959D01*
X5240471Y-8752630D01*
X5265610Y-8769427D01*
X5285496Y-8778208D01*
X5299077Y-8791789D01*
X5321577Y-8806823D01*
X5336610Y-8829322D01*
X5350191Y-8842903D01*
X5358970Y-8862786D01*
X5375770Y-8887929D01*
X5380441Y-8911412D01*
X5388012Y-8928559D01*
X5393833Y-8978739D01*
X5394800Y-8983600D01*
X5394800Y-9883600D01*
X5393832Y-9888463D01*
X5388012Y-9938640D01*
X5380441Y-9955785D01*
X5375770Y-9979271D01*
X5358969Y-10004415D01*
X5350191Y-10024296D01*
X5336612Y-10037874D01*
X5321577Y-10060377D01*
X5299074Y-10075412D01*
X5285496Y-10088991D01*
X5265615Y-10097769D01*
X5240471Y-10114570D01*
X5216985Y-10119241D01*
X5199840Y-10126812D01*
X5149661Y-10132632D01*
X5144800Y-10133600D01*
X4444800Y-10133600D01*
X4439938Y-10132632D01*
X4389759Y-10126812D01*
X4372612Y-10119241D01*
X4349129Y-10114570D01*
X4323986Y-10097770D01*
X4304103Y-10088991D01*
X4290522Y-10075410D01*
X4268023Y-10060377D01*
X4252989Y-10037877D01*
X4239408Y-10024296D01*
X4230627Y-10004410D01*
X4213830Y-9979271D01*
X4209159Y-9955789D01*
X4201587Y-9938640D01*
X4195764Y-9888449D01*
X4194800Y-9883600D01*
X4194800Y-8983600D01*
X4195764Y-8978750D01*
X4201587Y-8928559D01*
X4209159Y-8911408D01*
X4213830Y-8887929D01*
X4230626Y-8862791D01*
X4239408Y-8842903D01*
X4252991Y-8829319D01*
X4268023Y-8806823D01*
X4290519Y-8791791D01*
X4304103Y-8778208D01*
X4323991Y-8769426D01*
X4349129Y-8752630D01*
X4372608Y-8747959D01*
X4389759Y-8740387D01*
X4439951Y-8734564D01*
X4444800Y-8733600D01*
X5144800Y-8733600D01*
X5149650Y-8734564D01*
G37*
G36*
X69789611Y-8433711D02*
G01*
X69831388Y-8433711D01*
X69878518Y-8443728D01*
X69925817Y-8449058D01*
X69960208Y-8461092D01*
X69994910Y-8468468D01*
X70044917Y-8490733D01*
X70094907Y-8508225D01*
X70120928Y-8524575D01*
X70147635Y-8536466D01*
X70197433Y-8572646D01*
X70246592Y-8603535D01*
X70264244Y-8621187D01*
X70282884Y-8634730D01*
X70328965Y-8685908D01*
X70373265Y-8730208D01*
X70383454Y-8746424D01*
X70394746Y-8758965D01*
X70433373Y-8825870D01*
X70468575Y-8881893D01*
X70472970Y-8894453D01*
X70478335Y-8903746D01*
X70505810Y-8988305D01*
X70527742Y-9050983D01*
X70528573Y-9058363D01*
X70529995Y-9062738D01*
X70542877Y-9185316D01*
X70547800Y-9229000D01*
X70542875Y-9272707D01*
X70529995Y-9395261D01*
X70528573Y-9399635D01*
X70527742Y-9407017D01*
X70505805Y-9469707D01*
X70478335Y-9554253D01*
X70472971Y-9563543D01*
X70468575Y-9576107D01*
X70433366Y-9632140D01*
X70394746Y-9699034D01*
X70383456Y-9711572D01*
X70373265Y-9727792D01*
X70328955Y-9772101D01*
X70282884Y-9823269D01*
X70264248Y-9836808D01*
X70246592Y-9854465D01*
X70197423Y-9885359D01*
X70147635Y-9921533D01*
X70120934Y-9933421D01*
X70094907Y-9949775D01*
X70044907Y-9967270D01*
X69994910Y-9989531D01*
X69960214Y-9996905D01*
X69925817Y-10008942D01*
X69878515Y-10014271D01*
X69831388Y-10024289D01*
X69789611Y-10024289D01*
X69747800Y-10029000D01*
X69705989Y-10024289D01*
X69664212Y-10024289D01*
X69617084Y-10014271D01*
X69569783Y-10008942D01*
X69535386Y-9996906D01*
X69500689Y-9989531D01*
X69450687Y-9967268D01*
X69400693Y-9949775D01*
X69374668Y-9933422D01*
X69347964Y-9921533D01*
X69298169Y-9885355D01*
X69249008Y-9854465D01*
X69231354Y-9836811D01*
X69212715Y-9823269D01*
X69166633Y-9772090D01*
X69122335Y-9727792D01*
X69112145Y-9711575D01*
X69100853Y-9699034D01*
X69062220Y-9632120D01*
X69027025Y-9576107D01*
X69022630Y-9563547D01*
X69017264Y-9554253D01*
X68989780Y-9469667D01*
X68967858Y-9407017D01*
X68967026Y-9399639D01*
X68965604Y-9395261D01*
X68952709Y-9272575D01*
X68947800Y-9229000D01*
X68952707Y-9185448D01*
X68965604Y-9062738D01*
X68967026Y-9058358D01*
X68967858Y-9050983D01*
X68989775Y-8988345D01*
X69017264Y-8903746D01*
X69022631Y-8894449D01*
X69027025Y-8881893D01*
X69062213Y-8825890D01*
X69100853Y-8758965D01*
X69112147Y-8746421D01*
X69122335Y-8730208D01*
X69166626Y-8685916D01*
X69212717Y-8634728D01*
X69231359Y-8621183D01*
X69249008Y-8603535D01*
X69298154Y-8572654D01*
X69347962Y-8536467D01*
X69374673Y-8524574D01*
X69400693Y-8508225D01*
X69450677Y-8490734D01*
X69500689Y-8468468D01*
X69535392Y-8461091D01*
X69569783Y-8449058D01*
X69617081Y-8443728D01*
X69664212Y-8433711D01*
X69705989Y-8433711D01*
X69747800Y-8429000D01*
X69789611Y-8433711D01*
G37*
G36*
X56186011Y-8358911D02*
G01*
X56227788Y-8358911D01*
X56274918Y-8368928D01*
X56322217Y-8374258D01*
X56356608Y-8386292D01*
X56391310Y-8393668D01*
X56441317Y-8415933D01*
X56491307Y-8433425D01*
X56517328Y-8449775D01*
X56544035Y-8461666D01*
X56593833Y-8497846D01*
X56642992Y-8528735D01*
X56660644Y-8546387D01*
X56679284Y-8559930D01*
X56725365Y-8611108D01*
X56769665Y-8655408D01*
X56779854Y-8671624D01*
X56791146Y-8684165D01*
X56829773Y-8751070D01*
X56864975Y-8807093D01*
X56869370Y-8819653D01*
X56874735Y-8828946D01*
X56902210Y-8913505D01*
X56924142Y-8976183D01*
X56924973Y-8983563D01*
X56926395Y-8987938D01*
X56939277Y-9110516D01*
X56944200Y-9154200D01*
X56939275Y-9197907D01*
X56926395Y-9320461D01*
X56924973Y-9324835D01*
X56924142Y-9332217D01*
X56902205Y-9394907D01*
X56874735Y-9479453D01*
X56869371Y-9488743D01*
X56864975Y-9501307D01*
X56829766Y-9557340D01*
X56791146Y-9624234D01*
X56779856Y-9636772D01*
X56769665Y-9652992D01*
X56725355Y-9697301D01*
X56679284Y-9748469D01*
X56660648Y-9762008D01*
X56642992Y-9779665D01*
X56593823Y-9810559D01*
X56544035Y-9846733D01*
X56517334Y-9858621D01*
X56491307Y-9874975D01*
X56441307Y-9892470D01*
X56391310Y-9914731D01*
X56356614Y-9922105D01*
X56322217Y-9934142D01*
X56274915Y-9939471D01*
X56227788Y-9949489D01*
X56186011Y-9949489D01*
X56144200Y-9954200D01*
X56102389Y-9949489D01*
X56060612Y-9949489D01*
X56013484Y-9939471D01*
X55966183Y-9934142D01*
X55931786Y-9922106D01*
X55897089Y-9914731D01*
X55847087Y-9892468D01*
X55797093Y-9874975D01*
X55771068Y-9858622D01*
X55744364Y-9846733D01*
X55694569Y-9810555D01*
X55645408Y-9779665D01*
X55627754Y-9762011D01*
X55609115Y-9748469D01*
X55563033Y-9697290D01*
X55518735Y-9652992D01*
X55508545Y-9636775D01*
X55497253Y-9624234D01*
X55458620Y-9557320D01*
X55423425Y-9501307D01*
X55419030Y-9488747D01*
X55413664Y-9479453D01*
X55386180Y-9394867D01*
X55364258Y-9332217D01*
X55363426Y-9324839D01*
X55362004Y-9320461D01*
X55349109Y-9197775D01*
X55344200Y-9154200D01*
X55349107Y-9110648D01*
X55362004Y-8987938D01*
X55363426Y-8983558D01*
X55364258Y-8976183D01*
X55386175Y-8913545D01*
X55413664Y-8828946D01*
X55419031Y-8819649D01*
X55423425Y-8807093D01*
X55458613Y-8751090D01*
X55497253Y-8684165D01*
X55508547Y-8671621D01*
X55518735Y-8655408D01*
X55563026Y-8611116D01*
X55609117Y-8559928D01*
X55627759Y-8546383D01*
X55645408Y-8528735D01*
X55694554Y-8497854D01*
X55744362Y-8461667D01*
X55771073Y-8449774D01*
X55797093Y-8433425D01*
X55847077Y-8415934D01*
X55897089Y-8393668D01*
X55931792Y-8386291D01*
X55966183Y-8374258D01*
X56013481Y-8368928D01*
X56060612Y-8358911D01*
X56102389Y-8358911D01*
X56144200Y-8354200D01*
X56186011Y-8358911D01*
G37*
G36*
X66346011Y-8358911D02*
G01*
X66387788Y-8358911D01*
X66434918Y-8368928D01*
X66482217Y-8374258D01*
X66516608Y-8386292D01*
X66551310Y-8393668D01*
X66601317Y-8415933D01*
X66651307Y-8433425D01*
X66677328Y-8449775D01*
X66704035Y-8461666D01*
X66753833Y-8497846D01*
X66802992Y-8528735D01*
X66820644Y-8546387D01*
X66839284Y-8559930D01*
X66885365Y-8611108D01*
X66929665Y-8655408D01*
X66939854Y-8671624D01*
X66951146Y-8684165D01*
X66989773Y-8751070D01*
X67024975Y-8807093D01*
X67029370Y-8819653D01*
X67034735Y-8828946D01*
X67062210Y-8913505D01*
X67084142Y-8976183D01*
X67084973Y-8983563D01*
X67086395Y-8987938D01*
X67099277Y-9110516D01*
X67104200Y-9154200D01*
X67099275Y-9197907D01*
X67086395Y-9320461D01*
X67084973Y-9324835D01*
X67084142Y-9332217D01*
X67062205Y-9394907D01*
X67034735Y-9479453D01*
X67029371Y-9488743D01*
X67024975Y-9501307D01*
X66989766Y-9557340D01*
X66951146Y-9624234D01*
X66939856Y-9636772D01*
X66929665Y-9652992D01*
X66885355Y-9697301D01*
X66839284Y-9748469D01*
X66820648Y-9762008D01*
X66802992Y-9779665D01*
X66753823Y-9810559D01*
X66704035Y-9846733D01*
X66677334Y-9858621D01*
X66651307Y-9874975D01*
X66601307Y-9892470D01*
X66551310Y-9914731D01*
X66516614Y-9922105D01*
X66482217Y-9934142D01*
X66434915Y-9939471D01*
X66387788Y-9949489D01*
X66346011Y-9949489D01*
X66304200Y-9954200D01*
X66262389Y-9949489D01*
X66220612Y-9949489D01*
X66173484Y-9939471D01*
X66126183Y-9934142D01*
X66091786Y-9922106D01*
X66057089Y-9914731D01*
X66007087Y-9892468D01*
X65957093Y-9874975D01*
X65931068Y-9858622D01*
X65904364Y-9846733D01*
X65854569Y-9810555D01*
X65805408Y-9779665D01*
X65787754Y-9762011D01*
X65769115Y-9748469D01*
X65723033Y-9697290D01*
X65678735Y-9652992D01*
X65668545Y-9636775D01*
X65657253Y-9624234D01*
X65618620Y-9557320D01*
X65583425Y-9501307D01*
X65579030Y-9488747D01*
X65573664Y-9479453D01*
X65546180Y-9394867D01*
X65524258Y-9332217D01*
X65523426Y-9324839D01*
X65522004Y-9320461D01*
X65509109Y-9197775D01*
X65504200Y-9154200D01*
X65509107Y-9110648D01*
X65522004Y-8987938D01*
X65523426Y-8983558D01*
X65524258Y-8976183D01*
X65546175Y-8913545D01*
X65573664Y-8828946D01*
X65579031Y-8819649D01*
X65583425Y-8807093D01*
X65618613Y-8751090D01*
X65657253Y-8684165D01*
X65668547Y-8671621D01*
X65678735Y-8655408D01*
X65723026Y-8611116D01*
X65769117Y-8559928D01*
X65787759Y-8546383D01*
X65805408Y-8528735D01*
X65854554Y-8497854D01*
X65904362Y-8461667D01*
X65931073Y-8449774D01*
X65957093Y-8433425D01*
X66007077Y-8415934D01*
X66057089Y-8393668D01*
X66091792Y-8386291D01*
X66126183Y-8374258D01*
X66173481Y-8368928D01*
X66220612Y-8358911D01*
X66262389Y-8358911D01*
X66304200Y-8354200D01*
X66346011Y-8358911D01*
G37*
G36*
X18168850Y-8647364D02*
G01*
X18219040Y-8653187D01*
X18236189Y-8660759D01*
X18259671Y-8665430D01*
X18284810Y-8682227D01*
X18304696Y-8691008D01*
X18318277Y-8704589D01*
X18340777Y-8719623D01*
X18355810Y-8742122D01*
X18369391Y-8755703D01*
X18378170Y-8775586D01*
X18394970Y-8800729D01*
X18399641Y-8824212D01*
X18407212Y-8841359D01*
X18413033Y-8891539D01*
X18414000Y-8896400D01*
X18414000Y-9596400D01*
X18413032Y-9601263D01*
X18407212Y-9651440D01*
X18399641Y-9668585D01*
X18394970Y-9692071D01*
X18378169Y-9717215D01*
X18369391Y-9737096D01*
X18355812Y-9750674D01*
X18340777Y-9773177D01*
X18318274Y-9788212D01*
X18304696Y-9801791D01*
X18284815Y-9810569D01*
X18259671Y-9827370D01*
X18236185Y-9832041D01*
X18219040Y-9839612D01*
X18168861Y-9845432D01*
X18164000Y-9846400D01*
X17264000Y-9846400D01*
X17259138Y-9845432D01*
X17208959Y-9839612D01*
X17191812Y-9832041D01*
X17168329Y-9827370D01*
X17143186Y-9810570D01*
X17123303Y-9801791D01*
X17109722Y-9788210D01*
X17087223Y-9773177D01*
X17072189Y-9750677D01*
X17058608Y-9737096D01*
X17049827Y-9717210D01*
X17033030Y-9692071D01*
X17028359Y-9668589D01*
X17020787Y-9651440D01*
X17014964Y-9601249D01*
X17014000Y-9596400D01*
X17014000Y-8896400D01*
X17014964Y-8891550D01*
X17020787Y-8841359D01*
X17028359Y-8824208D01*
X17033030Y-8800729D01*
X17049826Y-8775591D01*
X17058608Y-8755703D01*
X17072191Y-8742119D01*
X17087223Y-8719623D01*
X17109719Y-8704591D01*
X17123303Y-8691008D01*
X17143191Y-8682226D01*
X17168329Y-8665430D01*
X17191808Y-8660759D01*
X17208959Y-8653187D01*
X17259151Y-8647364D01*
X17264000Y-8646400D01*
X18164000Y-8646400D01*
X18168850Y-8647364D01*
G37*
G36*
X16049200Y-9696400D02*
G01*
X14149200Y-9696400D01*
X14149200Y-8896400D01*
X16049200Y-8896400D01*
X16049200Y-9696400D01*
G37*
G36*
X3244800Y-8073600D02*
G01*
X2444800Y-8073600D01*
X2444800Y-6173600D01*
X3244800Y-6173600D01*
X3244800Y-8073600D01*
G37*
G36*
X5144800Y-8073600D02*
G01*
X4344800Y-8073600D01*
X4344800Y-6173600D01*
X5144800Y-6173600D01*
X5144800Y-8073600D01*
G37*
G36*
X18168850Y-6430964D02*
G01*
X18219040Y-6436787D01*
X18236189Y-6444359D01*
X18259671Y-6449030D01*
X18284810Y-6465827D01*
X18304696Y-6474608D01*
X18318277Y-6488189D01*
X18340777Y-6503223D01*
X18355810Y-6525722D01*
X18369391Y-6539303D01*
X18378170Y-6559186D01*
X18394970Y-6584329D01*
X18399641Y-6607812D01*
X18407212Y-6624959D01*
X18413033Y-6675139D01*
X18414000Y-6680000D01*
X18414000Y-7380000D01*
X18413032Y-7384863D01*
X18407212Y-7435040D01*
X18399641Y-7452185D01*
X18394970Y-7475671D01*
X18378169Y-7500815D01*
X18369391Y-7520696D01*
X18355812Y-7534274D01*
X18340777Y-7556777D01*
X18318274Y-7571812D01*
X18304696Y-7585391D01*
X18284815Y-7594169D01*
X18259671Y-7610970D01*
X18236185Y-7615641D01*
X18219040Y-7623212D01*
X18168861Y-7629032D01*
X18164000Y-7630000D01*
X17264000Y-7630000D01*
X17259138Y-7629032D01*
X17208959Y-7623212D01*
X17191812Y-7615641D01*
X17168329Y-7610970D01*
X17143186Y-7594170D01*
X17123303Y-7585391D01*
X17109722Y-7571810D01*
X17087223Y-7556777D01*
X17072189Y-7534277D01*
X17058608Y-7520696D01*
X17049827Y-7500810D01*
X17033030Y-7475671D01*
X17028359Y-7452189D01*
X17020787Y-7435040D01*
X17014964Y-7384849D01*
X17014000Y-7380000D01*
X17014000Y-6680000D01*
X17014964Y-6675150D01*
X17020787Y-6624959D01*
X17028359Y-6607808D01*
X17033030Y-6584329D01*
X17049826Y-6559191D01*
X17058608Y-6539303D01*
X17072191Y-6525719D01*
X17087223Y-6503223D01*
X17109719Y-6488191D01*
X17123303Y-6474608D01*
X17143191Y-6465826D01*
X17168329Y-6449030D01*
X17191808Y-6444359D01*
X17208959Y-6436787D01*
X17259151Y-6430964D01*
X17264000Y-6430000D01*
X18164000Y-6430000D01*
X18168850Y-6430964D01*
G37*
G36*
X16076000Y-7380000D02*
G01*
X14176000Y-7380000D01*
X14176000Y-6580000D01*
X16076000Y-6580000D01*
X16076000Y-7380000D01*
G37*
G36*
X8847113Y-5104930D02*
G01*
X8894076Y-5104930D01*
X8934622Y-5113548D01*
X8975526Y-5117577D01*
X9026916Y-5133166D01*
X9078115Y-5144049D01*
X9110879Y-5158636D01*
X9144304Y-5168776D01*
X9197420Y-5197166D01*
X9250000Y-5220577D01*
X9274445Y-5238337D01*
X9299849Y-5251916D01*
X9351669Y-5294444D01*
X9402218Y-5331170D01*
X9418631Y-5349398D01*
X9436190Y-5363809D01*
X9483379Y-5421308D01*
X9528115Y-5470993D01*
X9537512Y-5487269D01*
X9548083Y-5500150D01*
X9587183Y-5573302D01*
X9622191Y-5633937D01*
X9626218Y-5646331D01*
X9631223Y-5655695D01*
X9658821Y-5746672D01*
X9680333Y-5812879D01*
X9681090Y-5820082D01*
X9682422Y-5824473D01*
X9695377Y-5956021D01*
X9700000Y-6000000D01*
X9695377Y-6043982D01*
X9682422Y-6175526D01*
X9681090Y-6179916D01*
X9680333Y-6187121D01*
X9658816Y-6253341D01*
X9631223Y-6344304D01*
X9626219Y-6353665D01*
X9622191Y-6366063D01*
X9587176Y-6426709D01*
X9548083Y-6499849D01*
X9537514Y-6512726D01*
X9528115Y-6529007D01*
X9483369Y-6578701D01*
X9436190Y-6636190D01*
X9418634Y-6650597D01*
X9402218Y-6668830D01*
X9351659Y-6705563D01*
X9299849Y-6748083D01*
X9274450Y-6761658D01*
X9250000Y-6779423D01*
X9197408Y-6802838D01*
X9144304Y-6831223D01*
X9110886Y-6841360D01*
X9078115Y-6855951D01*
X9026905Y-6866836D01*
X8975526Y-6882422D01*
X8934631Y-6886449D01*
X8894076Y-6895070D01*
X8847103Y-6895070D01*
X8800000Y-6899709D01*
X8752897Y-6895070D01*
X8705924Y-6895070D01*
X8665368Y-6886449D01*
X8624473Y-6882422D01*
X8573091Y-6866835D01*
X8521885Y-6855951D01*
X8489115Y-6841361D01*
X8455695Y-6831223D01*
X8402585Y-6802835D01*
X8350000Y-6779423D01*
X8325552Y-6761660D01*
X8300150Y-6748083D01*
X8248332Y-6705556D01*
X8197782Y-6668830D01*
X8181368Y-6650600D01*
X8163809Y-6636190D01*
X8116618Y-6578688D01*
X8071885Y-6529007D01*
X8062487Y-6512730D01*
X8051916Y-6499849D01*
X8012810Y-6426686D01*
X7977809Y-6366063D01*
X7973782Y-6353670D01*
X7968776Y-6344304D01*
X7941168Y-6253294D01*
X7919667Y-6187121D01*
X7918910Y-6179921D01*
X7917577Y-6175526D01*
X7904606Y-6043831D01*
X7900000Y-6000000D01*
X7904606Y-5956172D01*
X7917577Y-5824473D01*
X7918910Y-5820077D01*
X7919667Y-5812879D01*
X7941163Y-5746719D01*
X7968776Y-5655695D01*
X7973783Y-5646327D01*
X7977809Y-5633937D01*
X8012802Y-5573326D01*
X8051916Y-5500150D01*
X8062489Y-5487265D01*
X8071885Y-5470993D01*
X8116609Y-5421321D01*
X8163809Y-5363809D01*
X8181371Y-5349395D01*
X8197782Y-5331170D01*
X8248321Y-5294450D01*
X8300150Y-5251916D01*
X8325557Y-5238335D01*
X8350000Y-5220577D01*
X8402573Y-5197169D01*
X8455695Y-5168776D01*
X8489122Y-5158635D01*
X8521885Y-5144049D01*
X8573080Y-5133166D01*
X8624473Y-5117577D01*
X8665377Y-5113548D01*
X8705924Y-5104930D01*
X8752887Y-5104930D01*
X8800000Y-5100290D01*
X8847113Y-5104930D01*
G37*
G36*
X78947113Y-5104930D02*
G01*
X78994076Y-5104930D01*
X79034622Y-5113548D01*
X79075526Y-5117577D01*
X79126916Y-5133166D01*
X79178115Y-5144049D01*
X79210879Y-5158636D01*
X79244304Y-5168776D01*
X79297420Y-5197166D01*
X79350000Y-5220577D01*
X79374445Y-5238337D01*
X79399849Y-5251916D01*
X79451669Y-5294444D01*
X79502218Y-5331170D01*
X79518631Y-5349398D01*
X79536190Y-5363809D01*
X79583379Y-5421308D01*
X79628115Y-5470993D01*
X79637512Y-5487269D01*
X79648083Y-5500150D01*
X79687183Y-5573302D01*
X79722191Y-5633937D01*
X79726218Y-5646331D01*
X79731223Y-5655695D01*
X79758821Y-5746672D01*
X79780333Y-5812879D01*
X79781090Y-5820082D01*
X79782422Y-5824473D01*
X79795377Y-5956021D01*
X79800000Y-6000000D01*
X79795377Y-6043982D01*
X79782422Y-6175526D01*
X79781090Y-6179916D01*
X79780333Y-6187121D01*
X79758816Y-6253341D01*
X79731223Y-6344304D01*
X79726219Y-6353665D01*
X79722191Y-6366063D01*
X79687176Y-6426709D01*
X79648083Y-6499849D01*
X79637514Y-6512726D01*
X79628115Y-6529007D01*
X79583369Y-6578701D01*
X79536190Y-6636190D01*
X79518634Y-6650597D01*
X79502218Y-6668830D01*
X79451659Y-6705563D01*
X79399849Y-6748083D01*
X79374450Y-6761658D01*
X79350000Y-6779423D01*
X79297408Y-6802838D01*
X79244304Y-6831223D01*
X79210886Y-6841360D01*
X79178115Y-6855951D01*
X79126905Y-6866836D01*
X79075526Y-6882422D01*
X79034631Y-6886449D01*
X78994076Y-6895070D01*
X78947103Y-6895070D01*
X78900000Y-6899709D01*
X78852897Y-6895070D01*
X78805924Y-6895070D01*
X78765368Y-6886449D01*
X78724473Y-6882422D01*
X78673091Y-6866835D01*
X78621885Y-6855951D01*
X78589115Y-6841361D01*
X78555695Y-6831223D01*
X78502585Y-6802835D01*
X78450000Y-6779423D01*
X78425552Y-6761660D01*
X78400150Y-6748083D01*
X78348332Y-6705556D01*
X78297782Y-6668830D01*
X78281368Y-6650600D01*
X78263809Y-6636190D01*
X78216618Y-6578688D01*
X78171885Y-6529007D01*
X78162487Y-6512730D01*
X78151916Y-6499849D01*
X78112810Y-6426686D01*
X78077809Y-6366063D01*
X78073782Y-6353670D01*
X78068776Y-6344304D01*
X78041168Y-6253294D01*
X78019667Y-6187121D01*
X78018910Y-6179921D01*
X78017577Y-6175526D01*
X78004606Y-6043831D01*
X78000000Y-6000000D01*
X78004606Y-5956172D01*
X78017577Y-5824473D01*
X78018910Y-5820077D01*
X78019667Y-5812879D01*
X78041163Y-5746719D01*
X78068776Y-5655695D01*
X78073783Y-5646327D01*
X78077809Y-5633937D01*
X78112802Y-5573326D01*
X78151916Y-5500150D01*
X78162489Y-5487265D01*
X78171885Y-5470993D01*
X78216609Y-5421321D01*
X78263809Y-5363809D01*
X78281371Y-5349395D01*
X78297782Y-5331170D01*
X78348321Y-5294450D01*
X78400150Y-5251916D01*
X78425557Y-5238335D01*
X78450000Y-5220577D01*
X78502573Y-5197169D01*
X78555695Y-5168776D01*
X78589122Y-5158635D01*
X78621885Y-5144049D01*
X78673080Y-5133166D01*
X78724473Y-5117577D01*
X78765377Y-5113548D01*
X78805924Y-5104930D01*
X78852887Y-5104930D01*
X78900000Y-5100290D01*
X78947113Y-5104930D01*
G37*
G36*
X54042200Y-6549000D02*
G01*
X51642200Y-6549000D01*
X51642200Y-4149000D01*
X54042200Y-4149000D01*
X54042200Y-6549000D01*
G37*
G36*
X13076000Y-6430000D02*
G01*
X11176000Y-6430000D01*
X11176000Y-5630000D01*
X13076000Y-5630000D01*
X13076000Y-6430000D01*
G37*
G36*
X56186011Y-4634911D02*
G01*
X56227788Y-4634911D01*
X56274918Y-4644928D01*
X56322217Y-4650258D01*
X56356608Y-4662292D01*
X56391310Y-4669668D01*
X56441317Y-4691933D01*
X56491307Y-4709425D01*
X56517328Y-4725775D01*
X56544035Y-4737666D01*
X56593833Y-4773846D01*
X56642992Y-4804735D01*
X56660644Y-4822387D01*
X56679284Y-4835930D01*
X56725365Y-4887108D01*
X56769665Y-4931408D01*
X56779854Y-4947624D01*
X56791146Y-4960165D01*
X56829773Y-5027070D01*
X56864975Y-5083093D01*
X56869370Y-5095653D01*
X56874735Y-5104946D01*
X56902210Y-5189505D01*
X56924142Y-5252183D01*
X56924973Y-5259563D01*
X56926395Y-5263938D01*
X56939276Y-5386506D01*
X56944200Y-5430200D01*
X56939276Y-5473897D01*
X56926395Y-5596461D01*
X56924973Y-5600835D01*
X56924142Y-5608217D01*
X56902205Y-5670907D01*
X56874735Y-5755453D01*
X56869371Y-5764743D01*
X56864975Y-5777307D01*
X56829766Y-5833340D01*
X56791146Y-5900234D01*
X56779856Y-5912772D01*
X56769665Y-5928992D01*
X56725355Y-5973301D01*
X56679284Y-6024469D01*
X56660648Y-6038008D01*
X56642992Y-6055665D01*
X56593823Y-6086559D01*
X56544035Y-6122733D01*
X56517334Y-6134621D01*
X56491307Y-6150975D01*
X56441307Y-6168470D01*
X56391310Y-6190731D01*
X56356614Y-6198105D01*
X56322217Y-6210142D01*
X56274915Y-6215471D01*
X56227788Y-6225489D01*
X56186011Y-6225489D01*
X56144200Y-6230200D01*
X56102389Y-6225489D01*
X56060612Y-6225489D01*
X56013484Y-6215471D01*
X55966183Y-6210142D01*
X55931786Y-6198106D01*
X55897089Y-6190731D01*
X55847087Y-6168468D01*
X55797093Y-6150975D01*
X55771068Y-6134622D01*
X55744364Y-6122733D01*
X55694569Y-6086555D01*
X55645408Y-6055665D01*
X55627754Y-6038011D01*
X55609115Y-6024469D01*
X55563033Y-5973290D01*
X55518735Y-5928992D01*
X55508545Y-5912775D01*
X55497253Y-5900234D01*
X55458620Y-5833320D01*
X55423425Y-5777307D01*
X55419030Y-5764747D01*
X55413664Y-5755453D01*
X55386180Y-5670867D01*
X55364258Y-5608217D01*
X55363426Y-5600839D01*
X55362004Y-5596461D01*
X55349108Y-5473765D01*
X55344200Y-5430200D01*
X55349108Y-5386638D01*
X55362004Y-5263938D01*
X55363426Y-5259558D01*
X55364258Y-5252183D01*
X55386175Y-5189545D01*
X55413664Y-5104946D01*
X55419031Y-5095649D01*
X55423425Y-5083093D01*
X55458613Y-5027090D01*
X55497253Y-4960165D01*
X55508547Y-4947621D01*
X55518735Y-4931408D01*
X55563026Y-4887116D01*
X55609117Y-4835928D01*
X55627759Y-4822383D01*
X55645408Y-4804735D01*
X55694554Y-4773854D01*
X55744362Y-4737667D01*
X55771073Y-4725774D01*
X55797093Y-4709425D01*
X55847077Y-4691934D01*
X55897089Y-4669668D01*
X55931792Y-4662291D01*
X55966183Y-4650258D01*
X56013481Y-4644928D01*
X56060612Y-4634911D01*
X56102389Y-4634911D01*
X56144200Y-4630200D01*
X56186011Y-4634911D01*
G37*
G36*
X66346011Y-4634911D02*
G01*
X66387788Y-4634911D01*
X66434918Y-4644928D01*
X66482217Y-4650258D01*
X66516608Y-4662292D01*
X66551310Y-4669668D01*
X66601317Y-4691933D01*
X66651307Y-4709425D01*
X66677328Y-4725775D01*
X66704035Y-4737666D01*
X66753833Y-4773846D01*
X66802992Y-4804735D01*
X66820644Y-4822387D01*
X66839284Y-4835930D01*
X66885365Y-4887108D01*
X66929665Y-4931408D01*
X66939854Y-4947624D01*
X66951146Y-4960165D01*
X66989773Y-5027070D01*
X67024975Y-5083093D01*
X67029370Y-5095653D01*
X67034735Y-5104946D01*
X67062210Y-5189505D01*
X67084142Y-5252183D01*
X67084973Y-5259563D01*
X67086395Y-5263938D01*
X67099276Y-5386506D01*
X67104200Y-5430200D01*
X67099276Y-5473897D01*
X67086395Y-5596461D01*
X67084973Y-5600835D01*
X67084142Y-5608217D01*
X67062205Y-5670907D01*
X67034735Y-5755453D01*
X67029371Y-5764743D01*
X67024975Y-5777307D01*
X66989766Y-5833340D01*
X66951146Y-5900234D01*
X66939856Y-5912772D01*
X66929665Y-5928992D01*
X66885355Y-5973301D01*
X66839284Y-6024469D01*
X66820648Y-6038008D01*
X66802992Y-6055665D01*
X66753823Y-6086559D01*
X66704035Y-6122733D01*
X66677334Y-6134621D01*
X66651307Y-6150975D01*
X66601307Y-6168470D01*
X66551310Y-6190731D01*
X66516614Y-6198105D01*
X66482217Y-6210142D01*
X66434915Y-6215471D01*
X66387788Y-6225489D01*
X66346011Y-6225489D01*
X66304200Y-6230200D01*
X66262389Y-6225489D01*
X66220612Y-6225489D01*
X66173484Y-6215471D01*
X66126183Y-6210142D01*
X66091786Y-6198106D01*
X66057089Y-6190731D01*
X66007087Y-6168468D01*
X65957093Y-6150975D01*
X65931068Y-6134622D01*
X65904364Y-6122733D01*
X65854569Y-6086555D01*
X65805408Y-6055665D01*
X65787754Y-6038011D01*
X65769115Y-6024469D01*
X65723033Y-5973290D01*
X65678735Y-5928992D01*
X65668545Y-5912775D01*
X65657253Y-5900234D01*
X65618620Y-5833320D01*
X65583425Y-5777307D01*
X65579030Y-5764747D01*
X65573664Y-5755453D01*
X65546180Y-5670867D01*
X65524258Y-5608217D01*
X65523426Y-5600839D01*
X65522004Y-5596461D01*
X65509108Y-5473765D01*
X65504200Y-5430200D01*
X65509108Y-5386638D01*
X65522004Y-5263938D01*
X65523426Y-5259558D01*
X65524258Y-5252183D01*
X65546175Y-5189545D01*
X65573664Y-5104946D01*
X65579031Y-5095649D01*
X65583425Y-5083093D01*
X65618613Y-5027090D01*
X65657253Y-4960165D01*
X65668547Y-4947621D01*
X65678735Y-4931408D01*
X65723026Y-4887116D01*
X65769117Y-4835928D01*
X65787759Y-4822383D01*
X65805408Y-4804735D01*
X65854554Y-4773854D01*
X65904362Y-4737667D01*
X65931073Y-4725774D01*
X65957093Y-4709425D01*
X66007077Y-4691934D01*
X66057089Y-4669668D01*
X66091792Y-4662291D01*
X66126183Y-4650258D01*
X66173481Y-4644928D01*
X66220612Y-4634911D01*
X66262389Y-4634911D01*
X66304200Y-4630200D01*
X66346011Y-4634911D01*
G37*
G36*
X74789611Y-4321711D02*
G01*
X74831388Y-4321711D01*
X74878518Y-4331728D01*
X74925817Y-4337058D01*
X74960208Y-4349092D01*
X74994910Y-4356468D01*
X75044917Y-4378733D01*
X75094907Y-4396225D01*
X75120928Y-4412575D01*
X75147635Y-4424466D01*
X75197433Y-4460646D01*
X75246592Y-4491535D01*
X75264244Y-4509187D01*
X75282884Y-4522730D01*
X75328965Y-4573908D01*
X75373265Y-4618208D01*
X75383454Y-4634424D01*
X75394746Y-4646965D01*
X75433373Y-4713870D01*
X75468575Y-4769893D01*
X75472970Y-4782453D01*
X75478335Y-4791746D01*
X75505810Y-4876305D01*
X75527742Y-4938983D01*
X75528573Y-4946363D01*
X75529995Y-4950738D01*
X75542876Y-5073306D01*
X75547800Y-5117000D01*
X75542876Y-5160697D01*
X75529995Y-5283261D01*
X75528573Y-5287635D01*
X75527742Y-5295017D01*
X75505805Y-5357707D01*
X75478335Y-5442253D01*
X75472971Y-5451543D01*
X75468575Y-5464107D01*
X75433366Y-5520140D01*
X75394746Y-5587034D01*
X75383456Y-5599572D01*
X75373265Y-5615792D01*
X75328955Y-5660101D01*
X75282884Y-5711269D01*
X75264248Y-5724808D01*
X75246592Y-5742465D01*
X75197423Y-5773359D01*
X75147635Y-5809533D01*
X75120934Y-5821421D01*
X75094907Y-5837775D01*
X75044907Y-5855270D01*
X74994910Y-5877531D01*
X74960214Y-5884905D01*
X74925817Y-5896942D01*
X74878515Y-5902271D01*
X74831388Y-5912289D01*
X74789611Y-5912289D01*
X74747800Y-5917000D01*
X74705989Y-5912289D01*
X74664212Y-5912289D01*
X74617084Y-5902271D01*
X74569783Y-5896942D01*
X74535386Y-5884906D01*
X74500689Y-5877531D01*
X74450687Y-5855268D01*
X74400693Y-5837775D01*
X74374668Y-5821422D01*
X74347964Y-5809533D01*
X74298169Y-5773355D01*
X74249008Y-5742465D01*
X74231354Y-5724811D01*
X74212715Y-5711269D01*
X74166633Y-5660090D01*
X74122335Y-5615792D01*
X74112145Y-5599575D01*
X74100853Y-5587034D01*
X74062220Y-5520120D01*
X74027025Y-5464107D01*
X74022630Y-5451547D01*
X74017264Y-5442253D01*
X73989780Y-5357667D01*
X73967858Y-5295017D01*
X73967026Y-5287639D01*
X73965604Y-5283261D01*
X73952708Y-5160565D01*
X73947800Y-5117000D01*
X73952708Y-5073438D01*
X73965604Y-4950738D01*
X73967026Y-4946358D01*
X73967858Y-4938983D01*
X73989775Y-4876345D01*
X74017264Y-4791746D01*
X74022631Y-4782449D01*
X74027025Y-4769893D01*
X74062213Y-4713890D01*
X74100853Y-4646965D01*
X74112147Y-4634421D01*
X74122335Y-4618208D01*
X74166626Y-4573916D01*
X74212717Y-4522728D01*
X74231359Y-4509183D01*
X74249008Y-4491535D01*
X74298154Y-4460654D01*
X74347962Y-4424467D01*
X74374673Y-4412574D01*
X74400693Y-4396225D01*
X74450677Y-4378734D01*
X74500689Y-4356468D01*
X74535392Y-4349091D01*
X74569783Y-4337058D01*
X74617081Y-4331728D01*
X74664212Y-4321711D01*
X74705989Y-4321711D01*
X74747800Y-4317000D01*
X74789611Y-4321711D01*
G37*
G36*
X41952011Y-4126911D02*
G01*
X41993788Y-4126911D01*
X42040918Y-4136928D01*
X42088217Y-4142258D01*
X42122608Y-4154292D01*
X42157310Y-4161668D01*
X42207317Y-4183933D01*
X42257307Y-4201425D01*
X42283328Y-4217775D01*
X42310035Y-4229666D01*
X42359833Y-4265846D01*
X42408992Y-4296735D01*
X42426644Y-4314387D01*
X42445284Y-4327930D01*
X42491365Y-4379108D01*
X42535665Y-4423408D01*
X42545854Y-4439624D01*
X42557146Y-4452165D01*
X42595773Y-4519070D01*
X42630975Y-4575093D01*
X42635370Y-4587653D01*
X42640735Y-4596946D01*
X42668210Y-4681505D01*
X42690142Y-4744183D01*
X42690973Y-4751563D01*
X42692395Y-4755938D01*
X42705277Y-4878516D01*
X42710200Y-4922200D01*
X42705275Y-4965907D01*
X42692395Y-5088461D01*
X42690973Y-5092835D01*
X42690142Y-5100217D01*
X42668205Y-5162907D01*
X42640735Y-5247453D01*
X42635371Y-5256743D01*
X42630975Y-5269307D01*
X42595766Y-5325340D01*
X42557146Y-5392234D01*
X42545856Y-5404772D01*
X42535665Y-5420992D01*
X42491355Y-5465301D01*
X42445284Y-5516469D01*
X42426648Y-5530008D01*
X42408992Y-5547665D01*
X42359823Y-5578559D01*
X42310035Y-5614733D01*
X42283334Y-5626621D01*
X42257307Y-5642975D01*
X42207307Y-5660470D01*
X42157310Y-5682731D01*
X42122614Y-5690105D01*
X42088217Y-5702142D01*
X42040915Y-5707471D01*
X41993788Y-5717489D01*
X41952011Y-5717489D01*
X41910200Y-5722200D01*
X41868389Y-5717489D01*
X41826612Y-5717489D01*
X41779484Y-5707471D01*
X41732183Y-5702142D01*
X41697786Y-5690106D01*
X41663089Y-5682731D01*
X41613087Y-5660468D01*
X41563093Y-5642975D01*
X41537068Y-5626622D01*
X41510364Y-5614733D01*
X41460569Y-5578555D01*
X41411408Y-5547665D01*
X41393754Y-5530011D01*
X41375115Y-5516469D01*
X41329033Y-5465290D01*
X41284735Y-5420992D01*
X41274545Y-5404775D01*
X41263253Y-5392234D01*
X41224620Y-5325320D01*
X41189425Y-5269307D01*
X41185030Y-5256747D01*
X41179664Y-5247453D01*
X41152180Y-5162867D01*
X41130258Y-5100217D01*
X41129426Y-5092839D01*
X41128004Y-5088461D01*
X41115109Y-4965775D01*
X41110200Y-4922200D01*
X41115107Y-4878648D01*
X41128004Y-4755938D01*
X41129426Y-4751558D01*
X41130258Y-4744183D01*
X41152175Y-4681545D01*
X41179664Y-4596946D01*
X41185031Y-4587649D01*
X41189425Y-4575093D01*
X41224613Y-4519090D01*
X41263253Y-4452165D01*
X41274547Y-4439621D01*
X41284735Y-4423408D01*
X41329026Y-4379116D01*
X41375117Y-4327928D01*
X41393759Y-4314383D01*
X41411408Y-4296735D01*
X41460554Y-4265854D01*
X41510362Y-4229667D01*
X41537073Y-4217774D01*
X41563093Y-4201425D01*
X41613077Y-4183934D01*
X41663089Y-4161668D01*
X41697792Y-4154291D01*
X41732183Y-4142258D01*
X41779481Y-4136928D01*
X41826612Y-4126911D01*
X41868389Y-4126911D01*
X41910200Y-4122200D01*
X41952011Y-4126911D01*
G37*
G36*
X50330200Y-5722200D02*
G01*
X48730200Y-5722200D01*
X48730200Y-4122200D01*
X50330200Y-4122200D01*
X50330200Y-5722200D01*
G37*
G36*
X18168850Y-4430964D02*
G01*
X18219040Y-4436787D01*
X18236189Y-4444359D01*
X18259671Y-4449030D01*
X18284810Y-4465827D01*
X18304696Y-4474608D01*
X18318277Y-4488189D01*
X18340777Y-4503223D01*
X18355810Y-4525722D01*
X18369391Y-4539303D01*
X18378170Y-4559186D01*
X18394970Y-4584329D01*
X18399641Y-4607812D01*
X18407212Y-4624959D01*
X18413033Y-4675139D01*
X18414000Y-4680000D01*
X18414000Y-5380000D01*
X18413032Y-5384863D01*
X18407212Y-5435040D01*
X18399641Y-5452185D01*
X18394970Y-5475671D01*
X18378169Y-5500815D01*
X18369391Y-5520696D01*
X18355812Y-5534274D01*
X18340777Y-5556777D01*
X18318274Y-5571812D01*
X18304696Y-5585391D01*
X18284815Y-5594169D01*
X18259671Y-5610970D01*
X18236185Y-5615641D01*
X18219040Y-5623212D01*
X18168861Y-5629032D01*
X18164000Y-5630000D01*
X17264000Y-5630000D01*
X17259138Y-5629032D01*
X17208959Y-5623212D01*
X17191812Y-5615641D01*
X17168329Y-5610970D01*
X17143186Y-5594170D01*
X17123303Y-5585391D01*
X17109722Y-5571810D01*
X17087223Y-5556777D01*
X17072189Y-5534277D01*
X17058608Y-5520696D01*
X17049827Y-5500810D01*
X17033030Y-5475671D01*
X17028359Y-5452189D01*
X17020787Y-5435040D01*
X17014964Y-5384849D01*
X17014000Y-5380000D01*
X17014000Y-4680000D01*
X17014964Y-4675150D01*
X17020787Y-4624959D01*
X17028359Y-4607808D01*
X17033030Y-4584329D01*
X17049826Y-4559191D01*
X17058608Y-4539303D01*
X17072191Y-4525719D01*
X17087223Y-4503223D01*
X17109719Y-4488191D01*
X17123303Y-4474608D01*
X17143191Y-4465826D01*
X17168329Y-4449030D01*
X17191808Y-4444359D01*
X17208959Y-4436787D01*
X17259151Y-4430964D01*
X17264000Y-4430000D01*
X18164000Y-4430000D01*
X18168850Y-4430964D01*
G37*
G36*
X16076000Y-5480000D02*
G01*
X14176000Y-5480000D01*
X14176000Y-4680000D01*
X16076000Y-4680000D01*
X16076000Y-5480000D01*
G37*
G36*
X4194800Y-5073600D02*
G01*
X3394800Y-5073600D01*
X3394800Y-3173600D01*
X4194800Y-3173600D01*
X4194800Y-5073600D01*
G37*
G36*
X18168850Y-2366964D02*
G01*
X18219040Y-2372787D01*
X18236189Y-2380359D01*
X18259671Y-2385030D01*
X18284810Y-2401827D01*
X18304696Y-2410608D01*
X18318277Y-2424189D01*
X18340777Y-2439223D01*
X18355810Y-2461722D01*
X18369391Y-2475303D01*
X18378170Y-2495186D01*
X18394970Y-2520329D01*
X18399641Y-2543812D01*
X18407212Y-2560959D01*
X18413033Y-2611139D01*
X18414000Y-2616000D01*
X18414000Y-3316000D01*
X18413032Y-3320863D01*
X18407212Y-3371040D01*
X18399641Y-3388185D01*
X18394970Y-3411671D01*
X18378169Y-3436815D01*
X18369391Y-3456696D01*
X18355812Y-3470274D01*
X18340777Y-3492777D01*
X18318274Y-3507812D01*
X18304696Y-3521391D01*
X18284815Y-3530169D01*
X18259671Y-3546970D01*
X18236185Y-3551641D01*
X18219040Y-3559212D01*
X18168861Y-3565032D01*
X18164000Y-3566000D01*
X17264000Y-3566000D01*
X17259138Y-3565032D01*
X17208959Y-3559212D01*
X17191812Y-3551641D01*
X17168329Y-3546970D01*
X17143186Y-3530170D01*
X17123303Y-3521391D01*
X17109722Y-3507810D01*
X17087223Y-3492777D01*
X17072189Y-3470277D01*
X17058608Y-3456696D01*
X17049827Y-3436810D01*
X17033030Y-3411671D01*
X17028359Y-3388189D01*
X17020787Y-3371040D01*
X17014964Y-3320849D01*
X17014000Y-3316000D01*
X17014000Y-2616000D01*
X17014964Y-2611150D01*
X17020787Y-2560959D01*
X17028359Y-2543808D01*
X17033030Y-2520329D01*
X17049826Y-2495191D01*
X17058608Y-2475303D01*
X17072191Y-2461719D01*
X17087223Y-2439223D01*
X17109719Y-2424191D01*
X17123303Y-2410608D01*
X17143191Y-2401826D01*
X17168329Y-2385030D01*
X17191808Y-2380359D01*
X17208959Y-2372787D01*
X17259151Y-2366964D01*
X17264000Y-2366000D01*
X18164000Y-2366000D01*
X18168850Y-2366964D01*
G37*
G36*
X16076000Y-3316000D02*
G01*
X14176000Y-3316000D01*
X14176000Y-2516000D01*
X16076000Y-2516000D01*
X16076000Y-3316000D01*
G37*
G36*
X41952011Y-1586911D02*
G01*
X41993788Y-1586911D01*
X42040918Y-1596928D01*
X42088217Y-1602258D01*
X42122608Y-1614292D01*
X42157310Y-1621668D01*
X42207317Y-1643933D01*
X42257307Y-1661425D01*
X42283328Y-1677775D01*
X42310035Y-1689666D01*
X42359833Y-1725846D01*
X42408992Y-1756735D01*
X42426644Y-1774387D01*
X42445284Y-1787930D01*
X42491365Y-1839108D01*
X42535665Y-1883408D01*
X42545854Y-1899624D01*
X42557146Y-1912165D01*
X42595773Y-1979070D01*
X42630975Y-2035093D01*
X42635370Y-2047653D01*
X42640735Y-2056946D01*
X42668210Y-2141505D01*
X42690142Y-2204183D01*
X42690973Y-2211563D01*
X42692395Y-2215938D01*
X42705276Y-2338506D01*
X42710200Y-2382200D01*
X42705276Y-2425897D01*
X42692395Y-2548461D01*
X42690973Y-2552835D01*
X42690142Y-2560217D01*
X42668205Y-2622907D01*
X42640735Y-2707453D01*
X42635371Y-2716743D01*
X42630975Y-2729307D01*
X42595766Y-2785340D01*
X42557146Y-2852234D01*
X42545856Y-2864772D01*
X42535665Y-2880992D01*
X42491355Y-2925301D01*
X42445284Y-2976469D01*
X42426648Y-2990008D01*
X42408992Y-3007665D01*
X42359823Y-3038559D01*
X42310035Y-3074733D01*
X42283334Y-3086621D01*
X42257307Y-3102975D01*
X42207307Y-3120470D01*
X42157310Y-3142731D01*
X42122614Y-3150105D01*
X42088217Y-3162142D01*
X42040915Y-3167471D01*
X41993788Y-3177489D01*
X41952011Y-3177489D01*
X41910200Y-3182200D01*
X41868389Y-3177489D01*
X41826612Y-3177489D01*
X41779484Y-3167471D01*
X41732183Y-3162142D01*
X41697786Y-3150106D01*
X41663089Y-3142731D01*
X41613087Y-3120468D01*
X41563093Y-3102975D01*
X41537068Y-3086622D01*
X41510364Y-3074733D01*
X41460569Y-3038555D01*
X41411408Y-3007665D01*
X41393754Y-2990011D01*
X41375115Y-2976469D01*
X41329033Y-2925290D01*
X41284735Y-2880992D01*
X41274545Y-2864775D01*
X41263253Y-2852234D01*
X41224620Y-2785320D01*
X41189425Y-2729307D01*
X41185030Y-2716747D01*
X41179664Y-2707453D01*
X41152180Y-2622867D01*
X41130258Y-2560217D01*
X41129426Y-2552839D01*
X41128004Y-2548461D01*
X41115108Y-2425765D01*
X41110200Y-2382200D01*
X41115108Y-2338638D01*
X41128004Y-2215938D01*
X41129426Y-2211558D01*
X41130258Y-2204183D01*
X41152175Y-2141545D01*
X41179664Y-2056946D01*
X41185031Y-2047649D01*
X41189425Y-2035093D01*
X41224613Y-1979090D01*
X41263253Y-1912165D01*
X41274547Y-1899621D01*
X41284735Y-1883408D01*
X41329026Y-1839116D01*
X41375117Y-1787928D01*
X41393759Y-1774383D01*
X41411408Y-1756735D01*
X41460554Y-1725854D01*
X41510362Y-1689667D01*
X41537073Y-1677774D01*
X41563093Y-1661425D01*
X41613077Y-1643934D01*
X41663089Y-1621668D01*
X41697792Y-1614291D01*
X41732183Y-1602258D01*
X41779481Y-1596928D01*
X41826612Y-1586911D01*
X41868389Y-1586911D01*
X41910200Y-1582200D01*
X41952011Y-1586911D01*
G37*
G36*
X49572011Y-1586911D02*
G01*
X49613788Y-1586911D01*
X49660918Y-1596928D01*
X49708217Y-1602258D01*
X49742608Y-1614292D01*
X49777310Y-1621668D01*
X49827317Y-1643933D01*
X49877307Y-1661425D01*
X49903328Y-1677775D01*
X49930035Y-1689666D01*
X49979833Y-1725846D01*
X50028992Y-1756735D01*
X50046644Y-1774387D01*
X50065284Y-1787930D01*
X50111365Y-1839108D01*
X50155665Y-1883408D01*
X50165854Y-1899624D01*
X50177146Y-1912165D01*
X50215773Y-1979070D01*
X50250975Y-2035093D01*
X50255370Y-2047653D01*
X50260735Y-2056946D01*
X50288210Y-2141505D01*
X50310142Y-2204183D01*
X50310973Y-2211563D01*
X50312395Y-2215938D01*
X50325276Y-2338506D01*
X50330200Y-2382200D01*
X50325276Y-2425897D01*
X50312395Y-2548461D01*
X50310973Y-2552835D01*
X50310142Y-2560217D01*
X50288205Y-2622907D01*
X50260735Y-2707453D01*
X50255371Y-2716743D01*
X50250975Y-2729307D01*
X50215766Y-2785340D01*
X50177146Y-2852234D01*
X50165856Y-2864772D01*
X50155665Y-2880992D01*
X50111355Y-2925301D01*
X50065284Y-2976469D01*
X50046648Y-2990008D01*
X50028992Y-3007665D01*
X49979823Y-3038559D01*
X49930035Y-3074733D01*
X49903334Y-3086621D01*
X49877307Y-3102975D01*
X49827307Y-3120470D01*
X49777310Y-3142731D01*
X49742614Y-3150105D01*
X49708217Y-3162142D01*
X49660915Y-3167471D01*
X49613788Y-3177489D01*
X49572011Y-3177489D01*
X49530200Y-3182200D01*
X49488389Y-3177489D01*
X49446612Y-3177489D01*
X49399484Y-3167471D01*
X49352183Y-3162142D01*
X49317786Y-3150106D01*
X49283089Y-3142731D01*
X49233087Y-3120468D01*
X49183093Y-3102975D01*
X49157068Y-3086622D01*
X49130364Y-3074733D01*
X49080569Y-3038555D01*
X49031408Y-3007665D01*
X49013754Y-2990011D01*
X48995115Y-2976469D01*
X48949033Y-2925290D01*
X48904735Y-2880992D01*
X48894545Y-2864775D01*
X48883253Y-2852234D01*
X48844620Y-2785320D01*
X48809425Y-2729307D01*
X48805030Y-2716747D01*
X48799664Y-2707453D01*
X48772180Y-2622867D01*
X48750258Y-2560217D01*
X48749426Y-2552839D01*
X48748004Y-2548461D01*
X48735108Y-2425765D01*
X48730200Y-2382200D01*
X48735108Y-2338638D01*
X48748004Y-2215938D01*
X48749426Y-2211558D01*
X48750258Y-2204183D01*
X48772175Y-2141545D01*
X48799664Y-2056946D01*
X48805031Y-2047649D01*
X48809425Y-2035093D01*
X48844613Y-1979090D01*
X48883253Y-1912165D01*
X48894547Y-1899621D01*
X48904735Y-1883408D01*
X48949026Y-1839116D01*
X48995117Y-1787928D01*
X49013759Y-1774383D01*
X49031408Y-1756735D01*
X49080554Y-1725854D01*
X49130362Y-1689667D01*
X49157073Y-1677774D01*
X49183093Y-1661425D01*
X49233077Y-1643934D01*
X49283089Y-1621668D01*
X49317792Y-1614291D01*
X49352183Y-1602258D01*
X49399481Y-1596928D01*
X49446612Y-1586911D01*
X49488389Y-1586911D01*
X49530200Y-1582200D01*
X49572011Y-1586911D01*
G37*
G36*
X69789611Y-1321711D02*
G01*
X69831388Y-1321711D01*
X69878518Y-1331728D01*
X69925817Y-1337058D01*
X69960208Y-1349092D01*
X69994910Y-1356468D01*
X70044917Y-1378733D01*
X70094907Y-1396225D01*
X70120928Y-1412575D01*
X70147635Y-1424466D01*
X70197433Y-1460646D01*
X70246592Y-1491535D01*
X70264244Y-1509187D01*
X70282884Y-1522730D01*
X70328965Y-1573908D01*
X70373265Y-1618208D01*
X70383454Y-1634424D01*
X70394746Y-1646965D01*
X70433373Y-1713870D01*
X70468575Y-1769893D01*
X70472970Y-1782453D01*
X70478335Y-1791746D01*
X70505810Y-1876305D01*
X70527742Y-1938983D01*
X70528573Y-1946363D01*
X70529995Y-1950738D01*
X70542877Y-2073316D01*
X70547800Y-2117000D01*
X70542875Y-2160707D01*
X70529995Y-2283261D01*
X70528573Y-2287635D01*
X70527742Y-2295017D01*
X70505805Y-2357707D01*
X70478335Y-2442253D01*
X70472971Y-2451543D01*
X70468575Y-2464107D01*
X70433366Y-2520140D01*
X70394746Y-2587034D01*
X70383456Y-2599572D01*
X70373265Y-2615792D01*
X70328955Y-2660101D01*
X70282884Y-2711269D01*
X70264248Y-2724808D01*
X70246592Y-2742465D01*
X70197423Y-2773359D01*
X70147635Y-2809533D01*
X70120934Y-2821421D01*
X70094907Y-2837775D01*
X70044907Y-2855270D01*
X69994910Y-2877531D01*
X69960214Y-2884905D01*
X69925817Y-2896942D01*
X69878515Y-2902271D01*
X69831388Y-2912289D01*
X69789611Y-2912289D01*
X69747800Y-2917000D01*
X69705989Y-2912289D01*
X69664212Y-2912289D01*
X69617084Y-2902271D01*
X69569783Y-2896942D01*
X69535386Y-2884906D01*
X69500689Y-2877531D01*
X69450687Y-2855268D01*
X69400693Y-2837775D01*
X69374668Y-2821422D01*
X69347964Y-2809533D01*
X69298169Y-2773355D01*
X69249008Y-2742465D01*
X69231354Y-2724811D01*
X69212715Y-2711269D01*
X69166633Y-2660090D01*
X69122335Y-2615792D01*
X69112145Y-2599575D01*
X69100853Y-2587034D01*
X69062220Y-2520120D01*
X69027025Y-2464107D01*
X69022630Y-2451547D01*
X69017264Y-2442253D01*
X68989780Y-2357667D01*
X68967858Y-2295017D01*
X68967026Y-2287639D01*
X68965604Y-2283261D01*
X68952709Y-2160575D01*
X68947800Y-2117000D01*
X68952707Y-2073448D01*
X68965604Y-1950738D01*
X68967026Y-1946358D01*
X68967858Y-1938983D01*
X68989775Y-1876345D01*
X69017264Y-1791746D01*
X69022631Y-1782449D01*
X69027025Y-1769893D01*
X69062213Y-1713890D01*
X69100853Y-1646965D01*
X69112147Y-1634421D01*
X69122335Y-1618208D01*
X69166626Y-1573916D01*
X69212717Y-1522728D01*
X69231359Y-1509183D01*
X69249008Y-1491535D01*
X69298154Y-1460654D01*
X69347962Y-1424467D01*
X69374673Y-1412574D01*
X69400693Y-1396225D01*
X69450677Y-1378734D01*
X69500689Y-1356468D01*
X69535392Y-1349091D01*
X69569783Y-1337058D01*
X69617081Y-1331728D01*
X69664212Y-1321711D01*
X69705989Y-1321711D01*
X69747800Y-1317000D01*
X69789611Y-1321711D01*
G37*
G36*
X52898093Y-344119D02*
G01*
X52952922Y-344119D01*
X53001159Y-353136D01*
X53050537Y-357456D01*
X53111142Y-373695D01*
X53170596Y-384809D01*
X53210921Y-400431D01*
X53252544Y-411584D01*
X53315558Y-440967D01*
X53377086Y-464804D01*
X53408844Y-484467D01*
X53442089Y-499970D01*
X53504799Y-543880D01*
X53565362Y-581379D01*
X53588576Y-602541D01*
X53613395Y-619920D01*
X53672764Y-679289D01*
X53729011Y-730565D01*
X53744343Y-750868D01*
X53761279Y-767804D01*
X53814104Y-843246D01*
X53862461Y-907281D01*
X53871124Y-924680D01*
X53881232Y-939115D01*
X53924275Y-1031421D01*
X53961167Y-1105510D01*
X53964834Y-1118401D01*
X53969614Y-1128650D01*
X53999734Y-1241059D01*
X54021768Y-1318501D01*
X54022446Y-1325823D01*
X54023743Y-1330662D01*
X54038082Y-1494568D01*
X54042200Y-1539000D01*
X54038080Y-1583462D01*
X54023743Y-1747337D01*
X54022446Y-1752174D01*
X54021768Y-1759499D01*
X53999727Y-1836965D01*
X53969615Y-1949344D01*
X53964837Y-1959589D01*
X53961167Y-1972490D01*
X53924252Y-2046625D01*
X53881229Y-2138889D01*
X53871125Y-2153318D01*
X53862461Y-2170719D01*
X53814097Y-2234762D01*
X53761279Y-2310195D01*
X53744346Y-2327127D01*
X53729011Y-2347435D01*
X53672752Y-2398721D01*
X53613395Y-2458079D01*
X53588581Y-2475453D01*
X53565362Y-2496621D01*
X53504787Y-2534127D01*
X53442089Y-2578029D01*
X53408850Y-2593528D01*
X53377086Y-2613196D01*
X53315545Y-2637037D01*
X53252544Y-2666415D01*
X53210929Y-2677565D01*
X53170596Y-2693191D01*
X53111130Y-2704307D01*
X53050537Y-2720543D01*
X53001169Y-2724862D01*
X52952922Y-2733881D01*
X52898081Y-2733881D01*
X52842199Y-2738770D01*
X52786317Y-2733881D01*
X52731478Y-2733881D01*
X52683231Y-2724862D01*
X52633862Y-2720543D01*
X52573266Y-2704306D01*
X52513804Y-2693191D01*
X52473472Y-2677566D01*
X52431855Y-2666415D01*
X52368848Y-2637034D01*
X52307314Y-2613196D01*
X52275552Y-2593530D01*
X52242310Y-2578029D01*
X52179604Y-2534121D01*
X52119038Y-2496621D01*
X52095821Y-2475456D01*
X52071004Y-2458079D01*
X52011635Y-2398710D01*
X51955389Y-2347435D01*
X51940056Y-2327131D01*
X51923120Y-2310195D01*
X51870288Y-2234743D01*
X51821939Y-2170719D01*
X51813276Y-2153323D01*
X51803170Y-2138889D01*
X51760132Y-2046593D01*
X51723233Y-1972490D01*
X51719564Y-1959594D01*
X51714784Y-1949344D01*
X51684655Y-1836904D01*
X51662632Y-1759499D01*
X51661953Y-1752180D01*
X51660656Y-1747337D01*
X51646302Y-1583268D01*
X51642200Y-1539000D01*
X51646299Y-1494761D01*
X51660656Y-1330662D01*
X51661954Y-1325817D01*
X51662632Y-1318501D01*
X51684648Y-1241120D01*
X51714785Y-1128650D01*
X51719566Y-1118395D01*
X51723233Y-1105510D01*
X51760109Y-1031452D01*
X51803167Y-939115D01*
X51813277Y-924675D01*
X51821939Y-907281D01*
X51870281Y-843264D01*
X51923120Y-767804D01*
X51940059Y-750864D01*
X51955389Y-730565D01*
X52011624Y-679299D01*
X52071004Y-619920D01*
X52095826Y-602539D01*
X52119038Y-581379D01*
X52179595Y-543883D01*
X52242315Y-499967D01*
X52275564Y-484462D01*
X52307314Y-464804D01*
X52368821Y-440975D01*
X52431850Y-411585D01*
X52473483Y-400429D01*
X52513804Y-384809D01*
X52573253Y-373696D01*
X52633862Y-357456D01*
X52683241Y-353135D01*
X52731478Y-344119D01*
X52786306Y-344119D01*
X52842199Y-339229D01*
X52898093Y-344119D01*
G37*
G36*
X56186011Y-1078911D02*
G01*
X56227788Y-1078911D01*
X56274918Y-1088928D01*
X56322217Y-1094258D01*
X56356608Y-1106292D01*
X56391310Y-1113668D01*
X56441317Y-1135933D01*
X56491307Y-1153425D01*
X56517328Y-1169775D01*
X56544035Y-1181666D01*
X56593833Y-1217846D01*
X56642992Y-1248735D01*
X56660644Y-1266387D01*
X56679284Y-1279930D01*
X56725365Y-1331108D01*
X56769665Y-1375408D01*
X56779854Y-1391624D01*
X56791146Y-1404165D01*
X56829773Y-1471070D01*
X56864975Y-1527093D01*
X56869370Y-1539653D01*
X56874735Y-1548946D01*
X56902210Y-1633505D01*
X56924142Y-1696183D01*
X56924973Y-1703563D01*
X56926395Y-1707938D01*
X56939277Y-1830516D01*
X56944200Y-1874200D01*
X56939275Y-1917907D01*
X56926395Y-2040461D01*
X56924973Y-2044835D01*
X56924142Y-2052217D01*
X56902205Y-2114907D01*
X56874735Y-2199453D01*
X56869371Y-2208743D01*
X56864975Y-2221307D01*
X56829766Y-2277340D01*
X56791146Y-2344234D01*
X56779856Y-2356772D01*
X56769665Y-2372992D01*
X56725355Y-2417301D01*
X56679284Y-2468469D01*
X56660648Y-2482008D01*
X56642992Y-2499665D01*
X56593823Y-2530559D01*
X56544035Y-2566733D01*
X56517334Y-2578621D01*
X56491307Y-2594975D01*
X56441307Y-2612470D01*
X56391310Y-2634731D01*
X56356614Y-2642105D01*
X56322217Y-2654142D01*
X56274915Y-2659471D01*
X56227788Y-2669489D01*
X56186011Y-2669489D01*
X56144200Y-2674200D01*
X56102389Y-2669489D01*
X56060612Y-2669489D01*
X56013484Y-2659471D01*
X55966183Y-2654142D01*
X55931786Y-2642106D01*
X55897089Y-2634731D01*
X55847087Y-2612468D01*
X55797093Y-2594975D01*
X55771068Y-2578622D01*
X55744364Y-2566733D01*
X55694569Y-2530555D01*
X55645408Y-2499665D01*
X55627754Y-2482011D01*
X55609115Y-2468469D01*
X55563033Y-2417290D01*
X55518735Y-2372992D01*
X55508545Y-2356775D01*
X55497253Y-2344234D01*
X55458620Y-2277320D01*
X55423425Y-2221307D01*
X55419030Y-2208747D01*
X55413664Y-2199453D01*
X55386180Y-2114867D01*
X55364258Y-2052217D01*
X55363426Y-2044839D01*
X55362004Y-2040461D01*
X55349109Y-1917775D01*
X55344200Y-1874200D01*
X55349107Y-1830648D01*
X55362004Y-1707938D01*
X55363426Y-1703558D01*
X55364258Y-1696183D01*
X55386175Y-1633545D01*
X55413664Y-1548946D01*
X55419031Y-1539649D01*
X55423425Y-1527093D01*
X55458613Y-1471090D01*
X55497253Y-1404165D01*
X55508547Y-1391621D01*
X55518735Y-1375408D01*
X55563026Y-1331116D01*
X55609117Y-1279928D01*
X55627759Y-1266383D01*
X55645408Y-1248735D01*
X55694554Y-1217854D01*
X55744362Y-1181667D01*
X55771073Y-1169774D01*
X55797093Y-1153425D01*
X55847077Y-1135934D01*
X55897089Y-1113668D01*
X55931792Y-1106291D01*
X55966183Y-1094258D01*
X56013481Y-1088928D01*
X56060612Y-1078911D01*
X56102389Y-1078911D01*
X56144200Y-1074200D01*
X56186011Y-1078911D01*
G37*
G36*
X66346011Y-1078911D02*
G01*
X66387788Y-1078911D01*
X66434918Y-1088928D01*
X66482217Y-1094258D01*
X66516608Y-1106292D01*
X66551310Y-1113668D01*
X66601317Y-1135933D01*
X66651307Y-1153425D01*
X66677328Y-1169775D01*
X66704035Y-1181666D01*
X66753833Y-1217846D01*
X66802992Y-1248735D01*
X66820644Y-1266387D01*
X66839284Y-1279930D01*
X66885365Y-1331108D01*
X66929665Y-1375408D01*
X66939854Y-1391624D01*
X66951146Y-1404165D01*
X66989773Y-1471070D01*
X67024975Y-1527093D01*
X67029370Y-1539653D01*
X67034735Y-1548946D01*
X67062210Y-1633505D01*
X67084142Y-1696183D01*
X67084973Y-1703563D01*
X67086395Y-1707938D01*
X67099277Y-1830516D01*
X67104200Y-1874200D01*
X67099275Y-1917907D01*
X67086395Y-2040461D01*
X67084973Y-2044835D01*
X67084142Y-2052217D01*
X67062205Y-2114907D01*
X67034735Y-2199453D01*
X67029371Y-2208743D01*
X67024975Y-2221307D01*
X66989766Y-2277340D01*
X66951146Y-2344234D01*
X66939856Y-2356772D01*
X66929665Y-2372992D01*
X66885355Y-2417301D01*
X66839284Y-2468469D01*
X66820648Y-2482008D01*
X66802992Y-2499665D01*
X66753823Y-2530559D01*
X66704035Y-2566733D01*
X66677334Y-2578621D01*
X66651307Y-2594975D01*
X66601307Y-2612470D01*
X66551310Y-2634731D01*
X66516614Y-2642105D01*
X66482217Y-2654142D01*
X66434915Y-2659471D01*
X66387788Y-2669489D01*
X66346011Y-2669489D01*
X66304200Y-2674200D01*
X66262389Y-2669489D01*
X66220612Y-2669489D01*
X66173484Y-2659471D01*
X66126183Y-2654142D01*
X66091786Y-2642106D01*
X66057089Y-2634731D01*
X66007087Y-2612468D01*
X65957093Y-2594975D01*
X65931068Y-2578622D01*
X65904364Y-2566733D01*
X65854569Y-2530555D01*
X65805408Y-2499665D01*
X65787754Y-2482011D01*
X65769115Y-2468469D01*
X65723033Y-2417290D01*
X65678735Y-2372992D01*
X65668545Y-2356775D01*
X65657253Y-2344234D01*
X65618620Y-2277320D01*
X65583425Y-2221307D01*
X65579030Y-2208747D01*
X65573664Y-2199453D01*
X65546180Y-2114867D01*
X65524258Y-2052217D01*
X65523426Y-2044839D01*
X65522004Y-2040461D01*
X65509109Y-1917775D01*
X65504200Y-1874200D01*
X65509107Y-1830648D01*
X65522004Y-1707938D01*
X65523426Y-1703558D01*
X65524258Y-1696183D01*
X65546175Y-1633545D01*
X65573664Y-1548946D01*
X65579031Y-1539649D01*
X65583425Y-1527093D01*
X65618613Y-1471090D01*
X65657253Y-1404165D01*
X65668547Y-1391621D01*
X65678735Y-1375408D01*
X65723026Y-1331116D01*
X65769117Y-1279928D01*
X65787759Y-1266383D01*
X65805408Y-1248735D01*
X65854554Y-1217854D01*
X65904362Y-1181667D01*
X65931073Y-1169774D01*
X65957093Y-1153425D01*
X66007077Y-1135934D01*
X66057089Y-1113668D01*
X66091792Y-1106291D01*
X66126183Y-1094258D01*
X66173481Y-1088928D01*
X66220612Y-1078911D01*
X66262389Y-1078911D01*
X66304200Y-1074200D01*
X66346011Y-1078911D01*
G37*
G36*
X13076000Y-2366000D02*
G01*
X11176000Y-2366000D01*
X11176000Y-1566000D01*
X13076000Y-1566000D01*
X13076000Y-2366000D01*
G37*
G36*
X3847113Y-104930D02*
G01*
X3894076Y-104930D01*
X3934622Y-113548D01*
X3975526Y-117577D01*
X4026916Y-133166D01*
X4078115Y-144049D01*
X4110879Y-158636D01*
X4144304Y-168776D01*
X4197420Y-197166D01*
X4250000Y-220577D01*
X4274445Y-238337D01*
X4299849Y-251916D01*
X4351669Y-294444D01*
X4402218Y-331170D01*
X4418631Y-349398D01*
X4436190Y-363809D01*
X4483379Y-421308D01*
X4528115Y-470993D01*
X4537512Y-487269D01*
X4548083Y-500150D01*
X4587183Y-573302D01*
X4622191Y-633937D01*
X4626218Y-646331D01*
X4631223Y-655695D01*
X4658821Y-746672D01*
X4680333Y-812879D01*
X4681090Y-820082D01*
X4682422Y-824473D01*
X4695377Y-956021D01*
X4700000Y-1000000D01*
X4695377Y-1043982D01*
X4682422Y-1175526D01*
X4681090Y-1179916D01*
X4680333Y-1187121D01*
X4658816Y-1253341D01*
X4631223Y-1344304D01*
X4626219Y-1353665D01*
X4622191Y-1366063D01*
X4587176Y-1426709D01*
X4548083Y-1499849D01*
X4537514Y-1512726D01*
X4528115Y-1529007D01*
X4483369Y-1578701D01*
X4436190Y-1636190D01*
X4418634Y-1650597D01*
X4402218Y-1668830D01*
X4351659Y-1705563D01*
X4299849Y-1748083D01*
X4274450Y-1761658D01*
X4250000Y-1779423D01*
X4197408Y-1802838D01*
X4144304Y-1831223D01*
X4110886Y-1841360D01*
X4078115Y-1855951D01*
X4026905Y-1866836D01*
X3975526Y-1882422D01*
X3934631Y-1886449D01*
X3894076Y-1895070D01*
X3847103Y-1895070D01*
X3800000Y-1899709D01*
X3752897Y-1895070D01*
X3705924Y-1895070D01*
X3665368Y-1886449D01*
X3624473Y-1882422D01*
X3573091Y-1866835D01*
X3521885Y-1855951D01*
X3489115Y-1841361D01*
X3455695Y-1831223D01*
X3402585Y-1802835D01*
X3350000Y-1779423D01*
X3325552Y-1761660D01*
X3300150Y-1748083D01*
X3248332Y-1705556D01*
X3197782Y-1668830D01*
X3181368Y-1650600D01*
X3163809Y-1636190D01*
X3116618Y-1578688D01*
X3071885Y-1529007D01*
X3062487Y-1512730D01*
X3051916Y-1499849D01*
X3012810Y-1426686D01*
X2977809Y-1366063D01*
X2973782Y-1353670D01*
X2968776Y-1344304D01*
X2941168Y-1253294D01*
X2919667Y-1187121D01*
X2918910Y-1179921D01*
X2917577Y-1175526D01*
X2904606Y-1043831D01*
X2900000Y-1000000D01*
X2904606Y-956172D01*
X2917577Y-824473D01*
X2918910Y-820077D01*
X2919667Y-812879D01*
X2941163Y-746719D01*
X2968776Y-655695D01*
X2973783Y-646327D01*
X2977809Y-633937D01*
X3012802Y-573326D01*
X3051916Y-500150D01*
X3062489Y-487265D01*
X3071885Y-470993D01*
X3116609Y-421321D01*
X3163809Y-363809D01*
X3181371Y-349395D01*
X3197782Y-331170D01*
X3248321Y-294450D01*
X3300150Y-251916D01*
X3325557Y-238335D01*
X3350000Y-220577D01*
X3402573Y-197169D01*
X3455695Y-168776D01*
X3489122Y-158635D01*
X3521885Y-144049D01*
X3573080Y-133166D01*
X3624473Y-117577D01*
X3665377Y-113548D01*
X3705924Y-104930D01*
X3752887Y-104930D01*
X3800000Y-100290D01*
X3847113Y-104930D01*
G37*
G36*
X8847113Y-104930D02*
G01*
X8894076Y-104930D01*
X8934622Y-113548D01*
X8975526Y-117577D01*
X9026916Y-133166D01*
X9078115Y-144049D01*
X9110879Y-158636D01*
X9144304Y-168776D01*
X9197420Y-197166D01*
X9250000Y-220577D01*
X9274445Y-238337D01*
X9299849Y-251916D01*
X9351669Y-294444D01*
X9402218Y-331170D01*
X9418631Y-349398D01*
X9436190Y-363809D01*
X9483379Y-421308D01*
X9528115Y-470993D01*
X9537512Y-487269D01*
X9548083Y-500150D01*
X9587183Y-573302D01*
X9622191Y-633937D01*
X9626218Y-646331D01*
X9631223Y-655695D01*
X9658821Y-746672D01*
X9680333Y-812879D01*
X9681090Y-820082D01*
X9682422Y-824473D01*
X9695377Y-956021D01*
X9700000Y-1000000D01*
X9695377Y-1043982D01*
X9682422Y-1175526D01*
X9681090Y-1179916D01*
X9680333Y-1187121D01*
X9658816Y-1253341D01*
X9631223Y-1344304D01*
X9626219Y-1353665D01*
X9622191Y-1366063D01*
X9587176Y-1426709D01*
X9548083Y-1499849D01*
X9537514Y-1512726D01*
X9528115Y-1529007D01*
X9483369Y-1578701D01*
X9436190Y-1636190D01*
X9418634Y-1650597D01*
X9402218Y-1668830D01*
X9351659Y-1705563D01*
X9299849Y-1748083D01*
X9274450Y-1761658D01*
X9250000Y-1779423D01*
X9197408Y-1802838D01*
X9144304Y-1831223D01*
X9110886Y-1841360D01*
X9078115Y-1855951D01*
X9026905Y-1866836D01*
X8975526Y-1882422D01*
X8934631Y-1886449D01*
X8894076Y-1895070D01*
X8847103Y-1895070D01*
X8800000Y-1899709D01*
X8752897Y-1895070D01*
X8705924Y-1895070D01*
X8665368Y-1886449D01*
X8624473Y-1882422D01*
X8573091Y-1866835D01*
X8521885Y-1855951D01*
X8489115Y-1841361D01*
X8455695Y-1831223D01*
X8402585Y-1802835D01*
X8350000Y-1779423D01*
X8325552Y-1761660D01*
X8300150Y-1748083D01*
X8248332Y-1705556D01*
X8197782Y-1668830D01*
X8181368Y-1650600D01*
X8163809Y-1636190D01*
X8116618Y-1578688D01*
X8071885Y-1529007D01*
X8062487Y-1512730D01*
X8051916Y-1499849D01*
X8012810Y-1426686D01*
X7977809Y-1366063D01*
X7973782Y-1353670D01*
X7968776Y-1344304D01*
X7941168Y-1253294D01*
X7919667Y-1187121D01*
X7918910Y-1179921D01*
X7917577Y-1175526D01*
X7904606Y-1043831D01*
X7900000Y-1000000D01*
X7904606Y-956172D01*
X7917577Y-824473D01*
X7918910Y-820077D01*
X7919667Y-812879D01*
X7941163Y-746719D01*
X7968776Y-655695D01*
X7973783Y-646327D01*
X7977809Y-633937D01*
X8012802Y-573326D01*
X8051916Y-500150D01*
X8062489Y-487265D01*
X8071885Y-470993D01*
X8116609Y-421321D01*
X8163809Y-363809D01*
X8181371Y-349395D01*
X8197782Y-331170D01*
X8248321Y-294450D01*
X8300150Y-251916D01*
X8325557Y-238335D01*
X8350000Y-220577D01*
X8402573Y-197169D01*
X8455695Y-168776D01*
X8489122Y-158635D01*
X8521885Y-144049D01*
X8573080Y-133166D01*
X8624473Y-117577D01*
X8665377Y-113548D01*
X8705924Y-104930D01*
X8752887Y-104930D01*
X8800000Y-100290D01*
X8847113Y-104930D01*
G37*
G36*
X78947113Y-104930D02*
G01*
X78994076Y-104930D01*
X79034622Y-113548D01*
X79075526Y-117577D01*
X79126916Y-133166D01*
X79178115Y-144049D01*
X79210879Y-158636D01*
X79244304Y-168776D01*
X79297420Y-197166D01*
X79350000Y-220577D01*
X79374445Y-238337D01*
X79399849Y-251916D01*
X79451669Y-294444D01*
X79502218Y-331170D01*
X79518631Y-349398D01*
X79536190Y-363809D01*
X79583379Y-421308D01*
X79628115Y-470993D01*
X79637512Y-487269D01*
X79648083Y-500150D01*
X79687183Y-573302D01*
X79722191Y-633937D01*
X79726218Y-646331D01*
X79731223Y-655695D01*
X79758821Y-746672D01*
X79780333Y-812879D01*
X79781090Y-820082D01*
X79782422Y-824473D01*
X79795377Y-956021D01*
X79800000Y-1000000D01*
X79795377Y-1043982D01*
X79782422Y-1175526D01*
X79781090Y-1179916D01*
X79780333Y-1187121D01*
X79758816Y-1253341D01*
X79731223Y-1344304D01*
X79726219Y-1353665D01*
X79722191Y-1366063D01*
X79687176Y-1426709D01*
X79648083Y-1499849D01*
X79637514Y-1512726D01*
X79628115Y-1529007D01*
X79583369Y-1578701D01*
X79536190Y-1636190D01*
X79518634Y-1650597D01*
X79502218Y-1668830D01*
X79451659Y-1705563D01*
X79399849Y-1748083D01*
X79374450Y-1761658D01*
X79350000Y-1779423D01*
X79297408Y-1802838D01*
X79244304Y-1831223D01*
X79210886Y-1841360D01*
X79178115Y-1855951D01*
X79126905Y-1866836D01*
X79075526Y-1882422D01*
X79034631Y-1886449D01*
X78994076Y-1895070D01*
X78947103Y-1895070D01*
X78900000Y-1899709D01*
X78852897Y-1895070D01*
X78805924Y-1895070D01*
X78765368Y-1886449D01*
X78724473Y-1882422D01*
X78673091Y-1866835D01*
X78621885Y-1855951D01*
X78589115Y-1841361D01*
X78555695Y-1831223D01*
X78502585Y-1802835D01*
X78450000Y-1779423D01*
X78425552Y-1761660D01*
X78400150Y-1748083D01*
X78348332Y-1705556D01*
X78297782Y-1668830D01*
X78281368Y-1650600D01*
X78263809Y-1636190D01*
X78216618Y-1578688D01*
X78171885Y-1529007D01*
X78162487Y-1512730D01*
X78151916Y-1499849D01*
X78112810Y-1426686D01*
X78077809Y-1366063D01*
X78073782Y-1353670D01*
X78068776Y-1344304D01*
X78041168Y-1253294D01*
X78019667Y-1187121D01*
X78018910Y-1179921D01*
X78017577Y-1175526D01*
X78004607Y-1043842D01*
X78000000Y-1000000D01*
X78004605Y-956183D01*
X78017577Y-824473D01*
X78018910Y-820077D01*
X78019667Y-812879D01*
X78041163Y-746719D01*
X78068776Y-655695D01*
X78073783Y-646327D01*
X78077809Y-633937D01*
X78112802Y-573326D01*
X78151916Y-500150D01*
X78162489Y-487265D01*
X78171885Y-470993D01*
X78216609Y-421321D01*
X78263809Y-363809D01*
X78281371Y-349395D01*
X78297782Y-331170D01*
X78348321Y-294450D01*
X78400150Y-251916D01*
X78425557Y-238335D01*
X78450000Y-220577D01*
X78502573Y-197169D01*
X78555695Y-168776D01*
X78589122Y-158635D01*
X78621885Y-144049D01*
X78673080Y-133166D01*
X78724473Y-117577D01*
X78765377Y-113548D01*
X78805924Y-104930D01*
X78852887Y-104930D01*
X78900000Y-100290D01*
X78947113Y-104930D01*
G37*
G36*
X83947113Y-104930D02*
G01*
X83994076Y-104930D01*
X84034622Y-113548D01*
X84075526Y-117577D01*
X84126916Y-133166D01*
X84178115Y-144049D01*
X84210879Y-158636D01*
X84244304Y-168776D01*
X84297420Y-197166D01*
X84350000Y-220577D01*
X84374445Y-238337D01*
X84399849Y-251916D01*
X84451669Y-294444D01*
X84502218Y-331170D01*
X84518631Y-349398D01*
X84536190Y-363809D01*
X84583379Y-421308D01*
X84628115Y-470993D01*
X84637512Y-487269D01*
X84648083Y-500150D01*
X84687183Y-573302D01*
X84722191Y-633937D01*
X84726218Y-646331D01*
X84731223Y-655695D01*
X84758821Y-746672D01*
X84780333Y-812879D01*
X84781090Y-820082D01*
X84782422Y-824473D01*
X84795378Y-956032D01*
X84800000Y-1000000D01*
X84795376Y-1043993D01*
X84782422Y-1175526D01*
X84781090Y-1179916D01*
X84780333Y-1187121D01*
X84758816Y-1253341D01*
X84731223Y-1344304D01*
X84726219Y-1353665D01*
X84722191Y-1366063D01*
X84687176Y-1426709D01*
X84648083Y-1499849D01*
X84637514Y-1512726D01*
X84628115Y-1529007D01*
X84583369Y-1578701D01*
X84536190Y-1636190D01*
X84518634Y-1650597D01*
X84502218Y-1668830D01*
X84451659Y-1705563D01*
X84399849Y-1748083D01*
X84374450Y-1761658D01*
X84350000Y-1779423D01*
X84297408Y-1802838D01*
X84244304Y-1831223D01*
X84210886Y-1841360D01*
X84178115Y-1855951D01*
X84126905Y-1866836D01*
X84075526Y-1882422D01*
X84034631Y-1886449D01*
X83994076Y-1895070D01*
X83947103Y-1895070D01*
X83900000Y-1899709D01*
X83852897Y-1895070D01*
X83805924Y-1895070D01*
X83765368Y-1886449D01*
X83724473Y-1882422D01*
X83673091Y-1866835D01*
X83621885Y-1855951D01*
X83589115Y-1841361D01*
X83555695Y-1831223D01*
X83502585Y-1802835D01*
X83450000Y-1779423D01*
X83425552Y-1761660D01*
X83400150Y-1748083D01*
X83348332Y-1705556D01*
X83297782Y-1668830D01*
X83281368Y-1650600D01*
X83263809Y-1636190D01*
X83216618Y-1578688D01*
X83171885Y-1529007D01*
X83162487Y-1512730D01*
X83151916Y-1499849D01*
X83112810Y-1426686D01*
X83077809Y-1366063D01*
X83073782Y-1353670D01*
X83068776Y-1344304D01*
X83041168Y-1253294D01*
X83019667Y-1187121D01*
X83018910Y-1179921D01*
X83017577Y-1175526D01*
X83004606Y-1043831D01*
X83000000Y-1000000D01*
X83004606Y-956172D01*
X83017577Y-824473D01*
X83018910Y-820077D01*
X83019667Y-812879D01*
X83041163Y-746719D01*
X83068776Y-655695D01*
X83073783Y-646327D01*
X83077809Y-633937D01*
X83112802Y-573326D01*
X83151916Y-500150D01*
X83162489Y-487265D01*
X83171885Y-470993D01*
X83216609Y-421321D01*
X83263809Y-363809D01*
X83281371Y-349395D01*
X83297782Y-331170D01*
X83348321Y-294450D01*
X83400150Y-251916D01*
X83425557Y-238335D01*
X83450000Y-220577D01*
X83502573Y-197169D01*
X83555695Y-168776D01*
X83589122Y-158635D01*
X83621885Y-144049D01*
X83673080Y-133166D01*
X83724473Y-117577D01*
X83765377Y-113548D01*
X83805924Y-104930D01*
X83852887Y-104930D01*
X83900000Y-100290D01*
X83947113Y-104930D01*
G37*
G36*
X18168850Y-366964D02*
G01*
X18219040Y-372787D01*
X18236189Y-380359D01*
X18259671Y-385030D01*
X18284810Y-401827D01*
X18304696Y-410608D01*
X18318277Y-424189D01*
X18340777Y-439223D01*
X18355810Y-461722D01*
X18369391Y-475303D01*
X18378170Y-495186D01*
X18394970Y-520329D01*
X18399641Y-543812D01*
X18407212Y-560959D01*
X18413033Y-611139D01*
X18414000Y-616000D01*
X18414000Y-1316000D01*
X18413032Y-1320863D01*
X18407212Y-1371040D01*
X18399641Y-1388185D01*
X18394970Y-1411671D01*
X18378169Y-1436815D01*
X18369391Y-1456696D01*
X18355812Y-1470274D01*
X18340777Y-1492777D01*
X18318274Y-1507812D01*
X18304696Y-1521391D01*
X18284815Y-1530169D01*
X18259671Y-1546970D01*
X18236185Y-1551641D01*
X18219040Y-1559212D01*
X18168861Y-1565032D01*
X18164000Y-1566000D01*
X17264000Y-1566000D01*
X17259138Y-1565032D01*
X17208959Y-1559212D01*
X17191812Y-1551641D01*
X17168329Y-1546970D01*
X17143186Y-1530170D01*
X17123303Y-1521391D01*
X17109722Y-1507810D01*
X17087223Y-1492777D01*
X17072189Y-1470277D01*
X17058608Y-1456696D01*
X17049827Y-1436810D01*
X17033030Y-1411671D01*
X17028359Y-1388189D01*
X17020787Y-1371040D01*
X17014964Y-1320849D01*
X17014000Y-1316000D01*
X17014000Y-616000D01*
X17014964Y-611150D01*
X17020787Y-560959D01*
X17028359Y-543808D01*
X17033030Y-520329D01*
X17049826Y-495191D01*
X17058608Y-475303D01*
X17072191Y-461719D01*
X17087223Y-439223D01*
X17109719Y-424191D01*
X17123303Y-410608D01*
X17143191Y-401826D01*
X17168329Y-385030D01*
X17191808Y-380359D01*
X17208959Y-372787D01*
X17259151Y-366964D01*
X17264000Y-366000D01*
X18164000Y-366000D01*
X18168850Y-366964D01*
G37*
G36*
X16076000Y-1416000D02*
G01*
X14176000Y-1416000D01*
X14176000Y-616000D01*
X16076000Y-616000D01*
X16076000Y-1416000D01*
G37*
M02*
