G04 #@! TF.GenerationSoftware,KiCad,Pcbnew,7.0.6*
G04 #@! TF.CreationDate,2023-08-17T21:06:19+02:00*
G04 #@! TF.ProjectId,esp-switch,6573702d-7377-4697-9463-682e6b696361,rev?*
G04 #@! TF.SameCoordinates,Original*
G04 #@! TF.FileFunction,Copper,L1,Top*
G04 #@! TF.FilePolarity,Positive*
%FSLAX46Y46*%
G04 Gerber Fmt 4.6, Leading zero omitted, Abs format (unit mm)*
G04 Created by KiCad (PCBNEW 7.0.6) date 2023-08-17 21:06:19*
%MOMM*%
%LPD*%
G01*
G04 APERTURE LIST*
G04 Aperture macros list*
%AMRoundRect*
0 Rectangle with rounded corners*
0 $1 Rounding radius*
0 $2 $3 $4 $5 $6 $7 $8 $9 X,Y pos of 4 corners*
0 Add a 4 corners polygon primitive as box body*
4,1,4,$2,$3,$4,$5,$6,$7,$8,$9,$2,$3,0*
0 Add four circle primitives for the rounded corners*
1,1,$1+$1,$2,$3*
1,1,$1+$1,$4,$5*
1,1,$1+$1,$6,$7*
1,1,$1+$1,$8,$9*
0 Add four rect primitives between the rounded corners*
20,1,$1+$1,$2,$3,$4,$5,0*
20,1,$1+$1,$4,$5,$6,$7,0*
20,1,$1+$1,$6,$7,$8,$9,0*
20,1,$1+$1,$8,$9,$2,$3,0*%
G04 Aperture macros list end*
G04 #@! TA.AperFunction,ComponentPad*
%ADD10R,1.600000X1.600000*%
G04 #@! TD*
G04 #@! TA.AperFunction,ComponentPad*
%ADD11C,1.600000*%
G04 #@! TD*
G04 #@! TA.AperFunction,ComponentPad*
%ADD12O,1.600000X1.600000*%
G04 #@! TD*
G04 #@! TA.AperFunction,ComponentPad*
%ADD13C,1.800000*%
G04 #@! TD*
G04 #@! TA.AperFunction,SMDPad,CuDef*
%ADD14RoundRect,0.250000X0.475000X-0.337500X0.475000X0.337500X-0.475000X0.337500X-0.475000X-0.337500X0*%
G04 #@! TD*
G04 #@! TA.AperFunction,SMDPad,CuDef*
%ADD15RoundRect,0.250000X-0.337500X-0.475000X0.337500X-0.475000X0.337500X0.475000X-0.337500X0.475000X0*%
G04 #@! TD*
G04 #@! TA.AperFunction,SMDPad,CuDef*
%ADD16RoundRect,0.250000X0.350000X0.450000X-0.350000X0.450000X-0.350000X-0.450000X0.350000X-0.450000X0*%
G04 #@! TD*
G04 #@! TA.AperFunction,ComponentPad*
%ADD17R,2.400000X2.400000*%
G04 #@! TD*
G04 #@! TA.AperFunction,ComponentPad*
%ADD18O,2.400000X2.400000*%
G04 #@! TD*
G04 #@! TA.AperFunction,SMDPad,CuDef*
%ADD19RoundRect,0.250000X0.537500X1.450000X-0.537500X1.450000X-0.537500X-1.450000X0.537500X-1.450000X0*%
G04 #@! TD*
G04 #@! TA.AperFunction,SMDPad,CuDef*
%ADD20RoundRect,0.250000X0.450000X-0.350000X0.450000X0.350000X-0.450000X0.350000X-0.450000X-0.350000X0*%
G04 #@! TD*
G04 #@! TA.AperFunction,SMDPad,CuDef*
%ADD21RoundRect,0.250000X0.337500X0.475000X-0.337500X0.475000X-0.337500X-0.475000X0.337500X-0.475000X0*%
G04 #@! TD*
G04 #@! TA.AperFunction,SMDPad,CuDef*
%ADD22RoundRect,0.200000X-1.100000X1.050000X-1.100000X-1.050000X1.100000X-1.050000X1.100000X1.050000X0*%
G04 #@! TD*
G04 #@! TA.AperFunction,ComponentPad*
%ADD23R,1.700000X1.700000*%
G04 #@! TD*
G04 #@! TA.AperFunction,ComponentPad*
%ADD24O,1.700000X1.700000*%
G04 #@! TD*
G04 #@! TA.AperFunction,ComponentPad*
%ADD25R,2.200000X2.200000*%
G04 #@! TD*
G04 #@! TA.AperFunction,ComponentPad*
%ADD26O,2.200000X2.200000*%
G04 #@! TD*
G04 #@! TA.AperFunction,SMDPad,CuDef*
%ADD27R,1.900000X0.800000*%
G04 #@! TD*
G04 #@! TA.AperFunction,SMDPad,CuDef*
%ADD28RoundRect,0.250000X-0.450000X0.350000X-0.450000X-0.350000X0.450000X-0.350000X0.450000X0.350000X0*%
G04 #@! TD*
G04 #@! TA.AperFunction,SMDPad,CuDef*
%ADD29R,1.560000X0.650000*%
G04 #@! TD*
G04 #@! TA.AperFunction,SMDPad,CuDef*
%ADD30RoundRect,0.250000X-0.350000X-0.450000X0.350000X-0.450000X0.350000X0.450000X-0.350000X0.450000X0*%
G04 #@! TD*
G04 #@! TA.AperFunction,SMDPad,CuDef*
%ADD31R,2.500000X1.000000*%
G04 #@! TD*
G04 #@! TA.AperFunction,SMDPad,CuDef*
%ADD32R,1.000000X1.800000*%
G04 #@! TD*
G04 #@! TA.AperFunction,ViaPad*
%ADD33C,0.600000*%
G04 #@! TD*
G04 #@! TA.AperFunction,ViaPad*
%ADD34C,1.000000*%
G04 #@! TD*
G04 #@! TA.AperFunction,Conductor*
%ADD35C,0.600000*%
G04 #@! TD*
G04 #@! TA.AperFunction,Conductor*
%ADD36C,0.400000*%
G04 #@! TD*
G04 #@! TA.AperFunction,Conductor*
%ADD37C,0.200000*%
G04 #@! TD*
G04 APERTURE END LIST*
D10*
X74141380Y-21905000D03*
D11*
X71641380Y-21905000D03*
X66304200Y-12405400D03*
D12*
X56144200Y-12405400D03*
D13*
X83900000Y-1000000D03*
X78900000Y-1000000D03*
X78900000Y-6000000D03*
X78900000Y-11000000D03*
D14*
X39116000Y-11801700D03*
X39116000Y-9726700D03*
D15*
X53760500Y-32065000D03*
X55835500Y-32065000D03*
D10*
X49530200Y-12039200D03*
D12*
X49530200Y-9499200D03*
X41910200Y-9499200D03*
X41910200Y-12039200D03*
D14*
X39116000Y-4684700D03*
X39116000Y-2609700D03*
D16*
X41450000Y-17399000D03*
X39450000Y-17399000D03*
D11*
X74747800Y-5117000D03*
X69747800Y-2117000D03*
D17*
X52842200Y-12842000D03*
D18*
X52842200Y-9032000D03*
D14*
X45466000Y-26564500D03*
X45466000Y-24489500D03*
D19*
X63539500Y-30160000D03*
X59264500Y-30160000D03*
D11*
X66304200Y-5430200D03*
D12*
X56144200Y-5430200D03*
D20*
X65059600Y-21304800D03*
X65059600Y-19304800D03*
D11*
X66304200Y-9154200D03*
D12*
X56144200Y-9154200D03*
D21*
X61960800Y-25842000D03*
X59885800Y-25842000D03*
D22*
X51139200Y-26604000D03*
X57339200Y-26604000D03*
D20*
X45212000Y-36560000D03*
X45212000Y-34560000D03*
D23*
X47498000Y-39370000D03*
D24*
X50038000Y-39370000D03*
X52578000Y-39370000D03*
X55118000Y-39370000D03*
X57658000Y-39370000D03*
X60198000Y-39370000D03*
X62738000Y-39370000D03*
D16*
X61198000Y-36068000D03*
X59198000Y-36068000D03*
D17*
X52842200Y-5349000D03*
D18*
X52842200Y-1539000D03*
D25*
X73284234Y-27010400D03*
D26*
X70744234Y-27010400D03*
D10*
X49530200Y-4922200D03*
D12*
X49530200Y-2382200D03*
X41910200Y-2382200D03*
X41910200Y-4922200D03*
D13*
X3800000Y-1000000D03*
X8800000Y-1000000D03*
X8800000Y-6000000D03*
X8800000Y-11000000D03*
D27*
X47903000Y-32324000D03*
X47903000Y-34224000D03*
X50903000Y-33274000D03*
D11*
X74747800Y-12229000D03*
X69747800Y-9229000D03*
D16*
X41450000Y-15138400D03*
X39450000Y-15138400D03*
D15*
X41634500Y-19685000D03*
X43709500Y-19685000D03*
D28*
X23876000Y-41418000D03*
X23876000Y-43418000D03*
D20*
X65059600Y-25318000D03*
X65059600Y-23318000D03*
D29*
X59972000Y-21148000D03*
X59972000Y-22098000D03*
X59972000Y-23048000D03*
X62672000Y-23048000D03*
X62672000Y-22098000D03*
X62672000Y-21148000D03*
D30*
X59198000Y-33782000D03*
X61198000Y-33782000D03*
D10*
X53217621Y-19600000D03*
D11*
X55717621Y-19600000D03*
X66304200Y-1874200D03*
D12*
X56144200Y-1874200D03*
D31*
X42144000Y-40561600D03*
X42144000Y-38561600D03*
X42144000Y-36561600D03*
X42144000Y-34561600D03*
X42144000Y-32561600D03*
X42144000Y-30561600D03*
X42144000Y-28561600D03*
X42144000Y-26561600D03*
D32*
X39544000Y-25061600D03*
X37544000Y-25061600D03*
X35544000Y-25061600D03*
X33544000Y-25061600D03*
X31544000Y-25061600D03*
X29544000Y-25061600D03*
D31*
X26944000Y-26561600D03*
X26944000Y-28561600D03*
X26944000Y-30561600D03*
X26944000Y-32561600D03*
X26944000Y-34561600D03*
X26944000Y-36561600D03*
X26944000Y-38561600D03*
X26944000Y-40561600D03*
D13*
X15100000Y-17400000D03*
X20100000Y-17400000D03*
X20100000Y-22400000D03*
X20100000Y-27400000D03*
D30*
X47514000Y-36449000D03*
X49514000Y-36449000D03*
D15*
X60466100Y-18679200D03*
X62541100Y-18679200D03*
D20*
X23876000Y-39354000D03*
X23876000Y-37354000D03*
D13*
X72600000Y-17400000D03*
X67600000Y-17400000D03*
X67600000Y-22400000D03*
X67600000Y-27400000D03*
D33*
X35000000Y-7500000D03*
X47500000Y-22500000D03*
X12500000Y-22500000D03*
X35000000Y-32500000D03*
X62500000Y-35000000D03*
X7500000Y-2500000D03*
X45000000Y-17500000D03*
X22500000Y-7500000D03*
X2500000Y-2500000D03*
X17500000Y-16500000D03*
X30000000Y-7500000D03*
X25000000Y-2500000D03*
X57500000Y-30000000D03*
X12500000Y-17500000D03*
X20000000Y-2500000D03*
X17500000Y-19000000D03*
X55000000Y-30000000D03*
X55000000Y-47500000D03*
X7500000Y-5000000D03*
X35000000Y-35000000D03*
X35000000Y-12500000D03*
X5000000Y-2500000D03*
X55000000Y-17500000D03*
X2500000Y-5000000D03*
X55000000Y-27500000D03*
X12500000Y-7500000D03*
X7500000Y-7500000D03*
X27500000Y-25000000D03*
X22500000Y-20000000D03*
X12500000Y-27500000D03*
X35000000Y-2500000D03*
X59900000Y-24300000D03*
X20000000Y-7500000D03*
X12500000Y-12500000D03*
X5000000Y-5000000D03*
X62500000Y-47500000D03*
X32500000Y-27500000D03*
X42500000Y-22500000D03*
X61300000Y-27500000D03*
X55000000Y-25000000D03*
X30000000Y-2500000D03*
X22500000Y-25000000D03*
X50000000Y-47500000D03*
X27500000Y-20000000D03*
X30000000Y-35000000D03*
X62500000Y-32500000D03*
X47500000Y-17500000D03*
X47500000Y-42500000D03*
X25000000Y-12500000D03*
X25000000Y-47500000D03*
X45000000Y-22500000D03*
X20000000Y-20000000D03*
X22500000Y-12500000D03*
X47500000Y-20000000D03*
X55000000Y-42500000D03*
X57500000Y-32500000D03*
X65000000Y-17500000D03*
X30000000Y-27500000D03*
X55000000Y-22500000D03*
X57500000Y-17500000D03*
D34*
X42164000Y-25146000D03*
D33*
X44950000Y-48400000D03*
X19161800Y-5039400D03*
X4744800Y-8392200D03*
X39878000Y-36576000D03*
X19136400Y-975400D03*
X19034800Y-9255800D03*
X18831600Y-13309600D03*
X15707400Y-25029200D03*
X24892000Y-21450000D03*
X34798000Y-30099000D03*
X37338000Y-30099000D03*
X24892000Y-16450000D03*
X58796000Y-22098000D03*
X59344600Y-18679200D03*
X62672000Y-24013200D03*
X61529000Y-31049000D03*
X56388000Y-37465000D03*
X51300000Y-34671000D03*
D35*
X60348000Y-23048000D02*
X61960800Y-24660800D01*
X63958000Y-25318000D02*
X63535600Y-25740400D01*
X74141380Y-23618220D02*
X73284234Y-24475366D01*
X63535600Y-25740400D02*
X63535600Y-29398000D01*
X62062400Y-25740400D02*
X61960800Y-25842000D01*
X61960800Y-24660800D02*
X61960800Y-25842000D01*
X66675800Y-25318000D02*
X65059600Y-25318000D01*
X59972000Y-23048000D02*
X60348000Y-23048000D01*
X73284234Y-24475366D02*
X67518434Y-24475366D01*
X63535600Y-25740400D02*
X62062400Y-25740400D01*
X65059600Y-25318000D02*
X63958000Y-25318000D01*
X67518434Y-24475366D02*
X66675800Y-25318000D01*
X74141380Y-21905000D02*
X74141380Y-23618220D01*
X73284234Y-24475366D02*
X73284234Y-27010400D01*
X59885800Y-25842000D02*
X59885800Y-26977200D01*
X59885800Y-26977200D02*
X59264500Y-27598500D01*
X59264500Y-27598500D02*
X59264500Y-30160000D01*
D36*
X41450000Y-24432000D02*
X41450000Y-19869500D01*
X41450000Y-19500500D02*
X41634500Y-19685000D01*
X41614600Y-15138400D02*
X41614600Y-17399000D01*
X62668000Y-39300000D02*
X62738000Y-39300000D01*
X61030000Y-37662000D02*
X59760000Y-37662000D01*
X42144000Y-26561600D02*
X42144000Y-25166000D01*
X41451000Y-17400000D02*
X41450000Y-17399000D01*
X42144000Y-26561600D02*
X45463100Y-26561600D01*
X59760000Y-37662000D02*
X59198000Y-37100000D01*
X41450000Y-17399000D02*
X41450000Y-19500500D01*
X61030000Y-37662000D02*
X62668000Y-39300000D01*
X42164000Y-25146000D02*
X41450000Y-24432000D01*
X42144000Y-25166000D02*
X42164000Y-25146000D01*
X41450000Y-19869500D02*
X41634500Y-19685000D01*
X45487500Y-26543000D02*
X48895000Y-26543000D01*
X59198000Y-36068000D02*
X59198000Y-37100000D01*
X59198000Y-36068000D02*
X54229000Y-36068000D01*
X45463100Y-26561600D02*
X45466000Y-26564500D01*
D37*
X44950000Y-41950000D02*
X44950000Y-48400000D01*
X43561600Y-40561600D02*
X44950000Y-41950000D01*
X42144000Y-40561600D02*
X43561600Y-40561600D01*
X19161800Y-5039400D02*
X22819400Y-5039400D01*
X35544000Y-17764000D02*
X35544000Y-25061600D01*
X22819400Y-5039400D02*
X35544000Y-17764000D01*
X33544000Y-25061600D02*
X33544000Y-17288000D01*
X33544000Y-17288000D02*
X24648200Y-8392200D01*
X24648200Y-8392200D02*
X4744800Y-8392200D01*
D35*
X69428400Y-27010400D02*
X69038800Y-27400000D01*
X70744234Y-27010400D02*
X69428400Y-27010400D01*
X69038800Y-27400000D02*
X67600000Y-27400000D01*
D37*
X39878000Y-36576000D02*
X39892400Y-36561600D01*
X39892400Y-36561600D02*
X42144000Y-36561600D01*
X39450000Y-17399000D02*
X38549000Y-17399000D01*
X39450000Y-22900000D02*
X38531800Y-23818200D01*
X39450000Y-17399000D02*
X39450000Y-22900000D01*
X38531800Y-23818200D02*
X38531800Y-27699400D01*
X39353500Y-4922200D02*
X41910200Y-4922200D01*
X37850000Y-4950000D02*
X38115300Y-4684700D01*
X39116000Y-4684700D02*
X39353500Y-4922200D01*
X37850000Y-16700000D02*
X37850000Y-4950000D01*
X38531800Y-27699400D02*
X41394000Y-30561600D01*
X38115300Y-4684700D02*
X39116000Y-4684700D01*
X41394000Y-30561600D02*
X42144000Y-30561600D01*
X38549000Y-17399000D02*
X37850000Y-16700000D01*
X39450000Y-15138400D02*
X39450000Y-12135700D01*
X42144000Y-28561600D02*
X41394000Y-28561600D01*
X41910200Y-12039200D02*
X39353500Y-12039200D01*
X40450000Y-15350000D02*
X40238400Y-15138400D01*
X40238400Y-15138400D02*
X39450000Y-15138400D01*
X39353500Y-12039200D02*
X39116000Y-11801700D01*
X39450000Y-12135700D02*
X39116000Y-11801700D01*
X41394000Y-28561600D02*
X40450000Y-27617600D01*
X40450000Y-27617600D02*
X40450000Y-15350000D01*
X36449000Y-27616600D02*
X36449000Y-16637000D01*
X42144000Y-32561600D02*
X41394000Y-32561600D01*
X41394000Y-32561600D02*
X36449000Y-27616600D01*
X36449000Y-16637000D02*
X20787400Y-975400D01*
X20787400Y-975400D02*
X19136400Y-975400D01*
X25492000Y-14316000D02*
X25492000Y-21698529D01*
X25513600Y-28561600D02*
X26944000Y-28561600D01*
X25492000Y-21698529D02*
X25146000Y-22044529D01*
X19034800Y-9255800D02*
X20431800Y-9255800D01*
X25146000Y-22044529D02*
X25146000Y-28194000D01*
X25146000Y-28194000D02*
X25513600Y-28561600D01*
X20431800Y-9255800D02*
X25492000Y-14316000D01*
X18831600Y-13309600D02*
X23622000Y-18100000D01*
X25417600Y-34561600D02*
X26944000Y-34561600D01*
X23622000Y-32766000D02*
X25417600Y-34561600D01*
X23622000Y-18100000D02*
X23622000Y-32766000D01*
X23114000Y-34290000D02*
X25385600Y-36561600D01*
X19949200Y-25029200D02*
X23114000Y-28194000D01*
X25385600Y-36561600D02*
X26944000Y-36561600D01*
X15707400Y-25029200D02*
X19949200Y-25029200D01*
X23114000Y-28194000D02*
X23114000Y-34290000D01*
X24638000Y-29718000D02*
X25481600Y-30561600D01*
X25481600Y-30561600D02*
X26944000Y-30561600D01*
X24892000Y-21450000D02*
X24638000Y-21704000D01*
X26944000Y-30561600D02*
X34335400Y-30561600D01*
X24638000Y-21704000D02*
X24638000Y-29718000D01*
X34335400Y-30561600D02*
X34798000Y-30099000D01*
X24892000Y-16450000D02*
X24130000Y-17212000D01*
X24130000Y-31242000D02*
X25449600Y-32561600D01*
X25449600Y-32561600D02*
X26944000Y-32561600D01*
X37338000Y-30099000D02*
X37338000Y-33650000D01*
X24130000Y-17212000D02*
X24130000Y-31242000D01*
X26944000Y-32561600D02*
X31621800Y-32561600D01*
X31621800Y-32561600D02*
X32710200Y-33650000D01*
X43600000Y-33650000D02*
X44926000Y-32324000D01*
X44926000Y-32324000D02*
X47903000Y-32324000D01*
X37338000Y-33650000D02*
X43600000Y-33650000D01*
X32710200Y-33650000D02*
X37338000Y-33650000D01*
X39243000Y-35560000D02*
X45974000Y-35560000D01*
X23876000Y-37354000D02*
X24283600Y-37761600D01*
X37041400Y-37761600D02*
X39243000Y-35560000D01*
X46736000Y-38100000D02*
X53848000Y-38100000D01*
X46355000Y-37719000D02*
X46736000Y-38100000D01*
X45974000Y-35560000D02*
X46355000Y-35941000D01*
X46355000Y-35941000D02*
X46355000Y-37719000D01*
X53848000Y-38100000D02*
X55118000Y-39370000D01*
X24283600Y-37761600D02*
X37041400Y-37761600D01*
X25146000Y-42148000D02*
X23876000Y-43418000D01*
X25146000Y-40894000D02*
X25146000Y-42148000D01*
X25478400Y-40561600D02*
X25146000Y-40894000D01*
X26944000Y-40561600D02*
X25478400Y-40561600D01*
X24908000Y-39354000D02*
X23876000Y-39354000D01*
X25700400Y-38561600D02*
X24908000Y-39354000D01*
X26944000Y-38561600D02*
X25700400Y-38561600D01*
D35*
X57339200Y-23554800D02*
X57339200Y-26604000D01*
X59972000Y-22098000D02*
X58796000Y-22098000D01*
X58796000Y-22098000D02*
X57339200Y-23554800D01*
D37*
X59344600Y-18679200D02*
X60466100Y-18679200D01*
X62672000Y-18810100D02*
X62672000Y-21148000D01*
X62541100Y-18679200D02*
X62672000Y-18810100D01*
X65059600Y-23318000D02*
X65059600Y-22108200D01*
X63942000Y-21905000D02*
X63749000Y-22098000D01*
X64189400Y-21304800D02*
X63942000Y-21552200D01*
X65059600Y-22108200D02*
X65059600Y-21304800D01*
X63749000Y-22098000D02*
X62672000Y-22098000D01*
X65059600Y-21304800D02*
X64189400Y-21304800D01*
X63942000Y-21552200D02*
X63942000Y-21905000D01*
X62672000Y-24013200D02*
X62672000Y-23048000D01*
X61198000Y-31380000D02*
X61198000Y-33782000D01*
X61529000Y-31049000D02*
X61198000Y-31380000D01*
X61198000Y-33782000D02*
X61198000Y-36068000D01*
X46736000Y-35179000D02*
X47244000Y-35179000D01*
X48514000Y-36703000D02*
X48260000Y-36449000D01*
X56388000Y-37465000D02*
X56280000Y-37573000D01*
X56280000Y-37573000D02*
X48749000Y-37573000D01*
X48749000Y-37573000D02*
X48514000Y-37338000D01*
X47244000Y-35179000D02*
X47514000Y-35449000D01*
X48514000Y-37338000D02*
X48514000Y-36703000D01*
X46117000Y-34560000D02*
X46736000Y-35179000D01*
X45212000Y-34560000D02*
X46117000Y-34560000D01*
X48260000Y-36449000D02*
X47514000Y-36449000D01*
X47514000Y-35449000D02*
X47514000Y-36449000D01*
X47903000Y-34224000D02*
X48448000Y-34224000D01*
X48448000Y-34224000D02*
X49514000Y-35290000D01*
X49514000Y-35290000D02*
X49514000Y-36449000D01*
X51300000Y-34671000D02*
X50903000Y-34274000D01*
X50903000Y-34274000D02*
X50903000Y-33274000D01*
X43431600Y-39624000D02*
X44327600Y-40520000D01*
X51428000Y-40520000D02*
X52578000Y-39370000D01*
X25531600Y-39624000D02*
X43431600Y-39624000D01*
X23876000Y-41418000D02*
X23876000Y-41279600D01*
X44327600Y-40520000D02*
X51428000Y-40520000D01*
X23876000Y-41279600D02*
X25531600Y-39624000D01*
X45212000Y-38227000D02*
X46355000Y-39370000D01*
X45212000Y-36560000D02*
X45212000Y-38227000D01*
X46355000Y-39370000D02*
X47498000Y-39370000D01*
G04 #@! TA.AperFunction,Conductor*
G36*
X54243039Y-17219685D02*
G01*
X54288794Y-17272489D01*
X54300000Y-17324000D01*
X54300000Y-18193080D01*
X54280315Y-18260119D01*
X54227511Y-18305874D01*
X54158353Y-18315818D01*
X54132670Y-18309263D01*
X54125003Y-18306403D01*
X54124993Y-18306401D01*
X54065465Y-18300000D01*
X53467621Y-18300000D01*
X53467621Y-19284313D01*
X53455666Y-19272359D01*
X53342769Y-19214835D01*
X53249102Y-19200000D01*
X53186140Y-19200000D01*
X53092473Y-19214835D01*
X52979576Y-19272359D01*
X52967621Y-19284314D01*
X52967621Y-18300000D01*
X52369776Y-18300000D01*
X52310248Y-18306401D01*
X52310241Y-18306403D01*
X52175534Y-18356645D01*
X52175527Y-18356649D01*
X52060433Y-18442809D01*
X52060430Y-18442812D01*
X51974270Y-18557906D01*
X51974266Y-18557913D01*
X51924024Y-18692620D01*
X51924022Y-18692627D01*
X51917621Y-18752155D01*
X51917620Y-18752172D01*
X51917620Y-19349999D01*
X51917621Y-19350000D01*
X52901935Y-19350000D01*
X52889980Y-19361955D01*
X52832456Y-19474852D01*
X52812635Y-19600000D01*
X52832456Y-19725148D01*
X52889980Y-19838045D01*
X52901935Y-19850000D01*
X51917621Y-19850000D01*
X51917620Y-20447827D01*
X51917621Y-20447844D01*
X51924022Y-20507372D01*
X51924024Y-20507379D01*
X51974266Y-20642086D01*
X51974270Y-20642093D01*
X52060430Y-20757187D01*
X52060433Y-20757190D01*
X52175527Y-20843350D01*
X52175534Y-20843354D01*
X52310241Y-20893596D01*
X52310248Y-20893598D01*
X52369776Y-20899999D01*
X52369793Y-20900000D01*
X52967621Y-20900000D01*
X52967621Y-19915686D01*
X52979576Y-19927641D01*
X53092473Y-19985165D01*
X53186140Y-20000000D01*
X53249102Y-20000000D01*
X53342769Y-19985165D01*
X53455666Y-19927641D01*
X53467621Y-19915686D01*
X53467621Y-20900000D01*
X54065449Y-20900000D01*
X54065465Y-20899999D01*
X54124993Y-20893598D01*
X54124996Y-20893597D01*
X54132660Y-20890739D01*
X54202351Y-20885752D01*
X54263676Y-20919234D01*
X54297164Y-20980555D01*
X54299999Y-21006919D01*
X54299999Y-30718216D01*
X54280314Y-30785255D01*
X54227510Y-30831010D01*
X54163403Y-30841575D01*
X54147983Y-30840000D01*
X54010500Y-30840000D01*
X54010500Y-33289999D01*
X54147972Y-33289999D01*
X54147986Y-33289998D01*
X54163397Y-33288424D01*
X54232090Y-33301194D01*
X54282974Y-33349074D01*
X54299999Y-33411782D01*
X54299999Y-36619355D01*
X54280314Y-36686394D01*
X54227510Y-36732149D01*
X54158352Y-36742093D01*
X54094796Y-36713068D01*
X54092539Y-36711063D01*
X52795355Y-35529699D01*
X51992358Y-34798397D01*
X51956047Y-34738704D01*
X51952755Y-34691775D01*
X51955278Y-34671000D01*
X51936237Y-34514182D01*
X51880220Y-34366477D01*
X51790483Y-34236470D01*
X51790481Y-34236467D01*
X51785509Y-34230855D01*
X51787979Y-34228666D01*
X51758771Y-34181928D01*
X51759654Y-34112064D01*
X51798169Y-34053768D01*
X51862086Y-34025549D01*
X51878180Y-34024500D01*
X51886261Y-34024500D01*
X51908970Y-34021191D01*
X51954393Y-34014573D01*
X52059483Y-33963198D01*
X52142198Y-33880483D01*
X52193573Y-33775393D01*
X52203500Y-33707260D01*
X52203500Y-32840740D01*
X52193573Y-32772607D01*
X52142198Y-32667517D01*
X52142196Y-32667515D01*
X52142196Y-32667514D01*
X52059485Y-32584803D01*
X51954391Y-32533426D01*
X51886261Y-32523500D01*
X51886260Y-32523500D01*
X49919740Y-32523500D01*
X49919739Y-32523500D01*
X49851608Y-32533426D01*
X49746513Y-32584804D01*
X49742122Y-32589195D01*
X49680798Y-32622677D01*
X49611106Y-32617690D01*
X49570952Y-32593188D01*
X49265491Y-32315000D01*
X52673001Y-32315000D01*
X52673001Y-32589986D01*
X52683494Y-32692697D01*
X52738641Y-32859119D01*
X52738643Y-32859124D01*
X52830684Y-33008345D01*
X52954654Y-33132315D01*
X53103875Y-33224356D01*
X53103880Y-33224358D01*
X53270302Y-33279505D01*
X53270309Y-33279506D01*
X53373019Y-33289999D01*
X53510499Y-33289999D01*
X53510500Y-33289998D01*
X53510500Y-32315000D01*
X52673001Y-32315000D01*
X49265491Y-32315000D01*
X49244007Y-32295434D01*
X49207696Y-32235741D01*
X49203500Y-32203756D01*
X49203500Y-31890739D01*
X49193573Y-31822608D01*
X49189854Y-31815000D01*
X52673000Y-31815000D01*
X53510500Y-31815000D01*
X53510500Y-30840000D01*
X53373027Y-30840000D01*
X53373012Y-30840001D01*
X53270302Y-30850494D01*
X53103880Y-30905641D01*
X53103875Y-30905643D01*
X52954654Y-30997684D01*
X52830684Y-31121654D01*
X52738643Y-31270875D01*
X52738641Y-31270880D01*
X52683494Y-31437302D01*
X52683493Y-31437309D01*
X52673000Y-31540013D01*
X52673000Y-31815000D01*
X49189854Y-31815000D01*
X49142198Y-31717517D01*
X49142196Y-31717515D01*
X49142196Y-31717514D01*
X49059485Y-31634803D01*
X48954391Y-31583426D01*
X48886261Y-31573500D01*
X48886260Y-31573500D01*
X48824000Y-31573500D01*
X48756961Y-31553815D01*
X48711206Y-31501011D01*
X48700000Y-31449500D01*
X48700000Y-28308880D01*
X49787870Y-28308880D01*
X49787871Y-28308881D01*
X49912094Y-28347590D01*
X49912093Y-28347590D01*
X49982627Y-28353999D01*
X52295781Y-28353999D01*
X52366298Y-28347592D01*
X52366302Y-28347591D01*
X52490527Y-28308881D01*
X52490528Y-28308880D01*
X51139200Y-26957553D01*
X49787870Y-28308880D01*
X48700000Y-28308880D01*
X48700000Y-27710582D01*
X49339200Y-27710582D01*
X49345608Y-27781102D01*
X49345609Y-27781107D01*
X49396182Y-27943399D01*
X49415043Y-27974602D01*
X50785647Y-26604000D01*
X51492752Y-26604000D01*
X52863354Y-27974601D01*
X52882218Y-27943396D01*
X52882220Y-27943393D01*
X52932790Y-27781106D01*
X52939199Y-27710572D01*
X52939199Y-25497417D01*
X52932791Y-25426897D01*
X52932790Y-25426892D01*
X52882218Y-25264601D01*
X52882216Y-25264597D01*
X52863355Y-25233397D01*
X52863354Y-25233396D01*
X51492752Y-26603999D01*
X51492752Y-26604000D01*
X50785647Y-26604000D01*
X49415044Y-25233397D01*
X49396184Y-25264597D01*
X49396179Y-25264607D01*
X49345609Y-25426893D01*
X49339200Y-25497427D01*
X49339200Y-27710582D01*
X48700000Y-27710582D01*
X48700000Y-24899118D01*
X49787870Y-24899118D01*
X51139200Y-26250447D01*
X51139201Y-26250447D01*
X52490528Y-24899118D01*
X52366301Y-24860408D01*
X52295772Y-24854000D01*
X49982617Y-24854000D01*
X49912100Y-24860407D01*
X49912097Y-24860408D01*
X49787870Y-24899118D01*
X48700000Y-24899118D01*
X48700000Y-17324000D01*
X48719685Y-17256961D01*
X48772489Y-17211206D01*
X48824000Y-17200000D01*
X54176000Y-17200000D01*
X54243039Y-17219685D01*
G37*
G04 #@! TD.AperFunction*
G04 #@! TA.AperFunction,Conductor*
G36*
X62337523Y-31150984D02*
G01*
X62386657Y-31200659D01*
X62401500Y-31259488D01*
X62401500Y-31649363D01*
X62416953Y-31766753D01*
X62416956Y-31766762D01*
X62468489Y-31891175D01*
X62477464Y-31912841D01*
X62573718Y-32038282D01*
X62699159Y-32134536D01*
X62845238Y-32195044D01*
X62962639Y-32210500D01*
X64116360Y-32210499D01*
X64116363Y-32210499D01*
X64233753Y-32195046D01*
X64233757Y-32195044D01*
X64233762Y-32195044D01*
X64379841Y-32134536D01*
X64420121Y-32103627D01*
X64485287Y-32078434D01*
X64553732Y-32092471D01*
X64603722Y-32141285D01*
X64619604Y-32201381D01*
X64699740Y-48148272D01*
X64680393Y-48215409D01*
X64663423Y-48236576D01*
X63636319Y-49263681D01*
X63574996Y-49297166D01*
X63548638Y-49300000D01*
X42788000Y-49300000D01*
X42720961Y-49280315D01*
X42675206Y-49227511D01*
X42664000Y-49176000D01*
X42664000Y-41861600D01*
X26424000Y-41861600D01*
X26424000Y-49176000D01*
X26404315Y-49243039D01*
X26351511Y-49288794D01*
X26300000Y-49300000D01*
X24251362Y-49300000D01*
X24184323Y-49280315D01*
X24163681Y-49263681D01*
X23136319Y-48236319D01*
X23102834Y-48174996D01*
X23100000Y-48148638D01*
X23100000Y-44468522D01*
X23119685Y-44401483D01*
X23172489Y-44355728D01*
X23241647Y-44345784D01*
X23261322Y-44351181D01*
X23261387Y-44350940D01*
X23269236Y-44353043D01*
X23269238Y-44353044D01*
X23386639Y-44368500D01*
X24365360Y-44368499D01*
X24365363Y-44368499D01*
X24482753Y-44353046D01*
X24482757Y-44353044D01*
X24482762Y-44353044D01*
X24628841Y-44292536D01*
X24754282Y-44196282D01*
X24850536Y-44070841D01*
X24911044Y-43924762D01*
X24926500Y-43807361D01*
X24926499Y-43055963D01*
X24946183Y-42988925D01*
X24962813Y-42968288D01*
X25444205Y-42486896D01*
X25449373Y-42482277D01*
X25479970Y-42457879D01*
X25513480Y-42408728D01*
X25548793Y-42360882D01*
X25548794Y-42360879D01*
X25552778Y-42353341D01*
X25556474Y-42345668D01*
X25574006Y-42288827D01*
X25593645Y-42232702D01*
X25593646Y-42232700D01*
X25593646Y-42232695D01*
X25595228Y-42224336D01*
X25596500Y-42215899D01*
X25596500Y-42156426D01*
X25598724Y-42096992D01*
X25597684Y-42087761D01*
X25598513Y-42087667D01*
X25596500Y-42072366D01*
X25596500Y-41536100D01*
X25616185Y-41469061D01*
X25668989Y-41423306D01*
X25720500Y-41412100D01*
X28227261Y-41412100D01*
X28249970Y-41408791D01*
X28295393Y-41402173D01*
X28400483Y-41350798D01*
X28483198Y-41268083D01*
X28534573Y-41162993D01*
X28544500Y-41094860D01*
X28544500Y-40198500D01*
X28564185Y-40131461D01*
X28616989Y-40085706D01*
X28668500Y-40074500D01*
X40419500Y-40074500D01*
X40486539Y-40094185D01*
X40532294Y-40146989D01*
X40543500Y-40198500D01*
X40543500Y-41094860D01*
X40553426Y-41162991D01*
X40604803Y-41268085D01*
X40687514Y-41350796D01*
X40687515Y-41350796D01*
X40687517Y-41350798D01*
X40792607Y-41402173D01*
X40796499Y-41402740D01*
X40860739Y-41412100D01*
X40860740Y-41412100D01*
X43427261Y-41412100D01*
X43491501Y-41402740D01*
X43495393Y-41402173D01*
X43596983Y-41352508D01*
X43665855Y-41340749D01*
X43730152Y-41368092D01*
X43739124Y-41376228D01*
X44463181Y-42100284D01*
X44496666Y-42161607D01*
X44499500Y-42187965D01*
X44499500Y-47874240D01*
X44479815Y-47941279D01*
X44464153Y-47959556D01*
X44464491Y-47959856D01*
X44459515Y-47965472D01*
X44369781Y-48095475D01*
X44369780Y-48095476D01*
X44313762Y-48243181D01*
X44294722Y-48399999D01*
X44294722Y-48400000D01*
X44313762Y-48556818D01*
X44366415Y-48695650D01*
X44369780Y-48704523D01*
X44459517Y-48834530D01*
X44577760Y-48939283D01*
X44577762Y-48939284D01*
X44717634Y-49012696D01*
X44871014Y-49050500D01*
X44871015Y-49050500D01*
X45028985Y-49050500D01*
X45182365Y-49012696D01*
X45182365Y-49012695D01*
X45322240Y-48939283D01*
X45440483Y-48834530D01*
X45530220Y-48704523D01*
X45586237Y-48556818D01*
X45605278Y-48400000D01*
X45586237Y-48243182D01*
X45583634Y-48236319D01*
X45564992Y-48187164D01*
X45530220Y-48095477D01*
X45440483Y-47965470D01*
X45440479Y-47965466D01*
X45435509Y-47959856D01*
X45436953Y-47958576D01*
X45405145Y-47907860D01*
X45400500Y-47874240D01*
X45400500Y-41978782D01*
X45400889Y-41971843D01*
X45405270Y-41932965D01*
X45394211Y-41874520D01*
X45385348Y-41815713D01*
X45385347Y-41815711D01*
X45382836Y-41807571D01*
X45380024Y-41799533D01*
X45380023Y-41799528D01*
X45352226Y-41746936D01*
X45326425Y-41693358D01*
X45326422Y-41693355D01*
X45326421Y-41693352D01*
X45321642Y-41686342D01*
X45316568Y-41679469D01*
X45316565Y-41679462D01*
X45274516Y-41637413D01*
X45234055Y-41593806D01*
X45226792Y-41588014D01*
X45227312Y-41587361D01*
X45215067Y-41577964D01*
X44819284Y-41182181D01*
X44785799Y-41120858D01*
X44790783Y-41051166D01*
X44832655Y-40995233D01*
X44898119Y-40970816D01*
X44906965Y-40970500D01*
X51399217Y-40970500D01*
X51406155Y-40970889D01*
X51438050Y-40974483D01*
X51445034Y-40975270D01*
X51445034Y-40975269D01*
X51445035Y-40975270D01*
X51503479Y-40964211D01*
X51562287Y-40955348D01*
X51562290Y-40955346D01*
X51570447Y-40952830D01*
X51578469Y-40950023D01*
X51578472Y-40950023D01*
X51631072Y-40922222D01*
X51684642Y-40896425D01*
X51684642Y-40896424D01*
X51684644Y-40896424D01*
X51691695Y-40891616D01*
X51698538Y-40886566D01*
X51740599Y-40844504D01*
X51740598Y-40844504D01*
X51784194Y-40804055D01*
X51784196Y-40804050D01*
X51789987Y-40796790D01*
X51790643Y-40797313D01*
X51800032Y-40785070D01*
X52052124Y-40532977D01*
X52113447Y-40499493D01*
X52183139Y-40504477D01*
X52184560Y-40505018D01*
X52248060Y-40529618D01*
X52466757Y-40570500D01*
X52466759Y-40570500D01*
X52689241Y-40570500D01*
X52689243Y-40570500D01*
X52907940Y-40529618D01*
X53115401Y-40449247D01*
X53304562Y-40332124D01*
X53468981Y-40182236D01*
X53603058Y-40004689D01*
X53702229Y-39805528D01*
X53728734Y-39712371D01*
X53766013Y-39653278D01*
X53829323Y-39623721D01*
X53898562Y-39633083D01*
X53951749Y-39678393D01*
X53967266Y-39712372D01*
X53993769Y-39805523D01*
X53993775Y-39805538D01*
X54092938Y-40004683D01*
X54092943Y-40004691D01*
X54227020Y-40182238D01*
X54391437Y-40332123D01*
X54391439Y-40332125D01*
X54580595Y-40449245D01*
X54580596Y-40449245D01*
X54580599Y-40449247D01*
X54788060Y-40529618D01*
X55006757Y-40570500D01*
X55006759Y-40570500D01*
X55229241Y-40570500D01*
X55229243Y-40570500D01*
X55447940Y-40529618D01*
X55655401Y-40449247D01*
X55844562Y-40332124D01*
X56008981Y-40182236D01*
X56143058Y-40004689D01*
X56242229Y-39805528D01*
X56268734Y-39712371D01*
X56306013Y-39653278D01*
X56369323Y-39623721D01*
X56438562Y-39633083D01*
X56491749Y-39678393D01*
X56507266Y-39712372D01*
X56533769Y-39805523D01*
X56533775Y-39805538D01*
X56632938Y-40004683D01*
X56632943Y-40004691D01*
X56767020Y-40182238D01*
X56931437Y-40332123D01*
X56931439Y-40332125D01*
X57120595Y-40449245D01*
X57120596Y-40449245D01*
X57120599Y-40449247D01*
X57328060Y-40529618D01*
X57546757Y-40570500D01*
X57546759Y-40570500D01*
X57769241Y-40570500D01*
X57769243Y-40570500D01*
X57987940Y-40529618D01*
X58195401Y-40449247D01*
X58384562Y-40332124D01*
X58548981Y-40182236D01*
X58683058Y-40004689D01*
X58734334Y-39901712D01*
X58781837Y-39850475D01*
X58849500Y-39833053D01*
X58915841Y-39854978D01*
X58957717Y-39904578D01*
X59024399Y-40047578D01*
X59159894Y-40241082D01*
X59326917Y-40408105D01*
X59520421Y-40543600D01*
X59734507Y-40643429D01*
X59734516Y-40643433D01*
X59948000Y-40700634D01*
X59948000Y-39805501D01*
X60055685Y-39854680D01*
X60162237Y-39870000D01*
X60233763Y-39870000D01*
X60340315Y-39854680D01*
X60448000Y-39805501D01*
X60448000Y-40700633D01*
X60661483Y-40643433D01*
X60661492Y-40643429D01*
X60875578Y-40543600D01*
X61069082Y-40408105D01*
X61236105Y-40241082D01*
X61371600Y-40047578D01*
X61438282Y-39904578D01*
X61484454Y-39852139D01*
X61551648Y-39832987D01*
X61618529Y-39853203D01*
X61661664Y-39901711D01*
X61712938Y-40004683D01*
X61712943Y-40004691D01*
X61847020Y-40182238D01*
X62011437Y-40332123D01*
X62011439Y-40332125D01*
X62200595Y-40449245D01*
X62200596Y-40449245D01*
X62200599Y-40449247D01*
X62408060Y-40529618D01*
X62626757Y-40570500D01*
X62626759Y-40570500D01*
X62849241Y-40570500D01*
X62849243Y-40570500D01*
X63067940Y-40529618D01*
X63275401Y-40449247D01*
X63464562Y-40332124D01*
X63628981Y-40182236D01*
X63763058Y-40004689D01*
X63862229Y-39805528D01*
X63923115Y-39591536D01*
X63943643Y-39370000D01*
X63923115Y-39148464D01*
X63862229Y-38934472D01*
X63862224Y-38934461D01*
X63763061Y-38735316D01*
X63763056Y-38735308D01*
X63628979Y-38557761D01*
X63464562Y-38407876D01*
X63464560Y-38407874D01*
X63275404Y-38290754D01*
X63275398Y-38290752D01*
X63275393Y-38290750D01*
X63067940Y-38210382D01*
X62849243Y-38169500D01*
X62626757Y-38169500D01*
X62508411Y-38191623D01*
X62429211Y-38206428D01*
X62359696Y-38199397D01*
X62318745Y-38172220D01*
X61476705Y-37330180D01*
X61443220Y-37268857D01*
X61448204Y-37199165D01*
X61490076Y-37143232D01*
X61555540Y-37118815D01*
X61564386Y-37118499D01*
X61587363Y-37118499D01*
X61704753Y-37103046D01*
X61704757Y-37103044D01*
X61704762Y-37103044D01*
X61850841Y-37042536D01*
X61976282Y-36946282D01*
X62072536Y-36820841D01*
X62133044Y-36674762D01*
X62148500Y-36557361D01*
X62148499Y-35578640D01*
X62148499Y-35578639D01*
X62148499Y-35578636D01*
X62133046Y-35461246D01*
X62133044Y-35461241D01*
X62133044Y-35461238D01*
X62072536Y-35315159D01*
X61976282Y-35189718D01*
X61850841Y-35093464D01*
X61850839Y-35093463D01*
X61725047Y-35041358D01*
X61670644Y-34997517D01*
X61648579Y-34931222D01*
X61648500Y-34926797D01*
X61648500Y-34923202D01*
X61668185Y-34856163D01*
X61720989Y-34810408D01*
X61725036Y-34808646D01*
X61850841Y-34756536D01*
X61976282Y-34660282D01*
X62072536Y-34534841D01*
X62133044Y-34388762D01*
X62148500Y-34271361D01*
X62148499Y-33292640D01*
X62148499Y-33292639D01*
X62148499Y-33292636D01*
X62133046Y-33175246D01*
X62133044Y-33175241D01*
X62133044Y-33175238D01*
X62072536Y-33029159D01*
X61976282Y-32903718D01*
X61850841Y-32807464D01*
X61818783Y-32794185D01*
X61725047Y-32755358D01*
X61670644Y-32711517D01*
X61648579Y-32645222D01*
X61648500Y-32640797D01*
X61648500Y-31786662D01*
X61668185Y-31719623D01*
X61720989Y-31673868D01*
X61742827Y-31666265D01*
X61761365Y-31661696D01*
X61901240Y-31588283D01*
X62019483Y-31483530D01*
X62109220Y-31353523D01*
X62161559Y-31215515D01*
X62203736Y-31159814D01*
X62269333Y-31135757D01*
X62337523Y-31150984D01*
G37*
G04 #@! TD.AperFunction*
G04 #@! TA.AperFunction,Conductor*
G36*
X24277703Y-32027252D02*
G01*
X24284181Y-32033284D01*
X25110690Y-32859793D01*
X25115326Y-32864980D01*
X25139721Y-32895570D01*
X25139721Y-32895571D01*
X25188871Y-32929080D01*
X25236718Y-32964393D01*
X25244265Y-32968381D01*
X25251922Y-32972068D01*
X25251927Y-32972072D01*
X25256042Y-32973341D01*
X25259992Y-32975955D01*
X25260302Y-32976105D01*
X25260281Y-32976147D01*
X25314304Y-33011907D01*
X25342465Y-33075850D01*
X25343500Y-33091834D01*
X25343500Y-33094860D01*
X25353426Y-33162991D01*
X25404803Y-33268085D01*
X25487514Y-33350796D01*
X25487515Y-33350796D01*
X25487517Y-33350798D01*
X25592607Y-33402173D01*
X25626673Y-33407136D01*
X25660739Y-33412100D01*
X25660740Y-33412100D01*
X28227261Y-33412100D01*
X28249970Y-33408791D01*
X28295393Y-33402173D01*
X28400483Y-33350798D01*
X28483198Y-33268083D01*
X28534573Y-33162993D01*
X28541096Y-33118219D01*
X28570239Y-33054722D01*
X28629088Y-33017058D01*
X28663800Y-33012100D01*
X31383834Y-33012100D01*
X31450873Y-33031785D01*
X31471515Y-33048419D01*
X32371290Y-33948193D01*
X32375926Y-33953380D01*
X32400321Y-33983970D01*
X32400321Y-33983971D01*
X32449471Y-34017480D01*
X32497318Y-34052793D01*
X32504854Y-34056776D01*
X32512519Y-34060467D01*
X32512527Y-34060472D01*
X32569376Y-34078006D01*
X32569377Y-34078007D01*
X32625497Y-34097645D01*
X32625499Y-34097645D01*
X32625501Y-34097646D01*
X32625502Y-34097646D01*
X32633879Y-34099230D01*
X32642296Y-34100499D01*
X32642298Y-34100500D01*
X32701774Y-34100500D01*
X32761209Y-34102724D01*
X32761209Y-34102723D01*
X32761210Y-34102724D01*
X32761210Y-34102723D01*
X32770444Y-34101684D01*
X32770537Y-34102513D01*
X32785836Y-34100500D01*
X37270098Y-34100500D01*
X37273268Y-34100500D01*
X37300859Y-34103608D01*
X37303954Y-34104315D01*
X37352561Y-34100672D01*
X37357178Y-34100500D01*
X40419500Y-34100500D01*
X40486539Y-34120185D01*
X40532294Y-34172989D01*
X40543500Y-34224500D01*
X40543500Y-34985500D01*
X40523815Y-35052539D01*
X40471011Y-35098294D01*
X40419500Y-35109500D01*
X39271783Y-35109500D01*
X39264844Y-35109110D01*
X39250569Y-35107502D01*
X39225964Y-35104729D01*
X39167511Y-35115789D01*
X39108711Y-35124652D01*
X39100556Y-35127167D01*
X39092530Y-35129975D01*
X39092529Y-35129976D01*
X39092527Y-35129976D01*
X39092524Y-35129978D01*
X39039926Y-35157777D01*
X38986358Y-35183575D01*
X38979308Y-35188380D01*
X38972461Y-35193435D01*
X38951437Y-35214458D01*
X38930413Y-35235483D01*
X38906770Y-35257420D01*
X38886803Y-35275947D01*
X38881013Y-35283208D01*
X38880362Y-35282688D01*
X38870967Y-35294928D01*
X36891116Y-37274781D01*
X36829793Y-37308266D01*
X36803435Y-37311100D01*
X28656370Y-37311100D01*
X28589331Y-37291415D01*
X28543576Y-37238611D01*
X28533632Y-37169453D01*
X28533665Y-37169223D01*
X28534573Y-37162991D01*
X28544500Y-37094860D01*
X28544500Y-36028340D01*
X28543533Y-36021706D01*
X28534573Y-35960208D01*
X28534573Y-35960207D01*
X28483198Y-35855117D01*
X28483196Y-35855115D01*
X28483196Y-35855114D01*
X28400485Y-35772403D01*
X28295391Y-35721026D01*
X28227261Y-35711100D01*
X28227260Y-35711100D01*
X25660740Y-35711100D01*
X25660739Y-35711100D01*
X25592608Y-35721026D01*
X25487514Y-35772403D01*
X25448190Y-35811727D01*
X25386867Y-35845211D01*
X25317175Y-35840226D01*
X25272829Y-35811726D01*
X23600819Y-34139716D01*
X23567334Y-34078393D01*
X23564500Y-34052035D01*
X23564500Y-33644965D01*
X23584185Y-33577926D01*
X23636989Y-33532171D01*
X23706147Y-33522227D01*
X23769703Y-33551252D01*
X23776181Y-33557284D01*
X25078690Y-34859793D01*
X25083326Y-34864980D01*
X25107721Y-34895570D01*
X25107721Y-34895571D01*
X25156871Y-34929080D01*
X25204718Y-34964393D01*
X25212254Y-34968376D01*
X25219922Y-34972068D01*
X25219927Y-34972072D01*
X25256222Y-34983267D01*
X25314481Y-35021835D01*
X25342640Y-35085779D01*
X25343348Y-35092776D01*
X25343498Y-35094852D01*
X25353426Y-35162991D01*
X25404803Y-35268085D01*
X25487514Y-35350796D01*
X25487515Y-35350796D01*
X25487517Y-35350798D01*
X25592607Y-35402173D01*
X25622600Y-35406543D01*
X25660739Y-35412100D01*
X25660740Y-35412100D01*
X28227261Y-35412100D01*
X28249970Y-35408791D01*
X28295393Y-35402173D01*
X28400483Y-35350798D01*
X28483198Y-35268083D01*
X28534573Y-35162993D01*
X28544500Y-35094860D01*
X28544500Y-34028340D01*
X28534573Y-33960207D01*
X28483198Y-33855117D01*
X28483196Y-33855115D01*
X28483196Y-33855114D01*
X28400485Y-33772403D01*
X28295391Y-33721026D01*
X28227261Y-33711100D01*
X28227260Y-33711100D01*
X25660740Y-33711100D01*
X25660739Y-33711100D01*
X25592608Y-33721026D01*
X25487514Y-33772403D01*
X25464192Y-33795726D01*
X25402869Y-33829211D01*
X25333177Y-33824227D01*
X25288830Y-33795726D01*
X24108819Y-32615714D01*
X24075334Y-32554391D01*
X24072500Y-32528033D01*
X24072500Y-32120965D01*
X24092185Y-32053926D01*
X24144989Y-32008171D01*
X24214147Y-31998227D01*
X24277703Y-32027252D01*
G37*
G04 #@! TD.AperFunction*
G04 #@! TA.AperFunction,Conductor*
G36*
X43643039Y-519685D02*
G01*
X43688794Y-572489D01*
X43700000Y-624000D01*
X43699999Y-15173999D01*
X43700000Y-15174000D01*
X75881901Y-15174000D01*
X75948940Y-15193685D01*
X75994695Y-15246489D01*
X76005896Y-15299094D01*
X75900447Y-27249279D01*
X75880172Y-27316142D01*
X75864133Y-27335866D01*
X74944153Y-28255846D01*
X74882830Y-28289331D01*
X74813138Y-28284347D01*
X74757205Y-28242475D01*
X74732788Y-28177011D01*
X74733767Y-28150293D01*
X74734734Y-28143660D01*
X74734734Y-25877140D01*
X74724807Y-25809007D01*
X74673432Y-25703917D01*
X74673430Y-25703915D01*
X74673430Y-25703914D01*
X74590719Y-25621203D01*
X74485625Y-25569826D01*
X74417495Y-25559900D01*
X74417494Y-25559900D01*
X74058734Y-25559900D01*
X73991695Y-25540215D01*
X73945940Y-25487411D01*
X73934734Y-25435900D01*
X73934734Y-24796173D01*
X73954419Y-24729134D01*
X73971049Y-24708496D01*
X74540893Y-24138651D01*
X74553459Y-24128585D01*
X74553305Y-24128398D01*
X74559317Y-24123424D01*
X74559317Y-24123423D01*
X74559320Y-24123422D01*
X74608570Y-24070975D01*
X74630291Y-24049255D01*
X74634781Y-24043465D01*
X74638563Y-24039035D01*
X74671828Y-24003613D01*
X74682054Y-23985010D01*
X74692733Y-23968753D01*
X74705742Y-23951984D01*
X74725036Y-23907395D01*
X74727592Y-23902176D01*
X74751007Y-23859588D01*
X74756285Y-23839026D01*
X74762587Y-23820619D01*
X74771015Y-23801147D01*
X74778613Y-23753173D01*
X74779795Y-23747462D01*
X74791880Y-23700397D01*
X74791880Y-23679170D01*
X74793407Y-23659770D01*
X74796726Y-23638816D01*
X74792155Y-23590459D01*
X74791880Y-23584621D01*
X74791880Y-23179500D01*
X74811565Y-23112461D01*
X74864369Y-23066706D01*
X74915880Y-23055500D01*
X74974641Y-23055500D01*
X74997350Y-23052191D01*
X75042773Y-23045573D01*
X75147863Y-22994198D01*
X75230578Y-22911483D01*
X75281953Y-22806393D01*
X75291880Y-22738260D01*
X75291880Y-21071740D01*
X75281953Y-21003607D01*
X75230578Y-20898517D01*
X75230576Y-20898515D01*
X75230576Y-20898514D01*
X75147865Y-20815803D01*
X75042771Y-20764426D01*
X74974641Y-20754500D01*
X74974640Y-20754500D01*
X73308120Y-20754500D01*
X73308119Y-20754500D01*
X73239988Y-20764426D01*
X73134894Y-20815803D01*
X73052183Y-20898514D01*
X73000806Y-21003608D01*
X72990880Y-21071739D01*
X72990880Y-21172526D01*
X72971195Y-21239565D01*
X72918391Y-21285320D01*
X72849233Y-21295264D01*
X72785677Y-21266239D01*
X72765305Y-21243649D01*
X72720406Y-21179526D01*
X72720405Y-21179526D01*
X72039333Y-21860598D01*
X72026545Y-21779852D01*
X71969021Y-21666955D01*
X71879425Y-21577359D01*
X71766528Y-21519835D01*
X71685780Y-21507046D01*
X72366852Y-20825974D01*
X72366851Y-20825973D01*
X72293863Y-20774866D01*
X72293861Y-20774865D01*
X72087706Y-20678734D01*
X72087697Y-20678730D01*
X71867990Y-20619860D01*
X71867979Y-20619858D01*
X71641382Y-20600034D01*
X71641378Y-20600034D01*
X71414780Y-20619858D01*
X71414769Y-20619860D01*
X71195062Y-20678730D01*
X71195053Y-20678734D01*
X70988893Y-20774868D01*
X70915907Y-20825972D01*
X70915906Y-20825973D01*
X71596980Y-21507046D01*
X71516232Y-21519835D01*
X71403335Y-21577359D01*
X71313739Y-21666955D01*
X71256215Y-21779852D01*
X71243426Y-21860599D01*
X70562353Y-21179526D01*
X70562352Y-21179527D01*
X70511248Y-21252513D01*
X70415114Y-21458673D01*
X70415110Y-21458682D01*
X70356240Y-21678389D01*
X70356238Y-21678400D01*
X70336414Y-21904997D01*
X70336414Y-21905002D01*
X70356238Y-22131599D01*
X70356240Y-22131610D01*
X70415110Y-22351317D01*
X70415114Y-22351326D01*
X70511245Y-22557481D01*
X70511246Y-22557483D01*
X70562353Y-22630471D01*
X70562354Y-22630472D01*
X71243426Y-21949399D01*
X71256215Y-22030148D01*
X71313739Y-22143045D01*
X71403335Y-22232641D01*
X71516232Y-22290165D01*
X71596979Y-22302953D01*
X70915906Y-22984025D01*
X70915906Y-22984026D01*
X70988892Y-23035131D01*
X70988896Y-23035133D01*
X71195053Y-23131265D01*
X71195062Y-23131269D01*
X71414769Y-23190139D01*
X71414780Y-23190141D01*
X71641378Y-23209966D01*
X71641382Y-23209966D01*
X71867979Y-23190141D01*
X71867990Y-23190139D01*
X72087697Y-23131269D01*
X72087711Y-23131264D01*
X72293858Y-23035136D01*
X72366852Y-22984025D01*
X71685781Y-22302953D01*
X71766528Y-22290165D01*
X71879425Y-22232641D01*
X71969021Y-22143045D01*
X72026545Y-22030148D01*
X72039333Y-21949400D01*
X72720405Y-22630472D01*
X72765305Y-22566349D01*
X72819882Y-22522725D01*
X72889381Y-22515532D01*
X72951735Y-22547054D01*
X72987149Y-22607284D01*
X72990880Y-22637473D01*
X72990880Y-22738260D01*
X73000806Y-22806391D01*
X73052183Y-22911485D01*
X73134894Y-22994196D01*
X73134895Y-22994196D01*
X73134897Y-22994198D01*
X73239987Y-23045573D01*
X73267612Y-23049598D01*
X73308119Y-23055500D01*
X73308120Y-23055500D01*
X73366880Y-23055500D01*
X73433919Y-23075185D01*
X73479674Y-23127989D01*
X73490880Y-23179500D01*
X73490880Y-23297411D01*
X73471195Y-23364450D01*
X73454561Y-23385092D01*
X73051107Y-23788547D01*
X72989784Y-23822032D01*
X72963426Y-23824866D01*
X68398246Y-23824866D01*
X68331207Y-23805181D01*
X68285452Y-23752377D01*
X68275508Y-23683219D01*
X68304533Y-23619663D01*
X68339228Y-23591812D01*
X68368342Y-23576056D01*
X68368349Y-23576051D01*
X68398798Y-23552351D01*
X67809220Y-22962773D01*
X67902588Y-22924099D01*
X68027925Y-22827925D01*
X68124099Y-22702589D01*
X68162773Y-22609220D01*
X68751186Y-23197634D01*
X68835484Y-23068606D01*
X68928682Y-22856135D01*
X68985638Y-22631218D01*
X69004798Y-22400005D01*
X69004798Y-22399994D01*
X68985638Y-22168781D01*
X68928682Y-21943864D01*
X68835483Y-21731390D01*
X68751186Y-21602364D01*
X68162772Y-22190778D01*
X68124099Y-22097412D01*
X68027925Y-21972075D01*
X67902588Y-21875901D01*
X67809220Y-21837227D01*
X68398799Y-21247648D01*
X68398799Y-21247647D01*
X68368349Y-21223949D01*
X68164302Y-21113523D01*
X68164293Y-21113520D01*
X67944860Y-21038188D01*
X67716007Y-21000000D01*
X67483993Y-21000000D01*
X67255139Y-21038188D01*
X67035706Y-21113520D01*
X67035698Y-21113523D01*
X66831644Y-21223952D01*
X66801200Y-21247646D01*
X66801200Y-21247647D01*
X67390779Y-21837226D01*
X67297412Y-21875901D01*
X67172075Y-21972075D01*
X67075901Y-22097411D01*
X67037227Y-22190779D01*
X66448812Y-21602365D01*
X66364516Y-21731391D01*
X66344320Y-21777434D01*
X66299363Y-21830919D01*
X66232627Y-21851609D01*
X66165299Y-21832934D01*
X66118756Y-21780823D01*
X66107775Y-21711822D01*
X66107779Y-21711783D01*
X66110100Y-21694161D01*
X66110099Y-20915440D01*
X66110099Y-20915439D01*
X66110099Y-20915436D01*
X66094646Y-20798046D01*
X66094644Y-20798041D01*
X66094644Y-20798038D01*
X66034136Y-20651959D01*
X65937882Y-20526518D01*
X65896564Y-20494814D01*
X65855364Y-20438388D01*
X65851209Y-20368642D01*
X65885422Y-20307721D01*
X65906957Y-20290901D01*
X65977943Y-20247117D01*
X66101915Y-20123145D01*
X66193956Y-19973924D01*
X66193958Y-19973919D01*
X66249105Y-19807497D01*
X66249106Y-19807490D01*
X66259599Y-19704786D01*
X66259600Y-19704773D01*
X66259600Y-19554800D01*
X63859601Y-19554800D01*
X63859601Y-19704786D01*
X63870094Y-19807497D01*
X63925241Y-19973919D01*
X63925243Y-19973924D01*
X64017284Y-20123145D01*
X64141256Y-20247117D01*
X64212242Y-20290901D01*
X64258967Y-20342849D01*
X64270190Y-20411811D01*
X64242347Y-20475893D01*
X64222634Y-20494815D01*
X64214062Y-20501393D01*
X64181318Y-20526518D01*
X64145092Y-20573729D01*
X64085063Y-20651960D01*
X64033514Y-20776411D01*
X63989673Y-20830814D01*
X63923379Y-20852879D01*
X63855679Y-20835600D01*
X63808069Y-20784462D01*
X63796249Y-20746839D01*
X63792573Y-20721607D01*
X63741198Y-20616517D01*
X63741196Y-20616515D01*
X63741196Y-20616514D01*
X63658485Y-20533803D01*
X63553391Y-20482426D01*
X63485261Y-20472500D01*
X63485260Y-20472500D01*
X63246500Y-20472500D01*
X63179461Y-20452815D01*
X63133706Y-20400011D01*
X63122500Y-20348500D01*
X63122500Y-19784357D01*
X63142185Y-19717318D01*
X63176035Y-19685043D01*
X63174992Y-19683684D01*
X63181439Y-19678736D01*
X63181441Y-19678736D01*
X63306882Y-19582482D01*
X63403136Y-19457041D01*
X63463644Y-19310962D01*
X63479100Y-19193561D01*
X63479100Y-19054800D01*
X63859600Y-19054800D01*
X64809599Y-19054800D01*
X64809599Y-18204800D01*
X65309600Y-18204800D01*
X65309600Y-19054800D01*
X66259599Y-19054800D01*
X66259599Y-18904828D01*
X66259598Y-18904813D01*
X66249105Y-18802102D01*
X66193958Y-18635680D01*
X66193956Y-18635675D01*
X66101915Y-18486454D01*
X65977945Y-18362484D01*
X65828724Y-18270443D01*
X65828719Y-18270441D01*
X65662297Y-18215294D01*
X65662290Y-18215293D01*
X65559586Y-18204800D01*
X65309600Y-18204800D01*
X64809599Y-18204800D01*
X64559629Y-18204800D01*
X64559612Y-18204801D01*
X64456902Y-18215294D01*
X64290480Y-18270441D01*
X64290475Y-18270443D01*
X64141254Y-18362484D01*
X64017284Y-18486454D01*
X63925243Y-18635675D01*
X63925241Y-18635680D01*
X63870094Y-18802102D01*
X63870093Y-18802109D01*
X63859600Y-18904813D01*
X63859600Y-19054800D01*
X63479100Y-19054800D01*
X63479099Y-18164840D01*
X63479099Y-18164839D01*
X63479099Y-18164836D01*
X63463646Y-18047446D01*
X63463644Y-18047441D01*
X63463644Y-18047438D01*
X63403136Y-17901359D01*
X63306882Y-17775918D01*
X63181441Y-17679664D01*
X63035362Y-17619156D01*
X63035360Y-17619155D01*
X62917961Y-17603700D01*
X62164236Y-17603700D01*
X62046846Y-17619153D01*
X62046837Y-17619156D01*
X61900760Y-17679663D01*
X61775318Y-17775918D01*
X61679063Y-17901360D01*
X61631250Y-18016790D01*
X61618557Y-18047437D01*
X61618161Y-18048392D01*
X61574320Y-18102795D01*
X61508026Y-18124860D01*
X61440327Y-18107581D01*
X61392716Y-18056444D01*
X61389039Y-18048392D01*
X61388644Y-18047438D01*
X61328136Y-17901359D01*
X61231882Y-17775918D01*
X61106441Y-17679664D01*
X60960362Y-17619156D01*
X60960360Y-17619155D01*
X60842961Y-17603700D01*
X60089236Y-17603700D01*
X59971846Y-17619153D01*
X59971837Y-17619156D01*
X59825760Y-17679663D01*
X59700318Y-17775918D01*
X59604063Y-17901360D01*
X59580262Y-17958822D01*
X59536421Y-18013225D01*
X59470127Y-18035290D01*
X59436029Y-18031767D01*
X59432154Y-18030812D01*
X59423585Y-18028700D01*
X59265615Y-18028700D01*
X59265614Y-18028700D01*
X59112234Y-18066503D01*
X58972362Y-18139915D01*
X58854116Y-18244671D01*
X58764381Y-18374675D01*
X58764380Y-18374676D01*
X58708362Y-18522381D01*
X58689322Y-18679199D01*
X58689322Y-18679200D01*
X58708362Y-18836018D01*
X58754603Y-18957944D01*
X58764380Y-18983723D01*
X58854117Y-19113730D01*
X58972360Y-19218483D01*
X58972362Y-19218484D01*
X59112234Y-19291896D01*
X59265614Y-19329700D01*
X59265615Y-19329700D01*
X59423585Y-19329700D01*
X59436023Y-19326634D01*
X59505824Y-19329701D01*
X59562888Y-19370019D01*
X59580262Y-19399578D01*
X59604062Y-19457038D01*
X59604063Y-19457039D01*
X59604064Y-19457041D01*
X59700318Y-19582482D01*
X59825759Y-19678736D01*
X59971838Y-19739244D01*
X60089239Y-19754700D01*
X60842960Y-19754699D01*
X60842963Y-19754699D01*
X60960353Y-19739246D01*
X60960357Y-19739244D01*
X60960362Y-19739244D01*
X61106441Y-19678736D01*
X61231882Y-19582482D01*
X61328136Y-19457041D01*
X61388644Y-19310962D01*
X61388644Y-19310961D01*
X61389039Y-19310008D01*
X61432880Y-19255604D01*
X61499174Y-19233539D01*
X61566873Y-19250818D01*
X61614484Y-19301955D01*
X61618161Y-19310008D01*
X61679062Y-19457038D01*
X61679063Y-19457039D01*
X61679064Y-19457041D01*
X61775318Y-19582482D01*
X61900759Y-19678736D01*
X62046838Y-19739244D01*
X62113685Y-19748044D01*
X62177580Y-19776310D01*
X62216052Y-19834634D01*
X62221499Y-19870983D01*
X62221500Y-20348500D01*
X62201816Y-20415539D01*
X62149012Y-20461294D01*
X62097500Y-20472500D01*
X61858739Y-20472500D01*
X61790608Y-20482426D01*
X61685514Y-20533803D01*
X61602803Y-20616514D01*
X61551426Y-20721608D01*
X61541500Y-20789739D01*
X61541500Y-21506260D01*
X61551426Y-21574392D01*
X61554270Y-21583595D01*
X61551292Y-21584515D01*
X61560325Y-21637408D01*
X61553094Y-21662047D01*
X61554269Y-21662410D01*
X61551426Y-21671608D01*
X61541500Y-21739739D01*
X61541500Y-22456260D01*
X61551425Y-22524388D01*
X61554270Y-22533592D01*
X61551294Y-22534511D01*
X61560323Y-22587425D01*
X61553094Y-22612044D01*
X61554270Y-22612408D01*
X61551425Y-22621611D01*
X61541499Y-22689739D01*
X61541499Y-23022191D01*
X61521814Y-23089231D01*
X61469010Y-23134986D01*
X61399852Y-23144929D01*
X61336296Y-23115904D01*
X61329818Y-23109872D01*
X61138819Y-22918873D01*
X61105334Y-22857550D01*
X61102500Y-22831192D01*
X61102500Y-22689739D01*
X61092573Y-22621607D01*
X61089730Y-22612405D01*
X61092709Y-22611484D01*
X61083672Y-22558610D01*
X61090912Y-22533955D01*
X61089730Y-22533590D01*
X61092567Y-22524403D01*
X61092573Y-22524393D01*
X61102500Y-22456260D01*
X61102500Y-21880393D01*
X61122183Y-21813358D01*
X61127233Y-21806086D01*
X61195350Y-21715093D01*
X61195354Y-21715086D01*
X61245596Y-21580379D01*
X61245598Y-21580372D01*
X61251999Y-21520844D01*
X61252000Y-21520827D01*
X61252000Y-21398000D01*
X58692000Y-21398000D01*
X58674239Y-21415760D01*
X58672315Y-21422314D01*
X58619511Y-21468069D01*
X58613645Y-21470568D01*
X58601440Y-21475400D01*
X58593447Y-21477955D01*
X58563637Y-21485303D01*
X58563623Y-21485308D01*
X58562685Y-21485801D01*
X58539680Y-21495070D01*
X58535604Y-21496254D01*
X58535601Y-21496255D01*
X58517332Y-21507060D01*
X58499863Y-21515618D01*
X58480129Y-21523431D01*
X58464906Y-21534491D01*
X58459150Y-21538673D01*
X58443898Y-21548147D01*
X58423761Y-21558716D01*
X58423756Y-21558719D01*
X58420140Y-21561923D01*
X58401046Y-21575831D01*
X58394132Y-21579920D01*
X58379126Y-21594926D01*
X58364336Y-21607558D01*
X58347165Y-21620033D01*
X58347161Y-21620037D01*
X58333033Y-21637115D01*
X58319725Y-21650881D01*
X58305522Y-21663464D01*
X58305515Y-21663472D01*
X58300621Y-21670562D01*
X58286258Y-21687794D01*
X56939683Y-23034369D01*
X56927110Y-23044443D01*
X56927265Y-23044630D01*
X56921259Y-23049598D01*
X56905194Y-23066706D01*
X56872009Y-23102044D01*
X56861148Y-23112904D01*
X56850288Y-23123765D01*
X56850278Y-23123777D01*
X56845787Y-23129565D01*
X56842001Y-23133997D01*
X56808752Y-23169406D01*
X56798522Y-23188013D01*
X56787846Y-23204264D01*
X56774840Y-23221032D01*
X56774836Y-23221038D01*
X56755548Y-23265611D01*
X56752977Y-23270858D01*
X56729572Y-23313430D01*
X56729572Y-23313431D01*
X56724291Y-23333999D01*
X56717991Y-23352401D01*
X56709564Y-23371873D01*
X56701966Y-23419847D01*
X56700781Y-23425570D01*
X56688700Y-23472618D01*
X56688700Y-23493844D01*
X56687173Y-23513243D01*
X56683853Y-23534205D01*
X56688134Y-23579485D01*
X56688425Y-23582567D01*
X56688700Y-23588406D01*
X56688700Y-24879500D01*
X56669015Y-24946539D01*
X56616211Y-24992294D01*
X56564700Y-25003500D01*
X56196098Y-25003500D01*
X56157053Y-25008188D01*
X56107638Y-25014122D01*
X55966856Y-25069639D01*
X55846277Y-25161077D01*
X55754839Y-25281656D01*
X55699322Y-25422438D01*
X55694364Y-25463728D01*
X55688700Y-25510898D01*
X55688700Y-27697102D01*
X55691022Y-27716435D01*
X55699322Y-27785561D01*
X55754839Y-27926343D01*
X55846277Y-28046922D01*
X55966856Y-28138360D01*
X55966857Y-28138360D01*
X55966858Y-28138361D01*
X56107636Y-28193877D01*
X56196098Y-28204500D01*
X56196103Y-28204500D01*
X57935426Y-28204500D01*
X58002465Y-28224185D01*
X58048220Y-28276989D01*
X58058164Y-28346147D01*
X58044523Y-28383783D01*
X58045696Y-28384330D01*
X58042641Y-28390880D01*
X57987494Y-28557302D01*
X57987493Y-28557309D01*
X57977000Y-28660013D01*
X57977000Y-29910000D01*
X59014499Y-29910000D01*
X59014499Y-27960000D01*
X59514500Y-27960000D01*
X59514500Y-29910000D01*
X60551999Y-29910000D01*
X60551999Y-28660028D01*
X60551998Y-28660013D01*
X60541505Y-28557302D01*
X60486358Y-28390880D01*
X60486356Y-28390875D01*
X60394315Y-28241654D01*
X60270345Y-28117684D01*
X60121124Y-28025643D01*
X60121119Y-28025641D01*
X59954697Y-27970494D01*
X59954690Y-27970493D01*
X59851986Y-27960000D01*
X59514500Y-27960000D01*
X59014499Y-27960000D01*
X59014499Y-27959999D01*
X58997272Y-27942773D01*
X58963786Y-27881450D01*
X58968770Y-27811759D01*
X58969598Y-27809600D01*
X58970215Y-27808036D01*
X58979077Y-27785564D01*
X58989700Y-27697102D01*
X58989700Y-27075821D01*
X59009385Y-27008782D01*
X59062189Y-26963027D01*
X59131347Y-26953083D01*
X59178797Y-26970283D01*
X59229169Y-27001353D01*
X59229180Y-27001358D01*
X59395602Y-27056505D01*
X59395609Y-27056506D01*
X59498319Y-27066999D01*
X59635799Y-27066999D01*
X59635800Y-27066998D01*
X59635800Y-24617000D01*
X59498327Y-24617000D01*
X59498312Y-24617001D01*
X59395602Y-24627494D01*
X59229180Y-24682641D01*
X59229175Y-24682643D01*
X59079954Y-24774684D01*
X58955983Y-24898655D01*
X58955980Y-24898659D01*
X58877245Y-25026308D01*
X58825297Y-25073033D01*
X58756334Y-25084254D01*
X58719661Y-25072170D01*
X58719433Y-25072751D01*
X58711542Y-25069639D01*
X58570764Y-25014123D01*
X58570763Y-25014122D01*
X58570761Y-25014122D01*
X58525126Y-25008642D01*
X58482302Y-25003500D01*
X58482297Y-25003500D01*
X58113700Y-25003500D01*
X58046661Y-24983815D01*
X58000906Y-24931011D01*
X57989700Y-24879500D01*
X57989700Y-23875608D01*
X58009385Y-23808569D01*
X58026019Y-23787927D01*
X58326844Y-23487102D01*
X58629821Y-23184124D01*
X58691142Y-23150641D01*
X58760833Y-23155625D01*
X58816767Y-23197496D01*
X58841184Y-23262961D01*
X58841500Y-23271807D01*
X58841500Y-23406260D01*
X58851426Y-23474391D01*
X58902803Y-23579485D01*
X58985514Y-23662196D01*
X58985515Y-23662196D01*
X58985517Y-23662198D01*
X59090607Y-23713573D01*
X59109070Y-23716263D01*
X59158739Y-23723500D01*
X59158740Y-23723500D01*
X60052192Y-23723500D01*
X60119231Y-23743185D01*
X60139873Y-23759819D01*
X61171854Y-24791800D01*
X61205339Y-24853123D01*
X61200355Y-24922815D01*
X61182549Y-24954967D01*
X61107879Y-25052279D01*
X61051451Y-25093482D01*
X60981705Y-25097637D01*
X60920785Y-25063425D01*
X60903964Y-25041890D01*
X60815615Y-24898654D01*
X60691645Y-24774684D01*
X60542424Y-24682643D01*
X60542419Y-24682641D01*
X60375997Y-24627494D01*
X60375990Y-24627493D01*
X60273286Y-24617000D01*
X60135800Y-24617000D01*
X60135800Y-27066999D01*
X60273272Y-27066999D01*
X60273286Y-27066998D01*
X60375997Y-27056505D01*
X60542419Y-27001358D01*
X60542424Y-27001356D01*
X60691645Y-26909315D01*
X60815616Y-26785344D01*
X60815617Y-26785342D01*
X60903964Y-26642110D01*
X60955912Y-26595385D01*
X61024874Y-26584162D01*
X61088957Y-26612006D01*
X61107879Y-26631720D01*
X61190282Y-26739111D01*
X61195018Y-26745282D01*
X61320459Y-26841536D01*
X61466538Y-26902044D01*
X61583939Y-26917500D01*
X62337660Y-26917499D01*
X62337663Y-26917499D01*
X62455053Y-26902046D01*
X62455057Y-26902044D01*
X62455062Y-26902044D01*
X62601141Y-26841536D01*
X62685614Y-26776717D01*
X62750782Y-26751523D01*
X62819227Y-26765561D01*
X62869217Y-26814375D01*
X62885100Y-26875093D01*
X62885100Y-28025590D01*
X62865415Y-28092629D01*
X62812611Y-28138384D01*
X62808553Y-28140151D01*
X62699160Y-28185463D01*
X62573718Y-28281718D01*
X62477463Y-28407160D01*
X62416956Y-28553237D01*
X62416955Y-28553239D01*
X62401501Y-28670629D01*
X62401500Y-28670645D01*
X62401500Y-30838511D01*
X62381815Y-30905550D01*
X62329011Y-30951305D01*
X62259853Y-30961249D01*
X62196297Y-30932224D01*
X62161558Y-30882482D01*
X62109220Y-30744477D01*
X62019483Y-30614470D01*
X61901240Y-30509717D01*
X61901238Y-30509716D01*
X61901237Y-30509715D01*
X61761365Y-30436303D01*
X61607986Y-30398500D01*
X61607985Y-30398500D01*
X61450015Y-30398500D01*
X61450014Y-30398500D01*
X61296634Y-30436303D01*
X61156762Y-30509715D01*
X61038516Y-30614471D01*
X60948781Y-30744475D01*
X60948780Y-30744476D01*
X60892763Y-30892180D01*
X60876340Y-31027437D01*
X60855697Y-31082343D01*
X60830519Y-31119271D01*
X60795206Y-31167118D01*
X60791226Y-31174648D01*
X60787719Y-31181931D01*
X60785203Y-31184716D01*
X60783221Y-31188645D01*
X60782338Y-31189942D01*
X60781190Y-31189160D01*
X60740894Y-31233789D01*
X60673467Y-31252100D01*
X60606844Y-31231050D01*
X60562177Y-31177322D01*
X60552000Y-31128126D01*
X60552000Y-30410000D01*
X57977001Y-30410000D01*
X57977001Y-31659986D01*
X57987494Y-31762697D01*
X58042641Y-31929119D01*
X58042643Y-31929124D01*
X58134684Y-32078345D01*
X58258654Y-32202315D01*
X58407875Y-32294356D01*
X58407880Y-32294358D01*
X58574302Y-32349505D01*
X58574310Y-32349506D01*
X58651046Y-32357346D01*
X58715738Y-32383742D01*
X58755889Y-32440923D01*
X58758753Y-32510733D01*
X58723419Y-32571010D01*
X58677449Y-32598410D01*
X58528878Y-32647642D01*
X58528875Y-32647643D01*
X58379654Y-32739684D01*
X58255684Y-32863654D01*
X58163643Y-33012875D01*
X58163641Y-33012880D01*
X58108494Y-33179302D01*
X58108493Y-33179309D01*
X58098000Y-33282013D01*
X58098000Y-33532000D01*
X59324000Y-33532000D01*
X59391039Y-33551685D01*
X59436794Y-33604489D01*
X59448000Y-33656000D01*
X59448000Y-33908000D01*
X59428315Y-33975039D01*
X59375511Y-34020794D01*
X59324000Y-34032000D01*
X58098001Y-34032000D01*
X58098001Y-34281986D01*
X58108494Y-34384697D01*
X58163641Y-34551119D01*
X58163643Y-34551124D01*
X58255684Y-34700345D01*
X58379654Y-34824315D01*
X58512775Y-34906425D01*
X58559499Y-34958373D01*
X58570722Y-35027336D01*
X58542878Y-35091418D01*
X58523165Y-35110339D01*
X58419720Y-35189715D01*
X58323462Y-35315161D01*
X58285611Y-35406543D01*
X58278794Y-35423003D01*
X58271359Y-35440952D01*
X58227518Y-35495356D01*
X58161224Y-35517421D01*
X58156798Y-35517500D01*
X54779499Y-35517500D01*
X54712460Y-35497815D01*
X54666705Y-35445011D01*
X54655499Y-35393500D01*
X54655499Y-33411776D01*
X54646675Y-33345603D01*
X54643080Y-33318637D01*
X54626055Y-33255929D01*
X54597458Y-33183302D01*
X54537244Y-33104170D01*
X54512314Y-33038901D01*
X54526629Y-32970514D01*
X54537542Y-32953606D01*
X54613422Y-32854718D01*
X54669848Y-32813517D01*
X54739594Y-32809362D01*
X54800514Y-32843574D01*
X54817335Y-32865109D01*
X54905684Y-33008345D01*
X55029654Y-33132315D01*
X55178875Y-33224356D01*
X55178880Y-33224358D01*
X55345302Y-33279505D01*
X55345309Y-33279506D01*
X55448019Y-33289999D01*
X55585499Y-33289999D01*
X55585500Y-33289998D01*
X55585500Y-32315000D01*
X56085500Y-32315000D01*
X56085500Y-33289999D01*
X56222972Y-33289999D01*
X56222986Y-33289998D01*
X56325697Y-33279505D01*
X56492119Y-33224358D01*
X56492124Y-33224356D01*
X56641345Y-33132315D01*
X56765315Y-33008345D01*
X56857356Y-32859124D01*
X56857358Y-32859119D01*
X56912505Y-32692697D01*
X56912506Y-32692690D01*
X56922999Y-32589986D01*
X56923000Y-32589973D01*
X56923000Y-32315000D01*
X56085500Y-32315000D01*
X55585500Y-32315000D01*
X55585500Y-30840000D01*
X56085500Y-30840000D01*
X56085500Y-31815000D01*
X56922999Y-31815000D01*
X56922999Y-31540028D01*
X56922998Y-31540013D01*
X56912505Y-31437302D01*
X56857358Y-31270880D01*
X56857356Y-31270875D01*
X56765315Y-31121654D01*
X56641345Y-30997684D01*
X56492124Y-30905643D01*
X56492119Y-30905641D01*
X56325697Y-30850494D01*
X56325690Y-30850493D01*
X56222986Y-30840000D01*
X56085500Y-30840000D01*
X55585500Y-30840000D01*
X55448027Y-30840000D01*
X55448012Y-30840001D01*
X55345302Y-30850494D01*
X55178880Y-30905641D01*
X55178875Y-30905643D01*
X55029654Y-30997684D01*
X54905683Y-31121655D01*
X54905680Y-31121659D01*
X54817334Y-31264890D01*
X54765386Y-31311615D01*
X54696424Y-31322836D01*
X54632342Y-31294993D01*
X54613420Y-31275279D01*
X54607898Y-31268083D01*
X54538450Y-31177576D01*
X54513257Y-31112408D01*
X54527295Y-31043963D01*
X54544965Y-31018801D01*
X54570410Y-30990741D01*
X54621413Y-30885414D01*
X54641098Y-30818375D01*
X54655499Y-30718216D01*
X54655499Y-20997396D01*
X54654479Y-20978378D01*
X54650626Y-20942546D01*
X54647590Y-20920706D01*
X54609170Y-20810166D01*
X54588158Y-20771690D01*
X54575685Y-20748850D01*
X54575675Y-20748835D01*
X54526121Y-20679437D01*
X54526119Y-20679435D01*
X54526117Y-20679432D01*
X54512405Y-20668677D01*
X54434034Y-20607211D01*
X54434031Y-20607209D01*
X54425219Y-20602398D01*
X54375812Y-20552994D01*
X54360959Y-20484721D01*
X54361936Y-20475705D01*
X54368121Y-20433260D01*
X54368121Y-20332472D01*
X54387806Y-20265433D01*
X54440610Y-20219678D01*
X54509768Y-20209734D01*
X54573324Y-20238759D01*
X54593697Y-20261350D01*
X54638594Y-20325472D01*
X54638595Y-20325472D01*
X55319667Y-19644399D01*
X55332456Y-19725148D01*
X55389980Y-19838045D01*
X55479576Y-19927641D01*
X55592473Y-19985165D01*
X55673220Y-19997953D01*
X54992147Y-20679025D01*
X54992147Y-20679026D01*
X55065133Y-20730131D01*
X55065137Y-20730133D01*
X55271294Y-20826265D01*
X55271303Y-20826269D01*
X55491010Y-20885139D01*
X55491021Y-20885141D01*
X55717619Y-20904966D01*
X55717623Y-20904966D01*
X55797255Y-20897999D01*
X58691999Y-20897999D01*
X58692000Y-20898000D01*
X59722000Y-20898000D01*
X59722000Y-20323000D01*
X60222000Y-20323000D01*
X60222000Y-20898000D01*
X61251999Y-20898000D01*
X61252000Y-20775172D01*
X61251999Y-20775155D01*
X61245598Y-20715627D01*
X61245596Y-20715620D01*
X61195354Y-20580913D01*
X61195350Y-20580906D01*
X61109190Y-20465812D01*
X61109187Y-20465809D01*
X60994093Y-20379649D01*
X60994086Y-20379645D01*
X60859379Y-20329403D01*
X60859372Y-20329401D01*
X60799844Y-20323000D01*
X60222000Y-20323000D01*
X59722000Y-20323000D01*
X59144155Y-20323000D01*
X59084627Y-20329401D01*
X59084620Y-20329403D01*
X58949913Y-20379645D01*
X58949906Y-20379649D01*
X58834812Y-20465809D01*
X58834809Y-20465812D01*
X58748649Y-20580906D01*
X58748645Y-20580913D01*
X58698403Y-20715620D01*
X58698401Y-20715627D01*
X58692000Y-20775155D01*
X58692000Y-20775172D01*
X58691999Y-20897999D01*
X55797255Y-20897999D01*
X55944220Y-20885141D01*
X55944231Y-20885139D01*
X56163938Y-20826269D01*
X56163952Y-20826264D01*
X56370099Y-20730136D01*
X56443093Y-20679025D01*
X55762022Y-19997953D01*
X55842769Y-19985165D01*
X55955666Y-19927641D01*
X56045262Y-19838045D01*
X56102786Y-19725148D01*
X56115574Y-19644400D01*
X56796646Y-20325472D01*
X56847757Y-20252478D01*
X56943885Y-20046331D01*
X56943890Y-20046317D01*
X57002760Y-19826610D01*
X57002762Y-19826599D01*
X57022587Y-19600002D01*
X57022587Y-19599997D01*
X57002762Y-19373400D01*
X57002760Y-19373389D01*
X56943890Y-19153682D01*
X56943886Y-19153673D01*
X56847754Y-18947516D01*
X56847752Y-18947512D01*
X56796647Y-18874526D01*
X56796646Y-18874526D01*
X56115574Y-19555598D01*
X56102786Y-19474852D01*
X56045262Y-19361955D01*
X55955666Y-19272359D01*
X55842769Y-19214835D01*
X55762021Y-19202046D01*
X56443093Y-18520974D01*
X56443092Y-18520973D01*
X56370104Y-18469866D01*
X56370102Y-18469865D01*
X56163947Y-18373734D01*
X56163938Y-18373730D01*
X55944231Y-18314860D01*
X55944220Y-18314858D01*
X55717623Y-18295034D01*
X55717619Y-18295034D01*
X55491021Y-18314858D01*
X55491010Y-18314860D01*
X55271303Y-18373730D01*
X55271294Y-18373734D01*
X55065134Y-18469868D01*
X54992148Y-18520972D01*
X54992147Y-18520973D01*
X55673221Y-19202046D01*
X55592473Y-19214835D01*
X55479576Y-19272359D01*
X55389980Y-19361955D01*
X55332456Y-19474852D01*
X55319667Y-19555599D01*
X54638594Y-18874526D01*
X54638593Y-18874527D01*
X54593696Y-18938648D01*
X54539119Y-18982273D01*
X54469621Y-18989467D01*
X54407266Y-18957944D01*
X54371852Y-18897714D01*
X54368121Y-18867525D01*
X54368121Y-18766741D01*
X54367403Y-18761811D01*
X54361747Y-18722995D01*
X54371559Y-18653822D01*
X54417214Y-18600931D01*
X54419718Y-18599357D01*
X54460314Y-18574543D01*
X54513118Y-18528788D01*
X54570411Y-18465605D01*
X54621414Y-18360278D01*
X54641099Y-18293239D01*
X54643394Y-18277281D01*
X54648082Y-18244670D01*
X54655500Y-18193080D01*
X54655500Y-17400005D01*
X66195202Y-17400005D01*
X66214361Y-17631218D01*
X66271317Y-17856135D01*
X66364516Y-18068609D01*
X66448811Y-18197633D01*
X67037226Y-17609219D01*
X67075901Y-17702588D01*
X67172075Y-17827925D01*
X67297412Y-17924099D01*
X67390779Y-17962772D01*
X66801199Y-18552351D01*
X66831650Y-18576050D01*
X67035697Y-18686476D01*
X67035706Y-18686479D01*
X67255139Y-18761811D01*
X67483993Y-18800000D01*
X67716007Y-18800000D01*
X67944860Y-18761811D01*
X68164293Y-18686479D01*
X68164302Y-18686476D01*
X68368350Y-18576050D01*
X68398798Y-18552351D01*
X67809220Y-17962773D01*
X67902588Y-17924099D01*
X68027925Y-17827925D01*
X68124099Y-17702589D01*
X68162773Y-17609220D01*
X68751186Y-18197634D01*
X68835484Y-18068606D01*
X68928682Y-17856135D01*
X68985638Y-17631218D01*
X69004798Y-17400005D01*
X71195202Y-17400005D01*
X71214361Y-17631218D01*
X71271317Y-17856135D01*
X71364516Y-18068609D01*
X71448811Y-18197633D01*
X72037226Y-17609219D01*
X72075901Y-17702588D01*
X72172075Y-17827925D01*
X72297412Y-17924099D01*
X72390779Y-17962772D01*
X71801199Y-18552351D01*
X71831650Y-18576050D01*
X72035697Y-18686476D01*
X72035706Y-18686479D01*
X72255139Y-18761811D01*
X72483993Y-18800000D01*
X72716007Y-18800000D01*
X72944860Y-18761811D01*
X73164293Y-18686479D01*
X73164302Y-18686476D01*
X73368350Y-18576050D01*
X73398798Y-18552351D01*
X72809220Y-17962773D01*
X72902588Y-17924099D01*
X73027925Y-17827925D01*
X73124099Y-17702589D01*
X73162773Y-17609220D01*
X73751186Y-18197634D01*
X73835484Y-18068606D01*
X73928682Y-17856135D01*
X73985638Y-17631218D01*
X74004798Y-17400005D01*
X74004798Y-17399994D01*
X73985638Y-17168781D01*
X73928682Y-16943864D01*
X73835483Y-16731390D01*
X73751186Y-16602364D01*
X73162772Y-17190778D01*
X73124099Y-17097412D01*
X73027925Y-16972075D01*
X72902588Y-16875901D01*
X72809220Y-16837227D01*
X73398799Y-16247648D01*
X73398799Y-16247647D01*
X73368349Y-16223949D01*
X73164302Y-16113523D01*
X73164293Y-16113520D01*
X72944860Y-16038188D01*
X72716007Y-16000000D01*
X72483993Y-16000000D01*
X72255139Y-16038188D01*
X72035706Y-16113520D01*
X72035698Y-16113523D01*
X71831644Y-16223952D01*
X71801200Y-16247646D01*
X71801200Y-16247647D01*
X72390779Y-16837226D01*
X72297412Y-16875901D01*
X72172075Y-16972075D01*
X72075901Y-17097411D01*
X72037226Y-17190779D01*
X71448812Y-16602365D01*
X71364516Y-16731391D01*
X71364514Y-16731395D01*
X71271317Y-16943864D01*
X71214361Y-17168781D01*
X71195202Y-17399994D01*
X71195202Y-17400005D01*
X69004798Y-17400005D01*
X69004798Y-17399994D01*
X68985638Y-17168781D01*
X68928682Y-16943864D01*
X68835483Y-16731390D01*
X68751186Y-16602364D01*
X68162772Y-17190778D01*
X68124099Y-17097412D01*
X68027925Y-16972075D01*
X67902588Y-16875901D01*
X67809220Y-16837227D01*
X68398799Y-16247648D01*
X68398799Y-16247647D01*
X68368349Y-16223949D01*
X68164302Y-16113523D01*
X68164293Y-16113520D01*
X67944860Y-16038188D01*
X67716007Y-16000000D01*
X67483993Y-16000000D01*
X67255139Y-16038188D01*
X67035706Y-16113520D01*
X67035698Y-16113523D01*
X66831644Y-16223952D01*
X66801200Y-16247646D01*
X66801200Y-16247647D01*
X67390779Y-16837226D01*
X67297412Y-16875901D01*
X67172075Y-16972075D01*
X67075901Y-17097411D01*
X67037226Y-17190779D01*
X66448812Y-16602365D01*
X66364516Y-16731391D01*
X66364514Y-16731395D01*
X66271317Y-16943864D01*
X66214361Y-17168781D01*
X66195202Y-17399994D01*
X66195202Y-17400005D01*
X54655500Y-17400005D01*
X54655500Y-17324000D01*
X54647375Y-17248430D01*
X54636169Y-17196919D01*
X54618497Y-17139536D01*
X54557463Y-17039686D01*
X54549440Y-17030427D01*
X54511720Y-16986895D01*
X54511714Y-16986889D01*
X54511708Y-16986882D01*
X54448525Y-16929589D01*
X54448521Y-16929587D01*
X54448518Y-16929585D01*
X54343198Y-16878586D01*
X54343195Y-16878585D01*
X54276160Y-16858901D01*
X54276154Y-16858899D01*
X54186105Y-16845952D01*
X54176000Y-16844500D01*
X48824000Y-16844500D01*
X48823991Y-16844500D01*
X48748429Y-16852624D01*
X48710481Y-16860880D01*
X48696919Y-16863831D01*
X48660766Y-16874965D01*
X48639535Y-16881503D01*
X48639534Y-16881503D01*
X48544085Y-16939847D01*
X48539686Y-16942537D01*
X48539683Y-16942539D01*
X48539678Y-16942543D01*
X48486895Y-16988279D01*
X48486879Y-16988295D01*
X48429591Y-17051472D01*
X48429585Y-17051481D01*
X48378586Y-17156801D01*
X48378585Y-17156804D01*
X48358901Y-17223839D01*
X48358899Y-17223845D01*
X48344500Y-17324000D01*
X48344500Y-25868500D01*
X48324815Y-25935539D01*
X48272011Y-25981294D01*
X48220500Y-25992500D01*
X46576585Y-25992500D01*
X46509546Y-25972815D01*
X46469204Y-25930510D01*
X46465540Y-25924165D01*
X46465536Y-25924160D01*
X46465536Y-25924159D01*
X46369282Y-25798718D01*
X46255719Y-25711578D01*
X46214517Y-25655151D01*
X46210362Y-25585405D01*
X46244574Y-25524485D01*
X46266110Y-25507664D01*
X46409342Y-25419317D01*
X46409344Y-25419316D01*
X46533315Y-25295345D01*
X46625356Y-25146124D01*
X46625358Y-25146119D01*
X46680505Y-24979697D01*
X46680506Y-24979690D01*
X46690999Y-24876986D01*
X46691000Y-24876973D01*
X46691000Y-24739500D01*
X44241001Y-24739500D01*
X44241001Y-24876986D01*
X44251494Y-24979697D01*
X44306641Y-25146119D01*
X44306643Y-25146124D01*
X44398684Y-25295345D01*
X44522654Y-25419315D01*
X44665890Y-25507664D01*
X44712614Y-25559612D01*
X44723837Y-25628575D01*
X44695993Y-25692657D01*
X44676280Y-25711578D01*
X44562720Y-25798716D01*
X44562719Y-25798717D01*
X44562718Y-25798718D01*
X44466464Y-25924159D01*
X44463834Y-25930510D01*
X44462160Y-25934551D01*
X44418319Y-25988955D01*
X44352025Y-26011021D01*
X44347598Y-26011100D01*
X43836858Y-26011100D01*
X43769819Y-25991415D01*
X43725457Y-25941560D01*
X43722514Y-25935539D01*
X43683198Y-25855117D01*
X43683196Y-25855115D01*
X43683196Y-25855114D01*
X43600485Y-25772403D01*
X43495391Y-25721026D01*
X43427261Y-25711100D01*
X43427260Y-25711100D01*
X43034586Y-25711100D01*
X42967547Y-25691415D01*
X42921792Y-25638611D01*
X42911848Y-25569453D01*
X42927199Y-25525100D01*
X42932442Y-25516019D01*
X42945250Y-25493835D01*
X43000497Y-25323803D01*
X43019185Y-25146000D01*
X43000497Y-24968197D01*
X42967510Y-24866673D01*
X42945252Y-24798170D01*
X42945249Y-24798164D01*
X42855859Y-24643335D01*
X42809003Y-24591296D01*
X42736235Y-24510478D01*
X42736232Y-24510476D01*
X42736231Y-24510475D01*
X42736230Y-24510474D01*
X42591593Y-24405388D01*
X42428267Y-24332671D01*
X42428265Y-24332670D01*
X42300594Y-24305533D01*
X42253391Y-24295500D01*
X42253390Y-24295500D01*
X42143387Y-24295500D01*
X42076348Y-24275815D01*
X42055706Y-24259181D01*
X42036819Y-24240294D01*
X42036385Y-24239500D01*
X44241000Y-24239500D01*
X45216000Y-24239500D01*
X45216000Y-23402000D01*
X45716000Y-23402000D01*
X45716000Y-24239500D01*
X46690998Y-24239500D01*
X46690999Y-24102028D01*
X46690998Y-24102013D01*
X46680505Y-23999302D01*
X46625358Y-23832880D01*
X46625356Y-23832875D01*
X46533315Y-23683654D01*
X46409345Y-23559684D01*
X46260124Y-23467643D01*
X46260119Y-23467641D01*
X46093697Y-23412494D01*
X46093690Y-23412493D01*
X45990986Y-23402000D01*
X45716000Y-23402000D01*
X45216000Y-23402000D01*
X44941029Y-23402000D01*
X44941012Y-23402001D01*
X44838302Y-23412494D01*
X44671880Y-23467641D01*
X44671875Y-23467643D01*
X44522654Y-23559684D01*
X44398684Y-23683654D01*
X44306643Y-23832875D01*
X44306641Y-23832880D01*
X44251494Y-23999302D01*
X44251493Y-23999309D01*
X44241000Y-24102013D01*
X44241000Y-24239500D01*
X42036385Y-24239500D01*
X42003334Y-24178971D01*
X42000500Y-24152613D01*
X42000500Y-20870675D01*
X42020185Y-20803636D01*
X42072989Y-20757881D01*
X42108314Y-20747735D01*
X42128762Y-20745044D01*
X42274841Y-20684536D01*
X42400282Y-20588282D01*
X42487422Y-20474718D01*
X42543847Y-20433517D01*
X42613593Y-20429362D01*
X42674514Y-20463574D01*
X42691335Y-20485109D01*
X42779684Y-20628345D01*
X42903654Y-20752315D01*
X43052875Y-20844356D01*
X43052880Y-20844358D01*
X43219302Y-20899505D01*
X43219309Y-20899506D01*
X43322019Y-20909999D01*
X43459499Y-20909999D01*
X43459500Y-20909998D01*
X43459500Y-19935000D01*
X43959500Y-19935000D01*
X43959500Y-20909999D01*
X44096972Y-20909999D01*
X44096986Y-20909998D01*
X44199697Y-20899505D01*
X44366119Y-20844358D01*
X44366124Y-20844356D01*
X44515345Y-20752315D01*
X44639315Y-20628345D01*
X44731356Y-20479124D01*
X44731358Y-20479119D01*
X44786505Y-20312697D01*
X44786506Y-20312690D01*
X44796999Y-20209986D01*
X44797000Y-20209973D01*
X44797000Y-19935000D01*
X43959500Y-19935000D01*
X43459500Y-19935000D01*
X43459500Y-18460000D01*
X43959500Y-18460000D01*
X43959500Y-19435000D01*
X44796999Y-19435000D01*
X44796999Y-19160028D01*
X44796998Y-19160013D01*
X44786505Y-19057302D01*
X44731358Y-18890880D01*
X44731356Y-18890875D01*
X44639315Y-18741654D01*
X44515345Y-18617684D01*
X44366124Y-18525643D01*
X44366119Y-18525641D01*
X44199697Y-18470494D01*
X44199690Y-18470493D01*
X44096986Y-18460000D01*
X43959500Y-18460000D01*
X43459500Y-18460000D01*
X43322027Y-18460000D01*
X43322012Y-18460001D01*
X43219302Y-18470494D01*
X43052880Y-18525641D01*
X43052875Y-18525643D01*
X42903654Y-18617684D01*
X42779683Y-18741655D01*
X42779680Y-18741659D01*
X42691334Y-18884890D01*
X42639386Y-18931615D01*
X42570424Y-18942836D01*
X42506342Y-18914993D01*
X42487420Y-18895279D01*
X42400283Y-18781719D01*
X42400282Y-18781718D01*
X42274841Y-18685464D01*
X42259718Y-18679200D01*
X42201963Y-18655277D01*
X42128762Y-18624956D01*
X42108313Y-18622263D01*
X42044417Y-18593997D01*
X42005947Y-18535672D01*
X42000500Y-18499325D01*
X42000500Y-18498781D01*
X42020185Y-18431742D01*
X42072989Y-18385987D01*
X42077048Y-18384220D01*
X42100086Y-18374677D01*
X42102841Y-18373536D01*
X42228282Y-18277282D01*
X42324536Y-18151841D01*
X42385044Y-18005762D01*
X42400500Y-17888361D01*
X42400499Y-16909640D01*
X42400499Y-16909636D01*
X42385046Y-16792246D01*
X42385044Y-16792241D01*
X42385044Y-16792238D01*
X42324536Y-16646159D01*
X42228282Y-16520718D01*
X42228277Y-16520714D01*
X42213613Y-16509461D01*
X42172410Y-16453033D01*
X42165100Y-16411086D01*
X42165100Y-16126312D01*
X42184785Y-16059273D01*
X42213611Y-16027939D01*
X42228282Y-16016682D01*
X42324536Y-15891241D01*
X42385044Y-15745162D01*
X42400500Y-15627761D01*
X42400499Y-14649040D01*
X42400499Y-14649039D01*
X42400499Y-14649036D01*
X42385046Y-14531646D01*
X42385044Y-14531641D01*
X42385044Y-14531638D01*
X42324536Y-14385559D01*
X42228282Y-14260118D01*
X42102841Y-14163864D01*
X41956762Y-14103356D01*
X41956760Y-14103355D01*
X41839361Y-14087900D01*
X41060636Y-14087900D01*
X40943246Y-14103353D01*
X40943237Y-14103356D01*
X40797160Y-14163863D01*
X40671718Y-14260118D01*
X40575463Y-14385560D01*
X40564561Y-14411881D01*
X40520720Y-14466284D01*
X40454425Y-14488349D01*
X40386726Y-14471070D01*
X40339116Y-14419932D01*
X40335439Y-14411881D01*
X40324536Y-14385560D01*
X40324536Y-14385559D01*
X40228282Y-14260118D01*
X40102841Y-14163864D01*
X39979893Y-14112937D01*
X39977047Y-14111758D01*
X39922644Y-14067917D01*
X39900579Y-14001622D01*
X39900500Y-13997197D01*
X39900500Y-12719776D01*
X39920185Y-12652737D01*
X39949014Y-12621400D01*
X40019282Y-12567482D01*
X40041741Y-12538211D01*
X40098168Y-12497011D01*
X40140116Y-12489700D01*
X40772505Y-12489700D01*
X40839544Y-12509385D01*
X40883503Y-12558425D01*
X40927834Y-12647455D01*
X41056328Y-12817607D01*
X41213898Y-12961252D01*
X41395181Y-13073498D01*
X41594002Y-13150521D01*
X41803590Y-13189700D01*
X41803592Y-13189700D01*
X42016808Y-13189700D01*
X42016810Y-13189700D01*
X42226398Y-13150521D01*
X42425219Y-13073498D01*
X42606502Y-12961252D01*
X42764072Y-12817607D01*
X42892566Y-12647455D01*
X42932387Y-12567483D01*
X42987603Y-12456594D01*
X42987603Y-12456593D01*
X42987605Y-12456589D01*
X43045956Y-12251510D01*
X43065629Y-12039200D01*
X43045956Y-11826890D01*
X42987605Y-11621811D01*
X42987603Y-11621806D01*
X42987603Y-11621805D01*
X42892567Y-11430946D01*
X42764072Y-11260793D01*
X42606502Y-11117148D01*
X42425219Y-11004902D01*
X42425217Y-11004901D01*
X42324749Y-10965980D01*
X42269347Y-10923407D01*
X42245757Y-10857640D01*
X42261468Y-10789560D01*
X42311492Y-10740781D01*
X42337452Y-10730578D01*
X42356512Y-10725471D01*
X42356526Y-10725465D01*
X42562682Y-10629334D01*
X42749020Y-10498857D01*
X42909857Y-10338020D01*
X43040334Y-10151682D01*
X43136465Y-9945526D01*
X43136469Y-9945517D01*
X43189072Y-9749200D01*
X42225886Y-9749200D01*
X42237841Y-9737245D01*
X42295365Y-9624348D01*
X42315186Y-9499200D01*
X42295365Y-9374052D01*
X42237841Y-9261155D01*
X42225886Y-9249200D01*
X43189072Y-9249200D01*
X43189072Y-9249199D01*
X43136469Y-9052882D01*
X43136465Y-9052873D01*
X43040334Y-8846717D01*
X42909857Y-8660379D01*
X42749020Y-8499542D01*
X42562682Y-8369065D01*
X42356528Y-8272934D01*
X42160200Y-8220327D01*
X42160200Y-9183513D01*
X42148245Y-9171559D01*
X42035348Y-9114035D01*
X41941681Y-9099200D01*
X41878719Y-9099200D01*
X41785052Y-9114035D01*
X41672155Y-9171559D01*
X41660200Y-9183514D01*
X41660200Y-8220327D01*
X41463871Y-8272934D01*
X41257717Y-8369065D01*
X41071379Y-8499542D01*
X40910542Y-8660379D01*
X40780065Y-8846717D01*
X40683934Y-9052873D01*
X40683930Y-9052882D01*
X40631327Y-9249199D01*
X40631328Y-9249200D01*
X41594514Y-9249200D01*
X41582559Y-9261155D01*
X41525035Y-9374052D01*
X41505214Y-9499200D01*
X41525035Y-9624348D01*
X41582559Y-9737245D01*
X41594514Y-9749200D01*
X40631328Y-9749200D01*
X40683930Y-9945517D01*
X40683934Y-9945526D01*
X40780065Y-10151682D01*
X40910542Y-10338020D01*
X41071379Y-10498857D01*
X41257717Y-10629334D01*
X41463873Y-10725465D01*
X41463884Y-10725470D01*
X41482948Y-10730578D01*
X41542609Y-10766942D01*
X41573139Y-10829789D01*
X41564845Y-10899165D01*
X41520360Y-10953043D01*
X41495650Y-10965979D01*
X41395191Y-11004897D01*
X41395180Y-11004902D01*
X41213899Y-11117147D01*
X41056327Y-11260793D01*
X40929053Y-11429331D01*
X40927834Y-11430945D01*
X40883503Y-11519974D01*
X40836003Y-11571208D01*
X40772505Y-11588700D01*
X40315499Y-11588700D01*
X40248460Y-11569015D01*
X40202705Y-11516211D01*
X40191499Y-11464700D01*
X40191499Y-11424836D01*
X40176046Y-11307446D01*
X40176044Y-11307441D01*
X40176044Y-11307438D01*
X40115536Y-11161359D01*
X40019282Y-11035918D01*
X40019280Y-11035917D01*
X40019280Y-11035916D01*
X39905720Y-10948779D01*
X39864517Y-10892351D01*
X39860362Y-10822605D01*
X39894574Y-10761685D01*
X39916110Y-10744864D01*
X40059342Y-10656517D01*
X40059344Y-10656516D01*
X40183315Y-10532545D01*
X40275356Y-10383324D01*
X40275358Y-10383319D01*
X40330505Y-10216897D01*
X40330506Y-10216890D01*
X40340999Y-10114186D01*
X40341000Y-10114173D01*
X40341000Y-9976700D01*
X38990000Y-9976700D01*
X38922961Y-9957015D01*
X38877206Y-9904211D01*
X38866000Y-9852700D01*
X38866000Y-8639200D01*
X39366000Y-8639200D01*
X39366000Y-9476700D01*
X40340999Y-9476700D01*
X40340999Y-9339228D01*
X40340998Y-9339213D01*
X40330505Y-9236502D01*
X40275358Y-9070080D01*
X40275356Y-9070075D01*
X40183315Y-8920854D01*
X40059345Y-8796884D01*
X39910124Y-8704843D01*
X39910119Y-8704841D01*
X39743697Y-8649694D01*
X39743690Y-8649693D01*
X39640986Y-8639200D01*
X39366000Y-8639200D01*
X38866000Y-8639200D01*
X38591029Y-8639200D01*
X38591012Y-8639201D01*
X38488303Y-8649694D01*
X38463502Y-8657912D01*
X38393673Y-8660312D01*
X38333632Y-8624579D01*
X38302441Y-8562058D01*
X38300500Y-8540205D01*
X38300500Y-5716716D01*
X38320185Y-5649677D01*
X38372989Y-5603922D01*
X38442147Y-5593978D01*
X38471950Y-5602154D01*
X38484238Y-5607244D01*
X38601639Y-5622700D01*
X39630360Y-5622699D01*
X39630363Y-5622699D01*
X39747753Y-5607246D01*
X39747757Y-5607244D01*
X39747762Y-5607244D01*
X39893841Y-5546736D01*
X40019282Y-5450482D01*
X40041741Y-5421211D01*
X40098168Y-5380011D01*
X40140116Y-5372700D01*
X40772505Y-5372700D01*
X40839544Y-5392385D01*
X40883503Y-5441425D01*
X40927834Y-5530455D01*
X41056328Y-5700607D01*
X41213898Y-5844252D01*
X41395181Y-5956498D01*
X41594002Y-6033521D01*
X41803590Y-6072700D01*
X41803592Y-6072700D01*
X42016808Y-6072700D01*
X42016810Y-6072700D01*
X42226398Y-6033521D01*
X42425219Y-5956498D01*
X42606502Y-5844252D01*
X42764072Y-5700607D01*
X42892566Y-5530455D01*
X42920713Y-5473928D01*
X42987603Y-5339594D01*
X42987603Y-5339593D01*
X42987605Y-5339589D01*
X43045956Y-5134510D01*
X43065629Y-4922200D01*
X43045956Y-4709890D01*
X42987605Y-4504811D01*
X42987603Y-4504806D01*
X42987603Y-4504805D01*
X42892567Y-4313946D01*
X42764072Y-4143793D01*
X42720472Y-4104046D01*
X42606502Y-4000148D01*
X42425219Y-3887902D01*
X42425217Y-3887901D01*
X42324749Y-3848980D01*
X42269347Y-3806407D01*
X42245757Y-3740640D01*
X42261468Y-3672560D01*
X42311492Y-3623781D01*
X42337452Y-3613578D01*
X42356512Y-3608471D01*
X42356526Y-3608465D01*
X42562682Y-3512334D01*
X42749020Y-3381857D01*
X42909857Y-3221020D01*
X43040334Y-3034682D01*
X43136465Y-2828526D01*
X43136469Y-2828517D01*
X43189072Y-2632200D01*
X42225886Y-2632200D01*
X42237841Y-2620245D01*
X42295365Y-2507348D01*
X42315186Y-2382200D01*
X42295365Y-2257052D01*
X42237841Y-2144155D01*
X42225886Y-2132200D01*
X43189072Y-2132200D01*
X43189072Y-2132199D01*
X43136469Y-1935882D01*
X43136465Y-1935873D01*
X43040334Y-1729717D01*
X42909857Y-1543379D01*
X42749020Y-1382542D01*
X42562682Y-1252065D01*
X42356528Y-1155934D01*
X42160200Y-1103327D01*
X42160200Y-2066513D01*
X42148245Y-2054559D01*
X42035348Y-1997035D01*
X41941681Y-1982200D01*
X41878719Y-1982200D01*
X41785052Y-1997035D01*
X41672155Y-2054559D01*
X41660200Y-2066513D01*
X41660200Y-1103327D01*
X41463871Y-1155934D01*
X41257717Y-1252065D01*
X41071379Y-1382542D01*
X40910542Y-1543379D01*
X40780065Y-1729717D01*
X40683934Y-1935873D01*
X40683930Y-1935882D01*
X40631327Y-2132199D01*
X40631328Y-2132200D01*
X41594514Y-2132200D01*
X41582559Y-2144155D01*
X41525035Y-2257052D01*
X41505214Y-2382200D01*
X41525035Y-2507348D01*
X41582559Y-2620245D01*
X41594514Y-2632200D01*
X40631328Y-2632200D01*
X40683930Y-2828517D01*
X40683934Y-2828526D01*
X40780065Y-3034682D01*
X40910542Y-3221020D01*
X41071379Y-3381857D01*
X41257717Y-3512334D01*
X41463873Y-3608465D01*
X41463884Y-3608470D01*
X41482948Y-3613578D01*
X41542609Y-3649942D01*
X41573139Y-3712789D01*
X41564845Y-3782165D01*
X41520360Y-3836043D01*
X41495650Y-3848979D01*
X41395191Y-3887897D01*
X41395180Y-3887902D01*
X41213899Y-4000147D01*
X41056327Y-4143793D01*
X40951593Y-4282483D01*
X40927834Y-4313945D01*
X40883503Y-4402974D01*
X40836003Y-4454208D01*
X40772505Y-4471700D01*
X40315499Y-4471700D01*
X40248460Y-4452015D01*
X40202705Y-4399211D01*
X40191499Y-4347700D01*
X40191499Y-4307836D01*
X40176046Y-4190446D01*
X40176044Y-4190441D01*
X40176044Y-4190438D01*
X40115536Y-4044359D01*
X40019282Y-3918918D01*
X40019280Y-3918917D01*
X40019280Y-3918916D01*
X39905720Y-3831779D01*
X39864517Y-3775351D01*
X39860362Y-3705605D01*
X39894574Y-3644685D01*
X39916110Y-3627864D01*
X40059342Y-3539517D01*
X40059344Y-3539516D01*
X40183315Y-3415545D01*
X40275356Y-3266324D01*
X40275358Y-3266319D01*
X40330505Y-3099897D01*
X40330506Y-3099890D01*
X40340999Y-2997186D01*
X40341000Y-2997173D01*
X40341000Y-2859700D01*
X37891001Y-2859700D01*
X37891001Y-2997186D01*
X37901494Y-3099897D01*
X37956641Y-3266319D01*
X37956643Y-3266324D01*
X38048684Y-3415545D01*
X38172654Y-3539515D01*
X38315890Y-3627864D01*
X38362614Y-3679812D01*
X38373837Y-3748775D01*
X38345993Y-3812857D01*
X38326280Y-3831778D01*
X38212720Y-3918916D01*
X38212719Y-3918917D01*
X38212718Y-3918918D01*
X38150706Y-3999734D01*
X38116463Y-4044360D01*
X38061264Y-4177623D01*
X38017423Y-4232026D01*
X37983250Y-4248662D01*
X37972835Y-4251874D01*
X37964829Y-4254675D01*
X37964828Y-4254676D01*
X37964826Y-4254676D01*
X37964823Y-4254678D01*
X37912215Y-4282483D01*
X37858658Y-4308275D01*
X37851610Y-4313079D01*
X37844759Y-4318135D01*
X37816721Y-4346174D01*
X37802701Y-4360194D01*
X37782476Y-4378959D01*
X37759107Y-4400643D01*
X37753315Y-4407907D01*
X37752663Y-4407387D01*
X37743269Y-4419625D01*
X37551804Y-4611091D01*
X37546617Y-4615727D01*
X37516033Y-4640117D01*
X37516029Y-4640121D01*
X37482519Y-4689271D01*
X37447206Y-4737118D01*
X37443216Y-4744667D01*
X37439528Y-4752326D01*
X37421992Y-4809177D01*
X37402353Y-4865301D01*
X37400771Y-4873659D01*
X37399500Y-4882100D01*
X37399500Y-4941573D01*
X37397275Y-5001009D01*
X37398316Y-5010243D01*
X37397485Y-5010336D01*
X37399500Y-5025635D01*
X37399500Y-16671217D01*
X37399110Y-16678155D01*
X37397724Y-16690454D01*
X37394729Y-16717034D01*
X37405788Y-16775479D01*
X37414652Y-16834290D01*
X37417162Y-16842427D01*
X37419978Y-16850475D01*
X37447777Y-16903072D01*
X37473576Y-16956644D01*
X37478362Y-16963665D01*
X37483431Y-16970532D01*
X37483434Y-16970538D01*
X37525495Y-17012599D01*
X37561566Y-17051475D01*
X37565947Y-17056196D01*
X37573210Y-17061988D01*
X37572689Y-17062641D01*
X37584930Y-17072034D01*
X38210090Y-17697193D01*
X38214726Y-17702380D01*
X38239121Y-17732970D01*
X38239121Y-17732971D01*
X38288271Y-17766480D01*
X38336118Y-17801793D01*
X38343665Y-17805781D01*
X38351322Y-17809468D01*
X38351327Y-17809472D01*
X38408172Y-17827006D01*
X38423413Y-17832339D01*
X38480190Y-17873057D01*
X38505403Y-17933198D01*
X38514954Y-18005754D01*
X38514956Y-18005760D01*
X38514956Y-18005762D01*
X38575464Y-18151841D01*
X38671718Y-18277282D01*
X38797159Y-18373536D01*
X38797160Y-18373536D01*
X38797161Y-18373537D01*
X38822952Y-18384220D01*
X38922952Y-18425641D01*
X38977356Y-18469482D01*
X38999421Y-18535776D01*
X38999500Y-18540202D01*
X38999500Y-22662033D01*
X38979815Y-22729072D01*
X38963181Y-22749714D01*
X38233604Y-23479292D01*
X38228417Y-23483927D01*
X38197833Y-23508317D01*
X38197829Y-23508321D01*
X38164319Y-23557471D01*
X38129006Y-23605318D01*
X38125016Y-23612867D01*
X38121328Y-23620526D01*
X38103792Y-23677377D01*
X38086060Y-23728053D01*
X38045339Y-23784830D01*
X37980387Y-23810578D01*
X37969018Y-23811100D01*
X37023500Y-23811100D01*
X36956461Y-23791415D01*
X36910706Y-23738611D01*
X36899500Y-23687100D01*
X36899500Y-16665782D01*
X36899889Y-16658843D01*
X36904270Y-16619965D01*
X36893211Y-16561520D01*
X36884348Y-16502713D01*
X36884347Y-16502711D01*
X36881836Y-16494571D01*
X36879024Y-16486533D01*
X36879023Y-16486528D01*
X36851226Y-16433936D01*
X36825425Y-16380358D01*
X36825422Y-16380355D01*
X36825421Y-16380352D01*
X36820642Y-16373342D01*
X36815568Y-16366469D01*
X36815565Y-16366462D01*
X36773516Y-16324413D01*
X36733055Y-16280806D01*
X36725792Y-16275014D01*
X36726312Y-16274361D01*
X36714067Y-16264964D01*
X22808803Y-2359700D01*
X37891000Y-2359700D01*
X38866000Y-2359700D01*
X38866000Y-1522200D01*
X39366000Y-1522200D01*
X39366000Y-2359700D01*
X40340999Y-2359700D01*
X40340999Y-2222228D01*
X40340998Y-2222213D01*
X40330505Y-2119502D01*
X40275358Y-1953080D01*
X40275356Y-1953075D01*
X40183315Y-1803854D01*
X40059345Y-1679884D01*
X39910124Y-1587843D01*
X39910119Y-1587841D01*
X39743697Y-1532694D01*
X39743690Y-1532693D01*
X39640986Y-1522200D01*
X39366000Y-1522200D01*
X38866000Y-1522200D01*
X38591029Y-1522200D01*
X38591012Y-1522201D01*
X38488302Y-1532694D01*
X38321880Y-1587841D01*
X38321875Y-1587843D01*
X38172654Y-1679884D01*
X38048684Y-1803854D01*
X37956643Y-1953075D01*
X37956641Y-1953080D01*
X37901494Y-2119502D01*
X37901493Y-2119509D01*
X37891000Y-2222213D01*
X37891000Y-2359700D01*
X22808803Y-2359700D01*
X21160784Y-711681D01*
X21127299Y-650358D01*
X21132283Y-580666D01*
X21174155Y-524733D01*
X21239619Y-500316D01*
X21248465Y-500000D01*
X43576000Y-500000D01*
X43643039Y-519685D01*
G37*
G04 #@! TD.AperFunction*
G04 #@! TA.AperFunction,Conductor*
G36*
X24477273Y-8862385D02*
G01*
X24497915Y-8879019D01*
X33057181Y-17438284D01*
X33090666Y-17499607D01*
X33093500Y-17525965D01*
X33093500Y-23691799D01*
X33073815Y-23758838D01*
X33021011Y-23804593D01*
X32987379Y-23814503D01*
X32942608Y-23821026D01*
X32837514Y-23872403D01*
X32754803Y-23955114D01*
X32703426Y-24060208D01*
X32693500Y-24128339D01*
X32693500Y-25994860D01*
X32703426Y-26062991D01*
X32754803Y-26168085D01*
X32837514Y-26250796D01*
X32837515Y-26250796D01*
X32837517Y-26250798D01*
X32942607Y-26302173D01*
X32962861Y-26305124D01*
X33010739Y-26312100D01*
X33010740Y-26312100D01*
X34077261Y-26312100D01*
X34105702Y-26307956D01*
X34145393Y-26302173D01*
X34250483Y-26250798D01*
X34333198Y-26168083D01*
X34384573Y-26062993D01*
X34394500Y-25994860D01*
X34394500Y-24128340D01*
X34393783Y-24123422D01*
X34384573Y-24060208D01*
X34384573Y-24060207D01*
X34333198Y-23955117D01*
X34333196Y-23955115D01*
X34333196Y-23955114D01*
X34250485Y-23872403D01*
X34145391Y-23821026D01*
X34100621Y-23814503D01*
X34037120Y-23785358D01*
X33999457Y-23726509D01*
X33994500Y-23691799D01*
X33994500Y-17316782D01*
X33994889Y-17309843D01*
X33999270Y-17270965D01*
X33988211Y-17212520D01*
X33979348Y-17153713D01*
X33979205Y-17152764D01*
X33988679Y-17083540D01*
X34034074Y-17030427D01*
X34100979Y-17010288D01*
X34168150Y-17029517D01*
X34189501Y-17046604D01*
X35057181Y-17914284D01*
X35090666Y-17975607D01*
X35093500Y-18001965D01*
X35093500Y-23691799D01*
X35073815Y-23758838D01*
X35021011Y-23804593D01*
X34987379Y-23814503D01*
X34942608Y-23821026D01*
X34837514Y-23872403D01*
X34754803Y-23955114D01*
X34703426Y-24060208D01*
X34693500Y-24128339D01*
X34693500Y-25994860D01*
X34703426Y-26062991D01*
X34754803Y-26168085D01*
X34837514Y-26250796D01*
X34837515Y-26250796D01*
X34837517Y-26250798D01*
X34942607Y-26302173D01*
X34962861Y-26305124D01*
X35010739Y-26312100D01*
X35010740Y-26312100D01*
X35874500Y-26312100D01*
X35941539Y-26331785D01*
X35987294Y-26384589D01*
X35998500Y-26436100D01*
X35998500Y-27587817D01*
X35998110Y-27594755D01*
X35996724Y-27607054D01*
X35993729Y-27633634D01*
X36004788Y-27692079D01*
X36013652Y-27750890D01*
X36016162Y-27759027D01*
X36018978Y-27767075D01*
X36046777Y-27819672D01*
X36072576Y-27873244D01*
X36077362Y-27880265D01*
X36082431Y-27887132D01*
X36082434Y-27887138D01*
X36082438Y-27887142D01*
X36124496Y-27929200D01*
X36164947Y-27972796D01*
X36172210Y-27978588D01*
X36171689Y-27979241D01*
X36183930Y-27988634D01*
X37432115Y-29236819D01*
X37465600Y-29298142D01*
X37460616Y-29367834D01*
X37418744Y-29423767D01*
X37353280Y-29448184D01*
X37344434Y-29448500D01*
X37259014Y-29448500D01*
X37105634Y-29486303D01*
X36965762Y-29559715D01*
X36847516Y-29664471D01*
X36757781Y-29794475D01*
X36757780Y-29794476D01*
X36701762Y-29942181D01*
X36682722Y-30098999D01*
X36682722Y-30099000D01*
X36701762Y-30255818D01*
X36757780Y-30403523D01*
X36757781Y-30403524D01*
X36847518Y-30533532D01*
X36852491Y-30539145D01*
X36851044Y-30540426D01*
X36882850Y-30591120D01*
X36887500Y-30624759D01*
X36887500Y-33075500D01*
X36867815Y-33142539D01*
X36815011Y-33188294D01*
X36763500Y-33199500D01*
X32948166Y-33199500D01*
X32881127Y-33179815D01*
X32860485Y-33163181D01*
X31960708Y-32263405D01*
X31956071Y-32258217D01*
X31931678Y-32227629D01*
X31882528Y-32194119D01*
X31834682Y-32158807D01*
X31827097Y-32154798D01*
X31819477Y-32151129D01*
X31765682Y-32134536D01*
X31762622Y-32133592D01*
X31726536Y-32120965D01*
X31706495Y-32113952D01*
X31698126Y-32112368D01*
X31689704Y-32111100D01*
X31689702Y-32111100D01*
X31630226Y-32111100D01*
X31570790Y-32108875D01*
X31561556Y-32109916D01*
X31561462Y-32109086D01*
X31546164Y-32111100D01*
X28663800Y-32111100D01*
X28596761Y-32091415D01*
X28551006Y-32038611D01*
X28541096Y-32004983D01*
X28534573Y-31960207D01*
X28483198Y-31855117D01*
X28483196Y-31855115D01*
X28483196Y-31855114D01*
X28400485Y-31772403D01*
X28295391Y-31721026D01*
X28227261Y-31711100D01*
X28227260Y-31711100D01*
X25660740Y-31711100D01*
X25660739Y-31711100D01*
X25592608Y-31721026D01*
X25487513Y-31772403D01*
X25480188Y-31779729D01*
X25418864Y-31813212D01*
X25349172Y-31808225D01*
X25304829Y-31779726D01*
X24616819Y-31091716D01*
X24583334Y-31030393D01*
X24580500Y-31004035D01*
X24580500Y-30596964D01*
X24600185Y-30529925D01*
X24652989Y-30484170D01*
X24722147Y-30474226D01*
X24785703Y-30503251D01*
X24792166Y-30509269D01*
X24994593Y-30711696D01*
X25142690Y-30859793D01*
X25147326Y-30864981D01*
X25171721Y-30895570D01*
X25171721Y-30895571D01*
X25220871Y-30929080D01*
X25268718Y-30964393D01*
X25276934Y-30968735D01*
X25275171Y-30972070D01*
X25317182Y-31002161D01*
X25342971Y-31067098D01*
X25343500Y-31078543D01*
X25343500Y-31094860D01*
X25353426Y-31162991D01*
X25404803Y-31268085D01*
X25487514Y-31350796D01*
X25487515Y-31350796D01*
X25487517Y-31350798D01*
X25592607Y-31402173D01*
X25626673Y-31407136D01*
X25660739Y-31412100D01*
X25660740Y-31412100D01*
X28227261Y-31412100D01*
X28249970Y-31408791D01*
X28295393Y-31402173D01*
X28400483Y-31350798D01*
X28483198Y-31268083D01*
X28534573Y-31162993D01*
X28541096Y-31118219D01*
X28570239Y-31054722D01*
X28629088Y-31017058D01*
X28663800Y-31012100D01*
X34306617Y-31012100D01*
X34313555Y-31012489D01*
X34345450Y-31016083D01*
X34352434Y-31016870D01*
X34352434Y-31016869D01*
X34352435Y-31016870D01*
X34410879Y-31005811D01*
X34469687Y-30996948D01*
X34469690Y-30996946D01*
X34477847Y-30994430D01*
X34485869Y-30991623D01*
X34485872Y-30991623D01*
X34538472Y-30963822D01*
X34592042Y-30938025D01*
X34592042Y-30938024D01*
X34592044Y-30938024D01*
X34599095Y-30933216D01*
X34605938Y-30928166D01*
X34647999Y-30886104D01*
X34667137Y-30868347D01*
X34691594Y-30845655D01*
X34691596Y-30845650D01*
X34697387Y-30838390D01*
X34698043Y-30838913D01*
X34707437Y-30826666D01*
X34748288Y-30785817D01*
X34809612Y-30752333D01*
X34835967Y-30749500D01*
X34876985Y-30749500D01*
X35030365Y-30711696D01*
X35030364Y-30711696D01*
X35170240Y-30638283D01*
X35288483Y-30533530D01*
X35378220Y-30403523D01*
X35434237Y-30255818D01*
X35453278Y-30099000D01*
X35449299Y-30066225D01*
X35434237Y-29942181D01*
X35412992Y-29886163D01*
X35378220Y-29794477D01*
X35288483Y-29664470D01*
X35170240Y-29559717D01*
X35170238Y-29559716D01*
X35170237Y-29559715D01*
X35030365Y-29486303D01*
X34876986Y-29448500D01*
X34876985Y-29448500D01*
X34719015Y-29448500D01*
X34719014Y-29448500D01*
X34565634Y-29486303D01*
X34425762Y-29559715D01*
X34307516Y-29664471D01*
X34217781Y-29794475D01*
X34217780Y-29794476D01*
X34161763Y-29942180D01*
X34154494Y-30002047D01*
X34126872Y-30066225D01*
X34068938Y-30105281D01*
X34031398Y-30111100D01*
X28663800Y-30111100D01*
X28596761Y-30091415D01*
X28551006Y-30038611D01*
X28541096Y-30004983D01*
X28534573Y-29960207D01*
X28483198Y-29855117D01*
X28483196Y-29855115D01*
X28483196Y-29855114D01*
X28400485Y-29772403D01*
X28295391Y-29721026D01*
X28227261Y-29711100D01*
X28227260Y-29711100D01*
X25660740Y-29711100D01*
X25660739Y-29711100D01*
X25592608Y-29721026D01*
X25487513Y-29772403D01*
X25480796Y-29777200D01*
X25414797Y-29800133D01*
X25346877Y-29783744D01*
X25321064Y-29763962D01*
X25231883Y-29674781D01*
X25124819Y-29567716D01*
X25091334Y-29506393D01*
X25088500Y-29480035D01*
X25088500Y-29053399D01*
X25108185Y-28986360D01*
X25160989Y-28940605D01*
X25230147Y-28930661D01*
X25286136Y-28953631D01*
X25291895Y-28957881D01*
X25293137Y-28958798D01*
X25335385Y-29014448D01*
X25343499Y-29058562D01*
X25343499Y-29094859D01*
X25353426Y-29162991D01*
X25404803Y-29268085D01*
X25487514Y-29350796D01*
X25487515Y-29350796D01*
X25487517Y-29350798D01*
X25592607Y-29402173D01*
X25626673Y-29407136D01*
X25660739Y-29412100D01*
X25660740Y-29412100D01*
X28227261Y-29412100D01*
X28249970Y-29408791D01*
X28295393Y-29402173D01*
X28400483Y-29350798D01*
X28483198Y-29268083D01*
X28534573Y-29162993D01*
X28544500Y-29094860D01*
X28544500Y-28028340D01*
X28534573Y-27960207D01*
X28483198Y-27855117D01*
X28483196Y-27855115D01*
X28483196Y-27855114D01*
X28400485Y-27772403D01*
X28364818Y-27754966D01*
X28313237Y-27707837D01*
X28295323Y-27640303D01*
X28316765Y-27573805D01*
X28370754Y-27529455D01*
X28375948Y-27527384D01*
X28436084Y-27504955D01*
X28436093Y-27504950D01*
X28551187Y-27418790D01*
X28551190Y-27418787D01*
X28637350Y-27303693D01*
X28637354Y-27303686D01*
X28687596Y-27168979D01*
X28687598Y-27168972D01*
X28693999Y-27109444D01*
X28694000Y-27109427D01*
X28694000Y-26811600D01*
X26818000Y-26811600D01*
X26750961Y-26791915D01*
X26705206Y-26739111D01*
X26694000Y-26687600D01*
X26694000Y-26311600D01*
X27194000Y-26311600D01*
X28693998Y-26311600D01*
X28719357Y-26286241D01*
X28780680Y-26252756D01*
X28850372Y-26257740D01*
X28861491Y-26262518D01*
X28942607Y-26302172D01*
X28942607Y-26302173D01*
X29010739Y-26312100D01*
X29010740Y-26312100D01*
X30077261Y-26312100D01*
X30105702Y-26307956D01*
X30145393Y-26302173D01*
X30250483Y-26250798D01*
X30333198Y-26168083D01*
X30384573Y-26062993D01*
X30394500Y-25994860D01*
X30693500Y-25994860D01*
X30703426Y-26062991D01*
X30754803Y-26168085D01*
X30837514Y-26250796D01*
X30837515Y-26250796D01*
X30837517Y-26250798D01*
X30942607Y-26302173D01*
X30962861Y-26305124D01*
X31010739Y-26312100D01*
X31010740Y-26312100D01*
X32077261Y-26312100D01*
X32105702Y-26307956D01*
X32145393Y-26302173D01*
X32250483Y-26250798D01*
X32333198Y-26168083D01*
X32384573Y-26062993D01*
X32394500Y-25994860D01*
X32394500Y-24128340D01*
X32393783Y-24123422D01*
X32384573Y-24060208D01*
X32384573Y-24060207D01*
X32333198Y-23955117D01*
X32333196Y-23955115D01*
X32333196Y-23955114D01*
X32250485Y-23872403D01*
X32145391Y-23821026D01*
X32077261Y-23811100D01*
X32077260Y-23811100D01*
X31010740Y-23811100D01*
X31010739Y-23811100D01*
X30942608Y-23821026D01*
X30837514Y-23872403D01*
X30754803Y-23955114D01*
X30703426Y-24060208D01*
X30693500Y-24128339D01*
X30693500Y-25994860D01*
X30394500Y-25994860D01*
X30394500Y-24128340D01*
X30393783Y-24123422D01*
X30384573Y-24060208D01*
X30384573Y-24060207D01*
X30333198Y-23955117D01*
X30333196Y-23955115D01*
X30333196Y-23955114D01*
X30250485Y-23872403D01*
X30145391Y-23821026D01*
X30077261Y-23811100D01*
X30077260Y-23811100D01*
X29010740Y-23811100D01*
X29010739Y-23811100D01*
X28942608Y-23821026D01*
X28837514Y-23872403D01*
X28754803Y-23955114D01*
X28703426Y-24060208D01*
X28693499Y-24128339D01*
X28693499Y-25563222D01*
X28673814Y-25630262D01*
X28621010Y-25676016D01*
X28551852Y-25685960D01*
X28495188Y-25662488D01*
X28436093Y-25618249D01*
X28436086Y-25618245D01*
X28301379Y-25568003D01*
X28301372Y-25568001D01*
X28241844Y-25561600D01*
X27194000Y-25561600D01*
X27194000Y-26311600D01*
X26694000Y-26311600D01*
X26694000Y-25561600D01*
X25720499Y-25561600D01*
X25653460Y-25541915D01*
X25607705Y-25489111D01*
X25596499Y-25437600D01*
X25596499Y-24979690D01*
X25596499Y-22282489D01*
X25616184Y-22215454D01*
X25632810Y-22194821D01*
X25790205Y-22037425D01*
X25795373Y-22032806D01*
X25825970Y-22008408D01*
X25859480Y-21959257D01*
X25894793Y-21911411D01*
X25894794Y-21911408D01*
X25898787Y-21903853D01*
X25902470Y-21896205D01*
X25902470Y-21896204D01*
X25902472Y-21896202D01*
X25920007Y-21839351D01*
X25939646Y-21783228D01*
X25941232Y-21774840D01*
X25942500Y-21766433D01*
X25942500Y-21706955D01*
X25944724Y-21647521D01*
X25943684Y-21638290D01*
X25944513Y-21638196D01*
X25942500Y-21622895D01*
X25942500Y-14344782D01*
X25942889Y-14337843D01*
X25947270Y-14298965D01*
X25936211Y-14240520D01*
X25927348Y-14181713D01*
X25927347Y-14181711D01*
X25924836Y-14173571D01*
X25922024Y-14165533D01*
X25922023Y-14165528D01*
X25894226Y-14112936D01*
X25868425Y-14059358D01*
X25868422Y-14059355D01*
X25868421Y-14059352D01*
X25863642Y-14052342D01*
X25858568Y-14045469D01*
X25858565Y-14045462D01*
X25816516Y-14003413D01*
X25776055Y-13959806D01*
X25768792Y-13954014D01*
X25769312Y-13953361D01*
X25757067Y-13943964D01*
X20867484Y-9054381D01*
X20833999Y-8993058D01*
X20838983Y-8923366D01*
X20880855Y-8867433D01*
X20946319Y-8843016D01*
X20955165Y-8842700D01*
X24410234Y-8842700D01*
X24477273Y-8862385D01*
G37*
G04 #@! TD.AperFunction*
G04 #@! TA.AperFunction,Conductor*
G36*
X2544800Y-519685D02*
G01*
X2590555Y-572489D01*
X2600499Y-641647D01*
X2597537Y-656088D01*
X2565206Y-776751D01*
X2563793Y-782023D01*
X2563793Y-782024D01*
X2544723Y-999997D01*
X2544723Y-1000002D01*
X2563793Y-1217975D01*
X2563793Y-1217979D01*
X2620422Y-1429322D01*
X2620424Y-1429326D01*
X2620425Y-1429330D01*
X2660226Y-1514683D01*
X2712897Y-1627638D01*
X2712898Y-1627639D01*
X2838402Y-1806877D01*
X2993123Y-1961598D01*
X3172361Y-2087102D01*
X3370670Y-2179575D01*
X3582023Y-2236207D01*
X3764926Y-2252208D01*
X3799998Y-2255277D01*
X3800000Y-2255277D01*
X3800002Y-2255277D01*
X3828254Y-2252805D01*
X4017977Y-2236207D01*
X4229330Y-2179575D01*
X4427639Y-2087102D01*
X4606877Y-1961598D01*
X4761598Y-1806877D01*
X4887102Y-1627639D01*
X4979575Y-1429330D01*
X5036207Y-1217977D01*
X5055277Y-1000000D01*
X5036207Y-782023D01*
X5002464Y-656092D01*
X5004127Y-586244D01*
X5043289Y-528381D01*
X5107518Y-500877D01*
X5122239Y-500000D01*
X7477761Y-500000D01*
X7544800Y-519685D01*
X7590555Y-572489D01*
X7600499Y-641647D01*
X7597537Y-656088D01*
X7565206Y-776751D01*
X7563793Y-782023D01*
X7563793Y-782024D01*
X7544723Y-999997D01*
X7544723Y-1000002D01*
X7563793Y-1217975D01*
X7563793Y-1217979D01*
X7620422Y-1429322D01*
X7620424Y-1429326D01*
X7620425Y-1429330D01*
X7660226Y-1514683D01*
X7712897Y-1627638D01*
X7712898Y-1627639D01*
X7838402Y-1806877D01*
X7993123Y-1961598D01*
X8172361Y-2087102D01*
X8370670Y-2179575D01*
X8582023Y-2236207D01*
X8764926Y-2252208D01*
X8799998Y-2255277D01*
X8800000Y-2255277D01*
X8800002Y-2255277D01*
X8828254Y-2252805D01*
X9017977Y-2236207D01*
X9229330Y-2179575D01*
X9427639Y-2087102D01*
X9606877Y-1961598D01*
X9761598Y-1806877D01*
X9887102Y-1627639D01*
X9979575Y-1429330D01*
X10036207Y-1217977D01*
X10055277Y-1000000D01*
X10036207Y-782023D01*
X10002464Y-656092D01*
X10004127Y-586244D01*
X10043289Y-528381D01*
X10107518Y-500877D01*
X10122239Y-500000D01*
X18441340Y-500000D01*
X18508379Y-519685D01*
X18554134Y-572489D01*
X18564078Y-641647D01*
X18557282Y-667971D01*
X18500163Y-818581D01*
X18481122Y-975399D01*
X18481122Y-975400D01*
X18500162Y-1132218D01*
X18543685Y-1246976D01*
X18556180Y-1279923D01*
X18645917Y-1409930D01*
X18764160Y-1514683D01*
X18764162Y-1514684D01*
X18904034Y-1588096D01*
X19057414Y-1625900D01*
X19057415Y-1625900D01*
X19215385Y-1625900D01*
X19368765Y-1588096D01*
X19369251Y-1587841D01*
X19508640Y-1514683D01*
X19573656Y-1457083D01*
X19636890Y-1427363D01*
X19655883Y-1425900D01*
X20549434Y-1425900D01*
X20616473Y-1445585D01*
X20637115Y-1462219D01*
X35962181Y-16787284D01*
X35995666Y-16848607D01*
X35998500Y-16874965D01*
X35998500Y-17282034D01*
X35978815Y-17349073D01*
X35926011Y-17394828D01*
X35856853Y-17404772D01*
X35793297Y-17375747D01*
X35786819Y-17369715D01*
X23158308Y-4741205D01*
X23153671Y-4736017D01*
X23152760Y-4734875D01*
X23129279Y-4705430D01*
X23105578Y-4689271D01*
X23080128Y-4671919D01*
X23032282Y-4636607D01*
X23024697Y-4632598D01*
X23017077Y-4628929D01*
X22991011Y-4620889D01*
X22960222Y-4611392D01*
X22939554Y-4604160D01*
X22904095Y-4591752D01*
X22895726Y-4590168D01*
X22887304Y-4588900D01*
X22887302Y-4588900D01*
X22827826Y-4588900D01*
X22768390Y-4586675D01*
X22759156Y-4587716D01*
X22759062Y-4586886D01*
X22743764Y-4588900D01*
X19681283Y-4588900D01*
X19614244Y-4569215D01*
X19599056Y-4557716D01*
X19539338Y-4504811D01*
X19534040Y-4500117D01*
X19534038Y-4500116D01*
X19534037Y-4500115D01*
X19394165Y-4426703D01*
X19240786Y-4388900D01*
X19240785Y-4388900D01*
X19082815Y-4388900D01*
X19082814Y-4388900D01*
X18929434Y-4426703D01*
X18789562Y-4500115D01*
X18671316Y-4604871D01*
X18581581Y-4734875D01*
X18581580Y-4734876D01*
X18525562Y-4882581D01*
X18506522Y-5039399D01*
X18506522Y-5039400D01*
X18525562Y-5196218D01*
X18579936Y-5339589D01*
X18581580Y-5343923D01*
X18671317Y-5473930D01*
X18789560Y-5578683D01*
X18789562Y-5578684D01*
X18929434Y-5652096D01*
X19082814Y-5689900D01*
X19082815Y-5689900D01*
X19240785Y-5689900D01*
X19394165Y-5652096D01*
X19398774Y-5649677D01*
X19534040Y-5578683D01*
X19599056Y-5521083D01*
X19662290Y-5491363D01*
X19681283Y-5489900D01*
X22581434Y-5489900D01*
X22648473Y-5509585D01*
X22669115Y-5526219D01*
X24894134Y-7751238D01*
X24927619Y-7812561D01*
X24922635Y-7882253D01*
X24880763Y-7938186D01*
X24815299Y-7962603D01*
X24765499Y-7955961D01*
X24732895Y-7944552D01*
X24724526Y-7942968D01*
X24716104Y-7941700D01*
X24716102Y-7941700D01*
X24656626Y-7941700D01*
X24597190Y-7939475D01*
X24587956Y-7940516D01*
X24587862Y-7939686D01*
X24572564Y-7941700D01*
X5264283Y-7941700D01*
X5197244Y-7922015D01*
X5182056Y-7910516D01*
X5163132Y-7893751D01*
X5117040Y-7852917D01*
X5117038Y-7852916D01*
X5117037Y-7852915D01*
X4977165Y-7779503D01*
X4823786Y-7741700D01*
X4823785Y-7741700D01*
X4665815Y-7741700D01*
X4665814Y-7741700D01*
X4512434Y-7779503D01*
X4372562Y-7852915D01*
X4254316Y-7957671D01*
X4164581Y-8087675D01*
X4164580Y-8087676D01*
X4108562Y-8235381D01*
X4089522Y-8392199D01*
X4089522Y-8392200D01*
X4108562Y-8549018D01*
X4164580Y-8696722D01*
X4164580Y-8696723D01*
X4254317Y-8826730D01*
X4372560Y-8931483D01*
X4372562Y-8931484D01*
X4512434Y-9004896D01*
X4665814Y-9042700D01*
X4665815Y-9042700D01*
X4823785Y-9042700D01*
X4977165Y-9004896D01*
X5028692Y-8977852D01*
X5117040Y-8931483D01*
X5182056Y-8873883D01*
X5245290Y-8844163D01*
X5264283Y-8842700D01*
X18316113Y-8842700D01*
X18383152Y-8862385D01*
X18428907Y-8915189D01*
X18438851Y-8984347D01*
X18432055Y-9010671D01*
X18398562Y-9098981D01*
X18379522Y-9255799D01*
X18379522Y-9255800D01*
X18398562Y-9412618D01*
X18431399Y-9499200D01*
X18454580Y-9560323D01*
X18544317Y-9690330D01*
X18662560Y-9795083D01*
X18662562Y-9795084D01*
X18802434Y-9868496D01*
X18955814Y-9906300D01*
X18955815Y-9906300D01*
X19113785Y-9906300D01*
X19267165Y-9868496D01*
X19297261Y-9852700D01*
X19407040Y-9795083D01*
X19472056Y-9737483D01*
X19535290Y-9707763D01*
X19554283Y-9706300D01*
X20193834Y-9706300D01*
X20260873Y-9725985D01*
X20281515Y-9742619D01*
X25005181Y-14466285D01*
X25038666Y-14527608D01*
X25041500Y-14553966D01*
X25041500Y-15675500D01*
X25021815Y-15742539D01*
X24969011Y-15788294D01*
X24917500Y-15799500D01*
X24813014Y-15799500D01*
X24659634Y-15837303D01*
X24519762Y-15910715D01*
X24401516Y-16015471D01*
X24311781Y-16145475D01*
X24311780Y-16145476D01*
X24255763Y-16293180D01*
X24239367Y-16428209D01*
X24211745Y-16492387D01*
X24203952Y-16500943D01*
X23831804Y-16873092D01*
X23826617Y-16877727D01*
X23796033Y-16902117D01*
X23796029Y-16902121D01*
X23762519Y-16951271D01*
X23727206Y-16999118D01*
X23723216Y-17006667D01*
X23719528Y-17014326D01*
X23701992Y-17071177D01*
X23682353Y-17127301D01*
X23680771Y-17135659D01*
X23679500Y-17144100D01*
X23679500Y-17203575D01*
X23678699Y-17224961D01*
X23656520Y-17291217D01*
X23602041Y-17334964D01*
X23532558Y-17342313D01*
X23470133Y-17310930D01*
X23467105Y-17308002D01*
X19519647Y-13360544D01*
X19486162Y-13299221D01*
X19484232Y-13287809D01*
X19467837Y-13152782D01*
X19411820Y-13005077D01*
X19322083Y-12875070D01*
X19203840Y-12770317D01*
X19203838Y-12770316D01*
X19203837Y-12770315D01*
X19063965Y-12696903D01*
X18910586Y-12659100D01*
X18910585Y-12659100D01*
X18752615Y-12659100D01*
X18752614Y-12659100D01*
X18599234Y-12696903D01*
X18459362Y-12770315D01*
X18341116Y-12875071D01*
X18251381Y-13005075D01*
X18251380Y-13005076D01*
X18195362Y-13152781D01*
X18176322Y-13309599D01*
X18176322Y-13309600D01*
X18195362Y-13466418D01*
X18232746Y-13564989D01*
X18251380Y-13614123D01*
X18341117Y-13744130D01*
X18459360Y-13848883D01*
X18459362Y-13848884D01*
X18599234Y-13922296D01*
X18752614Y-13960100D01*
X18752615Y-13960100D01*
X18793634Y-13960100D01*
X18860673Y-13979785D01*
X18881315Y-13996419D01*
X23135181Y-18250284D01*
X23168666Y-18311607D01*
X23171500Y-18337965D01*
X23171500Y-27315034D01*
X23151815Y-27382073D01*
X23099011Y-27427828D01*
X23029853Y-27437772D01*
X22966297Y-27408747D01*
X22959819Y-27402715D01*
X20288108Y-24731005D01*
X20283471Y-24725817D01*
X20282560Y-24724675D01*
X20259079Y-24695230D01*
X20240617Y-24682643D01*
X20209928Y-24661719D01*
X20162082Y-24626407D01*
X20154497Y-24622398D01*
X20146877Y-24618729D01*
X20112456Y-24608112D01*
X20090022Y-24601192D01*
X20069354Y-24593960D01*
X20033895Y-24581552D01*
X20025526Y-24579968D01*
X20017104Y-24578700D01*
X20017102Y-24578700D01*
X19957626Y-24578700D01*
X19898190Y-24576475D01*
X19888956Y-24577516D01*
X19888862Y-24576686D01*
X19873564Y-24578700D01*
X16226883Y-24578700D01*
X16159844Y-24559015D01*
X16144656Y-24547516D01*
X16130430Y-24534913D01*
X16079640Y-24489917D01*
X16079638Y-24489916D01*
X16079637Y-24489915D01*
X15939765Y-24416503D01*
X15786386Y-24378700D01*
X15786385Y-24378700D01*
X15628415Y-24378700D01*
X15628414Y-24378700D01*
X15475034Y-24416503D01*
X15335162Y-24489915D01*
X15216916Y-24594671D01*
X15127181Y-24724675D01*
X15127180Y-24724676D01*
X15071162Y-24872381D01*
X15052122Y-25029199D01*
X15052122Y-25029200D01*
X15071162Y-25186018D01*
X15107434Y-25281658D01*
X15127180Y-25333723D01*
X15216917Y-25463730D01*
X15335160Y-25568483D01*
X15335162Y-25568484D01*
X15475034Y-25641896D01*
X15628414Y-25679700D01*
X15628415Y-25679700D01*
X15786385Y-25679700D01*
X15939765Y-25641896D01*
X15969099Y-25626500D01*
X16079640Y-25568483D01*
X16144656Y-25510883D01*
X16207890Y-25481163D01*
X16226883Y-25479700D01*
X19711234Y-25479700D01*
X19778273Y-25499385D01*
X19798915Y-25516019D01*
X20218128Y-25935232D01*
X20251613Y-25996555D01*
X20246629Y-26066247D01*
X20204757Y-26122180D01*
X20139293Y-26146597D01*
X20119640Y-26146441D01*
X20100002Y-26144723D01*
X20099998Y-26144723D01*
X19954681Y-26157436D01*
X19882023Y-26163793D01*
X19882020Y-26163793D01*
X19670677Y-26220422D01*
X19670668Y-26220426D01*
X19472361Y-26312898D01*
X19472357Y-26312900D01*
X19293121Y-26438402D01*
X19138402Y-26593121D01*
X19012900Y-26772357D01*
X19012898Y-26772361D01*
X18952426Y-26902043D01*
X18920606Y-26970283D01*
X18920426Y-26970668D01*
X18920422Y-26970677D01*
X18863793Y-27182020D01*
X18863793Y-27182024D01*
X18844723Y-27399997D01*
X18844723Y-27400002D01*
X18852839Y-27492766D01*
X18861154Y-27587817D01*
X18863793Y-27617975D01*
X18863793Y-27617979D01*
X18920422Y-27829322D01*
X18920424Y-27829326D01*
X18920425Y-27829330D01*
X19000823Y-28001744D01*
X19012898Y-28027639D01*
X19012902Y-28027645D01*
X19066980Y-28104876D01*
X19089308Y-28171082D01*
X19072298Y-28238849D01*
X19021351Y-28286663D01*
X18965406Y-28300000D01*
X12851362Y-28300000D01*
X12784323Y-28280315D01*
X12763681Y-28263681D01*
X11836319Y-27336319D01*
X11802834Y-27274996D01*
X11800000Y-27248638D01*
X11800000Y-22400002D01*
X18844723Y-22400002D01*
X18849644Y-22456254D01*
X18858500Y-22557481D01*
X18863793Y-22617975D01*
X18863793Y-22617979D01*
X18920422Y-22829322D01*
X18920424Y-22829326D01*
X18920425Y-22829330D01*
X18945244Y-22882554D01*
X19012897Y-23027638D01*
X19037998Y-23063486D01*
X19138402Y-23206877D01*
X19293123Y-23361598D01*
X19472361Y-23487102D01*
X19670670Y-23579575D01*
X19670676Y-23579576D01*
X19670677Y-23579577D01*
X19700433Y-23587550D01*
X19882023Y-23636207D01*
X20064926Y-23652208D01*
X20099998Y-23655277D01*
X20100000Y-23655277D01*
X20100002Y-23655277D01*
X20128254Y-23652805D01*
X20317977Y-23636207D01*
X20529330Y-23579575D01*
X20727639Y-23487102D01*
X20906877Y-23361598D01*
X21061598Y-23206877D01*
X21187102Y-23027639D01*
X21279575Y-22829330D01*
X21336207Y-22617977D01*
X21355277Y-22400000D01*
X21355276Y-22399994D01*
X21347913Y-22315827D01*
X21336207Y-22182023D01*
X21282189Y-21980425D01*
X21279577Y-21970677D01*
X21279576Y-21970676D01*
X21279575Y-21970670D01*
X21187102Y-21772362D01*
X21187100Y-21772359D01*
X21187099Y-21772357D01*
X21061599Y-21593124D01*
X20988310Y-21519835D01*
X20906877Y-21438402D01*
X20727639Y-21312898D01*
X20727640Y-21312898D01*
X20727638Y-21312897D01*
X20598143Y-21252513D01*
X20529330Y-21220425D01*
X20529326Y-21220424D01*
X20529322Y-21220422D01*
X20317977Y-21163793D01*
X20100002Y-21144723D01*
X20099998Y-21144723D01*
X19954682Y-21157436D01*
X19882023Y-21163793D01*
X19882020Y-21163793D01*
X19670677Y-21220422D01*
X19670668Y-21220426D01*
X19472361Y-21312898D01*
X19472357Y-21312900D01*
X19293121Y-21438402D01*
X19138402Y-21593121D01*
X19012900Y-21772357D01*
X19012898Y-21772361D01*
X18920426Y-21970668D01*
X18920422Y-21970677D01*
X18863793Y-22182020D01*
X18863793Y-22182024D01*
X18844723Y-22399997D01*
X18844723Y-22400002D01*
X11800000Y-22400002D01*
X11800000Y-17400002D01*
X13844723Y-17400002D01*
X13863793Y-17617975D01*
X13863793Y-17617979D01*
X13920422Y-17829322D01*
X13920424Y-17829326D01*
X13920425Y-17829330D01*
X13947951Y-17888360D01*
X14012897Y-18027638D01*
X14034107Y-18057929D01*
X14138402Y-18206877D01*
X14293123Y-18361598D01*
X14472361Y-18487102D01*
X14670670Y-18579575D01*
X14882023Y-18636207D01*
X15064926Y-18652208D01*
X15099998Y-18655277D01*
X15100000Y-18655277D01*
X15100002Y-18655277D01*
X15128254Y-18652805D01*
X15317977Y-18636207D01*
X15529330Y-18579575D01*
X15727639Y-18487102D01*
X15906877Y-18361598D01*
X16061598Y-18206877D01*
X16187102Y-18027639D01*
X16279575Y-17829330D01*
X16336207Y-17617977D01*
X16355277Y-17400002D01*
X18844723Y-17400002D01*
X18863793Y-17617975D01*
X18863793Y-17617979D01*
X18920422Y-17829322D01*
X18920424Y-17829326D01*
X18920425Y-17829330D01*
X18947951Y-17888360D01*
X19012897Y-18027638D01*
X19034107Y-18057929D01*
X19138402Y-18206877D01*
X19293123Y-18361598D01*
X19472361Y-18487102D01*
X19670670Y-18579575D01*
X19882023Y-18636207D01*
X20064926Y-18652208D01*
X20099998Y-18655277D01*
X20100000Y-18655277D01*
X20100002Y-18655277D01*
X20128254Y-18652805D01*
X20317977Y-18636207D01*
X20529330Y-18579575D01*
X20727639Y-18487102D01*
X20906877Y-18361598D01*
X21061598Y-18206877D01*
X21187102Y-18027639D01*
X21279575Y-17829330D01*
X21336207Y-17617977D01*
X21355277Y-17400000D01*
X21355276Y-17399994D01*
X21348627Y-17323991D01*
X21336207Y-17182023D01*
X21284293Y-16988279D01*
X21279577Y-16970677D01*
X21279576Y-16970676D01*
X21279575Y-16970670D01*
X21187102Y-16772362D01*
X21187100Y-16772359D01*
X21187099Y-16772357D01*
X21061599Y-16593124D01*
X20989189Y-16520714D01*
X20906877Y-16438402D01*
X20727639Y-16312898D01*
X20727640Y-16312898D01*
X20727638Y-16312897D01*
X20623364Y-16264274D01*
X20529330Y-16220425D01*
X20529326Y-16220424D01*
X20529322Y-16220422D01*
X20317977Y-16163793D01*
X20100002Y-16144723D01*
X20099998Y-16144723D01*
X19974060Y-16155741D01*
X19882023Y-16163793D01*
X19882020Y-16163793D01*
X19670677Y-16220422D01*
X19670668Y-16220426D01*
X19472361Y-16312898D01*
X19472357Y-16312900D01*
X19293121Y-16438402D01*
X19138402Y-16593121D01*
X19012900Y-16772357D01*
X19012898Y-16772361D01*
X18920426Y-16970668D01*
X18920422Y-16970677D01*
X18863793Y-17182020D01*
X18863793Y-17182023D01*
X18860134Y-17223845D01*
X18844723Y-17399997D01*
X18844723Y-17400002D01*
X16355277Y-17400002D01*
X16355277Y-17400000D01*
X16355276Y-17399994D01*
X16348627Y-17323991D01*
X16336207Y-17182023D01*
X16284293Y-16988279D01*
X16279577Y-16970677D01*
X16279576Y-16970676D01*
X16279575Y-16970670D01*
X16187102Y-16772362D01*
X16187100Y-16772359D01*
X16187099Y-16772357D01*
X16061599Y-16593124D01*
X15989189Y-16520714D01*
X15906877Y-16438402D01*
X15727639Y-16312898D01*
X15727640Y-16312898D01*
X15727638Y-16312897D01*
X15623364Y-16264274D01*
X15529330Y-16220425D01*
X15529326Y-16220424D01*
X15529322Y-16220422D01*
X15317977Y-16163793D01*
X15100002Y-16144723D01*
X15099998Y-16144723D01*
X14974060Y-16155741D01*
X14882023Y-16163793D01*
X14882020Y-16163793D01*
X14670677Y-16220422D01*
X14670668Y-16220426D01*
X14472361Y-16312898D01*
X14472357Y-16312900D01*
X14293121Y-16438402D01*
X14138402Y-16593121D01*
X14012900Y-16772357D01*
X14012898Y-16772361D01*
X13920426Y-16970668D01*
X13920422Y-16970677D01*
X13863793Y-17182020D01*
X13863793Y-17182023D01*
X13860134Y-17223845D01*
X13844723Y-17399997D01*
X13844723Y-17400002D01*
X11800000Y-17400002D01*
X11800000Y-11900000D01*
X9934594Y-11900000D01*
X9867555Y-11880315D01*
X9821800Y-11827511D01*
X9811856Y-11758353D01*
X9833020Y-11704876D01*
X9852860Y-11676541D01*
X9887102Y-11627639D01*
X9979575Y-11429330D01*
X10036207Y-11217977D01*
X10055277Y-11000000D01*
X10036207Y-10782023D01*
X9979575Y-10570670D01*
X9887102Y-10372362D01*
X9887100Y-10372359D01*
X9887099Y-10372357D01*
X9761599Y-10193124D01*
X9684790Y-10116315D01*
X9606877Y-10038402D01*
X9427639Y-9912898D01*
X9427640Y-9912898D01*
X9427638Y-9912897D01*
X9298544Y-9852700D01*
X9229330Y-9820425D01*
X9229326Y-9820424D01*
X9229322Y-9820422D01*
X9017977Y-9763793D01*
X8800002Y-9744723D01*
X8799998Y-9744723D01*
X8654681Y-9757436D01*
X8582023Y-9763793D01*
X8582020Y-9763793D01*
X8370677Y-9820422D01*
X8370668Y-9820426D01*
X8172361Y-9912898D01*
X8172357Y-9912900D01*
X7993121Y-10038402D01*
X7838402Y-10193121D01*
X7712900Y-10372357D01*
X7712898Y-10372361D01*
X7620426Y-10570668D01*
X7620422Y-10570677D01*
X7563793Y-10782020D01*
X7563793Y-10782024D01*
X7544723Y-10999997D01*
X7544723Y-11000002D01*
X7563793Y-11217975D01*
X7563793Y-11217979D01*
X7620422Y-11429322D01*
X7620424Y-11429326D01*
X7620425Y-11429330D01*
X7710180Y-11621811D01*
X7712898Y-11627639D01*
X7712902Y-11627645D01*
X7766980Y-11704876D01*
X7789308Y-11771082D01*
X7772298Y-11838849D01*
X7721351Y-11886663D01*
X7665406Y-11900000D01*
X1551362Y-11900000D01*
X1484323Y-11880315D01*
X1463681Y-11863681D01*
X536319Y-10936319D01*
X502834Y-10874996D01*
X500000Y-10848638D01*
X500000Y-6000000D01*
X7544723Y-6000000D01*
X7558638Y-6159059D01*
X7563793Y-6217975D01*
X7563793Y-6217979D01*
X7620422Y-6429322D01*
X7620424Y-6429326D01*
X7620425Y-6429330D01*
X7629126Y-6447989D01*
X7712897Y-6627638D01*
X7712898Y-6627639D01*
X7838402Y-6806877D01*
X7993123Y-6961598D01*
X8172361Y-7087102D01*
X8370670Y-7179575D01*
X8582023Y-7236207D01*
X8764926Y-7252208D01*
X8799998Y-7255277D01*
X8800000Y-7255277D01*
X8800002Y-7255277D01*
X8828254Y-7252805D01*
X9017977Y-7236207D01*
X9229330Y-7179575D01*
X9427639Y-7087102D01*
X9606877Y-6961598D01*
X9761598Y-6806877D01*
X9887102Y-6627639D01*
X9979575Y-6429330D01*
X10036207Y-6217977D01*
X10055277Y-6000000D01*
X10036207Y-5782023D01*
X9979575Y-5570670D01*
X9887102Y-5372362D01*
X9887100Y-5372359D01*
X9887099Y-5372357D01*
X9761599Y-5193124D01*
X9685475Y-5117000D01*
X9606877Y-5038402D01*
X9427639Y-4912898D01*
X9427640Y-4912898D01*
X9427638Y-4912897D01*
X9325567Y-4865301D01*
X9229330Y-4820425D01*
X9229326Y-4820424D01*
X9229322Y-4820422D01*
X9017977Y-4763793D01*
X8800002Y-4744723D01*
X8799998Y-4744723D01*
X8654681Y-4757436D01*
X8582023Y-4763793D01*
X8582020Y-4763793D01*
X8370677Y-4820422D01*
X8370668Y-4820426D01*
X8172361Y-4912898D01*
X8172357Y-4912900D01*
X7993121Y-5038402D01*
X7838402Y-5193121D01*
X7712900Y-5372357D01*
X7712898Y-5372361D01*
X7620426Y-5570668D01*
X7620422Y-5570677D01*
X7563793Y-5782020D01*
X7563793Y-5782023D01*
X7544723Y-6000000D01*
X500000Y-6000000D01*
X500000Y-624000D01*
X519685Y-556961D01*
X572489Y-511206D01*
X624000Y-500000D01*
X2477761Y-500000D01*
X2544800Y-519685D01*
G37*
G04 #@! TD.AperFunction*
G04 #@! TA.AperFunction,Conductor*
G36*
X67075901Y-22702588D02*
G01*
X67172075Y-22827925D01*
X67297412Y-22924099D01*
X67390779Y-22962772D01*
X66801199Y-23552351D01*
X66831650Y-23576050D01*
X67035698Y-23686476D01*
X67122465Y-23716263D01*
X67179481Y-23756649D01*
X67205612Y-23821448D01*
X67192561Y-23890088D01*
X67145330Y-23940274D01*
X67116565Y-23957287D01*
X67101560Y-23972292D01*
X67086770Y-23984924D01*
X67069601Y-23997398D01*
X67069599Y-23997400D01*
X67038628Y-24034836D01*
X67034696Y-24039157D01*
X66442673Y-24631181D01*
X66381350Y-24664666D01*
X66354992Y-24667500D01*
X66097082Y-24667500D01*
X66030043Y-24647815D01*
X65998706Y-24618986D01*
X65985052Y-24601192D01*
X65937882Y-24539718D01*
X65812441Y-24443464D01*
X65812440Y-24443463D01*
X65812438Y-24443462D01*
X65786119Y-24432561D01*
X65731715Y-24388721D01*
X65709650Y-24322427D01*
X65726929Y-24254727D01*
X65778066Y-24207116D01*
X65786119Y-24203439D01*
X65790846Y-24201480D01*
X65812441Y-24192536D01*
X65937882Y-24096282D01*
X66034136Y-23970841D01*
X66094644Y-23824762D01*
X66110100Y-23707361D01*
X66110099Y-23079978D01*
X66129783Y-23012940D01*
X66182587Y-22967185D01*
X66251746Y-22957241D01*
X66315302Y-22986266D01*
X66347655Y-23030169D01*
X66364516Y-23068609D01*
X66448811Y-23197633D01*
X67037226Y-22609219D01*
X67075901Y-22702588D01*
G37*
G04 #@! TD.AperFunction*
M02*
