G04 #@! TF.GenerationSoftware,KiCad,Pcbnew,7.0.6*
G04 #@! TF.CreationDate,2023-07-22T14:16:58+02:00*
G04 #@! TF.ProjectId,esp-switch,6573702d-7377-4697-9463-682e6b696361,rev?*
G04 #@! TF.SameCoordinates,Original*
G04 #@! TF.FileFunction,Legend,Top*
G04 #@! TF.FilePolarity,Positive*
%FSLAX46Y46*%
G04 Gerber Fmt 4.6, Leading zero omitted, Abs format (unit mm)*
G04 Created by KiCad (PCBNEW 7.0.6) date 2023-07-22 14:16:58*
%MOMM*%
%LPD*%
G01*
G04 APERTURE LIST*
G04 Aperture macros list*
%AMRoundRect*
0 Rectangle with rounded corners*
0 $1 Rounding radius*
0 $2 $3 $4 $5 $6 $7 $8 $9 X,Y pos of 4 corners*
0 Add a 4 corners polygon primitive as box body*
4,1,4,$2,$3,$4,$5,$6,$7,$8,$9,$2,$3,0*
0 Add four circle primitives for the rounded corners*
1,1,$1+$1,$2,$3*
1,1,$1+$1,$4,$5*
1,1,$1+$1,$6,$7*
1,1,$1+$1,$8,$9*
0 Add four rect primitives between the rounded corners*
20,1,$1+$1,$2,$3,$4,$5,0*
20,1,$1+$1,$4,$5,$6,$7,0*
20,1,$1+$1,$6,$7,$8,$9,0*
20,1,$1+$1,$8,$9,$2,$3,0*%
G04 Aperture macros list end*
%ADD10C,0.150000*%
%ADD11C,0.120000*%
%ADD12R,1.600000X1.600000*%
%ADD13C,1.600000*%
%ADD14O,1.600000X1.600000*%
%ADD15C,1.800000*%
%ADD16RoundRect,0.250000X-0.337500X-0.475000X0.337500X-0.475000X0.337500X0.475000X-0.337500X0.475000X0*%
%ADD17RoundRect,0.250000X-0.350000X-0.450000X0.350000X-0.450000X0.350000X0.450000X-0.350000X0.450000X0*%
%ADD18RoundRect,0.250000X-0.475000X0.337500X-0.475000X-0.337500X0.475000X-0.337500X0.475000X0.337500X0*%
%ADD19R,2.400000X2.400000*%
%ADD20O,2.400000X2.400000*%
%ADD21RoundRect,0.250000X0.337500X0.475000X-0.337500X0.475000X-0.337500X-0.475000X0.337500X-0.475000X0*%
%ADD22RoundRect,0.250000X0.537500X1.450000X-0.537500X1.450000X-0.537500X-1.450000X0.537500X-1.450000X0*%
%ADD23RoundRect,0.250000X0.450000X-0.350000X0.450000X0.350000X-0.450000X0.350000X-0.450000X-0.350000X0*%
%ADD24RoundRect,0.200000X-1.100000X1.050000X-1.100000X-1.050000X1.100000X-1.050000X1.100000X1.050000X0*%
%ADD25RoundRect,0.250000X-0.450000X0.350000X-0.450000X-0.350000X0.450000X-0.350000X0.450000X0.350000X0*%
%ADD26R,1.700000X1.700000*%
%ADD27O,1.700000X1.700000*%
%ADD28R,2.200000X2.200000*%
%ADD29O,2.200000X2.200000*%
%ADD30RoundRect,0.250000X0.350000X0.450000X-0.350000X0.450000X-0.350000X-0.450000X0.350000X-0.450000X0*%
%ADD31R,1.560000X0.650000*%
%ADD32R,2.500000X1.000000*%
%ADD33R,1.000000X1.800000*%
G04 APERTURE END LIST*
D10*
X75078333Y-18556180D02*
X75030714Y-18603800D01*
X75030714Y-18603800D02*
X74887857Y-18651419D01*
X74887857Y-18651419D02*
X74792619Y-18651419D01*
X74792619Y-18651419D02*
X74649762Y-18603800D01*
X74649762Y-18603800D02*
X74554524Y-18508561D01*
X74554524Y-18508561D02*
X74506905Y-18413323D01*
X74506905Y-18413323D02*
X74459286Y-18222847D01*
X74459286Y-18222847D02*
X74459286Y-18079990D01*
X74459286Y-18079990D02*
X74506905Y-17889514D01*
X74506905Y-17889514D02*
X74554524Y-17794276D01*
X74554524Y-17794276D02*
X74649762Y-17699038D01*
X74649762Y-17699038D02*
X74792619Y-17651419D01*
X74792619Y-17651419D02*
X74887857Y-17651419D01*
X74887857Y-17651419D02*
X75030714Y-17699038D01*
X75030714Y-17699038D02*
X75078333Y-17746657D01*
X75935476Y-17984752D02*
X75935476Y-18651419D01*
X75697381Y-17603800D02*
X75459286Y-18318085D01*
X75459286Y-18318085D02*
X76078333Y-18318085D01*
X60581342Y-12860219D02*
X60248009Y-12384028D01*
X60009914Y-12860219D02*
X60009914Y-11860219D01*
X60009914Y-11860219D02*
X60390866Y-11860219D01*
X60390866Y-11860219D02*
X60486104Y-11907838D01*
X60486104Y-11907838D02*
X60533723Y-11955457D01*
X60533723Y-11955457D02*
X60581342Y-12050695D01*
X60581342Y-12050695D02*
X60581342Y-12193552D01*
X60581342Y-12193552D02*
X60533723Y-12288790D01*
X60533723Y-12288790D02*
X60486104Y-12336409D01*
X60486104Y-12336409D02*
X60390866Y-12384028D01*
X60390866Y-12384028D02*
X60009914Y-12384028D01*
X60962295Y-11955457D02*
X61009914Y-11907838D01*
X61009914Y-11907838D02*
X61105152Y-11860219D01*
X61105152Y-11860219D02*
X61343247Y-11860219D01*
X61343247Y-11860219D02*
X61438485Y-11907838D01*
X61438485Y-11907838D02*
X61486104Y-11955457D01*
X61486104Y-11955457D02*
X61533723Y-12050695D01*
X61533723Y-12050695D02*
X61533723Y-12145933D01*
X61533723Y-12145933D02*
X61486104Y-12288790D01*
X61486104Y-12288790D02*
X60914676Y-12860219D01*
X60914676Y-12860219D02*
X61533723Y-12860219D01*
X62152771Y-11860219D02*
X62248009Y-11860219D01*
X62248009Y-11860219D02*
X62343247Y-11907838D01*
X62343247Y-11907838D02*
X62390866Y-11955457D01*
X62390866Y-11955457D02*
X62438485Y-12050695D01*
X62438485Y-12050695D02*
X62486104Y-12241171D01*
X62486104Y-12241171D02*
X62486104Y-12479266D01*
X62486104Y-12479266D02*
X62438485Y-12669742D01*
X62438485Y-12669742D02*
X62390866Y-12764980D01*
X62390866Y-12764980D02*
X62343247Y-12812600D01*
X62343247Y-12812600D02*
X62248009Y-12860219D01*
X62248009Y-12860219D02*
X62152771Y-12860219D01*
X62152771Y-12860219D02*
X62057533Y-12812600D01*
X62057533Y-12812600D02*
X62009914Y-12764980D01*
X62009914Y-12764980D02*
X61962295Y-12669742D01*
X61962295Y-12669742D02*
X61914676Y-12479266D01*
X61914676Y-12479266D02*
X61914676Y-12241171D01*
X61914676Y-12241171D02*
X61962295Y-12050695D01*
X61962295Y-12050695D02*
X62009914Y-11955457D01*
X62009914Y-11955457D02*
X62057533Y-11907838D01*
X62057533Y-11907838D02*
X62152771Y-11860219D01*
X81733333Y-4045180D02*
X81733333Y-3330895D01*
X81733333Y-3330895D02*
X81780952Y-3188038D01*
X81780952Y-3188038D02*
X81876190Y-3092800D01*
X81876190Y-3092800D02*
X82019047Y-3045180D01*
X82019047Y-3045180D02*
X82114285Y-3045180D01*
X81352380Y-4045180D02*
X80685714Y-4045180D01*
X80685714Y-4045180D02*
X81114285Y-3045180D01*
X33557142Y-12359580D02*
X33509523Y-12407200D01*
X33509523Y-12407200D02*
X33366666Y-12454819D01*
X33366666Y-12454819D02*
X33271428Y-12454819D01*
X33271428Y-12454819D02*
X33128571Y-12407200D01*
X33128571Y-12407200D02*
X33033333Y-12311961D01*
X33033333Y-12311961D02*
X32985714Y-12216723D01*
X32985714Y-12216723D02*
X32938095Y-12026247D01*
X32938095Y-12026247D02*
X32938095Y-11883390D01*
X32938095Y-11883390D02*
X32985714Y-11692914D01*
X32985714Y-11692914D02*
X33033333Y-11597676D01*
X33033333Y-11597676D02*
X33128571Y-11502438D01*
X33128571Y-11502438D02*
X33271428Y-11454819D01*
X33271428Y-11454819D02*
X33366666Y-11454819D01*
X33366666Y-11454819D02*
X33509523Y-11502438D01*
X33509523Y-11502438D02*
X33557142Y-11550057D01*
X34509523Y-12454819D02*
X33938095Y-12454819D01*
X34223809Y-12454819D02*
X34223809Y-11454819D01*
X34223809Y-11454819D02*
X34128571Y-11597676D01*
X34128571Y-11597676D02*
X34033333Y-11692914D01*
X34033333Y-11692914D02*
X33938095Y-11740533D01*
X35461904Y-12454819D02*
X34890476Y-12454819D01*
X35176190Y-12454819D02*
X35176190Y-11454819D01*
X35176190Y-11454819D02*
X35080952Y-11597676D01*
X35080952Y-11597676D02*
X34985714Y-11692914D01*
X34985714Y-11692914D02*
X34890476Y-11740533D01*
X54631333Y-31027580D02*
X54583714Y-31075200D01*
X54583714Y-31075200D02*
X54440857Y-31122819D01*
X54440857Y-31122819D02*
X54345619Y-31122819D01*
X54345619Y-31122819D02*
X54202762Y-31075200D01*
X54202762Y-31075200D02*
X54107524Y-30979961D01*
X54107524Y-30979961D02*
X54059905Y-30884723D01*
X54059905Y-30884723D02*
X54012286Y-30694247D01*
X54012286Y-30694247D02*
X54012286Y-30551390D01*
X54012286Y-30551390D02*
X54059905Y-30360914D01*
X54059905Y-30360914D02*
X54107524Y-30265676D01*
X54107524Y-30265676D02*
X54202762Y-30170438D01*
X54202762Y-30170438D02*
X54345619Y-30122819D01*
X54345619Y-30122819D02*
X54440857Y-30122819D01*
X54440857Y-30122819D02*
X54583714Y-30170438D01*
X54583714Y-30170438D02*
X54631333Y-30218057D01*
X55012286Y-30218057D02*
X55059905Y-30170438D01*
X55059905Y-30170438D02*
X55155143Y-30122819D01*
X55155143Y-30122819D02*
X55393238Y-30122819D01*
X55393238Y-30122819D02*
X55488476Y-30170438D01*
X55488476Y-30170438D02*
X55536095Y-30218057D01*
X55536095Y-30218057D02*
X55583714Y-30313295D01*
X55583714Y-30313295D02*
X55583714Y-30408533D01*
X55583714Y-30408533D02*
X55536095Y-30551390D01*
X55536095Y-30551390D02*
X54964667Y-31122819D01*
X54964667Y-31122819D02*
X55583714Y-31122819D01*
X44968295Y-13892219D02*
X44968295Y-14701742D01*
X44968295Y-14701742D02*
X45015914Y-14796980D01*
X45015914Y-14796980D02*
X45063533Y-14844600D01*
X45063533Y-14844600D02*
X45158771Y-14892219D01*
X45158771Y-14892219D02*
X45349247Y-14892219D01*
X45349247Y-14892219D02*
X45444485Y-14844600D01*
X45444485Y-14844600D02*
X45492104Y-14796980D01*
X45492104Y-14796980D02*
X45539723Y-14701742D01*
X45539723Y-14701742D02*
X45539723Y-13892219D01*
X46444485Y-14225552D02*
X46444485Y-14892219D01*
X46206390Y-13844600D02*
X45968295Y-14558885D01*
X45968295Y-14558885D02*
X46587342Y-14558885D01*
X33657142Y-2759580D02*
X33609523Y-2807200D01*
X33609523Y-2807200D02*
X33466666Y-2854819D01*
X33466666Y-2854819D02*
X33371428Y-2854819D01*
X33371428Y-2854819D02*
X33228571Y-2807200D01*
X33228571Y-2807200D02*
X33133333Y-2711961D01*
X33133333Y-2711961D02*
X33085714Y-2616723D01*
X33085714Y-2616723D02*
X33038095Y-2426247D01*
X33038095Y-2426247D02*
X33038095Y-2283390D01*
X33038095Y-2283390D02*
X33085714Y-2092914D01*
X33085714Y-2092914D02*
X33133333Y-1997676D01*
X33133333Y-1997676D02*
X33228571Y-1902438D01*
X33228571Y-1902438D02*
X33371428Y-1854819D01*
X33371428Y-1854819D02*
X33466666Y-1854819D01*
X33466666Y-1854819D02*
X33609523Y-1902438D01*
X33609523Y-1902438D02*
X33657142Y-1950057D01*
X34609523Y-2854819D02*
X34038095Y-2854819D01*
X34323809Y-2854819D02*
X34323809Y-1854819D01*
X34323809Y-1854819D02*
X34228571Y-1997676D01*
X34228571Y-1997676D02*
X34133333Y-2092914D01*
X34133333Y-2092914D02*
X34038095Y-2140533D01*
X35228571Y-1854819D02*
X35323809Y-1854819D01*
X35323809Y-1854819D02*
X35419047Y-1902438D01*
X35419047Y-1902438D02*
X35466666Y-1950057D01*
X35466666Y-1950057D02*
X35514285Y-2045295D01*
X35514285Y-2045295D02*
X35561904Y-2235771D01*
X35561904Y-2235771D02*
X35561904Y-2473866D01*
X35561904Y-2473866D02*
X35514285Y-2664342D01*
X35514285Y-2664342D02*
X35466666Y-2759580D01*
X35466666Y-2759580D02*
X35419047Y-2807200D01*
X35419047Y-2807200D02*
X35323809Y-2854819D01*
X35323809Y-2854819D02*
X35228571Y-2854819D01*
X35228571Y-2854819D02*
X35133333Y-2807200D01*
X35133333Y-2807200D02*
X35085714Y-2759580D01*
X35085714Y-2759580D02*
X35038095Y-2664342D01*
X35038095Y-2664342D02*
X34990476Y-2473866D01*
X34990476Y-2473866D02*
X34990476Y-2235771D01*
X34990476Y-2235771D02*
X35038095Y-2045295D01*
X35038095Y-2045295D02*
X35085714Y-1950057D01*
X35085714Y-1950057D02*
X35133333Y-1902438D01*
X35133333Y-1902438D02*
X35228571Y-1854819D01*
X33557142Y-5354819D02*
X33223809Y-4878628D01*
X32985714Y-5354819D02*
X32985714Y-4354819D01*
X32985714Y-4354819D02*
X33366666Y-4354819D01*
X33366666Y-4354819D02*
X33461904Y-4402438D01*
X33461904Y-4402438D02*
X33509523Y-4450057D01*
X33509523Y-4450057D02*
X33557142Y-4545295D01*
X33557142Y-4545295D02*
X33557142Y-4688152D01*
X33557142Y-4688152D02*
X33509523Y-4783390D01*
X33509523Y-4783390D02*
X33461904Y-4831009D01*
X33461904Y-4831009D02*
X33366666Y-4878628D01*
X33366666Y-4878628D02*
X32985714Y-4878628D01*
X34509523Y-5354819D02*
X33938095Y-5354819D01*
X34223809Y-5354819D02*
X34223809Y-4354819D01*
X34223809Y-4354819D02*
X34128571Y-4497676D01*
X34128571Y-4497676D02*
X34033333Y-4592914D01*
X34033333Y-4592914D02*
X33938095Y-4640533D01*
X35414285Y-4354819D02*
X34938095Y-4354819D01*
X34938095Y-4354819D02*
X34890476Y-4831009D01*
X34890476Y-4831009D02*
X34938095Y-4783390D01*
X34938095Y-4783390D02*
X35033333Y-4735771D01*
X35033333Y-4735771D02*
X35271428Y-4735771D01*
X35271428Y-4735771D02*
X35366666Y-4783390D01*
X35366666Y-4783390D02*
X35414285Y-4831009D01*
X35414285Y-4831009D02*
X35461904Y-4926247D01*
X35461904Y-4926247D02*
X35461904Y-5164342D01*
X35461904Y-5164342D02*
X35414285Y-5259580D01*
X35414285Y-5259580D02*
X35366666Y-5307200D01*
X35366666Y-5307200D02*
X35271428Y-5354819D01*
X35271428Y-5354819D02*
X35033333Y-5354819D01*
X35033333Y-5354819D02*
X34938095Y-5307200D01*
X34938095Y-5307200D02*
X34890476Y-5259580D01*
X51107142Y-31757819D02*
X50773809Y-31281628D01*
X50535714Y-31757819D02*
X50535714Y-30757819D01*
X50535714Y-30757819D02*
X50916666Y-30757819D01*
X50916666Y-30757819D02*
X51011904Y-30805438D01*
X51011904Y-30805438D02*
X51059523Y-30853057D01*
X51059523Y-30853057D02*
X51107142Y-30948295D01*
X51107142Y-30948295D02*
X51107142Y-31091152D01*
X51107142Y-31091152D02*
X51059523Y-31186390D01*
X51059523Y-31186390D02*
X51011904Y-31234009D01*
X51011904Y-31234009D02*
X50916666Y-31281628D01*
X50916666Y-31281628D02*
X50535714Y-31281628D01*
X52059523Y-31757819D02*
X51488095Y-31757819D01*
X51773809Y-31757819D02*
X51773809Y-30757819D01*
X51773809Y-30757819D02*
X51678571Y-30900676D01*
X51678571Y-30900676D02*
X51583333Y-30995914D01*
X51583333Y-30995914D02*
X51488095Y-31043533D01*
X52916666Y-31091152D02*
X52916666Y-31757819D01*
X52678571Y-30710200D02*
X52440476Y-31424485D01*
X52440476Y-31424485D02*
X53059523Y-31424485D01*
X49188580Y-46836666D02*
X49236200Y-46884285D01*
X49236200Y-46884285D02*
X49283819Y-47027142D01*
X49283819Y-47027142D02*
X49283819Y-47122380D01*
X49283819Y-47122380D02*
X49236200Y-47265237D01*
X49236200Y-47265237D02*
X49140961Y-47360475D01*
X49140961Y-47360475D02*
X49045723Y-47408094D01*
X49045723Y-47408094D02*
X48855247Y-47455713D01*
X48855247Y-47455713D02*
X48712390Y-47455713D01*
X48712390Y-47455713D02*
X48521914Y-47408094D01*
X48521914Y-47408094D02*
X48426676Y-47360475D01*
X48426676Y-47360475D02*
X48331438Y-47265237D01*
X48331438Y-47265237D02*
X48283819Y-47122380D01*
X48283819Y-47122380D02*
X48283819Y-47027142D01*
X48283819Y-47027142D02*
X48331438Y-46884285D01*
X48331438Y-46884285D02*
X48379057Y-46836666D01*
X49283819Y-46360475D02*
X49283819Y-46169999D01*
X49283819Y-46169999D02*
X49236200Y-46074761D01*
X49236200Y-46074761D02*
X49188580Y-46027142D01*
X49188580Y-46027142D02*
X49045723Y-45931904D01*
X49045723Y-45931904D02*
X48855247Y-45884285D01*
X48855247Y-45884285D02*
X48474295Y-45884285D01*
X48474295Y-45884285D02*
X48379057Y-45931904D01*
X48379057Y-45931904D02*
X48331438Y-45979523D01*
X48331438Y-45979523D02*
X48283819Y-46074761D01*
X48283819Y-46074761D02*
X48283819Y-46265237D01*
X48283819Y-46265237D02*
X48331438Y-46360475D01*
X48331438Y-46360475D02*
X48379057Y-46408094D01*
X48379057Y-46408094D02*
X48474295Y-46455713D01*
X48474295Y-46455713D02*
X48712390Y-46455713D01*
X48712390Y-46455713D02*
X48807628Y-46408094D01*
X48807628Y-46408094D02*
X48855247Y-46360475D01*
X48855247Y-46360475D02*
X48902866Y-46265237D01*
X48902866Y-46265237D02*
X48902866Y-46074761D01*
X48902866Y-46074761D02*
X48855247Y-45979523D01*
X48855247Y-45979523D02*
X48807628Y-45931904D01*
X48807628Y-45931904D02*
X48712390Y-45884285D01*
X70004761Y-5654819D02*
X69671428Y-5178628D01*
X69433333Y-5654819D02*
X69433333Y-4654819D01*
X69433333Y-4654819D02*
X69814285Y-4654819D01*
X69814285Y-4654819D02*
X69909523Y-4702438D01*
X69909523Y-4702438D02*
X69957142Y-4750057D01*
X69957142Y-4750057D02*
X70004761Y-4845295D01*
X70004761Y-4845295D02*
X70004761Y-4988152D01*
X70004761Y-4988152D02*
X69957142Y-5083390D01*
X69957142Y-5083390D02*
X69909523Y-5131009D01*
X69909523Y-5131009D02*
X69814285Y-5178628D01*
X69814285Y-5178628D02*
X69433333Y-5178628D01*
X70290476Y-4654819D02*
X70623809Y-5654819D01*
X70623809Y-5654819D02*
X70957142Y-4654819D01*
X71814285Y-5654819D02*
X71242857Y-5654819D01*
X71528571Y-5654819D02*
X71528571Y-4654819D01*
X71528571Y-4654819D02*
X71433333Y-4797676D01*
X71433333Y-4797676D02*
X71338095Y-4892914D01*
X71338095Y-4892914D02*
X71242857Y-4940533D01*
X48861905Y-14754819D02*
X48861905Y-13754819D01*
X48861905Y-13754819D02*
X49100000Y-13754819D01*
X49100000Y-13754819D02*
X49242857Y-13802438D01*
X49242857Y-13802438D02*
X49338095Y-13897676D01*
X49338095Y-13897676D02*
X49385714Y-13992914D01*
X49385714Y-13992914D02*
X49433333Y-14183390D01*
X49433333Y-14183390D02*
X49433333Y-14326247D01*
X49433333Y-14326247D02*
X49385714Y-14516723D01*
X49385714Y-14516723D02*
X49338095Y-14611961D01*
X49338095Y-14611961D02*
X49242857Y-14707200D01*
X49242857Y-14707200D02*
X49100000Y-14754819D01*
X49100000Y-14754819D02*
X48861905Y-14754819D01*
X49814286Y-13850057D02*
X49861905Y-13802438D01*
X49861905Y-13802438D02*
X49957143Y-13754819D01*
X49957143Y-13754819D02*
X50195238Y-13754819D01*
X50195238Y-13754819D02*
X50290476Y-13802438D01*
X50290476Y-13802438D02*
X50338095Y-13850057D01*
X50338095Y-13850057D02*
X50385714Y-13945295D01*
X50385714Y-13945295D02*
X50385714Y-14040533D01*
X50385714Y-14040533D02*
X50338095Y-14183390D01*
X50338095Y-14183390D02*
X49766667Y-14754819D01*
X49766667Y-14754819D02*
X50385714Y-14754819D01*
X54211304Y-11170094D02*
X54211304Y-10693904D01*
X54497019Y-11265332D02*
X53497019Y-10931999D01*
X53497019Y-10931999D02*
X54497019Y-10598666D01*
X46528733Y-20969180D02*
X46481114Y-21016800D01*
X46481114Y-21016800D02*
X46338257Y-21064419D01*
X46338257Y-21064419D02*
X46243019Y-21064419D01*
X46243019Y-21064419D02*
X46100162Y-21016800D01*
X46100162Y-21016800D02*
X46004924Y-20921561D01*
X46004924Y-20921561D02*
X45957305Y-20826323D01*
X45957305Y-20826323D02*
X45909686Y-20635847D01*
X45909686Y-20635847D02*
X45909686Y-20492990D01*
X45909686Y-20492990D02*
X45957305Y-20302514D01*
X45957305Y-20302514D02*
X46004924Y-20207276D01*
X46004924Y-20207276D02*
X46100162Y-20112038D01*
X46100162Y-20112038D02*
X46243019Y-20064419D01*
X46243019Y-20064419D02*
X46338257Y-20064419D01*
X46338257Y-20064419D02*
X46481114Y-20112038D01*
X46481114Y-20112038D02*
X46528733Y-20159657D01*
X47385876Y-20064419D02*
X47195400Y-20064419D01*
X47195400Y-20064419D02*
X47100162Y-20112038D01*
X47100162Y-20112038D02*
X47052543Y-20159657D01*
X47052543Y-20159657D02*
X46957305Y-20302514D01*
X46957305Y-20302514D02*
X46909686Y-20492990D01*
X46909686Y-20492990D02*
X46909686Y-20873942D01*
X46909686Y-20873942D02*
X46957305Y-20969180D01*
X46957305Y-20969180D02*
X47004924Y-21016800D01*
X47004924Y-21016800D02*
X47100162Y-21064419D01*
X47100162Y-21064419D02*
X47290638Y-21064419D01*
X47290638Y-21064419D02*
X47385876Y-21016800D01*
X47385876Y-21016800D02*
X47433495Y-20969180D01*
X47433495Y-20969180D02*
X47481114Y-20873942D01*
X47481114Y-20873942D02*
X47481114Y-20635847D01*
X47481114Y-20635847D02*
X47433495Y-20540609D01*
X47433495Y-20540609D02*
X47385876Y-20492990D01*
X47385876Y-20492990D02*
X47290638Y-20445371D01*
X47290638Y-20445371D02*
X47100162Y-20445371D01*
X47100162Y-20445371D02*
X47004924Y-20492990D01*
X47004924Y-20492990D02*
X46957305Y-20540609D01*
X46957305Y-20540609D02*
X46909686Y-20635847D01*
X57828480Y-31520466D02*
X57876100Y-31568085D01*
X57876100Y-31568085D02*
X57923719Y-31710942D01*
X57923719Y-31710942D02*
X57923719Y-31806180D01*
X57923719Y-31806180D02*
X57876100Y-31949037D01*
X57876100Y-31949037D02*
X57780861Y-32044275D01*
X57780861Y-32044275D02*
X57685623Y-32091894D01*
X57685623Y-32091894D02*
X57495147Y-32139513D01*
X57495147Y-32139513D02*
X57352290Y-32139513D01*
X57352290Y-32139513D02*
X57161814Y-32091894D01*
X57161814Y-32091894D02*
X57066576Y-32044275D01*
X57066576Y-32044275D02*
X56971338Y-31949037D01*
X56971338Y-31949037D02*
X56923719Y-31806180D01*
X56923719Y-31806180D02*
X56923719Y-31710942D01*
X56923719Y-31710942D02*
X56971338Y-31568085D01*
X56971338Y-31568085D02*
X57018957Y-31520466D01*
X57352290Y-30949037D02*
X57304671Y-31044275D01*
X57304671Y-31044275D02*
X57257052Y-31091894D01*
X57257052Y-31091894D02*
X57161814Y-31139513D01*
X57161814Y-31139513D02*
X57114195Y-31139513D01*
X57114195Y-31139513D02*
X57018957Y-31091894D01*
X57018957Y-31091894D02*
X56971338Y-31044275D01*
X56971338Y-31044275D02*
X56923719Y-30949037D01*
X56923719Y-30949037D02*
X56923719Y-30758561D01*
X56923719Y-30758561D02*
X56971338Y-30663323D01*
X56971338Y-30663323D02*
X57018957Y-30615704D01*
X57018957Y-30615704D02*
X57114195Y-30568085D01*
X57114195Y-30568085D02*
X57161814Y-30568085D01*
X57161814Y-30568085D02*
X57257052Y-30615704D01*
X57257052Y-30615704D02*
X57304671Y-30663323D01*
X57304671Y-30663323D02*
X57352290Y-30758561D01*
X57352290Y-30758561D02*
X57352290Y-30949037D01*
X57352290Y-30949037D02*
X57399909Y-31044275D01*
X57399909Y-31044275D02*
X57447528Y-31091894D01*
X57447528Y-31091894D02*
X57542766Y-31139513D01*
X57542766Y-31139513D02*
X57733242Y-31139513D01*
X57733242Y-31139513D02*
X57828480Y-31091894D01*
X57828480Y-31091894D02*
X57876100Y-31044275D01*
X57876100Y-31044275D02*
X57923719Y-30949037D01*
X57923719Y-30949037D02*
X57923719Y-30758561D01*
X57923719Y-30758561D02*
X57876100Y-30663323D01*
X57876100Y-30663323D02*
X57828480Y-30615704D01*
X57828480Y-30615704D02*
X57733242Y-30568085D01*
X57733242Y-30568085D02*
X57542766Y-30568085D01*
X57542766Y-30568085D02*
X57447528Y-30615704D01*
X57447528Y-30615704D02*
X57399909Y-30663323D01*
X57399909Y-30663323D02*
X57352290Y-30758561D01*
X51107142Y-33916819D02*
X50773809Y-33440628D01*
X50535714Y-33916819D02*
X50535714Y-32916819D01*
X50535714Y-32916819D02*
X50916666Y-32916819D01*
X50916666Y-32916819D02*
X51011904Y-32964438D01*
X51011904Y-32964438D02*
X51059523Y-33012057D01*
X51059523Y-33012057D02*
X51107142Y-33107295D01*
X51107142Y-33107295D02*
X51107142Y-33250152D01*
X51107142Y-33250152D02*
X51059523Y-33345390D01*
X51059523Y-33345390D02*
X51011904Y-33393009D01*
X51011904Y-33393009D02*
X50916666Y-33440628D01*
X50916666Y-33440628D02*
X50535714Y-33440628D01*
X51488095Y-33012057D02*
X51535714Y-32964438D01*
X51535714Y-32964438D02*
X51630952Y-32916819D01*
X51630952Y-32916819D02*
X51869047Y-32916819D01*
X51869047Y-32916819D02*
X51964285Y-32964438D01*
X51964285Y-32964438D02*
X52011904Y-33012057D01*
X52011904Y-33012057D02*
X52059523Y-33107295D01*
X52059523Y-33107295D02*
X52059523Y-33202533D01*
X52059523Y-33202533D02*
X52011904Y-33345390D01*
X52011904Y-33345390D02*
X51440476Y-33916819D01*
X51440476Y-33916819D02*
X52059523Y-33916819D01*
X52392857Y-32916819D02*
X53011904Y-32916819D01*
X53011904Y-32916819D02*
X52678571Y-33297771D01*
X52678571Y-33297771D02*
X52821428Y-33297771D01*
X52821428Y-33297771D02*
X52916666Y-33345390D01*
X52916666Y-33345390D02*
X52964285Y-33393009D01*
X52964285Y-33393009D02*
X53011904Y-33488247D01*
X53011904Y-33488247D02*
X53011904Y-33726342D01*
X53011904Y-33726342D02*
X52964285Y-33821580D01*
X52964285Y-33821580D02*
X52916666Y-33869200D01*
X52916666Y-33869200D02*
X52821428Y-33916819D01*
X52821428Y-33916819D02*
X52535714Y-33916819D01*
X52535714Y-33916819D02*
X52440476Y-33869200D01*
X52440476Y-33869200D02*
X52392857Y-33821580D01*
X60581342Y-5875219D02*
X60248009Y-5399028D01*
X60009914Y-5875219D02*
X60009914Y-4875219D01*
X60009914Y-4875219D02*
X60390866Y-4875219D01*
X60390866Y-4875219D02*
X60486104Y-4922838D01*
X60486104Y-4922838D02*
X60533723Y-4970457D01*
X60533723Y-4970457D02*
X60581342Y-5065695D01*
X60581342Y-5065695D02*
X60581342Y-5208552D01*
X60581342Y-5208552D02*
X60533723Y-5303790D01*
X60533723Y-5303790D02*
X60486104Y-5351409D01*
X60486104Y-5351409D02*
X60390866Y-5399028D01*
X60390866Y-5399028D02*
X60009914Y-5399028D01*
X61533723Y-5875219D02*
X60962295Y-5875219D01*
X61248009Y-5875219D02*
X61248009Y-4875219D01*
X61248009Y-4875219D02*
X61152771Y-5018076D01*
X61152771Y-5018076D02*
X61057533Y-5113314D01*
X61057533Y-5113314D02*
X60962295Y-5160933D01*
X62105152Y-5303790D02*
X62009914Y-5256171D01*
X62009914Y-5256171D02*
X61962295Y-5208552D01*
X61962295Y-5208552D02*
X61914676Y-5113314D01*
X61914676Y-5113314D02*
X61914676Y-5065695D01*
X61914676Y-5065695D02*
X61962295Y-4970457D01*
X61962295Y-4970457D02*
X62009914Y-4922838D01*
X62009914Y-4922838D02*
X62105152Y-4875219D01*
X62105152Y-4875219D02*
X62295628Y-4875219D01*
X62295628Y-4875219D02*
X62390866Y-4922838D01*
X62390866Y-4922838D02*
X62438485Y-4970457D01*
X62438485Y-4970457D02*
X62486104Y-5065695D01*
X62486104Y-5065695D02*
X62486104Y-5113314D01*
X62486104Y-5113314D02*
X62438485Y-5208552D01*
X62438485Y-5208552D02*
X62390866Y-5256171D01*
X62390866Y-5256171D02*
X62295628Y-5303790D01*
X62295628Y-5303790D02*
X62105152Y-5303790D01*
X62105152Y-5303790D02*
X62009914Y-5351409D01*
X62009914Y-5351409D02*
X61962295Y-5399028D01*
X61962295Y-5399028D02*
X61914676Y-5494266D01*
X61914676Y-5494266D02*
X61914676Y-5684742D01*
X61914676Y-5684742D02*
X61962295Y-5779980D01*
X61962295Y-5779980D02*
X62009914Y-5827600D01*
X62009914Y-5827600D02*
X62105152Y-5875219D01*
X62105152Y-5875219D02*
X62295628Y-5875219D01*
X62295628Y-5875219D02*
X62390866Y-5827600D01*
X62390866Y-5827600D02*
X62438485Y-5779980D01*
X62438485Y-5779980D02*
X62486104Y-5684742D01*
X62486104Y-5684742D02*
X62486104Y-5494266D01*
X62486104Y-5494266D02*
X62438485Y-5399028D01*
X62438485Y-5399028D02*
X62390866Y-5351409D01*
X62390866Y-5351409D02*
X62295628Y-5303790D01*
X67165419Y-20471466D02*
X66689228Y-20804799D01*
X67165419Y-21042894D02*
X66165419Y-21042894D01*
X66165419Y-21042894D02*
X66165419Y-20661942D01*
X66165419Y-20661942D02*
X66213038Y-20566704D01*
X66213038Y-20566704D02*
X66260657Y-20519085D01*
X66260657Y-20519085D02*
X66355895Y-20471466D01*
X66355895Y-20471466D02*
X66498752Y-20471466D01*
X66498752Y-20471466D02*
X66593990Y-20519085D01*
X66593990Y-20519085D02*
X66641609Y-20566704D01*
X66641609Y-20566704D02*
X66689228Y-20661942D01*
X66689228Y-20661942D02*
X66689228Y-21042894D01*
X66260657Y-20090513D02*
X66213038Y-20042894D01*
X66213038Y-20042894D02*
X66165419Y-19947656D01*
X66165419Y-19947656D02*
X66165419Y-19709561D01*
X66165419Y-19709561D02*
X66213038Y-19614323D01*
X66213038Y-19614323D02*
X66260657Y-19566704D01*
X66260657Y-19566704D02*
X66355895Y-19519085D01*
X66355895Y-19519085D02*
X66451133Y-19519085D01*
X66451133Y-19519085D02*
X66593990Y-19566704D01*
X66593990Y-19566704D02*
X67165419Y-20138132D01*
X67165419Y-20138132D02*
X67165419Y-19519085D01*
X60581342Y-9609019D02*
X60248009Y-9132828D01*
X60009914Y-9609019D02*
X60009914Y-8609019D01*
X60009914Y-8609019D02*
X60390866Y-8609019D01*
X60390866Y-8609019D02*
X60486104Y-8656638D01*
X60486104Y-8656638D02*
X60533723Y-8704257D01*
X60533723Y-8704257D02*
X60581342Y-8799495D01*
X60581342Y-8799495D02*
X60581342Y-8942352D01*
X60581342Y-8942352D02*
X60533723Y-9037590D01*
X60533723Y-9037590D02*
X60486104Y-9085209D01*
X60486104Y-9085209D02*
X60390866Y-9132828D01*
X60390866Y-9132828D02*
X60009914Y-9132828D01*
X60962295Y-8704257D02*
X61009914Y-8656638D01*
X61009914Y-8656638D02*
X61105152Y-8609019D01*
X61105152Y-8609019D02*
X61343247Y-8609019D01*
X61343247Y-8609019D02*
X61438485Y-8656638D01*
X61438485Y-8656638D02*
X61486104Y-8704257D01*
X61486104Y-8704257D02*
X61533723Y-8799495D01*
X61533723Y-8799495D02*
X61533723Y-8894733D01*
X61533723Y-8894733D02*
X61486104Y-9037590D01*
X61486104Y-9037590D02*
X60914676Y-9609019D01*
X60914676Y-9609019D02*
X61533723Y-9609019D01*
X62486104Y-9609019D02*
X61914676Y-9609019D01*
X62200390Y-9609019D02*
X62200390Y-8609019D01*
X62200390Y-8609019D02*
X62105152Y-8751876D01*
X62105152Y-8751876D02*
X62009914Y-8847114D01*
X62009914Y-8847114D02*
X61914676Y-8894733D01*
X63648333Y-27192180D02*
X63600714Y-27239800D01*
X63600714Y-27239800D02*
X63457857Y-27287419D01*
X63457857Y-27287419D02*
X63362619Y-27287419D01*
X63362619Y-27287419D02*
X63219762Y-27239800D01*
X63219762Y-27239800D02*
X63124524Y-27144561D01*
X63124524Y-27144561D02*
X63076905Y-27049323D01*
X63076905Y-27049323D02*
X63029286Y-26858847D01*
X63029286Y-26858847D02*
X63029286Y-26715990D01*
X63029286Y-26715990D02*
X63076905Y-26525514D01*
X63076905Y-26525514D02*
X63124524Y-26430276D01*
X63124524Y-26430276D02*
X63219762Y-26335038D01*
X63219762Y-26335038D02*
X63362619Y-26287419D01*
X63362619Y-26287419D02*
X63457857Y-26287419D01*
X63457857Y-26287419D02*
X63600714Y-26335038D01*
X63600714Y-26335038D02*
X63648333Y-26382657D01*
X63981667Y-26287419D02*
X64648333Y-26287419D01*
X64648333Y-26287419D02*
X64219762Y-27287419D01*
X54284380Y-26437333D02*
X54284380Y-25961143D01*
X54284380Y-25961143D02*
X55284380Y-25961143D01*
X54284380Y-27294476D02*
X54284380Y-26723048D01*
X54284380Y-27008762D02*
X55284380Y-27008762D01*
X55284380Y-27008762D02*
X55141523Y-26913524D01*
X55141523Y-26913524D02*
X55046285Y-26818286D01*
X55046285Y-26818286D02*
X54998666Y-26723048D01*
X51107142Y-36202819D02*
X50773809Y-35726628D01*
X50535714Y-36202819D02*
X50535714Y-35202819D01*
X50535714Y-35202819D02*
X50916666Y-35202819D01*
X50916666Y-35202819D02*
X51011904Y-35250438D01*
X51011904Y-35250438D02*
X51059523Y-35298057D01*
X51059523Y-35298057D02*
X51107142Y-35393295D01*
X51107142Y-35393295D02*
X51107142Y-35536152D01*
X51107142Y-35536152D02*
X51059523Y-35631390D01*
X51059523Y-35631390D02*
X51011904Y-35679009D01*
X51011904Y-35679009D02*
X50916666Y-35726628D01*
X50916666Y-35726628D02*
X50535714Y-35726628D01*
X51488095Y-35298057D02*
X51535714Y-35250438D01*
X51535714Y-35250438D02*
X51630952Y-35202819D01*
X51630952Y-35202819D02*
X51869047Y-35202819D01*
X51869047Y-35202819D02*
X51964285Y-35250438D01*
X51964285Y-35250438D02*
X52011904Y-35298057D01*
X52011904Y-35298057D02*
X52059523Y-35393295D01*
X52059523Y-35393295D02*
X52059523Y-35488533D01*
X52059523Y-35488533D02*
X52011904Y-35631390D01*
X52011904Y-35631390D02*
X51440476Y-36202819D01*
X51440476Y-36202819D02*
X52059523Y-36202819D01*
X52916666Y-35536152D02*
X52916666Y-36202819D01*
X52678571Y-35155200D02*
X52440476Y-35869485D01*
X52440476Y-35869485D02*
X53059523Y-35869485D01*
X63506819Y-35787666D02*
X63030628Y-36120999D01*
X63506819Y-36359094D02*
X62506819Y-36359094D01*
X62506819Y-36359094D02*
X62506819Y-35978142D01*
X62506819Y-35978142D02*
X62554438Y-35882904D01*
X62554438Y-35882904D02*
X62602057Y-35835285D01*
X62602057Y-35835285D02*
X62697295Y-35787666D01*
X62697295Y-35787666D02*
X62840152Y-35787666D01*
X62840152Y-35787666D02*
X62935390Y-35835285D01*
X62935390Y-35835285D02*
X62983009Y-35882904D01*
X62983009Y-35882904D02*
X63030628Y-35978142D01*
X63030628Y-35978142D02*
X63030628Y-36359094D01*
X62935390Y-35216237D02*
X62887771Y-35311475D01*
X62887771Y-35311475D02*
X62840152Y-35359094D01*
X62840152Y-35359094D02*
X62744914Y-35406713D01*
X62744914Y-35406713D02*
X62697295Y-35406713D01*
X62697295Y-35406713D02*
X62602057Y-35359094D01*
X62602057Y-35359094D02*
X62554438Y-35311475D01*
X62554438Y-35311475D02*
X62506819Y-35216237D01*
X62506819Y-35216237D02*
X62506819Y-35025761D01*
X62506819Y-35025761D02*
X62554438Y-34930523D01*
X62554438Y-34930523D02*
X62602057Y-34882904D01*
X62602057Y-34882904D02*
X62697295Y-34835285D01*
X62697295Y-34835285D02*
X62744914Y-34835285D01*
X62744914Y-34835285D02*
X62840152Y-34882904D01*
X62840152Y-34882904D02*
X62887771Y-34930523D01*
X62887771Y-34930523D02*
X62935390Y-35025761D01*
X62935390Y-35025761D02*
X62935390Y-35216237D01*
X62935390Y-35216237D02*
X62983009Y-35311475D01*
X62983009Y-35311475D02*
X63030628Y-35359094D01*
X63030628Y-35359094D02*
X63125866Y-35406713D01*
X63125866Y-35406713D02*
X63316342Y-35406713D01*
X63316342Y-35406713D02*
X63411580Y-35359094D01*
X63411580Y-35359094D02*
X63459200Y-35311475D01*
X63459200Y-35311475D02*
X63506819Y-35216237D01*
X63506819Y-35216237D02*
X63506819Y-35025761D01*
X63506819Y-35025761D02*
X63459200Y-34930523D01*
X63459200Y-34930523D02*
X63411580Y-34882904D01*
X63411580Y-34882904D02*
X63316342Y-34835285D01*
X63316342Y-34835285D02*
X63125866Y-34835285D01*
X63125866Y-34835285D02*
X63030628Y-34882904D01*
X63030628Y-34882904D02*
X62983009Y-34930523D01*
X62983009Y-34930523D02*
X62935390Y-35025761D01*
X56776819Y-41248666D02*
X56300628Y-41581999D01*
X56776819Y-41820094D02*
X55776819Y-41820094D01*
X55776819Y-41820094D02*
X55776819Y-41439142D01*
X55776819Y-41439142D02*
X55824438Y-41343904D01*
X55824438Y-41343904D02*
X55872057Y-41296285D01*
X55872057Y-41296285D02*
X55967295Y-41248666D01*
X55967295Y-41248666D02*
X56110152Y-41248666D01*
X56110152Y-41248666D02*
X56205390Y-41296285D01*
X56205390Y-41296285D02*
X56253009Y-41343904D01*
X56253009Y-41343904D02*
X56300628Y-41439142D01*
X56300628Y-41439142D02*
X56300628Y-41820094D01*
X56776819Y-40772475D02*
X56776819Y-40581999D01*
X56776819Y-40581999D02*
X56729200Y-40486761D01*
X56729200Y-40486761D02*
X56681580Y-40439142D01*
X56681580Y-40439142D02*
X56538723Y-40343904D01*
X56538723Y-40343904D02*
X56348247Y-40296285D01*
X56348247Y-40296285D02*
X55967295Y-40296285D01*
X55967295Y-40296285D02*
X55872057Y-40343904D01*
X55872057Y-40343904D02*
X55824438Y-40391523D01*
X55824438Y-40391523D02*
X55776819Y-40486761D01*
X55776819Y-40486761D02*
X55776819Y-40677237D01*
X55776819Y-40677237D02*
X55824438Y-40772475D01*
X55824438Y-40772475D02*
X55872057Y-40820094D01*
X55872057Y-40820094D02*
X55967295Y-40867713D01*
X55967295Y-40867713D02*
X56205390Y-40867713D01*
X56205390Y-40867713D02*
X56300628Y-40820094D01*
X56300628Y-40820094D02*
X56348247Y-40772475D01*
X56348247Y-40772475D02*
X56395866Y-40677237D01*
X56395866Y-40677237D02*
X56395866Y-40486761D01*
X56395866Y-40486761D02*
X56348247Y-40391523D01*
X56348247Y-40391523D02*
X56300628Y-40343904D01*
X56300628Y-40343904D02*
X56205390Y-40296285D01*
X48761905Y-7654819D02*
X48761905Y-6654819D01*
X48761905Y-6654819D02*
X49000000Y-6654819D01*
X49000000Y-6654819D02*
X49142857Y-6702438D01*
X49142857Y-6702438D02*
X49238095Y-6797676D01*
X49238095Y-6797676D02*
X49285714Y-6892914D01*
X49285714Y-6892914D02*
X49333333Y-7083390D01*
X49333333Y-7083390D02*
X49333333Y-7226247D01*
X49333333Y-7226247D02*
X49285714Y-7416723D01*
X49285714Y-7416723D02*
X49238095Y-7511961D01*
X49238095Y-7511961D02*
X49142857Y-7607200D01*
X49142857Y-7607200D02*
X49000000Y-7654819D01*
X49000000Y-7654819D02*
X48761905Y-7654819D01*
X50285714Y-7654819D02*
X49714286Y-7654819D01*
X50000000Y-7654819D02*
X50000000Y-6654819D01*
X50000000Y-6654819D02*
X49904762Y-6797676D01*
X49904762Y-6797676D02*
X49809524Y-6892914D01*
X49809524Y-6892914D02*
X49714286Y-6940533D01*
X54211304Y-3677094D02*
X54211304Y-3200904D01*
X54497019Y-3772332D02*
X53497019Y-3438999D01*
X53497019Y-3438999D02*
X54497019Y-3105666D01*
X63176819Y-46744333D02*
X63891104Y-46744333D01*
X63891104Y-46744333D02*
X64033961Y-46791952D01*
X64033961Y-46791952D02*
X64129200Y-46887190D01*
X64129200Y-46887190D02*
X64176819Y-47030047D01*
X64176819Y-47030047D02*
X64176819Y-47125285D01*
X63510152Y-45839571D02*
X64176819Y-45839571D01*
X63129200Y-46077666D02*
X63843485Y-46315761D01*
X63843485Y-46315761D02*
X63843485Y-45696714D01*
X68841819Y-26122894D02*
X67841819Y-26122894D01*
X67841819Y-26122894D02*
X67841819Y-25884799D01*
X67841819Y-25884799D02*
X67889438Y-25741942D01*
X67889438Y-25741942D02*
X67984676Y-25646704D01*
X67984676Y-25646704D02*
X68079914Y-25599085D01*
X68079914Y-25599085D02*
X68270390Y-25551466D01*
X68270390Y-25551466D02*
X68413247Y-25551466D01*
X68413247Y-25551466D02*
X68603723Y-25599085D01*
X68603723Y-25599085D02*
X68698961Y-25646704D01*
X68698961Y-25646704D02*
X68794200Y-25741942D01*
X68794200Y-25741942D02*
X68841819Y-25884799D01*
X68841819Y-25884799D02*
X68841819Y-26122894D01*
X67841819Y-25218132D02*
X67841819Y-24599085D01*
X67841819Y-24599085D02*
X68222771Y-24932418D01*
X68222771Y-24932418D02*
X68222771Y-24789561D01*
X68222771Y-24789561D02*
X68270390Y-24694323D01*
X68270390Y-24694323D02*
X68318009Y-24646704D01*
X68318009Y-24646704D02*
X68413247Y-24599085D01*
X68413247Y-24599085D02*
X68651342Y-24599085D01*
X68651342Y-24599085D02*
X68746580Y-24646704D01*
X68746580Y-24646704D02*
X68794200Y-24694323D01*
X68794200Y-24694323D02*
X68841819Y-24789561D01*
X68841819Y-24789561D02*
X68841819Y-25075275D01*
X68841819Y-25075275D02*
X68794200Y-25170513D01*
X68794200Y-25170513D02*
X68746580Y-25218132D01*
X75122329Y-27465219D02*
X75122329Y-26465219D01*
X75693757Y-27465219D02*
X75265186Y-26893790D01*
X75693757Y-26465219D02*
X75122329Y-27036647D01*
X44958295Y-6707019D02*
X44958295Y-7516542D01*
X44958295Y-7516542D02*
X45005914Y-7611780D01*
X45005914Y-7611780D02*
X45053533Y-7659400D01*
X45053533Y-7659400D02*
X45148771Y-7707019D01*
X45148771Y-7707019D02*
X45339247Y-7707019D01*
X45339247Y-7707019D02*
X45434485Y-7659400D01*
X45434485Y-7659400D02*
X45482104Y-7611780D01*
X45482104Y-7611780D02*
X45529723Y-7516542D01*
X45529723Y-7516542D02*
X45529723Y-6707019D01*
X45910676Y-6707019D02*
X46529723Y-6707019D01*
X46529723Y-6707019D02*
X46196390Y-7087971D01*
X46196390Y-7087971D02*
X46339247Y-7087971D01*
X46339247Y-7087971D02*
X46434485Y-7135590D01*
X46434485Y-7135590D02*
X46482104Y-7183209D01*
X46482104Y-7183209D02*
X46529723Y-7278447D01*
X46529723Y-7278447D02*
X46529723Y-7516542D01*
X46529723Y-7516542D02*
X46482104Y-7611780D01*
X46482104Y-7611780D02*
X46434485Y-7659400D01*
X46434485Y-7659400D02*
X46339247Y-7707019D01*
X46339247Y-7707019D02*
X46053533Y-7707019D01*
X46053533Y-7707019D02*
X45958295Y-7659400D01*
X45958295Y-7659400D02*
X45910676Y-7611780D01*
X4255619Y-9147933D02*
X4969904Y-9147933D01*
X4969904Y-9147933D02*
X5112761Y-9195552D01*
X5112761Y-9195552D02*
X5208000Y-9290790D01*
X5208000Y-9290790D02*
X5255619Y-9433647D01*
X5255619Y-9433647D02*
X5255619Y-9528885D01*
X4350857Y-8719361D02*
X4303238Y-8671742D01*
X4303238Y-8671742D02*
X4255619Y-8576504D01*
X4255619Y-8576504D02*
X4255619Y-8338409D01*
X4255619Y-8338409D02*
X4303238Y-8243171D01*
X4303238Y-8243171D02*
X4350857Y-8195552D01*
X4350857Y-8195552D02*
X4446095Y-8147933D01*
X4446095Y-8147933D02*
X4541333Y-8147933D01*
X4541333Y-8147933D02*
X4684190Y-8195552D01*
X4684190Y-8195552D02*
X5255619Y-8766980D01*
X5255619Y-8766980D02*
X5255619Y-8147933D01*
X70004761Y-12754819D02*
X69671428Y-12278628D01*
X69433333Y-12754819D02*
X69433333Y-11754819D01*
X69433333Y-11754819D02*
X69814285Y-11754819D01*
X69814285Y-11754819D02*
X69909523Y-11802438D01*
X69909523Y-11802438D02*
X69957142Y-11850057D01*
X69957142Y-11850057D02*
X70004761Y-11945295D01*
X70004761Y-11945295D02*
X70004761Y-12088152D01*
X70004761Y-12088152D02*
X69957142Y-12183390D01*
X69957142Y-12183390D02*
X69909523Y-12231009D01*
X69909523Y-12231009D02*
X69814285Y-12278628D01*
X69814285Y-12278628D02*
X69433333Y-12278628D01*
X70290476Y-11754819D02*
X70623809Y-12754819D01*
X70623809Y-12754819D02*
X70957142Y-11754819D01*
X71242857Y-11850057D02*
X71290476Y-11802438D01*
X71290476Y-11802438D02*
X71385714Y-11754819D01*
X71385714Y-11754819D02*
X71623809Y-11754819D01*
X71623809Y-11754819D02*
X71719047Y-11802438D01*
X71719047Y-11802438D02*
X71766666Y-11850057D01*
X71766666Y-11850057D02*
X71814285Y-11945295D01*
X71814285Y-11945295D02*
X71814285Y-12040533D01*
X71814285Y-12040533D02*
X71766666Y-12183390D01*
X71766666Y-12183390D02*
X71195238Y-12754819D01*
X71195238Y-12754819D02*
X71814285Y-12754819D01*
X33557142Y-9954819D02*
X33223809Y-9478628D01*
X32985714Y-9954819D02*
X32985714Y-8954819D01*
X32985714Y-8954819D02*
X33366666Y-8954819D01*
X33366666Y-8954819D02*
X33461904Y-9002438D01*
X33461904Y-9002438D02*
X33509523Y-9050057D01*
X33509523Y-9050057D02*
X33557142Y-9145295D01*
X33557142Y-9145295D02*
X33557142Y-9288152D01*
X33557142Y-9288152D02*
X33509523Y-9383390D01*
X33509523Y-9383390D02*
X33461904Y-9431009D01*
X33461904Y-9431009D02*
X33366666Y-9478628D01*
X33366666Y-9478628D02*
X32985714Y-9478628D01*
X34509523Y-9954819D02*
X33938095Y-9954819D01*
X34223809Y-9954819D02*
X34223809Y-8954819D01*
X34223809Y-8954819D02*
X34128571Y-9097676D01*
X34128571Y-9097676D02*
X34033333Y-9192914D01*
X34033333Y-9192914D02*
X33938095Y-9240533D01*
X35366666Y-8954819D02*
X35176190Y-8954819D01*
X35176190Y-8954819D02*
X35080952Y-9002438D01*
X35080952Y-9002438D02*
X35033333Y-9050057D01*
X35033333Y-9050057D02*
X34938095Y-9192914D01*
X34938095Y-9192914D02*
X34890476Y-9383390D01*
X34890476Y-9383390D02*
X34890476Y-9764342D01*
X34890476Y-9764342D02*
X34938095Y-9859580D01*
X34938095Y-9859580D02*
X34985714Y-9907200D01*
X34985714Y-9907200D02*
X35080952Y-9954819D01*
X35080952Y-9954819D02*
X35271428Y-9954819D01*
X35271428Y-9954819D02*
X35366666Y-9907200D01*
X35366666Y-9907200D02*
X35414285Y-9859580D01*
X35414285Y-9859580D02*
X35461904Y-9764342D01*
X35461904Y-9764342D02*
X35461904Y-9526247D01*
X35461904Y-9526247D02*
X35414285Y-9431009D01*
X35414285Y-9431009D02*
X35366666Y-9383390D01*
X35366666Y-9383390D02*
X35271428Y-9335771D01*
X35271428Y-9335771D02*
X35080952Y-9335771D01*
X35080952Y-9335771D02*
X34985714Y-9383390D01*
X34985714Y-9383390D02*
X34938095Y-9431009D01*
X34938095Y-9431009D02*
X34890476Y-9526247D01*
X33633333Y-7459580D02*
X33585714Y-7507200D01*
X33585714Y-7507200D02*
X33442857Y-7554819D01*
X33442857Y-7554819D02*
X33347619Y-7554819D01*
X33347619Y-7554819D02*
X33204762Y-7507200D01*
X33204762Y-7507200D02*
X33109524Y-7411961D01*
X33109524Y-7411961D02*
X33061905Y-7316723D01*
X33061905Y-7316723D02*
X33014286Y-7126247D01*
X33014286Y-7126247D02*
X33014286Y-6983390D01*
X33014286Y-6983390D02*
X33061905Y-6792914D01*
X33061905Y-6792914D02*
X33109524Y-6697676D01*
X33109524Y-6697676D02*
X33204762Y-6602438D01*
X33204762Y-6602438D02*
X33347619Y-6554819D01*
X33347619Y-6554819D02*
X33442857Y-6554819D01*
X33442857Y-6554819D02*
X33585714Y-6602438D01*
X33585714Y-6602438D02*
X33633333Y-6650057D01*
X34538095Y-6554819D02*
X34061905Y-6554819D01*
X34061905Y-6554819D02*
X34014286Y-7031009D01*
X34014286Y-7031009D02*
X34061905Y-6983390D01*
X34061905Y-6983390D02*
X34157143Y-6935771D01*
X34157143Y-6935771D02*
X34395238Y-6935771D01*
X34395238Y-6935771D02*
X34490476Y-6983390D01*
X34490476Y-6983390D02*
X34538095Y-7031009D01*
X34538095Y-7031009D02*
X34585714Y-7126247D01*
X34585714Y-7126247D02*
X34585714Y-7364342D01*
X34585714Y-7364342D02*
X34538095Y-7459580D01*
X34538095Y-7459580D02*
X34490476Y-7507200D01*
X34490476Y-7507200D02*
X34395238Y-7554819D01*
X34395238Y-7554819D02*
X34157143Y-7554819D01*
X34157143Y-7554819D02*
X34061905Y-7507200D01*
X34061905Y-7507200D02*
X34014286Y-7459580D01*
X51107142Y-40393819D02*
X50773809Y-39917628D01*
X50535714Y-40393819D02*
X50535714Y-39393819D01*
X50535714Y-39393819D02*
X50916666Y-39393819D01*
X50916666Y-39393819D02*
X51011904Y-39441438D01*
X51011904Y-39441438D02*
X51059523Y-39489057D01*
X51059523Y-39489057D02*
X51107142Y-39584295D01*
X51107142Y-39584295D02*
X51107142Y-39727152D01*
X51107142Y-39727152D02*
X51059523Y-39822390D01*
X51059523Y-39822390D02*
X51011904Y-39870009D01*
X51011904Y-39870009D02*
X50916666Y-39917628D01*
X50916666Y-39917628D02*
X50535714Y-39917628D01*
X52059523Y-40393819D02*
X51488095Y-40393819D01*
X51773809Y-40393819D02*
X51773809Y-39393819D01*
X51773809Y-39393819D02*
X51678571Y-39536676D01*
X51678571Y-39536676D02*
X51583333Y-39631914D01*
X51583333Y-39631914D02*
X51488095Y-39679533D01*
X52392857Y-39393819D02*
X53059523Y-39393819D01*
X53059523Y-39393819D02*
X52630952Y-40393819D01*
X67165419Y-24484666D02*
X66689228Y-24817999D01*
X67165419Y-25056094D02*
X66165419Y-25056094D01*
X66165419Y-25056094D02*
X66165419Y-24675142D01*
X66165419Y-24675142D02*
X66213038Y-24579904D01*
X66213038Y-24579904D02*
X66260657Y-24532285D01*
X66260657Y-24532285D02*
X66355895Y-24484666D01*
X66355895Y-24484666D02*
X66498752Y-24484666D01*
X66498752Y-24484666D02*
X66593990Y-24532285D01*
X66593990Y-24532285D02*
X66641609Y-24579904D01*
X66641609Y-24579904D02*
X66689228Y-24675142D01*
X66689228Y-24675142D02*
X66689228Y-25056094D01*
X67165419Y-23532285D02*
X67165419Y-24103713D01*
X67165419Y-23817999D02*
X66165419Y-23817999D01*
X66165419Y-23817999D02*
X66308276Y-23913237D01*
X66308276Y-23913237D02*
X66403514Y-24008475D01*
X66403514Y-24008475D02*
X66451133Y-24103713D01*
X57732619Y-24190904D02*
X58542142Y-24190904D01*
X58542142Y-24190904D02*
X58637380Y-24143285D01*
X58637380Y-24143285D02*
X58685000Y-24095666D01*
X58685000Y-24095666D02*
X58732619Y-24000428D01*
X58732619Y-24000428D02*
X58732619Y-23809952D01*
X58732619Y-23809952D02*
X58685000Y-23714714D01*
X58685000Y-23714714D02*
X58637380Y-23667095D01*
X58637380Y-23667095D02*
X58542142Y-23619476D01*
X58542142Y-23619476D02*
X57732619Y-23619476D01*
X57732619Y-22667095D02*
X57732619Y-23143285D01*
X57732619Y-23143285D02*
X58208809Y-23190904D01*
X58208809Y-23190904D02*
X58161190Y-23143285D01*
X58161190Y-23143285D02*
X58113571Y-23048047D01*
X58113571Y-23048047D02*
X58113571Y-22809952D01*
X58113571Y-22809952D02*
X58161190Y-22714714D01*
X58161190Y-22714714D02*
X58208809Y-22667095D01*
X58208809Y-22667095D02*
X58304047Y-22619476D01*
X58304047Y-22619476D02*
X58542142Y-22619476D01*
X58542142Y-22619476D02*
X58637380Y-22667095D01*
X58637380Y-22667095D02*
X58685000Y-22714714D01*
X58685000Y-22714714D02*
X58732619Y-22809952D01*
X58732619Y-22809952D02*
X58732619Y-23048047D01*
X58732619Y-23048047D02*
X58685000Y-23143285D01*
X58685000Y-23143285D02*
X58637380Y-23190904D01*
X59316819Y-41724857D02*
X58840628Y-42058190D01*
X59316819Y-42296285D02*
X58316819Y-42296285D01*
X58316819Y-42296285D02*
X58316819Y-41915333D01*
X58316819Y-41915333D02*
X58364438Y-41820095D01*
X58364438Y-41820095D02*
X58412057Y-41772476D01*
X58412057Y-41772476D02*
X58507295Y-41724857D01*
X58507295Y-41724857D02*
X58650152Y-41724857D01*
X58650152Y-41724857D02*
X58745390Y-41772476D01*
X58745390Y-41772476D02*
X58793009Y-41820095D01*
X58793009Y-41820095D02*
X58840628Y-41915333D01*
X58840628Y-41915333D02*
X58840628Y-42296285D01*
X59316819Y-40772476D02*
X59316819Y-41343904D01*
X59316819Y-41058190D02*
X58316819Y-41058190D01*
X58316819Y-41058190D02*
X58459676Y-41153428D01*
X58459676Y-41153428D02*
X58554914Y-41248666D01*
X58554914Y-41248666D02*
X58602533Y-41343904D01*
X58316819Y-40153428D02*
X58316819Y-40058190D01*
X58316819Y-40058190D02*
X58364438Y-39962952D01*
X58364438Y-39962952D02*
X58412057Y-39915333D01*
X58412057Y-39915333D02*
X58507295Y-39867714D01*
X58507295Y-39867714D02*
X58697771Y-39820095D01*
X58697771Y-39820095D02*
X58935866Y-39820095D01*
X58935866Y-39820095D02*
X59126342Y-39867714D01*
X59126342Y-39867714D02*
X59221580Y-39915333D01*
X59221580Y-39915333D02*
X59269200Y-39962952D01*
X59269200Y-39962952D02*
X59316819Y-40058190D01*
X59316819Y-40058190D02*
X59316819Y-40153428D01*
X59316819Y-40153428D02*
X59269200Y-40248666D01*
X59269200Y-40248666D02*
X59221580Y-40296285D01*
X59221580Y-40296285D02*
X59126342Y-40343904D01*
X59126342Y-40343904D02*
X58935866Y-40391523D01*
X58935866Y-40391523D02*
X58697771Y-40391523D01*
X58697771Y-40391523D02*
X58507295Y-40343904D01*
X58507295Y-40343904D02*
X58412057Y-40296285D01*
X58412057Y-40296285D02*
X58364438Y-40248666D01*
X58364438Y-40248666D02*
X58316819Y-40153428D01*
X55291733Y-35059819D02*
X54958400Y-34583628D01*
X54720305Y-35059819D02*
X54720305Y-34059819D01*
X54720305Y-34059819D02*
X55101257Y-34059819D01*
X55101257Y-34059819D02*
X55196495Y-34107438D01*
X55196495Y-34107438D02*
X55244114Y-34155057D01*
X55244114Y-34155057D02*
X55291733Y-34250295D01*
X55291733Y-34250295D02*
X55291733Y-34393152D01*
X55291733Y-34393152D02*
X55244114Y-34488390D01*
X55244114Y-34488390D02*
X55196495Y-34536009D01*
X55196495Y-34536009D02*
X55101257Y-34583628D01*
X55101257Y-34583628D02*
X54720305Y-34583628D01*
X55625067Y-34059819D02*
X56291733Y-34059819D01*
X56291733Y-34059819D02*
X55863162Y-35059819D01*
X54300954Y-15559580D02*
X54253335Y-15607200D01*
X54253335Y-15607200D02*
X54110478Y-15654819D01*
X54110478Y-15654819D02*
X54015240Y-15654819D01*
X54015240Y-15654819D02*
X53872383Y-15607200D01*
X53872383Y-15607200D02*
X53777145Y-15511961D01*
X53777145Y-15511961D02*
X53729526Y-15416723D01*
X53729526Y-15416723D02*
X53681907Y-15226247D01*
X53681907Y-15226247D02*
X53681907Y-15083390D01*
X53681907Y-15083390D02*
X53729526Y-14892914D01*
X53729526Y-14892914D02*
X53777145Y-14797676D01*
X53777145Y-14797676D02*
X53872383Y-14702438D01*
X53872383Y-14702438D02*
X54015240Y-14654819D01*
X54015240Y-14654819D02*
X54110478Y-14654819D01*
X54110478Y-14654819D02*
X54253335Y-14702438D01*
X54253335Y-14702438D02*
X54300954Y-14750057D01*
X55253335Y-15654819D02*
X54681907Y-15654819D01*
X54967621Y-15654819D02*
X54967621Y-14654819D01*
X54967621Y-14654819D02*
X54872383Y-14797676D01*
X54872383Y-14797676D02*
X54777145Y-14892914D01*
X54777145Y-14892914D02*
X54681907Y-14940533D01*
X60581342Y-2344619D02*
X60248009Y-1868428D01*
X60009914Y-2344619D02*
X60009914Y-1344619D01*
X60009914Y-1344619D02*
X60390866Y-1344619D01*
X60390866Y-1344619D02*
X60486104Y-1392238D01*
X60486104Y-1392238D02*
X60533723Y-1439857D01*
X60533723Y-1439857D02*
X60581342Y-1535095D01*
X60581342Y-1535095D02*
X60581342Y-1677952D01*
X60581342Y-1677952D02*
X60533723Y-1773190D01*
X60533723Y-1773190D02*
X60486104Y-1820809D01*
X60486104Y-1820809D02*
X60390866Y-1868428D01*
X60390866Y-1868428D02*
X60009914Y-1868428D01*
X61533723Y-2344619D02*
X60962295Y-2344619D01*
X61248009Y-2344619D02*
X61248009Y-1344619D01*
X61248009Y-1344619D02*
X61152771Y-1487476D01*
X61152771Y-1487476D02*
X61057533Y-1582714D01*
X61057533Y-1582714D02*
X60962295Y-1630333D01*
X62009914Y-2344619D02*
X62200390Y-2344619D01*
X62200390Y-2344619D02*
X62295628Y-2297000D01*
X62295628Y-2297000D02*
X62343247Y-2249380D01*
X62343247Y-2249380D02*
X62438485Y-2106523D01*
X62438485Y-2106523D02*
X62486104Y-1916047D01*
X62486104Y-1916047D02*
X62486104Y-1535095D01*
X62486104Y-1535095D02*
X62438485Y-1439857D01*
X62438485Y-1439857D02*
X62390866Y-1392238D01*
X62390866Y-1392238D02*
X62295628Y-1344619D01*
X62295628Y-1344619D02*
X62105152Y-1344619D01*
X62105152Y-1344619D02*
X62009914Y-1392238D01*
X62009914Y-1392238D02*
X61962295Y-1439857D01*
X61962295Y-1439857D02*
X61914676Y-1535095D01*
X61914676Y-1535095D02*
X61914676Y-1773190D01*
X61914676Y-1773190D02*
X61962295Y-1868428D01*
X61962295Y-1868428D02*
X62009914Y-1916047D01*
X62009914Y-1916047D02*
X62105152Y-1963666D01*
X62105152Y-1963666D02*
X62295628Y-1963666D01*
X62295628Y-1963666D02*
X62390866Y-1916047D01*
X62390866Y-1916047D02*
X62438485Y-1868428D01*
X62438485Y-1868428D02*
X62486104Y-1773190D01*
X45654095Y-43457819D02*
X45654095Y-44267342D01*
X45654095Y-44267342D02*
X45701714Y-44362580D01*
X45701714Y-44362580D02*
X45749333Y-44410200D01*
X45749333Y-44410200D02*
X45844571Y-44457819D01*
X45844571Y-44457819D02*
X46035047Y-44457819D01*
X46035047Y-44457819D02*
X46130285Y-44410200D01*
X46130285Y-44410200D02*
X46177904Y-44362580D01*
X46177904Y-44362580D02*
X46225523Y-44267342D01*
X46225523Y-44267342D02*
X46225523Y-43457819D01*
X46654095Y-43553057D02*
X46701714Y-43505438D01*
X46701714Y-43505438D02*
X46796952Y-43457819D01*
X46796952Y-43457819D02*
X47035047Y-43457819D01*
X47035047Y-43457819D02*
X47130285Y-43505438D01*
X47130285Y-43505438D02*
X47177904Y-43553057D01*
X47177904Y-43553057D02*
X47225523Y-43648295D01*
X47225523Y-43648295D02*
X47225523Y-43743533D01*
X47225523Y-43743533D02*
X47177904Y-43886390D01*
X47177904Y-43886390D02*
X46606476Y-44457819D01*
X46606476Y-44457819D02*
X47225523Y-44457819D01*
X17933333Y-20445180D02*
X17933333Y-19730895D01*
X17933333Y-19730895D02*
X17980952Y-19588038D01*
X17980952Y-19588038D02*
X18076190Y-19492800D01*
X18076190Y-19492800D02*
X18219047Y-19445180D01*
X18219047Y-19445180D02*
X18314285Y-19445180D01*
X17552380Y-20445180D02*
X16933333Y-20445180D01*
X16933333Y-20445180D02*
X17266666Y-20064228D01*
X17266666Y-20064228D02*
X17123809Y-20064228D01*
X17123809Y-20064228D02*
X17028571Y-20016609D01*
X17028571Y-20016609D02*
X16980952Y-19968990D01*
X16980952Y-19968990D02*
X16933333Y-19873752D01*
X16933333Y-19873752D02*
X16933333Y-19635657D01*
X16933333Y-19635657D02*
X16980952Y-19540419D01*
X16980952Y-19540419D02*
X17028571Y-19492800D01*
X17028571Y-19492800D02*
X17123809Y-19445180D01*
X17123809Y-19445180D02*
X17409523Y-19445180D01*
X17409523Y-19445180D02*
X17504761Y-19492800D01*
X17504761Y-19492800D02*
X17552380Y-19540419D01*
X61336933Y-17336980D02*
X61289314Y-17384600D01*
X61289314Y-17384600D02*
X61146457Y-17432219D01*
X61146457Y-17432219D02*
X61051219Y-17432219D01*
X61051219Y-17432219D02*
X60908362Y-17384600D01*
X60908362Y-17384600D02*
X60813124Y-17289361D01*
X60813124Y-17289361D02*
X60765505Y-17194123D01*
X60765505Y-17194123D02*
X60717886Y-17003647D01*
X60717886Y-17003647D02*
X60717886Y-16860790D01*
X60717886Y-16860790D02*
X60765505Y-16670314D01*
X60765505Y-16670314D02*
X60813124Y-16575076D01*
X60813124Y-16575076D02*
X60908362Y-16479838D01*
X60908362Y-16479838D02*
X61051219Y-16432219D01*
X61051219Y-16432219D02*
X61146457Y-16432219D01*
X61146457Y-16432219D02*
X61289314Y-16479838D01*
X61289314Y-16479838D02*
X61336933Y-16527457D01*
X61670267Y-16432219D02*
X62289314Y-16432219D01*
X62289314Y-16432219D02*
X61955981Y-16813171D01*
X61955981Y-16813171D02*
X62098838Y-16813171D01*
X62098838Y-16813171D02*
X62194076Y-16860790D01*
X62194076Y-16860790D02*
X62241695Y-16908409D01*
X62241695Y-16908409D02*
X62289314Y-17003647D01*
X62289314Y-17003647D02*
X62289314Y-17241742D01*
X62289314Y-17241742D02*
X62241695Y-17336980D01*
X62241695Y-17336980D02*
X62194076Y-17384600D01*
X62194076Y-17384600D02*
X62098838Y-17432219D01*
X62098838Y-17432219D02*
X61813124Y-17432219D01*
X61813124Y-17432219D02*
X61717886Y-17384600D01*
X61717886Y-17384600D02*
X61670267Y-17336980D01*
X51107142Y-38234819D02*
X50773809Y-37758628D01*
X50535714Y-38234819D02*
X50535714Y-37234819D01*
X50535714Y-37234819D02*
X50916666Y-37234819D01*
X50916666Y-37234819D02*
X51011904Y-37282438D01*
X51011904Y-37282438D02*
X51059523Y-37330057D01*
X51059523Y-37330057D02*
X51107142Y-37425295D01*
X51107142Y-37425295D02*
X51107142Y-37568152D01*
X51107142Y-37568152D02*
X51059523Y-37663390D01*
X51059523Y-37663390D02*
X51011904Y-37711009D01*
X51011904Y-37711009D02*
X50916666Y-37758628D01*
X50916666Y-37758628D02*
X50535714Y-37758628D01*
X51488095Y-37330057D02*
X51535714Y-37282438D01*
X51535714Y-37282438D02*
X51630952Y-37234819D01*
X51630952Y-37234819D02*
X51869047Y-37234819D01*
X51869047Y-37234819D02*
X51964285Y-37282438D01*
X51964285Y-37282438D02*
X52011904Y-37330057D01*
X52011904Y-37330057D02*
X52059523Y-37425295D01*
X52059523Y-37425295D02*
X52059523Y-37520533D01*
X52059523Y-37520533D02*
X52011904Y-37663390D01*
X52011904Y-37663390D02*
X51440476Y-38234819D01*
X51440476Y-38234819D02*
X52059523Y-38234819D01*
X52440476Y-37330057D02*
X52488095Y-37282438D01*
X52488095Y-37282438D02*
X52583333Y-37234819D01*
X52583333Y-37234819D02*
X52821428Y-37234819D01*
X52821428Y-37234819D02*
X52916666Y-37282438D01*
X52916666Y-37282438D02*
X52964285Y-37330057D01*
X52964285Y-37330057D02*
X53011904Y-37425295D01*
X53011904Y-37425295D02*
X53011904Y-37520533D01*
X53011904Y-37520533D02*
X52964285Y-37663390D01*
X52964285Y-37663390D02*
X52392857Y-38234819D01*
X52392857Y-38234819D02*
X53011904Y-38234819D01*
X47457142Y-27948819D02*
X47123809Y-27472628D01*
X46885714Y-27948819D02*
X46885714Y-26948819D01*
X46885714Y-26948819D02*
X47266666Y-26948819D01*
X47266666Y-26948819D02*
X47361904Y-26996438D01*
X47361904Y-26996438D02*
X47409523Y-27044057D01*
X47409523Y-27044057D02*
X47457142Y-27139295D01*
X47457142Y-27139295D02*
X47457142Y-27282152D01*
X47457142Y-27282152D02*
X47409523Y-27377390D01*
X47409523Y-27377390D02*
X47361904Y-27425009D01*
X47361904Y-27425009D02*
X47266666Y-27472628D01*
X47266666Y-27472628D02*
X46885714Y-27472628D01*
X48409523Y-27948819D02*
X47838095Y-27948819D01*
X48123809Y-27948819D02*
X48123809Y-26948819D01*
X48123809Y-26948819D02*
X48028571Y-27091676D01*
X48028571Y-27091676D02*
X47933333Y-27186914D01*
X47933333Y-27186914D02*
X47838095Y-27234533D01*
X48742857Y-26948819D02*
X49361904Y-26948819D01*
X49361904Y-26948819D02*
X49028571Y-27329771D01*
X49028571Y-27329771D02*
X49171428Y-27329771D01*
X49171428Y-27329771D02*
X49266666Y-27377390D01*
X49266666Y-27377390D02*
X49314285Y-27425009D01*
X49314285Y-27425009D02*
X49361904Y-27520247D01*
X49361904Y-27520247D02*
X49361904Y-27758342D01*
X49361904Y-27758342D02*
X49314285Y-27853580D01*
X49314285Y-27853580D02*
X49266666Y-27901200D01*
X49266666Y-27901200D02*
X49171428Y-27948819D01*
X49171428Y-27948819D02*
X48885714Y-27948819D01*
X48885714Y-27948819D02*
X48790476Y-27901200D01*
X48790476Y-27901200D02*
X48742857Y-27853580D01*
X70371333Y-17954380D02*
X70371333Y-17240095D01*
X70371333Y-17240095D02*
X70418952Y-17097238D01*
X70418952Y-17097238D02*
X70514190Y-17002000D01*
X70514190Y-17002000D02*
X70657047Y-16954380D01*
X70657047Y-16954380D02*
X70752285Y-16954380D01*
X69418952Y-17954380D02*
X69895142Y-17954380D01*
X69895142Y-17954380D02*
X69942761Y-17478190D01*
X69942761Y-17478190D02*
X69895142Y-17525809D01*
X69895142Y-17525809D02*
X69799904Y-17573428D01*
X69799904Y-17573428D02*
X69561809Y-17573428D01*
X69561809Y-17573428D02*
X69466571Y-17525809D01*
X69466571Y-17525809D02*
X69418952Y-17478190D01*
X69418952Y-17478190D02*
X69371333Y-17382952D01*
X69371333Y-17382952D02*
X69371333Y-17144857D01*
X69371333Y-17144857D02*
X69418952Y-17049619D01*
X69418952Y-17049619D02*
X69466571Y-17002000D01*
X69466571Y-17002000D02*
X69561809Y-16954380D01*
X69561809Y-16954380D02*
X69799904Y-16954380D01*
X69799904Y-16954380D02*
X69895142Y-17002000D01*
X69895142Y-17002000D02*
X69942761Y-17049619D01*
D11*
X76391621Y-23744000D02*
X75761621Y-23744000D01*
X76076621Y-24059000D02*
X76076621Y-23429000D01*
X72891380Y-25135000D02*
X72891380Y-18675000D01*
X72851380Y-25135000D02*
X72851380Y-18675000D01*
X72811380Y-25135000D02*
X72811380Y-18675000D01*
X72771380Y-25133000D02*
X72771380Y-18677000D01*
X72731380Y-25132000D02*
X72731380Y-18678000D01*
X72691380Y-25129000D02*
X72691380Y-18681000D01*
X72651380Y-25127000D02*
X72651380Y-22945000D01*
X72651380Y-20865000D02*
X72651380Y-18683000D01*
X72611380Y-25123000D02*
X72611380Y-22945000D01*
X72611380Y-20865000D02*
X72611380Y-18687000D01*
X72571380Y-25120000D02*
X72571380Y-22945000D01*
X72571380Y-20865000D02*
X72571380Y-18690000D01*
X72531380Y-25116000D02*
X72531380Y-22945000D01*
X72531380Y-20865000D02*
X72531380Y-18694000D01*
X72491380Y-25111000D02*
X72491380Y-22945000D01*
X72491380Y-20865000D02*
X72491380Y-18699000D01*
X72451380Y-25106000D02*
X72451380Y-22945000D01*
X72451380Y-20865000D02*
X72451380Y-18704000D01*
X72411380Y-25100000D02*
X72411380Y-22945000D01*
X72411380Y-20865000D02*
X72411380Y-18710000D01*
X72371380Y-25094000D02*
X72371380Y-22945000D01*
X72371380Y-20865000D02*
X72371380Y-18716000D01*
X72331380Y-25087000D02*
X72331380Y-22945000D01*
X72331380Y-20865000D02*
X72331380Y-18723000D01*
X72291380Y-25080000D02*
X72291380Y-22945000D01*
X72291380Y-20865000D02*
X72291380Y-18730000D01*
X72251380Y-25072000D02*
X72251380Y-22945000D01*
X72251380Y-20865000D02*
X72251380Y-18738000D01*
X72211380Y-25064000D02*
X72211380Y-22945000D01*
X72211380Y-20865000D02*
X72211380Y-18746000D01*
X72170380Y-25055000D02*
X72170380Y-22945000D01*
X72170380Y-20865000D02*
X72170380Y-18755000D01*
X72130380Y-25046000D02*
X72130380Y-22945000D01*
X72130380Y-20865000D02*
X72130380Y-18764000D01*
X72090380Y-25036000D02*
X72090380Y-22945000D01*
X72090380Y-20865000D02*
X72090380Y-18774000D01*
X72050380Y-25026000D02*
X72050380Y-22945000D01*
X72050380Y-20865000D02*
X72050380Y-18784000D01*
X72010380Y-25015000D02*
X72010380Y-22945000D01*
X72010380Y-20865000D02*
X72010380Y-18795000D01*
X71970380Y-25003000D02*
X71970380Y-22945000D01*
X71970380Y-20865000D02*
X71970380Y-18807000D01*
X71930380Y-24991000D02*
X71930380Y-22945000D01*
X71930380Y-20865000D02*
X71930380Y-18819000D01*
X71890380Y-24979000D02*
X71890380Y-22945000D01*
X71890380Y-20865000D02*
X71890380Y-18831000D01*
X71850380Y-24966000D02*
X71850380Y-22945000D01*
X71850380Y-20865000D02*
X71850380Y-18844000D01*
X71810380Y-24952000D02*
X71810380Y-22945000D01*
X71810380Y-20865000D02*
X71810380Y-18858000D01*
X71770380Y-24938000D02*
X71770380Y-22945000D01*
X71770380Y-20865000D02*
X71770380Y-18872000D01*
X71730380Y-24923000D02*
X71730380Y-22945000D01*
X71730380Y-20865000D02*
X71730380Y-18887000D01*
X71690380Y-24907000D02*
X71690380Y-22945000D01*
X71690380Y-20865000D02*
X71690380Y-18903000D01*
X71650380Y-24891000D02*
X71650380Y-22945000D01*
X71650380Y-20865000D02*
X71650380Y-18919000D01*
X71610380Y-24875000D02*
X71610380Y-22945000D01*
X71610380Y-20865000D02*
X71610380Y-18935000D01*
X71570380Y-24857000D02*
X71570380Y-22945000D01*
X71570380Y-20865000D02*
X71570380Y-18953000D01*
X71530380Y-24839000D02*
X71530380Y-22945000D01*
X71530380Y-20865000D02*
X71530380Y-18971000D01*
X71490380Y-24821000D02*
X71490380Y-22945000D01*
X71490380Y-20865000D02*
X71490380Y-18989000D01*
X71450380Y-24801000D02*
X71450380Y-22945000D01*
X71450380Y-20865000D02*
X71450380Y-19009000D01*
X71410380Y-24781000D02*
X71410380Y-22945000D01*
X71410380Y-20865000D02*
X71410380Y-19029000D01*
X71370380Y-24761000D02*
X71370380Y-22945000D01*
X71370380Y-20865000D02*
X71370380Y-19049000D01*
X71330380Y-24739000D02*
X71330380Y-22945000D01*
X71330380Y-20865000D02*
X71330380Y-19071000D01*
X71290380Y-24717000D02*
X71290380Y-22945000D01*
X71290380Y-20865000D02*
X71290380Y-19093000D01*
X71250380Y-24695000D02*
X71250380Y-22945000D01*
X71250380Y-20865000D02*
X71250380Y-19115000D01*
X71210380Y-24671000D02*
X71210380Y-22945000D01*
X71210380Y-20865000D02*
X71210380Y-19139000D01*
X71170380Y-24647000D02*
X71170380Y-22945000D01*
X71170380Y-20865000D02*
X71170380Y-19163000D01*
X71130380Y-24621000D02*
X71130380Y-22945000D01*
X71130380Y-20865000D02*
X71130380Y-19189000D01*
X71090380Y-24595000D02*
X71090380Y-22945000D01*
X71090380Y-20865000D02*
X71090380Y-19215000D01*
X71050380Y-24569000D02*
X71050380Y-22945000D01*
X71050380Y-20865000D02*
X71050380Y-19241000D01*
X71010380Y-24541000D02*
X71010380Y-22945000D01*
X71010380Y-20865000D02*
X71010380Y-19269000D01*
X70970380Y-24512000D02*
X70970380Y-22945000D01*
X70970380Y-20865000D02*
X70970380Y-19298000D01*
X70930380Y-24483000D02*
X70930380Y-22945000D01*
X70930380Y-20865000D02*
X70930380Y-19327000D01*
X70890380Y-24453000D02*
X70890380Y-22945000D01*
X70890380Y-20865000D02*
X70890380Y-19357000D01*
X70850380Y-24421000D02*
X70850380Y-22945000D01*
X70850380Y-20865000D02*
X70850380Y-19389000D01*
X70810380Y-24389000D02*
X70810380Y-22945000D01*
X70810380Y-20865000D02*
X70810380Y-19421000D01*
X70770380Y-24355000D02*
X70770380Y-22945000D01*
X70770380Y-20865000D02*
X70770380Y-19455000D01*
X70730380Y-24321000D02*
X70730380Y-22945000D01*
X70730380Y-20865000D02*
X70730380Y-19489000D01*
X70690380Y-24285000D02*
X70690380Y-22945000D01*
X70690380Y-20865000D02*
X70690380Y-19525000D01*
X70650380Y-24248000D02*
X70650380Y-22945000D01*
X70650380Y-20865000D02*
X70650380Y-19562000D01*
X70610380Y-24210000D02*
X70610380Y-22945000D01*
X70610380Y-20865000D02*
X70610380Y-19600000D01*
X70570380Y-24170000D02*
X70570380Y-19640000D01*
X70530380Y-24129000D02*
X70530380Y-19681000D01*
X70490380Y-24087000D02*
X70490380Y-19723000D01*
X70450380Y-24042000D02*
X70450380Y-19768000D01*
X70410380Y-23997000D02*
X70410380Y-19813000D01*
X70370380Y-23949000D02*
X70370380Y-19861000D01*
X70330380Y-23900000D02*
X70330380Y-19910000D01*
X70290380Y-23849000D02*
X70290380Y-19961000D01*
X70250380Y-23795000D02*
X70250380Y-20015000D01*
X70210380Y-23739000D02*
X70210380Y-20071000D01*
X70170380Y-23681000D02*
X70170380Y-20129000D01*
X70130380Y-23619000D02*
X70130380Y-20191000D01*
X70090380Y-23555000D02*
X70090380Y-20255000D01*
X70050380Y-23486000D02*
X70050380Y-20324000D01*
X70010380Y-23414000D02*
X70010380Y-20396000D01*
X69970380Y-23337000D02*
X69970380Y-20473000D01*
X69930380Y-23255000D02*
X69930380Y-20555000D01*
X69890380Y-23167000D02*
X69890380Y-20643000D01*
X69850380Y-23070000D02*
X69850380Y-20740000D01*
X69810380Y-22964000D02*
X69810380Y-20846000D01*
X69770380Y-22845000D02*
X69770380Y-20965000D01*
X69730380Y-22707000D02*
X69730380Y-21103000D01*
X69690380Y-22538000D02*
X69690380Y-21272000D01*
X69650380Y-22307000D02*
X69650380Y-21503000D01*
X76161380Y-21905000D02*
G75*
G03*
X76161380Y-21905000I-3270000J0D01*
G01*
X65264200Y-12405400D02*
X64494200Y-12405400D01*
X64494200Y-13775400D02*
X64494200Y-11035400D01*
X64494200Y-11035400D02*
X57954200Y-11035400D01*
X57954200Y-13775400D02*
X64494200Y-13775400D01*
X57954200Y-11035400D02*
X57954200Y-13775400D01*
X57184200Y-12405400D02*
X57954200Y-12405400D01*
X37874348Y-11314800D02*
X38396852Y-11314800D01*
X37874348Y-12784800D02*
X38396852Y-12784800D01*
X54536748Y-31330000D02*
X55059252Y-31330000D01*
X54536748Y-32800000D02*
X55059252Y-32800000D01*
X48370200Y-13369200D02*
X48370200Y-8169200D01*
X48370200Y-8169200D02*
X43070200Y-8169200D01*
X46720200Y-13369200D02*
X48370200Y-13369200D01*
X43070200Y-13369200D02*
X44720200Y-13369200D01*
X43070200Y-8169200D02*
X43070200Y-13369200D01*
X46720200Y-13369200D02*
G75*
G03*
X44720200Y-13369200I-1000000J0D01*
G01*
X37848948Y-1647200D02*
X38371452Y-1647200D01*
X37848948Y-3117200D02*
X38371452Y-3117200D01*
X37883136Y-4187200D02*
X38337264Y-4187200D01*
X37883136Y-5657200D02*
X38337264Y-5657200D01*
X48347936Y-30568000D02*
X48802064Y-30568000D01*
X48347936Y-32038000D02*
X48802064Y-32038000D01*
X51215000Y-46408748D02*
X51215000Y-46931252D01*
X49745000Y-46408748D02*
X49745000Y-46931252D01*
D10*
X75747800Y-6467000D02*
X75747800Y-767000D01*
X75747800Y-6467000D02*
X68747800Y-6467000D01*
X75747800Y-767000D02*
X68747800Y-767000D01*
X68747800Y-6467000D02*
X68747800Y-767000D01*
D11*
X52842200Y-10922000D02*
X52842200Y-10532000D01*
X54762200Y-12842000D02*
G75*
G03*
X54762200Y-12842000I-1920000J0D01*
G01*
X46956652Y-23046400D02*
X46434148Y-23046400D01*
X46956652Y-21576400D02*
X46434148Y-21576400D01*
X62563252Y-31870000D02*
X60240748Y-31870000D01*
X62563252Y-28450000D02*
X60240748Y-28450000D01*
X48347936Y-32727000D02*
X48802064Y-32727000D01*
X48347936Y-34197000D02*
X48802064Y-34197000D01*
X65264200Y-5430200D02*
X64494200Y-5430200D01*
X64494200Y-6800200D02*
X64494200Y-4060200D01*
X64494200Y-4060200D02*
X57954200Y-4060200D01*
X57954200Y-6800200D02*
X64494200Y-6800200D01*
X57954200Y-4060200D02*
X57954200Y-6800200D01*
X57184200Y-5430200D02*
X57954200Y-5430200D01*
X64324600Y-20531864D02*
X64324600Y-20077736D01*
X65794600Y-20531864D02*
X65794600Y-20077736D01*
X65264200Y-9154200D02*
X64494200Y-9154200D01*
X64494200Y-10524200D02*
X64494200Y-7784200D01*
X64494200Y-7784200D02*
X57954200Y-7784200D01*
X57954200Y-10524200D02*
X64494200Y-10524200D01*
X57954200Y-7784200D02*
X57954200Y-10524200D01*
X57184200Y-9154200D02*
X57954200Y-9154200D01*
X61184552Y-26577000D02*
X60662048Y-26577000D01*
X61184552Y-25107000D02*
X60662048Y-25107000D01*
X57489200Y-23354000D02*
X50989200Y-23354000D01*
X50989200Y-23354000D02*
X50989200Y-29854000D01*
X50989200Y-29854000D02*
X57489200Y-29854000D01*
X57489200Y-29854000D02*
X57489200Y-23354000D01*
X48347936Y-34886000D02*
X48802064Y-34886000D01*
X48347936Y-36356000D02*
X48802064Y-36356000D01*
X62137000Y-35393936D02*
X62137000Y-35848064D01*
X60667000Y-35393936D02*
X60667000Y-35848064D01*
X55587000Y-37880064D02*
X55587000Y-37425936D01*
X57057000Y-37880064D02*
X57057000Y-37425936D01*
X52842200Y-3429000D02*
X52842200Y-3039000D01*
X54762200Y-5349000D02*
G75*
G03*
X54762200Y-5349000I-1920000J0D01*
G01*
X62722000Y-43811000D02*
X62722000Y-45141000D01*
X61392000Y-43811000D02*
X62722000Y-43811000D01*
X60122000Y-43811000D02*
X52442000Y-43811000D01*
X60122000Y-43811000D02*
X60122000Y-46411000D01*
X52442000Y-43811000D02*
X52442000Y-49011000D01*
X62722000Y-46411000D02*
X62722000Y-49011000D01*
X60122000Y-46411000D02*
X62722000Y-46411000D01*
X62722000Y-49011000D02*
X52442000Y-49011000D01*
X71995784Y-25843035D02*
G75*
G03*
X72055386Y-28110399I-1251550J-1167365D01*
G01*
X48370200Y-6252200D02*
X48370200Y-1052200D01*
X48370200Y-1052200D02*
X43070200Y-1052200D01*
X46720200Y-6252200D02*
X48370200Y-6252200D01*
X43070200Y-6252200D02*
X44720200Y-6252200D01*
X43070200Y-1052200D02*
X43070200Y-6252200D01*
X46720200Y-6252200D02*
G75*
G03*
X44720200Y-6252200I-1000000J0D01*
G01*
D10*
X75747800Y-13579000D02*
X75747800Y-7879000D01*
X75747800Y-13579000D02*
X68747800Y-13579000D01*
X75747800Y-7879000D02*
X68747800Y-7879000D01*
X68747800Y-13579000D02*
X68747800Y-7879000D01*
D11*
X37908536Y-8749400D02*
X38362664Y-8749400D01*
X37908536Y-10219400D02*
X38362664Y-10219400D01*
X37874348Y-6387200D02*
X38396852Y-6387200D01*
X37874348Y-7857200D02*
X38396852Y-7857200D01*
X48802064Y-40674000D02*
X48347936Y-40674000D01*
X48802064Y-39204000D02*
X48347936Y-39204000D01*
X64324600Y-24545064D02*
X64324600Y-24090936D01*
X65794600Y-24545064D02*
X65794600Y-24090936D01*
X60422000Y-23708000D02*
X62222000Y-23708000D01*
X62222000Y-20488000D02*
X59272000Y-20488000D01*
X58127000Y-37880064D02*
X58127000Y-37425936D01*
X59597000Y-37880064D02*
X59597000Y-37425936D01*
X58126936Y-33870000D02*
X58581064Y-33870000D01*
X58126936Y-35340000D02*
X58581064Y-35340000D01*
X50967380Y-17761000D02*
X51597380Y-17761000D01*
X51282380Y-17446000D02*
X51282380Y-18076000D01*
X54467621Y-16370000D02*
X54467621Y-22830000D01*
X54507621Y-16370000D02*
X54507621Y-22830000D01*
X54547621Y-16370000D02*
X54547621Y-22830000D01*
X54587621Y-16372000D02*
X54587621Y-22828000D01*
X54627621Y-16373000D02*
X54627621Y-22827000D01*
X54667621Y-16376000D02*
X54667621Y-22824000D01*
X54707621Y-16378000D02*
X54707621Y-18560000D01*
X54707621Y-20640000D02*
X54707621Y-22822000D01*
X54747621Y-16382000D02*
X54747621Y-18560000D01*
X54747621Y-20640000D02*
X54747621Y-22818000D01*
X54787621Y-16385000D02*
X54787621Y-18560000D01*
X54787621Y-20640000D02*
X54787621Y-22815000D01*
X54827621Y-16389000D02*
X54827621Y-18560000D01*
X54827621Y-20640000D02*
X54827621Y-22811000D01*
X54867621Y-16394000D02*
X54867621Y-18560000D01*
X54867621Y-20640000D02*
X54867621Y-22806000D01*
X54907621Y-16399000D02*
X54907621Y-18560000D01*
X54907621Y-20640000D02*
X54907621Y-22801000D01*
X54947621Y-16405000D02*
X54947621Y-18560000D01*
X54947621Y-20640000D02*
X54947621Y-22795000D01*
X54987621Y-16411000D02*
X54987621Y-18560000D01*
X54987621Y-20640000D02*
X54987621Y-22789000D01*
X55027621Y-16418000D02*
X55027621Y-18560000D01*
X55027621Y-20640000D02*
X55027621Y-22782000D01*
X55067621Y-16425000D02*
X55067621Y-18560000D01*
X55067621Y-20640000D02*
X55067621Y-22775000D01*
X55107621Y-16433000D02*
X55107621Y-18560000D01*
X55107621Y-20640000D02*
X55107621Y-22767000D01*
X55147621Y-16441000D02*
X55147621Y-18560000D01*
X55147621Y-20640000D02*
X55147621Y-22759000D01*
X55188621Y-16450000D02*
X55188621Y-18560000D01*
X55188621Y-20640000D02*
X55188621Y-22750000D01*
X55228621Y-16459000D02*
X55228621Y-18560000D01*
X55228621Y-20640000D02*
X55228621Y-22741000D01*
X55268621Y-16469000D02*
X55268621Y-18560000D01*
X55268621Y-20640000D02*
X55268621Y-22731000D01*
X55308621Y-16479000D02*
X55308621Y-18560000D01*
X55308621Y-20640000D02*
X55308621Y-22721000D01*
X55348621Y-16490000D02*
X55348621Y-18560000D01*
X55348621Y-20640000D02*
X55348621Y-22710000D01*
X55388621Y-16502000D02*
X55388621Y-18560000D01*
X55388621Y-20640000D02*
X55388621Y-22698000D01*
X55428621Y-16514000D02*
X55428621Y-18560000D01*
X55428621Y-20640000D02*
X55428621Y-22686000D01*
X55468621Y-16526000D02*
X55468621Y-18560000D01*
X55468621Y-20640000D02*
X55468621Y-22674000D01*
X55508621Y-16539000D02*
X55508621Y-18560000D01*
X55508621Y-20640000D02*
X55508621Y-22661000D01*
X55548621Y-16553000D02*
X55548621Y-18560000D01*
X55548621Y-20640000D02*
X55548621Y-22647000D01*
X55588621Y-16567000D02*
X55588621Y-18560000D01*
X55588621Y-20640000D02*
X55588621Y-22633000D01*
X55628621Y-16582000D02*
X55628621Y-18560000D01*
X55628621Y-20640000D02*
X55628621Y-22618000D01*
X55668621Y-16598000D02*
X55668621Y-18560000D01*
X55668621Y-20640000D02*
X55668621Y-22602000D01*
X55708621Y-16614000D02*
X55708621Y-18560000D01*
X55708621Y-20640000D02*
X55708621Y-22586000D01*
X55748621Y-16630000D02*
X55748621Y-18560000D01*
X55748621Y-20640000D02*
X55748621Y-22570000D01*
X55788621Y-16648000D02*
X55788621Y-18560000D01*
X55788621Y-20640000D02*
X55788621Y-22552000D01*
X55828621Y-16666000D02*
X55828621Y-18560000D01*
X55828621Y-20640000D02*
X55828621Y-22534000D01*
X55868621Y-16684000D02*
X55868621Y-18560000D01*
X55868621Y-20640000D02*
X55868621Y-22516000D01*
X55908621Y-16704000D02*
X55908621Y-18560000D01*
X55908621Y-20640000D02*
X55908621Y-22496000D01*
X55948621Y-16724000D02*
X55948621Y-18560000D01*
X55948621Y-20640000D02*
X55948621Y-22476000D01*
X55988621Y-16744000D02*
X55988621Y-18560000D01*
X55988621Y-20640000D02*
X55988621Y-22456000D01*
X56028621Y-16766000D02*
X56028621Y-18560000D01*
X56028621Y-20640000D02*
X56028621Y-22434000D01*
X56068621Y-16788000D02*
X56068621Y-18560000D01*
X56068621Y-20640000D02*
X56068621Y-22412000D01*
X56108621Y-16810000D02*
X56108621Y-18560000D01*
X56108621Y-20640000D02*
X56108621Y-22390000D01*
X56148621Y-16834000D02*
X56148621Y-18560000D01*
X56148621Y-20640000D02*
X56148621Y-22366000D01*
X56188621Y-16858000D02*
X56188621Y-18560000D01*
X56188621Y-20640000D02*
X56188621Y-22342000D01*
X56228621Y-16884000D02*
X56228621Y-18560000D01*
X56228621Y-20640000D02*
X56228621Y-22316000D01*
X56268621Y-16910000D02*
X56268621Y-18560000D01*
X56268621Y-20640000D02*
X56268621Y-22290000D01*
X56308621Y-16936000D02*
X56308621Y-18560000D01*
X56308621Y-20640000D02*
X56308621Y-22264000D01*
X56348621Y-16964000D02*
X56348621Y-18560000D01*
X56348621Y-20640000D02*
X56348621Y-22236000D01*
X56388621Y-16993000D02*
X56388621Y-18560000D01*
X56388621Y-20640000D02*
X56388621Y-22207000D01*
X56428621Y-17022000D02*
X56428621Y-18560000D01*
X56428621Y-20640000D02*
X56428621Y-22178000D01*
X56468621Y-17052000D02*
X56468621Y-18560000D01*
X56468621Y-20640000D02*
X56468621Y-22148000D01*
X56508621Y-17084000D02*
X56508621Y-18560000D01*
X56508621Y-20640000D02*
X56508621Y-22116000D01*
X56548621Y-17116000D02*
X56548621Y-18560000D01*
X56548621Y-20640000D02*
X56548621Y-22084000D01*
X56588621Y-17150000D02*
X56588621Y-18560000D01*
X56588621Y-20640000D02*
X56588621Y-22050000D01*
X56628621Y-17184000D02*
X56628621Y-18560000D01*
X56628621Y-20640000D02*
X56628621Y-22016000D01*
X56668621Y-17220000D02*
X56668621Y-18560000D01*
X56668621Y-20640000D02*
X56668621Y-21980000D01*
X56708621Y-17257000D02*
X56708621Y-18560000D01*
X56708621Y-20640000D02*
X56708621Y-21943000D01*
X56748621Y-17295000D02*
X56748621Y-18560000D01*
X56748621Y-20640000D02*
X56748621Y-21905000D01*
X56788621Y-17335000D02*
X56788621Y-21865000D01*
X56828621Y-17376000D02*
X56828621Y-21824000D01*
X56868621Y-17418000D02*
X56868621Y-21782000D01*
X56908621Y-17463000D02*
X56908621Y-21737000D01*
X56948621Y-17508000D02*
X56948621Y-21692000D01*
X56988621Y-17556000D02*
X56988621Y-21644000D01*
X57028621Y-17605000D02*
X57028621Y-21595000D01*
X57068621Y-17656000D02*
X57068621Y-21544000D01*
X57108621Y-17710000D02*
X57108621Y-21490000D01*
X57148621Y-17766000D02*
X57148621Y-21434000D01*
X57188621Y-17824000D02*
X57188621Y-21376000D01*
X57228621Y-17886000D02*
X57228621Y-21314000D01*
X57268621Y-17950000D02*
X57268621Y-21250000D01*
X57308621Y-18019000D02*
X57308621Y-21181000D01*
X57348621Y-18091000D02*
X57348621Y-21109000D01*
X57388621Y-18168000D02*
X57388621Y-21032000D01*
X57428621Y-18250000D02*
X57428621Y-20950000D01*
X57468621Y-18338000D02*
X57468621Y-20862000D01*
X57508621Y-18435000D02*
X57508621Y-20765000D01*
X57548621Y-18541000D02*
X57548621Y-20659000D01*
X57588621Y-18660000D02*
X57588621Y-20540000D01*
X57628621Y-18798000D02*
X57628621Y-20402000D01*
X57668621Y-18967000D02*
X57668621Y-20233000D01*
X57708621Y-19198000D02*
X57708621Y-20002000D01*
X57737621Y-19600000D02*
G75*
G03*
X57737621Y-19600000I-3270000J0D01*
G01*
X65264200Y-1874200D02*
X64494200Y-1874200D01*
X64494200Y-3244200D02*
X64494200Y-504200D01*
X64494200Y-504200D02*
X57954200Y-504200D01*
X57954200Y-3244200D02*
X64494200Y-3244200D01*
X57954200Y-504200D02*
X57954200Y-3244200D01*
X57184200Y-1874200D02*
X57954200Y-1874200D01*
X45011000Y-49181600D02*
X28771000Y-49181600D01*
X45011000Y-41561600D02*
X45621000Y-41561600D01*
X45011000Y-41561600D02*
X45011000Y-49181600D01*
X45011000Y-24941600D02*
X45011000Y-25561600D01*
X42891000Y-24941600D02*
X45011000Y-24941600D01*
X28771000Y-49181600D02*
X28771000Y-41561600D01*
X28771000Y-25561600D02*
X28771000Y-24941600D01*
X28771000Y-24941600D02*
X30891000Y-24941600D01*
X61242348Y-17944200D02*
X61764852Y-17944200D01*
X61242348Y-19414200D02*
X61764852Y-19414200D01*
X48347936Y-37045000D02*
X48802064Y-37045000D01*
X48347936Y-38515000D02*
X48802064Y-38515000D01*
X48347936Y-28409000D02*
X48802064Y-28409000D01*
X48347936Y-29879000D02*
X48802064Y-29879000D01*
%LPC*%
D12*
X74141380Y-21905000D03*
D13*
X71641380Y-21905000D03*
X66304200Y-12405400D03*
D14*
X56144200Y-12405400D03*
D15*
X83900000Y-1000000D03*
X78900000Y-1000000D03*
X78900000Y-6000000D03*
X78900000Y-11000000D03*
D16*
X37098100Y-12049800D03*
X39173100Y-12049800D03*
X53760500Y-32065000D03*
X55835500Y-32065000D03*
D12*
X49530200Y-12039200D03*
D14*
X49530200Y-9499200D03*
X41910200Y-9499200D03*
X41910200Y-12039200D03*
D16*
X37072700Y-2382200D03*
X39147700Y-2382200D03*
D17*
X37110200Y-4922200D03*
X39110200Y-4922200D03*
X47575000Y-31303000D03*
X49575000Y-31303000D03*
D18*
X50480000Y-45632500D03*
X50480000Y-47707500D03*
D13*
X74747800Y-5117000D03*
X69747800Y-2117000D03*
D19*
X52842200Y-12842000D03*
D20*
X52842200Y-9032000D03*
D21*
X47732900Y-22311400D03*
X45657900Y-22311400D03*
D22*
X63539500Y-30160000D03*
X59264500Y-30160000D03*
D17*
X47575000Y-33462000D03*
X49575000Y-33462000D03*
D13*
X66304200Y-5430200D03*
D14*
X56144200Y-5430200D03*
D23*
X65059600Y-21304800D03*
X65059600Y-19304800D03*
D13*
X66304200Y-9154200D03*
D14*
X56144200Y-9154200D03*
D21*
X61960800Y-25842000D03*
X59885800Y-25842000D03*
D24*
X51139200Y-26604000D03*
X57339200Y-26604000D03*
D17*
X47575000Y-35621000D03*
X49575000Y-35621000D03*
D25*
X61402000Y-34621000D03*
X61402000Y-36621000D03*
D23*
X56322000Y-38653000D03*
X56322000Y-36653000D03*
D19*
X52842200Y-5349000D03*
D20*
X52842200Y-1539000D03*
D26*
X61392000Y-45141000D03*
D27*
X61392000Y-47681000D03*
X58852000Y-45141000D03*
X58852000Y-47681000D03*
X56312000Y-45141000D03*
X56312000Y-47681000D03*
X53772000Y-45141000D03*
X53772000Y-47681000D03*
D28*
X73284234Y-27010400D03*
D29*
X70744234Y-27010400D03*
D12*
X49530200Y-4922200D03*
D14*
X49530200Y-2382200D03*
X41910200Y-2382200D03*
X41910200Y-4922200D03*
D15*
X3800000Y-1000000D03*
X8800000Y-1000000D03*
X8800000Y-6000000D03*
X8800000Y-11000000D03*
D13*
X74747800Y-12229000D03*
X69747800Y-9229000D03*
D17*
X37135600Y-9484400D03*
X39135600Y-9484400D03*
D16*
X37098100Y-7122200D03*
X39173100Y-7122200D03*
D30*
X49575000Y-39939000D03*
X47575000Y-39939000D03*
D23*
X65059600Y-25318000D03*
X65059600Y-23318000D03*
D31*
X59972000Y-21148000D03*
X59972000Y-22098000D03*
X59972000Y-23048000D03*
X62672000Y-23048000D03*
X62672000Y-22098000D03*
X62672000Y-21148000D03*
D23*
X58862000Y-38653000D03*
X58862000Y-36653000D03*
D17*
X57354000Y-34605000D03*
X59354000Y-34605000D03*
D12*
X53217621Y-19600000D03*
D13*
X55717621Y-19600000D03*
X66304200Y-1874200D03*
D14*
X56144200Y-1874200D03*
D32*
X44491000Y-40561600D03*
X44491000Y-38561600D03*
X44491000Y-36561600D03*
X44491000Y-34561600D03*
X44491000Y-32561600D03*
X44491000Y-30561600D03*
X44491000Y-28561600D03*
X44491000Y-26561600D03*
D33*
X41891000Y-25061600D03*
X39891000Y-25061600D03*
X37891000Y-25061600D03*
X35891000Y-25061600D03*
X33891000Y-25061600D03*
X31891000Y-25061600D03*
D32*
X29291000Y-26561600D03*
X29291000Y-28561600D03*
X29291000Y-30561600D03*
X29291000Y-32561600D03*
X29291000Y-34561600D03*
X29291000Y-36561600D03*
X29291000Y-38561600D03*
X29291000Y-40561600D03*
D15*
X15100000Y-17400000D03*
X20100000Y-17400000D03*
X20100000Y-22400000D03*
X20100000Y-27400000D03*
D16*
X60466100Y-18679200D03*
X62541100Y-18679200D03*
D17*
X47575000Y-37780000D03*
X49575000Y-37780000D03*
X47575000Y-29144000D03*
X49575000Y-29144000D03*
D15*
X72600000Y-17400000D03*
X67600000Y-17400000D03*
X67600000Y-22400000D03*
X67600000Y-27400000D03*
%LPD*%
M02*
