G04 #@! TF.GenerationSoftware,KiCad,Pcbnew,7.0.6*
G04 #@! TF.CreationDate,2023-08-17T21:06:19+02:00*
G04 #@! TF.ProjectId,esp-switch,6573702d-7377-4697-9463-682e6b696361,rev?*
G04 #@! TF.SameCoordinates,Original*
G04 #@! TF.FileFunction,Soldermask,Top*
G04 #@! TF.FilePolarity,Negative*
%FSLAX46Y46*%
G04 Gerber Fmt 4.6, Leading zero omitted, Abs format (unit mm)*
G04 Created by KiCad (PCBNEW 7.0.6) date 2023-08-17 21:06:19*
%MOMM*%
%LPD*%
G01*
G04 APERTURE LIST*
G04 APERTURE END LIST*
G36*
X24330850Y-42818964D02*
G01*
X24381040Y-42824787D01*
X24398189Y-42832359D01*
X24421671Y-42837030D01*
X24446810Y-42853827D01*
X24466696Y-42862608D01*
X24480277Y-42876189D01*
X24502777Y-42891223D01*
X24517810Y-42913722D01*
X24531391Y-42927303D01*
X24540170Y-42947186D01*
X24556970Y-42972329D01*
X24561641Y-42995812D01*
X24569212Y-43012959D01*
X24575033Y-43063139D01*
X24576000Y-43068000D01*
X24576000Y-43768000D01*
X24575032Y-43772863D01*
X24569212Y-43823040D01*
X24561641Y-43840185D01*
X24556970Y-43863671D01*
X24540169Y-43888815D01*
X24531391Y-43908696D01*
X24517812Y-43922274D01*
X24502777Y-43944777D01*
X24480274Y-43959812D01*
X24466696Y-43973391D01*
X24446815Y-43982169D01*
X24421671Y-43998970D01*
X24398185Y-44003641D01*
X24381040Y-44011212D01*
X24330861Y-44017032D01*
X24326000Y-44018000D01*
X23426000Y-44018000D01*
X23421138Y-44017032D01*
X23370959Y-44011212D01*
X23353812Y-44003641D01*
X23330329Y-43998970D01*
X23305186Y-43982170D01*
X23285303Y-43973391D01*
X23271722Y-43959810D01*
X23249223Y-43944777D01*
X23234189Y-43922277D01*
X23220608Y-43908696D01*
X23211827Y-43888810D01*
X23195030Y-43863671D01*
X23190359Y-43840189D01*
X23182787Y-43823040D01*
X23176964Y-43772849D01*
X23176000Y-43768000D01*
X23176000Y-43068000D01*
X23176964Y-43063150D01*
X23182787Y-43012959D01*
X23190359Y-42995808D01*
X23195030Y-42972329D01*
X23211826Y-42947191D01*
X23220608Y-42927303D01*
X23234191Y-42913719D01*
X23249223Y-42891223D01*
X23271719Y-42876191D01*
X23285303Y-42862608D01*
X23305191Y-42853826D01*
X23330329Y-42837030D01*
X23353808Y-42832359D01*
X23370959Y-42824787D01*
X23421151Y-42818964D01*
X23426000Y-42818000D01*
X24326000Y-42818000D01*
X24330850Y-42818964D01*
G37*
G36*
X24330850Y-40818964D02*
G01*
X24381040Y-40824787D01*
X24398189Y-40832359D01*
X24421671Y-40837030D01*
X24446810Y-40853827D01*
X24466696Y-40862608D01*
X24480277Y-40876189D01*
X24502777Y-40891223D01*
X24517810Y-40913722D01*
X24531391Y-40927303D01*
X24540170Y-40947186D01*
X24556970Y-40972329D01*
X24561641Y-40995812D01*
X24569212Y-41012959D01*
X24575033Y-41063139D01*
X24576000Y-41068000D01*
X24576000Y-41768000D01*
X24575032Y-41772863D01*
X24569212Y-41823040D01*
X24561641Y-41840185D01*
X24556970Y-41863671D01*
X24540169Y-41888815D01*
X24531391Y-41908696D01*
X24517812Y-41922274D01*
X24502777Y-41944777D01*
X24480274Y-41959812D01*
X24466696Y-41973391D01*
X24446815Y-41982169D01*
X24421671Y-41998970D01*
X24398185Y-42003641D01*
X24381040Y-42011212D01*
X24330861Y-42017032D01*
X24326000Y-42018000D01*
X23426000Y-42018000D01*
X23421138Y-42017032D01*
X23370959Y-42011212D01*
X23353812Y-42003641D01*
X23330329Y-41998970D01*
X23305186Y-41982170D01*
X23285303Y-41973391D01*
X23271722Y-41959810D01*
X23249223Y-41944777D01*
X23234189Y-41922277D01*
X23220608Y-41908696D01*
X23211827Y-41888810D01*
X23195030Y-41863671D01*
X23190359Y-41840189D01*
X23182787Y-41823040D01*
X23176964Y-41772849D01*
X23176000Y-41768000D01*
X23176000Y-41068000D01*
X23176964Y-41063150D01*
X23182787Y-41012959D01*
X23190359Y-40995808D01*
X23195030Y-40972329D01*
X23211826Y-40947191D01*
X23220608Y-40927303D01*
X23234191Y-40913719D01*
X23249223Y-40891223D01*
X23271719Y-40876191D01*
X23285303Y-40862608D01*
X23305191Y-40853826D01*
X23330329Y-40837030D01*
X23353808Y-40832359D01*
X23370959Y-40824787D01*
X23421151Y-40818964D01*
X23426000Y-40818000D01*
X24326000Y-40818000D01*
X24330850Y-40818964D01*
G37*
G36*
X28194000Y-41061600D02*
G01*
X25694000Y-41061600D01*
X25694000Y-40061600D01*
X28194000Y-40061600D01*
X28194000Y-41061600D01*
G37*
G36*
X43394000Y-41061600D02*
G01*
X40894000Y-41061600D01*
X40894000Y-40061600D01*
X43394000Y-40061600D01*
X43394000Y-41061600D01*
G37*
G36*
X48348000Y-40220000D02*
G01*
X46648000Y-40220000D01*
X46648000Y-38520000D01*
X48348000Y-38520000D01*
X48348000Y-40220000D01*
G37*
G36*
X50300664Y-38561602D02*
G01*
X50463000Y-38633878D01*
X50606761Y-38738327D01*
X50725664Y-38870383D01*
X50814514Y-39024274D01*
X50869425Y-39193275D01*
X50888000Y-39370000D01*
X50869425Y-39546725D01*
X50814514Y-39715726D01*
X50725664Y-39869617D01*
X50606761Y-40001673D01*
X50463000Y-40106122D01*
X50300664Y-40178398D01*
X50126849Y-40215344D01*
X49949151Y-40215344D01*
X49775336Y-40178398D01*
X49613000Y-40106122D01*
X49469239Y-40001673D01*
X49350336Y-39869617D01*
X49261486Y-39715726D01*
X49206575Y-39546725D01*
X49188000Y-39370000D01*
X49206575Y-39193275D01*
X49261486Y-39024274D01*
X49350336Y-38870383D01*
X49469239Y-38738327D01*
X49613000Y-38633878D01*
X49775336Y-38561602D01*
X49949151Y-38524656D01*
X50126849Y-38524656D01*
X50300664Y-38561602D01*
G37*
G36*
X52840664Y-38561602D02*
G01*
X53003000Y-38633878D01*
X53146761Y-38738327D01*
X53265664Y-38870383D01*
X53354514Y-39024274D01*
X53409425Y-39193275D01*
X53428000Y-39370000D01*
X53409425Y-39546725D01*
X53354514Y-39715726D01*
X53265664Y-39869617D01*
X53146761Y-40001673D01*
X53003000Y-40106122D01*
X52840664Y-40178398D01*
X52666849Y-40215344D01*
X52489151Y-40215344D01*
X52315336Y-40178398D01*
X52153000Y-40106122D01*
X52009239Y-40001673D01*
X51890336Y-39869617D01*
X51801486Y-39715726D01*
X51746575Y-39546725D01*
X51728000Y-39370000D01*
X51746575Y-39193275D01*
X51801486Y-39024274D01*
X51890336Y-38870383D01*
X52009239Y-38738327D01*
X52153000Y-38633878D01*
X52315336Y-38561602D01*
X52489151Y-38524656D01*
X52666849Y-38524656D01*
X52840664Y-38561602D01*
G37*
G36*
X55380664Y-38561602D02*
G01*
X55543000Y-38633878D01*
X55686761Y-38738327D01*
X55805664Y-38870383D01*
X55894514Y-39024274D01*
X55949425Y-39193275D01*
X55968000Y-39370000D01*
X55949425Y-39546725D01*
X55894514Y-39715726D01*
X55805664Y-39869617D01*
X55686761Y-40001673D01*
X55543000Y-40106122D01*
X55380664Y-40178398D01*
X55206849Y-40215344D01*
X55029151Y-40215344D01*
X54855336Y-40178398D01*
X54693000Y-40106122D01*
X54549239Y-40001673D01*
X54430336Y-39869617D01*
X54341486Y-39715726D01*
X54286575Y-39546725D01*
X54268000Y-39370000D01*
X54286575Y-39193275D01*
X54341486Y-39024274D01*
X54430336Y-38870383D01*
X54549239Y-38738327D01*
X54693000Y-38633878D01*
X54855336Y-38561602D01*
X55029151Y-38524656D01*
X55206849Y-38524656D01*
X55380664Y-38561602D01*
G37*
G36*
X57920664Y-38561602D02*
G01*
X58083000Y-38633878D01*
X58226761Y-38738327D01*
X58345664Y-38870383D01*
X58434514Y-39024274D01*
X58489425Y-39193275D01*
X58508000Y-39370000D01*
X58489425Y-39546725D01*
X58434514Y-39715726D01*
X58345664Y-39869617D01*
X58226761Y-40001673D01*
X58083000Y-40106122D01*
X57920664Y-40178398D01*
X57746849Y-40215344D01*
X57569151Y-40215344D01*
X57395336Y-40178398D01*
X57233000Y-40106122D01*
X57089239Y-40001673D01*
X56970336Y-39869617D01*
X56881486Y-39715726D01*
X56826575Y-39546725D01*
X56808000Y-39370000D01*
X56826575Y-39193275D01*
X56881486Y-39024274D01*
X56970336Y-38870383D01*
X57089239Y-38738327D01*
X57233000Y-38633878D01*
X57395336Y-38561602D01*
X57569151Y-38524656D01*
X57746849Y-38524656D01*
X57920664Y-38561602D01*
G37*
G36*
X60460664Y-38561602D02*
G01*
X60623000Y-38633878D01*
X60766761Y-38738327D01*
X60885664Y-38870383D01*
X60974514Y-39024274D01*
X61029425Y-39193275D01*
X61048000Y-39370000D01*
X61029425Y-39546725D01*
X60974514Y-39715726D01*
X60885664Y-39869617D01*
X60766761Y-40001673D01*
X60623000Y-40106122D01*
X60460664Y-40178398D01*
X60286849Y-40215344D01*
X60109151Y-40215344D01*
X59935336Y-40178398D01*
X59773000Y-40106122D01*
X59629239Y-40001673D01*
X59510336Y-39869617D01*
X59421486Y-39715726D01*
X59366575Y-39546725D01*
X59348000Y-39370000D01*
X59366575Y-39193275D01*
X59421486Y-39024274D01*
X59510336Y-38870383D01*
X59629239Y-38738327D01*
X59773000Y-38633878D01*
X59935336Y-38561602D01*
X60109151Y-38524656D01*
X60286849Y-38524656D01*
X60460664Y-38561602D01*
G37*
G36*
X63000664Y-38561602D02*
G01*
X63163000Y-38633878D01*
X63306761Y-38738327D01*
X63425664Y-38870383D01*
X63514514Y-39024274D01*
X63569425Y-39193275D01*
X63588000Y-39370000D01*
X63569425Y-39546725D01*
X63514514Y-39715726D01*
X63425664Y-39869617D01*
X63306761Y-40001673D01*
X63163000Y-40106122D01*
X63000664Y-40178398D01*
X62826849Y-40215344D01*
X62649151Y-40215344D01*
X62475336Y-40178398D01*
X62313000Y-40106122D01*
X62169239Y-40001673D01*
X62050336Y-39869617D01*
X61961486Y-39715726D01*
X61906575Y-39546725D01*
X61888000Y-39370000D01*
X61906575Y-39193275D01*
X61961486Y-39024274D01*
X62050336Y-38870383D01*
X62169239Y-38738327D01*
X62313000Y-38633878D01*
X62475336Y-38561602D01*
X62649151Y-38524656D01*
X62826849Y-38524656D01*
X63000664Y-38561602D01*
G37*
G36*
X24330850Y-38754964D02*
G01*
X24381040Y-38760787D01*
X24398189Y-38768359D01*
X24421671Y-38773030D01*
X24446810Y-38789827D01*
X24466696Y-38798608D01*
X24480277Y-38812189D01*
X24502777Y-38827223D01*
X24517810Y-38849722D01*
X24531391Y-38863303D01*
X24540170Y-38883186D01*
X24556970Y-38908329D01*
X24561641Y-38931812D01*
X24569212Y-38948959D01*
X24575033Y-38999139D01*
X24576000Y-39004000D01*
X24576000Y-39704000D01*
X24575032Y-39708863D01*
X24569212Y-39759040D01*
X24561641Y-39776185D01*
X24556970Y-39799671D01*
X24540169Y-39824815D01*
X24531391Y-39844696D01*
X24517812Y-39858274D01*
X24502777Y-39880777D01*
X24480274Y-39895812D01*
X24466696Y-39909391D01*
X24446815Y-39918169D01*
X24421671Y-39934970D01*
X24398185Y-39939641D01*
X24381040Y-39947212D01*
X24330861Y-39953032D01*
X24326000Y-39954000D01*
X23426000Y-39954000D01*
X23421138Y-39953032D01*
X23370959Y-39947212D01*
X23353812Y-39939641D01*
X23330329Y-39934970D01*
X23305186Y-39918170D01*
X23285303Y-39909391D01*
X23271722Y-39895810D01*
X23249223Y-39880777D01*
X23234189Y-39858277D01*
X23220608Y-39844696D01*
X23211827Y-39824810D01*
X23195030Y-39799671D01*
X23190359Y-39776189D01*
X23182787Y-39759040D01*
X23176964Y-39708849D01*
X23176000Y-39704000D01*
X23176000Y-39004000D01*
X23176964Y-38999150D01*
X23182787Y-38948959D01*
X23190359Y-38931808D01*
X23195030Y-38908329D01*
X23211826Y-38883191D01*
X23220608Y-38863303D01*
X23234191Y-38849719D01*
X23249223Y-38827223D01*
X23271719Y-38812191D01*
X23285303Y-38798608D01*
X23305191Y-38789826D01*
X23330329Y-38773030D01*
X23353808Y-38768359D01*
X23370959Y-38760787D01*
X23421151Y-38754964D01*
X23426000Y-38754000D01*
X24326000Y-38754000D01*
X24330850Y-38754964D01*
G37*
G36*
X28194000Y-39061600D02*
G01*
X25694000Y-39061600D01*
X25694000Y-38061600D01*
X28194000Y-38061600D01*
X28194000Y-39061600D01*
G37*
G36*
X43394000Y-39061600D02*
G01*
X40894000Y-39061600D01*
X40894000Y-38061600D01*
X43394000Y-38061600D01*
X43394000Y-39061600D01*
G37*
G36*
X24330850Y-36754964D02*
G01*
X24381040Y-36760787D01*
X24398189Y-36768359D01*
X24421671Y-36773030D01*
X24446810Y-36789827D01*
X24466696Y-36798608D01*
X24480277Y-36812189D01*
X24502777Y-36827223D01*
X24517810Y-36849722D01*
X24531391Y-36863303D01*
X24540170Y-36883186D01*
X24556970Y-36908329D01*
X24561641Y-36931812D01*
X24569212Y-36948959D01*
X24575033Y-36999139D01*
X24576000Y-37004000D01*
X24576000Y-37704000D01*
X24575032Y-37708863D01*
X24569212Y-37759040D01*
X24561641Y-37776185D01*
X24556970Y-37799671D01*
X24540169Y-37824815D01*
X24531391Y-37844696D01*
X24517812Y-37858274D01*
X24502777Y-37880777D01*
X24480274Y-37895812D01*
X24466696Y-37909391D01*
X24446815Y-37918169D01*
X24421671Y-37934970D01*
X24398185Y-37939641D01*
X24381040Y-37947212D01*
X24330861Y-37953032D01*
X24326000Y-37954000D01*
X23426000Y-37954000D01*
X23421138Y-37953032D01*
X23370959Y-37947212D01*
X23353812Y-37939641D01*
X23330329Y-37934970D01*
X23305186Y-37918170D01*
X23285303Y-37909391D01*
X23271722Y-37895810D01*
X23249223Y-37880777D01*
X23234189Y-37858277D01*
X23220608Y-37844696D01*
X23211827Y-37824810D01*
X23195030Y-37799671D01*
X23190359Y-37776189D01*
X23182787Y-37759040D01*
X23176964Y-37708849D01*
X23176000Y-37704000D01*
X23176000Y-37004000D01*
X23176964Y-36999150D01*
X23182787Y-36948959D01*
X23190359Y-36931808D01*
X23195030Y-36908329D01*
X23211826Y-36883191D01*
X23220608Y-36863303D01*
X23234191Y-36849719D01*
X23249223Y-36827223D01*
X23271719Y-36812191D01*
X23285303Y-36798608D01*
X23305191Y-36789826D01*
X23330329Y-36773030D01*
X23353808Y-36768359D01*
X23370959Y-36760787D01*
X23421151Y-36754964D01*
X23426000Y-36754000D01*
X24326000Y-36754000D01*
X24330850Y-36754964D01*
G37*
G36*
X45666850Y-35960964D02*
G01*
X45717040Y-35966787D01*
X45734189Y-35974359D01*
X45757671Y-35979030D01*
X45782810Y-35995827D01*
X45802696Y-36004608D01*
X45816277Y-36018189D01*
X45838777Y-36033223D01*
X45853810Y-36055722D01*
X45867391Y-36069303D01*
X45876170Y-36089186D01*
X45892970Y-36114329D01*
X45897641Y-36137812D01*
X45905212Y-36154959D01*
X45911033Y-36205139D01*
X45912000Y-36210000D01*
X45912000Y-36910000D01*
X45911032Y-36914863D01*
X45905212Y-36965040D01*
X45897641Y-36982185D01*
X45892970Y-37005671D01*
X45876169Y-37030815D01*
X45867391Y-37050696D01*
X45853812Y-37064274D01*
X45838777Y-37086777D01*
X45816274Y-37101812D01*
X45802696Y-37115391D01*
X45782815Y-37124169D01*
X45757671Y-37140970D01*
X45734185Y-37145641D01*
X45717040Y-37153212D01*
X45666861Y-37159032D01*
X45662000Y-37160000D01*
X44762000Y-37160000D01*
X44757138Y-37159032D01*
X44706959Y-37153212D01*
X44689812Y-37145641D01*
X44666329Y-37140970D01*
X44641186Y-37124170D01*
X44621303Y-37115391D01*
X44607722Y-37101810D01*
X44585223Y-37086777D01*
X44570189Y-37064277D01*
X44556608Y-37050696D01*
X44547827Y-37030810D01*
X44531030Y-37005671D01*
X44526359Y-36982189D01*
X44518787Y-36965040D01*
X44512964Y-36914849D01*
X44512000Y-36910000D01*
X44512000Y-36210000D01*
X44512964Y-36205150D01*
X44518787Y-36154959D01*
X44526359Y-36137808D01*
X44531030Y-36114329D01*
X44547826Y-36089191D01*
X44556608Y-36069303D01*
X44570191Y-36055719D01*
X44585223Y-36033223D01*
X44607719Y-36018191D01*
X44621303Y-36004608D01*
X44641191Y-35995826D01*
X44666329Y-35979030D01*
X44689808Y-35974359D01*
X44706959Y-35966787D01*
X44757151Y-35960964D01*
X44762000Y-35960000D01*
X45662000Y-35960000D01*
X45666850Y-35960964D01*
G37*
G36*
X47868850Y-35749964D02*
G01*
X47919040Y-35755787D01*
X47936189Y-35763359D01*
X47959671Y-35768030D01*
X47984810Y-35784827D01*
X48004696Y-35793608D01*
X48018277Y-35807189D01*
X48040777Y-35822223D01*
X48055810Y-35844722D01*
X48069391Y-35858303D01*
X48078170Y-35878186D01*
X48094970Y-35903329D01*
X48099641Y-35926812D01*
X48107212Y-35943959D01*
X48113033Y-35994139D01*
X48114000Y-35999000D01*
X48114000Y-36899000D01*
X48113032Y-36903863D01*
X48107212Y-36954040D01*
X48099641Y-36971185D01*
X48094970Y-36994671D01*
X48078169Y-37019815D01*
X48069391Y-37039696D01*
X48055812Y-37053274D01*
X48040777Y-37075777D01*
X48018274Y-37090812D01*
X48004696Y-37104391D01*
X47984815Y-37113169D01*
X47959671Y-37129970D01*
X47936185Y-37134641D01*
X47919040Y-37142212D01*
X47868861Y-37148032D01*
X47864000Y-37149000D01*
X47164000Y-37149000D01*
X47159138Y-37148032D01*
X47108959Y-37142212D01*
X47091812Y-37134641D01*
X47068329Y-37129970D01*
X47043186Y-37113170D01*
X47023303Y-37104391D01*
X47009722Y-37090810D01*
X46987223Y-37075777D01*
X46972189Y-37053277D01*
X46958608Y-37039696D01*
X46949827Y-37019810D01*
X46933030Y-36994671D01*
X46928359Y-36971189D01*
X46920787Y-36954040D01*
X46914964Y-36903849D01*
X46914000Y-36899000D01*
X46914000Y-35999000D01*
X46914964Y-35994150D01*
X46920787Y-35943959D01*
X46928359Y-35926808D01*
X46933030Y-35903329D01*
X46949826Y-35878191D01*
X46958608Y-35858303D01*
X46972191Y-35844719D01*
X46987223Y-35822223D01*
X47009719Y-35807191D01*
X47023303Y-35793608D01*
X47043191Y-35784826D01*
X47068329Y-35768030D01*
X47091808Y-35763359D01*
X47108959Y-35755787D01*
X47159151Y-35749964D01*
X47164000Y-35749000D01*
X47864000Y-35749000D01*
X47868850Y-35749964D01*
G37*
G36*
X49868850Y-35749964D02*
G01*
X49919040Y-35755787D01*
X49936189Y-35763359D01*
X49959671Y-35768030D01*
X49984810Y-35784827D01*
X50004696Y-35793608D01*
X50018277Y-35807189D01*
X50040777Y-35822223D01*
X50055810Y-35844722D01*
X50069391Y-35858303D01*
X50078170Y-35878186D01*
X50094970Y-35903329D01*
X50099641Y-35926812D01*
X50107212Y-35943959D01*
X50113033Y-35994139D01*
X50114000Y-35999000D01*
X50114000Y-36899000D01*
X50113032Y-36903863D01*
X50107212Y-36954040D01*
X50099641Y-36971185D01*
X50094970Y-36994671D01*
X50078169Y-37019815D01*
X50069391Y-37039696D01*
X50055812Y-37053274D01*
X50040777Y-37075777D01*
X50018274Y-37090812D01*
X50004696Y-37104391D01*
X49984815Y-37113169D01*
X49959671Y-37129970D01*
X49936185Y-37134641D01*
X49919040Y-37142212D01*
X49868861Y-37148032D01*
X49864000Y-37149000D01*
X49164000Y-37149000D01*
X49159138Y-37148032D01*
X49108959Y-37142212D01*
X49091812Y-37134641D01*
X49068329Y-37129970D01*
X49043186Y-37113170D01*
X49023303Y-37104391D01*
X49009722Y-37090810D01*
X48987223Y-37075777D01*
X48972189Y-37053277D01*
X48958608Y-37039696D01*
X48949827Y-37019810D01*
X48933030Y-36994671D01*
X48928359Y-36971189D01*
X48920787Y-36954040D01*
X48914964Y-36903849D01*
X48914000Y-36899000D01*
X48914000Y-35999000D01*
X48914964Y-35994150D01*
X48920787Y-35943959D01*
X48928359Y-35926808D01*
X48933030Y-35903329D01*
X48949826Y-35878191D01*
X48958608Y-35858303D01*
X48972191Y-35844719D01*
X48987223Y-35822223D01*
X49009719Y-35807191D01*
X49023303Y-35793608D01*
X49043191Y-35784826D01*
X49068329Y-35768030D01*
X49091808Y-35763359D01*
X49108959Y-35755787D01*
X49159151Y-35749964D01*
X49164000Y-35749000D01*
X49864000Y-35749000D01*
X49868850Y-35749964D01*
G37*
G36*
X28194000Y-37061600D02*
G01*
X25694000Y-37061600D01*
X25694000Y-36061600D01*
X28194000Y-36061600D01*
X28194000Y-37061600D01*
G37*
G36*
X43394000Y-37061600D02*
G01*
X40894000Y-37061600D01*
X40894000Y-36061600D01*
X43394000Y-36061600D01*
X43394000Y-37061600D01*
G37*
G36*
X59552850Y-35368964D02*
G01*
X59603040Y-35374787D01*
X59620189Y-35382359D01*
X59643671Y-35387030D01*
X59668810Y-35403827D01*
X59688696Y-35412608D01*
X59702277Y-35426189D01*
X59724777Y-35441223D01*
X59739810Y-35463722D01*
X59753391Y-35477303D01*
X59762170Y-35497186D01*
X59778970Y-35522329D01*
X59783641Y-35545812D01*
X59791212Y-35562959D01*
X59797033Y-35613139D01*
X59798000Y-35618000D01*
X59798000Y-36518000D01*
X59797032Y-36522863D01*
X59791212Y-36573040D01*
X59783641Y-36590185D01*
X59778970Y-36613671D01*
X59762169Y-36638815D01*
X59753391Y-36658696D01*
X59739812Y-36672274D01*
X59724777Y-36694777D01*
X59702274Y-36709812D01*
X59688696Y-36723391D01*
X59668815Y-36732169D01*
X59643671Y-36748970D01*
X59620185Y-36753641D01*
X59603040Y-36761212D01*
X59552861Y-36767032D01*
X59548000Y-36768000D01*
X58848000Y-36768000D01*
X58843138Y-36767032D01*
X58792959Y-36761212D01*
X58775812Y-36753641D01*
X58752329Y-36748970D01*
X58727186Y-36732170D01*
X58707303Y-36723391D01*
X58693722Y-36709810D01*
X58671223Y-36694777D01*
X58656189Y-36672277D01*
X58642608Y-36658696D01*
X58633827Y-36638810D01*
X58617030Y-36613671D01*
X58612359Y-36590189D01*
X58604787Y-36573040D01*
X58598964Y-36522849D01*
X58598000Y-36518000D01*
X58598000Y-35618000D01*
X58598964Y-35613150D01*
X58604787Y-35562959D01*
X58612359Y-35545808D01*
X58617030Y-35522329D01*
X58633826Y-35497191D01*
X58642608Y-35477303D01*
X58656191Y-35463719D01*
X58671223Y-35441223D01*
X58693719Y-35426191D01*
X58707303Y-35412608D01*
X58727191Y-35403826D01*
X58752329Y-35387030D01*
X58775808Y-35382359D01*
X58792959Y-35374787D01*
X58843151Y-35368964D01*
X58848000Y-35368000D01*
X59548000Y-35368000D01*
X59552850Y-35368964D01*
G37*
G36*
X61552850Y-35368964D02*
G01*
X61603040Y-35374787D01*
X61620189Y-35382359D01*
X61643671Y-35387030D01*
X61668810Y-35403827D01*
X61688696Y-35412608D01*
X61702277Y-35426189D01*
X61724777Y-35441223D01*
X61739810Y-35463722D01*
X61753391Y-35477303D01*
X61762170Y-35497186D01*
X61778970Y-35522329D01*
X61783641Y-35545812D01*
X61791212Y-35562959D01*
X61797033Y-35613139D01*
X61798000Y-35618000D01*
X61798000Y-36518000D01*
X61797032Y-36522863D01*
X61791212Y-36573040D01*
X61783641Y-36590185D01*
X61778970Y-36613671D01*
X61762169Y-36638815D01*
X61753391Y-36658696D01*
X61739812Y-36672274D01*
X61724777Y-36694777D01*
X61702274Y-36709812D01*
X61688696Y-36723391D01*
X61668815Y-36732169D01*
X61643671Y-36748970D01*
X61620185Y-36753641D01*
X61603040Y-36761212D01*
X61552861Y-36767032D01*
X61548000Y-36768000D01*
X60848000Y-36768000D01*
X60843138Y-36767032D01*
X60792959Y-36761212D01*
X60775812Y-36753641D01*
X60752329Y-36748970D01*
X60727186Y-36732170D01*
X60707303Y-36723391D01*
X60693722Y-36709810D01*
X60671223Y-36694777D01*
X60656189Y-36672277D01*
X60642608Y-36658696D01*
X60633827Y-36638810D01*
X60617030Y-36613671D01*
X60612359Y-36590189D01*
X60604787Y-36573040D01*
X60598964Y-36522849D01*
X60598000Y-36518000D01*
X60598000Y-35618000D01*
X60598964Y-35613150D01*
X60604787Y-35562959D01*
X60612359Y-35545808D01*
X60617030Y-35522329D01*
X60633826Y-35497191D01*
X60642608Y-35477303D01*
X60656191Y-35463719D01*
X60671223Y-35441223D01*
X60693719Y-35426191D01*
X60707303Y-35412608D01*
X60727191Y-35403826D01*
X60752329Y-35387030D01*
X60775808Y-35382359D01*
X60792959Y-35374787D01*
X60843151Y-35368964D01*
X60848000Y-35368000D01*
X61548000Y-35368000D01*
X61552850Y-35368964D01*
G37*
G36*
X45666850Y-33960964D02*
G01*
X45717040Y-33966787D01*
X45734189Y-33974359D01*
X45757671Y-33979030D01*
X45782810Y-33995827D01*
X45802696Y-34004608D01*
X45816277Y-34018189D01*
X45838777Y-34033223D01*
X45853810Y-34055722D01*
X45867391Y-34069303D01*
X45876170Y-34089186D01*
X45892970Y-34114329D01*
X45897641Y-34137812D01*
X45905212Y-34154959D01*
X45911033Y-34205139D01*
X45912000Y-34210000D01*
X45912000Y-34910000D01*
X45911032Y-34914863D01*
X45905212Y-34965040D01*
X45897641Y-34982185D01*
X45892970Y-35005671D01*
X45876169Y-35030815D01*
X45867391Y-35050696D01*
X45853812Y-35064274D01*
X45838777Y-35086777D01*
X45816274Y-35101812D01*
X45802696Y-35115391D01*
X45782815Y-35124169D01*
X45757671Y-35140970D01*
X45734185Y-35145641D01*
X45717040Y-35153212D01*
X45666861Y-35159032D01*
X45662000Y-35160000D01*
X44762000Y-35160000D01*
X44757138Y-35159032D01*
X44706959Y-35153212D01*
X44689812Y-35145641D01*
X44666329Y-35140970D01*
X44641186Y-35124170D01*
X44621303Y-35115391D01*
X44607722Y-35101810D01*
X44585223Y-35086777D01*
X44570189Y-35064277D01*
X44556608Y-35050696D01*
X44547827Y-35030810D01*
X44531030Y-35005671D01*
X44526359Y-34982189D01*
X44518787Y-34965040D01*
X44512964Y-34914849D01*
X44512000Y-34910000D01*
X44512000Y-34210000D01*
X44512964Y-34205150D01*
X44518787Y-34154959D01*
X44526359Y-34137808D01*
X44531030Y-34114329D01*
X44547826Y-34089191D01*
X44556608Y-34069303D01*
X44570191Y-34055719D01*
X44585223Y-34033223D01*
X44607719Y-34018191D01*
X44621303Y-34004608D01*
X44641191Y-33995826D01*
X44666329Y-33979030D01*
X44689808Y-33974359D01*
X44706959Y-33966787D01*
X44757151Y-33960964D01*
X44762000Y-33960000D01*
X45662000Y-33960000D01*
X45666850Y-33960964D01*
G37*
G36*
X28194000Y-35061600D02*
G01*
X25694000Y-35061600D01*
X25694000Y-34061600D01*
X28194000Y-34061600D01*
X28194000Y-35061600D01*
G37*
G36*
X43394000Y-35061600D02*
G01*
X40894000Y-35061600D01*
X40894000Y-34061600D01*
X43394000Y-34061600D01*
X43394000Y-35061600D01*
G37*
G36*
X48853000Y-34624000D02*
G01*
X46953000Y-34624000D01*
X46953000Y-33824000D01*
X48853000Y-33824000D01*
X48853000Y-34624000D01*
G37*
G36*
X59552850Y-33082964D02*
G01*
X59603040Y-33088787D01*
X59620189Y-33096359D01*
X59643671Y-33101030D01*
X59668810Y-33117827D01*
X59688696Y-33126608D01*
X59702277Y-33140189D01*
X59724777Y-33155223D01*
X59739810Y-33177722D01*
X59753391Y-33191303D01*
X59762170Y-33211186D01*
X59778970Y-33236329D01*
X59783641Y-33259812D01*
X59791212Y-33276959D01*
X59797033Y-33327139D01*
X59798000Y-33332000D01*
X59798000Y-34232000D01*
X59797032Y-34236863D01*
X59791212Y-34287040D01*
X59783641Y-34304185D01*
X59778970Y-34327671D01*
X59762169Y-34352815D01*
X59753391Y-34372696D01*
X59739812Y-34386274D01*
X59724777Y-34408777D01*
X59702274Y-34423812D01*
X59688696Y-34437391D01*
X59668815Y-34446169D01*
X59643671Y-34462970D01*
X59620185Y-34467641D01*
X59603040Y-34475212D01*
X59552861Y-34481032D01*
X59548000Y-34482000D01*
X58848000Y-34482000D01*
X58843138Y-34481032D01*
X58792959Y-34475212D01*
X58775812Y-34467641D01*
X58752329Y-34462970D01*
X58727186Y-34446170D01*
X58707303Y-34437391D01*
X58693722Y-34423810D01*
X58671223Y-34408777D01*
X58656189Y-34386277D01*
X58642608Y-34372696D01*
X58633827Y-34352810D01*
X58617030Y-34327671D01*
X58612359Y-34304189D01*
X58604787Y-34287040D01*
X58598964Y-34236849D01*
X58598000Y-34232000D01*
X58598000Y-33332000D01*
X58598964Y-33327150D01*
X58604787Y-33276959D01*
X58612359Y-33259808D01*
X58617030Y-33236329D01*
X58633826Y-33211191D01*
X58642608Y-33191303D01*
X58656191Y-33177719D01*
X58671223Y-33155223D01*
X58693719Y-33140191D01*
X58707303Y-33126608D01*
X58727191Y-33117826D01*
X58752329Y-33101030D01*
X58775808Y-33096359D01*
X58792959Y-33088787D01*
X58843151Y-33082964D01*
X58848000Y-33082000D01*
X59548000Y-33082000D01*
X59552850Y-33082964D01*
G37*
G36*
X61552850Y-33082964D02*
G01*
X61603040Y-33088787D01*
X61620189Y-33096359D01*
X61643671Y-33101030D01*
X61668810Y-33117827D01*
X61688696Y-33126608D01*
X61702277Y-33140189D01*
X61724777Y-33155223D01*
X61739810Y-33177722D01*
X61753391Y-33191303D01*
X61762170Y-33211186D01*
X61778970Y-33236329D01*
X61783641Y-33259812D01*
X61791212Y-33276959D01*
X61797033Y-33327139D01*
X61798000Y-33332000D01*
X61798000Y-34232000D01*
X61797032Y-34236863D01*
X61791212Y-34287040D01*
X61783641Y-34304185D01*
X61778970Y-34327671D01*
X61762169Y-34352815D01*
X61753391Y-34372696D01*
X61739812Y-34386274D01*
X61724777Y-34408777D01*
X61702274Y-34423812D01*
X61688696Y-34437391D01*
X61668815Y-34446169D01*
X61643671Y-34462970D01*
X61620185Y-34467641D01*
X61603040Y-34475212D01*
X61552861Y-34481032D01*
X61548000Y-34482000D01*
X60848000Y-34482000D01*
X60843138Y-34481032D01*
X60792959Y-34475212D01*
X60775812Y-34467641D01*
X60752329Y-34462970D01*
X60727186Y-34446170D01*
X60707303Y-34437391D01*
X60693722Y-34423810D01*
X60671223Y-34408777D01*
X60656189Y-34386277D01*
X60642608Y-34372696D01*
X60633827Y-34352810D01*
X60617030Y-34327671D01*
X60612359Y-34304189D01*
X60604787Y-34287040D01*
X60598964Y-34236849D01*
X60598000Y-34232000D01*
X60598000Y-33332000D01*
X60598964Y-33327150D01*
X60604787Y-33276959D01*
X60612359Y-33259808D01*
X60617030Y-33236329D01*
X60633826Y-33211191D01*
X60642608Y-33191303D01*
X60656191Y-33177719D01*
X60671223Y-33155223D01*
X60693719Y-33140191D01*
X60707303Y-33126608D01*
X60727191Y-33117826D01*
X60752329Y-33101030D01*
X60775808Y-33096359D01*
X60792959Y-33088787D01*
X60843151Y-33082964D01*
X60848000Y-33082000D01*
X61548000Y-33082000D01*
X61552850Y-33082964D01*
G37*
G36*
X51853000Y-33674000D02*
G01*
X49953000Y-33674000D01*
X49953000Y-32874000D01*
X51853000Y-32874000D01*
X51853000Y-33674000D01*
G37*
G36*
X28194000Y-33061600D02*
G01*
X25694000Y-33061600D01*
X25694000Y-32061600D01*
X28194000Y-32061600D01*
X28194000Y-33061600D01*
G37*
G36*
X43394000Y-33061600D02*
G01*
X40894000Y-33061600D01*
X40894000Y-32061600D01*
X43394000Y-32061600D01*
X43394000Y-33061600D01*
G37*
G36*
X54102850Y-31340964D02*
G01*
X54153040Y-31346787D01*
X54170189Y-31354359D01*
X54193671Y-31359030D01*
X54218810Y-31375827D01*
X54238696Y-31384608D01*
X54252277Y-31398189D01*
X54274777Y-31413223D01*
X54289810Y-31435722D01*
X54303391Y-31449303D01*
X54312170Y-31469186D01*
X54328970Y-31494329D01*
X54333641Y-31517812D01*
X54341212Y-31534959D01*
X54347033Y-31585139D01*
X54348000Y-31590000D01*
X54348000Y-32540000D01*
X54347032Y-32544863D01*
X54341212Y-32595040D01*
X54333641Y-32612185D01*
X54328970Y-32635671D01*
X54312169Y-32660815D01*
X54303391Y-32680696D01*
X54289812Y-32694274D01*
X54274777Y-32716777D01*
X54252274Y-32731812D01*
X54238696Y-32745391D01*
X54218815Y-32754169D01*
X54193671Y-32770970D01*
X54170185Y-32775641D01*
X54153040Y-32783212D01*
X54102861Y-32789032D01*
X54098000Y-32790000D01*
X53423000Y-32790000D01*
X53418138Y-32789032D01*
X53367959Y-32783212D01*
X53350812Y-32775641D01*
X53327329Y-32770970D01*
X53302186Y-32754170D01*
X53282303Y-32745391D01*
X53268722Y-32731810D01*
X53246223Y-32716777D01*
X53231189Y-32694277D01*
X53217608Y-32680696D01*
X53208827Y-32660810D01*
X53192030Y-32635671D01*
X53187359Y-32612189D01*
X53179787Y-32595040D01*
X53173964Y-32544849D01*
X53173000Y-32540000D01*
X53173000Y-31590000D01*
X53173964Y-31585150D01*
X53179787Y-31534959D01*
X53187359Y-31517808D01*
X53192030Y-31494329D01*
X53208826Y-31469191D01*
X53217608Y-31449303D01*
X53231191Y-31435719D01*
X53246223Y-31413223D01*
X53268719Y-31398191D01*
X53282303Y-31384608D01*
X53302191Y-31375826D01*
X53327329Y-31359030D01*
X53350808Y-31354359D01*
X53367959Y-31346787D01*
X53418151Y-31340964D01*
X53423000Y-31340000D01*
X54098000Y-31340000D01*
X54102850Y-31340964D01*
G37*
G36*
X56177850Y-31340964D02*
G01*
X56228040Y-31346787D01*
X56245189Y-31354359D01*
X56268671Y-31359030D01*
X56293810Y-31375827D01*
X56313696Y-31384608D01*
X56327277Y-31398189D01*
X56349777Y-31413223D01*
X56364810Y-31435722D01*
X56378391Y-31449303D01*
X56387170Y-31469186D01*
X56403970Y-31494329D01*
X56408641Y-31517812D01*
X56416212Y-31534959D01*
X56422033Y-31585139D01*
X56423000Y-31590000D01*
X56423000Y-32540000D01*
X56422032Y-32544863D01*
X56416212Y-32595040D01*
X56408641Y-32612185D01*
X56403970Y-32635671D01*
X56387169Y-32660815D01*
X56378391Y-32680696D01*
X56364812Y-32694274D01*
X56349777Y-32716777D01*
X56327274Y-32731812D01*
X56313696Y-32745391D01*
X56293815Y-32754169D01*
X56268671Y-32770970D01*
X56245185Y-32775641D01*
X56228040Y-32783212D01*
X56177861Y-32789032D01*
X56173000Y-32790000D01*
X55498000Y-32790000D01*
X55493138Y-32789032D01*
X55442959Y-32783212D01*
X55425812Y-32775641D01*
X55402329Y-32770970D01*
X55377186Y-32754170D01*
X55357303Y-32745391D01*
X55343722Y-32731810D01*
X55321223Y-32716777D01*
X55306189Y-32694277D01*
X55292608Y-32680696D01*
X55283827Y-32660810D01*
X55267030Y-32635671D01*
X55262359Y-32612189D01*
X55254787Y-32595040D01*
X55248964Y-32544849D01*
X55248000Y-32540000D01*
X55248000Y-31590000D01*
X55248964Y-31585150D01*
X55254787Y-31534959D01*
X55262359Y-31517808D01*
X55267030Y-31494329D01*
X55283826Y-31469191D01*
X55292608Y-31449303D01*
X55306191Y-31435719D01*
X55321223Y-31413223D01*
X55343719Y-31398191D01*
X55357303Y-31384608D01*
X55377191Y-31375826D01*
X55402329Y-31359030D01*
X55425808Y-31354359D01*
X55442959Y-31346787D01*
X55493151Y-31340964D01*
X55498000Y-31340000D01*
X56173000Y-31340000D01*
X56177850Y-31340964D01*
G37*
G36*
X48853000Y-32724000D02*
G01*
X46953000Y-32724000D01*
X46953000Y-31924000D01*
X48853000Y-31924000D01*
X48853000Y-32724000D01*
G37*
G36*
X59806850Y-28460964D02*
G01*
X59857040Y-28466787D01*
X59874189Y-28474359D01*
X59897671Y-28479030D01*
X59922810Y-28495827D01*
X59942696Y-28504608D01*
X59956277Y-28518189D01*
X59978777Y-28533223D01*
X59993810Y-28555722D01*
X60007391Y-28569303D01*
X60016170Y-28589186D01*
X60032970Y-28614329D01*
X60037641Y-28637812D01*
X60045212Y-28654959D01*
X60051033Y-28705139D01*
X60052000Y-28710000D01*
X60052000Y-31610000D01*
X60051032Y-31614863D01*
X60045212Y-31665040D01*
X60037641Y-31682185D01*
X60032970Y-31705671D01*
X60016169Y-31730815D01*
X60007391Y-31750696D01*
X59993812Y-31764274D01*
X59978777Y-31786777D01*
X59956274Y-31801812D01*
X59942696Y-31815391D01*
X59922815Y-31824169D01*
X59897671Y-31840970D01*
X59874185Y-31845641D01*
X59857040Y-31853212D01*
X59806861Y-31859032D01*
X59802000Y-31860000D01*
X58727000Y-31860000D01*
X58722138Y-31859032D01*
X58671959Y-31853212D01*
X58654812Y-31845641D01*
X58631329Y-31840970D01*
X58606186Y-31824170D01*
X58586303Y-31815391D01*
X58572722Y-31801810D01*
X58550223Y-31786777D01*
X58535189Y-31764277D01*
X58521608Y-31750696D01*
X58512827Y-31730810D01*
X58496030Y-31705671D01*
X58491359Y-31682189D01*
X58483787Y-31665040D01*
X58477964Y-31614849D01*
X58477000Y-31610000D01*
X58477000Y-28710000D01*
X58477964Y-28705150D01*
X58483787Y-28654959D01*
X58491359Y-28637808D01*
X58496030Y-28614329D01*
X58512826Y-28589191D01*
X58521608Y-28569303D01*
X58535191Y-28555719D01*
X58550223Y-28533223D01*
X58572719Y-28518191D01*
X58586303Y-28504608D01*
X58606191Y-28495826D01*
X58631329Y-28479030D01*
X58654808Y-28474359D01*
X58671959Y-28466787D01*
X58722151Y-28460964D01*
X58727000Y-28460000D01*
X59802000Y-28460000D01*
X59806850Y-28460964D01*
G37*
G36*
X64081850Y-28460964D02*
G01*
X64132040Y-28466787D01*
X64149189Y-28474359D01*
X64172671Y-28479030D01*
X64197810Y-28495827D01*
X64217696Y-28504608D01*
X64231277Y-28518189D01*
X64253777Y-28533223D01*
X64268810Y-28555722D01*
X64282391Y-28569303D01*
X64291170Y-28589186D01*
X64307970Y-28614329D01*
X64312641Y-28637812D01*
X64320212Y-28654959D01*
X64326033Y-28705139D01*
X64327000Y-28710000D01*
X64327000Y-31610000D01*
X64326032Y-31614863D01*
X64320212Y-31665040D01*
X64312641Y-31682185D01*
X64307970Y-31705671D01*
X64291169Y-31730815D01*
X64282391Y-31750696D01*
X64268812Y-31764274D01*
X64253777Y-31786777D01*
X64231274Y-31801812D01*
X64217696Y-31815391D01*
X64197815Y-31824169D01*
X64172671Y-31840970D01*
X64149185Y-31845641D01*
X64132040Y-31853212D01*
X64081861Y-31859032D01*
X64077000Y-31860000D01*
X63002000Y-31860000D01*
X62997138Y-31859032D01*
X62946959Y-31853212D01*
X62929812Y-31845641D01*
X62906329Y-31840970D01*
X62881186Y-31824170D01*
X62861303Y-31815391D01*
X62847722Y-31801810D01*
X62825223Y-31786777D01*
X62810189Y-31764277D01*
X62796608Y-31750696D01*
X62787827Y-31730810D01*
X62771030Y-31705671D01*
X62766359Y-31682189D01*
X62758787Y-31665040D01*
X62752964Y-31614849D01*
X62752000Y-31610000D01*
X62752000Y-28710000D01*
X62752964Y-28705150D01*
X62758787Y-28654959D01*
X62766359Y-28637808D01*
X62771030Y-28614329D01*
X62787826Y-28589191D01*
X62796608Y-28569303D01*
X62810191Y-28555719D01*
X62825223Y-28533223D01*
X62847719Y-28518191D01*
X62861303Y-28504608D01*
X62881191Y-28495826D01*
X62906329Y-28479030D01*
X62929808Y-28474359D01*
X62946959Y-28466787D01*
X62997151Y-28460964D01*
X63002000Y-28460000D01*
X64077000Y-28460000D01*
X64081850Y-28460964D01*
G37*
G36*
X28194000Y-31061600D02*
G01*
X25694000Y-31061600D01*
X25694000Y-30061600D01*
X28194000Y-30061600D01*
X28194000Y-31061600D01*
G37*
G36*
X43394000Y-31061600D02*
G01*
X40894000Y-31061600D01*
X40894000Y-30061600D01*
X43394000Y-30061600D01*
X43394000Y-31061600D01*
G37*
G36*
X28194000Y-29061600D02*
G01*
X25694000Y-29061600D01*
X25694000Y-28061600D01*
X28194000Y-28061600D01*
X28194000Y-29061600D01*
G37*
G36*
X43394000Y-29061600D02*
G01*
X40894000Y-29061600D01*
X40894000Y-28061600D01*
X43394000Y-28061600D01*
X43394000Y-29061600D01*
G37*
G36*
X20147113Y-26504930D02*
G01*
X20194076Y-26504930D01*
X20234622Y-26513548D01*
X20275526Y-26517577D01*
X20326916Y-26533166D01*
X20378115Y-26544049D01*
X20410879Y-26558636D01*
X20444304Y-26568776D01*
X20497420Y-26597166D01*
X20550000Y-26620577D01*
X20574445Y-26638337D01*
X20599849Y-26651916D01*
X20651669Y-26694444D01*
X20702218Y-26731170D01*
X20718631Y-26749398D01*
X20736190Y-26763809D01*
X20783379Y-26821308D01*
X20828115Y-26870993D01*
X20837512Y-26887269D01*
X20848083Y-26900150D01*
X20887183Y-26973302D01*
X20922191Y-27033937D01*
X20926218Y-27046331D01*
X20931223Y-27055695D01*
X20958821Y-27146672D01*
X20980333Y-27212879D01*
X20981090Y-27220082D01*
X20982422Y-27224473D01*
X20995377Y-27356021D01*
X21000000Y-27400000D01*
X20995377Y-27443982D01*
X20982422Y-27575526D01*
X20981090Y-27579916D01*
X20980333Y-27587121D01*
X20958816Y-27653341D01*
X20931223Y-27744304D01*
X20926219Y-27753665D01*
X20922191Y-27766063D01*
X20887176Y-27826709D01*
X20848083Y-27899849D01*
X20837514Y-27912726D01*
X20828115Y-27929007D01*
X20783369Y-27978701D01*
X20736190Y-28036190D01*
X20718634Y-28050597D01*
X20702218Y-28068830D01*
X20651659Y-28105563D01*
X20599849Y-28148083D01*
X20574450Y-28161658D01*
X20550000Y-28179423D01*
X20497408Y-28202838D01*
X20444304Y-28231223D01*
X20410886Y-28241360D01*
X20378115Y-28255951D01*
X20326905Y-28266836D01*
X20275526Y-28282422D01*
X20234631Y-28286449D01*
X20194076Y-28295070D01*
X20147103Y-28295070D01*
X20100000Y-28299709D01*
X20052897Y-28295070D01*
X20005924Y-28295070D01*
X19965368Y-28286449D01*
X19924473Y-28282422D01*
X19873091Y-28266835D01*
X19821885Y-28255951D01*
X19789115Y-28241361D01*
X19755695Y-28231223D01*
X19702585Y-28202835D01*
X19650000Y-28179423D01*
X19625552Y-28161660D01*
X19600150Y-28148083D01*
X19548332Y-28105556D01*
X19497782Y-28068830D01*
X19481368Y-28050600D01*
X19463809Y-28036190D01*
X19416618Y-27978688D01*
X19371885Y-27929007D01*
X19362487Y-27912730D01*
X19351916Y-27899849D01*
X19312810Y-27826686D01*
X19277809Y-27766063D01*
X19273782Y-27753670D01*
X19268776Y-27744304D01*
X19241168Y-27653294D01*
X19219667Y-27587121D01*
X19218910Y-27579921D01*
X19217577Y-27575526D01*
X19204606Y-27443831D01*
X19200000Y-27400000D01*
X19204606Y-27356172D01*
X19217577Y-27224473D01*
X19218910Y-27220077D01*
X19219667Y-27212879D01*
X19241163Y-27146719D01*
X19268776Y-27055695D01*
X19273783Y-27046327D01*
X19277809Y-27033937D01*
X19312802Y-26973326D01*
X19351916Y-26900150D01*
X19362489Y-26887265D01*
X19371885Y-26870993D01*
X19416609Y-26821321D01*
X19463809Y-26763809D01*
X19481371Y-26749395D01*
X19497782Y-26731170D01*
X19548321Y-26694450D01*
X19600150Y-26651916D01*
X19625557Y-26638335D01*
X19650000Y-26620577D01*
X19702573Y-26597169D01*
X19755695Y-26568776D01*
X19789122Y-26558635D01*
X19821885Y-26544049D01*
X19873080Y-26533166D01*
X19924473Y-26517577D01*
X19965377Y-26513548D01*
X20005924Y-26504930D01*
X20052887Y-26504930D01*
X20100000Y-26500290D01*
X20147113Y-26504930D01*
G37*
G36*
X67647113Y-26504930D02*
G01*
X67694076Y-26504930D01*
X67734622Y-26513548D01*
X67775526Y-26517577D01*
X67826916Y-26533166D01*
X67878115Y-26544049D01*
X67910879Y-26558636D01*
X67944304Y-26568776D01*
X67997420Y-26597166D01*
X68050000Y-26620577D01*
X68074445Y-26638337D01*
X68099849Y-26651916D01*
X68151669Y-26694444D01*
X68202218Y-26731170D01*
X68218631Y-26749398D01*
X68236190Y-26763809D01*
X68283379Y-26821308D01*
X68328115Y-26870993D01*
X68337512Y-26887269D01*
X68348083Y-26900150D01*
X68387183Y-26973302D01*
X68422191Y-27033937D01*
X68426218Y-27046331D01*
X68431223Y-27055695D01*
X68458821Y-27146672D01*
X68480333Y-27212879D01*
X68481090Y-27220082D01*
X68482422Y-27224473D01*
X68495378Y-27356032D01*
X68500000Y-27400000D01*
X68495376Y-27443993D01*
X68482422Y-27575526D01*
X68481090Y-27579916D01*
X68480333Y-27587121D01*
X68458816Y-27653341D01*
X68431223Y-27744304D01*
X68426219Y-27753665D01*
X68422191Y-27766063D01*
X68387176Y-27826709D01*
X68348083Y-27899849D01*
X68337514Y-27912726D01*
X68328115Y-27929007D01*
X68283369Y-27978701D01*
X68236190Y-28036190D01*
X68218634Y-28050597D01*
X68202218Y-28068830D01*
X68151659Y-28105563D01*
X68099849Y-28148083D01*
X68074450Y-28161658D01*
X68050000Y-28179423D01*
X67997408Y-28202838D01*
X67944304Y-28231223D01*
X67910886Y-28241360D01*
X67878115Y-28255951D01*
X67826905Y-28266836D01*
X67775526Y-28282422D01*
X67734631Y-28286449D01*
X67694076Y-28295070D01*
X67647103Y-28295070D01*
X67600000Y-28299709D01*
X67552897Y-28295070D01*
X67505924Y-28295070D01*
X67465368Y-28286449D01*
X67424473Y-28282422D01*
X67373091Y-28266835D01*
X67321885Y-28255951D01*
X67289115Y-28241361D01*
X67255695Y-28231223D01*
X67202585Y-28202835D01*
X67150000Y-28179423D01*
X67125552Y-28161660D01*
X67100150Y-28148083D01*
X67048332Y-28105556D01*
X66997782Y-28068830D01*
X66981368Y-28050600D01*
X66963809Y-28036190D01*
X66916618Y-27978688D01*
X66871885Y-27929007D01*
X66862487Y-27912730D01*
X66851916Y-27899849D01*
X66812810Y-27826686D01*
X66777809Y-27766063D01*
X66773782Y-27753670D01*
X66768776Y-27744304D01*
X66741168Y-27653294D01*
X66719667Y-27587121D01*
X66718910Y-27579921D01*
X66717577Y-27575526D01*
X66704606Y-27443831D01*
X66700000Y-27400000D01*
X66704606Y-27356172D01*
X66717577Y-27224473D01*
X66718910Y-27220077D01*
X66719667Y-27212879D01*
X66741163Y-27146719D01*
X66768776Y-27055695D01*
X66773783Y-27046327D01*
X66777809Y-27033937D01*
X66812802Y-26973326D01*
X66851916Y-26900150D01*
X66862489Y-26887265D01*
X66871885Y-26870993D01*
X66916609Y-26821321D01*
X66963809Y-26763809D01*
X66981371Y-26749395D01*
X66997782Y-26731170D01*
X67048321Y-26694450D01*
X67100150Y-26651916D01*
X67125557Y-26638335D01*
X67150000Y-26620577D01*
X67202573Y-26597169D01*
X67255695Y-26568776D01*
X67289122Y-26558635D01*
X67321885Y-26544049D01*
X67373080Y-26533166D01*
X67424473Y-26517577D01*
X67465377Y-26513548D01*
X67505924Y-26504930D01*
X67552887Y-26504930D01*
X67600000Y-26500290D01*
X67647113Y-26504930D01*
G37*
G36*
X74384234Y-28110400D02*
G01*
X72184234Y-28110400D01*
X72184234Y-25910400D01*
X74384234Y-25910400D01*
X74384234Y-28110400D01*
G37*
G36*
X71045263Y-25952392D02*
G01*
X71234546Y-26025720D01*
X71407132Y-26132581D01*
X71557144Y-26269335D01*
X71679473Y-26431325D01*
X71769953Y-26613034D01*
X71825504Y-26808276D01*
X71844234Y-27010400D01*
X71825504Y-27212524D01*
X71769953Y-27407766D01*
X71679473Y-27589475D01*
X71557144Y-27751465D01*
X71407132Y-27888219D01*
X71234546Y-27995080D01*
X71045263Y-28068408D01*
X70845729Y-28105708D01*
X70642739Y-28105708D01*
X70443205Y-28068408D01*
X70253922Y-27995080D01*
X70081336Y-27888219D01*
X69931324Y-27751465D01*
X69808995Y-27589475D01*
X69718515Y-27407766D01*
X69662964Y-27212524D01*
X69644234Y-27010400D01*
X69662964Y-26808276D01*
X69718515Y-26613034D01*
X69808995Y-26431325D01*
X69931324Y-26269335D01*
X70081336Y-26132581D01*
X70253922Y-26025720D01*
X70443205Y-25952392D01*
X70642739Y-25915092D01*
X70845729Y-25915092D01*
X71045263Y-25952392D01*
G37*
G36*
X52315737Y-25369224D02*
G01*
X52380621Y-25412579D01*
X52423976Y-25477463D01*
X52439200Y-25554000D01*
X52439200Y-27654000D01*
X52423976Y-27730537D01*
X52380621Y-27795421D01*
X52315737Y-27838776D01*
X52239200Y-27854000D01*
X50039200Y-27854000D01*
X49962663Y-27838776D01*
X49897779Y-27795421D01*
X49854424Y-27730537D01*
X49839200Y-27654000D01*
X49839200Y-25554000D01*
X49854424Y-25477463D01*
X49897779Y-25412579D01*
X49962663Y-25369224D01*
X50039200Y-25354000D01*
X52239200Y-25354000D01*
X52315737Y-25369224D01*
G37*
G36*
X58515737Y-25369224D02*
G01*
X58580621Y-25412579D01*
X58623976Y-25477463D01*
X58639200Y-25554000D01*
X58639200Y-27654000D01*
X58623976Y-27730537D01*
X58580621Y-27795421D01*
X58515737Y-27838776D01*
X58439200Y-27854000D01*
X56239200Y-27854000D01*
X56162663Y-27838776D01*
X56097779Y-27795421D01*
X56054424Y-27730537D01*
X56039200Y-27654000D01*
X56039200Y-25554000D01*
X56054424Y-25477463D01*
X56097779Y-25412579D01*
X56162663Y-25369224D01*
X56239200Y-25354000D01*
X58439200Y-25354000D01*
X58515737Y-25369224D01*
G37*
G36*
X45945850Y-25977964D02*
G01*
X45996040Y-25983787D01*
X46013189Y-25991359D01*
X46036671Y-25996030D01*
X46061810Y-26012827D01*
X46081696Y-26021608D01*
X46095277Y-26035189D01*
X46117777Y-26050223D01*
X46132810Y-26072722D01*
X46146391Y-26086303D01*
X46155170Y-26106186D01*
X46171970Y-26131329D01*
X46176641Y-26154812D01*
X46184212Y-26171959D01*
X46190033Y-26222139D01*
X46191000Y-26227000D01*
X46191000Y-26902000D01*
X46190032Y-26906863D01*
X46184212Y-26957040D01*
X46176641Y-26974185D01*
X46171970Y-26997671D01*
X46155169Y-27022815D01*
X46146391Y-27042696D01*
X46132812Y-27056274D01*
X46117777Y-27078777D01*
X46095274Y-27093812D01*
X46081696Y-27107391D01*
X46061815Y-27116169D01*
X46036671Y-27132970D01*
X46013185Y-27137641D01*
X45996040Y-27145212D01*
X45945861Y-27151032D01*
X45941000Y-27152000D01*
X44991000Y-27152000D01*
X44986138Y-27151032D01*
X44935959Y-27145212D01*
X44918812Y-27137641D01*
X44895329Y-27132970D01*
X44870186Y-27116170D01*
X44850303Y-27107391D01*
X44836722Y-27093810D01*
X44814223Y-27078777D01*
X44799189Y-27056277D01*
X44785608Y-27042696D01*
X44776827Y-27022810D01*
X44760030Y-26997671D01*
X44755359Y-26974189D01*
X44747787Y-26957040D01*
X44741964Y-26906849D01*
X44741000Y-26902000D01*
X44741000Y-26227000D01*
X44741964Y-26222150D01*
X44747787Y-26171959D01*
X44755359Y-26154808D01*
X44760030Y-26131329D01*
X44776826Y-26106191D01*
X44785608Y-26086303D01*
X44799191Y-26072719D01*
X44814223Y-26050223D01*
X44836719Y-26035191D01*
X44850303Y-26021608D01*
X44870191Y-26012826D01*
X44895329Y-25996030D01*
X44918808Y-25991359D01*
X44935959Y-25983787D01*
X44986151Y-25977964D01*
X44991000Y-25977000D01*
X45941000Y-25977000D01*
X45945850Y-25977964D01*
G37*
G36*
X28194000Y-27061600D02*
G01*
X25694000Y-27061600D01*
X25694000Y-26061600D01*
X28194000Y-26061600D01*
X28194000Y-27061600D01*
G37*
G36*
X43394000Y-27061600D02*
G01*
X40894000Y-27061600D01*
X40894000Y-26061600D01*
X43394000Y-26061600D01*
X43394000Y-27061600D01*
G37*
G36*
X60228150Y-25117964D02*
G01*
X60278340Y-25123787D01*
X60295489Y-25131359D01*
X60318971Y-25136030D01*
X60344110Y-25152827D01*
X60363996Y-25161608D01*
X60377577Y-25175189D01*
X60400077Y-25190223D01*
X60415110Y-25212722D01*
X60428691Y-25226303D01*
X60437470Y-25246186D01*
X60454270Y-25271329D01*
X60458941Y-25294812D01*
X60466512Y-25311959D01*
X60472333Y-25362139D01*
X60473300Y-25367000D01*
X60473300Y-26317000D01*
X60472332Y-26321863D01*
X60466512Y-26372040D01*
X60458941Y-26389185D01*
X60454270Y-26412671D01*
X60437469Y-26437815D01*
X60428691Y-26457696D01*
X60415112Y-26471274D01*
X60400077Y-26493777D01*
X60377574Y-26508812D01*
X60363996Y-26522391D01*
X60344115Y-26531169D01*
X60318971Y-26547970D01*
X60295485Y-26552641D01*
X60278340Y-26560212D01*
X60228161Y-26566032D01*
X60223300Y-26567000D01*
X59548300Y-26567000D01*
X59543438Y-26566032D01*
X59493259Y-26560212D01*
X59476112Y-26552641D01*
X59452629Y-26547970D01*
X59427486Y-26531170D01*
X59407603Y-26522391D01*
X59394022Y-26508810D01*
X59371523Y-26493777D01*
X59356489Y-26471277D01*
X59342908Y-26457696D01*
X59334127Y-26437810D01*
X59317330Y-26412671D01*
X59312659Y-26389189D01*
X59305087Y-26372040D01*
X59299264Y-26321849D01*
X59298300Y-26317000D01*
X59298300Y-25367000D01*
X59299264Y-25362150D01*
X59305087Y-25311959D01*
X59312659Y-25294808D01*
X59317330Y-25271329D01*
X59334126Y-25246191D01*
X59342908Y-25226303D01*
X59356491Y-25212719D01*
X59371523Y-25190223D01*
X59394019Y-25175191D01*
X59407603Y-25161608D01*
X59427491Y-25152826D01*
X59452629Y-25136030D01*
X59476108Y-25131359D01*
X59493259Y-25123787D01*
X59543451Y-25117964D01*
X59548300Y-25117000D01*
X60223300Y-25117000D01*
X60228150Y-25117964D01*
G37*
G36*
X62303150Y-25117964D02*
G01*
X62353340Y-25123787D01*
X62370489Y-25131359D01*
X62393971Y-25136030D01*
X62419110Y-25152827D01*
X62438996Y-25161608D01*
X62452577Y-25175189D01*
X62475077Y-25190223D01*
X62490110Y-25212722D01*
X62503691Y-25226303D01*
X62512470Y-25246186D01*
X62529270Y-25271329D01*
X62533941Y-25294812D01*
X62541512Y-25311959D01*
X62547333Y-25362139D01*
X62548300Y-25367000D01*
X62548300Y-26317000D01*
X62547332Y-26321863D01*
X62541512Y-26372040D01*
X62533941Y-26389185D01*
X62529270Y-26412671D01*
X62512469Y-26437815D01*
X62503691Y-26457696D01*
X62490112Y-26471274D01*
X62475077Y-26493777D01*
X62452574Y-26508812D01*
X62438996Y-26522391D01*
X62419115Y-26531169D01*
X62393971Y-26547970D01*
X62370485Y-26552641D01*
X62353340Y-26560212D01*
X62303161Y-26566032D01*
X62298300Y-26567000D01*
X61623300Y-26567000D01*
X61618438Y-26566032D01*
X61568259Y-26560212D01*
X61551112Y-26552641D01*
X61527629Y-26547970D01*
X61502486Y-26531170D01*
X61482603Y-26522391D01*
X61469022Y-26508810D01*
X61446523Y-26493777D01*
X61431489Y-26471277D01*
X61417908Y-26457696D01*
X61409127Y-26437810D01*
X61392330Y-26412671D01*
X61387659Y-26389189D01*
X61380087Y-26372040D01*
X61374264Y-26321849D01*
X61373300Y-26317000D01*
X61373300Y-25367000D01*
X61374264Y-25362150D01*
X61380087Y-25311959D01*
X61387659Y-25294808D01*
X61392330Y-25271329D01*
X61409126Y-25246191D01*
X61417908Y-25226303D01*
X61431491Y-25212719D01*
X61446523Y-25190223D01*
X61469019Y-25175191D01*
X61482603Y-25161608D01*
X61502491Y-25152826D01*
X61527629Y-25136030D01*
X61551108Y-25131359D01*
X61568259Y-25123787D01*
X61618451Y-25117964D01*
X61623300Y-25117000D01*
X62298300Y-25117000D01*
X62303150Y-25117964D01*
G37*
G36*
X30044000Y-25961600D02*
G01*
X29044000Y-25961600D01*
X29044000Y-24161600D01*
X30044000Y-24161600D01*
X30044000Y-25961600D01*
G37*
G36*
X32044000Y-25961600D02*
G01*
X31044000Y-25961600D01*
X31044000Y-24161600D01*
X32044000Y-24161600D01*
X32044000Y-25961600D01*
G37*
G36*
X34044000Y-25961600D02*
G01*
X33044000Y-25961600D01*
X33044000Y-24161600D01*
X34044000Y-24161600D01*
X34044000Y-25961600D01*
G37*
G36*
X36044000Y-25961600D02*
G01*
X35044000Y-25961600D01*
X35044000Y-24161600D01*
X36044000Y-24161600D01*
X36044000Y-25961600D01*
G37*
G36*
X38044000Y-25961600D02*
G01*
X37044000Y-25961600D01*
X37044000Y-24161600D01*
X38044000Y-24161600D01*
X38044000Y-25961600D01*
G37*
G36*
X40044000Y-25961600D02*
G01*
X39044000Y-25961600D01*
X39044000Y-24161600D01*
X40044000Y-24161600D01*
X40044000Y-25961600D01*
G37*
G36*
X65514450Y-24718964D02*
G01*
X65564640Y-24724787D01*
X65581789Y-24732359D01*
X65605271Y-24737030D01*
X65630410Y-24753827D01*
X65650296Y-24762608D01*
X65663877Y-24776189D01*
X65686377Y-24791223D01*
X65701410Y-24813722D01*
X65714991Y-24827303D01*
X65723770Y-24847186D01*
X65740570Y-24872329D01*
X65745241Y-24895812D01*
X65752812Y-24912959D01*
X65758633Y-24963139D01*
X65759600Y-24968000D01*
X65759600Y-25668000D01*
X65758632Y-25672863D01*
X65752812Y-25723040D01*
X65745241Y-25740185D01*
X65740570Y-25763671D01*
X65723769Y-25788815D01*
X65714991Y-25808696D01*
X65701412Y-25822274D01*
X65686377Y-25844777D01*
X65663874Y-25859812D01*
X65650296Y-25873391D01*
X65630415Y-25882169D01*
X65605271Y-25898970D01*
X65581785Y-25903641D01*
X65564640Y-25911212D01*
X65514461Y-25917032D01*
X65509600Y-25918000D01*
X64609600Y-25918000D01*
X64604738Y-25917032D01*
X64554559Y-25911212D01*
X64537412Y-25903641D01*
X64513929Y-25898970D01*
X64488786Y-25882170D01*
X64468903Y-25873391D01*
X64455322Y-25859810D01*
X64432823Y-25844777D01*
X64417789Y-25822277D01*
X64404208Y-25808696D01*
X64395427Y-25788810D01*
X64378630Y-25763671D01*
X64373959Y-25740189D01*
X64366387Y-25723040D01*
X64360564Y-25672849D01*
X64359600Y-25668000D01*
X64359600Y-24968000D01*
X64360564Y-24963150D01*
X64366387Y-24912959D01*
X64373959Y-24895808D01*
X64378630Y-24872329D01*
X64395426Y-24847191D01*
X64404208Y-24827303D01*
X64417791Y-24813719D01*
X64432823Y-24791223D01*
X64455319Y-24776191D01*
X64468903Y-24762608D01*
X64488791Y-24753826D01*
X64513929Y-24737030D01*
X64537408Y-24732359D01*
X64554559Y-24724787D01*
X64604751Y-24718964D01*
X64609600Y-24718000D01*
X65509600Y-24718000D01*
X65514450Y-24718964D01*
G37*
G36*
X45945850Y-23902964D02*
G01*
X45996040Y-23908787D01*
X46013189Y-23916359D01*
X46036671Y-23921030D01*
X46061810Y-23937827D01*
X46081696Y-23946608D01*
X46095277Y-23960189D01*
X46117777Y-23975223D01*
X46132810Y-23997722D01*
X46146391Y-24011303D01*
X46155170Y-24031186D01*
X46171970Y-24056329D01*
X46176641Y-24079812D01*
X46184212Y-24096959D01*
X46190033Y-24147139D01*
X46191000Y-24152000D01*
X46191000Y-24827000D01*
X46190032Y-24831863D01*
X46184212Y-24882040D01*
X46176641Y-24899185D01*
X46171970Y-24922671D01*
X46155169Y-24947815D01*
X46146391Y-24967696D01*
X46132812Y-24981274D01*
X46117777Y-25003777D01*
X46095274Y-25018812D01*
X46081696Y-25032391D01*
X46061815Y-25041169D01*
X46036671Y-25057970D01*
X46013185Y-25062641D01*
X45996040Y-25070212D01*
X45945861Y-25076032D01*
X45941000Y-25077000D01*
X44991000Y-25077000D01*
X44986138Y-25076032D01*
X44935959Y-25070212D01*
X44918812Y-25062641D01*
X44895329Y-25057970D01*
X44870186Y-25041170D01*
X44850303Y-25032391D01*
X44836722Y-25018810D01*
X44814223Y-25003777D01*
X44799189Y-24981277D01*
X44785608Y-24967696D01*
X44776827Y-24947810D01*
X44760030Y-24922671D01*
X44755359Y-24899189D01*
X44747787Y-24882040D01*
X44741964Y-24831849D01*
X44741000Y-24827000D01*
X44741000Y-24152000D01*
X44741964Y-24147150D01*
X44747787Y-24096959D01*
X44755359Y-24079808D01*
X44760030Y-24056329D01*
X44776826Y-24031191D01*
X44785608Y-24011303D01*
X44799191Y-23997719D01*
X44814223Y-23975223D01*
X44836719Y-23960191D01*
X44850303Y-23946608D01*
X44870191Y-23937826D01*
X44895329Y-23921030D01*
X44918808Y-23916359D01*
X44935959Y-23908787D01*
X44986151Y-23902964D01*
X44991000Y-23902000D01*
X45941000Y-23902000D01*
X45945850Y-23902964D01*
G37*
G36*
X65514450Y-22718964D02*
G01*
X65564640Y-22724787D01*
X65581789Y-22732359D01*
X65605271Y-22737030D01*
X65630410Y-22753827D01*
X65650296Y-22762608D01*
X65663877Y-22776189D01*
X65686377Y-22791223D01*
X65701410Y-22813722D01*
X65714991Y-22827303D01*
X65723770Y-22847186D01*
X65740570Y-22872329D01*
X65745241Y-22895812D01*
X65752812Y-22912959D01*
X65758633Y-22963139D01*
X65759600Y-22968000D01*
X65759600Y-23668000D01*
X65758632Y-23672863D01*
X65752812Y-23723040D01*
X65745241Y-23740185D01*
X65740570Y-23763671D01*
X65723769Y-23788815D01*
X65714991Y-23808696D01*
X65701412Y-23822274D01*
X65686377Y-23844777D01*
X65663874Y-23859812D01*
X65650296Y-23873391D01*
X65630415Y-23882169D01*
X65605271Y-23898970D01*
X65581785Y-23903641D01*
X65564640Y-23911212D01*
X65514461Y-23917032D01*
X65509600Y-23918000D01*
X64609600Y-23918000D01*
X64604738Y-23917032D01*
X64554559Y-23911212D01*
X64537412Y-23903641D01*
X64513929Y-23898970D01*
X64488786Y-23882170D01*
X64468903Y-23873391D01*
X64455322Y-23859810D01*
X64432823Y-23844777D01*
X64417789Y-23822277D01*
X64404208Y-23808696D01*
X64395427Y-23788810D01*
X64378630Y-23763671D01*
X64373959Y-23740189D01*
X64366387Y-23723040D01*
X64360564Y-23672849D01*
X64359600Y-23668000D01*
X64359600Y-22968000D01*
X64360564Y-22963150D01*
X64366387Y-22912959D01*
X64373959Y-22895808D01*
X64378630Y-22872329D01*
X64395426Y-22847191D01*
X64404208Y-22827303D01*
X64417791Y-22813719D01*
X64432823Y-22791223D01*
X64455319Y-22776191D01*
X64468903Y-22762608D01*
X64488791Y-22753826D01*
X64513929Y-22737030D01*
X64537408Y-22732359D01*
X64554559Y-22724787D01*
X64604751Y-22718964D01*
X64609600Y-22718000D01*
X65509600Y-22718000D01*
X65514450Y-22718964D01*
G37*
G36*
X60752000Y-23373000D02*
G01*
X59192000Y-23373000D01*
X59192000Y-22723000D01*
X60752000Y-22723000D01*
X60752000Y-23373000D01*
G37*
G36*
X63452000Y-23373000D02*
G01*
X61892000Y-23373000D01*
X61892000Y-22723000D01*
X63452000Y-22723000D01*
X63452000Y-23373000D01*
G37*
G36*
X20147113Y-21504930D02*
G01*
X20194076Y-21504930D01*
X20234622Y-21513548D01*
X20275526Y-21517577D01*
X20326916Y-21533166D01*
X20378115Y-21544049D01*
X20410879Y-21558636D01*
X20444304Y-21568776D01*
X20497420Y-21597166D01*
X20550000Y-21620577D01*
X20574445Y-21638337D01*
X20599849Y-21651916D01*
X20651669Y-21694444D01*
X20702218Y-21731170D01*
X20718631Y-21749398D01*
X20736190Y-21763809D01*
X20783379Y-21821308D01*
X20828115Y-21870993D01*
X20837512Y-21887269D01*
X20848083Y-21900150D01*
X20887183Y-21973302D01*
X20922191Y-22033937D01*
X20926218Y-22046331D01*
X20931223Y-22055695D01*
X20958821Y-22146672D01*
X20980333Y-22212879D01*
X20981090Y-22220082D01*
X20982422Y-22224473D01*
X20995377Y-22356021D01*
X21000000Y-22400000D01*
X20995377Y-22443982D01*
X20982422Y-22575526D01*
X20981090Y-22579916D01*
X20980333Y-22587121D01*
X20958816Y-22653341D01*
X20931223Y-22744304D01*
X20926219Y-22753665D01*
X20922191Y-22766063D01*
X20887176Y-22826709D01*
X20848083Y-22899849D01*
X20837514Y-22912726D01*
X20828115Y-22929007D01*
X20783369Y-22978701D01*
X20736190Y-23036190D01*
X20718634Y-23050597D01*
X20702218Y-23068830D01*
X20651659Y-23105563D01*
X20599849Y-23148083D01*
X20574450Y-23161658D01*
X20550000Y-23179423D01*
X20497408Y-23202838D01*
X20444304Y-23231223D01*
X20410886Y-23241360D01*
X20378115Y-23255951D01*
X20326905Y-23266836D01*
X20275526Y-23282422D01*
X20234631Y-23286449D01*
X20194076Y-23295070D01*
X20147103Y-23295070D01*
X20100000Y-23299709D01*
X20052897Y-23295070D01*
X20005924Y-23295070D01*
X19965368Y-23286449D01*
X19924473Y-23282422D01*
X19873091Y-23266835D01*
X19821885Y-23255951D01*
X19789115Y-23241361D01*
X19755695Y-23231223D01*
X19702585Y-23202835D01*
X19650000Y-23179423D01*
X19625552Y-23161660D01*
X19600150Y-23148083D01*
X19548332Y-23105556D01*
X19497782Y-23068830D01*
X19481368Y-23050600D01*
X19463809Y-23036190D01*
X19416618Y-22978688D01*
X19371885Y-22929007D01*
X19362487Y-22912730D01*
X19351916Y-22899849D01*
X19312810Y-22826686D01*
X19277809Y-22766063D01*
X19273782Y-22753670D01*
X19268776Y-22744304D01*
X19241168Y-22653294D01*
X19219667Y-22587121D01*
X19218910Y-22579921D01*
X19217577Y-22575526D01*
X19204606Y-22443831D01*
X19200000Y-22400000D01*
X19204606Y-22356172D01*
X19217577Y-22224473D01*
X19218910Y-22220077D01*
X19219667Y-22212879D01*
X19241163Y-22146719D01*
X19268776Y-22055695D01*
X19273783Y-22046327D01*
X19277809Y-22033937D01*
X19312802Y-21973326D01*
X19351916Y-21900150D01*
X19362489Y-21887265D01*
X19371885Y-21870993D01*
X19416609Y-21821321D01*
X19463809Y-21763809D01*
X19481371Y-21749395D01*
X19497782Y-21731170D01*
X19548321Y-21694450D01*
X19600150Y-21651916D01*
X19625557Y-21638335D01*
X19650000Y-21620577D01*
X19702573Y-21597169D01*
X19755695Y-21568776D01*
X19789122Y-21558635D01*
X19821885Y-21544049D01*
X19873080Y-21533166D01*
X19924473Y-21517577D01*
X19965377Y-21513548D01*
X20005924Y-21504930D01*
X20052887Y-21504930D01*
X20100000Y-21500290D01*
X20147113Y-21504930D01*
G37*
G36*
X67647113Y-21504930D02*
G01*
X67694076Y-21504930D01*
X67734622Y-21513548D01*
X67775526Y-21517577D01*
X67826916Y-21533166D01*
X67878115Y-21544049D01*
X67910879Y-21558636D01*
X67944304Y-21568776D01*
X67997420Y-21597166D01*
X68050000Y-21620577D01*
X68074445Y-21638337D01*
X68099849Y-21651916D01*
X68151669Y-21694444D01*
X68202218Y-21731170D01*
X68218631Y-21749398D01*
X68236190Y-21763809D01*
X68283379Y-21821308D01*
X68328115Y-21870993D01*
X68337512Y-21887269D01*
X68348083Y-21900150D01*
X68387183Y-21973302D01*
X68422191Y-22033937D01*
X68426218Y-22046331D01*
X68431223Y-22055695D01*
X68458821Y-22146672D01*
X68480333Y-22212879D01*
X68481090Y-22220082D01*
X68482422Y-22224473D01*
X68495377Y-22356021D01*
X68500000Y-22400000D01*
X68495377Y-22443982D01*
X68482422Y-22575526D01*
X68481090Y-22579916D01*
X68480333Y-22587121D01*
X68458816Y-22653341D01*
X68431223Y-22744304D01*
X68426219Y-22753665D01*
X68422191Y-22766063D01*
X68387176Y-22826709D01*
X68348083Y-22899849D01*
X68337514Y-22912726D01*
X68328115Y-22929007D01*
X68283369Y-22978701D01*
X68236190Y-23036190D01*
X68218634Y-23050597D01*
X68202218Y-23068830D01*
X68151659Y-23105563D01*
X68099849Y-23148083D01*
X68074450Y-23161658D01*
X68050000Y-23179423D01*
X67997408Y-23202838D01*
X67944304Y-23231223D01*
X67910886Y-23241360D01*
X67878115Y-23255951D01*
X67826905Y-23266836D01*
X67775526Y-23282422D01*
X67734631Y-23286449D01*
X67694076Y-23295070D01*
X67647103Y-23295070D01*
X67600000Y-23299709D01*
X67552897Y-23295070D01*
X67505924Y-23295070D01*
X67465368Y-23286449D01*
X67424473Y-23282422D01*
X67373091Y-23266835D01*
X67321885Y-23255951D01*
X67289115Y-23241361D01*
X67255695Y-23231223D01*
X67202585Y-23202835D01*
X67150000Y-23179423D01*
X67125552Y-23161660D01*
X67100150Y-23148083D01*
X67048332Y-23105556D01*
X66997782Y-23068830D01*
X66981368Y-23050600D01*
X66963809Y-23036190D01*
X66916618Y-22978688D01*
X66871885Y-22929007D01*
X66862487Y-22912730D01*
X66851916Y-22899849D01*
X66812810Y-22826686D01*
X66777809Y-22766063D01*
X66773782Y-22753670D01*
X66768776Y-22744304D01*
X66741168Y-22653294D01*
X66719667Y-22587121D01*
X66718910Y-22579921D01*
X66717577Y-22575526D01*
X66704607Y-22443842D01*
X66700000Y-22400000D01*
X66704605Y-22356183D01*
X66717577Y-22224473D01*
X66718910Y-22220077D01*
X66719667Y-22212879D01*
X66741163Y-22146719D01*
X66768776Y-22055695D01*
X66773783Y-22046327D01*
X66777809Y-22033937D01*
X66812802Y-21973326D01*
X66851916Y-21900150D01*
X66862489Y-21887265D01*
X66871885Y-21870993D01*
X66916609Y-21821321D01*
X66963809Y-21763809D01*
X66981371Y-21749395D01*
X66997782Y-21731170D01*
X67048321Y-21694450D01*
X67100150Y-21651916D01*
X67125557Y-21638335D01*
X67150000Y-21620577D01*
X67202573Y-21597169D01*
X67255695Y-21568776D01*
X67289122Y-21558635D01*
X67321885Y-21544049D01*
X67373080Y-21533166D01*
X67424473Y-21517577D01*
X67465377Y-21513548D01*
X67505924Y-21504930D01*
X67552887Y-21504930D01*
X67600000Y-21500290D01*
X67647113Y-21504930D01*
G37*
G36*
X71683191Y-21109711D02*
G01*
X71724968Y-21109711D01*
X71772098Y-21119728D01*
X71819397Y-21125058D01*
X71853788Y-21137092D01*
X71888490Y-21144468D01*
X71938497Y-21166733D01*
X71988487Y-21184225D01*
X72014508Y-21200575D01*
X72041215Y-21212466D01*
X72091013Y-21248646D01*
X72140172Y-21279535D01*
X72157824Y-21297187D01*
X72176464Y-21310730D01*
X72222545Y-21361908D01*
X72266845Y-21406208D01*
X72277034Y-21422424D01*
X72288326Y-21434965D01*
X72326953Y-21501870D01*
X72362155Y-21557893D01*
X72366550Y-21570453D01*
X72371915Y-21579746D01*
X72399390Y-21664305D01*
X72421322Y-21726983D01*
X72422153Y-21734363D01*
X72423575Y-21738738D01*
X72436456Y-21861306D01*
X72441380Y-21905000D01*
X72436456Y-21948697D01*
X72423575Y-22071261D01*
X72422153Y-22075635D01*
X72421322Y-22083017D01*
X72399385Y-22145707D01*
X72371915Y-22230253D01*
X72366551Y-22239543D01*
X72362155Y-22252107D01*
X72326946Y-22308140D01*
X72288326Y-22375034D01*
X72277036Y-22387572D01*
X72266845Y-22403792D01*
X72222535Y-22448101D01*
X72176464Y-22499269D01*
X72157828Y-22512808D01*
X72140172Y-22530465D01*
X72091003Y-22561359D01*
X72041215Y-22597533D01*
X72014514Y-22609421D01*
X71988487Y-22625775D01*
X71938487Y-22643270D01*
X71888490Y-22665531D01*
X71853794Y-22672905D01*
X71819397Y-22684942D01*
X71772095Y-22690271D01*
X71724968Y-22700289D01*
X71683191Y-22700289D01*
X71641380Y-22705000D01*
X71599569Y-22700289D01*
X71557792Y-22700289D01*
X71510664Y-22690271D01*
X71463363Y-22684942D01*
X71428966Y-22672906D01*
X71394269Y-22665531D01*
X71344267Y-22643268D01*
X71294273Y-22625775D01*
X71268248Y-22609422D01*
X71241544Y-22597533D01*
X71191749Y-22561355D01*
X71142588Y-22530465D01*
X71124934Y-22512811D01*
X71106295Y-22499269D01*
X71060213Y-22448090D01*
X71015915Y-22403792D01*
X71005725Y-22387575D01*
X70994433Y-22375034D01*
X70955800Y-22308120D01*
X70920605Y-22252107D01*
X70916210Y-22239547D01*
X70910844Y-22230253D01*
X70883360Y-22145667D01*
X70861438Y-22083017D01*
X70860606Y-22075639D01*
X70859184Y-22071261D01*
X70846288Y-21948565D01*
X70841380Y-21905000D01*
X70846288Y-21861438D01*
X70859184Y-21738738D01*
X70860606Y-21734358D01*
X70861438Y-21726983D01*
X70883355Y-21664345D01*
X70910844Y-21579746D01*
X70916211Y-21570449D01*
X70920605Y-21557893D01*
X70955793Y-21501890D01*
X70994433Y-21434965D01*
X71005727Y-21422421D01*
X71015915Y-21406208D01*
X71060206Y-21361916D01*
X71106297Y-21310728D01*
X71124939Y-21297183D01*
X71142588Y-21279535D01*
X71191734Y-21248654D01*
X71241542Y-21212467D01*
X71268253Y-21200574D01*
X71294273Y-21184225D01*
X71344257Y-21166734D01*
X71394269Y-21144468D01*
X71428972Y-21137091D01*
X71463363Y-21125058D01*
X71510661Y-21119728D01*
X71557792Y-21109711D01*
X71599569Y-21109711D01*
X71641380Y-21105000D01*
X71683191Y-21109711D01*
G37*
G36*
X74941380Y-22705000D02*
G01*
X73341380Y-22705000D01*
X73341380Y-21105000D01*
X74941380Y-21105000D01*
X74941380Y-22705000D01*
G37*
G36*
X60752000Y-22423000D02*
G01*
X59192000Y-22423000D01*
X59192000Y-21773000D01*
X60752000Y-21773000D01*
X60752000Y-22423000D01*
G37*
G36*
X63452000Y-22423000D02*
G01*
X61892000Y-22423000D01*
X61892000Y-21773000D01*
X63452000Y-21773000D01*
X63452000Y-22423000D01*
G37*
G36*
X65514450Y-20705764D02*
G01*
X65564640Y-20711587D01*
X65581789Y-20719159D01*
X65605271Y-20723830D01*
X65630410Y-20740627D01*
X65650296Y-20749408D01*
X65663877Y-20762989D01*
X65686377Y-20778023D01*
X65701410Y-20800522D01*
X65714991Y-20814103D01*
X65723770Y-20833986D01*
X65740570Y-20859129D01*
X65745241Y-20882612D01*
X65752812Y-20899759D01*
X65758633Y-20949939D01*
X65759600Y-20954800D01*
X65759600Y-21654800D01*
X65758632Y-21659663D01*
X65752812Y-21709840D01*
X65745241Y-21726985D01*
X65740570Y-21750471D01*
X65723769Y-21775615D01*
X65714991Y-21795496D01*
X65701412Y-21809074D01*
X65686377Y-21831577D01*
X65663874Y-21846612D01*
X65650296Y-21860191D01*
X65630415Y-21868969D01*
X65605271Y-21885770D01*
X65581785Y-21890441D01*
X65564640Y-21898012D01*
X65514461Y-21903832D01*
X65509600Y-21904800D01*
X64609600Y-21904800D01*
X64604738Y-21903832D01*
X64554559Y-21898012D01*
X64537412Y-21890441D01*
X64513929Y-21885770D01*
X64488786Y-21868970D01*
X64468903Y-21860191D01*
X64455322Y-21846610D01*
X64432823Y-21831577D01*
X64417789Y-21809077D01*
X64404208Y-21795496D01*
X64395427Y-21775610D01*
X64378630Y-21750471D01*
X64373959Y-21726989D01*
X64366387Y-21709840D01*
X64360564Y-21659649D01*
X64359600Y-21654800D01*
X64359600Y-20954800D01*
X64360564Y-20949950D01*
X64366387Y-20899759D01*
X64373959Y-20882608D01*
X64378630Y-20859129D01*
X64395426Y-20833991D01*
X64404208Y-20814103D01*
X64417791Y-20800519D01*
X64432823Y-20778023D01*
X64455319Y-20762991D01*
X64468903Y-20749408D01*
X64488791Y-20740626D01*
X64513929Y-20723830D01*
X64537408Y-20719159D01*
X64554559Y-20711587D01*
X64604751Y-20705764D01*
X64609600Y-20704800D01*
X65509600Y-20704800D01*
X65514450Y-20705764D01*
G37*
G36*
X60752000Y-21473000D02*
G01*
X59192000Y-21473000D01*
X59192000Y-20823000D01*
X60752000Y-20823000D01*
X60752000Y-21473000D01*
G37*
G36*
X63452000Y-21473000D02*
G01*
X61892000Y-21473000D01*
X61892000Y-20823000D01*
X63452000Y-20823000D01*
X63452000Y-21473000D01*
G37*
G36*
X41976850Y-18960964D02*
G01*
X42027040Y-18966787D01*
X42044189Y-18974359D01*
X42067671Y-18979030D01*
X42092810Y-18995827D01*
X42112696Y-19004608D01*
X42126277Y-19018189D01*
X42148777Y-19033223D01*
X42163810Y-19055722D01*
X42177391Y-19069303D01*
X42186170Y-19089186D01*
X42202970Y-19114329D01*
X42207641Y-19137812D01*
X42215212Y-19154959D01*
X42221033Y-19205139D01*
X42222000Y-19210000D01*
X42222000Y-20160000D01*
X42221032Y-20164863D01*
X42215212Y-20215040D01*
X42207641Y-20232185D01*
X42202970Y-20255671D01*
X42186169Y-20280815D01*
X42177391Y-20300696D01*
X42163812Y-20314274D01*
X42148777Y-20336777D01*
X42126274Y-20351812D01*
X42112696Y-20365391D01*
X42092815Y-20374169D01*
X42067671Y-20390970D01*
X42044185Y-20395641D01*
X42027040Y-20403212D01*
X41976861Y-20409032D01*
X41972000Y-20410000D01*
X41297000Y-20410000D01*
X41292138Y-20409032D01*
X41241959Y-20403212D01*
X41224812Y-20395641D01*
X41201329Y-20390970D01*
X41176186Y-20374170D01*
X41156303Y-20365391D01*
X41142722Y-20351810D01*
X41120223Y-20336777D01*
X41105189Y-20314277D01*
X41091608Y-20300696D01*
X41082827Y-20280810D01*
X41066030Y-20255671D01*
X41061359Y-20232189D01*
X41053787Y-20215040D01*
X41047964Y-20164849D01*
X41047000Y-20160000D01*
X41047000Y-19210000D01*
X41047964Y-19205150D01*
X41053787Y-19154959D01*
X41061359Y-19137808D01*
X41066030Y-19114329D01*
X41082826Y-19089191D01*
X41091608Y-19069303D01*
X41105191Y-19055719D01*
X41120223Y-19033223D01*
X41142719Y-19018191D01*
X41156303Y-19004608D01*
X41176191Y-18995826D01*
X41201329Y-18979030D01*
X41224808Y-18974359D01*
X41241959Y-18966787D01*
X41292151Y-18960964D01*
X41297000Y-18960000D01*
X41972000Y-18960000D01*
X41976850Y-18960964D01*
G37*
G36*
X44051850Y-18960964D02*
G01*
X44102040Y-18966787D01*
X44119189Y-18974359D01*
X44142671Y-18979030D01*
X44167810Y-18995827D01*
X44187696Y-19004608D01*
X44201277Y-19018189D01*
X44223777Y-19033223D01*
X44238810Y-19055722D01*
X44252391Y-19069303D01*
X44261170Y-19089186D01*
X44277970Y-19114329D01*
X44282641Y-19137812D01*
X44290212Y-19154959D01*
X44296033Y-19205139D01*
X44297000Y-19210000D01*
X44297000Y-20160000D01*
X44296032Y-20164863D01*
X44290212Y-20215040D01*
X44282641Y-20232185D01*
X44277970Y-20255671D01*
X44261169Y-20280815D01*
X44252391Y-20300696D01*
X44238812Y-20314274D01*
X44223777Y-20336777D01*
X44201274Y-20351812D01*
X44187696Y-20365391D01*
X44167815Y-20374169D01*
X44142671Y-20390970D01*
X44119185Y-20395641D01*
X44102040Y-20403212D01*
X44051861Y-20409032D01*
X44047000Y-20410000D01*
X43372000Y-20410000D01*
X43367138Y-20409032D01*
X43316959Y-20403212D01*
X43299812Y-20395641D01*
X43276329Y-20390970D01*
X43251186Y-20374170D01*
X43231303Y-20365391D01*
X43217722Y-20351810D01*
X43195223Y-20336777D01*
X43180189Y-20314277D01*
X43166608Y-20300696D01*
X43157827Y-20280810D01*
X43141030Y-20255671D01*
X43136359Y-20232189D01*
X43128787Y-20215040D01*
X43122964Y-20164849D01*
X43122000Y-20160000D01*
X43122000Y-19210000D01*
X43122964Y-19205150D01*
X43128787Y-19154959D01*
X43136359Y-19137808D01*
X43141030Y-19114329D01*
X43157826Y-19089191D01*
X43166608Y-19069303D01*
X43180191Y-19055719D01*
X43195223Y-19033223D01*
X43217719Y-19018191D01*
X43231303Y-19004608D01*
X43251191Y-18995826D01*
X43276329Y-18979030D01*
X43299808Y-18974359D01*
X43316959Y-18966787D01*
X43367151Y-18960964D01*
X43372000Y-18960000D01*
X44047000Y-18960000D01*
X44051850Y-18960964D01*
G37*
G36*
X54017621Y-20400000D02*
G01*
X52417621Y-20400000D01*
X52417621Y-18800000D01*
X54017621Y-18800000D01*
X54017621Y-20400000D01*
G37*
G36*
X55759432Y-18804711D02*
G01*
X55801209Y-18804711D01*
X55848339Y-18814728D01*
X55895638Y-18820058D01*
X55930029Y-18832092D01*
X55964731Y-18839468D01*
X56014738Y-18861733D01*
X56064728Y-18879225D01*
X56090749Y-18895575D01*
X56117456Y-18907466D01*
X56167254Y-18943646D01*
X56216413Y-18974535D01*
X56234065Y-18992187D01*
X56252705Y-19005730D01*
X56298786Y-19056908D01*
X56343086Y-19101208D01*
X56353275Y-19117424D01*
X56364567Y-19129965D01*
X56403194Y-19196870D01*
X56438396Y-19252893D01*
X56442791Y-19265453D01*
X56448156Y-19274746D01*
X56475631Y-19359305D01*
X56497563Y-19421983D01*
X56498394Y-19429363D01*
X56499816Y-19433738D01*
X56512697Y-19556306D01*
X56517621Y-19600000D01*
X56512697Y-19643697D01*
X56499816Y-19766261D01*
X56498394Y-19770635D01*
X56497563Y-19778017D01*
X56475626Y-19840707D01*
X56448156Y-19925253D01*
X56442792Y-19934543D01*
X56438396Y-19947107D01*
X56403187Y-20003140D01*
X56364567Y-20070034D01*
X56353277Y-20082572D01*
X56343086Y-20098792D01*
X56298776Y-20143101D01*
X56252705Y-20194269D01*
X56234069Y-20207808D01*
X56216413Y-20225465D01*
X56167244Y-20256359D01*
X56117456Y-20292533D01*
X56090755Y-20304421D01*
X56064728Y-20320775D01*
X56014728Y-20338270D01*
X55964731Y-20360531D01*
X55930035Y-20367905D01*
X55895638Y-20379942D01*
X55848336Y-20385271D01*
X55801209Y-20395289D01*
X55759432Y-20395289D01*
X55717621Y-20400000D01*
X55675810Y-20395289D01*
X55634033Y-20395289D01*
X55586905Y-20385271D01*
X55539604Y-20379942D01*
X55505207Y-20367906D01*
X55470510Y-20360531D01*
X55420508Y-20338268D01*
X55370514Y-20320775D01*
X55344489Y-20304422D01*
X55317785Y-20292533D01*
X55267990Y-20256355D01*
X55218829Y-20225465D01*
X55201175Y-20207811D01*
X55182536Y-20194269D01*
X55136454Y-20143090D01*
X55092156Y-20098792D01*
X55081966Y-20082575D01*
X55070674Y-20070034D01*
X55032041Y-20003120D01*
X54996846Y-19947107D01*
X54992451Y-19934547D01*
X54987085Y-19925253D01*
X54959601Y-19840667D01*
X54937679Y-19778017D01*
X54936847Y-19770639D01*
X54935425Y-19766261D01*
X54922529Y-19643565D01*
X54917621Y-19600000D01*
X54922529Y-19556438D01*
X54935425Y-19433738D01*
X54936847Y-19429358D01*
X54937679Y-19421983D01*
X54959596Y-19359345D01*
X54987085Y-19274746D01*
X54992452Y-19265449D01*
X54996846Y-19252893D01*
X55032034Y-19196890D01*
X55070674Y-19129965D01*
X55081968Y-19117421D01*
X55092156Y-19101208D01*
X55136447Y-19056916D01*
X55182538Y-19005728D01*
X55201180Y-18992183D01*
X55218829Y-18974535D01*
X55267975Y-18943654D01*
X55317783Y-18907467D01*
X55344494Y-18895574D01*
X55370514Y-18879225D01*
X55420498Y-18861734D01*
X55470510Y-18839468D01*
X55505213Y-18832091D01*
X55539604Y-18820058D01*
X55586902Y-18814728D01*
X55634033Y-18804711D01*
X55675810Y-18804711D01*
X55717621Y-18800000D01*
X55759432Y-18804711D01*
G37*
G36*
X65514450Y-18705764D02*
G01*
X65564640Y-18711587D01*
X65581789Y-18719159D01*
X65605271Y-18723830D01*
X65630410Y-18740627D01*
X65650296Y-18749408D01*
X65663877Y-18762989D01*
X65686377Y-18778023D01*
X65701410Y-18800522D01*
X65714991Y-18814103D01*
X65723770Y-18833986D01*
X65740570Y-18859129D01*
X65745241Y-18882612D01*
X65752812Y-18899759D01*
X65758633Y-18949939D01*
X65759600Y-18954800D01*
X65759600Y-19654800D01*
X65758632Y-19659663D01*
X65752812Y-19709840D01*
X65745241Y-19726985D01*
X65740570Y-19750471D01*
X65723769Y-19775615D01*
X65714991Y-19795496D01*
X65701412Y-19809074D01*
X65686377Y-19831577D01*
X65663874Y-19846612D01*
X65650296Y-19860191D01*
X65630415Y-19868969D01*
X65605271Y-19885770D01*
X65581785Y-19890441D01*
X65564640Y-19898012D01*
X65514461Y-19903832D01*
X65509600Y-19904800D01*
X64609600Y-19904800D01*
X64604738Y-19903832D01*
X64554559Y-19898012D01*
X64537412Y-19890441D01*
X64513929Y-19885770D01*
X64488786Y-19868970D01*
X64468903Y-19860191D01*
X64455322Y-19846610D01*
X64432823Y-19831577D01*
X64417789Y-19809077D01*
X64404208Y-19795496D01*
X64395427Y-19775610D01*
X64378630Y-19750471D01*
X64373959Y-19726989D01*
X64366387Y-19709840D01*
X64360564Y-19659649D01*
X64359600Y-19654800D01*
X64359600Y-18954800D01*
X64360564Y-18949950D01*
X64366387Y-18899759D01*
X64373959Y-18882608D01*
X64378630Y-18859129D01*
X64395426Y-18833991D01*
X64404208Y-18814103D01*
X64417791Y-18800519D01*
X64432823Y-18778023D01*
X64455319Y-18762991D01*
X64468903Y-18749408D01*
X64488791Y-18740626D01*
X64513929Y-18723830D01*
X64537408Y-18719159D01*
X64554559Y-18711587D01*
X64604751Y-18705764D01*
X64609600Y-18704800D01*
X65509600Y-18704800D01*
X65514450Y-18705764D01*
G37*
G36*
X60808450Y-17955164D02*
G01*
X60858640Y-17960987D01*
X60875789Y-17968559D01*
X60899271Y-17973230D01*
X60924410Y-17990027D01*
X60944296Y-17998808D01*
X60957877Y-18012389D01*
X60980377Y-18027423D01*
X60995410Y-18049922D01*
X61008991Y-18063503D01*
X61017770Y-18083386D01*
X61034570Y-18108529D01*
X61039241Y-18132012D01*
X61046812Y-18149159D01*
X61052633Y-18199339D01*
X61053600Y-18204200D01*
X61053600Y-19154200D01*
X61052632Y-19159063D01*
X61046812Y-19209240D01*
X61039241Y-19226385D01*
X61034570Y-19249871D01*
X61017769Y-19275015D01*
X61008991Y-19294896D01*
X60995412Y-19308474D01*
X60980377Y-19330977D01*
X60957874Y-19346012D01*
X60944296Y-19359591D01*
X60924415Y-19368369D01*
X60899271Y-19385170D01*
X60875785Y-19389841D01*
X60858640Y-19397412D01*
X60808461Y-19403232D01*
X60803600Y-19404200D01*
X60128600Y-19404200D01*
X60123738Y-19403232D01*
X60073559Y-19397412D01*
X60056412Y-19389841D01*
X60032929Y-19385170D01*
X60007786Y-19368370D01*
X59987903Y-19359591D01*
X59974322Y-19346010D01*
X59951823Y-19330977D01*
X59936789Y-19308477D01*
X59923208Y-19294896D01*
X59914427Y-19275010D01*
X59897630Y-19249871D01*
X59892959Y-19226389D01*
X59885387Y-19209240D01*
X59879564Y-19159049D01*
X59878600Y-19154200D01*
X59878600Y-18204200D01*
X59879564Y-18199350D01*
X59885387Y-18149159D01*
X59892959Y-18132008D01*
X59897630Y-18108529D01*
X59914426Y-18083391D01*
X59923208Y-18063503D01*
X59936791Y-18049919D01*
X59951823Y-18027423D01*
X59974319Y-18012391D01*
X59987903Y-17998808D01*
X60007791Y-17990026D01*
X60032929Y-17973230D01*
X60056408Y-17968559D01*
X60073559Y-17960987D01*
X60123751Y-17955164D01*
X60128600Y-17954200D01*
X60803600Y-17954200D01*
X60808450Y-17955164D01*
G37*
G36*
X62883450Y-17955164D02*
G01*
X62933640Y-17960987D01*
X62950789Y-17968559D01*
X62974271Y-17973230D01*
X62999410Y-17990027D01*
X63019296Y-17998808D01*
X63032877Y-18012389D01*
X63055377Y-18027423D01*
X63070410Y-18049922D01*
X63083991Y-18063503D01*
X63092770Y-18083386D01*
X63109570Y-18108529D01*
X63114241Y-18132012D01*
X63121812Y-18149159D01*
X63127633Y-18199339D01*
X63128600Y-18204200D01*
X63128600Y-19154200D01*
X63127632Y-19159063D01*
X63121812Y-19209240D01*
X63114241Y-19226385D01*
X63109570Y-19249871D01*
X63092769Y-19275015D01*
X63083991Y-19294896D01*
X63070412Y-19308474D01*
X63055377Y-19330977D01*
X63032874Y-19346012D01*
X63019296Y-19359591D01*
X62999415Y-19368369D01*
X62974271Y-19385170D01*
X62950785Y-19389841D01*
X62933640Y-19397412D01*
X62883461Y-19403232D01*
X62878600Y-19404200D01*
X62203600Y-19404200D01*
X62198738Y-19403232D01*
X62148559Y-19397412D01*
X62131412Y-19389841D01*
X62107929Y-19385170D01*
X62082786Y-19368370D01*
X62062903Y-19359591D01*
X62049322Y-19346010D01*
X62026823Y-19330977D01*
X62011789Y-19308477D01*
X61998208Y-19294896D01*
X61989427Y-19275010D01*
X61972630Y-19249871D01*
X61967959Y-19226389D01*
X61960387Y-19209240D01*
X61954564Y-19159049D01*
X61953600Y-19154200D01*
X61953600Y-18204200D01*
X61954564Y-18199350D01*
X61960387Y-18149159D01*
X61967959Y-18132008D01*
X61972630Y-18108529D01*
X61989426Y-18083391D01*
X61998208Y-18063503D01*
X62011791Y-18049919D01*
X62026823Y-18027423D01*
X62049319Y-18012391D01*
X62062903Y-17998808D01*
X62082791Y-17990026D01*
X62107929Y-17973230D01*
X62131408Y-17968559D01*
X62148559Y-17960987D01*
X62198751Y-17955164D01*
X62203600Y-17954200D01*
X62878600Y-17954200D01*
X62883450Y-17955164D01*
G37*
G36*
X15147113Y-16504930D02*
G01*
X15194076Y-16504930D01*
X15234622Y-16513548D01*
X15275526Y-16517577D01*
X15326916Y-16533166D01*
X15378115Y-16544049D01*
X15410879Y-16558636D01*
X15444304Y-16568776D01*
X15497420Y-16597166D01*
X15550000Y-16620577D01*
X15574445Y-16638337D01*
X15599849Y-16651916D01*
X15651669Y-16694444D01*
X15702218Y-16731170D01*
X15718631Y-16749398D01*
X15736190Y-16763809D01*
X15783379Y-16821308D01*
X15828115Y-16870993D01*
X15837512Y-16887269D01*
X15848083Y-16900150D01*
X15887183Y-16973302D01*
X15922191Y-17033937D01*
X15926218Y-17046331D01*
X15931223Y-17055695D01*
X15958821Y-17146672D01*
X15980333Y-17212879D01*
X15981090Y-17220082D01*
X15982422Y-17224473D01*
X15995377Y-17356021D01*
X16000000Y-17400000D01*
X15995377Y-17443982D01*
X15982422Y-17575526D01*
X15981090Y-17579916D01*
X15980333Y-17587121D01*
X15958816Y-17653341D01*
X15931223Y-17744304D01*
X15926219Y-17753665D01*
X15922191Y-17766063D01*
X15887176Y-17826709D01*
X15848083Y-17899849D01*
X15837514Y-17912726D01*
X15828115Y-17929007D01*
X15783369Y-17978701D01*
X15736190Y-18036190D01*
X15718634Y-18050597D01*
X15702218Y-18068830D01*
X15651659Y-18105563D01*
X15599849Y-18148083D01*
X15574450Y-18161658D01*
X15550000Y-18179423D01*
X15497408Y-18202838D01*
X15444304Y-18231223D01*
X15410886Y-18241360D01*
X15378115Y-18255951D01*
X15326905Y-18266836D01*
X15275526Y-18282422D01*
X15234631Y-18286449D01*
X15194076Y-18295070D01*
X15147103Y-18295070D01*
X15100000Y-18299709D01*
X15052897Y-18295070D01*
X15005924Y-18295070D01*
X14965368Y-18286449D01*
X14924473Y-18282422D01*
X14873091Y-18266835D01*
X14821885Y-18255951D01*
X14789115Y-18241361D01*
X14755695Y-18231223D01*
X14702585Y-18202835D01*
X14650000Y-18179423D01*
X14625552Y-18161660D01*
X14600150Y-18148083D01*
X14548332Y-18105556D01*
X14497782Y-18068830D01*
X14481368Y-18050600D01*
X14463809Y-18036190D01*
X14416618Y-17978688D01*
X14371885Y-17929007D01*
X14362487Y-17912730D01*
X14351916Y-17899849D01*
X14312810Y-17826686D01*
X14277809Y-17766063D01*
X14273782Y-17753670D01*
X14268776Y-17744304D01*
X14241168Y-17653294D01*
X14219667Y-17587121D01*
X14218910Y-17579921D01*
X14217577Y-17575526D01*
X14204606Y-17443831D01*
X14200000Y-17400000D01*
X14204606Y-17356172D01*
X14217577Y-17224473D01*
X14218910Y-17220077D01*
X14219667Y-17212879D01*
X14241163Y-17146719D01*
X14268776Y-17055695D01*
X14273783Y-17046327D01*
X14277809Y-17033937D01*
X14312802Y-16973326D01*
X14351916Y-16900150D01*
X14362489Y-16887265D01*
X14371885Y-16870993D01*
X14416609Y-16821321D01*
X14463809Y-16763809D01*
X14481371Y-16749395D01*
X14497782Y-16731170D01*
X14548321Y-16694450D01*
X14600150Y-16651916D01*
X14625557Y-16638335D01*
X14650000Y-16620577D01*
X14702573Y-16597169D01*
X14755695Y-16568776D01*
X14789122Y-16558635D01*
X14821885Y-16544049D01*
X14873080Y-16533166D01*
X14924473Y-16517577D01*
X14965377Y-16513548D01*
X15005924Y-16504930D01*
X15052887Y-16504930D01*
X15100000Y-16500290D01*
X15147113Y-16504930D01*
G37*
G36*
X20147113Y-16504930D02*
G01*
X20194076Y-16504930D01*
X20234622Y-16513548D01*
X20275526Y-16517577D01*
X20326916Y-16533166D01*
X20378115Y-16544049D01*
X20410879Y-16558636D01*
X20444304Y-16568776D01*
X20497420Y-16597166D01*
X20550000Y-16620577D01*
X20574445Y-16638337D01*
X20599849Y-16651916D01*
X20651669Y-16694444D01*
X20702218Y-16731170D01*
X20718631Y-16749398D01*
X20736190Y-16763809D01*
X20783379Y-16821308D01*
X20828115Y-16870993D01*
X20837512Y-16887269D01*
X20848083Y-16900150D01*
X20887183Y-16973302D01*
X20922191Y-17033937D01*
X20926218Y-17046331D01*
X20931223Y-17055695D01*
X20958821Y-17146672D01*
X20980333Y-17212879D01*
X20981090Y-17220082D01*
X20982422Y-17224473D01*
X20995377Y-17356021D01*
X21000000Y-17400000D01*
X20995377Y-17443982D01*
X20982422Y-17575526D01*
X20981090Y-17579916D01*
X20980333Y-17587121D01*
X20958816Y-17653341D01*
X20931223Y-17744304D01*
X20926219Y-17753665D01*
X20922191Y-17766063D01*
X20887176Y-17826709D01*
X20848083Y-17899849D01*
X20837514Y-17912726D01*
X20828115Y-17929007D01*
X20783369Y-17978701D01*
X20736190Y-18036190D01*
X20718634Y-18050597D01*
X20702218Y-18068830D01*
X20651659Y-18105563D01*
X20599849Y-18148083D01*
X20574450Y-18161658D01*
X20550000Y-18179423D01*
X20497408Y-18202838D01*
X20444304Y-18231223D01*
X20410886Y-18241360D01*
X20378115Y-18255951D01*
X20326905Y-18266836D01*
X20275526Y-18282422D01*
X20234631Y-18286449D01*
X20194076Y-18295070D01*
X20147103Y-18295070D01*
X20100000Y-18299709D01*
X20052897Y-18295070D01*
X20005924Y-18295070D01*
X19965368Y-18286449D01*
X19924473Y-18282422D01*
X19873091Y-18266835D01*
X19821885Y-18255951D01*
X19789115Y-18241361D01*
X19755695Y-18231223D01*
X19702585Y-18202835D01*
X19650000Y-18179423D01*
X19625552Y-18161660D01*
X19600150Y-18148083D01*
X19548332Y-18105556D01*
X19497782Y-18068830D01*
X19481368Y-18050600D01*
X19463809Y-18036190D01*
X19416618Y-17978688D01*
X19371885Y-17929007D01*
X19362487Y-17912730D01*
X19351916Y-17899849D01*
X19312810Y-17826686D01*
X19277809Y-17766063D01*
X19273782Y-17753670D01*
X19268776Y-17744304D01*
X19241168Y-17653294D01*
X19219667Y-17587121D01*
X19218910Y-17579921D01*
X19217577Y-17575526D01*
X19204606Y-17443831D01*
X19200000Y-17400000D01*
X19204606Y-17356172D01*
X19217577Y-17224473D01*
X19218910Y-17220077D01*
X19219667Y-17212879D01*
X19241163Y-17146719D01*
X19268776Y-17055695D01*
X19273783Y-17046327D01*
X19277809Y-17033937D01*
X19312802Y-16973326D01*
X19351916Y-16900150D01*
X19362489Y-16887265D01*
X19371885Y-16870993D01*
X19416609Y-16821321D01*
X19463809Y-16763809D01*
X19481371Y-16749395D01*
X19497782Y-16731170D01*
X19548321Y-16694450D01*
X19600150Y-16651916D01*
X19625557Y-16638335D01*
X19650000Y-16620577D01*
X19702573Y-16597169D01*
X19755695Y-16568776D01*
X19789122Y-16558635D01*
X19821885Y-16544049D01*
X19873080Y-16533166D01*
X19924473Y-16517577D01*
X19965377Y-16513548D01*
X20005924Y-16504930D01*
X20052887Y-16504930D01*
X20100000Y-16500290D01*
X20147113Y-16504930D01*
G37*
G36*
X67647112Y-16504930D02*
G01*
X67694076Y-16504930D01*
X67734623Y-16513548D01*
X67775526Y-16517577D01*
X67826916Y-16533166D01*
X67878115Y-16544049D01*
X67910879Y-16558636D01*
X67944304Y-16568776D01*
X67997420Y-16597166D01*
X68050000Y-16620577D01*
X68074445Y-16638337D01*
X68099849Y-16651916D01*
X68151669Y-16694444D01*
X68202218Y-16731170D01*
X68218631Y-16749398D01*
X68236190Y-16763809D01*
X68283379Y-16821308D01*
X68328115Y-16870993D01*
X68337512Y-16887269D01*
X68348083Y-16900150D01*
X68387183Y-16973302D01*
X68422191Y-17033937D01*
X68426218Y-17046331D01*
X68431223Y-17055695D01*
X68458821Y-17146672D01*
X68480333Y-17212879D01*
X68481090Y-17220082D01*
X68482422Y-17224473D01*
X68495377Y-17356021D01*
X68500000Y-17400000D01*
X68495377Y-17443982D01*
X68482422Y-17575526D01*
X68481090Y-17579916D01*
X68480333Y-17587121D01*
X68458816Y-17653341D01*
X68431223Y-17744304D01*
X68426219Y-17753665D01*
X68422191Y-17766063D01*
X68387176Y-17826709D01*
X68348083Y-17899849D01*
X68337514Y-17912726D01*
X68328115Y-17929007D01*
X68283369Y-17978701D01*
X68236190Y-18036190D01*
X68218634Y-18050597D01*
X68202218Y-18068830D01*
X68151659Y-18105563D01*
X68099849Y-18148083D01*
X68074450Y-18161658D01*
X68050000Y-18179423D01*
X67997408Y-18202838D01*
X67944304Y-18231223D01*
X67910886Y-18241360D01*
X67878115Y-18255951D01*
X67826905Y-18266836D01*
X67775526Y-18282422D01*
X67734631Y-18286449D01*
X67694076Y-18295070D01*
X67647103Y-18295070D01*
X67600000Y-18299709D01*
X67552897Y-18295070D01*
X67505924Y-18295070D01*
X67465368Y-18286449D01*
X67424473Y-18282422D01*
X67373091Y-18266835D01*
X67321885Y-18255951D01*
X67289115Y-18241361D01*
X67255695Y-18231223D01*
X67202585Y-18202835D01*
X67150000Y-18179423D01*
X67125552Y-18161660D01*
X67100150Y-18148083D01*
X67048332Y-18105556D01*
X66997782Y-18068830D01*
X66981368Y-18050600D01*
X66963809Y-18036190D01*
X66916618Y-17978688D01*
X66871885Y-17929007D01*
X66862487Y-17912730D01*
X66851916Y-17899849D01*
X66812810Y-17826686D01*
X66777809Y-17766063D01*
X66773782Y-17753670D01*
X66768776Y-17744304D01*
X66741168Y-17653294D01*
X66719667Y-17587121D01*
X66718910Y-17579921D01*
X66717577Y-17575526D01*
X66704606Y-17443831D01*
X66700000Y-17400000D01*
X66704606Y-17356172D01*
X66717577Y-17224473D01*
X66718910Y-17220077D01*
X66719667Y-17212879D01*
X66741163Y-17146719D01*
X66768776Y-17055695D01*
X66773783Y-17046327D01*
X66777809Y-17033937D01*
X66812802Y-16973326D01*
X66851916Y-16900150D01*
X66862489Y-16887265D01*
X66871885Y-16870993D01*
X66916609Y-16821321D01*
X66963809Y-16763809D01*
X66981371Y-16749395D01*
X66997782Y-16731170D01*
X67048321Y-16694450D01*
X67100150Y-16651916D01*
X67125557Y-16638335D01*
X67150000Y-16620577D01*
X67202573Y-16597169D01*
X67255695Y-16568776D01*
X67289122Y-16558635D01*
X67321885Y-16544049D01*
X67373080Y-16533166D01*
X67424473Y-16517577D01*
X67465377Y-16513548D01*
X67505924Y-16504930D01*
X67552886Y-16504930D01*
X67599999Y-16500290D01*
X67647112Y-16504930D01*
G37*
G36*
X72647112Y-16504930D02*
G01*
X72694076Y-16504930D01*
X72734623Y-16513548D01*
X72775526Y-16517577D01*
X72826916Y-16533166D01*
X72878115Y-16544049D01*
X72910879Y-16558636D01*
X72944304Y-16568776D01*
X72997420Y-16597166D01*
X73050000Y-16620577D01*
X73074445Y-16638337D01*
X73099849Y-16651916D01*
X73151669Y-16694444D01*
X73202218Y-16731170D01*
X73218631Y-16749398D01*
X73236190Y-16763809D01*
X73283379Y-16821308D01*
X73328115Y-16870993D01*
X73337512Y-16887269D01*
X73348083Y-16900150D01*
X73387183Y-16973302D01*
X73422191Y-17033937D01*
X73426218Y-17046331D01*
X73431223Y-17055695D01*
X73458821Y-17146672D01*
X73480333Y-17212879D01*
X73481090Y-17220082D01*
X73482422Y-17224473D01*
X73495378Y-17356032D01*
X73500000Y-17400000D01*
X73495376Y-17443993D01*
X73482422Y-17575526D01*
X73481090Y-17579916D01*
X73480333Y-17587121D01*
X73458816Y-17653341D01*
X73431223Y-17744304D01*
X73426219Y-17753665D01*
X73422191Y-17766063D01*
X73387176Y-17826709D01*
X73348083Y-17899849D01*
X73337514Y-17912726D01*
X73328115Y-17929007D01*
X73283369Y-17978701D01*
X73236190Y-18036190D01*
X73218634Y-18050597D01*
X73202218Y-18068830D01*
X73151659Y-18105563D01*
X73099849Y-18148083D01*
X73074450Y-18161658D01*
X73050000Y-18179423D01*
X72997408Y-18202838D01*
X72944304Y-18231223D01*
X72910886Y-18241360D01*
X72878115Y-18255951D01*
X72826905Y-18266836D01*
X72775526Y-18282422D01*
X72734631Y-18286449D01*
X72694076Y-18295070D01*
X72647103Y-18295070D01*
X72600000Y-18299709D01*
X72552897Y-18295070D01*
X72505924Y-18295070D01*
X72465368Y-18286449D01*
X72424473Y-18282422D01*
X72373091Y-18266835D01*
X72321885Y-18255951D01*
X72289115Y-18241361D01*
X72255695Y-18231223D01*
X72202585Y-18202835D01*
X72150000Y-18179423D01*
X72125552Y-18161660D01*
X72100150Y-18148083D01*
X72048332Y-18105556D01*
X71997782Y-18068830D01*
X71981368Y-18050600D01*
X71963809Y-18036190D01*
X71916618Y-17978688D01*
X71871885Y-17929007D01*
X71862487Y-17912730D01*
X71851916Y-17899849D01*
X71812810Y-17826686D01*
X71777809Y-17766063D01*
X71773782Y-17753670D01*
X71768776Y-17744304D01*
X71741168Y-17653294D01*
X71719667Y-17587121D01*
X71718910Y-17579921D01*
X71717577Y-17575526D01*
X71704606Y-17443831D01*
X71700000Y-17400000D01*
X71704606Y-17356172D01*
X71717577Y-17224473D01*
X71718910Y-17220077D01*
X71719667Y-17212879D01*
X71741163Y-17146719D01*
X71768776Y-17055695D01*
X71773783Y-17046327D01*
X71777809Y-17033937D01*
X71812802Y-16973326D01*
X71851916Y-16900150D01*
X71862489Y-16887265D01*
X71871885Y-16870993D01*
X71916609Y-16821321D01*
X71963809Y-16763809D01*
X71981371Y-16749395D01*
X71997782Y-16731170D01*
X72048321Y-16694450D01*
X72100150Y-16651916D01*
X72125557Y-16638335D01*
X72150000Y-16620577D01*
X72202573Y-16597169D01*
X72255695Y-16568776D01*
X72289122Y-16558635D01*
X72321885Y-16544049D01*
X72373080Y-16533166D01*
X72424473Y-16517577D01*
X72465377Y-16513548D01*
X72505924Y-16504930D01*
X72552886Y-16504930D01*
X72599999Y-16500290D01*
X72647112Y-16504930D01*
G37*
G36*
X39804850Y-16699964D02*
G01*
X39855040Y-16705787D01*
X39872189Y-16713359D01*
X39895671Y-16718030D01*
X39920810Y-16734827D01*
X39940696Y-16743608D01*
X39954277Y-16757189D01*
X39976777Y-16772223D01*
X39991810Y-16794722D01*
X40005391Y-16808303D01*
X40014170Y-16828186D01*
X40030970Y-16853329D01*
X40035641Y-16876812D01*
X40043212Y-16893959D01*
X40049033Y-16944139D01*
X40050000Y-16949000D01*
X40050000Y-17849000D01*
X40049032Y-17853863D01*
X40043212Y-17904040D01*
X40035641Y-17921185D01*
X40030970Y-17944671D01*
X40014169Y-17969815D01*
X40005391Y-17989696D01*
X39991812Y-18003274D01*
X39976777Y-18025777D01*
X39954274Y-18040812D01*
X39940696Y-18054391D01*
X39920815Y-18063169D01*
X39895671Y-18079970D01*
X39872185Y-18084641D01*
X39855040Y-18092212D01*
X39804861Y-18098032D01*
X39800000Y-18099000D01*
X39100000Y-18099000D01*
X39095138Y-18098032D01*
X39044959Y-18092212D01*
X39027812Y-18084641D01*
X39004329Y-18079970D01*
X38979186Y-18063170D01*
X38959303Y-18054391D01*
X38945722Y-18040810D01*
X38923223Y-18025777D01*
X38908189Y-18003277D01*
X38894608Y-17989696D01*
X38885827Y-17969810D01*
X38869030Y-17944671D01*
X38864359Y-17921189D01*
X38856787Y-17904040D01*
X38850964Y-17853849D01*
X38850000Y-17849000D01*
X38850000Y-16949000D01*
X38850964Y-16944150D01*
X38856787Y-16893959D01*
X38864359Y-16876808D01*
X38869030Y-16853329D01*
X38885826Y-16828191D01*
X38894608Y-16808303D01*
X38908191Y-16794719D01*
X38923223Y-16772223D01*
X38945719Y-16757191D01*
X38959303Y-16743608D01*
X38979191Y-16734826D01*
X39004329Y-16718030D01*
X39027808Y-16713359D01*
X39044959Y-16705787D01*
X39095151Y-16699964D01*
X39100000Y-16699000D01*
X39800000Y-16699000D01*
X39804850Y-16699964D01*
G37*
G36*
X41804850Y-16699964D02*
G01*
X41855040Y-16705787D01*
X41872189Y-16713359D01*
X41895671Y-16718030D01*
X41920810Y-16734827D01*
X41940696Y-16743608D01*
X41954277Y-16757189D01*
X41976777Y-16772223D01*
X41991810Y-16794722D01*
X42005391Y-16808303D01*
X42014170Y-16828186D01*
X42030970Y-16853329D01*
X42035641Y-16876812D01*
X42043212Y-16893959D01*
X42049033Y-16944139D01*
X42050000Y-16949000D01*
X42050000Y-17849000D01*
X42049032Y-17853863D01*
X42043212Y-17904040D01*
X42035641Y-17921185D01*
X42030970Y-17944671D01*
X42014169Y-17969815D01*
X42005391Y-17989696D01*
X41991812Y-18003274D01*
X41976777Y-18025777D01*
X41954274Y-18040812D01*
X41940696Y-18054391D01*
X41920815Y-18063169D01*
X41895671Y-18079970D01*
X41872185Y-18084641D01*
X41855040Y-18092212D01*
X41804861Y-18098032D01*
X41800000Y-18099000D01*
X41100000Y-18099000D01*
X41095138Y-18098032D01*
X41044959Y-18092212D01*
X41027812Y-18084641D01*
X41004329Y-18079970D01*
X40979186Y-18063170D01*
X40959303Y-18054391D01*
X40945722Y-18040810D01*
X40923223Y-18025777D01*
X40908189Y-18003277D01*
X40894608Y-17989696D01*
X40885827Y-17969810D01*
X40869030Y-17944671D01*
X40864359Y-17921189D01*
X40856787Y-17904040D01*
X40850964Y-17853849D01*
X40850000Y-17849000D01*
X40850000Y-16949000D01*
X40850964Y-16944150D01*
X40856787Y-16893959D01*
X40864359Y-16876808D01*
X40869030Y-16853329D01*
X40885826Y-16828191D01*
X40894608Y-16808303D01*
X40908191Y-16794719D01*
X40923223Y-16772223D01*
X40945719Y-16757191D01*
X40959303Y-16743608D01*
X40979191Y-16734826D01*
X41004329Y-16718030D01*
X41027808Y-16713359D01*
X41044959Y-16705787D01*
X41095151Y-16699964D01*
X41100000Y-16699000D01*
X41800000Y-16699000D01*
X41804850Y-16699964D01*
G37*
G36*
X39804850Y-14439364D02*
G01*
X39855040Y-14445187D01*
X39872189Y-14452759D01*
X39895671Y-14457430D01*
X39920810Y-14474227D01*
X39940696Y-14483008D01*
X39954277Y-14496589D01*
X39976777Y-14511623D01*
X39991810Y-14534122D01*
X40005391Y-14547703D01*
X40014170Y-14567586D01*
X40030970Y-14592729D01*
X40035641Y-14616212D01*
X40043212Y-14633359D01*
X40049033Y-14683539D01*
X40050000Y-14688400D01*
X40050000Y-15588400D01*
X40049032Y-15593263D01*
X40043212Y-15643440D01*
X40035641Y-15660585D01*
X40030970Y-15684071D01*
X40014169Y-15709215D01*
X40005391Y-15729096D01*
X39991812Y-15742674D01*
X39976777Y-15765177D01*
X39954274Y-15780212D01*
X39940696Y-15793791D01*
X39920815Y-15802569D01*
X39895671Y-15819370D01*
X39872185Y-15824041D01*
X39855040Y-15831612D01*
X39804861Y-15837432D01*
X39800000Y-15838400D01*
X39100000Y-15838400D01*
X39095138Y-15837432D01*
X39044959Y-15831612D01*
X39027812Y-15824041D01*
X39004329Y-15819370D01*
X38979186Y-15802570D01*
X38959303Y-15793791D01*
X38945722Y-15780210D01*
X38923223Y-15765177D01*
X38908189Y-15742677D01*
X38894608Y-15729096D01*
X38885827Y-15709210D01*
X38869030Y-15684071D01*
X38864359Y-15660589D01*
X38856787Y-15643440D01*
X38850964Y-15593249D01*
X38850000Y-15588400D01*
X38850000Y-14688400D01*
X38850964Y-14683550D01*
X38856787Y-14633359D01*
X38864359Y-14616208D01*
X38869030Y-14592729D01*
X38885826Y-14567591D01*
X38894608Y-14547703D01*
X38908191Y-14534119D01*
X38923223Y-14511623D01*
X38945719Y-14496591D01*
X38959303Y-14483008D01*
X38979191Y-14474226D01*
X39004329Y-14457430D01*
X39027808Y-14452759D01*
X39044959Y-14445187D01*
X39095151Y-14439364D01*
X39100000Y-14438400D01*
X39800000Y-14438400D01*
X39804850Y-14439364D01*
G37*
G36*
X41804850Y-14439364D02*
G01*
X41855040Y-14445187D01*
X41872189Y-14452759D01*
X41895671Y-14457430D01*
X41920810Y-14474227D01*
X41940696Y-14483008D01*
X41954277Y-14496589D01*
X41976777Y-14511623D01*
X41991810Y-14534122D01*
X42005391Y-14547703D01*
X42014170Y-14567586D01*
X42030970Y-14592729D01*
X42035641Y-14616212D01*
X42043212Y-14633359D01*
X42049033Y-14683539D01*
X42050000Y-14688400D01*
X42050000Y-15588400D01*
X42049032Y-15593263D01*
X42043212Y-15643440D01*
X42035641Y-15660585D01*
X42030970Y-15684071D01*
X42014169Y-15709215D01*
X42005391Y-15729096D01*
X41991812Y-15742674D01*
X41976777Y-15765177D01*
X41954274Y-15780212D01*
X41940696Y-15793791D01*
X41920815Y-15802569D01*
X41895671Y-15819370D01*
X41872185Y-15824041D01*
X41855040Y-15831612D01*
X41804861Y-15837432D01*
X41800000Y-15838400D01*
X41100000Y-15838400D01*
X41095138Y-15837432D01*
X41044959Y-15831612D01*
X41027812Y-15824041D01*
X41004329Y-15819370D01*
X40979186Y-15802570D01*
X40959303Y-15793791D01*
X40945722Y-15780210D01*
X40923223Y-15765177D01*
X40908189Y-15742677D01*
X40894608Y-15729096D01*
X40885827Y-15709210D01*
X40869030Y-15684071D01*
X40864359Y-15660589D01*
X40856787Y-15643440D01*
X40850964Y-15593249D01*
X40850000Y-15588400D01*
X40850000Y-14688400D01*
X40850964Y-14683550D01*
X40856787Y-14633359D01*
X40864359Y-14616208D01*
X40869030Y-14592729D01*
X40885826Y-14567591D01*
X40894608Y-14547703D01*
X40908191Y-14534119D01*
X40923223Y-14511623D01*
X40945719Y-14496591D01*
X40959303Y-14483008D01*
X40979191Y-14474226D01*
X41004329Y-14457430D01*
X41027808Y-14452759D01*
X41044959Y-14445187D01*
X41095151Y-14439364D01*
X41100000Y-14438400D01*
X41800000Y-14438400D01*
X41804850Y-14439364D01*
G37*
G36*
X54042200Y-14042000D02*
G01*
X51642200Y-14042000D01*
X51642200Y-11642000D01*
X54042200Y-11642000D01*
X54042200Y-14042000D01*
G37*
G36*
X56186011Y-11610111D02*
G01*
X56227788Y-11610111D01*
X56274918Y-11620128D01*
X56322217Y-11625458D01*
X56356608Y-11637492D01*
X56391310Y-11644868D01*
X56441317Y-11667133D01*
X56491307Y-11684625D01*
X56517328Y-11700975D01*
X56544035Y-11712866D01*
X56593833Y-11749046D01*
X56642992Y-11779935D01*
X56660644Y-11797587D01*
X56679284Y-11811130D01*
X56725365Y-11862308D01*
X56769665Y-11906608D01*
X56779854Y-11922824D01*
X56791146Y-11935365D01*
X56829773Y-12002270D01*
X56864975Y-12058293D01*
X56869370Y-12070853D01*
X56874735Y-12080146D01*
X56902210Y-12164705D01*
X56924142Y-12227383D01*
X56924973Y-12234763D01*
X56926395Y-12239138D01*
X56939277Y-12361716D01*
X56944200Y-12405400D01*
X56939275Y-12449107D01*
X56926395Y-12571661D01*
X56924973Y-12576035D01*
X56924142Y-12583417D01*
X56902205Y-12646107D01*
X56874735Y-12730653D01*
X56869371Y-12739943D01*
X56864975Y-12752507D01*
X56829766Y-12808540D01*
X56791146Y-12875434D01*
X56779856Y-12887972D01*
X56769665Y-12904192D01*
X56725355Y-12948501D01*
X56679284Y-12999669D01*
X56660648Y-13013208D01*
X56642992Y-13030865D01*
X56593823Y-13061759D01*
X56544035Y-13097933D01*
X56517334Y-13109821D01*
X56491307Y-13126175D01*
X56441307Y-13143670D01*
X56391310Y-13165931D01*
X56356614Y-13173305D01*
X56322217Y-13185342D01*
X56274915Y-13190671D01*
X56227788Y-13200689D01*
X56186011Y-13200689D01*
X56144200Y-13205400D01*
X56102389Y-13200689D01*
X56060612Y-13200689D01*
X56013484Y-13190671D01*
X55966183Y-13185342D01*
X55931786Y-13173306D01*
X55897089Y-13165931D01*
X55847087Y-13143668D01*
X55797093Y-13126175D01*
X55771068Y-13109822D01*
X55744364Y-13097933D01*
X55694569Y-13061755D01*
X55645408Y-13030865D01*
X55627754Y-13013211D01*
X55609115Y-12999669D01*
X55563033Y-12948490D01*
X55518735Y-12904192D01*
X55508545Y-12887975D01*
X55497253Y-12875434D01*
X55458620Y-12808520D01*
X55423425Y-12752507D01*
X55419030Y-12739947D01*
X55413664Y-12730653D01*
X55386180Y-12646067D01*
X55364258Y-12583417D01*
X55363426Y-12576039D01*
X55362004Y-12571661D01*
X55349109Y-12448975D01*
X55344200Y-12405400D01*
X55349107Y-12361848D01*
X55362004Y-12239138D01*
X55363426Y-12234758D01*
X55364258Y-12227383D01*
X55386175Y-12164745D01*
X55413664Y-12080146D01*
X55419031Y-12070849D01*
X55423425Y-12058293D01*
X55458613Y-12002290D01*
X55497253Y-11935365D01*
X55508547Y-11922821D01*
X55518735Y-11906608D01*
X55563026Y-11862316D01*
X55609117Y-11811128D01*
X55627759Y-11797583D01*
X55645408Y-11779935D01*
X55694554Y-11749054D01*
X55744362Y-11712867D01*
X55771073Y-11700974D01*
X55797093Y-11684625D01*
X55847077Y-11667134D01*
X55897089Y-11644868D01*
X55931792Y-11637491D01*
X55966183Y-11625458D01*
X56013481Y-11620128D01*
X56060612Y-11610111D01*
X56102389Y-11610111D01*
X56144200Y-11605400D01*
X56186011Y-11610111D01*
G37*
G36*
X66346011Y-11610111D02*
G01*
X66387788Y-11610111D01*
X66434918Y-11620128D01*
X66482217Y-11625458D01*
X66516608Y-11637492D01*
X66551310Y-11644868D01*
X66601317Y-11667133D01*
X66651307Y-11684625D01*
X66677328Y-11700975D01*
X66704035Y-11712866D01*
X66753833Y-11749046D01*
X66802992Y-11779935D01*
X66820644Y-11797587D01*
X66839284Y-11811130D01*
X66885365Y-11862308D01*
X66929665Y-11906608D01*
X66939854Y-11922824D01*
X66951146Y-11935365D01*
X66989773Y-12002270D01*
X67024975Y-12058293D01*
X67029370Y-12070853D01*
X67034735Y-12080146D01*
X67062210Y-12164705D01*
X67084142Y-12227383D01*
X67084973Y-12234763D01*
X67086395Y-12239138D01*
X67099277Y-12361716D01*
X67104200Y-12405400D01*
X67099275Y-12449107D01*
X67086395Y-12571661D01*
X67084973Y-12576035D01*
X67084142Y-12583417D01*
X67062205Y-12646107D01*
X67034735Y-12730653D01*
X67029371Y-12739943D01*
X67024975Y-12752507D01*
X66989766Y-12808540D01*
X66951146Y-12875434D01*
X66939856Y-12887972D01*
X66929665Y-12904192D01*
X66885355Y-12948501D01*
X66839284Y-12999669D01*
X66820648Y-13013208D01*
X66802992Y-13030865D01*
X66753823Y-13061759D01*
X66704035Y-13097933D01*
X66677334Y-13109821D01*
X66651307Y-13126175D01*
X66601307Y-13143670D01*
X66551310Y-13165931D01*
X66516614Y-13173305D01*
X66482217Y-13185342D01*
X66434915Y-13190671D01*
X66387788Y-13200689D01*
X66346011Y-13200689D01*
X66304200Y-13205400D01*
X66262389Y-13200689D01*
X66220612Y-13200689D01*
X66173484Y-13190671D01*
X66126183Y-13185342D01*
X66091786Y-13173306D01*
X66057089Y-13165931D01*
X66007087Y-13143668D01*
X65957093Y-13126175D01*
X65931068Y-13109822D01*
X65904364Y-13097933D01*
X65854569Y-13061755D01*
X65805408Y-13030865D01*
X65787754Y-13013211D01*
X65769115Y-12999669D01*
X65723033Y-12948490D01*
X65678735Y-12904192D01*
X65668545Y-12887975D01*
X65657253Y-12875434D01*
X65618620Y-12808520D01*
X65583425Y-12752507D01*
X65579030Y-12739947D01*
X65573664Y-12730653D01*
X65546180Y-12646067D01*
X65524258Y-12583417D01*
X65523426Y-12576039D01*
X65522004Y-12571661D01*
X65509109Y-12448975D01*
X65504200Y-12405400D01*
X65509107Y-12361848D01*
X65522004Y-12239138D01*
X65523426Y-12234758D01*
X65524258Y-12227383D01*
X65546175Y-12164745D01*
X65573664Y-12080146D01*
X65579031Y-12070849D01*
X65583425Y-12058293D01*
X65618613Y-12002290D01*
X65657253Y-11935365D01*
X65668547Y-11922821D01*
X65678735Y-11906608D01*
X65723026Y-11862316D01*
X65769117Y-11811128D01*
X65787759Y-11797583D01*
X65805408Y-11779935D01*
X65854554Y-11749054D01*
X65904362Y-11712867D01*
X65931073Y-11700974D01*
X65957093Y-11684625D01*
X66007077Y-11667134D01*
X66057089Y-11644868D01*
X66091792Y-11637491D01*
X66126183Y-11625458D01*
X66173481Y-11620128D01*
X66220612Y-11610111D01*
X66262389Y-11610111D01*
X66304200Y-11605400D01*
X66346011Y-11610111D01*
G37*
G36*
X74789611Y-11433711D02*
G01*
X74831388Y-11433711D01*
X74878518Y-11443728D01*
X74925817Y-11449058D01*
X74960208Y-11461092D01*
X74994910Y-11468468D01*
X75044917Y-11490733D01*
X75094907Y-11508225D01*
X75120928Y-11524575D01*
X75147635Y-11536466D01*
X75197433Y-11572646D01*
X75246592Y-11603535D01*
X75264244Y-11621187D01*
X75282884Y-11634730D01*
X75328965Y-11685908D01*
X75373265Y-11730208D01*
X75383454Y-11746424D01*
X75394746Y-11758965D01*
X75433373Y-11825870D01*
X75468575Y-11881893D01*
X75472970Y-11894453D01*
X75478335Y-11903746D01*
X75505810Y-11988305D01*
X75527742Y-12050983D01*
X75528573Y-12058363D01*
X75529995Y-12062738D01*
X75542876Y-12185306D01*
X75547800Y-12229000D01*
X75542876Y-12272697D01*
X75529995Y-12395261D01*
X75528573Y-12399635D01*
X75527742Y-12407017D01*
X75505805Y-12469707D01*
X75478335Y-12554253D01*
X75472971Y-12563543D01*
X75468575Y-12576107D01*
X75433366Y-12632140D01*
X75394746Y-12699034D01*
X75383456Y-12711572D01*
X75373265Y-12727792D01*
X75328955Y-12772101D01*
X75282884Y-12823269D01*
X75264248Y-12836808D01*
X75246592Y-12854465D01*
X75197423Y-12885359D01*
X75147635Y-12921533D01*
X75120934Y-12933421D01*
X75094907Y-12949775D01*
X75044907Y-12967270D01*
X74994910Y-12989531D01*
X74960214Y-12996905D01*
X74925817Y-13008942D01*
X74878515Y-13014271D01*
X74831388Y-13024289D01*
X74789611Y-13024289D01*
X74747800Y-13029000D01*
X74705989Y-13024289D01*
X74664212Y-13024289D01*
X74617084Y-13014271D01*
X74569783Y-13008942D01*
X74535386Y-12996906D01*
X74500689Y-12989531D01*
X74450687Y-12967268D01*
X74400693Y-12949775D01*
X74374668Y-12933422D01*
X74347964Y-12921533D01*
X74298169Y-12885355D01*
X74249008Y-12854465D01*
X74231354Y-12836811D01*
X74212715Y-12823269D01*
X74166633Y-12772090D01*
X74122335Y-12727792D01*
X74112145Y-12711575D01*
X74100853Y-12699034D01*
X74062220Y-12632120D01*
X74027025Y-12576107D01*
X74022630Y-12563547D01*
X74017264Y-12554253D01*
X73989780Y-12469667D01*
X73967858Y-12407017D01*
X73967026Y-12399639D01*
X73965604Y-12395261D01*
X73952708Y-12272565D01*
X73947800Y-12229000D01*
X73952708Y-12185438D01*
X73965604Y-12062738D01*
X73967026Y-12058358D01*
X73967858Y-12050983D01*
X73989775Y-11988345D01*
X74017264Y-11903746D01*
X74022631Y-11894449D01*
X74027025Y-11881893D01*
X74062213Y-11825890D01*
X74100853Y-11758965D01*
X74112147Y-11746421D01*
X74122335Y-11730208D01*
X74166626Y-11685916D01*
X74212717Y-11634728D01*
X74231359Y-11621183D01*
X74249008Y-11603535D01*
X74298154Y-11572654D01*
X74347962Y-11536467D01*
X74374673Y-11524574D01*
X74400693Y-11508225D01*
X74450677Y-11490734D01*
X74500689Y-11468468D01*
X74535392Y-11461091D01*
X74569783Y-11449058D01*
X74617081Y-11443728D01*
X74664212Y-11433711D01*
X74705989Y-11433711D01*
X74747800Y-11429000D01*
X74789611Y-11433711D01*
G37*
G36*
X41952011Y-11243911D02*
G01*
X41993788Y-11243911D01*
X42040918Y-11253928D01*
X42088217Y-11259258D01*
X42122608Y-11271292D01*
X42157310Y-11278668D01*
X42207317Y-11300933D01*
X42257307Y-11318425D01*
X42283328Y-11334775D01*
X42310035Y-11346666D01*
X42359833Y-11382846D01*
X42408992Y-11413735D01*
X42426644Y-11431387D01*
X42445284Y-11444930D01*
X42491365Y-11496108D01*
X42535665Y-11540408D01*
X42545854Y-11556624D01*
X42557146Y-11569165D01*
X42595773Y-11636070D01*
X42630975Y-11692093D01*
X42635370Y-11704653D01*
X42640735Y-11713946D01*
X42668210Y-11798505D01*
X42690142Y-11861183D01*
X42690973Y-11868563D01*
X42692395Y-11872938D01*
X42705276Y-11995506D01*
X42710200Y-12039200D01*
X42705276Y-12082897D01*
X42692395Y-12205461D01*
X42690973Y-12209835D01*
X42690142Y-12217217D01*
X42668205Y-12279907D01*
X42640735Y-12364453D01*
X42635371Y-12373743D01*
X42630975Y-12386307D01*
X42595766Y-12442340D01*
X42557146Y-12509234D01*
X42545856Y-12521772D01*
X42535665Y-12537992D01*
X42491355Y-12582301D01*
X42445284Y-12633469D01*
X42426648Y-12647008D01*
X42408992Y-12664665D01*
X42359823Y-12695559D01*
X42310035Y-12731733D01*
X42283334Y-12743621D01*
X42257307Y-12759975D01*
X42207307Y-12777470D01*
X42157310Y-12799731D01*
X42122614Y-12807105D01*
X42088217Y-12819142D01*
X42040915Y-12824471D01*
X41993788Y-12834489D01*
X41952011Y-12834489D01*
X41910200Y-12839200D01*
X41868389Y-12834489D01*
X41826612Y-12834489D01*
X41779484Y-12824471D01*
X41732183Y-12819142D01*
X41697786Y-12807106D01*
X41663089Y-12799731D01*
X41613087Y-12777468D01*
X41563093Y-12759975D01*
X41537068Y-12743622D01*
X41510364Y-12731733D01*
X41460569Y-12695555D01*
X41411408Y-12664665D01*
X41393754Y-12647011D01*
X41375115Y-12633469D01*
X41329033Y-12582290D01*
X41284735Y-12537992D01*
X41274545Y-12521775D01*
X41263253Y-12509234D01*
X41224620Y-12442320D01*
X41189425Y-12386307D01*
X41185030Y-12373747D01*
X41179664Y-12364453D01*
X41152180Y-12279867D01*
X41130258Y-12217217D01*
X41129426Y-12209839D01*
X41128004Y-12205461D01*
X41115108Y-12082765D01*
X41110200Y-12039200D01*
X41115108Y-11995638D01*
X41128004Y-11872938D01*
X41129426Y-11868558D01*
X41130258Y-11861183D01*
X41152175Y-11798545D01*
X41179664Y-11713946D01*
X41185031Y-11704649D01*
X41189425Y-11692093D01*
X41224613Y-11636090D01*
X41263253Y-11569165D01*
X41274547Y-11556621D01*
X41284735Y-11540408D01*
X41329026Y-11496116D01*
X41375117Y-11444928D01*
X41393759Y-11431383D01*
X41411408Y-11413735D01*
X41460554Y-11382854D01*
X41510362Y-11346667D01*
X41537073Y-11334774D01*
X41563093Y-11318425D01*
X41613077Y-11300934D01*
X41663089Y-11278668D01*
X41697792Y-11271291D01*
X41732183Y-11259258D01*
X41779481Y-11253928D01*
X41826612Y-11243911D01*
X41868389Y-11243911D01*
X41910200Y-11239200D01*
X41952011Y-11243911D01*
G37*
G36*
X50330200Y-12839200D02*
G01*
X48730200Y-12839200D01*
X48730200Y-11239200D01*
X50330200Y-11239200D01*
X50330200Y-12839200D01*
G37*
G36*
X39595850Y-11215164D02*
G01*
X39646040Y-11220987D01*
X39663189Y-11228559D01*
X39686671Y-11233230D01*
X39711810Y-11250027D01*
X39731696Y-11258808D01*
X39745277Y-11272389D01*
X39767777Y-11287423D01*
X39782810Y-11309922D01*
X39796391Y-11323503D01*
X39805170Y-11343386D01*
X39821970Y-11368529D01*
X39826641Y-11392012D01*
X39834212Y-11409159D01*
X39840033Y-11459339D01*
X39841000Y-11464200D01*
X39841000Y-12139200D01*
X39840032Y-12144063D01*
X39834212Y-12194240D01*
X39826641Y-12211385D01*
X39821970Y-12234871D01*
X39805169Y-12260015D01*
X39796391Y-12279896D01*
X39782812Y-12293474D01*
X39767777Y-12315977D01*
X39745274Y-12331012D01*
X39731696Y-12344591D01*
X39711815Y-12353369D01*
X39686671Y-12370170D01*
X39663185Y-12374841D01*
X39646040Y-12382412D01*
X39595861Y-12388232D01*
X39591000Y-12389200D01*
X38641000Y-12389200D01*
X38636138Y-12388232D01*
X38585959Y-12382412D01*
X38568812Y-12374841D01*
X38545329Y-12370170D01*
X38520186Y-12353370D01*
X38500303Y-12344591D01*
X38486722Y-12331010D01*
X38464223Y-12315977D01*
X38449189Y-12293477D01*
X38435608Y-12279896D01*
X38426827Y-12260010D01*
X38410030Y-12234871D01*
X38405359Y-12211389D01*
X38397787Y-12194240D01*
X38391964Y-12144049D01*
X38391000Y-12139200D01*
X38391000Y-11464200D01*
X38391964Y-11459350D01*
X38397787Y-11409159D01*
X38405359Y-11392008D01*
X38410030Y-11368529D01*
X38426826Y-11343391D01*
X38435608Y-11323503D01*
X38449191Y-11309919D01*
X38464223Y-11287423D01*
X38486719Y-11272391D01*
X38500303Y-11258808D01*
X38520191Y-11250026D01*
X38545329Y-11233230D01*
X38568808Y-11228559D01*
X38585959Y-11220987D01*
X38636151Y-11215164D01*
X38641000Y-11214200D01*
X39591000Y-11214200D01*
X39595850Y-11215164D01*
G37*
G36*
X8847113Y-10104930D02*
G01*
X8894076Y-10104930D01*
X8934622Y-10113548D01*
X8975526Y-10117577D01*
X9026916Y-10133166D01*
X9078115Y-10144049D01*
X9110879Y-10158636D01*
X9144304Y-10168776D01*
X9197420Y-10197166D01*
X9250000Y-10220577D01*
X9274445Y-10238337D01*
X9299849Y-10251916D01*
X9351669Y-10294444D01*
X9402218Y-10331170D01*
X9418631Y-10349398D01*
X9436190Y-10363809D01*
X9483379Y-10421308D01*
X9528115Y-10470993D01*
X9537512Y-10487269D01*
X9548083Y-10500150D01*
X9587183Y-10573302D01*
X9622191Y-10633937D01*
X9626218Y-10646331D01*
X9631223Y-10655695D01*
X9658821Y-10746672D01*
X9680333Y-10812879D01*
X9681090Y-10820082D01*
X9682422Y-10824473D01*
X9695377Y-10956021D01*
X9700000Y-11000000D01*
X9695377Y-11043982D01*
X9682422Y-11175526D01*
X9681090Y-11179916D01*
X9680333Y-11187121D01*
X9658816Y-11253341D01*
X9631223Y-11344304D01*
X9626219Y-11353665D01*
X9622191Y-11366063D01*
X9587176Y-11426709D01*
X9548083Y-11499849D01*
X9537514Y-11512726D01*
X9528115Y-11529007D01*
X9483369Y-11578701D01*
X9436190Y-11636190D01*
X9418634Y-11650597D01*
X9402218Y-11668830D01*
X9351659Y-11705563D01*
X9299849Y-11748083D01*
X9274450Y-11761658D01*
X9250000Y-11779423D01*
X9197408Y-11802838D01*
X9144304Y-11831223D01*
X9110886Y-11841360D01*
X9078115Y-11855951D01*
X9026905Y-11866836D01*
X8975526Y-11882422D01*
X8934631Y-11886449D01*
X8894076Y-11895070D01*
X8847103Y-11895070D01*
X8800000Y-11899709D01*
X8752897Y-11895070D01*
X8705924Y-11895070D01*
X8665368Y-11886449D01*
X8624473Y-11882422D01*
X8573091Y-11866835D01*
X8521885Y-11855951D01*
X8489115Y-11841361D01*
X8455695Y-11831223D01*
X8402585Y-11802835D01*
X8350000Y-11779423D01*
X8325552Y-11761660D01*
X8300150Y-11748083D01*
X8248332Y-11705556D01*
X8197782Y-11668830D01*
X8181368Y-11650600D01*
X8163809Y-11636190D01*
X8116618Y-11578688D01*
X8071885Y-11529007D01*
X8062487Y-11512730D01*
X8051916Y-11499849D01*
X8012810Y-11426686D01*
X7977809Y-11366063D01*
X7973782Y-11353670D01*
X7968776Y-11344304D01*
X7941168Y-11253294D01*
X7919667Y-11187121D01*
X7918910Y-11179921D01*
X7917577Y-11175526D01*
X7904606Y-11043831D01*
X7900000Y-11000000D01*
X7904606Y-10956172D01*
X7917577Y-10824473D01*
X7918910Y-10820077D01*
X7919667Y-10812879D01*
X7941163Y-10746719D01*
X7968776Y-10655695D01*
X7973783Y-10646327D01*
X7977809Y-10633937D01*
X8012802Y-10573326D01*
X8051916Y-10500150D01*
X8062489Y-10487265D01*
X8071885Y-10470993D01*
X8116609Y-10421321D01*
X8163809Y-10363809D01*
X8181371Y-10349395D01*
X8197782Y-10331170D01*
X8248321Y-10294450D01*
X8300150Y-10251916D01*
X8325557Y-10238335D01*
X8350000Y-10220577D01*
X8402573Y-10197169D01*
X8455695Y-10168776D01*
X8489122Y-10158635D01*
X8521885Y-10144049D01*
X8573080Y-10133166D01*
X8624473Y-10117577D01*
X8665377Y-10113548D01*
X8705924Y-10104930D01*
X8752887Y-10104930D01*
X8800000Y-10100290D01*
X8847113Y-10104930D01*
G37*
G36*
X78947113Y-10104930D02*
G01*
X78994076Y-10104930D01*
X79034622Y-10113548D01*
X79075526Y-10117577D01*
X79126916Y-10133166D01*
X79178115Y-10144049D01*
X79210879Y-10158636D01*
X79244304Y-10168776D01*
X79297420Y-10197166D01*
X79350000Y-10220577D01*
X79374445Y-10238337D01*
X79399849Y-10251916D01*
X79451669Y-10294444D01*
X79502218Y-10331170D01*
X79518631Y-10349398D01*
X79536190Y-10363809D01*
X79583379Y-10421308D01*
X79628115Y-10470993D01*
X79637512Y-10487269D01*
X79648083Y-10500150D01*
X79687183Y-10573302D01*
X79722191Y-10633937D01*
X79726218Y-10646331D01*
X79731223Y-10655695D01*
X79758821Y-10746672D01*
X79780333Y-10812879D01*
X79781090Y-10820082D01*
X79782422Y-10824473D01*
X79795378Y-10956032D01*
X79800000Y-11000000D01*
X79795376Y-11043993D01*
X79782422Y-11175526D01*
X79781090Y-11179916D01*
X79780333Y-11187121D01*
X79758816Y-11253341D01*
X79731223Y-11344304D01*
X79726219Y-11353665D01*
X79722191Y-11366063D01*
X79687176Y-11426709D01*
X79648083Y-11499849D01*
X79637514Y-11512726D01*
X79628115Y-11529007D01*
X79583369Y-11578701D01*
X79536190Y-11636190D01*
X79518634Y-11650597D01*
X79502218Y-11668830D01*
X79451659Y-11705563D01*
X79399849Y-11748083D01*
X79374450Y-11761658D01*
X79350000Y-11779423D01*
X79297408Y-11802838D01*
X79244304Y-11831223D01*
X79210886Y-11841360D01*
X79178115Y-11855951D01*
X79126905Y-11866836D01*
X79075526Y-11882422D01*
X79034631Y-11886449D01*
X78994076Y-11895070D01*
X78947103Y-11895070D01*
X78900000Y-11899709D01*
X78852897Y-11895070D01*
X78805924Y-11895070D01*
X78765368Y-11886449D01*
X78724473Y-11882422D01*
X78673091Y-11866835D01*
X78621885Y-11855951D01*
X78589115Y-11841361D01*
X78555695Y-11831223D01*
X78502585Y-11802835D01*
X78450000Y-11779423D01*
X78425552Y-11761660D01*
X78400150Y-11748083D01*
X78348332Y-11705556D01*
X78297782Y-11668830D01*
X78281368Y-11650600D01*
X78263809Y-11636190D01*
X78216618Y-11578688D01*
X78171885Y-11529007D01*
X78162487Y-11512730D01*
X78151916Y-11499849D01*
X78112810Y-11426686D01*
X78077809Y-11366063D01*
X78073782Y-11353670D01*
X78068776Y-11344304D01*
X78041168Y-11253294D01*
X78019667Y-11187121D01*
X78018910Y-11179921D01*
X78017577Y-11175526D01*
X78004606Y-11043831D01*
X78000000Y-11000000D01*
X78004606Y-10956172D01*
X78017577Y-10824473D01*
X78018910Y-10820077D01*
X78019667Y-10812879D01*
X78041163Y-10746719D01*
X78068776Y-10655695D01*
X78073783Y-10646327D01*
X78077809Y-10633937D01*
X78112802Y-10573326D01*
X78151916Y-10500150D01*
X78162489Y-10487265D01*
X78171885Y-10470993D01*
X78216609Y-10421321D01*
X78263809Y-10363809D01*
X78281371Y-10349395D01*
X78297782Y-10331170D01*
X78348321Y-10294450D01*
X78400150Y-10251916D01*
X78425557Y-10238335D01*
X78450000Y-10220577D01*
X78502573Y-10197169D01*
X78555695Y-10168776D01*
X78589122Y-10158635D01*
X78621885Y-10144049D01*
X78673080Y-10133166D01*
X78724473Y-10117577D01*
X78765377Y-10113548D01*
X78805924Y-10104930D01*
X78852887Y-10104930D01*
X78900000Y-10100290D01*
X78947113Y-10104930D01*
G37*
G36*
X39595850Y-9140164D02*
G01*
X39646040Y-9145987D01*
X39663189Y-9153559D01*
X39686671Y-9158230D01*
X39711810Y-9175027D01*
X39731696Y-9183808D01*
X39745277Y-9197389D01*
X39767777Y-9212423D01*
X39782810Y-9234922D01*
X39796391Y-9248503D01*
X39805170Y-9268386D01*
X39821970Y-9293529D01*
X39826641Y-9317012D01*
X39834212Y-9334159D01*
X39840033Y-9384339D01*
X39841000Y-9389200D01*
X39841000Y-10064200D01*
X39840032Y-10069063D01*
X39834212Y-10119240D01*
X39826641Y-10136385D01*
X39821970Y-10159871D01*
X39805169Y-10185015D01*
X39796391Y-10204896D01*
X39782812Y-10218474D01*
X39767777Y-10240977D01*
X39745274Y-10256012D01*
X39731696Y-10269591D01*
X39711815Y-10278369D01*
X39686671Y-10295170D01*
X39663185Y-10299841D01*
X39646040Y-10307412D01*
X39595861Y-10313232D01*
X39591000Y-10314200D01*
X38641000Y-10314200D01*
X38636138Y-10313232D01*
X38585959Y-10307412D01*
X38568812Y-10299841D01*
X38545329Y-10295170D01*
X38520186Y-10278370D01*
X38500303Y-10269591D01*
X38486722Y-10256010D01*
X38464223Y-10240977D01*
X38449189Y-10218477D01*
X38435608Y-10204896D01*
X38426827Y-10185010D01*
X38410030Y-10159871D01*
X38405359Y-10136389D01*
X38397787Y-10119240D01*
X38391964Y-10069049D01*
X38391000Y-10064200D01*
X38391000Y-9389200D01*
X38391964Y-9384350D01*
X38397787Y-9334159D01*
X38405359Y-9317008D01*
X38410030Y-9293529D01*
X38426826Y-9268391D01*
X38435608Y-9248503D01*
X38449191Y-9234919D01*
X38464223Y-9212423D01*
X38486719Y-9197391D01*
X38500303Y-9183808D01*
X38520191Y-9175026D01*
X38545329Y-9158230D01*
X38568808Y-9153559D01*
X38585959Y-9145987D01*
X38636151Y-9140164D01*
X38641000Y-9139200D01*
X39591000Y-9139200D01*
X39595850Y-9140164D01*
G37*
G36*
X41952011Y-8703911D02*
G01*
X41993788Y-8703911D01*
X42040918Y-8713928D01*
X42088217Y-8719258D01*
X42122608Y-8731292D01*
X42157310Y-8738668D01*
X42207317Y-8760933D01*
X42257307Y-8778425D01*
X42283328Y-8794775D01*
X42310035Y-8806666D01*
X42359833Y-8842846D01*
X42408992Y-8873735D01*
X42426644Y-8891387D01*
X42445284Y-8904930D01*
X42491365Y-8956108D01*
X42535665Y-9000408D01*
X42545854Y-9016624D01*
X42557146Y-9029165D01*
X42595773Y-9096070D01*
X42630975Y-9152093D01*
X42635370Y-9164653D01*
X42640735Y-9173946D01*
X42668210Y-9258505D01*
X42690142Y-9321183D01*
X42690973Y-9328563D01*
X42692395Y-9332938D01*
X42705276Y-9455506D01*
X42710200Y-9499200D01*
X42705276Y-9542897D01*
X42692395Y-9665461D01*
X42690973Y-9669835D01*
X42690142Y-9677217D01*
X42668205Y-9739907D01*
X42640735Y-9824453D01*
X42635371Y-9833743D01*
X42630975Y-9846307D01*
X42595766Y-9902340D01*
X42557146Y-9969234D01*
X42545856Y-9981772D01*
X42535665Y-9997992D01*
X42491355Y-10042301D01*
X42445284Y-10093469D01*
X42426648Y-10107008D01*
X42408992Y-10124665D01*
X42359823Y-10155559D01*
X42310035Y-10191733D01*
X42283334Y-10203621D01*
X42257307Y-10219975D01*
X42207307Y-10237470D01*
X42157310Y-10259731D01*
X42122614Y-10267105D01*
X42088217Y-10279142D01*
X42040915Y-10284471D01*
X41993788Y-10294489D01*
X41952011Y-10294489D01*
X41910200Y-10299200D01*
X41868389Y-10294489D01*
X41826612Y-10294489D01*
X41779484Y-10284471D01*
X41732183Y-10279142D01*
X41697786Y-10267106D01*
X41663089Y-10259731D01*
X41613087Y-10237468D01*
X41563093Y-10219975D01*
X41537068Y-10203622D01*
X41510364Y-10191733D01*
X41460569Y-10155555D01*
X41411408Y-10124665D01*
X41393754Y-10107011D01*
X41375115Y-10093469D01*
X41329033Y-10042290D01*
X41284735Y-9997992D01*
X41274545Y-9981775D01*
X41263253Y-9969234D01*
X41224620Y-9902320D01*
X41189425Y-9846307D01*
X41185030Y-9833747D01*
X41179664Y-9824453D01*
X41152180Y-9739867D01*
X41130258Y-9677217D01*
X41129426Y-9669839D01*
X41128004Y-9665461D01*
X41115108Y-9542765D01*
X41110200Y-9499200D01*
X41115108Y-9455638D01*
X41128004Y-9332938D01*
X41129426Y-9328558D01*
X41130258Y-9321183D01*
X41152175Y-9258545D01*
X41179664Y-9173946D01*
X41185031Y-9164649D01*
X41189425Y-9152093D01*
X41224613Y-9096090D01*
X41263253Y-9029165D01*
X41274547Y-9016621D01*
X41284735Y-9000408D01*
X41329026Y-8956116D01*
X41375117Y-8904928D01*
X41393759Y-8891383D01*
X41411408Y-8873735D01*
X41460554Y-8842854D01*
X41510362Y-8806667D01*
X41537073Y-8794774D01*
X41563093Y-8778425D01*
X41613077Y-8760934D01*
X41663089Y-8738668D01*
X41697792Y-8731291D01*
X41732183Y-8719258D01*
X41779481Y-8713928D01*
X41826612Y-8703911D01*
X41868389Y-8703911D01*
X41910200Y-8699200D01*
X41952011Y-8703911D01*
G37*
G36*
X49572011Y-8703911D02*
G01*
X49613788Y-8703911D01*
X49660918Y-8713928D01*
X49708217Y-8719258D01*
X49742608Y-8731292D01*
X49777310Y-8738668D01*
X49827317Y-8760933D01*
X49877307Y-8778425D01*
X49903328Y-8794775D01*
X49930035Y-8806666D01*
X49979833Y-8842846D01*
X50028992Y-8873735D01*
X50046644Y-8891387D01*
X50065284Y-8904930D01*
X50111365Y-8956108D01*
X50155665Y-9000408D01*
X50165854Y-9016624D01*
X50177146Y-9029165D01*
X50215773Y-9096070D01*
X50250975Y-9152093D01*
X50255370Y-9164653D01*
X50260735Y-9173946D01*
X50288210Y-9258505D01*
X50310142Y-9321183D01*
X50310973Y-9328563D01*
X50312395Y-9332938D01*
X50325276Y-9455506D01*
X50330200Y-9499200D01*
X50325276Y-9542897D01*
X50312395Y-9665461D01*
X50310973Y-9669835D01*
X50310142Y-9677217D01*
X50288205Y-9739907D01*
X50260735Y-9824453D01*
X50255371Y-9833743D01*
X50250975Y-9846307D01*
X50215766Y-9902340D01*
X50177146Y-9969234D01*
X50165856Y-9981772D01*
X50155665Y-9997992D01*
X50111355Y-10042301D01*
X50065284Y-10093469D01*
X50046648Y-10107008D01*
X50028992Y-10124665D01*
X49979823Y-10155559D01*
X49930035Y-10191733D01*
X49903334Y-10203621D01*
X49877307Y-10219975D01*
X49827307Y-10237470D01*
X49777310Y-10259731D01*
X49742614Y-10267105D01*
X49708217Y-10279142D01*
X49660915Y-10284471D01*
X49613788Y-10294489D01*
X49572011Y-10294489D01*
X49530200Y-10299200D01*
X49488389Y-10294489D01*
X49446612Y-10294489D01*
X49399484Y-10284471D01*
X49352183Y-10279142D01*
X49317786Y-10267106D01*
X49283089Y-10259731D01*
X49233087Y-10237468D01*
X49183093Y-10219975D01*
X49157068Y-10203622D01*
X49130364Y-10191733D01*
X49080569Y-10155555D01*
X49031408Y-10124665D01*
X49013754Y-10107011D01*
X48995115Y-10093469D01*
X48949033Y-10042290D01*
X48904735Y-9997992D01*
X48894545Y-9981775D01*
X48883253Y-9969234D01*
X48844620Y-9902320D01*
X48809425Y-9846307D01*
X48805030Y-9833747D01*
X48799664Y-9824453D01*
X48772180Y-9739867D01*
X48750258Y-9677217D01*
X48749426Y-9669839D01*
X48748004Y-9665461D01*
X48735108Y-9542765D01*
X48730200Y-9499200D01*
X48735108Y-9455638D01*
X48748004Y-9332938D01*
X48749426Y-9328558D01*
X48750258Y-9321183D01*
X48772175Y-9258545D01*
X48799664Y-9173946D01*
X48805031Y-9164649D01*
X48809425Y-9152093D01*
X48844613Y-9096090D01*
X48883253Y-9029165D01*
X48894547Y-9016621D01*
X48904735Y-9000408D01*
X48949026Y-8956116D01*
X48995117Y-8904928D01*
X49013759Y-8891383D01*
X49031408Y-8873735D01*
X49080554Y-8842854D01*
X49130362Y-8806667D01*
X49157073Y-8794774D01*
X49183093Y-8778425D01*
X49233077Y-8760934D01*
X49283089Y-8738668D01*
X49317792Y-8731291D01*
X49352183Y-8719258D01*
X49399481Y-8713928D01*
X49446612Y-8703911D01*
X49488389Y-8703911D01*
X49530200Y-8699200D01*
X49572011Y-8703911D01*
G37*
G36*
X52898093Y-7837119D02*
G01*
X52952922Y-7837119D01*
X53001159Y-7846136D01*
X53050537Y-7850456D01*
X53111142Y-7866695D01*
X53170596Y-7877809D01*
X53210921Y-7893431D01*
X53252544Y-7904584D01*
X53315558Y-7933967D01*
X53377086Y-7957804D01*
X53408844Y-7977467D01*
X53442089Y-7992970D01*
X53504799Y-8036880D01*
X53565362Y-8074379D01*
X53588576Y-8095541D01*
X53613395Y-8112920D01*
X53672764Y-8172289D01*
X53729011Y-8223565D01*
X53744343Y-8243868D01*
X53761279Y-8260804D01*
X53814104Y-8336246D01*
X53862461Y-8400281D01*
X53871124Y-8417680D01*
X53881232Y-8432115D01*
X53924275Y-8524421D01*
X53961167Y-8598510D01*
X53964834Y-8611401D01*
X53969614Y-8621650D01*
X53999734Y-8734059D01*
X54021768Y-8811501D01*
X54022446Y-8818823D01*
X54023743Y-8823662D01*
X54038082Y-8987568D01*
X54042200Y-9032000D01*
X54038080Y-9076462D01*
X54023743Y-9240337D01*
X54022446Y-9245174D01*
X54021768Y-9252499D01*
X53999727Y-9329965D01*
X53969615Y-9442344D01*
X53964837Y-9452589D01*
X53961167Y-9465490D01*
X53924252Y-9539625D01*
X53881229Y-9631889D01*
X53871125Y-9646318D01*
X53862461Y-9663719D01*
X53814097Y-9727762D01*
X53761279Y-9803195D01*
X53744346Y-9820127D01*
X53729011Y-9840435D01*
X53672752Y-9891721D01*
X53613395Y-9951079D01*
X53588581Y-9968453D01*
X53565362Y-9989621D01*
X53504787Y-10027127D01*
X53442089Y-10071029D01*
X53408850Y-10086528D01*
X53377086Y-10106196D01*
X53315545Y-10130037D01*
X53252544Y-10159415D01*
X53210929Y-10170565D01*
X53170596Y-10186191D01*
X53111130Y-10197307D01*
X53050537Y-10213543D01*
X53001169Y-10217862D01*
X52952922Y-10226881D01*
X52898082Y-10226881D01*
X52842200Y-10231770D01*
X52786318Y-10226881D01*
X52731478Y-10226881D01*
X52683231Y-10217862D01*
X52633862Y-10213543D01*
X52573266Y-10197306D01*
X52513804Y-10186191D01*
X52473472Y-10170566D01*
X52431855Y-10159415D01*
X52368848Y-10130034D01*
X52307314Y-10106196D01*
X52275552Y-10086530D01*
X52242310Y-10071029D01*
X52179604Y-10027121D01*
X52119038Y-9989621D01*
X52095821Y-9968456D01*
X52071004Y-9951079D01*
X52011635Y-9891710D01*
X51955389Y-9840435D01*
X51940056Y-9820131D01*
X51923120Y-9803195D01*
X51870288Y-9727743D01*
X51821939Y-9663719D01*
X51813276Y-9646323D01*
X51803170Y-9631889D01*
X51760132Y-9539593D01*
X51723233Y-9465490D01*
X51719564Y-9452594D01*
X51714784Y-9442344D01*
X51684655Y-9329904D01*
X51662632Y-9252499D01*
X51661953Y-9245180D01*
X51660656Y-9240337D01*
X51646300Y-9076255D01*
X51642200Y-9032000D01*
X51646300Y-8987748D01*
X51660656Y-8823662D01*
X51661954Y-8818817D01*
X51662632Y-8811501D01*
X51684648Y-8734120D01*
X51714785Y-8621650D01*
X51719566Y-8611395D01*
X51723233Y-8598510D01*
X51760109Y-8524452D01*
X51803167Y-8432115D01*
X51813277Y-8417675D01*
X51821939Y-8400281D01*
X51870281Y-8336264D01*
X51923120Y-8260804D01*
X51940059Y-8243864D01*
X51955389Y-8223565D01*
X52011624Y-8172299D01*
X52071004Y-8112920D01*
X52095826Y-8095539D01*
X52119038Y-8074379D01*
X52179595Y-8036883D01*
X52242315Y-7992967D01*
X52275564Y-7977462D01*
X52307314Y-7957804D01*
X52368821Y-7933975D01*
X52431850Y-7904585D01*
X52473483Y-7893429D01*
X52513804Y-7877809D01*
X52573253Y-7866696D01*
X52633862Y-7850456D01*
X52683241Y-7846135D01*
X52731478Y-7837119D01*
X52786306Y-7837119D01*
X52842200Y-7832229D01*
X52898093Y-7837119D01*
G37*
G36*
X69789611Y-8433711D02*
G01*
X69831388Y-8433711D01*
X69878518Y-8443728D01*
X69925817Y-8449058D01*
X69960208Y-8461092D01*
X69994910Y-8468468D01*
X70044917Y-8490733D01*
X70094907Y-8508225D01*
X70120928Y-8524575D01*
X70147635Y-8536466D01*
X70197433Y-8572646D01*
X70246592Y-8603535D01*
X70264244Y-8621187D01*
X70282884Y-8634730D01*
X70328965Y-8685908D01*
X70373265Y-8730208D01*
X70383454Y-8746424D01*
X70394746Y-8758965D01*
X70433373Y-8825870D01*
X70468575Y-8881893D01*
X70472970Y-8894453D01*
X70478335Y-8903746D01*
X70505810Y-8988305D01*
X70527742Y-9050983D01*
X70528573Y-9058363D01*
X70529995Y-9062738D01*
X70542877Y-9185316D01*
X70547800Y-9229000D01*
X70542875Y-9272707D01*
X70529995Y-9395261D01*
X70528573Y-9399635D01*
X70527742Y-9407017D01*
X70505805Y-9469707D01*
X70478335Y-9554253D01*
X70472971Y-9563543D01*
X70468575Y-9576107D01*
X70433366Y-9632140D01*
X70394746Y-9699034D01*
X70383456Y-9711572D01*
X70373265Y-9727792D01*
X70328955Y-9772101D01*
X70282884Y-9823269D01*
X70264248Y-9836808D01*
X70246592Y-9854465D01*
X70197423Y-9885359D01*
X70147635Y-9921533D01*
X70120934Y-9933421D01*
X70094907Y-9949775D01*
X70044907Y-9967270D01*
X69994910Y-9989531D01*
X69960214Y-9996905D01*
X69925817Y-10008942D01*
X69878515Y-10014271D01*
X69831388Y-10024289D01*
X69789611Y-10024289D01*
X69747800Y-10029000D01*
X69705989Y-10024289D01*
X69664212Y-10024289D01*
X69617084Y-10014271D01*
X69569783Y-10008942D01*
X69535386Y-9996906D01*
X69500689Y-9989531D01*
X69450687Y-9967268D01*
X69400693Y-9949775D01*
X69374668Y-9933422D01*
X69347964Y-9921533D01*
X69298169Y-9885355D01*
X69249008Y-9854465D01*
X69231354Y-9836811D01*
X69212715Y-9823269D01*
X69166633Y-9772090D01*
X69122335Y-9727792D01*
X69112145Y-9711575D01*
X69100853Y-9699034D01*
X69062220Y-9632120D01*
X69027025Y-9576107D01*
X69022630Y-9563547D01*
X69017264Y-9554253D01*
X68989780Y-9469667D01*
X68967858Y-9407017D01*
X68967026Y-9399639D01*
X68965604Y-9395261D01*
X68952709Y-9272575D01*
X68947800Y-9229000D01*
X68952707Y-9185448D01*
X68965604Y-9062738D01*
X68967026Y-9058358D01*
X68967858Y-9050983D01*
X68989775Y-8988345D01*
X69017264Y-8903746D01*
X69022631Y-8894449D01*
X69027025Y-8881893D01*
X69062213Y-8825890D01*
X69100853Y-8758965D01*
X69112147Y-8746421D01*
X69122335Y-8730208D01*
X69166626Y-8685916D01*
X69212717Y-8634728D01*
X69231359Y-8621183D01*
X69249008Y-8603535D01*
X69298154Y-8572654D01*
X69347962Y-8536467D01*
X69374673Y-8524574D01*
X69400693Y-8508225D01*
X69450677Y-8490734D01*
X69500689Y-8468468D01*
X69535392Y-8461091D01*
X69569783Y-8449058D01*
X69617081Y-8443728D01*
X69664212Y-8433711D01*
X69705989Y-8433711D01*
X69747800Y-8429000D01*
X69789611Y-8433711D01*
G37*
G36*
X56186011Y-8358911D02*
G01*
X56227788Y-8358911D01*
X56274918Y-8368928D01*
X56322217Y-8374258D01*
X56356608Y-8386292D01*
X56391310Y-8393668D01*
X56441317Y-8415933D01*
X56491307Y-8433425D01*
X56517328Y-8449775D01*
X56544035Y-8461666D01*
X56593833Y-8497846D01*
X56642992Y-8528735D01*
X56660644Y-8546387D01*
X56679284Y-8559930D01*
X56725365Y-8611108D01*
X56769665Y-8655408D01*
X56779854Y-8671624D01*
X56791146Y-8684165D01*
X56829773Y-8751070D01*
X56864975Y-8807093D01*
X56869370Y-8819653D01*
X56874735Y-8828946D01*
X56902210Y-8913505D01*
X56924142Y-8976183D01*
X56924973Y-8983563D01*
X56926395Y-8987938D01*
X56939277Y-9110516D01*
X56944200Y-9154200D01*
X56939275Y-9197907D01*
X56926395Y-9320461D01*
X56924973Y-9324835D01*
X56924142Y-9332217D01*
X56902205Y-9394907D01*
X56874735Y-9479453D01*
X56869371Y-9488743D01*
X56864975Y-9501307D01*
X56829766Y-9557340D01*
X56791146Y-9624234D01*
X56779856Y-9636772D01*
X56769665Y-9652992D01*
X56725355Y-9697301D01*
X56679284Y-9748469D01*
X56660648Y-9762008D01*
X56642992Y-9779665D01*
X56593823Y-9810559D01*
X56544035Y-9846733D01*
X56517334Y-9858621D01*
X56491307Y-9874975D01*
X56441307Y-9892470D01*
X56391310Y-9914731D01*
X56356614Y-9922105D01*
X56322217Y-9934142D01*
X56274915Y-9939471D01*
X56227788Y-9949489D01*
X56186011Y-9949489D01*
X56144200Y-9954200D01*
X56102389Y-9949489D01*
X56060612Y-9949489D01*
X56013484Y-9939471D01*
X55966183Y-9934142D01*
X55931786Y-9922106D01*
X55897089Y-9914731D01*
X55847087Y-9892468D01*
X55797093Y-9874975D01*
X55771068Y-9858622D01*
X55744364Y-9846733D01*
X55694569Y-9810555D01*
X55645408Y-9779665D01*
X55627754Y-9762011D01*
X55609115Y-9748469D01*
X55563033Y-9697290D01*
X55518735Y-9652992D01*
X55508545Y-9636775D01*
X55497253Y-9624234D01*
X55458620Y-9557320D01*
X55423425Y-9501307D01*
X55419030Y-9488747D01*
X55413664Y-9479453D01*
X55386180Y-9394867D01*
X55364258Y-9332217D01*
X55363426Y-9324839D01*
X55362004Y-9320461D01*
X55349109Y-9197775D01*
X55344200Y-9154200D01*
X55349107Y-9110648D01*
X55362004Y-8987938D01*
X55363426Y-8983558D01*
X55364258Y-8976183D01*
X55386175Y-8913545D01*
X55413664Y-8828946D01*
X55419031Y-8819649D01*
X55423425Y-8807093D01*
X55458613Y-8751090D01*
X55497253Y-8684165D01*
X55508547Y-8671621D01*
X55518735Y-8655408D01*
X55563026Y-8611116D01*
X55609117Y-8559928D01*
X55627759Y-8546383D01*
X55645408Y-8528735D01*
X55694554Y-8497854D01*
X55744362Y-8461667D01*
X55771073Y-8449774D01*
X55797093Y-8433425D01*
X55847077Y-8415934D01*
X55897089Y-8393668D01*
X55931792Y-8386291D01*
X55966183Y-8374258D01*
X56013481Y-8368928D01*
X56060612Y-8358911D01*
X56102389Y-8358911D01*
X56144200Y-8354200D01*
X56186011Y-8358911D01*
G37*
G36*
X66346011Y-8358911D02*
G01*
X66387788Y-8358911D01*
X66434918Y-8368928D01*
X66482217Y-8374258D01*
X66516608Y-8386292D01*
X66551310Y-8393668D01*
X66601317Y-8415933D01*
X66651307Y-8433425D01*
X66677328Y-8449775D01*
X66704035Y-8461666D01*
X66753833Y-8497846D01*
X66802992Y-8528735D01*
X66820644Y-8546387D01*
X66839284Y-8559930D01*
X66885365Y-8611108D01*
X66929665Y-8655408D01*
X66939854Y-8671624D01*
X66951146Y-8684165D01*
X66989773Y-8751070D01*
X67024975Y-8807093D01*
X67029370Y-8819653D01*
X67034735Y-8828946D01*
X67062210Y-8913505D01*
X67084142Y-8976183D01*
X67084973Y-8983563D01*
X67086395Y-8987938D01*
X67099277Y-9110516D01*
X67104200Y-9154200D01*
X67099275Y-9197907D01*
X67086395Y-9320461D01*
X67084973Y-9324835D01*
X67084142Y-9332217D01*
X67062205Y-9394907D01*
X67034735Y-9479453D01*
X67029371Y-9488743D01*
X67024975Y-9501307D01*
X66989766Y-9557340D01*
X66951146Y-9624234D01*
X66939856Y-9636772D01*
X66929665Y-9652992D01*
X66885355Y-9697301D01*
X66839284Y-9748469D01*
X66820648Y-9762008D01*
X66802992Y-9779665D01*
X66753823Y-9810559D01*
X66704035Y-9846733D01*
X66677334Y-9858621D01*
X66651307Y-9874975D01*
X66601307Y-9892470D01*
X66551310Y-9914731D01*
X66516614Y-9922105D01*
X66482217Y-9934142D01*
X66434915Y-9939471D01*
X66387788Y-9949489D01*
X66346011Y-9949489D01*
X66304200Y-9954200D01*
X66262389Y-9949489D01*
X66220612Y-9949489D01*
X66173484Y-9939471D01*
X66126183Y-9934142D01*
X66091786Y-9922106D01*
X66057089Y-9914731D01*
X66007087Y-9892468D01*
X65957093Y-9874975D01*
X65931068Y-9858622D01*
X65904364Y-9846733D01*
X65854569Y-9810555D01*
X65805408Y-9779665D01*
X65787754Y-9762011D01*
X65769115Y-9748469D01*
X65723033Y-9697290D01*
X65678735Y-9652992D01*
X65668545Y-9636775D01*
X65657253Y-9624234D01*
X65618620Y-9557320D01*
X65583425Y-9501307D01*
X65579030Y-9488747D01*
X65573664Y-9479453D01*
X65546180Y-9394867D01*
X65524258Y-9332217D01*
X65523426Y-9324839D01*
X65522004Y-9320461D01*
X65509109Y-9197775D01*
X65504200Y-9154200D01*
X65509107Y-9110648D01*
X65522004Y-8987938D01*
X65523426Y-8983558D01*
X65524258Y-8976183D01*
X65546175Y-8913545D01*
X65573664Y-8828946D01*
X65579031Y-8819649D01*
X65583425Y-8807093D01*
X65618613Y-8751090D01*
X65657253Y-8684165D01*
X65668547Y-8671621D01*
X65678735Y-8655408D01*
X65723026Y-8611116D01*
X65769117Y-8559928D01*
X65787759Y-8546383D01*
X65805408Y-8528735D01*
X65854554Y-8497854D01*
X65904362Y-8461667D01*
X65931073Y-8449774D01*
X65957093Y-8433425D01*
X66007077Y-8415934D01*
X66057089Y-8393668D01*
X66091792Y-8386291D01*
X66126183Y-8374258D01*
X66173481Y-8368928D01*
X66220612Y-8358911D01*
X66262389Y-8358911D01*
X66304200Y-8354200D01*
X66346011Y-8358911D01*
G37*
G36*
X8847113Y-5104930D02*
G01*
X8894076Y-5104930D01*
X8934622Y-5113548D01*
X8975526Y-5117577D01*
X9026916Y-5133166D01*
X9078115Y-5144049D01*
X9110879Y-5158636D01*
X9144304Y-5168776D01*
X9197420Y-5197166D01*
X9250000Y-5220577D01*
X9274445Y-5238337D01*
X9299849Y-5251916D01*
X9351669Y-5294444D01*
X9402218Y-5331170D01*
X9418631Y-5349398D01*
X9436190Y-5363809D01*
X9483379Y-5421308D01*
X9528115Y-5470993D01*
X9537512Y-5487269D01*
X9548083Y-5500150D01*
X9587183Y-5573302D01*
X9622191Y-5633937D01*
X9626218Y-5646331D01*
X9631223Y-5655695D01*
X9658821Y-5746672D01*
X9680333Y-5812879D01*
X9681090Y-5820082D01*
X9682422Y-5824473D01*
X9695377Y-5956021D01*
X9700000Y-6000000D01*
X9695377Y-6043982D01*
X9682422Y-6175526D01*
X9681090Y-6179916D01*
X9680333Y-6187121D01*
X9658816Y-6253341D01*
X9631223Y-6344304D01*
X9626219Y-6353665D01*
X9622191Y-6366063D01*
X9587176Y-6426709D01*
X9548083Y-6499849D01*
X9537514Y-6512726D01*
X9528115Y-6529007D01*
X9483369Y-6578701D01*
X9436190Y-6636190D01*
X9418634Y-6650597D01*
X9402218Y-6668830D01*
X9351659Y-6705563D01*
X9299849Y-6748083D01*
X9274450Y-6761658D01*
X9250000Y-6779423D01*
X9197408Y-6802838D01*
X9144304Y-6831223D01*
X9110886Y-6841360D01*
X9078115Y-6855951D01*
X9026905Y-6866836D01*
X8975526Y-6882422D01*
X8934631Y-6886449D01*
X8894076Y-6895070D01*
X8847103Y-6895070D01*
X8800000Y-6899709D01*
X8752897Y-6895070D01*
X8705924Y-6895070D01*
X8665368Y-6886449D01*
X8624473Y-6882422D01*
X8573091Y-6866835D01*
X8521885Y-6855951D01*
X8489115Y-6841361D01*
X8455695Y-6831223D01*
X8402585Y-6802835D01*
X8350000Y-6779423D01*
X8325552Y-6761660D01*
X8300150Y-6748083D01*
X8248332Y-6705556D01*
X8197782Y-6668830D01*
X8181368Y-6650600D01*
X8163809Y-6636190D01*
X8116618Y-6578688D01*
X8071885Y-6529007D01*
X8062487Y-6512730D01*
X8051916Y-6499849D01*
X8012810Y-6426686D01*
X7977809Y-6366063D01*
X7973782Y-6353670D01*
X7968776Y-6344304D01*
X7941168Y-6253294D01*
X7919667Y-6187121D01*
X7918910Y-6179921D01*
X7917577Y-6175526D01*
X7904606Y-6043831D01*
X7900000Y-6000000D01*
X7904606Y-5956172D01*
X7917577Y-5824473D01*
X7918910Y-5820077D01*
X7919667Y-5812879D01*
X7941163Y-5746719D01*
X7968776Y-5655695D01*
X7973783Y-5646327D01*
X7977809Y-5633937D01*
X8012802Y-5573326D01*
X8051916Y-5500150D01*
X8062489Y-5487265D01*
X8071885Y-5470993D01*
X8116609Y-5421321D01*
X8163809Y-5363809D01*
X8181371Y-5349395D01*
X8197782Y-5331170D01*
X8248321Y-5294450D01*
X8300150Y-5251916D01*
X8325557Y-5238335D01*
X8350000Y-5220577D01*
X8402573Y-5197169D01*
X8455695Y-5168776D01*
X8489122Y-5158635D01*
X8521885Y-5144049D01*
X8573080Y-5133166D01*
X8624473Y-5117577D01*
X8665377Y-5113548D01*
X8705924Y-5104930D01*
X8752887Y-5104930D01*
X8800000Y-5100290D01*
X8847113Y-5104930D01*
G37*
G36*
X78947113Y-5104930D02*
G01*
X78994076Y-5104930D01*
X79034622Y-5113548D01*
X79075526Y-5117577D01*
X79126916Y-5133166D01*
X79178115Y-5144049D01*
X79210879Y-5158636D01*
X79244304Y-5168776D01*
X79297420Y-5197166D01*
X79350000Y-5220577D01*
X79374445Y-5238337D01*
X79399849Y-5251916D01*
X79451669Y-5294444D01*
X79502218Y-5331170D01*
X79518631Y-5349398D01*
X79536190Y-5363809D01*
X79583379Y-5421308D01*
X79628115Y-5470993D01*
X79637512Y-5487269D01*
X79648083Y-5500150D01*
X79687183Y-5573302D01*
X79722191Y-5633937D01*
X79726218Y-5646331D01*
X79731223Y-5655695D01*
X79758821Y-5746672D01*
X79780333Y-5812879D01*
X79781090Y-5820082D01*
X79782422Y-5824473D01*
X79795377Y-5956021D01*
X79800000Y-6000000D01*
X79795377Y-6043982D01*
X79782422Y-6175526D01*
X79781090Y-6179916D01*
X79780333Y-6187121D01*
X79758816Y-6253341D01*
X79731223Y-6344304D01*
X79726219Y-6353665D01*
X79722191Y-6366063D01*
X79687176Y-6426709D01*
X79648083Y-6499849D01*
X79637514Y-6512726D01*
X79628115Y-6529007D01*
X79583369Y-6578701D01*
X79536190Y-6636190D01*
X79518634Y-6650597D01*
X79502218Y-6668830D01*
X79451659Y-6705563D01*
X79399849Y-6748083D01*
X79374450Y-6761658D01*
X79350000Y-6779423D01*
X79297408Y-6802838D01*
X79244304Y-6831223D01*
X79210886Y-6841360D01*
X79178115Y-6855951D01*
X79126905Y-6866836D01*
X79075526Y-6882422D01*
X79034631Y-6886449D01*
X78994076Y-6895070D01*
X78947103Y-6895070D01*
X78900000Y-6899709D01*
X78852897Y-6895070D01*
X78805924Y-6895070D01*
X78765368Y-6886449D01*
X78724473Y-6882422D01*
X78673091Y-6866835D01*
X78621885Y-6855951D01*
X78589115Y-6841361D01*
X78555695Y-6831223D01*
X78502585Y-6802835D01*
X78450000Y-6779423D01*
X78425552Y-6761660D01*
X78400150Y-6748083D01*
X78348332Y-6705556D01*
X78297782Y-6668830D01*
X78281368Y-6650600D01*
X78263809Y-6636190D01*
X78216618Y-6578688D01*
X78171885Y-6529007D01*
X78162487Y-6512730D01*
X78151916Y-6499849D01*
X78112810Y-6426686D01*
X78077809Y-6366063D01*
X78073782Y-6353670D01*
X78068776Y-6344304D01*
X78041168Y-6253294D01*
X78019667Y-6187121D01*
X78018910Y-6179921D01*
X78017577Y-6175526D01*
X78004606Y-6043831D01*
X78000000Y-6000000D01*
X78004606Y-5956172D01*
X78017577Y-5824473D01*
X78018910Y-5820077D01*
X78019667Y-5812879D01*
X78041163Y-5746719D01*
X78068776Y-5655695D01*
X78073783Y-5646327D01*
X78077809Y-5633937D01*
X78112802Y-5573326D01*
X78151916Y-5500150D01*
X78162489Y-5487265D01*
X78171885Y-5470993D01*
X78216609Y-5421321D01*
X78263809Y-5363809D01*
X78281371Y-5349395D01*
X78297782Y-5331170D01*
X78348321Y-5294450D01*
X78400150Y-5251916D01*
X78425557Y-5238335D01*
X78450000Y-5220577D01*
X78502573Y-5197169D01*
X78555695Y-5168776D01*
X78589122Y-5158635D01*
X78621885Y-5144049D01*
X78673080Y-5133166D01*
X78724473Y-5117577D01*
X78765377Y-5113548D01*
X78805924Y-5104930D01*
X78852887Y-5104930D01*
X78900000Y-5100290D01*
X78947113Y-5104930D01*
G37*
G36*
X54042200Y-6549000D02*
G01*
X51642200Y-6549000D01*
X51642200Y-4149000D01*
X54042200Y-4149000D01*
X54042200Y-6549000D01*
G37*
G36*
X56186011Y-4634911D02*
G01*
X56227788Y-4634911D01*
X56274918Y-4644928D01*
X56322217Y-4650258D01*
X56356608Y-4662292D01*
X56391310Y-4669668D01*
X56441317Y-4691933D01*
X56491307Y-4709425D01*
X56517328Y-4725775D01*
X56544035Y-4737666D01*
X56593833Y-4773846D01*
X56642992Y-4804735D01*
X56660644Y-4822387D01*
X56679284Y-4835930D01*
X56725365Y-4887108D01*
X56769665Y-4931408D01*
X56779854Y-4947624D01*
X56791146Y-4960165D01*
X56829773Y-5027070D01*
X56864975Y-5083093D01*
X56869370Y-5095653D01*
X56874735Y-5104946D01*
X56902210Y-5189505D01*
X56924142Y-5252183D01*
X56924973Y-5259563D01*
X56926395Y-5263938D01*
X56939276Y-5386506D01*
X56944200Y-5430200D01*
X56939276Y-5473897D01*
X56926395Y-5596461D01*
X56924973Y-5600835D01*
X56924142Y-5608217D01*
X56902205Y-5670907D01*
X56874735Y-5755453D01*
X56869371Y-5764743D01*
X56864975Y-5777307D01*
X56829766Y-5833340D01*
X56791146Y-5900234D01*
X56779856Y-5912772D01*
X56769665Y-5928992D01*
X56725355Y-5973301D01*
X56679284Y-6024469D01*
X56660648Y-6038008D01*
X56642992Y-6055665D01*
X56593823Y-6086559D01*
X56544035Y-6122733D01*
X56517334Y-6134621D01*
X56491307Y-6150975D01*
X56441307Y-6168470D01*
X56391310Y-6190731D01*
X56356614Y-6198105D01*
X56322217Y-6210142D01*
X56274915Y-6215471D01*
X56227788Y-6225489D01*
X56186011Y-6225489D01*
X56144200Y-6230200D01*
X56102389Y-6225489D01*
X56060612Y-6225489D01*
X56013484Y-6215471D01*
X55966183Y-6210142D01*
X55931786Y-6198106D01*
X55897089Y-6190731D01*
X55847087Y-6168468D01*
X55797093Y-6150975D01*
X55771068Y-6134622D01*
X55744364Y-6122733D01*
X55694569Y-6086555D01*
X55645408Y-6055665D01*
X55627754Y-6038011D01*
X55609115Y-6024469D01*
X55563033Y-5973290D01*
X55518735Y-5928992D01*
X55508545Y-5912775D01*
X55497253Y-5900234D01*
X55458620Y-5833320D01*
X55423425Y-5777307D01*
X55419030Y-5764747D01*
X55413664Y-5755453D01*
X55386180Y-5670867D01*
X55364258Y-5608217D01*
X55363426Y-5600839D01*
X55362004Y-5596461D01*
X55349108Y-5473765D01*
X55344200Y-5430200D01*
X55349108Y-5386638D01*
X55362004Y-5263938D01*
X55363426Y-5259558D01*
X55364258Y-5252183D01*
X55386175Y-5189545D01*
X55413664Y-5104946D01*
X55419031Y-5095649D01*
X55423425Y-5083093D01*
X55458613Y-5027090D01*
X55497253Y-4960165D01*
X55508547Y-4947621D01*
X55518735Y-4931408D01*
X55563026Y-4887116D01*
X55609117Y-4835928D01*
X55627759Y-4822383D01*
X55645408Y-4804735D01*
X55694554Y-4773854D01*
X55744362Y-4737667D01*
X55771073Y-4725774D01*
X55797093Y-4709425D01*
X55847077Y-4691934D01*
X55897089Y-4669668D01*
X55931792Y-4662291D01*
X55966183Y-4650258D01*
X56013481Y-4644928D01*
X56060612Y-4634911D01*
X56102389Y-4634911D01*
X56144200Y-4630200D01*
X56186011Y-4634911D01*
G37*
G36*
X66346011Y-4634911D02*
G01*
X66387788Y-4634911D01*
X66434918Y-4644928D01*
X66482217Y-4650258D01*
X66516608Y-4662292D01*
X66551310Y-4669668D01*
X66601317Y-4691933D01*
X66651307Y-4709425D01*
X66677328Y-4725775D01*
X66704035Y-4737666D01*
X66753833Y-4773846D01*
X66802992Y-4804735D01*
X66820644Y-4822387D01*
X66839284Y-4835930D01*
X66885365Y-4887108D01*
X66929665Y-4931408D01*
X66939854Y-4947624D01*
X66951146Y-4960165D01*
X66989773Y-5027070D01*
X67024975Y-5083093D01*
X67029370Y-5095653D01*
X67034735Y-5104946D01*
X67062210Y-5189505D01*
X67084142Y-5252183D01*
X67084973Y-5259563D01*
X67086395Y-5263938D01*
X67099276Y-5386506D01*
X67104200Y-5430200D01*
X67099276Y-5473897D01*
X67086395Y-5596461D01*
X67084973Y-5600835D01*
X67084142Y-5608217D01*
X67062205Y-5670907D01*
X67034735Y-5755453D01*
X67029371Y-5764743D01*
X67024975Y-5777307D01*
X66989766Y-5833340D01*
X66951146Y-5900234D01*
X66939856Y-5912772D01*
X66929665Y-5928992D01*
X66885355Y-5973301D01*
X66839284Y-6024469D01*
X66820648Y-6038008D01*
X66802992Y-6055665D01*
X66753823Y-6086559D01*
X66704035Y-6122733D01*
X66677334Y-6134621D01*
X66651307Y-6150975D01*
X66601307Y-6168470D01*
X66551310Y-6190731D01*
X66516614Y-6198105D01*
X66482217Y-6210142D01*
X66434915Y-6215471D01*
X66387788Y-6225489D01*
X66346011Y-6225489D01*
X66304200Y-6230200D01*
X66262389Y-6225489D01*
X66220612Y-6225489D01*
X66173484Y-6215471D01*
X66126183Y-6210142D01*
X66091786Y-6198106D01*
X66057089Y-6190731D01*
X66007087Y-6168468D01*
X65957093Y-6150975D01*
X65931068Y-6134622D01*
X65904364Y-6122733D01*
X65854569Y-6086555D01*
X65805408Y-6055665D01*
X65787754Y-6038011D01*
X65769115Y-6024469D01*
X65723033Y-5973290D01*
X65678735Y-5928992D01*
X65668545Y-5912775D01*
X65657253Y-5900234D01*
X65618620Y-5833320D01*
X65583425Y-5777307D01*
X65579030Y-5764747D01*
X65573664Y-5755453D01*
X65546180Y-5670867D01*
X65524258Y-5608217D01*
X65523426Y-5600839D01*
X65522004Y-5596461D01*
X65509108Y-5473765D01*
X65504200Y-5430200D01*
X65509108Y-5386638D01*
X65522004Y-5263938D01*
X65523426Y-5259558D01*
X65524258Y-5252183D01*
X65546175Y-5189545D01*
X65573664Y-5104946D01*
X65579031Y-5095649D01*
X65583425Y-5083093D01*
X65618613Y-5027090D01*
X65657253Y-4960165D01*
X65668547Y-4947621D01*
X65678735Y-4931408D01*
X65723026Y-4887116D01*
X65769117Y-4835928D01*
X65787759Y-4822383D01*
X65805408Y-4804735D01*
X65854554Y-4773854D01*
X65904362Y-4737667D01*
X65931073Y-4725774D01*
X65957093Y-4709425D01*
X66007077Y-4691934D01*
X66057089Y-4669668D01*
X66091792Y-4662291D01*
X66126183Y-4650258D01*
X66173481Y-4644928D01*
X66220612Y-4634911D01*
X66262389Y-4634911D01*
X66304200Y-4630200D01*
X66346011Y-4634911D01*
G37*
G36*
X74789611Y-4321711D02*
G01*
X74831388Y-4321711D01*
X74878518Y-4331728D01*
X74925817Y-4337058D01*
X74960208Y-4349092D01*
X74994910Y-4356468D01*
X75044917Y-4378733D01*
X75094907Y-4396225D01*
X75120928Y-4412575D01*
X75147635Y-4424466D01*
X75197433Y-4460646D01*
X75246592Y-4491535D01*
X75264244Y-4509187D01*
X75282884Y-4522730D01*
X75328965Y-4573908D01*
X75373265Y-4618208D01*
X75383454Y-4634424D01*
X75394746Y-4646965D01*
X75433373Y-4713870D01*
X75468575Y-4769893D01*
X75472970Y-4782453D01*
X75478335Y-4791746D01*
X75505810Y-4876305D01*
X75527742Y-4938983D01*
X75528573Y-4946363D01*
X75529995Y-4950738D01*
X75542876Y-5073306D01*
X75547800Y-5117000D01*
X75542876Y-5160697D01*
X75529995Y-5283261D01*
X75528573Y-5287635D01*
X75527742Y-5295017D01*
X75505805Y-5357707D01*
X75478335Y-5442253D01*
X75472971Y-5451543D01*
X75468575Y-5464107D01*
X75433366Y-5520140D01*
X75394746Y-5587034D01*
X75383456Y-5599572D01*
X75373265Y-5615792D01*
X75328955Y-5660101D01*
X75282884Y-5711269D01*
X75264248Y-5724808D01*
X75246592Y-5742465D01*
X75197423Y-5773359D01*
X75147635Y-5809533D01*
X75120934Y-5821421D01*
X75094907Y-5837775D01*
X75044907Y-5855270D01*
X74994910Y-5877531D01*
X74960214Y-5884905D01*
X74925817Y-5896942D01*
X74878515Y-5902271D01*
X74831388Y-5912289D01*
X74789611Y-5912289D01*
X74747800Y-5917000D01*
X74705989Y-5912289D01*
X74664212Y-5912289D01*
X74617084Y-5902271D01*
X74569783Y-5896942D01*
X74535386Y-5884906D01*
X74500689Y-5877531D01*
X74450687Y-5855268D01*
X74400693Y-5837775D01*
X74374668Y-5821422D01*
X74347964Y-5809533D01*
X74298169Y-5773355D01*
X74249008Y-5742465D01*
X74231354Y-5724811D01*
X74212715Y-5711269D01*
X74166633Y-5660090D01*
X74122335Y-5615792D01*
X74112145Y-5599575D01*
X74100853Y-5587034D01*
X74062220Y-5520120D01*
X74027025Y-5464107D01*
X74022630Y-5451547D01*
X74017264Y-5442253D01*
X73989780Y-5357667D01*
X73967858Y-5295017D01*
X73967026Y-5287639D01*
X73965604Y-5283261D01*
X73952708Y-5160565D01*
X73947800Y-5117000D01*
X73952708Y-5073438D01*
X73965604Y-4950738D01*
X73967026Y-4946358D01*
X73967858Y-4938983D01*
X73989775Y-4876345D01*
X74017264Y-4791746D01*
X74022631Y-4782449D01*
X74027025Y-4769893D01*
X74062213Y-4713890D01*
X74100853Y-4646965D01*
X74112147Y-4634421D01*
X74122335Y-4618208D01*
X74166626Y-4573916D01*
X74212717Y-4522728D01*
X74231359Y-4509183D01*
X74249008Y-4491535D01*
X74298154Y-4460654D01*
X74347962Y-4424467D01*
X74374673Y-4412574D01*
X74400693Y-4396225D01*
X74450677Y-4378734D01*
X74500689Y-4356468D01*
X74535392Y-4349091D01*
X74569783Y-4337058D01*
X74617081Y-4331728D01*
X74664212Y-4321711D01*
X74705989Y-4321711D01*
X74747800Y-4317000D01*
X74789611Y-4321711D01*
G37*
G36*
X41952011Y-4126911D02*
G01*
X41993788Y-4126911D01*
X42040918Y-4136928D01*
X42088217Y-4142258D01*
X42122608Y-4154292D01*
X42157310Y-4161668D01*
X42207317Y-4183933D01*
X42257307Y-4201425D01*
X42283328Y-4217775D01*
X42310035Y-4229666D01*
X42359833Y-4265846D01*
X42408992Y-4296735D01*
X42426644Y-4314387D01*
X42445284Y-4327930D01*
X42491365Y-4379108D01*
X42535665Y-4423408D01*
X42545854Y-4439624D01*
X42557146Y-4452165D01*
X42595773Y-4519070D01*
X42630975Y-4575093D01*
X42635370Y-4587653D01*
X42640735Y-4596946D01*
X42668210Y-4681505D01*
X42690142Y-4744183D01*
X42690973Y-4751563D01*
X42692395Y-4755938D01*
X42705277Y-4878516D01*
X42710200Y-4922200D01*
X42705275Y-4965907D01*
X42692395Y-5088461D01*
X42690973Y-5092835D01*
X42690142Y-5100217D01*
X42668205Y-5162907D01*
X42640735Y-5247453D01*
X42635371Y-5256743D01*
X42630975Y-5269307D01*
X42595766Y-5325340D01*
X42557146Y-5392234D01*
X42545856Y-5404772D01*
X42535665Y-5420992D01*
X42491355Y-5465301D01*
X42445284Y-5516469D01*
X42426648Y-5530008D01*
X42408992Y-5547665D01*
X42359823Y-5578559D01*
X42310035Y-5614733D01*
X42283334Y-5626621D01*
X42257307Y-5642975D01*
X42207307Y-5660470D01*
X42157310Y-5682731D01*
X42122614Y-5690105D01*
X42088217Y-5702142D01*
X42040915Y-5707471D01*
X41993788Y-5717489D01*
X41952011Y-5717489D01*
X41910200Y-5722200D01*
X41868389Y-5717489D01*
X41826612Y-5717489D01*
X41779484Y-5707471D01*
X41732183Y-5702142D01*
X41697786Y-5690106D01*
X41663089Y-5682731D01*
X41613087Y-5660468D01*
X41563093Y-5642975D01*
X41537068Y-5626622D01*
X41510364Y-5614733D01*
X41460569Y-5578555D01*
X41411408Y-5547665D01*
X41393754Y-5530011D01*
X41375115Y-5516469D01*
X41329033Y-5465290D01*
X41284735Y-5420992D01*
X41274545Y-5404775D01*
X41263253Y-5392234D01*
X41224620Y-5325320D01*
X41189425Y-5269307D01*
X41185030Y-5256747D01*
X41179664Y-5247453D01*
X41152180Y-5162867D01*
X41130258Y-5100217D01*
X41129426Y-5092839D01*
X41128004Y-5088461D01*
X41115109Y-4965775D01*
X41110200Y-4922200D01*
X41115107Y-4878648D01*
X41128004Y-4755938D01*
X41129426Y-4751558D01*
X41130258Y-4744183D01*
X41152175Y-4681545D01*
X41179664Y-4596946D01*
X41185031Y-4587649D01*
X41189425Y-4575093D01*
X41224613Y-4519090D01*
X41263253Y-4452165D01*
X41274547Y-4439621D01*
X41284735Y-4423408D01*
X41329026Y-4379116D01*
X41375117Y-4327928D01*
X41393759Y-4314383D01*
X41411408Y-4296735D01*
X41460554Y-4265854D01*
X41510362Y-4229667D01*
X41537073Y-4217774D01*
X41563093Y-4201425D01*
X41613077Y-4183934D01*
X41663089Y-4161668D01*
X41697792Y-4154291D01*
X41732183Y-4142258D01*
X41779481Y-4136928D01*
X41826612Y-4126911D01*
X41868389Y-4126911D01*
X41910200Y-4122200D01*
X41952011Y-4126911D01*
G37*
G36*
X50330200Y-5722200D02*
G01*
X48730200Y-5722200D01*
X48730200Y-4122200D01*
X50330200Y-4122200D01*
X50330200Y-5722200D01*
G37*
G36*
X39595850Y-4098164D02*
G01*
X39646040Y-4103987D01*
X39663189Y-4111559D01*
X39686671Y-4116230D01*
X39711810Y-4133027D01*
X39731696Y-4141808D01*
X39745277Y-4155389D01*
X39767777Y-4170423D01*
X39782810Y-4192922D01*
X39796391Y-4206503D01*
X39805170Y-4226386D01*
X39821970Y-4251529D01*
X39826641Y-4275012D01*
X39834212Y-4292159D01*
X39840033Y-4342339D01*
X39841000Y-4347200D01*
X39841000Y-5022200D01*
X39840032Y-5027063D01*
X39834212Y-5077240D01*
X39826641Y-5094385D01*
X39821970Y-5117871D01*
X39805169Y-5143015D01*
X39796391Y-5162896D01*
X39782812Y-5176474D01*
X39767777Y-5198977D01*
X39745274Y-5214012D01*
X39731696Y-5227591D01*
X39711815Y-5236369D01*
X39686671Y-5253170D01*
X39663185Y-5257841D01*
X39646040Y-5265412D01*
X39595861Y-5271232D01*
X39591000Y-5272200D01*
X38641000Y-5272200D01*
X38636138Y-5271232D01*
X38585959Y-5265412D01*
X38568812Y-5257841D01*
X38545329Y-5253170D01*
X38520186Y-5236370D01*
X38500303Y-5227591D01*
X38486722Y-5214010D01*
X38464223Y-5198977D01*
X38449189Y-5176477D01*
X38435608Y-5162896D01*
X38426827Y-5143010D01*
X38410030Y-5117871D01*
X38405359Y-5094389D01*
X38397787Y-5077240D01*
X38391964Y-5027049D01*
X38391000Y-5022200D01*
X38391000Y-4347200D01*
X38391964Y-4342350D01*
X38397787Y-4292159D01*
X38405359Y-4275008D01*
X38410030Y-4251529D01*
X38426826Y-4226391D01*
X38435608Y-4206503D01*
X38449191Y-4192919D01*
X38464223Y-4170423D01*
X38486719Y-4155391D01*
X38500303Y-4141808D01*
X38520191Y-4133026D01*
X38545329Y-4116230D01*
X38568808Y-4111559D01*
X38585959Y-4103987D01*
X38636151Y-4098164D01*
X38641000Y-4097200D01*
X39591000Y-4097200D01*
X39595850Y-4098164D01*
G37*
G36*
X39595850Y-2023164D02*
G01*
X39646040Y-2028987D01*
X39663189Y-2036559D01*
X39686671Y-2041230D01*
X39711810Y-2058027D01*
X39731696Y-2066808D01*
X39745277Y-2080389D01*
X39767777Y-2095423D01*
X39782810Y-2117922D01*
X39796391Y-2131503D01*
X39805170Y-2151386D01*
X39821970Y-2176529D01*
X39826641Y-2200012D01*
X39834212Y-2217159D01*
X39840033Y-2267339D01*
X39841000Y-2272200D01*
X39841000Y-2947200D01*
X39840032Y-2952063D01*
X39834212Y-3002240D01*
X39826641Y-3019385D01*
X39821970Y-3042871D01*
X39805169Y-3068015D01*
X39796391Y-3087896D01*
X39782812Y-3101474D01*
X39767777Y-3123977D01*
X39745274Y-3139012D01*
X39731696Y-3152591D01*
X39711815Y-3161369D01*
X39686671Y-3178170D01*
X39663185Y-3182841D01*
X39646040Y-3190412D01*
X39595861Y-3196232D01*
X39591000Y-3197200D01*
X38641000Y-3197200D01*
X38636138Y-3196232D01*
X38585959Y-3190412D01*
X38568812Y-3182841D01*
X38545329Y-3178170D01*
X38520186Y-3161370D01*
X38500303Y-3152591D01*
X38486722Y-3139010D01*
X38464223Y-3123977D01*
X38449189Y-3101477D01*
X38435608Y-3087896D01*
X38426827Y-3068010D01*
X38410030Y-3042871D01*
X38405359Y-3019389D01*
X38397787Y-3002240D01*
X38391964Y-2952049D01*
X38391000Y-2947200D01*
X38391000Y-2272200D01*
X38391964Y-2267350D01*
X38397787Y-2217159D01*
X38405359Y-2200008D01*
X38410030Y-2176529D01*
X38426826Y-2151391D01*
X38435608Y-2131503D01*
X38449191Y-2117919D01*
X38464223Y-2095423D01*
X38486719Y-2080391D01*
X38500303Y-2066808D01*
X38520191Y-2058026D01*
X38545329Y-2041230D01*
X38568808Y-2036559D01*
X38585959Y-2028987D01*
X38636151Y-2023164D01*
X38641000Y-2022200D01*
X39591000Y-2022200D01*
X39595850Y-2023164D01*
G37*
G36*
X41952011Y-1586911D02*
G01*
X41993788Y-1586911D01*
X42040918Y-1596928D01*
X42088217Y-1602258D01*
X42122608Y-1614292D01*
X42157310Y-1621668D01*
X42207317Y-1643933D01*
X42257307Y-1661425D01*
X42283328Y-1677775D01*
X42310035Y-1689666D01*
X42359833Y-1725846D01*
X42408992Y-1756735D01*
X42426644Y-1774387D01*
X42445284Y-1787930D01*
X42491365Y-1839108D01*
X42535665Y-1883408D01*
X42545854Y-1899624D01*
X42557146Y-1912165D01*
X42595773Y-1979070D01*
X42630975Y-2035093D01*
X42635370Y-2047653D01*
X42640735Y-2056946D01*
X42668210Y-2141505D01*
X42690142Y-2204183D01*
X42690973Y-2211563D01*
X42692395Y-2215938D01*
X42705276Y-2338506D01*
X42710200Y-2382200D01*
X42705276Y-2425897D01*
X42692395Y-2548461D01*
X42690973Y-2552835D01*
X42690142Y-2560217D01*
X42668205Y-2622907D01*
X42640735Y-2707453D01*
X42635371Y-2716743D01*
X42630975Y-2729307D01*
X42595766Y-2785340D01*
X42557146Y-2852234D01*
X42545856Y-2864772D01*
X42535665Y-2880992D01*
X42491355Y-2925301D01*
X42445284Y-2976469D01*
X42426648Y-2990008D01*
X42408992Y-3007665D01*
X42359823Y-3038559D01*
X42310035Y-3074733D01*
X42283334Y-3086621D01*
X42257307Y-3102975D01*
X42207307Y-3120470D01*
X42157310Y-3142731D01*
X42122614Y-3150105D01*
X42088217Y-3162142D01*
X42040915Y-3167471D01*
X41993788Y-3177489D01*
X41952011Y-3177489D01*
X41910200Y-3182200D01*
X41868389Y-3177489D01*
X41826612Y-3177489D01*
X41779484Y-3167471D01*
X41732183Y-3162142D01*
X41697786Y-3150106D01*
X41663089Y-3142731D01*
X41613087Y-3120468D01*
X41563093Y-3102975D01*
X41537068Y-3086622D01*
X41510364Y-3074733D01*
X41460569Y-3038555D01*
X41411408Y-3007665D01*
X41393754Y-2990011D01*
X41375115Y-2976469D01*
X41329033Y-2925290D01*
X41284735Y-2880992D01*
X41274545Y-2864775D01*
X41263253Y-2852234D01*
X41224620Y-2785320D01*
X41189425Y-2729307D01*
X41185030Y-2716747D01*
X41179664Y-2707453D01*
X41152180Y-2622867D01*
X41130258Y-2560217D01*
X41129426Y-2552839D01*
X41128004Y-2548461D01*
X41115108Y-2425765D01*
X41110200Y-2382200D01*
X41115108Y-2338638D01*
X41128004Y-2215938D01*
X41129426Y-2211558D01*
X41130258Y-2204183D01*
X41152175Y-2141545D01*
X41179664Y-2056946D01*
X41185031Y-2047649D01*
X41189425Y-2035093D01*
X41224613Y-1979090D01*
X41263253Y-1912165D01*
X41274547Y-1899621D01*
X41284735Y-1883408D01*
X41329026Y-1839116D01*
X41375117Y-1787928D01*
X41393759Y-1774383D01*
X41411408Y-1756735D01*
X41460554Y-1725854D01*
X41510362Y-1689667D01*
X41537073Y-1677774D01*
X41563093Y-1661425D01*
X41613077Y-1643934D01*
X41663089Y-1621668D01*
X41697792Y-1614291D01*
X41732183Y-1602258D01*
X41779481Y-1596928D01*
X41826612Y-1586911D01*
X41868389Y-1586911D01*
X41910200Y-1582200D01*
X41952011Y-1586911D01*
G37*
G36*
X49572011Y-1586911D02*
G01*
X49613788Y-1586911D01*
X49660918Y-1596928D01*
X49708217Y-1602258D01*
X49742608Y-1614292D01*
X49777310Y-1621668D01*
X49827317Y-1643933D01*
X49877307Y-1661425D01*
X49903328Y-1677775D01*
X49930035Y-1689666D01*
X49979833Y-1725846D01*
X50028992Y-1756735D01*
X50046644Y-1774387D01*
X50065284Y-1787930D01*
X50111365Y-1839108D01*
X50155665Y-1883408D01*
X50165854Y-1899624D01*
X50177146Y-1912165D01*
X50215773Y-1979070D01*
X50250975Y-2035093D01*
X50255370Y-2047653D01*
X50260735Y-2056946D01*
X50288210Y-2141505D01*
X50310142Y-2204183D01*
X50310973Y-2211563D01*
X50312395Y-2215938D01*
X50325276Y-2338506D01*
X50330200Y-2382200D01*
X50325276Y-2425897D01*
X50312395Y-2548461D01*
X50310973Y-2552835D01*
X50310142Y-2560217D01*
X50288205Y-2622907D01*
X50260735Y-2707453D01*
X50255371Y-2716743D01*
X50250975Y-2729307D01*
X50215766Y-2785340D01*
X50177146Y-2852234D01*
X50165856Y-2864772D01*
X50155665Y-2880992D01*
X50111355Y-2925301D01*
X50065284Y-2976469D01*
X50046648Y-2990008D01*
X50028992Y-3007665D01*
X49979823Y-3038559D01*
X49930035Y-3074733D01*
X49903334Y-3086621D01*
X49877307Y-3102975D01*
X49827307Y-3120470D01*
X49777310Y-3142731D01*
X49742614Y-3150105D01*
X49708217Y-3162142D01*
X49660915Y-3167471D01*
X49613788Y-3177489D01*
X49572011Y-3177489D01*
X49530200Y-3182200D01*
X49488389Y-3177489D01*
X49446612Y-3177489D01*
X49399484Y-3167471D01*
X49352183Y-3162142D01*
X49317786Y-3150106D01*
X49283089Y-3142731D01*
X49233087Y-3120468D01*
X49183093Y-3102975D01*
X49157068Y-3086622D01*
X49130364Y-3074733D01*
X49080569Y-3038555D01*
X49031408Y-3007665D01*
X49013754Y-2990011D01*
X48995115Y-2976469D01*
X48949033Y-2925290D01*
X48904735Y-2880992D01*
X48894545Y-2864775D01*
X48883253Y-2852234D01*
X48844620Y-2785320D01*
X48809425Y-2729307D01*
X48805030Y-2716747D01*
X48799664Y-2707453D01*
X48772180Y-2622867D01*
X48750258Y-2560217D01*
X48749426Y-2552839D01*
X48748004Y-2548461D01*
X48735108Y-2425765D01*
X48730200Y-2382200D01*
X48735108Y-2338638D01*
X48748004Y-2215938D01*
X48749426Y-2211558D01*
X48750258Y-2204183D01*
X48772175Y-2141545D01*
X48799664Y-2056946D01*
X48805031Y-2047649D01*
X48809425Y-2035093D01*
X48844613Y-1979090D01*
X48883253Y-1912165D01*
X48894547Y-1899621D01*
X48904735Y-1883408D01*
X48949026Y-1839116D01*
X48995117Y-1787928D01*
X49013759Y-1774383D01*
X49031408Y-1756735D01*
X49080554Y-1725854D01*
X49130362Y-1689667D01*
X49157073Y-1677774D01*
X49183093Y-1661425D01*
X49233077Y-1643934D01*
X49283089Y-1621668D01*
X49317792Y-1614291D01*
X49352183Y-1602258D01*
X49399481Y-1596928D01*
X49446612Y-1586911D01*
X49488389Y-1586911D01*
X49530200Y-1582200D01*
X49572011Y-1586911D01*
G37*
G36*
X69789611Y-1321711D02*
G01*
X69831388Y-1321711D01*
X69878518Y-1331728D01*
X69925817Y-1337058D01*
X69960208Y-1349092D01*
X69994910Y-1356468D01*
X70044917Y-1378733D01*
X70094907Y-1396225D01*
X70120928Y-1412575D01*
X70147635Y-1424466D01*
X70197433Y-1460646D01*
X70246592Y-1491535D01*
X70264244Y-1509187D01*
X70282884Y-1522730D01*
X70328965Y-1573908D01*
X70373265Y-1618208D01*
X70383454Y-1634424D01*
X70394746Y-1646965D01*
X70433373Y-1713870D01*
X70468575Y-1769893D01*
X70472970Y-1782453D01*
X70478335Y-1791746D01*
X70505810Y-1876305D01*
X70527742Y-1938983D01*
X70528573Y-1946363D01*
X70529995Y-1950738D01*
X70542877Y-2073316D01*
X70547800Y-2117000D01*
X70542875Y-2160707D01*
X70529995Y-2283261D01*
X70528573Y-2287635D01*
X70527742Y-2295017D01*
X70505805Y-2357707D01*
X70478335Y-2442253D01*
X70472971Y-2451543D01*
X70468575Y-2464107D01*
X70433366Y-2520140D01*
X70394746Y-2587034D01*
X70383456Y-2599572D01*
X70373265Y-2615792D01*
X70328955Y-2660101D01*
X70282884Y-2711269D01*
X70264248Y-2724808D01*
X70246592Y-2742465D01*
X70197423Y-2773359D01*
X70147635Y-2809533D01*
X70120934Y-2821421D01*
X70094907Y-2837775D01*
X70044907Y-2855270D01*
X69994910Y-2877531D01*
X69960214Y-2884905D01*
X69925817Y-2896942D01*
X69878515Y-2902271D01*
X69831388Y-2912289D01*
X69789611Y-2912289D01*
X69747800Y-2917000D01*
X69705989Y-2912289D01*
X69664212Y-2912289D01*
X69617084Y-2902271D01*
X69569783Y-2896942D01*
X69535386Y-2884906D01*
X69500689Y-2877531D01*
X69450687Y-2855268D01*
X69400693Y-2837775D01*
X69374668Y-2821422D01*
X69347964Y-2809533D01*
X69298169Y-2773355D01*
X69249008Y-2742465D01*
X69231354Y-2724811D01*
X69212715Y-2711269D01*
X69166633Y-2660090D01*
X69122335Y-2615792D01*
X69112145Y-2599575D01*
X69100853Y-2587034D01*
X69062220Y-2520120D01*
X69027025Y-2464107D01*
X69022630Y-2451547D01*
X69017264Y-2442253D01*
X68989780Y-2357667D01*
X68967858Y-2295017D01*
X68967026Y-2287639D01*
X68965604Y-2283261D01*
X68952709Y-2160575D01*
X68947800Y-2117000D01*
X68952707Y-2073448D01*
X68965604Y-1950738D01*
X68967026Y-1946358D01*
X68967858Y-1938983D01*
X68989775Y-1876345D01*
X69017264Y-1791746D01*
X69022631Y-1782449D01*
X69027025Y-1769893D01*
X69062213Y-1713890D01*
X69100853Y-1646965D01*
X69112147Y-1634421D01*
X69122335Y-1618208D01*
X69166626Y-1573916D01*
X69212717Y-1522728D01*
X69231359Y-1509183D01*
X69249008Y-1491535D01*
X69298154Y-1460654D01*
X69347962Y-1424467D01*
X69374673Y-1412574D01*
X69400693Y-1396225D01*
X69450677Y-1378734D01*
X69500689Y-1356468D01*
X69535392Y-1349091D01*
X69569783Y-1337058D01*
X69617081Y-1331728D01*
X69664212Y-1321711D01*
X69705989Y-1321711D01*
X69747800Y-1317000D01*
X69789611Y-1321711D01*
G37*
G36*
X52898093Y-344119D02*
G01*
X52952922Y-344119D01*
X53001159Y-353136D01*
X53050537Y-357456D01*
X53111142Y-373695D01*
X53170596Y-384809D01*
X53210921Y-400431D01*
X53252544Y-411584D01*
X53315558Y-440967D01*
X53377086Y-464804D01*
X53408844Y-484467D01*
X53442089Y-499970D01*
X53504799Y-543880D01*
X53565362Y-581379D01*
X53588576Y-602541D01*
X53613395Y-619920D01*
X53672764Y-679289D01*
X53729011Y-730565D01*
X53744343Y-750868D01*
X53761279Y-767804D01*
X53814104Y-843246D01*
X53862461Y-907281D01*
X53871124Y-924680D01*
X53881232Y-939115D01*
X53924275Y-1031421D01*
X53961167Y-1105510D01*
X53964834Y-1118401D01*
X53969614Y-1128650D01*
X53999734Y-1241059D01*
X54021768Y-1318501D01*
X54022446Y-1325823D01*
X54023743Y-1330662D01*
X54038082Y-1494568D01*
X54042200Y-1539000D01*
X54038080Y-1583462D01*
X54023743Y-1747337D01*
X54022446Y-1752174D01*
X54021768Y-1759499D01*
X53999727Y-1836965D01*
X53969615Y-1949344D01*
X53964837Y-1959589D01*
X53961167Y-1972490D01*
X53924252Y-2046625D01*
X53881229Y-2138889D01*
X53871125Y-2153318D01*
X53862461Y-2170719D01*
X53814097Y-2234762D01*
X53761279Y-2310195D01*
X53744346Y-2327127D01*
X53729011Y-2347435D01*
X53672752Y-2398721D01*
X53613395Y-2458079D01*
X53588581Y-2475453D01*
X53565362Y-2496621D01*
X53504787Y-2534127D01*
X53442089Y-2578029D01*
X53408850Y-2593528D01*
X53377086Y-2613196D01*
X53315545Y-2637037D01*
X53252544Y-2666415D01*
X53210929Y-2677565D01*
X53170596Y-2693191D01*
X53111130Y-2704307D01*
X53050537Y-2720543D01*
X53001169Y-2724862D01*
X52952922Y-2733881D01*
X52898081Y-2733881D01*
X52842199Y-2738770D01*
X52786317Y-2733881D01*
X52731478Y-2733881D01*
X52683231Y-2724862D01*
X52633862Y-2720543D01*
X52573266Y-2704306D01*
X52513804Y-2693191D01*
X52473472Y-2677566D01*
X52431855Y-2666415D01*
X52368848Y-2637034D01*
X52307314Y-2613196D01*
X52275552Y-2593530D01*
X52242310Y-2578029D01*
X52179604Y-2534121D01*
X52119038Y-2496621D01*
X52095821Y-2475456D01*
X52071004Y-2458079D01*
X52011635Y-2398710D01*
X51955389Y-2347435D01*
X51940056Y-2327131D01*
X51923120Y-2310195D01*
X51870288Y-2234743D01*
X51821939Y-2170719D01*
X51813276Y-2153323D01*
X51803170Y-2138889D01*
X51760132Y-2046593D01*
X51723233Y-1972490D01*
X51719564Y-1959594D01*
X51714784Y-1949344D01*
X51684655Y-1836904D01*
X51662632Y-1759499D01*
X51661953Y-1752180D01*
X51660656Y-1747337D01*
X51646302Y-1583268D01*
X51642200Y-1539000D01*
X51646299Y-1494761D01*
X51660656Y-1330662D01*
X51661954Y-1325817D01*
X51662632Y-1318501D01*
X51684648Y-1241120D01*
X51714785Y-1128650D01*
X51719566Y-1118395D01*
X51723233Y-1105510D01*
X51760109Y-1031452D01*
X51803167Y-939115D01*
X51813277Y-924675D01*
X51821939Y-907281D01*
X51870281Y-843264D01*
X51923120Y-767804D01*
X51940059Y-750864D01*
X51955389Y-730565D01*
X52011624Y-679299D01*
X52071004Y-619920D01*
X52095826Y-602539D01*
X52119038Y-581379D01*
X52179595Y-543883D01*
X52242315Y-499967D01*
X52275564Y-484462D01*
X52307314Y-464804D01*
X52368821Y-440975D01*
X52431850Y-411585D01*
X52473483Y-400429D01*
X52513804Y-384809D01*
X52573253Y-373696D01*
X52633862Y-357456D01*
X52683241Y-353135D01*
X52731478Y-344119D01*
X52786306Y-344119D01*
X52842199Y-339229D01*
X52898093Y-344119D01*
G37*
G36*
X56186011Y-1078911D02*
G01*
X56227788Y-1078911D01*
X56274918Y-1088928D01*
X56322217Y-1094258D01*
X56356608Y-1106292D01*
X56391310Y-1113668D01*
X56441317Y-1135933D01*
X56491307Y-1153425D01*
X56517328Y-1169775D01*
X56544035Y-1181666D01*
X56593833Y-1217846D01*
X56642992Y-1248735D01*
X56660644Y-1266387D01*
X56679284Y-1279930D01*
X56725365Y-1331108D01*
X56769665Y-1375408D01*
X56779854Y-1391624D01*
X56791146Y-1404165D01*
X56829773Y-1471070D01*
X56864975Y-1527093D01*
X56869370Y-1539653D01*
X56874735Y-1548946D01*
X56902210Y-1633505D01*
X56924142Y-1696183D01*
X56924973Y-1703563D01*
X56926395Y-1707938D01*
X56939277Y-1830516D01*
X56944200Y-1874200D01*
X56939275Y-1917907D01*
X56926395Y-2040461D01*
X56924973Y-2044835D01*
X56924142Y-2052217D01*
X56902205Y-2114907D01*
X56874735Y-2199453D01*
X56869371Y-2208743D01*
X56864975Y-2221307D01*
X56829766Y-2277340D01*
X56791146Y-2344234D01*
X56779856Y-2356772D01*
X56769665Y-2372992D01*
X56725355Y-2417301D01*
X56679284Y-2468469D01*
X56660648Y-2482008D01*
X56642992Y-2499665D01*
X56593823Y-2530559D01*
X56544035Y-2566733D01*
X56517334Y-2578621D01*
X56491307Y-2594975D01*
X56441307Y-2612470D01*
X56391310Y-2634731D01*
X56356614Y-2642105D01*
X56322217Y-2654142D01*
X56274915Y-2659471D01*
X56227788Y-2669489D01*
X56186011Y-2669489D01*
X56144200Y-2674200D01*
X56102389Y-2669489D01*
X56060612Y-2669489D01*
X56013484Y-2659471D01*
X55966183Y-2654142D01*
X55931786Y-2642106D01*
X55897089Y-2634731D01*
X55847087Y-2612468D01*
X55797093Y-2594975D01*
X55771068Y-2578622D01*
X55744364Y-2566733D01*
X55694569Y-2530555D01*
X55645408Y-2499665D01*
X55627754Y-2482011D01*
X55609115Y-2468469D01*
X55563033Y-2417290D01*
X55518735Y-2372992D01*
X55508545Y-2356775D01*
X55497253Y-2344234D01*
X55458620Y-2277320D01*
X55423425Y-2221307D01*
X55419030Y-2208747D01*
X55413664Y-2199453D01*
X55386180Y-2114867D01*
X55364258Y-2052217D01*
X55363426Y-2044839D01*
X55362004Y-2040461D01*
X55349109Y-1917775D01*
X55344200Y-1874200D01*
X55349107Y-1830648D01*
X55362004Y-1707938D01*
X55363426Y-1703558D01*
X55364258Y-1696183D01*
X55386175Y-1633545D01*
X55413664Y-1548946D01*
X55419031Y-1539649D01*
X55423425Y-1527093D01*
X55458613Y-1471090D01*
X55497253Y-1404165D01*
X55508547Y-1391621D01*
X55518735Y-1375408D01*
X55563026Y-1331116D01*
X55609117Y-1279928D01*
X55627759Y-1266383D01*
X55645408Y-1248735D01*
X55694554Y-1217854D01*
X55744362Y-1181667D01*
X55771073Y-1169774D01*
X55797093Y-1153425D01*
X55847077Y-1135934D01*
X55897089Y-1113668D01*
X55931792Y-1106291D01*
X55966183Y-1094258D01*
X56013481Y-1088928D01*
X56060612Y-1078911D01*
X56102389Y-1078911D01*
X56144200Y-1074200D01*
X56186011Y-1078911D01*
G37*
G36*
X66346011Y-1078911D02*
G01*
X66387788Y-1078911D01*
X66434918Y-1088928D01*
X66482217Y-1094258D01*
X66516608Y-1106292D01*
X66551310Y-1113668D01*
X66601317Y-1135933D01*
X66651307Y-1153425D01*
X66677328Y-1169775D01*
X66704035Y-1181666D01*
X66753833Y-1217846D01*
X66802992Y-1248735D01*
X66820644Y-1266387D01*
X66839284Y-1279930D01*
X66885365Y-1331108D01*
X66929665Y-1375408D01*
X66939854Y-1391624D01*
X66951146Y-1404165D01*
X66989773Y-1471070D01*
X67024975Y-1527093D01*
X67029370Y-1539653D01*
X67034735Y-1548946D01*
X67062210Y-1633505D01*
X67084142Y-1696183D01*
X67084973Y-1703563D01*
X67086395Y-1707938D01*
X67099277Y-1830516D01*
X67104200Y-1874200D01*
X67099275Y-1917907D01*
X67086395Y-2040461D01*
X67084973Y-2044835D01*
X67084142Y-2052217D01*
X67062205Y-2114907D01*
X67034735Y-2199453D01*
X67029371Y-2208743D01*
X67024975Y-2221307D01*
X66989766Y-2277340D01*
X66951146Y-2344234D01*
X66939856Y-2356772D01*
X66929665Y-2372992D01*
X66885355Y-2417301D01*
X66839284Y-2468469D01*
X66820648Y-2482008D01*
X66802992Y-2499665D01*
X66753823Y-2530559D01*
X66704035Y-2566733D01*
X66677334Y-2578621D01*
X66651307Y-2594975D01*
X66601307Y-2612470D01*
X66551310Y-2634731D01*
X66516614Y-2642105D01*
X66482217Y-2654142D01*
X66434915Y-2659471D01*
X66387788Y-2669489D01*
X66346011Y-2669489D01*
X66304200Y-2674200D01*
X66262389Y-2669489D01*
X66220612Y-2669489D01*
X66173484Y-2659471D01*
X66126183Y-2654142D01*
X66091786Y-2642106D01*
X66057089Y-2634731D01*
X66007087Y-2612468D01*
X65957093Y-2594975D01*
X65931068Y-2578622D01*
X65904364Y-2566733D01*
X65854569Y-2530555D01*
X65805408Y-2499665D01*
X65787754Y-2482011D01*
X65769115Y-2468469D01*
X65723033Y-2417290D01*
X65678735Y-2372992D01*
X65668545Y-2356775D01*
X65657253Y-2344234D01*
X65618620Y-2277320D01*
X65583425Y-2221307D01*
X65579030Y-2208747D01*
X65573664Y-2199453D01*
X65546180Y-2114867D01*
X65524258Y-2052217D01*
X65523426Y-2044839D01*
X65522004Y-2040461D01*
X65509109Y-1917775D01*
X65504200Y-1874200D01*
X65509107Y-1830648D01*
X65522004Y-1707938D01*
X65523426Y-1703558D01*
X65524258Y-1696183D01*
X65546175Y-1633545D01*
X65573664Y-1548946D01*
X65579031Y-1539649D01*
X65583425Y-1527093D01*
X65618613Y-1471090D01*
X65657253Y-1404165D01*
X65668547Y-1391621D01*
X65678735Y-1375408D01*
X65723026Y-1331116D01*
X65769117Y-1279928D01*
X65787759Y-1266383D01*
X65805408Y-1248735D01*
X65854554Y-1217854D01*
X65904362Y-1181667D01*
X65931073Y-1169774D01*
X65957093Y-1153425D01*
X66007077Y-1135934D01*
X66057089Y-1113668D01*
X66091792Y-1106291D01*
X66126183Y-1094258D01*
X66173481Y-1088928D01*
X66220612Y-1078911D01*
X66262389Y-1078911D01*
X66304200Y-1074200D01*
X66346011Y-1078911D01*
G37*
G36*
X3847113Y-104930D02*
G01*
X3894076Y-104930D01*
X3934622Y-113548D01*
X3975526Y-117577D01*
X4026916Y-133166D01*
X4078115Y-144049D01*
X4110879Y-158636D01*
X4144304Y-168776D01*
X4197420Y-197166D01*
X4250000Y-220577D01*
X4274445Y-238337D01*
X4299849Y-251916D01*
X4351669Y-294444D01*
X4402218Y-331170D01*
X4418631Y-349398D01*
X4436190Y-363809D01*
X4483379Y-421308D01*
X4528115Y-470993D01*
X4537512Y-487269D01*
X4548083Y-500150D01*
X4587183Y-573302D01*
X4622191Y-633937D01*
X4626218Y-646331D01*
X4631223Y-655695D01*
X4658821Y-746672D01*
X4680333Y-812879D01*
X4681090Y-820082D01*
X4682422Y-824473D01*
X4695377Y-956021D01*
X4700000Y-1000000D01*
X4695377Y-1043982D01*
X4682422Y-1175526D01*
X4681090Y-1179916D01*
X4680333Y-1187121D01*
X4658816Y-1253341D01*
X4631223Y-1344304D01*
X4626219Y-1353665D01*
X4622191Y-1366063D01*
X4587176Y-1426709D01*
X4548083Y-1499849D01*
X4537514Y-1512726D01*
X4528115Y-1529007D01*
X4483369Y-1578701D01*
X4436190Y-1636190D01*
X4418634Y-1650597D01*
X4402218Y-1668830D01*
X4351659Y-1705563D01*
X4299849Y-1748083D01*
X4274450Y-1761658D01*
X4250000Y-1779423D01*
X4197408Y-1802838D01*
X4144304Y-1831223D01*
X4110886Y-1841360D01*
X4078115Y-1855951D01*
X4026905Y-1866836D01*
X3975526Y-1882422D01*
X3934631Y-1886449D01*
X3894076Y-1895070D01*
X3847103Y-1895070D01*
X3800000Y-1899709D01*
X3752897Y-1895070D01*
X3705924Y-1895070D01*
X3665368Y-1886449D01*
X3624473Y-1882422D01*
X3573091Y-1866835D01*
X3521885Y-1855951D01*
X3489115Y-1841361D01*
X3455695Y-1831223D01*
X3402585Y-1802835D01*
X3350000Y-1779423D01*
X3325552Y-1761660D01*
X3300150Y-1748083D01*
X3248332Y-1705556D01*
X3197782Y-1668830D01*
X3181368Y-1650600D01*
X3163809Y-1636190D01*
X3116618Y-1578688D01*
X3071885Y-1529007D01*
X3062487Y-1512730D01*
X3051916Y-1499849D01*
X3012810Y-1426686D01*
X2977809Y-1366063D01*
X2973782Y-1353670D01*
X2968776Y-1344304D01*
X2941168Y-1253294D01*
X2919667Y-1187121D01*
X2918910Y-1179921D01*
X2917577Y-1175526D01*
X2904606Y-1043831D01*
X2900000Y-1000000D01*
X2904606Y-956172D01*
X2917577Y-824473D01*
X2918910Y-820077D01*
X2919667Y-812879D01*
X2941163Y-746719D01*
X2968776Y-655695D01*
X2973783Y-646327D01*
X2977809Y-633937D01*
X3012802Y-573326D01*
X3051916Y-500150D01*
X3062489Y-487265D01*
X3071885Y-470993D01*
X3116609Y-421321D01*
X3163809Y-363809D01*
X3181371Y-349395D01*
X3197782Y-331170D01*
X3248321Y-294450D01*
X3300150Y-251916D01*
X3325557Y-238335D01*
X3350000Y-220577D01*
X3402573Y-197169D01*
X3455695Y-168776D01*
X3489122Y-158635D01*
X3521885Y-144049D01*
X3573080Y-133166D01*
X3624473Y-117577D01*
X3665377Y-113548D01*
X3705924Y-104930D01*
X3752887Y-104930D01*
X3800000Y-100290D01*
X3847113Y-104930D01*
G37*
G36*
X8847113Y-104930D02*
G01*
X8894076Y-104930D01*
X8934622Y-113548D01*
X8975526Y-117577D01*
X9026916Y-133166D01*
X9078115Y-144049D01*
X9110879Y-158636D01*
X9144304Y-168776D01*
X9197420Y-197166D01*
X9250000Y-220577D01*
X9274445Y-238337D01*
X9299849Y-251916D01*
X9351669Y-294444D01*
X9402218Y-331170D01*
X9418631Y-349398D01*
X9436190Y-363809D01*
X9483379Y-421308D01*
X9528115Y-470993D01*
X9537512Y-487269D01*
X9548083Y-500150D01*
X9587183Y-573302D01*
X9622191Y-633937D01*
X9626218Y-646331D01*
X9631223Y-655695D01*
X9658821Y-746672D01*
X9680333Y-812879D01*
X9681090Y-820082D01*
X9682422Y-824473D01*
X9695377Y-956021D01*
X9700000Y-1000000D01*
X9695377Y-1043982D01*
X9682422Y-1175526D01*
X9681090Y-1179916D01*
X9680333Y-1187121D01*
X9658816Y-1253341D01*
X9631223Y-1344304D01*
X9626219Y-1353665D01*
X9622191Y-1366063D01*
X9587176Y-1426709D01*
X9548083Y-1499849D01*
X9537514Y-1512726D01*
X9528115Y-1529007D01*
X9483369Y-1578701D01*
X9436190Y-1636190D01*
X9418634Y-1650597D01*
X9402218Y-1668830D01*
X9351659Y-1705563D01*
X9299849Y-1748083D01*
X9274450Y-1761658D01*
X9250000Y-1779423D01*
X9197408Y-1802838D01*
X9144304Y-1831223D01*
X9110886Y-1841360D01*
X9078115Y-1855951D01*
X9026905Y-1866836D01*
X8975526Y-1882422D01*
X8934631Y-1886449D01*
X8894076Y-1895070D01*
X8847103Y-1895070D01*
X8800000Y-1899709D01*
X8752897Y-1895070D01*
X8705924Y-1895070D01*
X8665368Y-1886449D01*
X8624473Y-1882422D01*
X8573091Y-1866835D01*
X8521885Y-1855951D01*
X8489115Y-1841361D01*
X8455695Y-1831223D01*
X8402585Y-1802835D01*
X8350000Y-1779423D01*
X8325552Y-1761660D01*
X8300150Y-1748083D01*
X8248332Y-1705556D01*
X8197782Y-1668830D01*
X8181368Y-1650600D01*
X8163809Y-1636190D01*
X8116618Y-1578688D01*
X8071885Y-1529007D01*
X8062487Y-1512730D01*
X8051916Y-1499849D01*
X8012810Y-1426686D01*
X7977809Y-1366063D01*
X7973782Y-1353670D01*
X7968776Y-1344304D01*
X7941168Y-1253294D01*
X7919667Y-1187121D01*
X7918910Y-1179921D01*
X7917577Y-1175526D01*
X7904606Y-1043831D01*
X7900000Y-1000000D01*
X7904606Y-956172D01*
X7917577Y-824473D01*
X7918910Y-820077D01*
X7919667Y-812879D01*
X7941163Y-746719D01*
X7968776Y-655695D01*
X7973783Y-646327D01*
X7977809Y-633937D01*
X8012802Y-573326D01*
X8051916Y-500150D01*
X8062489Y-487265D01*
X8071885Y-470993D01*
X8116609Y-421321D01*
X8163809Y-363809D01*
X8181371Y-349395D01*
X8197782Y-331170D01*
X8248321Y-294450D01*
X8300150Y-251916D01*
X8325557Y-238335D01*
X8350000Y-220577D01*
X8402573Y-197169D01*
X8455695Y-168776D01*
X8489122Y-158635D01*
X8521885Y-144049D01*
X8573080Y-133166D01*
X8624473Y-117577D01*
X8665377Y-113548D01*
X8705924Y-104930D01*
X8752887Y-104930D01*
X8800000Y-100290D01*
X8847113Y-104930D01*
G37*
G36*
X78947113Y-104930D02*
G01*
X78994076Y-104930D01*
X79034622Y-113548D01*
X79075526Y-117577D01*
X79126916Y-133166D01*
X79178115Y-144049D01*
X79210879Y-158636D01*
X79244304Y-168776D01*
X79297420Y-197166D01*
X79350000Y-220577D01*
X79374445Y-238337D01*
X79399849Y-251916D01*
X79451669Y-294444D01*
X79502218Y-331170D01*
X79518631Y-349398D01*
X79536190Y-363809D01*
X79583379Y-421308D01*
X79628115Y-470993D01*
X79637512Y-487269D01*
X79648083Y-500150D01*
X79687183Y-573302D01*
X79722191Y-633937D01*
X79726218Y-646331D01*
X79731223Y-655695D01*
X79758821Y-746672D01*
X79780333Y-812879D01*
X79781090Y-820082D01*
X79782422Y-824473D01*
X79795377Y-956021D01*
X79800000Y-1000000D01*
X79795377Y-1043982D01*
X79782422Y-1175526D01*
X79781090Y-1179916D01*
X79780333Y-1187121D01*
X79758816Y-1253341D01*
X79731223Y-1344304D01*
X79726219Y-1353665D01*
X79722191Y-1366063D01*
X79687176Y-1426709D01*
X79648083Y-1499849D01*
X79637514Y-1512726D01*
X79628115Y-1529007D01*
X79583369Y-1578701D01*
X79536190Y-1636190D01*
X79518634Y-1650597D01*
X79502218Y-1668830D01*
X79451659Y-1705563D01*
X79399849Y-1748083D01*
X79374450Y-1761658D01*
X79350000Y-1779423D01*
X79297408Y-1802838D01*
X79244304Y-1831223D01*
X79210886Y-1841360D01*
X79178115Y-1855951D01*
X79126905Y-1866836D01*
X79075526Y-1882422D01*
X79034631Y-1886449D01*
X78994076Y-1895070D01*
X78947103Y-1895070D01*
X78900000Y-1899709D01*
X78852897Y-1895070D01*
X78805924Y-1895070D01*
X78765368Y-1886449D01*
X78724473Y-1882422D01*
X78673091Y-1866835D01*
X78621885Y-1855951D01*
X78589115Y-1841361D01*
X78555695Y-1831223D01*
X78502585Y-1802835D01*
X78450000Y-1779423D01*
X78425552Y-1761660D01*
X78400150Y-1748083D01*
X78348332Y-1705556D01*
X78297782Y-1668830D01*
X78281368Y-1650600D01*
X78263809Y-1636190D01*
X78216618Y-1578688D01*
X78171885Y-1529007D01*
X78162487Y-1512730D01*
X78151916Y-1499849D01*
X78112810Y-1426686D01*
X78077809Y-1366063D01*
X78073782Y-1353670D01*
X78068776Y-1344304D01*
X78041168Y-1253294D01*
X78019667Y-1187121D01*
X78018910Y-1179921D01*
X78017577Y-1175526D01*
X78004607Y-1043842D01*
X78000000Y-1000000D01*
X78004605Y-956183D01*
X78017577Y-824473D01*
X78018910Y-820077D01*
X78019667Y-812879D01*
X78041163Y-746719D01*
X78068776Y-655695D01*
X78073783Y-646327D01*
X78077809Y-633937D01*
X78112802Y-573326D01*
X78151916Y-500150D01*
X78162489Y-487265D01*
X78171885Y-470993D01*
X78216609Y-421321D01*
X78263809Y-363809D01*
X78281371Y-349395D01*
X78297782Y-331170D01*
X78348321Y-294450D01*
X78400150Y-251916D01*
X78425557Y-238335D01*
X78450000Y-220577D01*
X78502573Y-197169D01*
X78555695Y-168776D01*
X78589122Y-158635D01*
X78621885Y-144049D01*
X78673080Y-133166D01*
X78724473Y-117577D01*
X78765377Y-113548D01*
X78805924Y-104930D01*
X78852887Y-104930D01*
X78900000Y-100290D01*
X78947113Y-104930D01*
G37*
G36*
X83947113Y-104930D02*
G01*
X83994076Y-104930D01*
X84034622Y-113548D01*
X84075526Y-117577D01*
X84126916Y-133166D01*
X84178115Y-144049D01*
X84210879Y-158636D01*
X84244304Y-168776D01*
X84297420Y-197166D01*
X84350000Y-220577D01*
X84374445Y-238337D01*
X84399849Y-251916D01*
X84451669Y-294444D01*
X84502218Y-331170D01*
X84518631Y-349398D01*
X84536190Y-363809D01*
X84583379Y-421308D01*
X84628115Y-470993D01*
X84637512Y-487269D01*
X84648083Y-500150D01*
X84687183Y-573302D01*
X84722191Y-633937D01*
X84726218Y-646331D01*
X84731223Y-655695D01*
X84758821Y-746672D01*
X84780333Y-812879D01*
X84781090Y-820082D01*
X84782422Y-824473D01*
X84795378Y-956032D01*
X84800000Y-1000000D01*
X84795376Y-1043993D01*
X84782422Y-1175526D01*
X84781090Y-1179916D01*
X84780333Y-1187121D01*
X84758816Y-1253341D01*
X84731223Y-1344304D01*
X84726219Y-1353665D01*
X84722191Y-1366063D01*
X84687176Y-1426709D01*
X84648083Y-1499849D01*
X84637514Y-1512726D01*
X84628115Y-1529007D01*
X84583369Y-1578701D01*
X84536190Y-1636190D01*
X84518634Y-1650597D01*
X84502218Y-1668830D01*
X84451659Y-1705563D01*
X84399849Y-1748083D01*
X84374450Y-1761658D01*
X84350000Y-1779423D01*
X84297408Y-1802838D01*
X84244304Y-1831223D01*
X84210886Y-1841360D01*
X84178115Y-1855951D01*
X84126905Y-1866836D01*
X84075526Y-1882422D01*
X84034631Y-1886449D01*
X83994076Y-1895070D01*
X83947103Y-1895070D01*
X83900000Y-1899709D01*
X83852897Y-1895070D01*
X83805924Y-1895070D01*
X83765368Y-1886449D01*
X83724473Y-1882422D01*
X83673091Y-1866835D01*
X83621885Y-1855951D01*
X83589115Y-1841361D01*
X83555695Y-1831223D01*
X83502585Y-1802835D01*
X83450000Y-1779423D01*
X83425552Y-1761660D01*
X83400150Y-1748083D01*
X83348332Y-1705556D01*
X83297782Y-1668830D01*
X83281368Y-1650600D01*
X83263809Y-1636190D01*
X83216618Y-1578688D01*
X83171885Y-1529007D01*
X83162487Y-1512730D01*
X83151916Y-1499849D01*
X83112810Y-1426686D01*
X83077809Y-1366063D01*
X83073782Y-1353670D01*
X83068776Y-1344304D01*
X83041168Y-1253294D01*
X83019667Y-1187121D01*
X83018910Y-1179921D01*
X83017577Y-1175526D01*
X83004606Y-1043831D01*
X83000000Y-1000000D01*
X83004606Y-956172D01*
X83017577Y-824473D01*
X83018910Y-820077D01*
X83019667Y-812879D01*
X83041163Y-746719D01*
X83068776Y-655695D01*
X83073783Y-646327D01*
X83077809Y-633937D01*
X83112802Y-573326D01*
X83151916Y-500150D01*
X83162489Y-487265D01*
X83171885Y-470993D01*
X83216609Y-421321D01*
X83263809Y-363809D01*
X83281371Y-349395D01*
X83297782Y-331170D01*
X83348321Y-294450D01*
X83400150Y-251916D01*
X83425557Y-238335D01*
X83450000Y-220577D01*
X83502573Y-197169D01*
X83555695Y-168776D01*
X83589122Y-158635D01*
X83621885Y-144049D01*
X83673080Y-133166D01*
X83724473Y-117577D01*
X83765377Y-113548D01*
X83805924Y-104930D01*
X83852887Y-104930D01*
X83900000Y-100290D01*
X83947113Y-104930D01*
G37*
M02*
